%TF.GenerationSoftware,KiCad,Pcbnew,8.0.7*%
%TF.CreationDate,2024-12-04T21:27:52-06:00*%
%TF.ProjectId,b3,62332e6b-6963-4616-945f-706362585858,rev?*%
%TF.SameCoordinates,Original*%
%TF.FileFunction,Drillmap*%
%TF.FilePolarity,Positive*%
%FSLAX45Y45*%
G04 Gerber Fmt 4.5, Leading zero omitted, Abs format (unit mm)*
G04 Created by KiCad (PCBNEW 8.0.7) date 2024-12-04 21:27:52*
%MOMM*%
%LPD*%
G01*
G04 APERTURE LIST*
%ADD10C,0.050000*%
%ADD11C,0.200000*%
%ADD12C,0.100000*%
G04 APERTURE END LIST*
D10*
X17000000Y-5000000D02*
G75*
G02*
X13000000Y-5000000I-2000000J0D01*
G01*
X13000000Y-5000000D02*
G75*
G02*
X17000000Y-5000000I2000000J0D01*
G01*
D11*
D12*
X13125000Y-4975000D02*
X13175000Y-5025000D01*
X13175000Y-4975000D02*
X13125000Y-5025000D01*
X13372853Y-4050000D02*
X13422853Y-4100000D01*
X13422853Y-4050000D02*
X13372853Y-4100000D01*
X13372853Y-5900000D02*
X13422853Y-5950000D01*
X13422853Y-5900000D02*
X13372853Y-5950000D01*
X14025000Y-6577147D02*
X14075000Y-6627147D01*
X14075000Y-6577147D02*
X14025000Y-6627147D01*
X14050000Y-3372853D02*
X14100000Y-3422853D01*
X14100000Y-3372853D02*
X14050000Y-3422853D01*
X15900000Y-3372853D02*
X15950000Y-3422853D01*
X15950000Y-3372853D02*
X15900000Y-3422853D01*
X15925000Y-6577147D02*
X15975000Y-6627147D01*
X15975000Y-6577147D02*
X15925000Y-6627147D01*
X16577147Y-4050000D02*
X16627147Y-4100000D01*
X16627147Y-4050000D02*
X16577147Y-4100000D01*
X16577147Y-5900000D02*
X16627147Y-5950000D01*
X16627147Y-5900000D02*
X16577147Y-5950000D01*
X16825000Y-4975000D02*
X16875000Y-5025000D01*
X16875000Y-4975000D02*
X16825000Y-5025000D01*
D11*
X13258277Y-7313984D02*
X13258277Y-7113984D01*
X13258277Y-7113984D02*
X13305896Y-7113984D01*
X13305896Y-7113984D02*
X13334467Y-7123508D01*
X13334467Y-7123508D02*
X13353515Y-7142555D01*
X13353515Y-7142555D02*
X13363039Y-7161603D01*
X13363039Y-7161603D02*
X13372562Y-7199698D01*
X13372562Y-7199698D02*
X13372562Y-7228269D01*
X13372562Y-7228269D02*
X13363039Y-7266365D01*
X13363039Y-7266365D02*
X13353515Y-7285412D01*
X13353515Y-7285412D02*
X13334467Y-7304460D01*
X13334467Y-7304460D02*
X13305896Y-7313984D01*
X13305896Y-7313984D02*
X13258277Y-7313984D01*
X13458277Y-7313984D02*
X13458277Y-7180650D01*
X13458277Y-7218746D02*
X13467801Y-7199698D01*
X13467801Y-7199698D02*
X13477324Y-7190174D01*
X13477324Y-7190174D02*
X13496372Y-7180650D01*
X13496372Y-7180650D02*
X13515420Y-7180650D01*
X13582086Y-7313984D02*
X13582086Y-7180650D01*
X13582086Y-7113984D02*
X13572562Y-7123508D01*
X13572562Y-7123508D02*
X13582086Y-7133031D01*
X13582086Y-7133031D02*
X13591610Y-7123508D01*
X13591610Y-7123508D02*
X13582086Y-7113984D01*
X13582086Y-7113984D02*
X13582086Y-7133031D01*
X13705896Y-7313984D02*
X13686848Y-7304460D01*
X13686848Y-7304460D02*
X13677324Y-7285412D01*
X13677324Y-7285412D02*
X13677324Y-7113984D01*
X13810658Y-7313984D02*
X13791610Y-7304460D01*
X13791610Y-7304460D02*
X13782086Y-7285412D01*
X13782086Y-7285412D02*
X13782086Y-7113984D01*
X14039229Y-7313984D02*
X14039229Y-7113984D01*
X14039229Y-7113984D02*
X14105896Y-7256841D01*
X14105896Y-7256841D02*
X14172562Y-7113984D01*
X14172562Y-7113984D02*
X14172562Y-7313984D01*
X14353515Y-7313984D02*
X14353515Y-7209222D01*
X14353515Y-7209222D02*
X14343991Y-7190174D01*
X14343991Y-7190174D02*
X14324943Y-7180650D01*
X14324943Y-7180650D02*
X14286848Y-7180650D01*
X14286848Y-7180650D02*
X14267801Y-7190174D01*
X14353515Y-7304460D02*
X14334467Y-7313984D01*
X14334467Y-7313984D02*
X14286848Y-7313984D01*
X14286848Y-7313984D02*
X14267801Y-7304460D01*
X14267801Y-7304460D02*
X14258277Y-7285412D01*
X14258277Y-7285412D02*
X14258277Y-7266365D01*
X14258277Y-7266365D02*
X14267801Y-7247317D01*
X14267801Y-7247317D02*
X14286848Y-7237793D01*
X14286848Y-7237793D02*
X14334467Y-7237793D01*
X14334467Y-7237793D02*
X14353515Y-7228269D01*
X14448753Y-7180650D02*
X14448753Y-7380650D01*
X14448753Y-7190174D02*
X14467801Y-7180650D01*
X14467801Y-7180650D02*
X14505896Y-7180650D01*
X14505896Y-7180650D02*
X14524943Y-7190174D01*
X14524943Y-7190174D02*
X14534467Y-7199698D01*
X14534467Y-7199698D02*
X14543991Y-7218746D01*
X14543991Y-7218746D02*
X14543991Y-7275888D01*
X14543991Y-7275888D02*
X14534467Y-7294936D01*
X14534467Y-7294936D02*
X14524943Y-7304460D01*
X14524943Y-7304460D02*
X14505896Y-7313984D01*
X14505896Y-7313984D02*
X14467801Y-7313984D01*
X14467801Y-7313984D02*
X14448753Y-7304460D01*
X14629705Y-7294936D02*
X14639229Y-7304460D01*
X14639229Y-7304460D02*
X14629705Y-7313984D01*
X14629705Y-7313984D02*
X14620182Y-7304460D01*
X14620182Y-7304460D02*
X14629705Y-7294936D01*
X14629705Y-7294936D02*
X14629705Y-7313984D01*
X14629705Y-7190174D02*
X14639229Y-7199698D01*
X14639229Y-7199698D02*
X14629705Y-7209222D01*
X14629705Y-7209222D02*
X14620182Y-7199698D01*
X14620182Y-7199698D02*
X14629705Y-7190174D01*
X14629705Y-7190174D02*
X14629705Y-7209222D01*
D12*
X12947500Y-7617500D02*
X12997500Y-7667500D01*
X12997500Y-7617500D02*
X12947500Y-7667500D01*
D11*
X13296372Y-7533984D02*
X13315420Y-7533984D01*
X13315420Y-7533984D02*
X13334467Y-7543508D01*
X13334467Y-7543508D02*
X13343991Y-7553031D01*
X13343991Y-7553031D02*
X13353515Y-7572079D01*
X13353515Y-7572079D02*
X13363039Y-7610174D01*
X13363039Y-7610174D02*
X13363039Y-7657793D01*
X13363039Y-7657793D02*
X13353515Y-7695888D01*
X13353515Y-7695888D02*
X13343991Y-7714936D01*
X13343991Y-7714936D02*
X13334467Y-7724460D01*
X13334467Y-7724460D02*
X13315420Y-7733984D01*
X13315420Y-7733984D02*
X13296372Y-7733984D01*
X13296372Y-7733984D02*
X13277324Y-7724460D01*
X13277324Y-7724460D02*
X13267801Y-7714936D01*
X13267801Y-7714936D02*
X13258277Y-7695888D01*
X13258277Y-7695888D02*
X13248753Y-7657793D01*
X13248753Y-7657793D02*
X13248753Y-7610174D01*
X13248753Y-7610174D02*
X13258277Y-7572079D01*
X13258277Y-7572079D02*
X13267801Y-7553031D01*
X13267801Y-7553031D02*
X13277324Y-7543508D01*
X13277324Y-7543508D02*
X13296372Y-7533984D01*
X13448753Y-7714936D02*
X13458277Y-7724460D01*
X13458277Y-7724460D02*
X13448753Y-7733984D01*
X13448753Y-7733984D02*
X13439229Y-7724460D01*
X13439229Y-7724460D02*
X13448753Y-7714936D01*
X13448753Y-7714936D02*
X13448753Y-7733984D01*
X13639229Y-7533984D02*
X13543991Y-7533984D01*
X13543991Y-7533984D02*
X13534467Y-7629222D01*
X13534467Y-7629222D02*
X13543991Y-7619698D01*
X13543991Y-7619698D02*
X13563039Y-7610174D01*
X13563039Y-7610174D02*
X13610658Y-7610174D01*
X13610658Y-7610174D02*
X13629705Y-7619698D01*
X13629705Y-7619698D02*
X13639229Y-7629222D01*
X13639229Y-7629222D02*
X13648753Y-7648269D01*
X13648753Y-7648269D02*
X13648753Y-7695888D01*
X13648753Y-7695888D02*
X13639229Y-7714936D01*
X13639229Y-7714936D02*
X13629705Y-7724460D01*
X13629705Y-7724460D02*
X13610658Y-7733984D01*
X13610658Y-7733984D02*
X13563039Y-7733984D01*
X13563039Y-7733984D02*
X13543991Y-7724460D01*
X13543991Y-7724460D02*
X13534467Y-7714936D01*
X13772562Y-7533984D02*
X13791610Y-7533984D01*
X13791610Y-7533984D02*
X13810658Y-7543508D01*
X13810658Y-7543508D02*
X13820182Y-7553031D01*
X13820182Y-7553031D02*
X13829705Y-7572079D01*
X13829705Y-7572079D02*
X13839229Y-7610174D01*
X13839229Y-7610174D02*
X13839229Y-7657793D01*
X13839229Y-7657793D02*
X13829705Y-7695888D01*
X13829705Y-7695888D02*
X13820182Y-7714936D01*
X13820182Y-7714936D02*
X13810658Y-7724460D01*
X13810658Y-7724460D02*
X13791610Y-7733984D01*
X13791610Y-7733984D02*
X13772562Y-7733984D01*
X13772562Y-7733984D02*
X13753515Y-7724460D01*
X13753515Y-7724460D02*
X13743991Y-7714936D01*
X13743991Y-7714936D02*
X13734467Y-7695888D01*
X13734467Y-7695888D02*
X13724943Y-7657793D01*
X13724943Y-7657793D02*
X13724943Y-7610174D01*
X13724943Y-7610174D02*
X13734467Y-7572079D01*
X13734467Y-7572079D02*
X13743991Y-7553031D01*
X13743991Y-7553031D02*
X13753515Y-7543508D01*
X13753515Y-7543508D02*
X13772562Y-7533984D01*
X13963039Y-7533984D02*
X13982086Y-7533984D01*
X13982086Y-7533984D02*
X14001134Y-7543508D01*
X14001134Y-7543508D02*
X14010658Y-7553031D01*
X14010658Y-7553031D02*
X14020182Y-7572079D01*
X14020182Y-7572079D02*
X14029705Y-7610174D01*
X14029705Y-7610174D02*
X14029705Y-7657793D01*
X14029705Y-7657793D02*
X14020182Y-7695888D01*
X14020182Y-7695888D02*
X14010658Y-7714936D01*
X14010658Y-7714936D02*
X14001134Y-7724460D01*
X14001134Y-7724460D02*
X13982086Y-7733984D01*
X13982086Y-7733984D02*
X13963039Y-7733984D01*
X13963039Y-7733984D02*
X13943991Y-7724460D01*
X13943991Y-7724460D02*
X13934467Y-7714936D01*
X13934467Y-7714936D02*
X13924943Y-7695888D01*
X13924943Y-7695888D02*
X13915420Y-7657793D01*
X13915420Y-7657793D02*
X13915420Y-7610174D01*
X13915420Y-7610174D02*
X13924943Y-7572079D01*
X13924943Y-7572079D02*
X13934467Y-7553031D01*
X13934467Y-7553031D02*
X13943991Y-7543508D01*
X13943991Y-7543508D02*
X13963039Y-7533984D01*
X14115420Y-7733984D02*
X14115420Y-7600650D01*
X14115420Y-7619698D02*
X14124943Y-7610174D01*
X14124943Y-7610174D02*
X14143991Y-7600650D01*
X14143991Y-7600650D02*
X14172563Y-7600650D01*
X14172563Y-7600650D02*
X14191610Y-7610174D01*
X14191610Y-7610174D02*
X14201134Y-7629222D01*
X14201134Y-7629222D02*
X14201134Y-7733984D01*
X14201134Y-7629222D02*
X14210658Y-7610174D01*
X14210658Y-7610174D02*
X14229705Y-7600650D01*
X14229705Y-7600650D02*
X14258277Y-7600650D01*
X14258277Y-7600650D02*
X14277324Y-7610174D01*
X14277324Y-7610174D02*
X14286848Y-7629222D01*
X14286848Y-7629222D02*
X14286848Y-7733984D01*
X14382086Y-7733984D02*
X14382086Y-7600650D01*
X14382086Y-7619698D02*
X14391610Y-7610174D01*
X14391610Y-7610174D02*
X14410658Y-7600650D01*
X14410658Y-7600650D02*
X14439229Y-7600650D01*
X14439229Y-7600650D02*
X14458277Y-7610174D01*
X14458277Y-7610174D02*
X14467801Y-7629222D01*
X14467801Y-7629222D02*
X14467801Y-7733984D01*
X14467801Y-7629222D02*
X14477324Y-7610174D01*
X14477324Y-7610174D02*
X14496372Y-7600650D01*
X14496372Y-7600650D02*
X14524943Y-7600650D01*
X14524943Y-7600650D02*
X14543991Y-7610174D01*
X14543991Y-7610174D02*
X14553515Y-7629222D01*
X14553515Y-7629222D02*
X14553515Y-7733984D01*
X14943991Y-7524460D02*
X14772563Y-7781603D01*
X15201134Y-7533984D02*
X15220182Y-7533984D01*
X15220182Y-7533984D02*
X15239229Y-7543508D01*
X15239229Y-7543508D02*
X15248753Y-7553031D01*
X15248753Y-7553031D02*
X15258277Y-7572079D01*
X15258277Y-7572079D02*
X15267801Y-7610174D01*
X15267801Y-7610174D02*
X15267801Y-7657793D01*
X15267801Y-7657793D02*
X15258277Y-7695888D01*
X15258277Y-7695888D02*
X15248753Y-7714936D01*
X15248753Y-7714936D02*
X15239229Y-7724460D01*
X15239229Y-7724460D02*
X15220182Y-7733984D01*
X15220182Y-7733984D02*
X15201134Y-7733984D01*
X15201134Y-7733984D02*
X15182086Y-7724460D01*
X15182086Y-7724460D02*
X15172563Y-7714936D01*
X15172563Y-7714936D02*
X15163039Y-7695888D01*
X15163039Y-7695888D02*
X15153515Y-7657793D01*
X15153515Y-7657793D02*
X15153515Y-7610174D01*
X15153515Y-7610174D02*
X15163039Y-7572079D01*
X15163039Y-7572079D02*
X15172563Y-7553031D01*
X15172563Y-7553031D02*
X15182086Y-7543508D01*
X15182086Y-7543508D02*
X15201134Y-7533984D01*
X15353515Y-7714936D02*
X15363039Y-7724460D01*
X15363039Y-7724460D02*
X15353515Y-7733984D01*
X15353515Y-7733984D02*
X15343991Y-7724460D01*
X15343991Y-7724460D02*
X15353515Y-7714936D01*
X15353515Y-7714936D02*
X15353515Y-7733984D01*
X15486848Y-7533984D02*
X15505896Y-7533984D01*
X15505896Y-7533984D02*
X15524944Y-7543508D01*
X15524944Y-7543508D02*
X15534467Y-7553031D01*
X15534467Y-7553031D02*
X15543991Y-7572079D01*
X15543991Y-7572079D02*
X15553515Y-7610174D01*
X15553515Y-7610174D02*
X15553515Y-7657793D01*
X15553515Y-7657793D02*
X15543991Y-7695888D01*
X15543991Y-7695888D02*
X15534467Y-7714936D01*
X15534467Y-7714936D02*
X15524944Y-7724460D01*
X15524944Y-7724460D02*
X15505896Y-7733984D01*
X15505896Y-7733984D02*
X15486848Y-7733984D01*
X15486848Y-7733984D02*
X15467801Y-7724460D01*
X15467801Y-7724460D02*
X15458277Y-7714936D01*
X15458277Y-7714936D02*
X15448753Y-7695888D01*
X15448753Y-7695888D02*
X15439229Y-7657793D01*
X15439229Y-7657793D02*
X15439229Y-7610174D01*
X15439229Y-7610174D02*
X15448753Y-7572079D01*
X15448753Y-7572079D02*
X15458277Y-7553031D01*
X15458277Y-7553031D02*
X15467801Y-7543508D01*
X15467801Y-7543508D02*
X15486848Y-7533984D01*
X15743991Y-7733984D02*
X15629706Y-7733984D01*
X15686848Y-7733984D02*
X15686848Y-7533984D01*
X15686848Y-7533984D02*
X15667801Y-7562555D01*
X15667801Y-7562555D02*
X15648753Y-7581603D01*
X15648753Y-7581603D02*
X15629706Y-7591127D01*
X15839229Y-7733984D02*
X15877325Y-7733984D01*
X15877325Y-7733984D02*
X15896372Y-7724460D01*
X15896372Y-7724460D02*
X15905896Y-7714936D01*
X15905896Y-7714936D02*
X15924944Y-7686365D01*
X15924944Y-7686365D02*
X15934467Y-7648269D01*
X15934467Y-7648269D02*
X15934467Y-7572079D01*
X15934467Y-7572079D02*
X15924944Y-7553031D01*
X15924944Y-7553031D02*
X15915420Y-7543508D01*
X15915420Y-7543508D02*
X15896372Y-7533984D01*
X15896372Y-7533984D02*
X15858277Y-7533984D01*
X15858277Y-7533984D02*
X15839229Y-7543508D01*
X15839229Y-7543508D02*
X15829706Y-7553031D01*
X15829706Y-7553031D02*
X15820182Y-7572079D01*
X15820182Y-7572079D02*
X15820182Y-7619698D01*
X15820182Y-7619698D02*
X15829706Y-7638746D01*
X15829706Y-7638746D02*
X15839229Y-7648269D01*
X15839229Y-7648269D02*
X15858277Y-7657793D01*
X15858277Y-7657793D02*
X15896372Y-7657793D01*
X15896372Y-7657793D02*
X15915420Y-7648269D01*
X15915420Y-7648269D02*
X15924944Y-7638746D01*
X15924944Y-7638746D02*
X15934467Y-7619698D01*
X16001134Y-7533984D02*
X16134467Y-7533984D01*
X16134467Y-7533984D02*
X16048753Y-7733984D01*
X16201134Y-7533984D02*
X16201134Y-7572079D01*
X16277325Y-7533984D02*
X16277325Y-7572079D01*
X16572563Y-7810174D02*
X16563039Y-7800650D01*
X16563039Y-7800650D02*
X16543991Y-7772079D01*
X16543991Y-7772079D02*
X16534468Y-7753031D01*
X16534468Y-7753031D02*
X16524944Y-7724460D01*
X16524944Y-7724460D02*
X16515420Y-7676841D01*
X16515420Y-7676841D02*
X16515420Y-7638746D01*
X16515420Y-7638746D02*
X16524944Y-7591127D01*
X16524944Y-7591127D02*
X16534468Y-7562555D01*
X16534468Y-7562555D02*
X16543991Y-7543508D01*
X16543991Y-7543508D02*
X16563039Y-7514936D01*
X16563039Y-7514936D02*
X16572563Y-7505412D01*
X16753515Y-7733984D02*
X16639229Y-7733984D01*
X16696372Y-7733984D02*
X16696372Y-7533984D01*
X16696372Y-7533984D02*
X16677325Y-7562555D01*
X16677325Y-7562555D02*
X16658277Y-7581603D01*
X16658277Y-7581603D02*
X16639229Y-7591127D01*
X16877325Y-7533984D02*
X16896372Y-7533984D01*
X16896372Y-7533984D02*
X16915420Y-7543508D01*
X16915420Y-7543508D02*
X16924944Y-7553031D01*
X16924944Y-7553031D02*
X16934468Y-7572079D01*
X16934468Y-7572079D02*
X16943991Y-7610174D01*
X16943991Y-7610174D02*
X16943991Y-7657793D01*
X16943991Y-7657793D02*
X16934468Y-7695888D01*
X16934468Y-7695888D02*
X16924944Y-7714936D01*
X16924944Y-7714936D02*
X16915420Y-7724460D01*
X16915420Y-7724460D02*
X16896372Y-7733984D01*
X16896372Y-7733984D02*
X16877325Y-7733984D01*
X16877325Y-7733984D02*
X16858277Y-7724460D01*
X16858277Y-7724460D02*
X16848753Y-7714936D01*
X16848753Y-7714936D02*
X16839230Y-7695888D01*
X16839230Y-7695888D02*
X16829706Y-7657793D01*
X16829706Y-7657793D02*
X16829706Y-7610174D01*
X16829706Y-7610174D02*
X16839230Y-7572079D01*
X16839230Y-7572079D02*
X16848753Y-7553031D01*
X16848753Y-7553031D02*
X16858277Y-7543508D01*
X16858277Y-7543508D02*
X16877325Y-7533984D01*
X17182087Y-7733984D02*
X17182087Y-7533984D01*
X17267801Y-7733984D02*
X17267801Y-7629222D01*
X17267801Y-7629222D02*
X17258277Y-7610174D01*
X17258277Y-7610174D02*
X17239230Y-7600650D01*
X17239230Y-7600650D02*
X17210658Y-7600650D01*
X17210658Y-7600650D02*
X17191611Y-7610174D01*
X17191611Y-7610174D02*
X17182087Y-7619698D01*
X17391611Y-7733984D02*
X17372563Y-7724460D01*
X17372563Y-7724460D02*
X17363039Y-7714936D01*
X17363039Y-7714936D02*
X17353515Y-7695888D01*
X17353515Y-7695888D02*
X17353515Y-7638746D01*
X17353515Y-7638746D02*
X17363039Y-7619698D01*
X17363039Y-7619698D02*
X17372563Y-7610174D01*
X17372563Y-7610174D02*
X17391611Y-7600650D01*
X17391611Y-7600650D02*
X17420182Y-7600650D01*
X17420182Y-7600650D02*
X17439230Y-7610174D01*
X17439230Y-7610174D02*
X17448753Y-7619698D01*
X17448753Y-7619698D02*
X17458277Y-7638746D01*
X17458277Y-7638746D02*
X17458277Y-7695888D01*
X17458277Y-7695888D02*
X17448753Y-7714936D01*
X17448753Y-7714936D02*
X17439230Y-7724460D01*
X17439230Y-7724460D02*
X17420182Y-7733984D01*
X17420182Y-7733984D02*
X17391611Y-7733984D01*
X17572563Y-7733984D02*
X17553515Y-7724460D01*
X17553515Y-7724460D02*
X17543992Y-7705412D01*
X17543992Y-7705412D02*
X17543992Y-7533984D01*
X17724944Y-7724460D02*
X17705896Y-7733984D01*
X17705896Y-7733984D02*
X17667801Y-7733984D01*
X17667801Y-7733984D02*
X17648753Y-7724460D01*
X17648753Y-7724460D02*
X17639230Y-7705412D01*
X17639230Y-7705412D02*
X17639230Y-7629222D01*
X17639230Y-7629222D02*
X17648753Y-7610174D01*
X17648753Y-7610174D02*
X17667801Y-7600650D01*
X17667801Y-7600650D02*
X17705896Y-7600650D01*
X17705896Y-7600650D02*
X17724944Y-7610174D01*
X17724944Y-7610174D02*
X17734468Y-7629222D01*
X17734468Y-7629222D02*
X17734468Y-7648269D01*
X17734468Y-7648269D02*
X17639230Y-7667317D01*
X17810658Y-7724460D02*
X17829706Y-7733984D01*
X17829706Y-7733984D02*
X17867801Y-7733984D01*
X17867801Y-7733984D02*
X17886849Y-7724460D01*
X17886849Y-7724460D02*
X17896373Y-7705412D01*
X17896373Y-7705412D02*
X17896373Y-7695888D01*
X17896373Y-7695888D02*
X17886849Y-7676841D01*
X17886849Y-7676841D02*
X17867801Y-7667317D01*
X17867801Y-7667317D02*
X17839230Y-7667317D01*
X17839230Y-7667317D02*
X17820182Y-7657793D01*
X17820182Y-7657793D02*
X17810658Y-7638746D01*
X17810658Y-7638746D02*
X17810658Y-7629222D01*
X17810658Y-7629222D02*
X17820182Y-7610174D01*
X17820182Y-7610174D02*
X17839230Y-7600650D01*
X17839230Y-7600650D02*
X17867801Y-7600650D01*
X17867801Y-7600650D02*
X17886849Y-7610174D01*
X17963039Y-7810174D02*
X17972563Y-7800650D01*
X17972563Y-7800650D02*
X17991611Y-7772079D01*
X17991611Y-7772079D02*
X18001134Y-7753031D01*
X18001134Y-7753031D02*
X18010658Y-7724460D01*
X18010658Y-7724460D02*
X18020182Y-7676841D01*
X18020182Y-7676841D02*
X18020182Y-7638746D01*
X18020182Y-7638746D02*
X18010658Y-7591127D01*
X18010658Y-7591127D02*
X18001134Y-7562555D01*
X18001134Y-7562555D02*
X17991611Y-7543508D01*
X17991611Y-7543508D02*
X17972563Y-7514936D01*
X17972563Y-7514936D02*
X17963039Y-7505412D01*
M02*
