%TF.GenerationSoftware,KiCad,Pcbnew,8.0.7*%
%TF.CreationDate,2024-12-04T21:31:05-06:00*%
%TF.ProjectId,b2,62322e6b-6963-4616-945f-706362585858,rev?*%
%TF.SameCoordinates,Original*%
%TF.FileFunction,Legend,Top*%
%TF.FilePolarity,Positive*%
%FSLAX46Y46*%
G04 Gerber Fmt 4.6, Leading zero omitted, Abs format (unit mm)*
G04 Created by KiCad (PCBNEW 8.0.7) date 2024-12-04 21:31:05*
%MOMM*%
%LPD*%
G01*
G04 APERTURE LIST*
%ADD10C,0.100000*%
%ADD11C,0.120000*%
%ADD12C,4.500000*%
%ADD13C,1.000000*%
%ADD14C,1.600000*%
%ADD15C,2.000000*%
G04 APERTURE END LIST*
D10*
X107589598Y-45872419D02*
X107589598Y-46586704D01*
X107589598Y-46586704D02*
X107541979Y-46729561D01*
X107541979Y-46729561D02*
X107446741Y-46824800D01*
X107446741Y-46824800D02*
X107303884Y-46872419D01*
X107303884Y-46872419D02*
X107208646Y-46872419D01*
X108541979Y-46872419D02*
X108065789Y-46872419D01*
X108065789Y-46872419D02*
X108065789Y-45872419D01*
X109446741Y-46777180D02*
X109399122Y-46824800D01*
X109399122Y-46824800D02*
X109256265Y-46872419D01*
X109256265Y-46872419D02*
X109161027Y-46872419D01*
X109161027Y-46872419D02*
X109018170Y-46824800D01*
X109018170Y-46824800D02*
X108922932Y-46729561D01*
X108922932Y-46729561D02*
X108875313Y-46634323D01*
X108875313Y-46634323D02*
X108827694Y-46443847D01*
X108827694Y-46443847D02*
X108827694Y-46300990D01*
X108827694Y-46300990D02*
X108875313Y-46110514D01*
X108875313Y-46110514D02*
X108922932Y-46015276D01*
X108922932Y-46015276D02*
X109018170Y-45920038D01*
X109018170Y-45920038D02*
X109161027Y-45872419D01*
X109161027Y-45872419D02*
X109256265Y-45872419D01*
X109256265Y-45872419D02*
X109399122Y-45920038D01*
X109399122Y-45920038D02*
X109446741Y-45967657D01*
X110161027Y-45872419D02*
X110161027Y-46586704D01*
X110161027Y-46586704D02*
X110113408Y-46729561D01*
X110113408Y-46729561D02*
X110018170Y-46824800D01*
X110018170Y-46824800D02*
X109875313Y-46872419D01*
X109875313Y-46872419D02*
X109780075Y-46872419D01*
X111113408Y-46872419D02*
X110637218Y-46872419D01*
X110637218Y-46872419D02*
X110637218Y-45872419D01*
X112018170Y-46777180D02*
X111970551Y-46824800D01*
X111970551Y-46824800D02*
X111827694Y-46872419D01*
X111827694Y-46872419D02*
X111732456Y-46872419D01*
X111732456Y-46872419D02*
X111589599Y-46824800D01*
X111589599Y-46824800D02*
X111494361Y-46729561D01*
X111494361Y-46729561D02*
X111446742Y-46634323D01*
X111446742Y-46634323D02*
X111399123Y-46443847D01*
X111399123Y-46443847D02*
X111399123Y-46300990D01*
X111399123Y-46300990D02*
X111446742Y-46110514D01*
X111446742Y-46110514D02*
X111494361Y-46015276D01*
X111494361Y-46015276D02*
X111589599Y-45920038D01*
X111589599Y-45920038D02*
X111732456Y-45872419D01*
X111732456Y-45872419D02*
X111827694Y-45872419D01*
X111827694Y-45872419D02*
X111970551Y-45920038D01*
X111970551Y-45920038D02*
X112018170Y-45967657D01*
X112732456Y-45872419D02*
X112732456Y-46586704D01*
X112732456Y-46586704D02*
X112684837Y-46729561D01*
X112684837Y-46729561D02*
X112589599Y-46824800D01*
X112589599Y-46824800D02*
X112446742Y-46872419D01*
X112446742Y-46872419D02*
X112351504Y-46872419D01*
X113684837Y-46872419D02*
X113208647Y-46872419D01*
X113208647Y-46872419D02*
X113208647Y-45872419D01*
X114589599Y-46777180D02*
X114541980Y-46824800D01*
X114541980Y-46824800D02*
X114399123Y-46872419D01*
X114399123Y-46872419D02*
X114303885Y-46872419D01*
X114303885Y-46872419D02*
X114161028Y-46824800D01*
X114161028Y-46824800D02*
X114065790Y-46729561D01*
X114065790Y-46729561D02*
X114018171Y-46634323D01*
X114018171Y-46634323D02*
X113970552Y-46443847D01*
X113970552Y-46443847D02*
X113970552Y-46300990D01*
X113970552Y-46300990D02*
X114018171Y-46110514D01*
X114018171Y-46110514D02*
X114065790Y-46015276D01*
X114065790Y-46015276D02*
X114161028Y-45920038D01*
X114161028Y-45920038D02*
X114303885Y-45872419D01*
X114303885Y-45872419D02*
X114399123Y-45872419D01*
X114399123Y-45872419D02*
X114541980Y-45920038D01*
X114541980Y-45920038D02*
X114589599Y-45967657D01*
X115303885Y-45872419D02*
X115303885Y-46586704D01*
X115303885Y-46586704D02*
X115256266Y-46729561D01*
X115256266Y-46729561D02*
X115161028Y-46824800D01*
X115161028Y-46824800D02*
X115018171Y-46872419D01*
X115018171Y-46872419D02*
X114922933Y-46872419D01*
X116256266Y-46872419D02*
X115780076Y-46872419D01*
X115780076Y-46872419D02*
X115780076Y-45872419D01*
X117161028Y-46777180D02*
X117113409Y-46824800D01*
X117113409Y-46824800D02*
X116970552Y-46872419D01*
X116970552Y-46872419D02*
X116875314Y-46872419D01*
X116875314Y-46872419D02*
X116732457Y-46824800D01*
X116732457Y-46824800D02*
X116637219Y-46729561D01*
X116637219Y-46729561D02*
X116589600Y-46634323D01*
X116589600Y-46634323D02*
X116541981Y-46443847D01*
X116541981Y-46443847D02*
X116541981Y-46300990D01*
X116541981Y-46300990D02*
X116589600Y-46110514D01*
X116589600Y-46110514D02*
X116637219Y-46015276D01*
X116637219Y-46015276D02*
X116732457Y-45920038D01*
X116732457Y-45920038D02*
X116875314Y-45872419D01*
X116875314Y-45872419D02*
X116970552Y-45872419D01*
X116970552Y-45872419D02*
X117113409Y-45920038D01*
X117113409Y-45920038D02*
X117161028Y-45967657D01*
D11*
%TO.C,T1*%
X101100000Y-44000000D02*
G75*
G02*
X98900000Y-44000000I-1100000J0D01*
G01*
X98900000Y-44000000D02*
G75*
G02*
X101100000Y-44000000I1100000J0D01*
G01*
%TO.C,T21*%
X94850000Y-34250000D02*
G75*
G02*
X92650000Y-34250000I-1100000J0D01*
G01*
X92650000Y-34250000D02*
G75*
G02*
X94850000Y-34250000I1100000J0D01*
G01*
%TO.C,T18*%
X91600000Y-65588457D02*
G75*
G02*
X89400000Y-65588457I-1100000J0D01*
G01*
X89400000Y-65588457D02*
G75*
G02*
X91600000Y-65588457I1100000J0D01*
G01*
%TO.C,T16*%
X110600000Y-65588457D02*
G75*
G02*
X108400000Y-65588457I-1100000J0D01*
G01*
X108400000Y-65588457D02*
G75*
G02*
X110600000Y-65588457I1100000J0D01*
G01*
%TO.C,T20*%
X83100000Y-50000000D02*
G75*
G02*
X80900000Y-50000000I-1100000J0D01*
G01*
X80900000Y-50000000D02*
G75*
G02*
X83100000Y-50000000I1100000J0D01*
G01*
%TO.C,T51*%
X93700000Y-45500000D02*
G75*
G02*
X91300000Y-45500000I-1200000J0D01*
G01*
X91300000Y-45500000D02*
G75*
G02*
X93700000Y-45500000I1200000J0D01*
G01*
%TO.C,T19*%
X85511542Y-59000000D02*
G75*
G02*
X83311542Y-59000000I-1100000J0D01*
G01*
X83311542Y-59000000D02*
G75*
G02*
X85511542Y-59000000I1100000J0D01*
G01*
%TO.C,T53*%
X94999038Y-47750000D02*
G75*
G02*
X92599038Y-47750000I-1200000J0D01*
G01*
X92599038Y-47750000D02*
G75*
G02*
X94999038Y-47750000I1200000J0D01*
G01*
%TO.C,T21*%
X98050000Y-45450000D02*
G75*
G02*
X95850000Y-45450000I-1100000J0D01*
G01*
X95850000Y-45450000D02*
G75*
G02*
X98050000Y-45450000I1100000J0D01*
G01*
X85511542Y-41000000D02*
G75*
G02*
X83311542Y-41000000I-1100000J0D01*
G01*
X83311542Y-41000000D02*
G75*
G02*
X85511542Y-41000000I1100000J0D01*
G01*
%TO.C,T54*%
X93700000Y-48500000D02*
G75*
G02*
X91300000Y-48500000I-1200000J0D01*
G01*
X91300000Y-48500000D02*
G75*
G02*
X93700000Y-48500000I1200000J0D01*
G01*
%TO.C,T21*%
X102350000Y-39750000D02*
G75*
G02*
X100150000Y-39750000I-1100000J0D01*
G01*
X100150000Y-39750000D02*
G75*
G02*
X102350000Y-39750000I1100000J0D01*
G01*
%TO.C,T52*%
X94999038Y-46250000D02*
G75*
G02*
X92599038Y-46250000I-1200000J0D01*
G01*
X92599038Y-46250000D02*
G75*
G02*
X94999038Y-46250000I1200000J0D01*
G01*
%TO.C,T13*%
X116688457Y-41000000D02*
G75*
G02*
X114488457Y-41000000I-1100000J0D01*
G01*
X114488457Y-41000000D02*
G75*
G02*
X116688457Y-41000000I1100000J0D01*
G01*
%TO.C,T22*%
X92100000Y-34411542D02*
G75*
G02*
X89900000Y-34411542I-1100000J0D01*
G01*
X89900000Y-34411542D02*
G75*
G02*
X92100000Y-34411542I1100000J0D01*
G01*
%TO.C,T56*%
X92400961Y-46250000D02*
G75*
G02*
X90000961Y-46250000I-1200000J0D01*
G01*
X90000961Y-46250000D02*
G75*
G02*
X92400961Y-46250000I1200000J0D01*
G01*
%TO.C,T21*%
X94850000Y-39750000D02*
G75*
G02*
X92650000Y-39750000I-1100000J0D01*
G01*
X92650000Y-39750000D02*
G75*
G02*
X94850000Y-39750000I1100000J0D01*
G01*
%TO.C,T14*%
X119100000Y-50000000D02*
G75*
G02*
X116900000Y-50000000I-1100000J0D01*
G01*
X116900000Y-50000000D02*
G75*
G02*
X119100000Y-50000000I1100000J0D01*
G01*
%TO.C,T15*%
X116688457Y-59000000D02*
G75*
G02*
X114488457Y-59000000I-1100000J0D01*
G01*
X114488457Y-59000000D02*
G75*
G02*
X116688457Y-59000000I1100000J0D01*
G01*
%TO.C,T51*%
X93700000Y-47000000D02*
G75*
G02*
X91300000Y-47000000I-1200000J0D01*
G01*
X91300000Y-47000000D02*
G75*
G02*
X93700000Y-47000000I1200000J0D01*
G01*
%TO.C,T12*%
X110100000Y-34411542D02*
G75*
G02*
X107900000Y-34411542I-1100000J0D01*
G01*
X107900000Y-34411542D02*
G75*
G02*
X110100000Y-34411542I1100000J0D01*
G01*
%TO.C,T21*%
X102350000Y-34250000D02*
G75*
G02*
X100150000Y-34250000I-1100000J0D01*
G01*
X100150000Y-34250000D02*
G75*
G02*
X102350000Y-34250000I1100000J0D01*
G01*
X99375000Y-47050000D02*
G75*
G02*
X97175000Y-47050000I-1100000J0D01*
G01*
X97175000Y-47050000D02*
G75*
G02*
X99375000Y-47050000I1100000J0D01*
G01*
%TO.C,T55*%
X92400961Y-47750000D02*
G75*
G02*
X90000961Y-47750000I-1200000J0D01*
G01*
X90000961Y-47750000D02*
G75*
G02*
X92400961Y-47750000I1200000J0D01*
G01*
%TD*%
%LPC*%
D12*
%TO.C,T1*%
X100000000Y-44000000D03*
%TD*%
D13*
%TO.C,T21*%
X93750000Y-34250000D03*
%TD*%
D14*
%TO.C,T18*%
X90500000Y-65588457D03*
%TD*%
%TO.C,T16*%
X109500000Y-65588457D03*
%TD*%
%TO.C,T20*%
X82000000Y-50000000D03*
%TD*%
D15*
%TO.C,T51*%
X92500000Y-45500000D03*
%TD*%
D14*
%TO.C,T19*%
X84411542Y-59000000D03*
%TD*%
D15*
%TO.C,T53*%
X93799038Y-47750000D03*
%TD*%
D13*
%TO.C,T21*%
X96950000Y-45450000D03*
%TD*%
D14*
%TO.C,T21*%
X84411542Y-41000000D03*
%TD*%
D15*
%TO.C,T54*%
X92500000Y-48500000D03*
%TD*%
D13*
%TO.C,T21*%
X101250000Y-39750000D03*
%TD*%
D15*
%TO.C,T52*%
X93799038Y-46250000D03*
%TD*%
D14*
%TO.C,T13*%
X115588457Y-41000000D03*
%TD*%
%TO.C,T22*%
X91000000Y-34411542D03*
%TD*%
D15*
%TO.C,T56*%
X91200961Y-46250000D03*
%TD*%
D13*
%TO.C,T21*%
X93750000Y-39750000D03*
%TD*%
D14*
%TO.C,T14*%
X118000000Y-50000000D03*
%TD*%
%TO.C,T15*%
X115588457Y-59000000D03*
%TD*%
D15*
%TO.C,T51*%
X92500000Y-47000000D03*
%TD*%
D14*
%TO.C,T12*%
X109000000Y-34411542D03*
%TD*%
D13*
%TO.C,T21*%
X101250000Y-34250000D03*
%TD*%
%TO.C,T21*%
X98275000Y-47050000D03*
%TD*%
D15*
%TO.C,T55*%
X91200961Y-47750000D03*
%TD*%
%LPD*%
M02*
