M48
; DRILL file {KiCad 9.0.0} date 2025-02-26T13:29:23-0600
; FORMAT={-:-/ absolute / metric / decimal}
; #@! TF.CreationDate,2025-02-26T13:29:23-06:00
; #@! TF.GenerationSoftware,Kicad,Pcbnew,9.0.0
; #@! TF.FileFunction,Plated,1,2,PTH
FMAT,2
METRIC
; #@! TA.AperFunction,Plated,PTH,ViaDrill
T1C0.300
; #@! TA.AperFunction,Plated,PTH,ComponentDrill
T2C0.650
; #@! TA.AperFunction,Plated,PTH,ComponentDrill
T3C1.000
%
G90
G05
T1
X27.178Y-48.552
X27.323Y-51.263
X28.082Y-43.385
X28.3Y-56.385
X28.606Y-40.776
X29.188Y-59.454
X29.2Y-42.825
X29.2Y-50.83
X31.436Y-63.906
X31.436Y-36.094
X32.069Y-35.598
X32.693Y-65.156
X33.349Y-34.1
X33.355Y-65.965
X37.338Y-30.772
X37.396Y-69.261
X37.48Y-65.965
X38.08Y-69.676
X38.748Y-68.57
X38.862Y-65.824
X38.92Y-29.839
X39.362Y-31.16
X39.37Y-34.794
X39.639Y-29.239
X39.878Y-70.65
X39.925Y-36.127
X41.0Y-45.25
X41.66Y-36.177
X41.762Y-63.494
X41.822Y-68.027
X42.055Y-60.381
X42.083Y-40.071
X42.15Y-44.7
X42.15Y-45.8
X42.15Y-49.45
X42.15Y-51.17
X43.434Y-44.7
X43.434Y-45.8
X43.622Y-67.184
X43.712Y-64.07
X43.933Y-49.323
X44.204Y-34.286
X44.617Y-27.497
X44.712Y-48.252
X44.712Y-48.852
X44.77Y-51.17
X44.958Y-39.154
X45.212Y-47.952
X45.212Y-48.552
X45.212Y-49.152
X45.447Y-35.645
X45.528Y-27.434
X45.683Y-53.923
X45.702Y-34.021
X45.712Y-48.252
X45.712Y-48.852
X45.72Y-56.68
X45.89Y-28.164
X46.548Y-57.9
X46.736Y-45.8
X46.736Y-51.17
X46.998Y-54.094
X46.998Y-54.694
X47.007Y-47.57
X47.244Y-35.344
X47.249Y-52.731
X47.28Y-27.204
X47.498Y-53.794
X47.498Y-54.394
X47.498Y-54.994
X47.498Y-73.952
X47.725Y-49.993
X47.998Y-54.094
X47.998Y-54.694
X48.107Y-44.702
X48.306Y-47.721
X48.424Y-72.01
X48.514Y-38.646
X48.514Y-53.378
X48.514Y-58.966
X48.522Y-55.926
X48.539Y-51.371
X48.726Y-45.382
X49.25Y-48.0
X50.02Y-46.071
X50.038Y-38.392
X50.292Y-50.88
X50.75Y-48.0
X51.118Y-44.889
X51.308Y-58.966
X51.4Y-50.33
X51.45Y-52.108
X51.45Y-71.92
X51.694Y-48.279
X52.268Y-44.318
X52.324Y-72.936
X52.334Y-42.456
X52.357Y-47.125
X52.578Y-53.378
X52.727Y-27.161
X52.832Y-40.932
X52.884Y-41.694
X53.594Y-50.584
X53.974Y-48.872
X54.227Y-33.949
X54.3Y-28.383
X54.356Y-40.424
X54.429Y-44.868
X54.447Y-35.666
X54.472Y-27.434
X54.59Y-42.308
X54.61Y-43.768
X54.822Y-55.41
X54.839Y-59.117
X55.294Y-27.323
X55.372Y-53.378
X55.88Y-34.286
X55.922Y-54.14
X56.043Y-58.549
X57.658Y-43.726
X57.658Y-44.868
X57.658Y-50.584
X57.85Y-48.872
X58.032Y-60.522
X58.301Y-38.527
X60.349Y-70.485
X60.391Y-29.239
X60.714Y-31.068
X60.96Y-34.15
X61.08Y-29.839
X61.262Y-68.56
X61.32Y-65.78
X61.92Y-69.676
X62.52Y-69.112
X62.563Y-30.801
X62.576Y-65.916
X66.554Y-65.916
X66.802Y-34.1
X67.296Y-65.145
X67.931Y-35.6
X68.564Y-36.094
X68.581Y-63.921
X70.785Y-59.434
X70.8Y-42.964
X71.14Y-50.517
X71.208Y-40.59
X72.12Y-51.824
X72.154Y-56.701
X72.243Y-43.266
X72.944Y-51.28
X73.092Y-48.72
T2
X48.725Y-73.0
X49.995Y-73.0
X51.265Y-73.0
T3
X26.924Y-45.758
X27.178Y-55.156
X27.8Y-52.4
X35.052Y-68.11
X35.306Y-31.788
X41.91Y-27.978
X43.659Y-41.452
X43.659Y-42.952
X44.958Y-40.702
X44.958Y-42.202
X44.958Y-43.702
X46.257Y-41.452
X46.257Y-42.952
X50.038Y-26.454
X58.09Y-27.978
X64.694Y-31.788
X64.948Y-68.11
X72.2Y-47.3
X72.822Y-55.156
X73.076Y-45.758
T3
X50.0Y-55.5G85X50.0Y-58.5
G05
M30
