%TF.GenerationSoftware,KiCad,Pcbnew,9.0.0*%
%TF.CreationDate,2025-02-26T13:29:11-06:00*%
%TF.ProjectId,reverse,72657665-7273-4652-9e6b-696361645f70,rev?*%
%TF.SameCoordinates,Original*%
%TF.FileFunction,Copper,L1,Top*%
%TF.FilePolarity,Positive*%
%FSLAX46Y46*%
G04 Gerber Fmt 4.6, Leading zero omitted, Abs format (unit mm)*
G04 Created by KiCad (PCBNEW 9.0.0) date 2025-02-26 13:29:11*
%MOMM*%
%LPD*%
G01*
G04 APERTURE LIST*
G04 Aperture macros list*
%AMRoundRect*
0 Rectangle with rounded corners*
0 $1 Rounding radius*
0 $2 $3 $4 $5 $6 $7 $8 $9 X,Y pos of 4 corners*
0 Add a 4 corners polygon primitive as box body*
4,1,4,$2,$3,$4,$5,$6,$7,$8,$9,$2,$3,0*
0 Add four circle primitives for the rounded corners*
1,1,$1+$1,$2,$3*
1,1,$1+$1,$4,$5*
1,1,$1+$1,$6,$7*
1,1,$1+$1,$8,$9*
0 Add four rect primitives between the rounded corners*
20,1,$1+$1,$2,$3,$4,$5,0*
20,1,$1+$1,$4,$5,$6,$7,0*
20,1,$1+$1,$6,$7,$8,$9,0*
20,1,$1+$1,$8,$9,$2,$3,0*%
%AMRotRect*
0 Rectangle, with rotation*
0 The origin of the aperture is its center*
0 $1 length*
0 $2 width*
0 $3 Rotation angle, in degrees counterclockwise*
0 Add horizontal line*
21,1,$1,$2,0,0,$3*%
G04 Aperture macros list end*
%TA.AperFunction,ComponentPad*%
%ADD10C,2.000000*%
%TD*%
%TA.AperFunction,SMDPad,CuDef*%
%ADD11RoundRect,0.135000X-0.226274X-0.035355X-0.035355X-0.226274X0.226274X0.035355X0.035355X0.226274X0*%
%TD*%
%TA.AperFunction,SMDPad,CuDef*%
%ADD12RoundRect,0.135000X0.035355X-0.226274X0.226274X-0.035355X-0.035355X0.226274X-0.226274X0.035355X0*%
%TD*%
%TA.AperFunction,SMDPad,CuDef*%
%ADD13RoundRect,0.147500X-0.226954X0.002111X-0.037331X-0.223872X0.226954X-0.002111X0.037331X0.223872X0*%
%TD*%
%TA.AperFunction,ComponentPad*%
%ADD14R,1.000000X1.000000*%
%TD*%
%TA.AperFunction,ComponentPad*%
%ADD15O,1.000000X1.000000*%
%TD*%
%TA.AperFunction,SMDPad,CuDef*%
%ADD16RoundRect,0.135000X-0.135000X-0.185000X0.135000X-0.185000X0.135000X0.185000X-0.135000X0.185000X0*%
%TD*%
%TA.AperFunction,SMDPad,CuDef*%
%ADD17RoundRect,0.147500X0.041489X0.223139X-0.213989X0.075639X-0.041489X-0.223139X0.213989X-0.075639X0*%
%TD*%
%TA.AperFunction,SMDPad,CuDef*%
%ADD18RoundRect,0.147500X0.212545X-0.079606X0.111649X0.197603X-0.212545X0.079606X-0.111649X-0.197603X0*%
%TD*%
%TA.AperFunction,SMDPad,CuDef*%
%ADD19RoundRect,0.147500X-0.037331X0.223872X-0.226954X-0.002111X0.037331X-0.223872X0.226954X0.002111X0*%
%TD*%
%TA.AperFunction,SMDPad,CuDef*%
%ADD20RoundRect,0.147500X-0.213989X-0.075639X0.041489X-0.223139X0.213989X0.075639X-0.041489X0.223139X0*%
%TD*%
%TA.AperFunction,SMDPad,CuDef*%
%ADD21RoundRect,0.050000X-0.300520X0.229810X0.229810X-0.300520X0.300520X-0.229810X-0.229810X0.300520X0*%
%TD*%
%TA.AperFunction,SMDPad,CuDef*%
%ADD22RoundRect,0.050000X-0.300520X-0.229810X-0.229810X-0.300520X0.300520X0.229810X0.229810X0.300520X0*%
%TD*%
%TA.AperFunction,HeatsinkPad*%
%ADD23RotRect,1.650000X1.650000X315.000000*%
%TD*%
%TA.AperFunction,SMDPad,CuDef*%
%ADD24RoundRect,0.135000X0.135000X0.185000X-0.135000X0.185000X-0.135000X-0.185000X0.135000X-0.185000X0*%
%TD*%
%TA.AperFunction,SMDPad,CuDef*%
%ADD25RoundRect,0.147500X-0.172500X0.147500X-0.172500X-0.147500X0.172500X-0.147500X0.172500X0.147500X0*%
%TD*%
%TA.AperFunction,SMDPad,CuDef*%
%ADD26RoundRect,0.147500X0.115305X0.195492X-0.175213X0.144266X-0.115305X-0.195492X0.175213X-0.144266X0*%
%TD*%
%TA.AperFunction,SMDPad,CuDef*%
%ADD27RoundRect,0.140000X0.170000X-0.140000X0.170000X0.140000X-0.170000X0.140000X-0.170000X-0.140000X0*%
%TD*%
%TA.AperFunction,SMDPad,CuDef*%
%ADD28RoundRect,0.147500X0.037331X-0.223872X0.226954X0.002111X-0.037331X0.223872X-0.226954X-0.002111X0*%
%TD*%
%TA.AperFunction,ComponentPad*%
%ADD29C,1.600000*%
%TD*%
%TA.AperFunction,SMDPad,CuDef*%
%ADD30RoundRect,0.147500X-0.212545X0.079606X-0.111649X-0.197603X0.212545X-0.079606X0.111649X0.197603X0*%
%TD*%
%TA.AperFunction,SMDPad,CuDef*%
%ADD31RoundRect,0.135000X0.226274X0.035355X0.035355X0.226274X-0.226274X-0.035355X-0.035355X-0.226274X0*%
%TD*%
%TA.AperFunction,SMDPad,CuDef*%
%ADD32RoundRect,0.147500X-0.041489X-0.223139X0.213989X-0.075639X0.041489X0.223139X-0.213989X0.075639X0*%
%TD*%
%TA.AperFunction,SMDPad,CuDef*%
%ADD33RoundRect,0.147500X0.213989X0.075639X-0.041489X0.223139X-0.213989X-0.075639X0.041489X-0.223139X0*%
%TD*%
%TA.AperFunction,SMDPad,CuDef*%
%ADD34RoundRect,0.147500X0.172500X-0.147500X0.172500X0.147500X-0.172500X0.147500X-0.172500X-0.147500X0*%
%TD*%
%TA.AperFunction,SMDPad,CuDef*%
%ADD35RoundRect,0.135000X-0.035355X0.226274X-0.226274X0.035355X0.035355X-0.226274X0.226274X-0.035355X0*%
%TD*%
%TA.AperFunction,SMDPad,CuDef*%
%ADD36C,10.000000*%
%TD*%
%TA.AperFunction,SMDPad,CuDef*%
%ADD37RoundRect,0.147500X-0.111649X0.197603X-0.212545X-0.079606X0.111649X-0.197603X0.212545X0.079606X0*%
%TD*%
%TA.AperFunction,ComponentPad*%
%ADD38O,1.200000X4.200000*%
%TD*%
%TA.AperFunction,SMDPad,CuDef*%
%ADD39C,4.000000*%
%TD*%
%TA.AperFunction,SMDPad,CuDef*%
%ADD40RoundRect,0.147500X0.175213X0.144266X-0.115305X0.195492X-0.175213X-0.144266X0.115305X-0.195492X0*%
%TD*%
%TA.AperFunction,SMDPad,CuDef*%
%ADD41RoundRect,0.147500X0.111649X-0.197603X0.212545X0.079606X-0.111649X0.197603X-0.212545X-0.079606X0*%
%TD*%
%TA.AperFunction,SMDPad,CuDef*%
%ADD42RoundRect,0.147500X0.226954X-0.002111X0.037331X0.223872X-0.226954X0.002111X-0.037331X-0.223872X0*%
%TD*%
%TA.AperFunction,ViaPad*%
%ADD43C,0.600000*%
%TD*%
%TA.AperFunction,ViaPad*%
%ADD44C,0.500000*%
%TD*%
%TA.AperFunction,Conductor*%
%ADD45C,0.200000*%
%TD*%
%TA.AperFunction,Conductor*%
%ADD46C,0.900000*%
%TD*%
%TA.AperFunction,Conductor*%
%ADD47C,1.000000*%
%TD*%
%TA.AperFunction,Conductor*%
%ADD48C,0.300000*%
%TD*%
G04 APERTURE END LIST*
D10*
%TO.P,stitch1,1*%
%TO.N,GND*%
X26924000Y-45758000D03*
%TD*%
D11*
%TO.P,R8,1*%
%TO.N,PWM8*%
X61139376Y-64423491D03*
%TO.P,R8,2*%
%TO.N,Net-(D15-A)*%
X61860624Y-65144739D03*
%TD*%
D10*
%TO.P,stitch1,1*%
%TO.N,GND*%
X41910000Y-27978000D03*
%TD*%
D12*
%TO.P,R6,1*%
%TO.N,PWM6*%
X61139376Y-35576508D03*
%TO.P,R6,2*%
%TO.N,Net-(D11-A)*%
X61860624Y-34855260D03*
%TD*%
D13*
%TO.P,D2,1,K*%
%TO.N,Net-(D1-A)*%
X32069225Y-64412583D03*
%TO.P,D2,2,A*%
%TO.N,GP1*%
X32692729Y-65155647D03*
%TD*%
D14*
%TO.P,J1,1,Pin_1*%
%TO.N,+3V0*%
X48725000Y-73000000D03*
D15*
%TO.P,J1,2,Pin_2*%
%TO.N,GND*%
X49995001Y-73000000D03*
%TO.P,J1,3,Pin_3*%
%TO.N,GP6*%
X51265000Y-73000000D03*
%TD*%
D16*
%TO.P,R7,1*%
%TO.N,PWM7*%
X67109024Y-50000000D03*
%TO.P,R7,2*%
%TO.N,Net-(D13-A)*%
X68129022Y-50000000D03*
%TD*%
D17*
%TO.P,D7,1,K*%
%TO.N,GP4*%
X38920021Y-29838915D03*
%TO.P,D7,2,A*%
%TO.N,Net-(D7-A)*%
X38079977Y-30323915D03*
%TD*%
D10*
%TO.P,stitch1,1*%
%TO.N,GND*%
X27178000Y-55156000D03*
%TD*%
D18*
%TO.P,D12,1,K*%
%TO.N,Net-(D11-A)*%
X71778809Y-42589287D03*
%TO.P,D12,2,A*%
%TO.N,GP6*%
X71447051Y-41677785D03*
%TD*%
D19*
%TO.P,D6,1,K*%
%TO.N,Net-(D5-A)*%
X32692729Y-34844352D03*
%TO.P,D6,2,A*%
%TO.N,GP3*%
X32069225Y-35587416D03*
%TD*%
D20*
%TO.P,D1,1,K*%
%TO.N,GP1*%
X38079978Y-69676084D03*
%TO.P,D1,2,A*%
%TO.N,Net-(D1-A)*%
X38920022Y-70161084D03*
%TD*%
D21*
%TO.P,U1,1,TIM2_CH4*%
%TO.N,PWM4*%
X49540381Y-46409010D03*
%TO.P,U1,2,TIM1_CH2*%
%TO.N,PWM3*%
X49257538Y-46691852D03*
%TO.P,U1,3,ADC_IN0*%
%TO.N,/touch2*%
X48974695Y-46974695D03*
%TO.P,U1,4,VSS*%
%TO.N,GND*%
X48691852Y-47257538D03*
%TO.P,U1,5,PD0*%
%TO.N,GP4*%
X48409010Y-47540381D03*
D22*
%TO.P,U1,6,VDD*%
%TO.N,+3V0*%
X48409010Y-48459619D03*
%TO.P,U1,7,TIM2_CH3*%
%TO.N,PWM2*%
X48691852Y-48742462D03*
%TO.P,U1,8,PC1*%
%TO.N,GP3*%
X48974695Y-49025305D03*
%TO.P,U1,9,PC2*%
%TO.N,GP2*%
X49257538Y-49308148D03*
%TO.P,U1,10,TIM1_CH3*%
%TO.N,PWM1*%
X49540381Y-49590990D03*
D21*
%TO.P,U1,11,TIM1_CH4*%
%TO.N,PWM8*%
X50459619Y-49590990D03*
%TO.P,U1,12,PC5*%
%TO.N,GP1*%
X50742462Y-49308148D03*
%TO.P,U1,13,PC6*%
%TO.N,GP8*%
X51025305Y-49025305D03*
%TO.P,U1,14,PC7*%
%TO.N,GP7*%
X51308148Y-48742462D03*
%TO.P,U1,15,SWIO*%
%TO.N,GP6*%
X51590990Y-48459619D03*
D22*
%TO.P,U1,16,TIM1_CH1*%
%TO.N,PWM7*%
X51590990Y-47540381D03*
%TO.P,U1,17,TIM2_CH2*%
%TO.N,PWM6*%
X51308148Y-47257538D03*
%TO.P,U1,18,TIM2_CH1*%
%TO.N,PWM5*%
X51025305Y-46974695D03*
%TO.P,U1,19,PD5*%
%TO.N,GP5*%
X50742462Y-46691852D03*
%TO.P,U1,20,ADC_IN6*%
%TO.N,/touch1*%
X50459619Y-46409010D03*
D23*
%TO.P,U1,21,VSS*%
%TO.N,GND*%
X50000000Y-48000000D03*
%TD*%
D10*
%TO.P,through-r1,1*%
%TO.N,+3V0*%
X44958000Y-42202000D03*
%TD*%
%TO.P,stitch1,1*%
%TO.N,GND*%
X35306000Y-31788000D03*
%TD*%
D24*
%TO.P,R2,1*%
%TO.N,PWM2*%
X32890976Y-50000000D03*
%TO.P,R2,2*%
%TO.N,Net-(D3-A)*%
X31870978Y-50000000D03*
%TD*%
D25*
%TO.P,D4,1,K*%
%TO.N,Net-(D3-A)*%
X27000000Y-49515000D03*
%TO.P,D4,2,A*%
%TO.N,GP2*%
X27000000Y-50485000D03*
%TD*%
D26*
%TO.P,D8,1,K*%
%TO.N,Net-(D7-A)*%
X46483723Y-27265202D03*
%TO.P,D8,2,A*%
%TO.N,GP4*%
X45528459Y-27433640D03*
%TD*%
D10*
%TO.P,stitch1,1*%
%TO.N,GND*%
X35052000Y-68110000D03*
%TD*%
D27*
%TO.P,C1,1*%
%TO.N,+3V0*%
X47150000Y-48530000D03*
%TO.P,C1,2*%
%TO.N,GND*%
X47150000Y-47570000D03*
%TD*%
D10*
%TO.P,stitch1,1*%
%TO.N,GND*%
X64948000Y-68110000D03*
%TD*%
%TO.P,stitch1,1*%
%TO.N,GND*%
X73076000Y-45758000D03*
%TD*%
D28*
%TO.P,D15,1,K*%
%TO.N,GP8*%
X67307270Y-65155647D03*
%TO.P,D15,2,A*%
%TO.N,Net-(D15-A)*%
X67930774Y-64412583D03*
%TD*%
D29*
%TO.P,align-r1,1*%
%TO.N,GND*%
X27800000Y-52400000D03*
%TD*%
D10*
%TO.P,through-r6,1*%
%TO.N,+3V0*%
X43658961Y-42952000D03*
%TD*%
D30*
%TO.P,D3,1,K*%
%TO.N,GP2*%
X28221190Y-57410712D03*
%TO.P,D3,2,A*%
%TO.N,Net-(D3-A)*%
X28552948Y-58322214D03*
%TD*%
D10*
%TO.P,through-r4,1*%
%TO.N,+3V0*%
X46257038Y-42952000D03*
%TD*%
D29*
%TO.P,align-r2,1*%
%TO.N,GND*%
X72200000Y-47300000D03*
%TD*%
D31*
%TO.P,R4,1*%
%TO.N,PWM4*%
X46366716Y-35576508D03*
%TO.P,R4,2*%
%TO.N,Net-(D7-A)*%
X45645468Y-34855260D03*
%TD*%
D32*
%TO.P,D16,1,K*%
%TO.N,Net-(D15-A)*%
X61079978Y-70161084D03*
%TO.P,D16,2,A*%
%TO.N,GP8*%
X61920022Y-69676084D03*
%TD*%
D10*
%TO.P,through-r2,1*%
%TO.N,+3V0*%
X44958000Y-40702000D03*
%TD*%
D33*
%TO.P,D10,1,K*%
%TO.N,Net-(D10-K)*%
X61920022Y-30323915D03*
%TO.P,D10,2,A*%
%TO.N,GP5*%
X61079978Y-29838915D03*
%TD*%
D10*
%TO.P,through-r7,1*%
%TO.N,+3V0*%
X43658961Y-41452000D03*
%TD*%
D34*
%TO.P,D13,1,K*%
%TO.N,GP7*%
X73000000Y-50485000D03*
%TO.P,D13,2,A*%
%TO.N,Net-(D13-A)*%
X73000000Y-49515000D03*
%TD*%
D10*
%TO.P,through-r3,1*%
%TO.N,+3V0*%
X46257038Y-41452000D03*
%TD*%
D35*
%TO.P,R1,1*%
%TO.N,PWM1*%
X38860624Y-64423491D03*
%TO.P,R1,2*%
%TO.N,Net-(D1-A)*%
X38139376Y-65144739D03*
%TD*%
D36*
%TO.P,-,1,1*%
%TO.N,GND*%
X50000000Y-64500000D03*
%TD*%
D37*
%TO.P,D5,1,K*%
%TO.N,GP3*%
X28552948Y-41677785D03*
%TO.P,D5,2,A*%
%TO.N,Net-(D5-A)*%
X28221190Y-42589287D03*
%TD*%
D10*
%TO.P,through-r5,1*%
%TO.N,+3V0*%
X44958000Y-43702000D03*
%TD*%
D38*
%TO.P,battery-eject1,1*%
%TO.N,GND*%
X50000000Y-57000000D03*
%TD*%
D12*
%TO.P,R5,1*%
%TO.N,PWM5*%
X53633284Y-35576508D03*
%TO.P,R5,2*%
%TO.N,Net-(D10-K)*%
X54354532Y-34855260D03*
%TD*%
D10*
%TO.P,stitch1,1*%
%TO.N,GND*%
X64694000Y-31788000D03*
%TD*%
D39*
%TO.P,B1,1,1*%
%TO.N,GND*%
X50000000Y-64500000D03*
%TD*%
D40*
%TO.P,D9,1,K*%
%TO.N,GP5*%
X54471540Y-27433640D03*
%TO.P,D9,2,A*%
%TO.N,Net-(D10-K)*%
X53516276Y-27265202D03*
%TD*%
D41*
%TO.P,D14,1,K*%
%TO.N,Net-(D13-A)*%
X71447051Y-58322214D03*
%TO.P,D14,2,A*%
%TO.N,GP7*%
X71778809Y-57410712D03*
%TD*%
D10*
%TO.P,stitch1,1*%
%TO.N,GND*%
X72822000Y-55156000D03*
%TD*%
%TO.P,stitch1,1*%
%TO.N,GND*%
X58090000Y-27978000D03*
%TD*%
D42*
%TO.P,D11,1,K*%
%TO.N,GP6*%
X67930774Y-35587416D03*
%TO.P,D11,2,A*%
%TO.N,Net-(D11-A)*%
X67307270Y-34844352D03*
%TD*%
D10*
%TO.P,stitch1,1*%
%TO.N,GND*%
X50038000Y-26454000D03*
%TD*%
D31*
%TO.P,R3,1*%
%TO.N,PWM3*%
X38860624Y-35576508D03*
%TO.P,R3,2*%
%TO.N,Net-(D5-A)*%
X38139376Y-34855260D03*
%TD*%
D43*
%TO.N,GND*%
X39878000Y-70650000D03*
D44*
X43622000Y-67184248D03*
D43*
X71139913Y-50517384D03*
X28082024Y-43384656D03*
X73092489Y-48720000D03*
D44*
X42150000Y-45800000D03*
X43434000Y-44700000D03*
D43*
X37479978Y-65965040D03*
D44*
X42082735Y-40070910D03*
X57850000Y-48872000D03*
X54610000Y-43767891D03*
X39362091Y-31160000D03*
D43*
X29200000Y-50830151D03*
X33355379Y-65965040D03*
X66554035Y-65916000D03*
D44*
X48538595Y-51370595D03*
D43*
X61320022Y-65779979D03*
X62520022Y-69111544D03*
D44*
X48107038Y-44702248D03*
X42150000Y-51170000D03*
X53974280Y-48872000D03*
X48726000Y-45382497D03*
D43*
X47280160Y-27203793D03*
D44*
X52324000Y-72936000D03*
X43434000Y-45800000D03*
X46736000Y-45800000D03*
X42150000Y-49450000D03*
X54226545Y-33949455D03*
D43*
X66802000Y-34100000D03*
D44*
X47498000Y-73952000D03*
D43*
X71207898Y-40590102D03*
X60349070Y-70485116D03*
X31436104Y-36093963D03*
X28300000Y-56385079D03*
X70800000Y-42964000D03*
X38862000Y-65824000D03*
X41659829Y-36176508D03*
X62576000Y-65916000D03*
D44*
X55922000Y-54140000D03*
D43*
X54590219Y-42308310D03*
D44*
X54838834Y-59116580D03*
D43*
X49250000Y-48000000D03*
X28606085Y-40776118D03*
D44*
X45890159Y-28163978D03*
X42150000Y-44700000D03*
D43*
X72120000Y-51823608D03*
X27322614Y-51262826D03*
D44*
X46548001Y-57899817D03*
X52832000Y-40932000D03*
X50292000Y-50880000D03*
X43712243Y-64070243D03*
D43*
X72243090Y-43265986D03*
X72154151Y-56701304D03*
D44*
X48514000Y-58966000D03*
D43*
X47249057Y-52730843D03*
D44*
X56042852Y-58549149D03*
X58032262Y-60522486D03*
X39925111Y-36126508D03*
X54356000Y-40424000D03*
X54446550Y-35665599D03*
D43*
X50750000Y-48000000D03*
D44*
X58300909Y-38526909D03*
X45720000Y-56680000D03*
X47244000Y-35344000D03*
D43*
X55294048Y-27322727D03*
X27178000Y-48552000D03*
D44*
X54299595Y-28383403D03*
D43*
X42054793Y-60380793D03*
D44*
X51450000Y-71920000D03*
D43*
X33348962Y-34100000D03*
D44*
X51450000Y-52108000D03*
X54822000Y-55410000D03*
X57658000Y-43726000D03*
X45683248Y-53922752D03*
D43*
X68581384Y-63920710D03*
D44*
X52356770Y-47124803D03*
D43*
X37396029Y-69261093D03*
X39638553Y-29238915D03*
X61262421Y-68560399D03*
X44616892Y-27496677D03*
X60390804Y-29238915D03*
D44*
X51308000Y-58966000D03*
X52578000Y-53378000D03*
X48514000Y-38646000D03*
X43932694Y-49323306D03*
X44958000Y-39154000D03*
D43*
X38747590Y-68570410D03*
D44*
X57658000Y-50584000D03*
D43*
X37338000Y-30772000D03*
D44*
X53594000Y-50584000D03*
X48423752Y-72010248D03*
D43*
X52727373Y-27161069D03*
D44*
X41762190Y-63493583D03*
D43*
X29188208Y-59454350D03*
D44*
X57658000Y-44867891D03*
D43*
X29200000Y-42825258D03*
D44*
X48514000Y-53378000D03*
X55880000Y-34286000D03*
X50019783Y-46071028D03*
D43*
X68563894Y-36093962D03*
D44*
X52333909Y-42456000D03*
X41822294Y-68026853D03*
X60960000Y-34150000D03*
X48521909Y-55925909D03*
X54429190Y-44867891D03*
X45701927Y-34020982D03*
X39370000Y-34794000D03*
X50038000Y-38392000D03*
X47007038Y-47570000D03*
D43*
X72944441Y-51280000D03*
D44*
X46736000Y-51170000D03*
X44770000Y-51170000D03*
X51117893Y-44889405D03*
X44203909Y-34286000D03*
D43*
X62562598Y-30800942D03*
X31436103Y-63906037D03*
D44*
X60713909Y-31068000D03*
D43*
X70785497Y-59433974D03*
D44*
X45447207Y-35644992D03*
D43*
%TO.N,+3V0*%
X44712000Y-48252000D03*
X46998000Y-54094000D03*
X47998000Y-54094000D03*
X45212000Y-48552000D03*
X47998000Y-54694000D03*
X47498000Y-54994000D03*
X46998000Y-54694000D03*
X44712000Y-48852000D03*
X47498000Y-54394000D03*
X45212000Y-49152000D03*
X45712000Y-48852000D03*
X45712000Y-48252000D03*
X45212000Y-47952000D03*
X47498000Y-53794000D03*
%TO.N,GP4*%
X48306433Y-47720647D03*
X45528459Y-27433640D03*
X38920021Y-29838915D03*
%TO.N,/touch2*%
X41000000Y-45250000D03*
%TO.N,/touch1*%
X52267893Y-44317891D03*
%TO.N,GP6*%
X67930774Y-35600000D03*
X51693567Y-48279354D03*
%TO.N,GP1*%
X32692729Y-65155647D03*
X51400000Y-50330000D03*
X38079978Y-69676084D03*
%TO.N,GP8*%
X61920022Y-69676084D03*
X55372000Y-53378000D03*
X67296362Y-65144739D03*
%TO.N,GP5*%
X61079978Y-29838915D03*
X54471540Y-27433640D03*
X52883909Y-41694000D03*
%TO.N,GP3*%
X47724578Y-49992578D03*
X32069225Y-35598000D03*
%TD*%
D45*
%TO.N,Net-(D1-A)*%
X38100000Y-65184115D02*
X38100000Y-68771349D01*
X37968115Y-65316000D02*
X33748144Y-65316000D01*
X38139376Y-65144739D02*
X38100000Y-65184115D01*
X38139376Y-65144739D02*
X37968115Y-65316000D01*
X38079978Y-65204137D02*
X38139376Y-65144739D01*
X38920022Y-69591371D02*
X38920022Y-70161084D01*
X33748144Y-65316000D02*
X32844727Y-64412583D01*
X38100000Y-68771349D02*
X38920022Y-69591371D01*
X32844727Y-64412583D02*
X32069225Y-64412583D01*
%TO.N,GND*%
X49250000Y-47815686D02*
X49250000Y-48000000D01*
X47831119Y-46888881D02*
X48323195Y-46888881D01*
X47150000Y-47570000D02*
X47831119Y-46888881D01*
D46*
X49995001Y-73000000D02*
X49995001Y-71666000D01*
D45*
X48323195Y-46888881D02*
X48691852Y-47257538D01*
X48691852Y-47257538D02*
X49250000Y-47815686D01*
D47*
%TO.N,+3V0*%
X47498000Y-54394000D02*
X47498000Y-58940982D01*
X47498000Y-58940982D02*
X42672000Y-63766982D01*
X45952000Y-48580000D02*
X47700000Y-48580000D01*
X42672000Y-67602000D02*
X48070000Y-73000000D01*
X45240000Y-48580000D02*
X45952000Y-48580000D01*
D48*
X48410000Y-48370647D02*
X47150000Y-48370647D01*
D47*
X48070000Y-73000000D02*
X48725000Y-73000000D01*
X45212000Y-48552000D02*
X45240000Y-48580000D01*
D48*
X48128000Y-48552000D02*
X46868000Y-48552000D01*
D47*
X42672000Y-63766982D02*
X42672000Y-67602000D01*
D45*
%TO.N,PWM8*%
X50800000Y-50584000D02*
X50800000Y-49931371D01*
X55372000Y-58656115D02*
X55372000Y-55156000D01*
X50800000Y-49931371D02*
X50459619Y-49590990D01*
X61139376Y-64423491D02*
X55372000Y-58656115D01*
X55372000Y-55156000D02*
X50800000Y-50584000D01*
%TO.N,Net-(D3-A)*%
X29375321Y-51854000D02*
X27036321Y-49515000D01*
X31870978Y-50000000D02*
X31318000Y-50000000D01*
X29300000Y-57575162D02*
X28552948Y-58322214D01*
X27036321Y-49515000D02*
X27000000Y-49515000D01*
X29300000Y-52018000D02*
X29300000Y-57575162D01*
X31318000Y-50000000D02*
X29464000Y-51854000D01*
X29464000Y-51854000D02*
X29300000Y-52018000D01*
X29464000Y-51854000D02*
X29375321Y-51854000D01*
%TO.N,Net-(D15-A)*%
X61860624Y-65144739D02*
X62031885Y-65316000D01*
X66251855Y-65316000D02*
X67155272Y-64412583D01*
X61976000Y-68695349D02*
X61079978Y-69591371D01*
X61860624Y-65144739D02*
X61976000Y-65260115D01*
X61976000Y-65260115D02*
X61976000Y-68695349D01*
X62031885Y-65316000D02*
X66251855Y-65316000D01*
X67155272Y-64412583D02*
X67930774Y-64412583D01*
X61079978Y-69591371D02*
X61079978Y-70161084D01*
%TO.N,Net-(D5-A)*%
X32766000Y-34917623D02*
X32766000Y-38410731D01*
X28587444Y-42589287D02*
X28221190Y-42589287D01*
X32703637Y-34855260D02*
X32692729Y-34844352D01*
X32692729Y-34844352D02*
X32766000Y-34917623D01*
X38139376Y-34855260D02*
X32703637Y-34855260D01*
X32766000Y-38410731D02*
X28587444Y-42589287D01*
%TO.N,Net-(D13-A)*%
X71144500Y-51370500D02*
X73000000Y-49515000D01*
X71116017Y-57127506D02*
X71116017Y-57991180D01*
X71120000Y-57123523D02*
X71116017Y-57127506D01*
X69774000Y-50000000D02*
X71120000Y-51346000D01*
X68129022Y-50000000D02*
X69774000Y-50000000D01*
X71120000Y-51346000D02*
X71120000Y-57123523D01*
X71116017Y-57991180D02*
X71447051Y-58322214D01*
%TO.N,PWM7*%
X67109024Y-50000000D02*
X66531024Y-49422000D01*
X53684742Y-49422000D02*
X51803123Y-47540381D01*
X66531024Y-49422000D02*
X53684742Y-49422000D01*
X51803123Y-47540381D02*
X51590990Y-47540381D01*
%TO.N,Net-(D7-A)*%
X46483723Y-27265202D02*
X46483723Y-34017005D01*
X38366062Y-30610000D02*
X38079977Y-30323915D01*
X43961260Y-34855260D02*
X39716000Y-30610000D01*
X46483723Y-34017005D02*
X45645468Y-34855260D01*
X39716000Y-30610000D02*
X38366062Y-30610000D01*
X45645468Y-34855260D02*
X43961260Y-34855260D01*
%TO.N,PWM6*%
X60473492Y-35576508D02*
X53883909Y-42166091D01*
X61139376Y-35576508D02*
X60473492Y-35576508D01*
X53883909Y-42166091D02*
X53883909Y-44681777D01*
X53883909Y-44681777D02*
X53649594Y-44916091D01*
X53649594Y-44916091D02*
X51308148Y-47257538D01*
%TO.N,Net-(D11-A)*%
X71778809Y-42589287D02*
X71412555Y-42589287D01*
X67296362Y-34855260D02*
X67307270Y-34844352D01*
X67254002Y-34897620D02*
X67307270Y-34844352D01*
X61860624Y-34855260D02*
X67296362Y-34855260D01*
X71412555Y-42589287D02*
X67254002Y-38430734D01*
X67254002Y-38430734D02*
X67254002Y-34897620D01*
%TO.N,PWM5*%
X53483909Y-35725883D02*
X53633284Y-35576508D01*
X53483909Y-44516091D02*
X53483909Y-35725883D01*
X51025305Y-46974695D02*
X53483909Y-44516091D01*
X51025305Y-46974695D02*
X51265685Y-46734314D01*
%TO.N,Net-(D10-K)*%
X53516276Y-34017004D02*
X54354532Y-34855260D01*
X61725937Y-30518000D02*
X61920022Y-30323915D01*
X56114740Y-34855260D02*
X60452000Y-30518000D01*
X53516276Y-27265202D02*
X53516276Y-34017004D01*
X54354532Y-34855260D02*
X56114740Y-34855260D01*
X60452000Y-30518000D02*
X61725937Y-30518000D01*
%TO.N,PWM4*%
X49350000Y-46218629D02*
X49540381Y-46409010D01*
X49350000Y-38559792D02*
X49350000Y-46218629D01*
X46366716Y-35576508D02*
X49350000Y-38559792D01*
%TO.N,PWM3*%
X47557038Y-40913522D02*
X47557038Y-44991352D01*
X42220024Y-35576508D02*
X47557038Y-40913522D01*
X47557038Y-44991352D02*
X49257538Y-46691852D01*
X38860624Y-35576508D02*
X42220024Y-35576508D01*
%TO.N,PWM2*%
X46853969Y-50000000D02*
X47473969Y-49380000D01*
X32890976Y-50000000D02*
X46853969Y-50000000D01*
X47473969Y-49380000D02*
X48054314Y-49380000D01*
X48054314Y-49380000D02*
X48691852Y-48742462D01*
%TO.N,PWM1*%
X46398000Y-56886115D02*
X46398000Y-52733371D01*
X38860624Y-64423491D02*
X46398000Y-56886115D01*
X46398000Y-52733371D02*
X49540381Y-49590990D01*
%TO.N,GP4*%
X48306433Y-47720647D02*
X48306433Y-47642958D01*
X48306433Y-47642958D02*
X48409010Y-47540381D01*
X45496093Y-27466006D02*
X45528459Y-27433640D01*
%TO.N,GP7*%
X69632000Y-50620000D02*
X70716017Y-51704017D01*
X71520000Y-57151903D02*
X71520000Y-51560686D01*
X51308148Y-48742462D02*
X52387686Y-49822000D01*
X71166005Y-58970064D02*
X71745199Y-58970064D01*
X66790100Y-50620000D02*
X69632000Y-50620000D01*
X66539024Y-50368924D02*
X66790100Y-50620000D01*
X72595686Y-50485000D02*
X73000000Y-50485000D01*
X71778809Y-57410712D02*
X71520000Y-57151903D01*
X66365338Y-49822000D02*
X66539024Y-49995686D01*
X70716017Y-51704017D02*
X70716017Y-58520076D01*
X72109843Y-58605420D02*
X72109843Y-57741746D01*
X72109843Y-57741746D02*
X71778809Y-57410712D01*
X70716017Y-58520076D02*
X71166005Y-58970064D01*
X71745199Y-58970064D02*
X72109843Y-58605420D01*
X71520000Y-51560686D02*
X72595686Y-50485000D01*
X52387686Y-49822000D02*
X66365338Y-49822000D01*
X66539024Y-49995686D02*
X66539024Y-50368924D01*
%TO.N,/touch2*%
X41000000Y-45250000D02*
X47250000Y-45250000D01*
X47250000Y-45250000D02*
X48974695Y-46974695D01*
%TO.N,/touch1*%
X52267893Y-44317891D02*
X52267893Y-44600736D01*
X52267893Y-44600736D02*
X50459619Y-46409010D01*
%TO.N,GP6*%
X67930774Y-38161508D02*
X71447051Y-41677785D01*
X67930774Y-35600000D02*
X67930774Y-38161508D01*
X67930774Y-35587416D02*
X67930774Y-35600000D01*
X71351923Y-41772912D02*
X71447050Y-41677785D01*
%TO.N,GP1*%
X51400000Y-49965686D02*
X50742462Y-49308148D01*
X51400000Y-50330000D02*
X51400000Y-49965686D01*
X32703637Y-65144739D02*
X32692729Y-65155647D01*
%TO.N,GP8*%
X67296362Y-65144739D02*
X67307270Y-65155647D01*
X61860624Y-69616686D02*
X61920022Y-69676084D01*
X55372000Y-53378000D02*
X55372000Y-53372000D01*
X55372000Y-53372000D02*
X51025305Y-49025305D01*
%TO.N,GP5*%
X52883909Y-44550404D02*
X50865685Y-46568628D01*
X54503907Y-27466007D02*
X54471540Y-27433640D01*
X50865685Y-46568628D02*
X50742462Y-46691852D01*
X52883909Y-41694000D02*
X52883909Y-44550404D01*
X54533640Y-27433640D02*
X54471540Y-27433640D01*
%TO.N,GP3*%
X47724578Y-49992578D02*
X48007422Y-49992578D01*
X28648076Y-41772912D02*
X28552949Y-41677785D01*
X32020353Y-35636288D02*
X32069225Y-35587416D01*
X32069225Y-35587416D02*
X32069225Y-35598000D01*
X32069225Y-38161508D02*
X28552948Y-41677785D01*
X32069225Y-35598000D02*
X32069225Y-38161508D01*
X48007422Y-49992578D02*
X48974695Y-49025305D01*
%TO.N,GP2*%
X29700000Y-58104058D02*
X29700000Y-52634000D01*
X28221190Y-57410712D02*
X27890156Y-57741746D01*
X27890156Y-57741746D02*
X27890156Y-58605420D01*
X28221190Y-57410712D02*
X28900000Y-56731902D01*
X31714000Y-50620000D02*
X47945686Y-50620000D01*
X27890156Y-58605420D02*
X28254800Y-58970064D01*
X29700000Y-52634000D02*
X31714000Y-50620000D01*
X47945686Y-50620000D02*
X49257538Y-49308148D01*
X28900000Y-56731902D02*
X28900000Y-51944365D01*
X28254800Y-58970064D02*
X28833994Y-58970064D01*
X28833994Y-58970064D02*
X29700000Y-58104058D01*
X27440635Y-50485000D02*
X27000000Y-50485000D01*
X28900000Y-51944365D02*
X27440635Y-50485000D01*
%TD*%
%TA.AperFunction,Conductor*%
%TO.N,GND*%
G36*
X50043334Y-50039786D02*
G01*
X50087681Y-50068287D01*
X50163181Y-50143787D01*
X50196666Y-50205110D01*
X50199500Y-50231468D01*
X50199500Y-50497330D01*
X50199499Y-50497348D01*
X50199499Y-50663054D01*
X50199498Y-50663054D01*
X50199499Y-50663057D01*
X50240423Y-50815785D01*
X50254571Y-50840289D01*
X50284367Y-50891897D01*
X50319479Y-50952715D01*
X50438349Y-51071585D01*
X50438355Y-51071590D01*
X54735181Y-55368416D01*
X54768666Y-55429739D01*
X54771500Y-55456097D01*
X54771500Y-58569445D01*
X54771499Y-58569463D01*
X54771499Y-58735169D01*
X54771498Y-58735169D01*
X54812422Y-58887897D01*
X54812424Y-58887903D01*
X54814218Y-58891009D01*
X54814219Y-58891011D01*
X54891477Y-59024827D01*
X54891481Y-59024832D01*
X55010349Y-59143700D01*
X55010355Y-59143705D01*
X60241283Y-64374633D01*
X60274768Y-64435956D01*
X60277602Y-64462314D01*
X60277602Y-64539132D01*
X60317533Y-64694651D01*
X60368203Y-64786819D01*
X60394885Y-64835353D01*
X60394887Y-64835355D01*
X60418351Y-64862828D01*
X60418367Y-64862845D01*
X60700019Y-65144496D01*
X60700030Y-65144506D01*
X60700037Y-65144513D01*
X60727514Y-65167982D01*
X60868218Y-65245334D01*
X60932906Y-65261943D01*
X60992942Y-65297679D01*
X61022171Y-65351207D01*
X61038781Y-65415897D01*
X61079483Y-65489934D01*
X61116133Y-65556602D01*
X61130841Y-65573822D01*
X61139601Y-65584078D01*
X61339182Y-65783658D01*
X61372666Y-65844979D01*
X61375500Y-65871338D01*
X61375500Y-68395251D01*
X61355815Y-68462290D01*
X61339181Y-68482932D01*
X60599459Y-69222653D01*
X60599457Y-69222655D01*
X60571788Y-69270580D01*
X60560093Y-69290838D01*
X60528790Y-69345055D01*
X60522089Y-69356663D01*
X60520401Y-69359586D01*
X60498222Y-69442356D01*
X60479475Y-69512320D01*
X60478683Y-69518340D01*
X60450412Y-69582234D01*
X60445244Y-69587971D01*
X60341629Y-69696020D01*
X60261256Y-69838659D01*
X60218881Y-69996805D01*
X60217167Y-70160515D01*
X60240819Y-70256806D01*
X60256221Y-70319513D01*
X60264083Y-70335995D01*
X60272087Y-70352776D01*
X60510013Y-70764878D01*
X60510024Y-70764895D01*
X60510233Y-70765199D01*
X60530896Y-70795264D01*
X60649065Y-70908583D01*
X60791702Y-70988956D01*
X60949847Y-71031330D01*
X61058989Y-71032472D01*
X61113559Y-71033044D01*
X61113559Y-71033043D01*
X61113560Y-71033044D01*
X61272558Y-70993992D01*
X61305817Y-70978128D01*
X61674639Y-70765188D01*
X61705007Y-70744317D01*
X61818327Y-70626147D01*
X61826871Y-70610984D01*
X61876929Y-70562241D01*
X61936201Y-70547862D01*
X61953603Y-70548044D01*
X61953603Y-70548043D01*
X61953604Y-70548044D01*
X62112602Y-70508992D01*
X62145861Y-70493128D01*
X62514683Y-70280188D01*
X62545051Y-70259317D01*
X62658371Y-70141147D01*
X62738743Y-69998510D01*
X62781118Y-69840366D01*
X62782832Y-69676652D01*
X62743779Y-69517655D01*
X62727915Y-69484396D01*
X62678104Y-69398122D01*
X62658231Y-69363700D01*
X62654167Y-69356662D01*
X62629416Y-69296905D01*
X62557697Y-69189571D01*
X62506672Y-69101193D01*
X62490200Y-69033294D01*
X62506673Y-68977195D01*
X62535577Y-68927133D01*
X62576500Y-68774406D01*
X62576500Y-66040500D01*
X62596185Y-65973461D01*
X62648989Y-65927706D01*
X62700500Y-65916500D01*
X66165186Y-65916500D01*
X66165202Y-65916501D01*
X66172798Y-65916501D01*
X66330909Y-65916501D01*
X66330912Y-65916501D01*
X66483640Y-65875577D01*
X66497755Y-65867427D01*
X66531372Y-65848019D01*
X66531379Y-65848013D01*
X66534563Y-65846176D01*
X66620571Y-65796520D01*
X66641813Y-65775277D01*
X66652357Y-65768333D01*
X66674178Y-65761658D01*
X66694203Y-65750724D01*
X66706949Y-65751635D01*
X66719171Y-65747897D01*
X66741135Y-65754079D01*
X66763894Y-65755706D01*
X66784645Y-65766325D01*
X66786428Y-65766827D01*
X66787093Y-65767578D01*
X66789446Y-65768782D01*
X66837592Y-65800951D01*
X66848400Y-65809060D01*
X66978201Y-65917977D01*
X67003727Y-65936185D01*
X67008204Y-65939378D01*
X67158004Y-66005447D01*
X67319528Y-66032188D01*
X67482629Y-66017919D01*
X67637055Y-65963536D01*
X67773107Y-65872458D01*
X67798934Y-65846176D01*
X67799939Y-65844979D01*
X67873490Y-65757324D01*
X68072685Y-65519933D01*
X68094083Y-65489934D01*
X68160152Y-65340133D01*
X68162994Y-65322961D01*
X68193360Y-65260040D01*
X68244140Y-65226253D01*
X68260559Y-65220472D01*
X68396611Y-65129394D01*
X68422438Y-65103112D01*
X68696189Y-64776869D01*
X68717587Y-64746870D01*
X68783656Y-64597069D01*
X68810396Y-64435546D01*
X68796127Y-64272445D01*
X68741744Y-64118019D01*
X68667090Y-64006500D01*
X68650669Y-63981969D01*
X68650668Y-63981967D01*
X68624379Y-63956135D01*
X68624376Y-63956133D01*
X68259851Y-63650260D01*
X68259839Y-63650250D01*
X68229843Y-63628854D01*
X68229842Y-63628853D01*
X68229840Y-63628852D01*
X68080040Y-63562783D01*
X68080036Y-63562782D01*
X68080035Y-63562782D01*
X68004705Y-63550311D01*
X67918516Y-63536042D01*
X67918514Y-63536042D01*
X67755413Y-63550311D01*
X67600992Y-63604692D01*
X67600983Y-63604697D01*
X67464943Y-63695767D01*
X67464935Y-63695773D01*
X67439105Y-63722058D01*
X67400734Y-63767788D01*
X67399882Y-63768354D01*
X67399457Y-63769286D01*
X67370849Y-63787670D01*
X67342562Y-63806491D01*
X67341255Y-63806689D01*
X67340679Y-63807060D01*
X67305744Y-63812083D01*
X67241942Y-63812083D01*
X67241926Y-63812082D01*
X67234330Y-63812082D01*
X67076215Y-63812082D01*
X66999851Y-63832544D01*
X66923486Y-63853006D01*
X66923481Y-63853009D01*
X66786562Y-63932058D01*
X66786554Y-63932064D01*
X66039439Y-64679181D01*
X65978116Y-64712666D01*
X65951758Y-64715500D01*
X62643109Y-64715500D01*
X62576070Y-64695815D01*
X62555428Y-64679181D01*
X62299980Y-64423733D01*
X62299968Y-64423722D01*
X62299963Y-64423717D01*
X62272486Y-64400248D01*
X62225892Y-64374633D01*
X62131785Y-64322897D01*
X62131782Y-64322896D01*
X62067092Y-64306286D01*
X62007055Y-64270547D01*
X61977828Y-64217021D01*
X61961219Y-64152333D01*
X61961217Y-64152329D01*
X61961217Y-64152328D01*
X61883868Y-64011631D01*
X61883867Y-64011629D01*
X61860399Y-63984152D01*
X61860393Y-63984146D01*
X61860384Y-63984136D01*
X61578732Y-63702485D01*
X61578720Y-63702474D01*
X61578715Y-63702469D01*
X61551238Y-63679000D01*
X61484570Y-63642349D01*
X61410534Y-63601647D01*
X61255017Y-63561717D01*
X61255014Y-63561717D01*
X61178199Y-63561717D01*
X61111160Y-63542032D01*
X61090518Y-63525398D01*
X56008819Y-58443699D01*
X55975334Y-58382376D01*
X55972500Y-58356018D01*
X55972500Y-55076943D01*
X55971492Y-55073184D01*
X55971487Y-55073165D01*
X55933108Y-54929931D01*
X55933107Y-54929926D01*
X55931577Y-54924215D01*
X55852522Y-54787287D01*
X55852521Y-54787286D01*
X55852520Y-54787284D01*
X55740716Y-54675480D01*
X55740715Y-54675479D01*
X55736385Y-54671149D01*
X55736374Y-54671139D01*
X55442136Y-54376901D01*
X55408651Y-54315578D01*
X55413635Y-54245886D01*
X55455507Y-54189953D01*
X55505626Y-54167603D01*
X55538391Y-54161085D01*
X55605497Y-54147737D01*
X55751179Y-54087394D01*
X55882289Y-53999789D01*
X55993789Y-53888289D01*
X56081394Y-53757179D01*
X56141737Y-53611497D01*
X56172500Y-53456842D01*
X56172500Y-53299158D01*
X56172500Y-53299155D01*
X56172499Y-53299153D01*
X56147249Y-53172213D01*
X56141737Y-53144503D01*
X56141735Y-53144498D01*
X56081397Y-52998827D01*
X56081390Y-52998814D01*
X55993789Y-52867711D01*
X55993786Y-52867707D01*
X55882292Y-52756213D01*
X55882288Y-52756210D01*
X55751185Y-52668609D01*
X55751172Y-52668602D01*
X55605501Y-52608264D01*
X55605491Y-52608261D01*
X55457639Y-52578851D01*
X55395728Y-52546466D01*
X55394150Y-52544915D01*
X53483416Y-50634181D01*
X53449931Y-50572858D01*
X53454915Y-50503166D01*
X53496787Y-50447233D01*
X53562251Y-50422816D01*
X53571097Y-50422500D01*
X65836547Y-50422500D01*
X65859778Y-50429321D01*
X65883860Y-50431881D01*
X65892702Y-50438989D01*
X65903586Y-50442185D01*
X65919441Y-50460482D01*
X65938317Y-50475656D01*
X65944940Y-50489910D01*
X65949341Y-50494989D01*
X65954154Y-50507198D01*
X65955346Y-50510767D01*
X65979447Y-50600709D01*
X65987333Y-50614367D01*
X65993587Y-50625199D01*
X65993588Y-50625202D01*
X66015442Y-50663054D01*
X66056794Y-50734679D01*
X66058503Y-50737638D01*
X66058505Y-50737641D01*
X66177373Y-50856509D01*
X66177379Y-50856514D01*
X66305239Y-50984374D01*
X66305249Y-50984385D01*
X66309579Y-50988715D01*
X66309580Y-50988716D01*
X66421384Y-51100520D01*
X66504637Y-51148585D01*
X66508195Y-51150639D01*
X66508197Y-51150641D01*
X66546251Y-51172611D01*
X66558315Y-51179577D01*
X66711043Y-51220500D01*
X66869157Y-51220500D01*
X69331903Y-51220500D01*
X69398942Y-51240185D01*
X69419584Y-51256819D01*
X70079198Y-51916433D01*
X70112683Y-51977756D01*
X70115517Y-52004114D01*
X70115517Y-58433406D01*
X70115516Y-58433424D01*
X70115516Y-58599130D01*
X70115515Y-58599130D01*
X70156440Y-58751861D01*
X70185375Y-58801976D01*
X70185376Y-58801980D01*
X70185377Y-58801980D01*
X70235496Y-58888790D01*
X70235498Y-58888793D01*
X70354366Y-59007661D01*
X70354372Y-59007666D01*
X70681144Y-59334438D01*
X70681154Y-59334449D01*
X70685484Y-59338779D01*
X70685485Y-59338780D01*
X70797289Y-59450584D01*
X70884100Y-59500703D01*
X70884102Y-59500705D01*
X70922156Y-59522675D01*
X70934220Y-59529641D01*
X71086948Y-59570564D01*
X71245062Y-59570564D01*
X71658530Y-59570564D01*
X71658546Y-59570565D01*
X71666142Y-59570565D01*
X71824253Y-59570565D01*
X71824256Y-59570565D01*
X71976984Y-59529641D01*
X72027103Y-59500703D01*
X72113915Y-59450584D01*
X72225719Y-59338780D01*
X72225719Y-59338778D01*
X72235927Y-59328571D01*
X72235929Y-59328568D01*
X72478556Y-59085941D01*
X72478559Y-59085940D01*
X72500177Y-59064321D01*
X72522132Y-59052334D01*
X72561493Y-59030841D01*
X72561496Y-59030841D01*
X72561499Y-59030840D01*
X72593924Y-59033160D01*
X72631185Y-59035825D01*
X72631187Y-59035826D01*
X72631190Y-59035827D01*
X72652865Y-59052054D01*
X72687119Y-59077695D01*
X72687120Y-59077698D01*
X72687122Y-59077700D01*
X72695337Y-59099728D01*
X72711537Y-59143159D01*
X72711536Y-59143163D01*
X72711537Y-59143165D01*
X72711533Y-59143182D01*
X72702414Y-59199460D01*
X72447081Y-59815890D01*
X72445130Y-59820351D01*
X72044401Y-60689597D01*
X72042276Y-60693978D01*
X71607737Y-61546810D01*
X71605441Y-61551104D01*
X71137741Y-62386242D01*
X71135279Y-62390443D01*
X70635175Y-63206538D01*
X70632550Y-63210639D01*
X70100773Y-64006500D01*
X70097989Y-64010494D01*
X69535392Y-64784842D01*
X69532453Y-64788725D01*
X68939877Y-65540405D01*
X68936788Y-65544169D01*
X68315157Y-66272006D01*
X68311923Y-66275645D01*
X67662203Y-66978508D01*
X67658828Y-66982018D01*
X66982018Y-67658828D01*
X66978508Y-67662203D01*
X66275645Y-68311923D01*
X66272006Y-68315157D01*
X65544169Y-68936788D01*
X65540405Y-68939877D01*
X64788725Y-69532453D01*
X64784842Y-69535392D01*
X64010494Y-70097989D01*
X64006500Y-70100773D01*
X63210639Y-70632550D01*
X63206538Y-70635175D01*
X62390443Y-71135279D01*
X62386242Y-71137741D01*
X61551104Y-71605441D01*
X61546810Y-71607737D01*
X60693978Y-72042276D01*
X60689597Y-72044401D01*
X59820351Y-72445130D01*
X59815890Y-72447081D01*
X58931603Y-72813364D01*
X58927069Y-72815139D01*
X58029049Y-73146437D01*
X58024448Y-73148032D01*
X57114137Y-73443809D01*
X57109478Y-73445222D01*
X56188270Y-73705030D01*
X56183558Y-73706260D01*
X55252822Y-73929710D01*
X55248066Y-73930753D01*
X54309311Y-74117483D01*
X54304518Y-74118339D01*
X53359136Y-74268073D01*
X53354335Y-74268737D01*
X52403791Y-74381241D01*
X52398961Y-74381717D01*
X51444715Y-74456818D01*
X51439854Y-74457104D01*
X50483459Y-74494681D01*
X50478591Y-74494777D01*
X49521409Y-74494777D01*
X49516541Y-74494681D01*
X48560145Y-74457104D01*
X48555284Y-74456818D01*
X47601038Y-74381717D01*
X47599330Y-74381066D01*
X47596194Y-74381239D01*
X46645657Y-74268737D01*
X46640863Y-74268073D01*
X45695481Y-74118339D01*
X45690688Y-74117483D01*
X44751933Y-73930753D01*
X44747177Y-73929710D01*
X43816441Y-73706260D01*
X43811729Y-73705030D01*
X42890521Y-73445222D01*
X42885862Y-73443809D01*
X41975551Y-73148032D01*
X41970950Y-73146437D01*
X41072930Y-72815139D01*
X41068396Y-72813364D01*
X40184109Y-72447081D01*
X40179648Y-72445130D01*
X39310402Y-72044401D01*
X39306021Y-72042276D01*
X38453189Y-71607737D01*
X38448895Y-71605441D01*
X37613757Y-71137741D01*
X37609556Y-71135279D01*
X36793461Y-70635175D01*
X36789360Y-70632550D01*
X35993499Y-70100773D01*
X35989505Y-70097989D01*
X35215157Y-69535392D01*
X35211274Y-69532453D01*
X34459594Y-68939877D01*
X34455830Y-68936788D01*
X33941618Y-68497610D01*
X33727982Y-68315147D01*
X33724354Y-68311923D01*
X33646312Y-68239782D01*
X33021491Y-67662203D01*
X33017981Y-67658828D01*
X32341171Y-66982018D01*
X32337796Y-66978508D01*
X32176854Y-66804402D01*
X31688063Y-66275630D01*
X31684855Y-66272020D01*
X31063211Y-65544169D01*
X31060122Y-65540405D01*
X30467546Y-64788725D01*
X30464607Y-64784842D01*
X29902010Y-64010494D01*
X29899226Y-64006500D01*
X29367449Y-63210639D01*
X29364824Y-63206538D01*
X28864720Y-62390443D01*
X28862258Y-62386242D01*
X28394558Y-61551104D01*
X28392262Y-61546810D01*
X28338866Y-61442015D01*
X27957723Y-60693978D01*
X27955598Y-60689597D01*
X27719480Y-60177418D01*
X27554859Y-59820329D01*
X27552928Y-59815913D01*
X27297584Y-59199459D01*
X27296380Y-59188257D01*
X27290980Y-59178368D01*
X27292712Y-59154139D01*
X27290116Y-59129991D01*
X27295159Y-59119915D01*
X27295963Y-59108676D01*
X27310519Y-59089230D01*
X27321391Y-59067512D01*
X27331081Y-59061762D01*
X27337834Y-59052742D01*
X27360591Y-59044253D01*
X27381480Y-59031860D01*
X27392739Y-59032262D01*
X27403298Y-59028324D01*
X27427033Y-59033487D01*
X27451305Y-59034354D01*
X27462332Y-59041165D01*
X27471571Y-59043175D01*
X27499816Y-59064319D01*
X27499823Y-59064323D01*
X27521440Y-59085940D01*
X27521442Y-59085941D01*
X27528511Y-59093010D01*
X27769939Y-59334438D01*
X27769949Y-59334449D01*
X27774279Y-59338779D01*
X27774280Y-59338780D01*
X27886084Y-59450584D01*
X27886086Y-59450585D01*
X27886090Y-59450588D01*
X27974026Y-59501357D01*
X28023016Y-59529641D01*
X28134819Y-59559598D01*
X28175742Y-59570564D01*
X28175743Y-59570564D01*
X28747325Y-59570564D01*
X28747341Y-59570565D01*
X28754937Y-59570565D01*
X28913048Y-59570565D01*
X28913051Y-59570565D01*
X29065779Y-59529641D01*
X29115898Y-59500703D01*
X29202710Y-59450584D01*
X29314514Y-59338780D01*
X29314514Y-59338778D01*
X29324722Y-59328571D01*
X29324724Y-59328568D01*
X30058506Y-58594786D01*
X30058511Y-58594782D01*
X30068714Y-58584578D01*
X30068716Y-58584578D01*
X30180520Y-58472774D01*
X30259577Y-58335842D01*
X30300500Y-58183115D01*
X30300500Y-52934097D01*
X30320185Y-52867058D01*
X30336819Y-52846416D01*
X31926416Y-51256819D01*
X31987739Y-51223334D01*
X32014097Y-51220500D01*
X46762274Y-51220500D01*
X46829313Y-51240185D01*
X46875068Y-51292989D01*
X46885012Y-51362147D01*
X46855987Y-51425703D01*
X46849957Y-51432178D01*
X46421352Y-51860783D01*
X46029286Y-52252849D01*
X45917481Y-52364653D01*
X45917479Y-52364656D01*
X45882708Y-52424883D01*
X45882707Y-52424885D01*
X45838423Y-52501585D01*
X45838423Y-52501586D01*
X45797499Y-52654314D01*
X45797499Y-52654316D01*
X45797499Y-52822417D01*
X45797500Y-52822430D01*
X45797500Y-56586018D01*
X45777815Y-56653057D01*
X45761181Y-56673699D01*
X38909482Y-63525398D01*
X38848159Y-63558883D01*
X38821801Y-63561717D01*
X38744982Y-63561717D01*
X38589463Y-63601648D01*
X38448764Y-63678997D01*
X38448764Y-63678998D01*
X38421286Y-63702466D01*
X38421269Y-63702482D01*
X38139618Y-63984134D01*
X38139607Y-63984146D01*
X38116133Y-64011628D01*
X38038782Y-64152329D01*
X38038780Y-64152336D01*
X38022171Y-64217021D01*
X37986432Y-64277059D01*
X37932906Y-64306286D01*
X37868221Y-64322895D01*
X37868220Y-64322895D01*
X37727512Y-64400248D01*
X37700038Y-64423714D01*
X37700034Y-64423718D01*
X37623754Y-64499999D01*
X37444571Y-64679182D01*
X37383251Y-64712666D01*
X37356892Y-64715500D01*
X34048242Y-64715500D01*
X33981203Y-64695815D01*
X33960561Y-64679181D01*
X33332317Y-64050938D01*
X33332315Y-64050935D01*
X33213444Y-63932064D01*
X33213439Y-63932060D01*
X33098190Y-63865522D01*
X33076512Y-63853006D01*
X32923784Y-63812082D01*
X32765670Y-63812082D01*
X32758074Y-63812082D01*
X32758058Y-63812083D01*
X32694255Y-63812083D01*
X32627216Y-63792398D01*
X32599265Y-63767788D01*
X32560893Y-63722058D01*
X32535063Y-63695773D01*
X32535055Y-63695767D01*
X32399015Y-63604697D01*
X32399006Y-63604692D01*
X32244585Y-63550311D01*
X32244586Y-63550311D01*
X32081487Y-63536042D01*
X32081480Y-63536042D01*
X31919963Y-63562782D01*
X31919960Y-63562782D01*
X31919959Y-63562783D01*
X31919958Y-63562783D01*
X31919956Y-63562784D01*
X31770159Y-63628852D01*
X31770155Y-63628854D01*
X31740159Y-63650250D01*
X31740147Y-63650260D01*
X31375622Y-63956133D01*
X31375619Y-63956135D01*
X31349330Y-63981967D01*
X31349329Y-63981969D01*
X31258254Y-64118020D01*
X31203872Y-64272443D01*
X31189603Y-64435541D01*
X31189603Y-64435549D01*
X31216341Y-64597063D01*
X31216342Y-64597066D01*
X31216343Y-64597069D01*
X31282412Y-64746870D01*
X31282411Y-64746870D01*
X31303810Y-64776869D01*
X31303820Y-64776881D01*
X31375952Y-64862845D01*
X31577561Y-65103112D01*
X31603388Y-65129394D01*
X31739440Y-65220472D01*
X31755854Y-65226252D01*
X31812549Y-65267085D01*
X31837002Y-65322957D01*
X31839844Y-65340125D01*
X31839845Y-65340127D01*
X31839846Y-65340130D01*
X31839847Y-65340133D01*
X31905916Y-65489934D01*
X31905915Y-65489934D01*
X31927314Y-65519933D01*
X31927324Y-65519945D01*
X32200060Y-65844979D01*
X32201065Y-65846176D01*
X32226892Y-65872458D01*
X32362944Y-65963536D01*
X32517370Y-66017919D01*
X32680471Y-66032188D01*
X32841995Y-66005447D01*
X32991795Y-65939378D01*
X33021794Y-65917980D01*
X33130441Y-65826812D01*
X33140592Y-65819149D01*
X33140825Y-65818990D01*
X33203018Y-65777436D01*
X33204772Y-65775681D01*
X33211682Y-65771002D01*
X33239745Y-65762021D01*
X33266862Y-65750505D01*
X33272641Y-65751494D01*
X33278228Y-65749707D01*
X33306690Y-65757324D01*
X33335729Y-65762296D01*
X33341996Y-65766772D01*
X33345722Y-65767770D01*
X33350045Y-65772522D01*
X33368898Y-65785990D01*
X33379428Y-65796520D01*
X33379430Y-65796521D01*
X33379434Y-65796524D01*
X33516353Y-65875573D01*
X33516356Y-65875575D01*
X33516360Y-65875577D01*
X33669087Y-65916501D01*
X33669089Y-65916501D01*
X33834798Y-65916501D01*
X33834814Y-65916500D01*
X37375500Y-65916500D01*
X37442539Y-65936185D01*
X37488294Y-65988989D01*
X37499500Y-66040500D01*
X37499500Y-68684679D01*
X37499499Y-68684697D01*
X37499499Y-68850405D01*
X37530429Y-68965839D01*
X37529691Y-68996834D01*
X37531002Y-69027803D01*
X37528839Y-69032611D01*
X37528766Y-69035689D01*
X37517712Y-69060499D01*
X37515414Y-69064429D01*
X37510025Y-69072272D01*
X37444184Y-69186310D01*
X37444003Y-69186621D01*
X37443945Y-69186674D01*
X37440047Y-69192945D01*
X37370587Y-69296898D01*
X37370581Y-69296910D01*
X37348939Y-69349157D01*
X37341767Y-69363701D01*
X37272085Y-69484395D01*
X37265290Y-69498642D01*
X37256221Y-69517655D01*
X37248520Y-69549008D01*
X37217167Y-69676652D01*
X37218881Y-69840362D01*
X37218881Y-69840365D01*
X37218882Y-69840366D01*
X37261257Y-69998510D01*
X37341629Y-70141147D01*
X37454949Y-70259317D01*
X37485317Y-70280188D01*
X37485335Y-70280199D01*
X37796202Y-70459678D01*
X37854139Y-70493128D01*
X37887398Y-70508992D01*
X37887402Y-70508993D01*
X38046396Y-70548044D01*
X38063799Y-70547862D01*
X38131041Y-70566843D01*
X38173127Y-70610981D01*
X38181673Y-70626147D01*
X38294993Y-70744317D01*
X38324910Y-70764878D01*
X38325361Y-70765188D01*
X38325379Y-70765199D01*
X38636246Y-70944678D01*
X38694183Y-70978128D01*
X38716884Y-70988956D01*
X38727442Y-70993992D01*
X38727446Y-70993993D01*
X38886440Y-71033044D01*
X39050153Y-71031330D01*
X39208298Y-70988956D01*
X39350935Y-70908583D01*
X39469104Y-70795264D01*
X39489975Y-70764896D01*
X39489980Y-70764886D01*
X39489986Y-70764878D01*
X39646882Y-70493125D01*
X39727915Y-70352772D01*
X39743779Y-70319513D01*
X39782832Y-70160516D01*
X39781118Y-69996802D01*
X39738743Y-69838658D01*
X39658371Y-69696021D01*
X39554754Y-69587969D01*
X39522561Y-69525958D01*
X39521313Y-69518325D01*
X39520521Y-69512309D01*
X39516631Y-69497792D01*
X39513563Y-69486340D01*
X39479599Y-69359586D01*
X39439907Y-69290838D01*
X39400542Y-69222655D01*
X39288738Y-69110851D01*
X39288737Y-69110850D01*
X39284407Y-69106520D01*
X39284396Y-69106510D01*
X38736819Y-68558933D01*
X38703334Y-68497610D01*
X38700500Y-68471252D01*
X38700500Y-65795338D01*
X38720185Y-65728299D01*
X38736819Y-65707657D01*
X38745086Y-65699390D01*
X38860398Y-65584078D01*
X38883867Y-65556601D01*
X38961219Y-65415897D01*
X38977828Y-65351206D01*
X39013563Y-65291172D01*
X39067091Y-65261943D01*
X39131782Y-65245334D01*
X39131786Y-65245332D01*
X39272483Y-65167984D01*
X39272483Y-65167983D01*
X39272486Y-65167982D01*
X39299963Y-65144514D01*
X39581646Y-64862830D01*
X39605115Y-64835353D01*
X39682467Y-64694649D01*
X39722398Y-64539129D01*
X39722398Y-64462314D01*
X39742083Y-64395275D01*
X39758717Y-64374633D01*
X46285819Y-57847531D01*
X46347142Y-57814046D01*
X46416834Y-57819030D01*
X46472767Y-57860902D01*
X46497184Y-57926366D01*
X46497500Y-57935212D01*
X46497500Y-58475199D01*
X46477815Y-58542238D01*
X46461181Y-58562880D01*
X42034220Y-62989841D01*
X42034218Y-62989843D01*
X41964538Y-63059522D01*
X41894859Y-63129201D01*
X41785371Y-63293061D01*
X41785364Y-63293074D01*
X41709950Y-63475142D01*
X41709947Y-63475152D01*
X41671500Y-63668438D01*
X41671500Y-63668441D01*
X41671500Y-67700541D01*
X41671500Y-67700543D01*
X41671499Y-67700543D01*
X41709947Y-67893829D01*
X41709950Y-67893839D01*
X41785364Y-68075907D01*
X41785371Y-68075920D01*
X41894860Y-68239781D01*
X41894863Y-68239785D01*
X42038537Y-68383459D01*
X42038559Y-68383479D01*
X47289735Y-73634655D01*
X47289764Y-73634686D01*
X47432217Y-73777139D01*
X47595423Y-73886189D01*
X47596086Y-73886632D01*
X47701453Y-73930276D01*
X47778164Y-73962051D01*
X47874812Y-73981275D01*
X47923135Y-73990887D01*
X47971458Y-74000500D01*
X47971459Y-74000500D01*
X48837975Y-74000500D01*
X48837983Y-74000499D01*
X49272871Y-74000499D01*
X49272872Y-74000499D01*
X49332483Y-73994091D01*
X49467331Y-73943796D01*
X49479574Y-73934630D01*
X49545036Y-73910210D01*
X49601340Y-73919333D01*
X49703309Y-73961569D01*
X49745001Y-73969862D01*
X49745001Y-73209618D01*
X49795447Y-73260064D01*
X49869556Y-73302851D01*
X49952214Y-73325000D01*
X50037788Y-73325000D01*
X50120446Y-73302851D01*
X50194555Y-73260064D01*
X50245001Y-73209618D01*
X50245001Y-73969862D01*
X50286691Y-73961569D01*
X50286693Y-73961569D01*
X50468674Y-73886191D01*
X50468677Y-73886189D01*
X50560658Y-73824729D01*
X50627335Y-73803850D01*
X50694716Y-73822334D01*
X50698390Y-73824695D01*
X50791086Y-73886632D01*
X50791088Y-73886633D01*
X50791092Y-73886635D01*
X50929086Y-73943793D01*
X50973165Y-73962051D01*
X50973169Y-73962051D01*
X50973170Y-73962052D01*
X51166456Y-74000500D01*
X51166459Y-74000500D01*
X51363543Y-74000500D01*
X51517567Y-73969862D01*
X51556835Y-73962051D01*
X51738914Y-73886632D01*
X51902782Y-73777139D01*
X52042139Y-73637782D01*
X52151632Y-73473914D01*
X52227051Y-73291835D01*
X52255973Y-73146437D01*
X52265500Y-73098543D01*
X52265500Y-72901456D01*
X52227052Y-72708170D01*
X52227051Y-72708169D01*
X52227051Y-72708165D01*
X52213314Y-72675000D01*
X52151635Y-72526092D01*
X52151628Y-72526079D01*
X52042139Y-72362218D01*
X52042136Y-72362214D01*
X51902785Y-72222863D01*
X51902781Y-72222860D01*
X51738920Y-72113371D01*
X51738907Y-72113364D01*
X51556839Y-72037950D01*
X51556829Y-72037947D01*
X51363543Y-71999500D01*
X51363541Y-71999500D01*
X51166459Y-71999500D01*
X51166457Y-71999500D01*
X50973170Y-72037947D01*
X50973160Y-72037950D01*
X50791093Y-72113364D01*
X50791082Y-72113370D01*
X50698440Y-72175271D01*
X50631762Y-72196148D01*
X50564382Y-72177663D01*
X50560659Y-72175270D01*
X50468685Y-72113814D01*
X50468672Y-72113807D01*
X50286692Y-72038429D01*
X50286684Y-72038427D01*
X50245001Y-72030135D01*
X50245001Y-72790382D01*
X50194555Y-72739936D01*
X50120446Y-72697149D01*
X50037788Y-72675000D01*
X49952214Y-72675000D01*
X49869556Y-72697149D01*
X49795447Y-72739936D01*
X49745001Y-72790382D01*
X49745001Y-72030136D01*
X49745000Y-72030135D01*
X49703317Y-72038427D01*
X49703309Y-72038429D01*
X49601340Y-72080666D01*
X49531870Y-72088135D01*
X49479580Y-72065374D01*
X49467331Y-72056204D01*
X49467326Y-72056202D01*
X49332482Y-72005908D01*
X49332483Y-72005908D01*
X49272883Y-71999501D01*
X49272881Y-71999500D01*
X49272873Y-71999500D01*
X49272865Y-71999500D01*
X48535782Y-71999500D01*
X48468743Y-71979815D01*
X48448101Y-71963181D01*
X45048896Y-68563976D01*
X46289575Y-68563976D01*
X46592349Y-68822571D01*
X46592363Y-68822581D01*
X46942004Y-69076610D01*
X46942015Y-69076618D01*
X47310490Y-69302420D01*
X47310495Y-69302423D01*
X47695597Y-69498642D01*
X48094892Y-69664036D01*
X48505914Y-69797584D01*
X48926177Y-69898481D01*
X49353044Y-69966090D01*
X49783898Y-69999999D01*
X49783912Y-70000000D01*
X50216088Y-70000000D01*
X50216101Y-69999999D01*
X50646955Y-69966090D01*
X50646956Y-69966090D01*
X51073822Y-69898481D01*
X51494085Y-69797584D01*
X51905107Y-69664036D01*
X52304402Y-69498642D01*
X52689504Y-69302423D01*
X52689509Y-69302420D01*
X53057984Y-69076618D01*
X53057995Y-69076610D01*
X53407636Y-68822581D01*
X53407650Y-68822571D01*
X53710423Y-68563976D01*
X50000000Y-64853554D01*
X46289575Y-68563976D01*
X45048896Y-68563976D01*
X43708819Y-67223899D01*
X43675334Y-67162576D01*
X43672500Y-67136218D01*
X43672500Y-64232763D01*
X43692185Y-64165724D01*
X43708814Y-64145087D01*
X44364374Y-63489527D01*
X44425693Y-63456045D01*
X44495384Y-63461029D01*
X44551318Y-63502900D01*
X44575735Y-63568365D01*
X44574524Y-63596609D01*
X44533909Y-63853043D01*
X44533909Y-63853044D01*
X44500000Y-64283898D01*
X44500000Y-64716101D01*
X44533909Y-65146955D01*
X44533909Y-65146956D01*
X44601518Y-65573822D01*
X44702415Y-65994085D01*
X44835963Y-66405107D01*
X45001357Y-66804402D01*
X45197576Y-67189504D01*
X45197579Y-67189509D01*
X45423381Y-67557984D01*
X45423389Y-67557995D01*
X45677418Y-67907636D01*
X45677428Y-67907650D01*
X45936022Y-68210423D01*
X49646447Y-64499999D01*
X50353554Y-64499999D01*
X50353554Y-64500001D01*
X54063976Y-68210423D01*
X54322571Y-67907650D01*
X54322581Y-67907636D01*
X54576610Y-67557995D01*
X54576618Y-67557984D01*
X54802420Y-67189509D01*
X54802423Y-67189504D01*
X54998642Y-66804402D01*
X55164036Y-66405107D01*
X55297584Y-65994085D01*
X55398481Y-65573822D01*
X55466090Y-65146956D01*
X55466090Y-65146955D01*
X55499999Y-64716101D01*
X55500000Y-64716088D01*
X55500000Y-64283911D01*
X55499999Y-64283898D01*
X55466090Y-63853044D01*
X55466090Y-63853043D01*
X55398481Y-63426177D01*
X55297584Y-63005914D01*
X55164036Y-62594892D01*
X54998642Y-62195597D01*
X54802423Y-61810495D01*
X54802420Y-61810490D01*
X54576618Y-61442015D01*
X54576610Y-61442004D01*
X54322581Y-61092363D01*
X54322571Y-61092349D01*
X54063976Y-60789575D01*
X50353554Y-64499999D01*
X49646447Y-64499999D01*
X49785489Y-64360957D01*
X53710423Y-60436022D01*
X53407650Y-60177428D01*
X53407636Y-60177418D01*
X53057995Y-59923389D01*
X53057984Y-59923381D01*
X52689509Y-59697579D01*
X52689504Y-59697576D01*
X52304402Y-59501357D01*
X51905107Y-59335963D01*
X51494085Y-59202415D01*
X51073822Y-59101518D01*
X50646955Y-59033909D01*
X50216101Y-59000000D01*
X49783898Y-59000000D01*
X49353044Y-59033909D01*
X49353043Y-59033909D01*
X48926177Y-59101518D01*
X48651317Y-59167507D01*
X48581535Y-59164016D01*
X48524717Y-59123353D01*
X48498904Y-59058426D01*
X48498939Y-59045614D01*
X48498500Y-59045614D01*
X48498500Y-55376940D01*
X48518185Y-55309901D01*
X48534814Y-55289263D01*
X48619789Y-55204289D01*
X48707394Y-55073179D01*
X48767737Y-54927497D01*
X48798500Y-54772842D01*
X48798500Y-54615158D01*
X48798500Y-54615155D01*
X48798499Y-54615153D01*
X48767737Y-54460503D01*
X48759845Y-54441452D01*
X48752377Y-54371984D01*
X48759846Y-54346547D01*
X48767737Y-54327497D01*
X48798500Y-54172842D01*
X48798500Y-54015158D01*
X48798500Y-54015155D01*
X48798499Y-54015153D01*
X48795442Y-53999786D01*
X48767737Y-53860503D01*
X48724942Y-53757185D01*
X48707397Y-53714827D01*
X48707390Y-53714814D01*
X48619789Y-53583711D01*
X48619786Y-53583707D01*
X48508292Y-53472213D01*
X48508288Y-53472210D01*
X48377185Y-53384609D01*
X48377172Y-53384602D01*
X48231501Y-53324264D01*
X48231491Y-53324261D01*
X48179564Y-53313932D01*
X48117653Y-53281546D01*
X48116075Y-53279996D01*
X48008292Y-53172213D01*
X48008288Y-53172210D01*
X47877185Y-53084609D01*
X47877172Y-53084602D01*
X47731501Y-53024264D01*
X47731489Y-53024261D01*
X47576845Y-52993500D01*
X47576842Y-52993500D01*
X47419158Y-52993500D01*
X47419153Y-52993500D01*
X47280744Y-53021031D01*
X47211152Y-53014804D01*
X47155975Y-52971940D01*
X47132731Y-52906051D01*
X47148799Y-52838054D01*
X47168868Y-52811737D01*
X49912319Y-50068287D01*
X49973642Y-50034802D01*
X50043334Y-50039786D01*
G37*
%TD.AperFunction*%
%TA.AperFunction,Conductor*%
G36*
X50483459Y-25505319D02*
G01*
X51439889Y-25542897D01*
X51444681Y-25543179D01*
X52398977Y-25618283D01*
X52403740Y-25618752D01*
X53354385Y-25731268D01*
X53359113Y-25731922D01*
X54304537Y-25881663D01*
X54309291Y-25882512D01*
X55248086Y-26069250D01*
X55252803Y-26070284D01*
X56183589Y-26293747D01*
X56188240Y-26294961D01*
X56886689Y-26491944D01*
X57109478Y-26554777D01*
X57114137Y-26556190D01*
X57213971Y-26588628D01*
X58024475Y-26851976D01*
X58029024Y-26853553D01*
X58927083Y-27184865D01*
X58931590Y-27186629D01*
X59815913Y-27552928D01*
X59820329Y-27554859D01*
X60365301Y-27806095D01*
X60689597Y-27955598D01*
X60693978Y-27957723D01*
X60754733Y-27988679D01*
X61546821Y-28392268D01*
X61551104Y-28394558D01*
X62386242Y-28862258D01*
X62390443Y-28864720D01*
X63206538Y-29364824D01*
X63210639Y-29367449D01*
X64006500Y-29899226D01*
X64010494Y-29902010D01*
X64784842Y-30464607D01*
X64788725Y-30467546D01*
X65540405Y-31060122D01*
X65544169Y-31063211D01*
X65553775Y-31071415D01*
X66272020Y-31684855D01*
X66275630Y-31688063D01*
X66961980Y-32322518D01*
X66978508Y-32337796D01*
X66982018Y-32341171D01*
X67658828Y-33017981D01*
X67662203Y-33021491D01*
X68311923Y-33724354D01*
X68315147Y-33727982D01*
X68629517Y-34096062D01*
X68936788Y-34455830D01*
X68939877Y-34459594D01*
X69532453Y-35211274D01*
X69535392Y-35215157D01*
X70097989Y-35989505D01*
X70100773Y-35993499D01*
X70632550Y-36789360D01*
X70635175Y-36793461D01*
X71135279Y-37609556D01*
X71137741Y-37613757D01*
X71605441Y-38448895D01*
X71607737Y-38453189D01*
X72042276Y-39306021D01*
X72044401Y-39310402D01*
X72445130Y-40179648D01*
X72447081Y-40184109D01*
X72813364Y-41068396D01*
X72815139Y-41072930D01*
X73146437Y-41970950D01*
X73148032Y-41975551D01*
X73443809Y-42885862D01*
X73445222Y-42890521D01*
X73705030Y-43811729D01*
X73706260Y-43816441D01*
X73929710Y-44747177D01*
X73930753Y-44751933D01*
X74117483Y-45690688D01*
X74118339Y-45695481D01*
X74268073Y-46640863D01*
X74268737Y-46645657D01*
X74377768Y-47566859D01*
X74381240Y-47596192D01*
X74381717Y-47601038D01*
X74456818Y-48555284D01*
X74457104Y-48560145D01*
X74494681Y-49516540D01*
X74494777Y-49521408D01*
X74494777Y-50478591D01*
X74494681Y-50483459D01*
X74457104Y-51439854D01*
X74456818Y-51444715D01*
X74381717Y-52398961D01*
X74381241Y-52403791D01*
X74272298Y-53324264D01*
X74268741Y-53354313D01*
X74268073Y-53359136D01*
X74118339Y-54304518D01*
X74117483Y-54309311D01*
X73930753Y-55248066D01*
X73929710Y-55252822D01*
X73706260Y-56183558D01*
X73705030Y-56188270D01*
X73445222Y-57109478D01*
X73443809Y-57114137D01*
X73148032Y-58024448D01*
X73147700Y-58024932D01*
X73146437Y-58029049D01*
X72950679Y-58559674D01*
X72909007Y-58615756D01*
X72843631Y-58640407D01*
X72775305Y-58625799D01*
X72725724Y-58576570D01*
X72710343Y-58516755D01*
X72710343Y-57830806D01*
X72710344Y-57830793D01*
X72710344Y-57662690D01*
X72669419Y-57509960D01*
X72651919Y-57479650D01*
X72635445Y-57411750D01*
X72635571Y-57409536D01*
X72643354Y-57292370D01*
X72613237Y-57131441D01*
X72544045Y-56983057D01*
X72440125Y-56856544D01*
X72440124Y-56856543D01*
X72440123Y-56856542D01*
X72369279Y-56804692D01*
X72308007Y-56759848D01*
X72274478Y-56744568D01*
X72274480Y-56744568D01*
X72202089Y-56718220D01*
X72145825Y-56676793D01*
X72120890Y-56611524D01*
X72120500Y-56601698D01*
X72120500Y-51860783D01*
X72140185Y-51793744D01*
X72156819Y-51773102D01*
X72617604Y-51312316D01*
X72678925Y-51278833D01*
X72718925Y-51278166D01*
X72719008Y-51277112D01*
X72730829Y-51278042D01*
X72762060Y-51280500D01*
X72762068Y-51280500D01*
X73237932Y-51280500D01*
X73237940Y-51280500D01*
X73274675Y-51277609D01*
X73274677Y-51277608D01*
X73274679Y-51277608D01*
X73431892Y-51231933D01*
X73431893Y-51231932D01*
X73431897Y-51231931D01*
X73572820Y-51148590D01*
X73688590Y-51032820D01*
X73771931Y-50891897D01*
X73771932Y-50891893D01*
X73771933Y-50891892D01*
X73817608Y-50734679D01*
X73817609Y-50734673D01*
X73820499Y-50697947D01*
X73820500Y-50697940D01*
X73820500Y-50272060D01*
X73817609Y-50235325D01*
X73817608Y-50235320D01*
X73771933Y-50078107D01*
X73771932Y-50078106D01*
X73771931Y-50078105D01*
X73771931Y-50078103D01*
X73763070Y-50063120D01*
X73745887Y-49995399D01*
X73763070Y-49936879D01*
X73771931Y-49921897D01*
X73771932Y-49921892D01*
X73771933Y-49921892D01*
X73817608Y-49764679D01*
X73817609Y-49764673D01*
X73820499Y-49727947D01*
X73820500Y-49727940D01*
X73820500Y-49302060D01*
X73817609Y-49265325D01*
X73816390Y-49261128D01*
X73771933Y-49108107D01*
X73771931Y-49108104D01*
X73771931Y-49108103D01*
X73688590Y-48967180D01*
X73688588Y-48967178D01*
X73688585Y-48967174D01*
X73572825Y-48851414D01*
X73572817Y-48851408D01*
X73440502Y-48773158D01*
X73431897Y-48768069D01*
X73431896Y-48768068D01*
X73431895Y-48768068D01*
X73431892Y-48768066D01*
X73274679Y-48722391D01*
X73274673Y-48722390D01*
X73237947Y-48719500D01*
X73237940Y-48719500D01*
X72762060Y-48719500D01*
X72762052Y-48719500D01*
X72725326Y-48722390D01*
X72725320Y-48722391D01*
X72568107Y-48768066D01*
X72568104Y-48768068D01*
X72427182Y-48851408D01*
X72427174Y-48851414D01*
X72311414Y-48967174D01*
X72311408Y-48967182D01*
X72228068Y-49108104D01*
X72228066Y-49108107D01*
X72182391Y-49265320D01*
X72182390Y-49265326D01*
X72179500Y-49302052D01*
X72179500Y-49434903D01*
X72159815Y-49501942D01*
X72143181Y-49522584D01*
X71232181Y-50433584D01*
X71170858Y-50467069D01*
X71101166Y-50462085D01*
X71056819Y-50433584D01*
X70261590Y-49638355D01*
X70261588Y-49638352D01*
X70142717Y-49519481D01*
X70142716Y-49519480D01*
X70051178Y-49466631D01*
X70005785Y-49440423D01*
X69853057Y-49399499D01*
X69694943Y-49399499D01*
X69687347Y-49399499D01*
X69687331Y-49399500D01*
X68798617Y-49399500D01*
X68731578Y-49379815D01*
X68710940Y-49363185D01*
X68656620Y-49308865D01*
X68645125Y-49302067D01*
X68518415Y-49227131D01*
X68518410Y-49227129D01*
X68364230Y-49182335D01*
X68364224Y-49182334D01*
X68328203Y-49179500D01*
X67929852Y-49179500D01*
X67929830Y-49179501D01*
X67893816Y-49182335D01*
X67739633Y-49227129D01*
X67739630Y-49227130D01*
X67682143Y-49261128D01*
X67614419Y-49278310D01*
X67555903Y-49261128D01*
X67498415Y-49227130D01*
X67498412Y-49227129D01*
X67344232Y-49182335D01*
X67344226Y-49182334D01*
X67308212Y-49179500D01*
X67308205Y-49179500D01*
X67189121Y-49179500D01*
X67159680Y-49170855D01*
X67129694Y-49164332D01*
X67124678Y-49160577D01*
X67122082Y-49159815D01*
X67101440Y-49143181D01*
X67018614Y-49060355D01*
X67018612Y-49060352D01*
X66899741Y-48941481D01*
X66899740Y-48941480D01*
X66812928Y-48891360D01*
X66812928Y-48891359D01*
X66812924Y-48891358D01*
X66762809Y-48862423D01*
X66610081Y-48821499D01*
X66451967Y-48821499D01*
X66444371Y-48821499D01*
X66444355Y-48821500D01*
X53984839Y-48821500D01*
X53917800Y-48801815D01*
X53897158Y-48785181D01*
X52480597Y-47368620D01*
X52472062Y-47353015D01*
X52459530Y-47340519D01*
X52450854Y-47314241D01*
X52447149Y-47307468D01*
X52446103Y-47302692D01*
X52426580Y-47160651D01*
X52403209Y-47106847D01*
X52400627Y-47095054D01*
X52402259Y-47071762D01*
X52399368Y-47048595D01*
X52404657Y-47037561D01*
X52405513Y-47025356D01*
X52419478Y-47006645D01*
X52429572Y-46985591D01*
X52434056Y-46980863D01*
X54100851Y-45314069D01*
X54235185Y-45179735D01*
X54235188Y-45179733D01*
X54252624Y-45162297D01*
X54252625Y-45162297D01*
X54364429Y-45050493D01*
X54443486Y-44913561D01*
X54454938Y-44870821D01*
X54484410Y-44760835D01*
X54484410Y-44602721D01*
X54484410Y-44595126D01*
X54484409Y-44595108D01*
X54484409Y-42466188D01*
X54504094Y-42399149D01*
X54520728Y-42378507D01*
X57480578Y-39418657D01*
X60598603Y-36300631D01*
X60659924Y-36267148D01*
X60729616Y-36272132D01*
X60768702Y-36296176D01*
X60768897Y-36295949D01*
X60770349Y-36297189D01*
X60770438Y-36297244D01*
X60770741Y-36297524D01*
X60770747Y-36297529D01*
X60770748Y-36297530D01*
X60798225Y-36320999D01*
X60938928Y-36398351D01*
X61094449Y-36438282D01*
X61094453Y-36438282D01*
X61255010Y-36438282D01*
X61255014Y-36438282D01*
X61410534Y-36398351D01*
X61410538Y-36398349D01*
X61551235Y-36321001D01*
X61551235Y-36321000D01*
X61551238Y-36320999D01*
X61578715Y-36297531D01*
X61860398Y-36015847D01*
X61883867Y-35988370D01*
X61961219Y-35847666D01*
X61977828Y-35782975D01*
X62013563Y-35722941D01*
X62067091Y-35693712D01*
X62131782Y-35677103D01*
X62225894Y-35625365D01*
X62272483Y-35599753D01*
X62272483Y-35599752D01*
X62272486Y-35599751D01*
X62299963Y-35576283D01*
X62384168Y-35492077D01*
X62445489Y-35458594D01*
X62471848Y-35455760D01*
X66529502Y-35455760D01*
X66596541Y-35475445D01*
X66642296Y-35528249D01*
X66653502Y-35579760D01*
X66653502Y-38344064D01*
X66653501Y-38344082D01*
X66653501Y-38509788D01*
X66653500Y-38509788D01*
X66694425Y-38662519D01*
X66723360Y-38712634D01*
X66723361Y-38712638D01*
X66723362Y-38712638D01*
X66761933Y-38779447D01*
X66773481Y-38799448D01*
X66773483Y-38799451D01*
X66892351Y-38918319D01*
X66892357Y-38918324D01*
X70932033Y-42958000D01*
X70932035Y-42958003D01*
X71043839Y-43069807D01*
X71079922Y-43090639D01*
X71089627Y-43099386D01*
X71094546Y-43107379D01*
X71106671Y-43118258D01*
X71192598Y-43235661D01*
X71275026Y-43303368D01*
X71319113Y-43339582D01*
X71398303Y-43376508D01*
X71467495Y-43408774D01*
X71628424Y-43438890D01*
X71737157Y-43431668D01*
X71791778Y-43428041D01*
X71791784Y-43428040D01*
X71791787Y-43428040D01*
X71827296Y-43418193D01*
X72274476Y-43255432D01*
X72308007Y-43240151D01*
X72440125Y-43143455D01*
X72544045Y-43016942D01*
X72613237Y-42868558D01*
X72643354Y-42707629D01*
X72635951Y-42596169D01*
X72632505Y-42544272D01*
X72632505Y-42544271D01*
X72632504Y-42544266D01*
X72622657Y-42508758D01*
X72476997Y-42108561D01*
X72461716Y-42075030D01*
X72365020Y-41942913D01*
X72351571Y-41931866D01*
X72312262Y-41874105D01*
X72308394Y-41813235D01*
X72311596Y-41796127D01*
X72305400Y-41702841D01*
X72300747Y-41632770D01*
X72300747Y-41632769D01*
X72300746Y-41632764D01*
X72290899Y-41597256D01*
X72145239Y-41197059D01*
X72129958Y-41163528D01*
X72033262Y-41031411D01*
X71998165Y-41002582D01*
X71906746Y-40927489D01*
X71758363Y-40858297D01*
X71597439Y-40828182D01*
X71597436Y-40828182D01*
X71512194Y-40833842D01*
X71443998Y-40818643D01*
X71416298Y-40797796D01*
X68567593Y-37949091D01*
X68534108Y-37887768D01*
X68531274Y-37861410D01*
X68531274Y-36179809D01*
X68550959Y-36112770D01*
X68575569Y-36084819D01*
X68624384Y-36043859D01*
X68650667Y-36018032D01*
X68741744Y-35881980D01*
X68796127Y-35727554D01*
X68810396Y-35564453D01*
X68783656Y-35402930D01*
X68717587Y-35253129D01*
X68717586Y-35253128D01*
X68717587Y-35253128D01*
X68696188Y-35223129D01*
X68696178Y-35223117D01*
X68693255Y-35219634D01*
X68533158Y-35028838D01*
X68422439Y-34896888D01*
X68422434Y-34896883D01*
X68396612Y-34870606D01*
X68396604Y-34870600D01*
X68260564Y-34779530D01*
X68260561Y-34779528D01*
X68260559Y-34779527D01*
X68260555Y-34779525D01*
X68260552Y-34779524D01*
X68244138Y-34773743D01*
X68187444Y-34732907D01*
X68162994Y-34677036D01*
X68160152Y-34659866D01*
X68094083Y-34510065D01*
X68094082Y-34510064D01*
X68094083Y-34510064D01*
X68072684Y-34480065D01*
X68072674Y-34480053D01*
X68053902Y-34457682D01*
X67878620Y-34248789D01*
X67798935Y-34153824D01*
X67798930Y-34153819D01*
X67773108Y-34127542D01*
X67773100Y-34127536D01*
X67637060Y-34036466D01*
X67637051Y-34036461D01*
X67482630Y-33982080D01*
X67482631Y-33982080D01*
X67319532Y-33967811D01*
X67319525Y-33967811D01*
X67158008Y-33994551D01*
X67158005Y-33994551D01*
X67158004Y-33994552D01*
X67158003Y-33994552D01*
X67158001Y-33994553D01*
X67008204Y-34060621D01*
X67008200Y-34060623D01*
X66978204Y-34082019D01*
X66978192Y-34082029D01*
X66806915Y-34225749D01*
X66742907Y-34253762D01*
X66727209Y-34254760D01*
X62401136Y-34254760D01*
X62334097Y-34235075D01*
X62313455Y-34218441D01*
X62229252Y-34134238D01*
X62201780Y-34110773D01*
X62201777Y-34110771D01*
X62201775Y-34110769D01*
X62110560Y-34060623D01*
X62061075Y-34033418D01*
X62061065Y-34033415D01*
X61905554Y-33993486D01*
X61905551Y-33993486D01*
X61744986Y-33993486D01*
X61744982Y-33993486D01*
X61589463Y-34033417D01*
X61448764Y-34110766D01*
X61448764Y-34110767D01*
X61421286Y-34134235D01*
X61421269Y-34134251D01*
X61139618Y-34415903D01*
X61139607Y-34415915D01*
X61116133Y-34443397D01*
X61038782Y-34584098D01*
X61038780Y-34584105D01*
X61022171Y-34648790D01*
X60986432Y-34708828D01*
X60932906Y-34738055D01*
X60868221Y-34754664D01*
X60868220Y-34754664D01*
X60727512Y-34832017D01*
X60700038Y-34855483D01*
X60700034Y-34855487D01*
X60658639Y-34896883D01*
X60615832Y-34939689D01*
X60554512Y-34973173D01*
X60528153Y-34976007D01*
X60394435Y-34976007D01*
X60318071Y-34996469D01*
X60241706Y-35016931D01*
X60241701Y-35016934D01*
X60104782Y-35095983D01*
X60104774Y-35095989D01*
X54296090Y-40904674D01*
X54234767Y-40938159D01*
X54165075Y-40933175D01*
X54109142Y-40891303D01*
X54084725Y-40825839D01*
X54084409Y-40816993D01*
X54084409Y-36337106D01*
X54104094Y-36270067D01*
X54120728Y-36249425D01*
X54227163Y-36142990D01*
X54354306Y-36015847D01*
X54377775Y-35988370D01*
X54455127Y-35847666D01*
X54471736Y-35782975D01*
X54507471Y-35722941D01*
X54560999Y-35693712D01*
X54625690Y-35677103D01*
X54719802Y-35625365D01*
X54766391Y-35599753D01*
X54766391Y-35599752D01*
X54766394Y-35599751D01*
X54793871Y-35576283D01*
X54878076Y-35492077D01*
X54939397Y-35458594D01*
X54965756Y-35455760D01*
X56028071Y-35455760D01*
X56028087Y-35455761D01*
X56035683Y-35455761D01*
X56193794Y-35455761D01*
X56193797Y-35455761D01*
X56346525Y-35414837D01*
X56413688Y-35376060D01*
X56483456Y-35335780D01*
X56595260Y-35223976D01*
X56595260Y-35223974D01*
X56605464Y-35213771D01*
X56605467Y-35213766D01*
X60664416Y-31154819D01*
X60725739Y-31121334D01*
X60752097Y-31118500D01*
X61622058Y-31118500D01*
X61684058Y-31135113D01*
X61694183Y-31140959D01*
X61716884Y-31151787D01*
X61727442Y-31156823D01*
X61727446Y-31156824D01*
X61886440Y-31195875D01*
X62050153Y-31194161D01*
X62208298Y-31151787D01*
X62350935Y-31071414D01*
X62469104Y-30958095D01*
X62489975Y-30927727D01*
X62489980Y-30927717D01*
X62489986Y-30927709D01*
X62601352Y-30734816D01*
X62727915Y-30515603D01*
X62743779Y-30482344D01*
X62782832Y-30323347D01*
X62781118Y-30159633D01*
X62738743Y-30001489D01*
X62658371Y-29858852D01*
X62545051Y-29740682D01*
X62514683Y-29719811D01*
X62514682Y-29719810D01*
X62514664Y-29719799D01*
X62145865Y-29506873D01*
X62112601Y-29491006D01*
X62112597Y-29491005D01*
X61953601Y-29451954D01*
X61936196Y-29452136D01*
X61868955Y-29433152D01*
X61826872Y-29389016D01*
X61818328Y-29373854D01*
X61818327Y-29373852D01*
X61705007Y-29255682D01*
X61675064Y-29235103D01*
X61674638Y-29234810D01*
X61674620Y-29234799D01*
X61305821Y-29021873D01*
X61272557Y-29006006D01*
X61272553Y-29006005D01*
X61113559Y-28966954D01*
X60949850Y-28968668D01*
X60791702Y-29011042D01*
X60649067Y-29091414D01*
X60649064Y-29091416D01*
X60530898Y-29204732D01*
X60510024Y-29235103D01*
X60510013Y-29235121D01*
X60444332Y-29348885D01*
X60442297Y-29352408D01*
X60370584Y-29459736D01*
X60345836Y-29519481D01*
X60341769Y-29526526D01*
X60341767Y-29526532D01*
X60272085Y-29647226D01*
X60256223Y-29680482D01*
X60256221Y-29680487D01*
X60217167Y-29839483D01*
X60217665Y-29887001D01*
X60198683Y-29954243D01*
X60155672Y-29995686D01*
X60083287Y-30037477D01*
X60083282Y-30037481D01*
X59971478Y-30149286D01*
X55902324Y-34218441D01*
X55841001Y-34251926D01*
X55814643Y-34254760D01*
X54895044Y-34254760D01*
X54828005Y-34235075D01*
X54807363Y-34218441D01*
X54723160Y-34134238D01*
X54695688Y-34110773D01*
X54695685Y-34110771D01*
X54695683Y-34110769D01*
X54604468Y-34060623D01*
X54554983Y-34033418D01*
X54554973Y-34033415D01*
X54399462Y-33993486D01*
X54399459Y-33993486D01*
X54393355Y-33993486D01*
X54363914Y-33984841D01*
X54333928Y-33978318D01*
X54328912Y-33974563D01*
X54326316Y-33973801D01*
X54305674Y-33957167D01*
X54153095Y-33804588D01*
X54119610Y-33743265D01*
X54116776Y-33716907D01*
X54116776Y-28352020D01*
X54136461Y-28284981D01*
X54189265Y-28239226D01*
X54258423Y-28229282D01*
X54262306Y-28229903D01*
X54538767Y-28278651D01*
X54575446Y-28282183D01*
X54738211Y-28264501D01*
X54891465Y-28206897D01*
X55025579Y-28112989D01*
X55132125Y-27988679D01*
X55204411Y-27841777D01*
X55213637Y-27806102D01*
X55235814Y-27680323D01*
X55241277Y-27667137D01*
X55272040Y-27512482D01*
X55272040Y-27474879D01*
X55296272Y-27337452D01*
X55299804Y-27300773D01*
X55282122Y-27138008D01*
X55224518Y-26984754D01*
X55130610Y-26850639D01*
X55006300Y-26744093D01*
X55006298Y-26744092D01*
X55006296Y-26744090D01*
X54859402Y-26671810D01*
X54859398Y-26671808D01*
X54823723Y-26662582D01*
X54823719Y-26662581D01*
X54823718Y-26662581D01*
X54404308Y-26588628D01*
X54404309Y-26588628D01*
X54367638Y-26585097D01*
X54367632Y-26585097D01*
X54204865Y-26602779D01*
X54204862Y-26602780D01*
X54188570Y-26608904D01*
X54118892Y-26614063D01*
X54064251Y-26586981D01*
X54051037Y-26575655D01*
X53904134Y-26503370D01*
X53868459Y-26494144D01*
X53868455Y-26494143D01*
X53868454Y-26494143D01*
X53449044Y-26420190D01*
X53449045Y-26420190D01*
X53412374Y-26416659D01*
X53412368Y-26416659D01*
X53249605Y-26434341D01*
X53096351Y-26491944D01*
X52962236Y-26585853D01*
X52855693Y-26710159D01*
X52783404Y-26857067D01*
X52774178Y-26892744D01*
X52691543Y-27361393D01*
X52688012Y-27398064D01*
X52688012Y-27398069D01*
X52705694Y-27560834D01*
X52763298Y-27714088D01*
X52857206Y-27848203D01*
X52872470Y-27861285D01*
X52910562Y-27919856D01*
X52915776Y-27955436D01*
X52915776Y-33930334D01*
X52915775Y-33930352D01*
X52915775Y-34096058D01*
X52915774Y-34096058D01*
X52931252Y-34153824D01*
X52956699Y-34248789D01*
X52960147Y-34254760D01*
X52977475Y-34284773D01*
X52977477Y-34284776D01*
X53035755Y-34385718D01*
X53035757Y-34385721D01*
X53154625Y-34504589D01*
X53154631Y-34504594D01*
X53272817Y-34622780D01*
X53306302Y-34684103D01*
X53301318Y-34753795D01*
X53259446Y-34809728D01*
X53244876Y-34819122D01*
X53221422Y-34832016D01*
X53193946Y-34855483D01*
X53193929Y-34855499D01*
X52912278Y-35137151D01*
X52912267Y-35137163D01*
X52888795Y-35164643D01*
X52811440Y-35305349D01*
X52771510Y-35460866D01*
X52771510Y-35621438D01*
X52811439Y-35776949D01*
X52811442Y-35776959D01*
X52868071Y-35879966D01*
X52883409Y-35939703D01*
X52883409Y-40776152D01*
X52863724Y-40843191D01*
X52810920Y-40888946D01*
X52783601Y-40897769D01*
X52650417Y-40924261D01*
X52650407Y-40924264D01*
X52504736Y-40984602D01*
X52504723Y-40984609D01*
X52373620Y-41072210D01*
X52373616Y-41072213D01*
X52262122Y-41183707D01*
X52262119Y-41183711D01*
X52174518Y-41314814D01*
X52174511Y-41314827D01*
X52114173Y-41460498D01*
X52114170Y-41460510D01*
X52083409Y-41615153D01*
X52083409Y-41772846D01*
X52114170Y-41927489D01*
X52114173Y-41927501D01*
X52174511Y-42073172D01*
X52174518Y-42073185D01*
X52262511Y-42204874D01*
X52283389Y-42271551D01*
X52283409Y-42273765D01*
X52283409Y-43396857D01*
X52263724Y-43463896D01*
X52210920Y-43509651D01*
X52183601Y-43518474D01*
X52034401Y-43548152D01*
X52034391Y-43548155D01*
X51888720Y-43608493D01*
X51888707Y-43608500D01*
X51757604Y-43696101D01*
X51757600Y-43696104D01*
X51646106Y-43807598D01*
X51646103Y-43807602D01*
X51558502Y-43938705D01*
X51558495Y-43938718D01*
X51498157Y-44084389D01*
X51498154Y-44084401D01*
X51467393Y-44239044D01*
X51467393Y-44396737D01*
X51480222Y-44461233D01*
X51473995Y-44530825D01*
X51446286Y-44573105D01*
X50330644Y-45688750D01*
X50162181Y-45857213D01*
X50100858Y-45890698D01*
X50031166Y-45885714D01*
X49975233Y-45843842D01*
X49950816Y-45778378D01*
X49950500Y-45769532D01*
X49950500Y-38648852D01*
X49950501Y-38648839D01*
X49950501Y-38480736D01*
X49943120Y-38453189D01*
X49909577Y-38328008D01*
X49907298Y-38324060D01*
X49830524Y-38191082D01*
X49830518Y-38191074D01*
X47264809Y-35625365D01*
X47231324Y-35564042D01*
X47228490Y-35537684D01*
X47228490Y-35460874D01*
X47228489Y-35460866D01*
X47206714Y-35376058D01*
X47188559Y-35305350D01*
X47188558Y-35305349D01*
X47188558Y-35305347D01*
X47111208Y-35164648D01*
X47111207Y-35164646D01*
X47087739Y-35137169D01*
X47087733Y-35137163D01*
X47087724Y-35137153D01*
X46806072Y-34855502D01*
X46806060Y-34855491D01*
X46806059Y-34855490D01*
X46806055Y-34855486D01*
X46778578Y-34832017D01*
X46755124Y-34819123D01*
X46705861Y-34769578D01*
X46691204Y-34701263D01*
X46715807Y-34635869D01*
X46727169Y-34622792D01*
X46964243Y-34385721D01*
X47043300Y-34248789D01*
X47084224Y-34096062D01*
X47084224Y-33937947D01*
X47084224Y-33930352D01*
X47084223Y-33930334D01*
X47084223Y-27955436D01*
X47103908Y-27888397D01*
X47127527Y-27861287D01*
X47142793Y-27848203D01*
X47236701Y-27714088D01*
X47294305Y-27560834D01*
X47311987Y-27398069D01*
X47308455Y-27361390D01*
X47225820Y-26892740D01*
X47216594Y-26857065D01*
X47144308Y-26710163D01*
X47103526Y-26662582D01*
X47037762Y-26585853D01*
X46903647Y-26491944D01*
X46807997Y-26455992D01*
X46750394Y-26434341D01*
X46587629Y-26416659D01*
X46587627Y-26416659D01*
X46550953Y-26420190D01*
X46131544Y-26494143D01*
X46095864Y-26503370D01*
X45948965Y-26575653D01*
X45948963Y-26575655D01*
X45935749Y-26586981D01*
X45935745Y-26586984D01*
X45872033Y-26615664D01*
X45811426Y-26608904D01*
X45795133Y-26602780D01*
X45795132Y-26602779D01*
X45795130Y-26602779D01*
X45632365Y-26585097D01*
X45632363Y-26585097D01*
X45595689Y-26588628D01*
X45176280Y-26662581D01*
X45140600Y-26671808D01*
X45140596Y-26671810D01*
X44993703Y-26744090D01*
X44993702Y-26744090D01*
X44869389Y-26850638D01*
X44775481Y-26984754D01*
X44717877Y-27138008D01*
X44700195Y-27300771D01*
X44700195Y-27300777D01*
X44703726Y-27337448D01*
X44723003Y-27446776D01*
X44727959Y-27474879D01*
X44727959Y-27512482D01*
X44758722Y-27667137D01*
X44764182Y-27680318D01*
X44766541Y-27693697D01*
X44766542Y-27693699D01*
X44786361Y-27806099D01*
X44786362Y-27806102D01*
X44795588Y-27841777D01*
X44867874Y-27988679D01*
X44867875Y-27988680D01*
X44867876Y-27988682D01*
X44974419Y-28112988D01*
X44974420Y-28112989D01*
X45108534Y-28206897D01*
X45261788Y-28264501D01*
X45424553Y-28282183D01*
X45461232Y-28278651D01*
X45737691Y-28229904D01*
X45807130Y-28237648D01*
X45861359Y-28281705D01*
X45883161Y-28348086D01*
X45883223Y-28352020D01*
X45883223Y-33716907D01*
X45874578Y-33746347D01*
X45868055Y-33776334D01*
X45864300Y-33781349D01*
X45863538Y-33783946D01*
X45846904Y-33804588D01*
X45694325Y-33957167D01*
X45633002Y-33990652D01*
X45606644Y-33993486D01*
X45600537Y-33993486D01*
X45445026Y-34033415D01*
X45445016Y-34033418D01*
X45304319Y-34110766D01*
X45304319Y-34110767D01*
X45276841Y-34134235D01*
X45276837Y-34134239D01*
X45234737Y-34176340D01*
X45192634Y-34218442D01*
X45131314Y-34251926D01*
X45104955Y-34254760D01*
X44261357Y-34254760D01*
X44194318Y-34235075D01*
X44173676Y-34218441D01*
X40203590Y-30248355D01*
X40203588Y-30248352D01*
X40084717Y-30129481D01*
X40084716Y-30129480D01*
X39997904Y-30079360D01*
X39947785Y-30050423D01*
X39867023Y-30028782D01*
X39860315Y-30026118D01*
X39838252Y-30008863D01*
X39814335Y-29994285D01*
X39811102Y-29987631D01*
X39805277Y-29983075D01*
X39796045Y-29956632D01*
X39783807Y-29931438D01*
X39782813Y-29918731D01*
X39782247Y-29917110D01*
X39782578Y-29915728D01*
X39782097Y-29909577D01*
X39782206Y-29899226D01*
X39782831Y-29839483D01*
X39743778Y-29680486D01*
X39727914Y-29647227D01*
X39678103Y-29560953D01*
X39658230Y-29526531D01*
X39654166Y-29519493D01*
X39629415Y-29459736D01*
X39557696Y-29352402D01*
X39489974Y-29235103D01*
X39469103Y-29204735D01*
X39350934Y-29091416D01*
X39350931Y-29091414D01*
X39208296Y-29011042D01*
X39050148Y-28968668D01*
X39050149Y-28968668D01*
X38886439Y-28966954D01*
X38727445Y-29006005D01*
X38727441Y-29006006D01*
X38694177Y-29021873D01*
X38325378Y-29234799D01*
X38325360Y-29234810D01*
X38294989Y-29255684D01*
X38181670Y-29373853D01*
X38173123Y-29389021D01*
X38123061Y-29437761D01*
X38063802Y-29452136D01*
X38046396Y-29451954D01*
X37887401Y-29491005D01*
X37887397Y-29491006D01*
X37854133Y-29506873D01*
X37485334Y-29719799D01*
X37485316Y-29719810D01*
X37454945Y-29740684D01*
X37341628Y-29858851D01*
X37261255Y-30001490D01*
X37218880Y-30159636D01*
X37217166Y-30323346D01*
X37240818Y-30419637D01*
X37256220Y-30482344D01*
X37272084Y-30515603D01*
X37272086Y-30515607D01*
X37510012Y-30927709D01*
X37510023Y-30927726D01*
X37510024Y-30927727D01*
X37530895Y-30958095D01*
X37649064Y-31071414D01*
X37791701Y-31151787D01*
X37949846Y-31194161D01*
X37986226Y-31194541D01*
X38113552Y-31195875D01*
X38113552Y-31195874D01*
X38113559Y-31195875D01*
X38144654Y-31188237D01*
X38206326Y-31188881D01*
X38287004Y-31210500D01*
X38287005Y-31210500D01*
X39415903Y-31210500D01*
X39482942Y-31230185D01*
X39503584Y-31246819D01*
X43476399Y-35219634D01*
X43476409Y-35219645D01*
X43480739Y-35223975D01*
X43480740Y-35223976D01*
X43592544Y-35335780D01*
X43662312Y-35376060D01*
X43662313Y-35376061D01*
X43703415Y-35399791D01*
X43729475Y-35414837D01*
X43882202Y-35455760D01*
X43882203Y-35455760D01*
X45034245Y-35455760D01*
X45101284Y-35475445D01*
X45121926Y-35492079D01*
X45206129Y-35576282D01*
X45233606Y-35599751D01*
X45374310Y-35677103D01*
X45438998Y-35693712D01*
X45499034Y-35729448D01*
X45528263Y-35782976D01*
X45544873Y-35847666D01*
X45586758Y-35923855D01*
X45622225Y-35988371D01*
X45645691Y-36015845D01*
X45645707Y-36015862D01*
X45927359Y-36297513D01*
X45927370Y-36297523D01*
X45927377Y-36297530D01*
X45954854Y-36320999D01*
X46054855Y-36375974D01*
X46095557Y-36398351D01*
X46251074Y-36438281D01*
X46251078Y-36438282D01*
X46327893Y-36438282D01*
X46394932Y-36457967D01*
X46415574Y-36474601D01*
X48713181Y-38772208D01*
X48746666Y-38833531D01*
X48749500Y-38859889D01*
X48749500Y-45035217D01*
X48729815Y-45102256D01*
X48677011Y-45148011D01*
X48607853Y-45157955D01*
X48544297Y-45128930D01*
X48537819Y-45122898D01*
X48193857Y-44778936D01*
X48160372Y-44717613D01*
X48157538Y-44691255D01*
X48157538Y-41002582D01*
X48157539Y-41002569D01*
X48157539Y-40834466D01*
X48155855Y-40828182D01*
X48116615Y-40681738D01*
X48107278Y-40665566D01*
X48037562Y-40544812D01*
X48037556Y-40544804D01*
X42707614Y-35214863D01*
X42707612Y-35214860D01*
X42588741Y-35095989D01*
X42588733Y-35095983D01*
X42472433Y-35028838D01*
X42472433Y-35028837D01*
X42472428Y-35028836D01*
X42465233Y-35024681D01*
X42451810Y-35016931D01*
X42413627Y-35006700D01*
X42299081Y-34976007D01*
X42140967Y-34976007D01*
X42133371Y-34976007D01*
X42133355Y-34976008D01*
X39471847Y-34976008D01*
X39404808Y-34956323D01*
X39384166Y-34939689D01*
X39299967Y-34855490D01*
X39299963Y-34855486D01*
X39272486Y-34832017D01*
X39177012Y-34779530D01*
X39131785Y-34754666D01*
X39131782Y-34754665D01*
X39067092Y-34738055D01*
X39007055Y-34702316D01*
X38977828Y-34648790D01*
X38961219Y-34584102D01*
X38961217Y-34584098D01*
X38961217Y-34584097D01*
X38883868Y-34443400D01*
X38883867Y-34443398D01*
X38860399Y-34415921D01*
X38860393Y-34415915D01*
X38860384Y-34415905D01*
X38578732Y-34134254D01*
X38578720Y-34134243D01*
X38578715Y-34134238D01*
X38551238Y-34110769D01*
X38484570Y-34074118D01*
X38410534Y-34033416D01*
X38255017Y-33993486D01*
X38255014Y-33993486D01*
X38094449Y-33993486D01*
X38094445Y-33993486D01*
X37938934Y-34033415D01*
X37938924Y-34033418D01*
X37798227Y-34110766D01*
X37798227Y-34110767D01*
X37770749Y-34134235D01*
X37770745Y-34134239D01*
X37728645Y-34176340D01*
X37686542Y-34218442D01*
X37625222Y-34251926D01*
X37598863Y-34254760D01*
X33272790Y-34254760D01*
X33205751Y-34235075D01*
X33193084Y-34225749D01*
X33021806Y-34082029D01*
X33021794Y-34082019D01*
X32991798Y-34060623D01*
X32991797Y-34060622D01*
X32991795Y-34060621D01*
X32841995Y-33994552D01*
X32841991Y-33994551D01*
X32841990Y-33994551D01*
X32786721Y-33985401D01*
X32680471Y-33967811D01*
X32680469Y-33967811D01*
X32517368Y-33982080D01*
X32362947Y-34036461D01*
X32362938Y-34036466D01*
X32226898Y-34127536D01*
X32226890Y-34127542D01*
X32201068Y-34153819D01*
X32201063Y-34153824D01*
X31927324Y-34480053D01*
X31927314Y-34480065D01*
X31905916Y-34510064D01*
X31839845Y-34659871D01*
X31839845Y-34659872D01*
X31837002Y-34677042D01*
X31806630Y-34739965D01*
X31755861Y-34773743D01*
X31739439Y-34779526D01*
X31739438Y-34779527D01*
X31603394Y-34870600D01*
X31603386Y-34870606D01*
X31577564Y-34896883D01*
X31577559Y-34896888D01*
X31303820Y-35223117D01*
X31303810Y-35223129D01*
X31282412Y-35253128D01*
X31259380Y-35305350D01*
X31228194Y-35376061D01*
X31216343Y-35402931D01*
X31216341Y-35402935D01*
X31189603Y-35564449D01*
X31189603Y-35564457D01*
X31203872Y-35727555D01*
X31258254Y-35881978D01*
X31349329Y-36018029D01*
X31349330Y-36018031D01*
X31362839Y-36031304D01*
X31375615Y-36043859D01*
X31424430Y-36084819D01*
X31463133Y-36142990D01*
X31468725Y-36179809D01*
X31468725Y-37861409D01*
X31449040Y-37928448D01*
X31432406Y-37949090D01*
X28583699Y-40797796D01*
X28522376Y-40831281D01*
X28487803Y-40833842D01*
X28402563Y-40828182D01*
X28402561Y-40828182D01*
X28402559Y-40828182D01*
X28241635Y-40858297D01*
X28093252Y-40927489D01*
X27966737Y-41031410D01*
X27870040Y-41163529D01*
X27854759Y-41197060D01*
X27709099Y-41597258D01*
X27699251Y-41632769D01*
X27699251Y-41632770D01*
X27688403Y-41796123D01*
X27688403Y-41796130D01*
X27691605Y-41813238D01*
X27684588Y-41882755D01*
X27648429Y-41931864D01*
X27634979Y-41942913D01*
X27611091Y-41975551D01*
X27538282Y-42075031D01*
X27523001Y-42108562D01*
X27377341Y-42508760D01*
X27367493Y-42544271D01*
X27367493Y-42544272D01*
X27356645Y-42707626D01*
X27356645Y-42707631D01*
X27386762Y-42868558D01*
X27428470Y-42958003D01*
X27455954Y-43016942D01*
X27559874Y-43143455D01*
X27691992Y-43240151D01*
X27725519Y-43255430D01*
X27725518Y-43255430D01*
X27725521Y-43255431D01*
X27725523Y-43255432D01*
X28172703Y-43418193D01*
X28208212Y-43428040D01*
X28208220Y-43428041D01*
X28271858Y-43432267D01*
X28371575Y-43438890D01*
X28532504Y-43408774D01*
X28680887Y-43339581D01*
X28807401Y-43235661D01*
X28893327Y-43118258D01*
X28910202Y-43099539D01*
X28919975Y-43090697D01*
X28956160Y-43069807D01*
X29067964Y-42958003D01*
X29067965Y-42958000D01*
X33246520Y-38779447D01*
X33325577Y-38642515D01*
X33366501Y-38489788D01*
X33366501Y-38331673D01*
X33366501Y-38324078D01*
X33366500Y-38324060D01*
X33366500Y-35579760D01*
X33386185Y-35512721D01*
X33438989Y-35466966D01*
X33490500Y-35455760D01*
X37528153Y-35455760D01*
X37595192Y-35475445D01*
X37615834Y-35492079D01*
X37700037Y-35576282D01*
X37727514Y-35599751D01*
X37868218Y-35677103D01*
X37932906Y-35693712D01*
X37992942Y-35729448D01*
X38022171Y-35782976D01*
X38038781Y-35847666D01*
X38080666Y-35923855D01*
X38116133Y-35988371D01*
X38139599Y-36015845D01*
X38139615Y-36015862D01*
X38421267Y-36297513D01*
X38421278Y-36297523D01*
X38421285Y-36297530D01*
X38448762Y-36320999D01*
X38548763Y-36375974D01*
X38589465Y-36398351D01*
X38744982Y-36438281D01*
X38744986Y-36438282D01*
X38744990Y-36438282D01*
X38905547Y-36438282D01*
X38905551Y-36438282D01*
X39061072Y-36398351D01*
X39131423Y-36359675D01*
X39201772Y-36321001D01*
X39201772Y-36321000D01*
X39201775Y-36320999D01*
X39229252Y-36297531D01*
X39313457Y-36213325D01*
X39374778Y-36179842D01*
X39401137Y-36177008D01*
X41919927Y-36177008D01*
X41986966Y-36196693D01*
X42007608Y-36213327D01*
X44802383Y-39008103D01*
X44835868Y-39069426D01*
X44830884Y-39139118D01*
X44789012Y-39195051D01*
X44734101Y-39218257D01*
X44606630Y-39238447D01*
X44382003Y-39311433D01*
X44171566Y-39418657D01*
X44062550Y-39497862D01*
X43980490Y-39557483D01*
X43980488Y-39557485D01*
X43980487Y-39557485D01*
X43813485Y-39724487D01*
X43813485Y-39724488D01*
X43813483Y-39724490D01*
X43685687Y-39900386D01*
X43630357Y-39943051D01*
X43585369Y-39951500D01*
X43540864Y-39951500D01*
X43307592Y-39988446D01*
X43082964Y-40061433D01*
X42872527Y-40168657D01*
X42763511Y-40247862D01*
X42681451Y-40307483D01*
X42681449Y-40307485D01*
X42681448Y-40307485D01*
X42514446Y-40474487D01*
X42514446Y-40474488D01*
X42514444Y-40474490D01*
X42463358Y-40544804D01*
X42375618Y-40665566D01*
X42268394Y-40876003D01*
X42195407Y-41100631D01*
X42158461Y-41333902D01*
X42158461Y-41570097D01*
X42195407Y-41803368D01*
X42268395Y-42027999D01*
X42328370Y-42145706D01*
X42341266Y-42214375D01*
X42328370Y-42258294D01*
X42268395Y-42376000D01*
X42195407Y-42600631D01*
X42158461Y-42833902D01*
X42158461Y-43070097D01*
X42195407Y-43303368D01*
X42268394Y-43527996D01*
X42354049Y-43696101D01*
X42375618Y-43738433D01*
X42514444Y-43929510D01*
X42681451Y-44096517D01*
X42872528Y-44235343D01*
X42959460Y-44279637D01*
X43082964Y-44342566D01*
X43082966Y-44342566D01*
X43082969Y-44342568D01*
X43197946Y-44379926D01*
X43283020Y-44407569D01*
X43340695Y-44447007D01*
X43367893Y-44511366D01*
X43355978Y-44580212D01*
X43308734Y-44631688D01*
X43244701Y-44649500D01*
X41579766Y-44649500D01*
X41512727Y-44629815D01*
X41510875Y-44628602D01*
X41379185Y-44540609D01*
X41379172Y-44540602D01*
X41233501Y-44480264D01*
X41233489Y-44480261D01*
X41078845Y-44449500D01*
X41078842Y-44449500D01*
X40921158Y-44449500D01*
X40921155Y-44449500D01*
X40766510Y-44480261D01*
X40766498Y-44480264D01*
X40620827Y-44540602D01*
X40620814Y-44540609D01*
X40489711Y-44628210D01*
X40489707Y-44628213D01*
X40378213Y-44739707D01*
X40378210Y-44739711D01*
X40290609Y-44870814D01*
X40290602Y-44870827D01*
X40230264Y-45016498D01*
X40230261Y-45016510D01*
X40199500Y-45171153D01*
X40199500Y-45328846D01*
X40230261Y-45483489D01*
X40230264Y-45483501D01*
X40290602Y-45629172D01*
X40290609Y-45629185D01*
X40378210Y-45760288D01*
X40378213Y-45760292D01*
X40489707Y-45871786D01*
X40489711Y-45871789D01*
X40620814Y-45959390D01*
X40620827Y-45959397D01*
X40765675Y-46019394D01*
X40766503Y-46019737D01*
X40921153Y-46050499D01*
X40921156Y-46050500D01*
X40921158Y-46050500D01*
X41078844Y-46050500D01*
X41078845Y-46050499D01*
X41233497Y-46019737D01*
X41379179Y-45959394D01*
X41481990Y-45890698D01*
X41510875Y-45871398D01*
X41577553Y-45850520D01*
X41579766Y-45850500D01*
X46949903Y-45850500D01*
X47016942Y-45870185D01*
X47037584Y-45886819D01*
X47807969Y-46657204D01*
X47812307Y-46665149D01*
X47819555Y-46670575D01*
X47828789Y-46695334D01*
X47841454Y-46718527D01*
X47840808Y-46727556D01*
X47843972Y-46736039D01*
X47838355Y-46761859D01*
X47836470Y-46788219D01*
X47830651Y-46797272D01*
X47829120Y-46804312D01*
X47807969Y-46832566D01*
X47786455Y-46854080D01*
X47725132Y-46887565D01*
X47655440Y-46882581D01*
X47635654Y-46873131D01*
X47576199Y-46837970D01*
X47576190Y-46837966D01*
X47420918Y-46792855D01*
X47420912Y-46792854D01*
X47400000Y-46791209D01*
X47400000Y-47446000D01*
X47398346Y-47451631D01*
X47399476Y-47457392D01*
X47388612Y-47484779D01*
X47380315Y-47513039D01*
X47375879Y-47516882D01*
X47373715Y-47522340D01*
X47349767Y-47539508D01*
X47327511Y-47558794D01*
X47320467Y-47560514D01*
X47316931Y-47563050D01*
X47294497Y-47566859D01*
X47282296Y-47569840D01*
X47095434Y-47579340D01*
X47093943Y-47578983D01*
X47089138Y-47579500D01*
X46184010Y-47579500D01*
X46116971Y-47559815D01*
X46115120Y-47558603D01*
X46091182Y-47542608D01*
X46091181Y-47542607D01*
X46091179Y-47542606D01*
X46091176Y-47542604D01*
X46091171Y-47542602D01*
X45945501Y-47482264D01*
X45945491Y-47482261D01*
X45893564Y-47471932D01*
X45876808Y-47463166D01*
X45858329Y-47459147D01*
X45833288Y-47440401D01*
X45831653Y-47439546D01*
X45830075Y-47437996D01*
X45722292Y-47330213D01*
X45722288Y-47330210D01*
X45707008Y-47320000D01*
X46345496Y-47320000D01*
X46900000Y-47320000D01*
X46900000Y-46791210D01*
X46899999Y-46791209D01*
X46879087Y-46792854D01*
X46879081Y-46792855D01*
X46723809Y-46837966D01*
X46723804Y-46837968D01*
X46584625Y-46920278D01*
X46584616Y-46920285D01*
X46470285Y-47034616D01*
X46470278Y-47034625D01*
X46387968Y-47173804D01*
X46345496Y-47320000D01*
X45707008Y-47320000D01*
X45591185Y-47242609D01*
X45591172Y-47242602D01*
X45445501Y-47182264D01*
X45445489Y-47182261D01*
X45290845Y-47151500D01*
X45290842Y-47151500D01*
X45133158Y-47151500D01*
X45133155Y-47151500D01*
X44978510Y-47182261D01*
X44978498Y-47182264D01*
X44832827Y-47242602D01*
X44832814Y-47242609D01*
X44701711Y-47330210D01*
X44593925Y-47437996D01*
X44532602Y-47471480D01*
X44530438Y-47471931D01*
X44478505Y-47482262D01*
X44478500Y-47482263D01*
X44332827Y-47542602D01*
X44332814Y-47542609D01*
X44201711Y-47630210D01*
X44201707Y-47630213D01*
X44090213Y-47741707D01*
X44090210Y-47741711D01*
X44002609Y-47872814D01*
X44002602Y-47872827D01*
X43942264Y-48018498D01*
X43942261Y-48018510D01*
X43911500Y-48173153D01*
X43911500Y-48330846D01*
X43942260Y-48485488D01*
X43942262Y-48485493D01*
X43942263Y-48485497D01*
X43950155Y-48504550D01*
X43957623Y-48574018D01*
X43950156Y-48599446D01*
X43942263Y-48618503D01*
X43942262Y-48618506D01*
X43942260Y-48618511D01*
X43911500Y-48773153D01*
X43911500Y-48930846D01*
X43942261Y-49085489D01*
X43942263Y-49085497D01*
X44000929Y-49227131D01*
X44001309Y-49228047D01*
X44008778Y-49297517D01*
X43977503Y-49359996D01*
X43917414Y-49395648D01*
X43886748Y-49399500D01*
X33560571Y-49399500D01*
X33493532Y-49379815D01*
X33472894Y-49363185D01*
X33418574Y-49308865D01*
X33407079Y-49302067D01*
X33280369Y-49227131D01*
X33280364Y-49227129D01*
X33126184Y-49182335D01*
X33126178Y-49182334D01*
X33090157Y-49179500D01*
X32691806Y-49179500D01*
X32691784Y-49179501D01*
X32655770Y-49182335D01*
X32501587Y-49227129D01*
X32501584Y-49227130D01*
X32444097Y-49261128D01*
X32376373Y-49278310D01*
X32317857Y-49261128D01*
X32260369Y-49227130D01*
X32260366Y-49227129D01*
X32106186Y-49182335D01*
X32106180Y-49182334D01*
X32070159Y-49179500D01*
X31671808Y-49179500D01*
X31671786Y-49179501D01*
X31635772Y-49182335D01*
X31481589Y-49227129D01*
X31481584Y-49227131D01*
X31343382Y-49308863D01*
X31343378Y-49308866D01*
X31281291Y-49370953D01*
X31271275Y-49377269D01*
X31266220Y-49383789D01*
X31244786Y-49393976D01*
X31234960Y-49400174D01*
X31230385Y-49401791D01*
X31086215Y-49440423D01*
X31040822Y-49466631D01*
X31030934Y-49472339D01*
X31030930Y-49472341D01*
X30949287Y-49519477D01*
X30949282Y-49519481D01*
X30837478Y-49631286D01*
X29507341Y-50961422D01*
X29446018Y-50994907D01*
X29376326Y-50989923D01*
X29331979Y-50961422D01*
X27856819Y-49486262D01*
X27823334Y-49424939D01*
X27820500Y-49398581D01*
X27820500Y-49302067D01*
X27820499Y-49302052D01*
X27817609Y-49265326D01*
X27817608Y-49265320D01*
X27771933Y-49108107D01*
X27771931Y-49108104D01*
X27771931Y-49108103D01*
X27688590Y-48967180D01*
X27688588Y-48967178D01*
X27688585Y-48967174D01*
X27572825Y-48851414D01*
X27572817Y-48851408D01*
X27440502Y-48773158D01*
X27431897Y-48768069D01*
X27431896Y-48768068D01*
X27431895Y-48768068D01*
X27431892Y-48768066D01*
X27274679Y-48722391D01*
X27274673Y-48722390D01*
X27237947Y-48719500D01*
X27237940Y-48719500D01*
X26762060Y-48719500D01*
X26762052Y-48719500D01*
X26725326Y-48722390D01*
X26725320Y-48722391D01*
X26568107Y-48768066D01*
X26568104Y-48768068D01*
X26427182Y-48851408D01*
X26427174Y-48851414D01*
X26311414Y-48967174D01*
X26311408Y-48967182D01*
X26228068Y-49108104D01*
X26228066Y-49108107D01*
X26182391Y-49265320D01*
X26182390Y-49265326D01*
X26179500Y-49302052D01*
X26179500Y-49727947D01*
X26182390Y-49764673D01*
X26182391Y-49764679D01*
X26228067Y-49921894D01*
X26236931Y-49936883D01*
X26254110Y-50004608D01*
X26236931Y-50063117D01*
X26228067Y-50078105D01*
X26182391Y-50235320D01*
X26182390Y-50235326D01*
X26179500Y-50272052D01*
X26179500Y-50697947D01*
X26182390Y-50734673D01*
X26182391Y-50734679D01*
X26228066Y-50891892D01*
X26228068Y-50891895D01*
X26311408Y-51032817D01*
X26311414Y-51032825D01*
X26427174Y-51148585D01*
X26427178Y-51148588D01*
X26427180Y-51148590D01*
X26568103Y-51231931D01*
X26568104Y-51231931D01*
X26568107Y-51231933D01*
X26725320Y-51277608D01*
X26725323Y-51277608D01*
X26725325Y-51277609D01*
X26762060Y-51280500D01*
X26762068Y-51280500D01*
X27237932Y-51280500D01*
X27237940Y-51280500D01*
X27274675Y-51277609D01*
X27288972Y-51273455D01*
X27358840Y-51273653D01*
X27411249Y-51304850D01*
X28263181Y-52156781D01*
X28296666Y-52218104D01*
X28299500Y-52244462D01*
X28299500Y-56431803D01*
X28290855Y-56461243D01*
X28284332Y-56491230D01*
X28280577Y-56496245D01*
X28279815Y-56498842D01*
X28263181Y-56519484D01*
X28234749Y-56547916D01*
X28180205Y-56579725D01*
X28172716Y-56581801D01*
X28172706Y-56581804D01*
X27725519Y-56744568D01*
X27691993Y-56759847D01*
X27559875Y-56856542D01*
X27455953Y-56983058D01*
X27455952Y-56983058D01*
X27386762Y-57131440D01*
X27356645Y-57292367D01*
X27356645Y-57292372D01*
X27364419Y-57409432D01*
X27349220Y-57477629D01*
X27348080Y-57479648D01*
X27330579Y-57509960D01*
X27316937Y-57560870D01*
X27289655Y-57662689D01*
X27289655Y-57662690D01*
X27289655Y-57662691D01*
X27289655Y-57830799D01*
X27289654Y-57830799D01*
X27289656Y-57830805D01*
X27289656Y-58516752D01*
X27269971Y-58583791D01*
X27217167Y-58629546D01*
X27148009Y-58639490D01*
X27084453Y-58610465D01*
X27049320Y-58559671D01*
X26966744Y-58335841D01*
X26853553Y-58029024D01*
X26851976Y-58024475D01*
X26556190Y-57114137D01*
X26554777Y-57109478D01*
X26444431Y-56718220D01*
X26294961Y-56188240D01*
X26293747Y-56183589D01*
X26070284Y-55252803D01*
X26069246Y-55248066D01*
X26060538Y-55204289D01*
X25882512Y-54309291D01*
X25881660Y-54304518D01*
X25861701Y-54178500D01*
X25731922Y-53359113D01*
X25731268Y-53354385D01*
X25618752Y-52403740D01*
X25618282Y-52398961D01*
X25606123Y-52244462D01*
X25543179Y-51444681D01*
X25542897Y-51439889D01*
X25505319Y-50483459D01*
X25505223Y-50478591D01*
X25505223Y-49521408D01*
X25505319Y-49516540D01*
X25505999Y-49499235D01*
X25542897Y-48560107D01*
X25543178Y-48555321D01*
X25618284Y-47601017D01*
X25618751Y-47596264D01*
X25731268Y-46645607D01*
X25731921Y-46640893D01*
X25881664Y-45695453D01*
X25882510Y-45690717D01*
X26069252Y-44751903D01*
X26070282Y-44747207D01*
X26293750Y-43816398D01*
X26294957Y-43811771D01*
X26554780Y-42890510D01*
X26556190Y-42885862D01*
X26851981Y-41975509D01*
X26853547Y-41970991D01*
X27184872Y-41072898D01*
X27186622Y-41068427D01*
X27552935Y-40184067D01*
X27554850Y-40179689D01*
X27955601Y-39310394D01*
X27957723Y-39306021D01*
X28014265Y-39195051D01*
X28392279Y-38453157D01*
X28394558Y-38448895D01*
X28862258Y-37613757D01*
X28864720Y-37609556D01*
X29364832Y-36793447D01*
X29367449Y-36789360D01*
X29899240Y-35993477D01*
X29901994Y-35989526D01*
X30464615Y-35215145D01*
X30467546Y-35211274D01*
X31060139Y-34459572D01*
X31063192Y-34455852D01*
X31684877Y-33727953D01*
X31688040Y-33724394D01*
X32337820Y-33021465D01*
X32341146Y-33018007D01*
X33018007Y-32341146D01*
X33021465Y-32337820D01*
X33724394Y-31688040D01*
X33727953Y-31684877D01*
X34455852Y-31063192D01*
X34459572Y-31060139D01*
X35211285Y-30467537D01*
X35215157Y-30464607D01*
X35409585Y-30323347D01*
X35989526Y-29901994D01*
X35993477Y-29899240D01*
X36789373Y-29367440D01*
X36793447Y-29364832D01*
X37609569Y-28864711D01*
X37613757Y-28862258D01*
X38448895Y-28394558D01*
X38453157Y-28392279D01*
X39306028Y-27957719D01*
X39310402Y-27955598D01*
X40179689Y-27554850D01*
X40184067Y-27552935D01*
X41068427Y-27186622D01*
X41072898Y-27184872D01*
X41970991Y-26853547D01*
X41975509Y-26851981D01*
X42885873Y-26556186D01*
X42890510Y-26554780D01*
X43811771Y-26294957D01*
X43816398Y-26293750D01*
X44747207Y-26070282D01*
X44751903Y-26069252D01*
X45690717Y-25882510D01*
X45695453Y-25881664D01*
X46640893Y-25731921D01*
X46645607Y-25731268D01*
X47596264Y-25618751D01*
X47601017Y-25618284D01*
X48555321Y-25543178D01*
X48560107Y-25542897D01*
X49516541Y-25505319D01*
X49521409Y-25505223D01*
X50478591Y-25505223D01*
X50483459Y-25505319D01*
G37*
%TD.AperFunction*%
%TA.AperFunction,Conductor*%
G36*
X50013432Y-47315286D02*
G01*
X50043334Y-47317425D01*
X50048520Y-47320757D01*
X50052849Y-47321433D01*
X50082311Y-47340866D01*
X50085076Y-47343320D01*
X50153868Y-47412112D01*
X50223931Y-47467153D01*
X50225239Y-47467721D01*
X50232530Y-47474192D01*
X50247728Y-47490330D01*
X50305041Y-47563285D01*
X50305053Y-47563298D01*
X50436701Y-47694946D01*
X50436721Y-47694964D01*
X50509664Y-47752267D01*
X50525802Y-47767464D01*
X50532279Y-47774761D01*
X50532847Y-47776069D01*
X50587888Y-47846132D01*
X50656678Y-47914922D01*
X50659133Y-47917688D01*
X50672514Y-47946089D01*
X50687559Y-47973642D01*
X50687287Y-47977444D01*
X50688912Y-47980894D01*
X50684814Y-48012014D01*
X50682575Y-48043334D01*
X50680206Y-48047019D01*
X50679792Y-48050166D01*
X50673099Y-48058078D01*
X50654074Y-48087681D01*
X50587896Y-48153858D01*
X50587884Y-48153871D01*
X50530573Y-48226824D01*
X50509667Y-48247730D01*
X50436714Y-48305041D01*
X50436701Y-48305053D01*
X50305053Y-48436701D01*
X50305041Y-48436714D01*
X50247730Y-48509667D01*
X50232533Y-48525804D01*
X50225236Y-48532279D01*
X50223931Y-48532847D01*
X50153868Y-48587888D01*
X50085077Y-48656678D01*
X50082312Y-48659133D01*
X50053910Y-48672514D01*
X50026358Y-48687559D01*
X50022555Y-48687287D01*
X50019106Y-48688912D01*
X49987985Y-48684814D01*
X49956666Y-48682575D01*
X49952980Y-48680206D01*
X49949834Y-48679792D01*
X49941921Y-48673098D01*
X49912319Y-48654074D01*
X49846141Y-48587896D01*
X49846128Y-48587884D01*
X49773173Y-48530571D01*
X49752267Y-48509664D01*
X49694964Y-48436721D01*
X49694946Y-48436701D01*
X49563298Y-48305053D01*
X49563285Y-48305041D01*
X49490330Y-48247728D01*
X49474205Y-48232544D01*
X49467722Y-48225242D01*
X49467153Y-48223931D01*
X49412112Y-48153868D01*
X49342978Y-48084734D01*
X49340525Y-48081971D01*
X49327137Y-48053566D01*
X49312087Y-48026004D01*
X49312358Y-48022209D01*
X49310737Y-48018770D01*
X49314830Y-47987643D01*
X49317071Y-47956312D01*
X49319434Y-47952634D01*
X49319847Y-47949496D01*
X49326531Y-47941590D01*
X49345572Y-47911964D01*
X49411728Y-47845808D01*
X49411738Y-47845797D01*
X49467763Y-47774482D01*
X49488670Y-47753574D01*
X49493222Y-47749997D01*
X49493226Y-47749996D01*
X49563289Y-47694955D01*
X49694955Y-47563289D01*
X49749996Y-47493226D01*
X49749996Y-47493223D01*
X49752268Y-47490333D01*
X49773176Y-47469425D01*
X49776066Y-47467153D01*
X49776069Y-47467153D01*
X49846132Y-47412112D01*
X49846141Y-47412103D01*
X49912319Y-47345926D01*
X49916987Y-47343376D01*
X49919917Y-47338935D01*
X49947335Y-47326805D01*
X49973642Y-47312441D01*
X49978948Y-47312820D01*
X49983814Y-47310668D01*
X50013432Y-47315286D01*
G37*
%TD.AperFunction*%
%TD*%
M02*
