%TF.GenerationSoftware,KiCad,Pcbnew,8.0.7*%
%TF.CreationDate,2024-12-05T10:42:37-06:00*%
%TF.ProjectId,reverse,72657665-7273-4652-9e6b-696361645f70,rev?*%
%TF.SameCoordinates,Original*%
%TF.FileFunction,Drillmap*%
%TF.FilePolarity,Positive*%
%FSLAX45Y45*%
G04 Gerber Fmt 4.5, Leading zero omitted, Abs format (unit mm)*
G04 Created by KiCad (PCBNEW 8.0.7) date 2024-12-05 10:42:37*
%MOMM*%
%LPD*%
G01*
G04 APERTURE LIST*
%ADD10C,0.050000*%
%ADD11C,0.200000*%
G04 APERTURE END LIST*
D10*
X7000000Y-5000000D02*
G75*
G02*
X3000000Y-5000000I-2000000J0D01*
G01*
X3000000Y-5000000D02*
G75*
G02*
X7000000Y-5000000I2000000J0D01*
G01*
D11*
X3258277Y-7313984D02*
X3258277Y-7113984D01*
X3258277Y-7113984D02*
X3305896Y-7113984D01*
X3305896Y-7113984D02*
X3334467Y-7123508D01*
X3334467Y-7123508D02*
X3353515Y-7142555D01*
X3353515Y-7142555D02*
X3363039Y-7161603D01*
X3363039Y-7161603D02*
X3372562Y-7199698D01*
X3372562Y-7199698D02*
X3372562Y-7228269D01*
X3372562Y-7228269D02*
X3363039Y-7266365D01*
X3363039Y-7266365D02*
X3353515Y-7285412D01*
X3353515Y-7285412D02*
X3334467Y-7304460D01*
X3334467Y-7304460D02*
X3305896Y-7313984D01*
X3305896Y-7313984D02*
X3258277Y-7313984D01*
X3458277Y-7313984D02*
X3458277Y-7180650D01*
X3458277Y-7218746D02*
X3467801Y-7199698D01*
X3467801Y-7199698D02*
X3477324Y-7190174D01*
X3477324Y-7190174D02*
X3496372Y-7180650D01*
X3496372Y-7180650D02*
X3515420Y-7180650D01*
X3582086Y-7313984D02*
X3582086Y-7180650D01*
X3582086Y-7113984D02*
X3572562Y-7123508D01*
X3572562Y-7123508D02*
X3582086Y-7133031D01*
X3582086Y-7133031D02*
X3591610Y-7123508D01*
X3591610Y-7123508D02*
X3582086Y-7113984D01*
X3582086Y-7113984D02*
X3582086Y-7133031D01*
X3705896Y-7313984D02*
X3686848Y-7304460D01*
X3686848Y-7304460D02*
X3677324Y-7285412D01*
X3677324Y-7285412D02*
X3677324Y-7113984D01*
X3810658Y-7313984D02*
X3791610Y-7304460D01*
X3791610Y-7304460D02*
X3782086Y-7285412D01*
X3782086Y-7285412D02*
X3782086Y-7113984D01*
X4039229Y-7313984D02*
X4039229Y-7113984D01*
X4039229Y-7113984D02*
X4105896Y-7256841D01*
X4105896Y-7256841D02*
X4172562Y-7113984D01*
X4172562Y-7113984D02*
X4172562Y-7313984D01*
X4353515Y-7313984D02*
X4353515Y-7209222D01*
X4353515Y-7209222D02*
X4343991Y-7190174D01*
X4343991Y-7190174D02*
X4324944Y-7180650D01*
X4324944Y-7180650D02*
X4286848Y-7180650D01*
X4286848Y-7180650D02*
X4267801Y-7190174D01*
X4353515Y-7304460D02*
X4334467Y-7313984D01*
X4334467Y-7313984D02*
X4286848Y-7313984D01*
X4286848Y-7313984D02*
X4267801Y-7304460D01*
X4267801Y-7304460D02*
X4258277Y-7285412D01*
X4258277Y-7285412D02*
X4258277Y-7266365D01*
X4258277Y-7266365D02*
X4267801Y-7247317D01*
X4267801Y-7247317D02*
X4286848Y-7237793D01*
X4286848Y-7237793D02*
X4334467Y-7237793D01*
X4334467Y-7237793D02*
X4353515Y-7228269D01*
X4448753Y-7180650D02*
X4448753Y-7380650D01*
X4448753Y-7190174D02*
X4467801Y-7180650D01*
X4467801Y-7180650D02*
X4505896Y-7180650D01*
X4505896Y-7180650D02*
X4524944Y-7190174D01*
X4524944Y-7190174D02*
X4534467Y-7199698D01*
X4534467Y-7199698D02*
X4543991Y-7218746D01*
X4543991Y-7218746D02*
X4543991Y-7275888D01*
X4543991Y-7275888D02*
X4534467Y-7294936D01*
X4534467Y-7294936D02*
X4524944Y-7304460D01*
X4524944Y-7304460D02*
X4505896Y-7313984D01*
X4505896Y-7313984D02*
X4467801Y-7313984D01*
X4467801Y-7313984D02*
X4448753Y-7304460D01*
X4629705Y-7294936D02*
X4639229Y-7304460D01*
X4639229Y-7304460D02*
X4629705Y-7313984D01*
X4629705Y-7313984D02*
X4620182Y-7304460D01*
X4620182Y-7304460D02*
X4629705Y-7294936D01*
X4629705Y-7294936D02*
X4629705Y-7313984D01*
X4629705Y-7190174D02*
X4639229Y-7199698D01*
X4639229Y-7199698D02*
X4629705Y-7209222D01*
X4629705Y-7209222D02*
X4620182Y-7199698D01*
X4620182Y-7199698D02*
X4629705Y-7190174D01*
X4629705Y-7190174D02*
X4629705Y-7209222D01*
M02*
