%TF.GenerationSoftware,KiCad,Pcbnew,8.0.8*%
%TF.CreationDate,2025-02-15T12:27:39-06:00*%
%TF.ProjectId,reverse,72657665-7273-4652-9e6b-696361645f70,rev?*%
%TF.SameCoordinates,Original*%
%TF.FileFunction,Copper,L1,Top*%
%TF.FilePolarity,Positive*%
%FSLAX46Y46*%
G04 Gerber Fmt 4.6, Leading zero omitted, Abs format (unit mm)*
G04 Created by KiCad (PCBNEW 8.0.8) date 2025-02-15 12:27:39*
%MOMM*%
%LPD*%
G01*
G04 APERTURE LIST*
G04 Aperture macros list*
%AMRoundRect*
0 Rectangle with rounded corners*
0 $1 Rounding radius*
0 $2 $3 $4 $5 $6 $7 $8 $9 X,Y pos of 4 corners*
0 Add a 4 corners polygon primitive as box body*
4,1,4,$2,$3,$4,$5,$6,$7,$8,$9,$2,$3,0*
0 Add four circle primitives for the rounded corners*
1,1,$1+$1,$2,$3*
1,1,$1+$1,$4,$5*
1,1,$1+$1,$6,$7*
1,1,$1+$1,$8,$9*
0 Add four rect primitives between the rounded corners*
20,1,$1+$1,$2,$3,$4,$5,0*
20,1,$1+$1,$4,$5,$6,$7,0*
20,1,$1+$1,$6,$7,$8,$9,0*
20,1,$1+$1,$8,$9,$2,$3,0*%
%AMRotRect*
0 Rectangle, with rotation*
0 The origin of the aperture is its center*
0 $1 length*
0 $2 width*
0 $3 Rotation angle, in degrees counterclockwise*
0 Add horizontal line*
21,1,$1,$2,0,0,$3*%
G04 Aperture macros list end*
%TA.AperFunction,ComponentPad*%
%ADD10C,2.000000*%
%TD*%
%TA.AperFunction,SMDPad,CuDef*%
%ADD11RoundRect,0.135000X-0.226274X-0.035355X-0.035355X-0.226274X0.226274X0.035355X0.035355X0.226274X0*%
%TD*%
%TA.AperFunction,SMDPad,CuDef*%
%ADD12RoundRect,0.135000X0.035355X-0.226274X0.226274X-0.035355X-0.035355X0.226274X-0.226274X0.035355X0*%
%TD*%
%TA.AperFunction,SMDPad,CuDef*%
%ADD13RoundRect,0.147500X-0.226954X0.002111X-0.037331X-0.223872X0.226954X-0.002111X0.037331X0.223872X0*%
%TD*%
%TA.AperFunction,ComponentPad*%
%ADD14R,1.000000X1.000000*%
%TD*%
%TA.AperFunction,ComponentPad*%
%ADD15O,1.000000X1.000000*%
%TD*%
%TA.AperFunction,SMDPad,CuDef*%
%ADD16RoundRect,0.135000X-0.135000X-0.185000X0.135000X-0.185000X0.135000X0.185000X-0.135000X0.185000X0*%
%TD*%
%TA.AperFunction,SMDPad,CuDef*%
%ADD17RoundRect,0.147500X0.041489X0.223139X-0.213989X0.075639X-0.041489X-0.223139X0.213989X-0.075639X0*%
%TD*%
%TA.AperFunction,SMDPad,CuDef*%
%ADD18RoundRect,0.147500X0.212545X-0.079606X0.111649X0.197603X-0.212545X0.079606X-0.111649X-0.197603X0*%
%TD*%
%TA.AperFunction,SMDPad,CuDef*%
%ADD19RoundRect,0.147500X-0.037331X0.223872X-0.226954X-0.002111X0.037331X-0.223872X0.226954X0.002111X0*%
%TD*%
%TA.AperFunction,SMDPad,CuDef*%
%ADD20RoundRect,0.147500X-0.213989X-0.075639X0.041489X-0.223139X0.213989X0.075639X-0.041489X0.223139X0*%
%TD*%
%TA.AperFunction,SMDPad,CuDef*%
%ADD21RoundRect,0.050000X-0.300520X0.229810X0.229810X-0.300520X0.300520X-0.229810X-0.229810X0.300520X0*%
%TD*%
%TA.AperFunction,SMDPad,CuDef*%
%ADD22RoundRect,0.050000X-0.300520X-0.229810X-0.229810X-0.300520X0.300520X0.229810X0.229810X0.300520X0*%
%TD*%
%TA.AperFunction,HeatsinkPad*%
%ADD23RotRect,1.650000X1.650000X315.000000*%
%TD*%
%TA.AperFunction,SMDPad,CuDef*%
%ADD24RoundRect,0.135000X0.135000X0.185000X-0.135000X0.185000X-0.135000X-0.185000X0.135000X-0.185000X0*%
%TD*%
%TA.AperFunction,SMDPad,CuDef*%
%ADD25RoundRect,0.147500X-0.172500X0.147500X-0.172500X-0.147500X0.172500X-0.147500X0.172500X0.147500X0*%
%TD*%
%TA.AperFunction,SMDPad,CuDef*%
%ADD26RoundRect,0.147500X0.115305X0.195492X-0.175213X0.144266X-0.115305X-0.195492X0.175213X-0.144266X0*%
%TD*%
%TA.AperFunction,SMDPad,CuDef*%
%ADD27RoundRect,0.140000X0.170000X-0.140000X0.170000X0.140000X-0.170000X0.140000X-0.170000X-0.140000X0*%
%TD*%
%TA.AperFunction,SMDPad,CuDef*%
%ADD28RoundRect,0.147500X0.037331X-0.223872X0.226954X0.002111X-0.037331X0.223872X-0.226954X-0.002111X0*%
%TD*%
%TA.AperFunction,ComponentPad*%
%ADD29C,1.600000*%
%TD*%
%TA.AperFunction,SMDPad,CuDef*%
%ADD30RoundRect,0.147500X-0.212545X0.079606X-0.111649X-0.197603X0.212545X-0.079606X0.111649X0.197603X0*%
%TD*%
%TA.AperFunction,SMDPad,CuDef*%
%ADD31RoundRect,0.135000X0.226274X0.035355X0.035355X0.226274X-0.226274X-0.035355X-0.035355X-0.226274X0*%
%TD*%
%TA.AperFunction,SMDPad,CuDef*%
%ADD32RoundRect,0.147500X-0.041489X-0.223139X0.213989X-0.075639X0.041489X0.223139X-0.213989X0.075639X0*%
%TD*%
%TA.AperFunction,SMDPad,CuDef*%
%ADD33RoundRect,0.147500X0.213989X0.075639X-0.041489X0.223139X-0.213989X-0.075639X0.041489X-0.223139X0*%
%TD*%
%TA.AperFunction,SMDPad,CuDef*%
%ADD34RoundRect,0.147500X0.172500X-0.147500X0.172500X0.147500X-0.172500X0.147500X-0.172500X-0.147500X0*%
%TD*%
%TA.AperFunction,SMDPad,CuDef*%
%ADD35RoundRect,0.135000X-0.035355X0.226274X-0.226274X0.035355X0.035355X-0.226274X0.226274X-0.035355X0*%
%TD*%
%TA.AperFunction,SMDPad,CuDef*%
%ADD36C,10.000000*%
%TD*%
%TA.AperFunction,SMDPad,CuDef*%
%ADD37RoundRect,0.147500X-0.111649X0.197603X-0.212545X-0.079606X0.111649X-0.197603X0.212545X0.079606X0*%
%TD*%
%TA.AperFunction,ComponentPad*%
%ADD38O,1.200000X4.200000*%
%TD*%
%TA.AperFunction,SMDPad,CuDef*%
%ADD39C,4.000000*%
%TD*%
%TA.AperFunction,SMDPad,CuDef*%
%ADD40RoundRect,0.147500X0.175213X0.144266X-0.115305X0.195492X-0.175213X-0.144266X0.115305X-0.195492X0*%
%TD*%
%TA.AperFunction,SMDPad,CuDef*%
%ADD41RoundRect,0.147500X0.111649X-0.197603X0.212545X0.079606X-0.111649X0.197603X-0.212545X-0.079606X0*%
%TD*%
%TA.AperFunction,SMDPad,CuDef*%
%ADD42RoundRect,0.147500X0.226954X-0.002111X0.037331X0.223872X-0.226954X0.002111X-0.037331X-0.223872X0*%
%TD*%
%TA.AperFunction,ViaPad*%
%ADD43C,0.600000*%
%TD*%
%TA.AperFunction,ViaPad*%
%ADD44C,0.500000*%
%TD*%
%TA.AperFunction,Conductor*%
%ADD45C,0.200000*%
%TD*%
%TA.AperFunction,Conductor*%
%ADD46C,0.900000*%
%TD*%
%TA.AperFunction,Conductor*%
%ADD47C,1.000000*%
%TD*%
%TA.AperFunction,Conductor*%
%ADD48C,0.300000*%
%TD*%
G04 APERTURE END LIST*
D10*
%TO.P,stitch1,1*%
%TO.N,GND*%
X26924000Y-95758000D03*
%TD*%
D11*
%TO.P,R8,1*%
%TO.N,PWM8*%
X61139376Y-114423491D03*
%TO.P,R8,2*%
%TO.N,Net-(D15-A)*%
X61860624Y-115144739D03*
%TD*%
D10*
%TO.P,stitch1,1*%
%TO.N,GND*%
X41910000Y-77978000D03*
%TD*%
D12*
%TO.P,R6,1*%
%TO.N,PWM6*%
X61139376Y-85576508D03*
%TO.P,R6,2*%
%TO.N,Net-(D11-A)*%
X61860624Y-84855260D03*
%TD*%
D13*
%TO.P,D2,1,K*%
%TO.N,Net-(D1-A)*%
X32069225Y-114412583D03*
%TO.P,D2,2,A*%
%TO.N,GP1*%
X32692729Y-115155647D03*
%TD*%
D14*
%TO.P,J1,1,Pin_1*%
%TO.N,+3V0*%
X48725000Y-123000000D03*
D15*
%TO.P,J1,2,Pin_2*%
%TO.N,GND*%
X49995001Y-123000000D03*
%TO.P,J1,3,Pin_3*%
%TO.N,GP6*%
X51265000Y-123000000D03*
%TD*%
D16*
%TO.P,R7,1*%
%TO.N,PWM7*%
X67109024Y-100000000D03*
%TO.P,R7,2*%
%TO.N,Net-(D13-A)*%
X68129022Y-100000000D03*
%TD*%
D17*
%TO.P,D7,1,K*%
%TO.N,GP4*%
X38920021Y-79838915D03*
%TO.P,D7,2,A*%
%TO.N,Net-(D7-A)*%
X38079977Y-80323915D03*
%TD*%
D10*
%TO.P,stitch1,1*%
%TO.N,GND*%
X27178000Y-105156000D03*
%TD*%
D18*
%TO.P,D12,1,K*%
%TO.N,Net-(D11-A)*%
X71778809Y-92589287D03*
%TO.P,D12,2,A*%
%TO.N,GP6*%
X71447051Y-91677785D03*
%TD*%
D19*
%TO.P,D6,1,K*%
%TO.N,Net-(D5-A)*%
X32692729Y-84844352D03*
%TO.P,D6,2,A*%
%TO.N,GP3*%
X32069225Y-85587416D03*
%TD*%
D20*
%TO.P,D1,1,K*%
%TO.N,GP1*%
X38079978Y-119676084D03*
%TO.P,D1,2,A*%
%TO.N,Net-(D1-A)*%
X38920022Y-120161084D03*
%TD*%
D21*
%TO.P,U1,1,TIM2_CH4*%
%TO.N,PWM4*%
X49540381Y-96409010D03*
%TO.P,U1,2,TIM1_CH2*%
%TO.N,PWM3*%
X49257538Y-96691852D03*
%TO.P,U1,3,ADC_IN0*%
%TO.N,/touch2*%
X48974695Y-96974695D03*
%TO.P,U1,4,VSS*%
%TO.N,GND*%
X48691852Y-97257538D03*
%TO.P,U1,5,PD0*%
%TO.N,GP4*%
X48409010Y-97540381D03*
D22*
%TO.P,U1,6,VDD*%
%TO.N,+3V0*%
X48409010Y-98459619D03*
%TO.P,U1,7,TIM2_CH3*%
%TO.N,PWM2*%
X48691852Y-98742462D03*
%TO.P,U1,8,PC1*%
%TO.N,GP3*%
X48974695Y-99025305D03*
%TO.P,U1,9,PC2*%
%TO.N,GP2*%
X49257538Y-99308148D03*
%TO.P,U1,10,TIM1_CH3*%
%TO.N,PWM1*%
X49540381Y-99590990D03*
D21*
%TO.P,U1,11,TIM1_CH4*%
%TO.N,PWM8*%
X50459619Y-99590990D03*
%TO.P,U1,12,PC5*%
%TO.N,GP1*%
X50742462Y-99308148D03*
%TO.P,U1,13,PC6*%
%TO.N,GP8*%
X51025305Y-99025305D03*
%TO.P,U1,14,PC7*%
%TO.N,GP7*%
X51308148Y-98742462D03*
%TO.P,U1,15,SWIO*%
%TO.N,GP6*%
X51590990Y-98459619D03*
D22*
%TO.P,U1,16,TIM1_CH1*%
%TO.N,PWM7*%
X51590990Y-97540381D03*
%TO.P,U1,17,TIM2_CH2*%
%TO.N,PWM6*%
X51308148Y-97257538D03*
%TO.P,U1,18,TIM2_CH1*%
%TO.N,PWM5*%
X51025305Y-96974695D03*
%TO.P,U1,19,PD5*%
%TO.N,GP5*%
X50742462Y-96691852D03*
%TO.P,U1,20,ADC_IN6*%
%TO.N,/touch1*%
X50459619Y-96409010D03*
D23*
%TO.P,U1,21,VSS*%
%TO.N,GND*%
X50000000Y-98000000D03*
%TD*%
D10*
%TO.P,through-r1,1*%
%TO.N,+3V0*%
X44958000Y-92202000D03*
%TD*%
%TO.P,stitch1,1*%
%TO.N,GND*%
X35306000Y-81788000D03*
%TD*%
D24*
%TO.P,R2,1*%
%TO.N,PWM2*%
X32890976Y-100000000D03*
%TO.P,R2,2*%
%TO.N,Net-(D3-A)*%
X31870978Y-100000000D03*
%TD*%
D25*
%TO.P,D4,1,K*%
%TO.N,Net-(D3-A)*%
X27000000Y-99515000D03*
%TO.P,D4,2,A*%
%TO.N,GP2*%
X27000000Y-100485000D03*
%TD*%
D26*
%TO.P,D8,1,K*%
%TO.N,Net-(D7-A)*%
X46483723Y-77265202D03*
%TO.P,D8,2,A*%
%TO.N,GP4*%
X45528459Y-77433640D03*
%TD*%
D10*
%TO.P,stitch1,1*%
%TO.N,GND*%
X35052000Y-118110000D03*
%TD*%
D27*
%TO.P,C1,1*%
%TO.N,+3V0*%
X47150000Y-98530000D03*
%TO.P,C1,2*%
%TO.N,GND*%
X47150000Y-97570000D03*
%TD*%
D10*
%TO.P,stitch1,1*%
%TO.N,GND*%
X64948000Y-118110000D03*
%TD*%
%TO.P,stitch1,1*%
%TO.N,GND*%
X73076000Y-95758000D03*
%TD*%
D28*
%TO.P,D15,1,K*%
%TO.N,GP8*%
X67307270Y-115155647D03*
%TO.P,D15,2,A*%
%TO.N,Net-(D15-A)*%
X67930774Y-114412583D03*
%TD*%
D29*
%TO.P,align-r1,1*%
%TO.N,GND*%
X27800000Y-102400000D03*
%TD*%
D10*
%TO.P,through-r6,1*%
%TO.N,+3V0*%
X43658961Y-92952000D03*
%TD*%
D30*
%TO.P,D3,1,K*%
%TO.N,GP2*%
X28221190Y-107410712D03*
%TO.P,D3,2,A*%
%TO.N,Net-(D3-A)*%
X28552948Y-108322214D03*
%TD*%
D10*
%TO.P,through-r4,1*%
%TO.N,+3V0*%
X46257038Y-92952000D03*
%TD*%
D29*
%TO.P,align-r2,1*%
%TO.N,GND*%
X72200000Y-97300000D03*
%TD*%
D31*
%TO.P,R4,1*%
%TO.N,PWM4*%
X46366716Y-85576508D03*
%TO.P,R4,2*%
%TO.N,Net-(D7-A)*%
X45645468Y-84855260D03*
%TD*%
D32*
%TO.P,D16,1,K*%
%TO.N,Net-(D15-A)*%
X61079978Y-120161084D03*
%TO.P,D16,2,A*%
%TO.N,GP8*%
X61920022Y-119676084D03*
%TD*%
D10*
%TO.P,through-r2,1*%
%TO.N,+3V0*%
X44958000Y-90702000D03*
%TD*%
D33*
%TO.P,D10,1,K*%
%TO.N,Net-(D10-K)*%
X61920022Y-80323915D03*
%TO.P,D10,2,A*%
%TO.N,GP5*%
X61079978Y-79838915D03*
%TD*%
D10*
%TO.P,through-r7,1*%
%TO.N,+3V0*%
X43658961Y-91452000D03*
%TD*%
D34*
%TO.P,D13,1,K*%
%TO.N,GP7*%
X73000000Y-100485000D03*
%TO.P,D13,2,A*%
%TO.N,Net-(D13-A)*%
X73000000Y-99515000D03*
%TD*%
D10*
%TO.P,through-r3,1*%
%TO.N,+3V0*%
X46257038Y-91452000D03*
%TD*%
D35*
%TO.P,R1,1*%
%TO.N,PWM1*%
X38860624Y-114423491D03*
%TO.P,R1,2*%
%TO.N,Net-(D1-A)*%
X38139376Y-115144739D03*
%TD*%
D36*
%TO.P,-,1,1*%
%TO.N,GND*%
X50000000Y-114500000D03*
%TD*%
D37*
%TO.P,D5,1,K*%
%TO.N,GP3*%
X28552948Y-91677785D03*
%TO.P,D5,2,A*%
%TO.N,Net-(D5-A)*%
X28221190Y-92589287D03*
%TD*%
D10*
%TO.P,through-r5,1*%
%TO.N,+3V0*%
X44958000Y-93702000D03*
%TD*%
D38*
%TO.P,battery-eject1,1*%
%TO.N,GND*%
X50000000Y-107000000D03*
%TD*%
D12*
%TO.P,R5,1*%
%TO.N,PWM5*%
X53633284Y-85576508D03*
%TO.P,R5,2*%
%TO.N,Net-(D10-K)*%
X54354532Y-84855260D03*
%TD*%
D10*
%TO.P,stitch1,1*%
%TO.N,GND*%
X64694000Y-81788000D03*
%TD*%
D39*
%TO.P,B1,1,1*%
%TO.N,GND*%
X50000000Y-114500000D03*
%TD*%
D40*
%TO.P,D9,1,K*%
%TO.N,GP5*%
X54471540Y-77433640D03*
%TO.P,D9,2,A*%
%TO.N,Net-(D10-K)*%
X53516276Y-77265202D03*
%TD*%
D41*
%TO.P,D14,1,K*%
%TO.N,Net-(D13-A)*%
X71447051Y-108322214D03*
%TO.P,D14,2,A*%
%TO.N,GP7*%
X71778809Y-107410712D03*
%TD*%
D10*
%TO.P,stitch1,1*%
%TO.N,GND*%
X72822000Y-105156000D03*
%TD*%
%TO.P,stitch1,1*%
%TO.N,GND*%
X58090000Y-77978000D03*
%TD*%
D42*
%TO.P,D11,1,K*%
%TO.N,GP6*%
X67930774Y-85587416D03*
%TO.P,D11,2,A*%
%TO.N,Net-(D11-A)*%
X67307270Y-84844352D03*
%TD*%
D10*
%TO.P,stitch1,1*%
%TO.N,GND*%
X50038000Y-76454000D03*
%TD*%
D31*
%TO.P,R3,1*%
%TO.N,PWM3*%
X38860624Y-85576508D03*
%TO.P,R3,2*%
%TO.N,Net-(D5-A)*%
X38139376Y-84855260D03*
%TD*%
D43*
%TO.N,GND*%
X39878000Y-120650000D03*
D44*
X43622000Y-117184248D03*
D43*
X71139913Y-100517384D03*
X28082024Y-93384656D03*
X73092489Y-98720000D03*
D44*
X42150000Y-95800000D03*
X43434000Y-94700000D03*
D43*
X37479978Y-115965040D03*
D44*
X42082735Y-90070910D03*
X57850000Y-98872000D03*
X54610000Y-93767891D03*
X39362091Y-81160000D03*
D43*
X29200000Y-100830151D03*
X33355379Y-115965040D03*
X66554035Y-115916000D03*
D44*
X48538595Y-101370595D03*
D43*
X61320022Y-115779979D03*
X62520022Y-119111544D03*
D44*
X48107038Y-94702248D03*
X42150000Y-101170000D03*
X53974280Y-98872000D03*
X48726000Y-95382497D03*
D43*
X47280160Y-77203793D03*
D44*
X52324000Y-122936000D03*
X43434000Y-95800000D03*
X46736000Y-95800000D03*
X42150000Y-99450000D03*
X54226545Y-83949455D03*
D43*
X66802000Y-84100000D03*
D44*
X47498000Y-123952000D03*
D43*
X71207898Y-90590102D03*
X60349070Y-120485116D03*
X31436104Y-86093963D03*
X28300000Y-106385079D03*
X70800000Y-92964000D03*
X38862000Y-115824000D03*
X41659829Y-86176508D03*
X62576000Y-115916000D03*
D44*
X55922000Y-104140000D03*
D43*
X54590219Y-92308310D03*
D44*
X54838834Y-109116580D03*
D43*
X49250000Y-98000000D03*
X28606085Y-90776118D03*
D44*
X45890159Y-78163978D03*
X42150000Y-94700000D03*
D43*
X72120000Y-101823608D03*
X27322614Y-101262826D03*
D44*
X46548001Y-107899817D03*
X52832000Y-90932000D03*
X50292000Y-100880000D03*
X43712243Y-114070243D03*
D43*
X72243090Y-93265986D03*
X72154151Y-106701304D03*
D44*
X48514000Y-108966000D03*
D43*
X47249057Y-102730843D03*
D44*
X56042852Y-108549149D03*
X58032262Y-110522486D03*
X39925111Y-86126508D03*
X54356000Y-90424000D03*
X54446550Y-85665599D03*
D43*
X50750000Y-98000000D03*
D44*
X58300909Y-88526909D03*
X45720000Y-106680000D03*
X47244000Y-85344000D03*
D43*
X55294048Y-77322727D03*
X27178000Y-98552000D03*
D44*
X54299595Y-78383403D03*
D43*
X42054793Y-110380793D03*
D44*
X51450000Y-121920000D03*
D43*
X33348962Y-84100000D03*
D44*
X51450000Y-102108000D03*
X54822000Y-105410000D03*
X57658000Y-93726000D03*
X45683248Y-103922752D03*
D43*
X68581384Y-113920710D03*
D44*
X52356770Y-97124803D03*
D43*
X37396029Y-119261093D03*
X39638553Y-79238915D03*
X61262421Y-118560399D03*
X44616892Y-77496677D03*
X60390804Y-79238915D03*
D44*
X51308000Y-108966000D03*
X52578000Y-103378000D03*
X48514000Y-88646000D03*
X43932694Y-99323306D03*
X44958000Y-89154000D03*
D43*
X38747590Y-118570410D03*
D44*
X57658000Y-100584000D03*
D43*
X37338000Y-80772000D03*
D44*
X53594000Y-100584000D03*
X48423752Y-122010248D03*
D43*
X52727373Y-77161069D03*
D44*
X41762190Y-113493583D03*
D43*
X29188208Y-109454350D03*
D44*
X57658000Y-94867891D03*
D43*
X29200000Y-92825258D03*
D44*
X48514000Y-103378000D03*
X55880000Y-84286000D03*
X50019783Y-96071028D03*
D43*
X68563894Y-86093962D03*
D44*
X52333909Y-92456000D03*
X41822294Y-118026853D03*
X60960000Y-84150000D03*
X48521909Y-105925909D03*
X54429190Y-94867891D03*
X45701927Y-84020982D03*
X39370000Y-84794000D03*
X50038000Y-88392000D03*
X47007038Y-97570000D03*
D43*
X72944441Y-101280000D03*
D44*
X46736000Y-101170000D03*
X44770000Y-101170000D03*
X51117893Y-94889405D03*
X44203909Y-84286000D03*
D43*
X62562598Y-80800942D03*
X31436103Y-113906037D03*
D44*
X60713909Y-81068000D03*
D43*
X70785497Y-109433974D03*
D44*
X45447207Y-85644992D03*
D43*
%TO.N,+3V0*%
X44712000Y-98252000D03*
X46998000Y-104094000D03*
X47998000Y-104094000D03*
X45212000Y-98552000D03*
X47998000Y-104694000D03*
X47498000Y-104994000D03*
X46998000Y-104694000D03*
X44712000Y-98852000D03*
X47498000Y-104394000D03*
X45212000Y-99152000D03*
X45712000Y-98852000D03*
X45712000Y-98252000D03*
X45212000Y-97952000D03*
X47498000Y-103794000D03*
%TO.N,GP4*%
X48306433Y-97720647D03*
X45528459Y-77433640D03*
X38920021Y-79838915D03*
%TO.N,/touch2*%
X41000000Y-95250000D03*
%TO.N,/touch1*%
X52267893Y-94317891D03*
%TO.N,GP6*%
X67930774Y-85600000D03*
X51693567Y-98279354D03*
%TO.N,GP1*%
X32692729Y-115155647D03*
X51400000Y-100330000D03*
X38079978Y-119676084D03*
%TO.N,GP8*%
X61920022Y-119676084D03*
X55372000Y-103378000D03*
X67296362Y-115144739D03*
%TO.N,GP5*%
X61079978Y-79838915D03*
X54471540Y-77433640D03*
X52883909Y-91694000D03*
%TO.N,GP3*%
X47724578Y-99992578D03*
X32069225Y-85598000D03*
%TD*%
D45*
%TO.N,Net-(D1-A)*%
X38100000Y-115184115D02*
X38100000Y-118771349D01*
X37968115Y-115316000D02*
X33748144Y-115316000D01*
X38139376Y-115144739D02*
X38100000Y-115184115D01*
X38139376Y-115144739D02*
X37968115Y-115316000D01*
X38079978Y-115204137D02*
X38139376Y-115144739D01*
X38920022Y-119591371D02*
X38920022Y-120161084D01*
X33748144Y-115316000D02*
X32844727Y-114412583D01*
X38100000Y-118771349D02*
X38920022Y-119591371D01*
X32844727Y-114412583D02*
X32069225Y-114412583D01*
%TO.N,GND*%
X49250000Y-97815686D02*
X49250000Y-98000000D01*
X47831119Y-96888881D02*
X48323195Y-96888881D01*
X47150000Y-97570000D02*
X47831119Y-96888881D01*
D46*
X49995001Y-123000000D02*
X49995001Y-121666000D01*
D45*
X48323195Y-96888881D02*
X48691852Y-97257538D01*
X48691852Y-97257538D02*
X49250000Y-97815686D01*
D47*
%TO.N,+3V0*%
X47498000Y-104394000D02*
X47498000Y-108940982D01*
X47498000Y-108940982D02*
X42672000Y-113766982D01*
X45952000Y-98580000D02*
X47700000Y-98580000D01*
X42672000Y-117602000D02*
X48070000Y-123000000D01*
X45240000Y-98580000D02*
X45952000Y-98580000D01*
D48*
X48410000Y-98370647D02*
X47150000Y-98370647D01*
D47*
X48070000Y-123000000D02*
X48725000Y-123000000D01*
X45212000Y-98552000D02*
X45240000Y-98580000D01*
D48*
X48128000Y-98552000D02*
X46868000Y-98552000D01*
D47*
X42672000Y-113766982D02*
X42672000Y-117602000D01*
D45*
%TO.N,PWM8*%
X50800000Y-100584000D02*
X50800000Y-99931371D01*
X55372000Y-108656115D02*
X55372000Y-105156000D01*
X50800000Y-99931371D02*
X50459619Y-99590990D01*
X61139376Y-114423491D02*
X55372000Y-108656115D01*
X55372000Y-105156000D02*
X50800000Y-100584000D01*
%TO.N,Net-(D3-A)*%
X29375321Y-101854000D02*
X27036321Y-99515000D01*
X31870978Y-100000000D02*
X31318000Y-100000000D01*
X29300000Y-107575162D02*
X28552948Y-108322214D01*
X27036321Y-99515000D02*
X27000000Y-99515000D01*
X29300000Y-102018000D02*
X29300000Y-107575162D01*
X31318000Y-100000000D02*
X29464000Y-101854000D01*
X29464000Y-101854000D02*
X29300000Y-102018000D01*
X29464000Y-101854000D02*
X29375321Y-101854000D01*
%TO.N,Net-(D15-A)*%
X61860624Y-115144739D02*
X62031885Y-115316000D01*
X66251855Y-115316000D02*
X67155272Y-114412583D01*
X61976000Y-118695349D02*
X61079978Y-119591371D01*
X61860624Y-115144739D02*
X61976000Y-115260115D01*
X61976000Y-115260115D02*
X61976000Y-118695349D01*
X62031885Y-115316000D02*
X66251855Y-115316000D01*
X67155272Y-114412583D02*
X67930774Y-114412583D01*
X61079978Y-119591371D02*
X61079978Y-120161084D01*
%TO.N,Net-(D5-A)*%
X32766000Y-84917623D02*
X32766000Y-88410731D01*
X28587444Y-92589287D02*
X28221190Y-92589287D01*
X32703637Y-84855260D02*
X32692729Y-84844352D01*
X32692729Y-84844352D02*
X32766000Y-84917623D01*
X38139376Y-84855260D02*
X32703637Y-84855260D01*
X32766000Y-88410731D02*
X28587444Y-92589287D01*
%TO.N,Net-(D13-A)*%
X71144500Y-101370500D02*
X73000000Y-99515000D01*
X71116017Y-107127506D02*
X71116017Y-107991180D01*
X71120000Y-107123523D02*
X71116017Y-107127506D01*
X69774000Y-100000000D02*
X71120000Y-101346000D01*
X68129022Y-100000000D02*
X69774000Y-100000000D01*
X71120000Y-101346000D02*
X71120000Y-107123523D01*
X71116017Y-107991180D02*
X71447051Y-108322214D01*
%TO.N,PWM7*%
X67109024Y-100000000D02*
X66531024Y-99422000D01*
X53684742Y-99422000D02*
X51803123Y-97540381D01*
X66531024Y-99422000D02*
X53684742Y-99422000D01*
X51803123Y-97540381D02*
X51590990Y-97540381D01*
%TO.N,Net-(D7-A)*%
X46483723Y-77265202D02*
X46483723Y-84017005D01*
X38366062Y-80610000D02*
X38079977Y-80323915D01*
X43961260Y-84855260D02*
X39716000Y-80610000D01*
X46483723Y-84017005D02*
X45645468Y-84855260D01*
X39716000Y-80610000D02*
X38366062Y-80610000D01*
X45645468Y-84855260D02*
X43961260Y-84855260D01*
%TO.N,PWM6*%
X60473492Y-85576508D02*
X53883909Y-92166091D01*
X61139376Y-85576508D02*
X60473492Y-85576508D01*
X53883909Y-92166091D02*
X53883909Y-94681777D01*
X53883909Y-94681777D02*
X53649594Y-94916091D01*
X53649594Y-94916091D02*
X51308148Y-97257538D01*
%TO.N,Net-(D11-A)*%
X71778809Y-92589287D02*
X71412555Y-92589287D01*
X67296362Y-84855260D02*
X67307270Y-84844352D01*
X67254002Y-84897620D02*
X67307270Y-84844352D01*
X61860624Y-84855260D02*
X67296362Y-84855260D01*
X71412555Y-92589287D02*
X67254002Y-88430734D01*
X67254002Y-88430734D02*
X67254002Y-84897620D01*
%TO.N,PWM5*%
X53483909Y-85725883D02*
X53633284Y-85576508D01*
X53483909Y-94516091D02*
X53483909Y-85725883D01*
X51025305Y-96974695D02*
X53483909Y-94516091D01*
X51025305Y-96974695D02*
X51265685Y-96734314D01*
%TO.N,Net-(D10-K)*%
X53516276Y-84017004D02*
X54354532Y-84855260D01*
X61725937Y-80518000D02*
X61920022Y-80323915D01*
X56114740Y-84855260D02*
X60452000Y-80518000D01*
X53516276Y-77265202D02*
X53516276Y-84017004D01*
X54354532Y-84855260D02*
X56114740Y-84855260D01*
X60452000Y-80518000D02*
X61725937Y-80518000D01*
%TO.N,PWM4*%
X49350000Y-96218629D02*
X49540381Y-96409010D01*
X49350000Y-88559792D02*
X49350000Y-96218629D01*
X46366716Y-85576508D02*
X49350000Y-88559792D01*
%TO.N,PWM3*%
X47557038Y-90913522D02*
X47557038Y-94991352D01*
X42220024Y-85576508D02*
X47557038Y-90913522D01*
X47557038Y-94991352D02*
X49257538Y-96691852D01*
X38860624Y-85576508D02*
X42220024Y-85576508D01*
%TO.N,PWM2*%
X46853969Y-100000000D02*
X47473969Y-99380000D01*
X32890976Y-100000000D02*
X46853969Y-100000000D01*
X47473969Y-99380000D02*
X48054314Y-99380000D01*
X48054314Y-99380000D02*
X48691852Y-98742462D01*
%TO.N,PWM1*%
X46398000Y-106886115D02*
X46398000Y-102733371D01*
X38860624Y-114423491D02*
X46398000Y-106886115D01*
X46398000Y-102733371D02*
X49540381Y-99590990D01*
%TO.N,GP4*%
X48306433Y-97720647D02*
X48306433Y-97642958D01*
X48306433Y-97642958D02*
X48409010Y-97540381D01*
X45496093Y-77466006D02*
X45528459Y-77433640D01*
%TO.N,GP7*%
X69632000Y-100620000D02*
X70716017Y-101704017D01*
X71520000Y-107151903D02*
X71520000Y-101560686D01*
X51308148Y-98742462D02*
X52387686Y-99822000D01*
X71166005Y-108970064D02*
X71745199Y-108970064D01*
X66790100Y-100620000D02*
X69632000Y-100620000D01*
X66539024Y-100368924D02*
X66790100Y-100620000D01*
X72595686Y-100485000D02*
X73000000Y-100485000D01*
X71778809Y-107410712D02*
X71520000Y-107151903D01*
X66365338Y-99822000D02*
X66539024Y-99995686D01*
X70716017Y-101704017D02*
X70716017Y-108520076D01*
X72109843Y-108605420D02*
X72109843Y-107741746D01*
X72109843Y-107741746D02*
X71778809Y-107410712D01*
X70716017Y-108520076D02*
X71166005Y-108970064D01*
X71745199Y-108970064D02*
X72109843Y-108605420D01*
X71520000Y-101560686D02*
X72595686Y-100485000D01*
X52387686Y-99822000D02*
X66365338Y-99822000D01*
X66539024Y-99995686D02*
X66539024Y-100368924D01*
%TO.N,/touch2*%
X41000000Y-95250000D02*
X47250000Y-95250000D01*
X47250000Y-95250000D02*
X48974695Y-96974695D01*
%TO.N,/touch1*%
X52267893Y-94317891D02*
X52267893Y-94600736D01*
X52267893Y-94600736D02*
X50459619Y-96409010D01*
%TO.N,GP6*%
X67930774Y-88161508D02*
X71447051Y-91677785D01*
X67930774Y-85600000D02*
X67930774Y-88161508D01*
X67930774Y-85587416D02*
X67930774Y-85600000D01*
X71351923Y-91772912D02*
X71447050Y-91677785D01*
%TO.N,GP1*%
X51400000Y-99965686D02*
X50742462Y-99308148D01*
X51400000Y-100330000D02*
X51400000Y-99965686D01*
X32703637Y-115144739D02*
X32692729Y-115155647D01*
%TO.N,GP8*%
X67296362Y-115144739D02*
X67307270Y-115155647D01*
X61860624Y-119616686D02*
X61920022Y-119676084D01*
X55372000Y-103378000D02*
X55372000Y-103372000D01*
X55372000Y-103372000D02*
X51025305Y-99025305D01*
%TO.N,GP5*%
X52883909Y-94550404D02*
X50865685Y-96568628D01*
X54503907Y-77466007D02*
X54471540Y-77433640D01*
X50865685Y-96568628D02*
X50742462Y-96691852D01*
X52883909Y-91694000D02*
X52883909Y-94550404D01*
X54533640Y-77433640D02*
X54471540Y-77433640D01*
%TO.N,GP3*%
X47724578Y-99992578D02*
X48007422Y-99992578D01*
X28648076Y-91772912D02*
X28552949Y-91677785D01*
X32020353Y-85636288D02*
X32069225Y-85587416D01*
X32069225Y-85587416D02*
X32069225Y-85598000D01*
X32069225Y-88161508D02*
X28552948Y-91677785D01*
X32069225Y-85598000D02*
X32069225Y-88161508D01*
X48007422Y-99992578D02*
X48974695Y-99025305D01*
%TO.N,GP2*%
X29700000Y-108104058D02*
X29700000Y-102634000D01*
X28221190Y-107410712D02*
X27890156Y-107741746D01*
X27890156Y-107741746D02*
X27890156Y-108605420D01*
X28221190Y-107410712D02*
X28900000Y-106731902D01*
X31714000Y-100620000D02*
X47945686Y-100620000D01*
X27890156Y-108605420D02*
X28254800Y-108970064D01*
X29700000Y-102634000D02*
X31714000Y-100620000D01*
X47945686Y-100620000D02*
X49257538Y-99308148D01*
X28900000Y-106731902D02*
X28900000Y-101944365D01*
X28254800Y-108970064D02*
X28833994Y-108970064D01*
X28833994Y-108970064D02*
X29700000Y-108104058D01*
X27440635Y-100485000D02*
X27000000Y-100485000D01*
X28900000Y-101944365D02*
X27440635Y-100485000D01*
%TD*%
%TA.AperFunction,Conductor*%
%TO.N,GND*%
G36*
X50043334Y-100039786D02*
G01*
X50087681Y-100068287D01*
X50163181Y-100143787D01*
X50196666Y-100205110D01*
X50199500Y-100231468D01*
X50199500Y-100497330D01*
X50199499Y-100497348D01*
X50199499Y-100663054D01*
X50199498Y-100663054D01*
X50240424Y-100815787D01*
X50249935Y-100832260D01*
X50249936Y-100832262D01*
X50319477Y-100952712D01*
X50319481Y-100952717D01*
X50438349Y-101071585D01*
X50438355Y-101071590D01*
X54735181Y-105368416D01*
X54768666Y-105429739D01*
X54771500Y-105456097D01*
X54771500Y-108569445D01*
X54771499Y-108569463D01*
X54771499Y-108735169D01*
X54771498Y-108735169D01*
X54812422Y-108887897D01*
X54812424Y-108887903D01*
X54814218Y-108891009D01*
X54814219Y-108891011D01*
X54891477Y-109024827D01*
X54891481Y-109024832D01*
X55010349Y-109143700D01*
X55010355Y-109143705D01*
X60241283Y-114374633D01*
X60274768Y-114435956D01*
X60277602Y-114462314D01*
X60277602Y-114539132D01*
X60317533Y-114694651D01*
X60394883Y-114835350D01*
X60394885Y-114835353D01*
X60394887Y-114835355D01*
X60418351Y-114862828D01*
X60418367Y-114862845D01*
X60700019Y-115144496D01*
X60700030Y-115144506D01*
X60700037Y-115144513D01*
X60727514Y-115167982D01*
X60868218Y-115245334D01*
X60932906Y-115261943D01*
X60992942Y-115297679D01*
X61022171Y-115351207D01*
X61038781Y-115415897D01*
X61079483Y-115489934D01*
X61116133Y-115556602D01*
X61139599Y-115584076D01*
X61139601Y-115584078D01*
X61339182Y-115783658D01*
X61372666Y-115844979D01*
X61375500Y-115871338D01*
X61375500Y-118395251D01*
X61355815Y-118462290D01*
X61339181Y-118482932D01*
X60599459Y-119222653D01*
X60599457Y-119222655D01*
X60571788Y-119270580D01*
X60560093Y-119290838D01*
X60520401Y-119359586D01*
X60498222Y-119442356D01*
X60479475Y-119512320D01*
X60478683Y-119518340D01*
X60450412Y-119582234D01*
X60445244Y-119587971D01*
X60341629Y-119696020D01*
X60261256Y-119838659D01*
X60218881Y-119996805D01*
X60217167Y-120160515D01*
X60240819Y-120256806D01*
X60256221Y-120319513D01*
X60272085Y-120352772D01*
X60272087Y-120352776D01*
X60510013Y-120764878D01*
X60510024Y-120764895D01*
X60510233Y-120765199D01*
X60530896Y-120795264D01*
X60649065Y-120908583D01*
X60791702Y-120988956D01*
X60949847Y-121031330D01*
X61058989Y-121032472D01*
X61113559Y-121033044D01*
X61113559Y-121033043D01*
X61113560Y-121033044D01*
X61272558Y-120993992D01*
X61305817Y-120978128D01*
X61674639Y-120765188D01*
X61705007Y-120744317D01*
X61818327Y-120626147D01*
X61826871Y-120610984D01*
X61876929Y-120562241D01*
X61936201Y-120547862D01*
X61953603Y-120548044D01*
X61953603Y-120548043D01*
X61953604Y-120548044D01*
X62112602Y-120508992D01*
X62145861Y-120493128D01*
X62514683Y-120280188D01*
X62545051Y-120259317D01*
X62658371Y-120141147D01*
X62738743Y-119998510D01*
X62781118Y-119840366D01*
X62782832Y-119676652D01*
X62743779Y-119517655D01*
X62727915Y-119484396D01*
X62665504Y-119376298D01*
X62655849Y-119355251D01*
X62645811Y-119326562D01*
X62623363Y-119290836D01*
X62549838Y-119173822D01*
X62549835Y-119173819D01*
X62547577Y-119170225D01*
X62540723Y-119160171D01*
X62506673Y-119101193D01*
X62490202Y-119033292D01*
X62506675Y-118977193D01*
X62535574Y-118927138D01*
X62535573Y-118927138D01*
X62535577Y-118927133D01*
X62576500Y-118774406D01*
X62576500Y-116040500D01*
X62596185Y-115973461D01*
X62648989Y-115927706D01*
X62700500Y-115916500D01*
X66165186Y-115916500D01*
X66165202Y-115916501D01*
X66172798Y-115916501D01*
X66330909Y-115916501D01*
X66330912Y-115916501D01*
X66483640Y-115875577D01*
X66497436Y-115867611D01*
X66534540Y-115846190D01*
X66534551Y-115846182D01*
X66534563Y-115846176D01*
X66620571Y-115796520D01*
X66631421Y-115785668D01*
X66692742Y-115752184D01*
X66762434Y-115757166D01*
X66787784Y-115771516D01*
X66788203Y-115770850D01*
X66839351Y-115802988D01*
X66853079Y-115812986D01*
X66978205Y-115917980D01*
X67008204Y-115939378D01*
X67158004Y-116005447D01*
X67319528Y-116032188D01*
X67482629Y-116017919D01*
X67637055Y-115963536D01*
X67773107Y-115872458D01*
X67798934Y-115846176D01*
X67799939Y-115844979D01*
X67897845Y-115728299D01*
X68072685Y-115519933D01*
X68094083Y-115489934D01*
X68160152Y-115340133D01*
X68162994Y-115322961D01*
X68193360Y-115260040D01*
X68244140Y-115226253D01*
X68260559Y-115220472D01*
X68396611Y-115129394D01*
X68422438Y-115103112D01*
X68696189Y-114776869D01*
X68717587Y-114746870D01*
X68783656Y-114597069D01*
X68810396Y-114435546D01*
X68796127Y-114272445D01*
X68741744Y-114118019D01*
X68692105Y-114043867D01*
X68650669Y-113981969D01*
X68650668Y-113981967D01*
X68624379Y-113956135D01*
X68624376Y-113956133D01*
X68259851Y-113650260D01*
X68259839Y-113650250D01*
X68229843Y-113628854D01*
X68229842Y-113628853D01*
X68229840Y-113628852D01*
X68080040Y-113562783D01*
X68080036Y-113562782D01*
X68080035Y-113562782D01*
X68004705Y-113550311D01*
X67918516Y-113536042D01*
X67918514Y-113536042D01*
X67755413Y-113550311D01*
X67600992Y-113604692D01*
X67600983Y-113604697D01*
X67464943Y-113695767D01*
X67464935Y-113695773D01*
X67439105Y-113722058D01*
X67400734Y-113767788D01*
X67342562Y-113806491D01*
X67305744Y-113812083D01*
X67241942Y-113812083D01*
X67241926Y-113812082D01*
X67234330Y-113812082D01*
X67076215Y-113812082D01*
X66999851Y-113832544D01*
X66923486Y-113853006D01*
X66923481Y-113853009D01*
X66786562Y-113932058D01*
X66786554Y-113932064D01*
X66039439Y-114679181D01*
X65978116Y-114712666D01*
X65951758Y-114715500D01*
X62643109Y-114715500D01*
X62576070Y-114695815D01*
X62555428Y-114679181D01*
X62299980Y-114423733D01*
X62299968Y-114423722D01*
X62299963Y-114423717D01*
X62272486Y-114400248D01*
X62225892Y-114374633D01*
X62131785Y-114322897D01*
X62131782Y-114322896D01*
X62067092Y-114306286D01*
X62007055Y-114270547D01*
X61977828Y-114217021D01*
X61961219Y-114152333D01*
X61961217Y-114152329D01*
X61961217Y-114152328D01*
X61883868Y-114011631D01*
X61883867Y-114011629D01*
X61860399Y-113984152D01*
X61860393Y-113984146D01*
X61860384Y-113984136D01*
X61578732Y-113702485D01*
X61578720Y-113702474D01*
X61578715Y-113702469D01*
X61551238Y-113679000D01*
X61484570Y-113642349D01*
X61410534Y-113601647D01*
X61255017Y-113561717D01*
X61255014Y-113561717D01*
X61178199Y-113561717D01*
X61111160Y-113542032D01*
X61090518Y-113525398D01*
X56008819Y-108443699D01*
X55975334Y-108382376D01*
X55972500Y-108356018D01*
X55972500Y-105076945D01*
X55972500Y-105076943D01*
X55931577Y-104924216D01*
X55919309Y-104902967D01*
X55852524Y-104787290D01*
X55852521Y-104787286D01*
X55852520Y-104787284D01*
X55740716Y-104675480D01*
X55740715Y-104675479D01*
X55736385Y-104671149D01*
X55736374Y-104671139D01*
X55443347Y-104378112D01*
X55409862Y-104316789D01*
X55414846Y-104247097D01*
X55456718Y-104191164D01*
X55517143Y-104167211D01*
X55551255Y-104163368D01*
X55721522Y-104103789D01*
X55874262Y-104007816D01*
X56001816Y-103880262D01*
X56097789Y-103727522D01*
X56157368Y-103557255D01*
X56157369Y-103557249D01*
X56177565Y-103378003D01*
X56177565Y-103377996D01*
X56157369Y-103198750D01*
X56157368Y-103198745D01*
X56097788Y-103028476D01*
X56038485Y-102934097D01*
X56001816Y-102875738D01*
X55874262Y-102748184D01*
X55721523Y-102652211D01*
X55551254Y-102592631D01*
X55551250Y-102592630D01*
X55471092Y-102583599D01*
X55406678Y-102556532D01*
X55397295Y-102548060D01*
X53483416Y-100634181D01*
X53449931Y-100572858D01*
X53454915Y-100503166D01*
X53496787Y-100447233D01*
X53562251Y-100422816D01*
X53571097Y-100422500D01*
X65836547Y-100422500D01*
X65903586Y-100442185D01*
X65949341Y-100494989D01*
X65956322Y-100514406D01*
X65979446Y-100600707D01*
X65982084Y-100605275D01*
X65982087Y-100605282D01*
X66058499Y-100737633D01*
X66058505Y-100737641D01*
X66177373Y-100856509D01*
X66177379Y-100856514D01*
X66305239Y-100984374D01*
X66305249Y-100984385D01*
X66309579Y-100988715D01*
X66309580Y-100988716D01*
X66421384Y-101100520D01*
X66504637Y-101148585D01*
X66508195Y-101150639D01*
X66508197Y-101150641D01*
X66546251Y-101172611D01*
X66558315Y-101179577D01*
X66711043Y-101220500D01*
X66869157Y-101220500D01*
X69331903Y-101220500D01*
X69398942Y-101240185D01*
X69419584Y-101256819D01*
X70079198Y-101916433D01*
X70112683Y-101977756D01*
X70115517Y-102004114D01*
X70115517Y-108433406D01*
X70115516Y-108433424D01*
X70115516Y-108599130D01*
X70115515Y-108599130D01*
X70156440Y-108751861D01*
X70185375Y-108801976D01*
X70185376Y-108801980D01*
X70185377Y-108801980D01*
X70235496Y-108888790D01*
X70235498Y-108888793D01*
X70354366Y-109007661D01*
X70354372Y-109007666D01*
X70681144Y-109334438D01*
X70681154Y-109334449D01*
X70685484Y-109338779D01*
X70685485Y-109338780D01*
X70797289Y-109450584D01*
X70884100Y-109500703D01*
X70884102Y-109500705D01*
X70922156Y-109522675D01*
X70934220Y-109529641D01*
X71086948Y-109570564D01*
X71245062Y-109570564D01*
X71658530Y-109570564D01*
X71658546Y-109570565D01*
X71666142Y-109570565D01*
X71824253Y-109570565D01*
X71824256Y-109570565D01*
X71976984Y-109529641D01*
X72027103Y-109500703D01*
X72113915Y-109450584D01*
X72225719Y-109338780D01*
X72225719Y-109338778D01*
X72235927Y-109328571D01*
X72235929Y-109328568D01*
X72478556Y-109085941D01*
X72478559Y-109085940D01*
X72498533Y-109065965D01*
X72559852Y-109032482D01*
X72629544Y-109037466D01*
X72685478Y-109079336D01*
X72709896Y-109144800D01*
X72701245Y-109199945D01*
X72539971Y-109600662D01*
X72538014Y-109605256D01*
X72135108Y-110500476D01*
X72132967Y-110504988D01*
X71694344Y-111383253D01*
X71692023Y-111387675D01*
X71218394Y-112247561D01*
X71215897Y-112251886D01*
X70708029Y-113092005D01*
X70705360Y-113096226D01*
X70164069Y-113915219D01*
X70161232Y-113919329D01*
X69587405Y-114715862D01*
X69584405Y-114719854D01*
X68978963Y-115492642D01*
X68975804Y-115496510D01*
X68339774Y-116244250D01*
X68336463Y-116247989D01*
X67670777Y-116969580D01*
X67667317Y-116973181D01*
X66973181Y-117667317D01*
X66969580Y-117670777D01*
X66247989Y-118336463D01*
X66244250Y-118339774D01*
X65496510Y-118975804D01*
X65492642Y-118978963D01*
X64719854Y-119584405D01*
X64715862Y-119587405D01*
X63919329Y-120161232D01*
X63915219Y-120164069D01*
X63096226Y-120705360D01*
X63092005Y-120708029D01*
X62251886Y-121215897D01*
X62247561Y-121218394D01*
X61387675Y-121692023D01*
X61383253Y-121694344D01*
X60504988Y-122132967D01*
X60500476Y-122135108D01*
X59605256Y-122538014D01*
X59600662Y-122539971D01*
X58689956Y-122906498D01*
X58685287Y-122908269D01*
X57760551Y-123237834D01*
X57755813Y-123239415D01*
X56818591Y-123531464D01*
X56813795Y-123532854D01*
X55865522Y-123786943D01*
X55860673Y-123788138D01*
X54902967Y-124003831D01*
X54898074Y-124004830D01*
X53932448Y-124181788D01*
X53927518Y-124182589D01*
X52955563Y-124320519D01*
X52950606Y-124321121D01*
X51973879Y-124419804D01*
X51968901Y-124420206D01*
X50988985Y-124479480D01*
X50983995Y-124479681D01*
X50002497Y-124499449D01*
X49997503Y-124499449D01*
X49016004Y-124479681D01*
X49011014Y-124479480D01*
X48031098Y-124420206D01*
X48026120Y-124419804D01*
X47049393Y-124321121D01*
X47044436Y-124320519D01*
X46072481Y-124182589D01*
X46067551Y-124181788D01*
X45101925Y-124004830D01*
X45097032Y-124003831D01*
X44139326Y-123788138D01*
X44134477Y-123786943D01*
X43186204Y-123532854D01*
X43181408Y-123531464D01*
X42244186Y-123239415D01*
X42239464Y-123237839D01*
X41314709Y-122908267D01*
X41310043Y-122906498D01*
X40399337Y-122539971D01*
X40394743Y-122538014D01*
X39499523Y-122135108D01*
X39495011Y-122132967D01*
X38616746Y-121694344D01*
X38612324Y-121692023D01*
X37752438Y-121218394D01*
X37748113Y-121215897D01*
X37002064Y-120764896D01*
X36907982Y-120708021D01*
X36903786Y-120705368D01*
X36084780Y-120164069D01*
X36080670Y-120161232D01*
X35856863Y-120000000D01*
X35284126Y-119587396D01*
X35280157Y-119584414D01*
X34579762Y-119035689D01*
X34507357Y-118978963D01*
X34503489Y-118975804D01*
X33755749Y-118339774D01*
X33752010Y-118336463D01*
X33030419Y-117670777D01*
X33026818Y-117667317D01*
X32332682Y-116973181D01*
X32329222Y-116969580D01*
X31663536Y-116247989D01*
X31660225Y-116244250D01*
X31024195Y-115496510D01*
X31021036Y-115492642D01*
X30766682Y-115167984D01*
X30415579Y-114719834D01*
X30412608Y-114715881D01*
X29838760Y-113919320D01*
X29835930Y-113915219D01*
X29767765Y-113812083D01*
X29294623Y-113096200D01*
X29291986Y-113092031D01*
X28784096Y-112251876D01*
X28781605Y-112247561D01*
X28543489Y-111815256D01*
X28307970Y-111387664D01*
X28305655Y-111383253D01*
X27867032Y-110504988D01*
X27864891Y-110500476D01*
X27805078Y-110367576D01*
X27461973Y-109605229D01*
X27460040Y-109600690D01*
X27298753Y-109199944D01*
X27291985Y-109130405D01*
X27323888Y-109068244D01*
X27384332Y-109033198D01*
X27454129Y-109036395D01*
X27501468Y-109065968D01*
X27528505Y-109093005D01*
X27528511Y-109093010D01*
X27769939Y-109334438D01*
X27769949Y-109334449D01*
X27774279Y-109338779D01*
X27774280Y-109338780D01*
X27886084Y-109450584D01*
X27886086Y-109450585D01*
X27886090Y-109450588D01*
X28023009Y-109529637D01*
X28023016Y-109529641D01*
X28134819Y-109559598D01*
X28175742Y-109570564D01*
X28175743Y-109570564D01*
X28747325Y-109570564D01*
X28747341Y-109570565D01*
X28754937Y-109570565D01*
X28913048Y-109570565D01*
X28913051Y-109570565D01*
X29065779Y-109529641D01*
X29115898Y-109500703D01*
X29202710Y-109450584D01*
X29314514Y-109338780D01*
X29314514Y-109338778D01*
X29324722Y-109328571D01*
X29324724Y-109328568D01*
X30058506Y-108594786D01*
X30058511Y-108594782D01*
X30068714Y-108584578D01*
X30068716Y-108584578D01*
X30180520Y-108472774D01*
X30259577Y-108335842D01*
X30300500Y-108183115D01*
X30300500Y-102934097D01*
X30320185Y-102867058D01*
X30336819Y-102846416D01*
X31926416Y-101256819D01*
X31987739Y-101223334D01*
X32014097Y-101220500D01*
X46762274Y-101220500D01*
X46829313Y-101240185D01*
X46875068Y-101292989D01*
X46885012Y-101362147D01*
X46855987Y-101425703D01*
X46849957Y-101432178D01*
X46421352Y-101860783D01*
X46029286Y-102252849D01*
X45917481Y-102364653D01*
X45917479Y-102364656D01*
X45882708Y-102424883D01*
X45882707Y-102424885D01*
X45838423Y-102501585D01*
X45838423Y-102501586D01*
X45797499Y-102654314D01*
X45797499Y-102654316D01*
X45797499Y-102822417D01*
X45797500Y-102822430D01*
X45797500Y-106586018D01*
X45777815Y-106653057D01*
X45761181Y-106673699D01*
X38909482Y-113525398D01*
X38848159Y-113558883D01*
X38821801Y-113561717D01*
X38744982Y-113561717D01*
X38589463Y-113601648D01*
X38448764Y-113678997D01*
X38448764Y-113678998D01*
X38421286Y-113702466D01*
X38421269Y-113702482D01*
X38139618Y-113984134D01*
X38139607Y-113984146D01*
X38116133Y-114011628D01*
X38038782Y-114152329D01*
X38038780Y-114152336D01*
X38022171Y-114217021D01*
X37986432Y-114277059D01*
X37932906Y-114306286D01*
X37868221Y-114322895D01*
X37868220Y-114322895D01*
X37727512Y-114400248D01*
X37700038Y-114423714D01*
X37700034Y-114423718D01*
X37623760Y-114499993D01*
X37444571Y-114679182D01*
X37383251Y-114712666D01*
X37356892Y-114715500D01*
X34048242Y-114715500D01*
X33981203Y-114695815D01*
X33960561Y-114679181D01*
X33332317Y-114050938D01*
X33332315Y-114050935D01*
X33213444Y-113932064D01*
X33213439Y-113932060D01*
X33098190Y-113865522D01*
X33076512Y-113853006D01*
X32923784Y-113812082D01*
X32765670Y-113812082D01*
X32758074Y-113812082D01*
X32758058Y-113812083D01*
X32694255Y-113812083D01*
X32627216Y-113792398D01*
X32599265Y-113767788D01*
X32560893Y-113722058D01*
X32535063Y-113695773D01*
X32535055Y-113695767D01*
X32399015Y-113604697D01*
X32399006Y-113604692D01*
X32244585Y-113550311D01*
X32244586Y-113550311D01*
X32081487Y-113536042D01*
X32081480Y-113536042D01*
X31919963Y-113562782D01*
X31919960Y-113562782D01*
X31919959Y-113562783D01*
X31919958Y-113562783D01*
X31919956Y-113562784D01*
X31770159Y-113628852D01*
X31770155Y-113628854D01*
X31740159Y-113650250D01*
X31740147Y-113650260D01*
X31375622Y-113956133D01*
X31375619Y-113956135D01*
X31349330Y-113981967D01*
X31349329Y-113981969D01*
X31258254Y-114118020D01*
X31203872Y-114272443D01*
X31189603Y-114435541D01*
X31189603Y-114435549D01*
X31216341Y-114597063D01*
X31216342Y-114597066D01*
X31216343Y-114597069D01*
X31282412Y-114746870D01*
X31282411Y-114746870D01*
X31303810Y-114776869D01*
X31303820Y-114776881D01*
X31375952Y-114862845D01*
X31577561Y-115103112D01*
X31603388Y-115129394D01*
X31739440Y-115220472D01*
X31755854Y-115226252D01*
X31812549Y-115267085D01*
X31837002Y-115322957D01*
X31839844Y-115340125D01*
X31839845Y-115340127D01*
X31839846Y-115340130D01*
X31839847Y-115340133D01*
X31905916Y-115489934D01*
X31905915Y-115489934D01*
X31927314Y-115519933D01*
X31927324Y-115519945D01*
X32200060Y-115844979D01*
X32201065Y-115846176D01*
X32226892Y-115872458D01*
X32362944Y-115963536D01*
X32517370Y-116017919D01*
X32680471Y-116032188D01*
X32841995Y-116005447D01*
X32991795Y-115939378D01*
X33021794Y-115917980D01*
X33127684Y-115829126D01*
X33141394Y-115819139D01*
X33194991Y-115785463D01*
X33194997Y-115785457D01*
X33200439Y-115781119D01*
X33201451Y-115782388D01*
X33255307Y-115752972D01*
X33325000Y-115757948D01*
X33369362Y-115786454D01*
X33379428Y-115796520D01*
X33379430Y-115796521D01*
X33379434Y-115796524D01*
X33516353Y-115875573D01*
X33516356Y-115875575D01*
X33516360Y-115875577D01*
X33669087Y-115916501D01*
X33669089Y-115916501D01*
X33834798Y-115916501D01*
X33834814Y-115916500D01*
X37375500Y-115916500D01*
X37442539Y-115936185D01*
X37488294Y-115988989D01*
X37499500Y-116040500D01*
X37499500Y-118684679D01*
X37499499Y-118684697D01*
X37499499Y-118850405D01*
X37530429Y-118965839D01*
X37528766Y-119035689D01*
X37512856Y-119068151D01*
X37510033Y-119072259D01*
X37459270Y-119160179D01*
X37452410Y-119170244D01*
X37354190Y-119326559D01*
X37354188Y-119326564D01*
X37344148Y-119355254D01*
X37334496Y-119376295D01*
X37272085Y-119484395D01*
X37272085Y-119484396D01*
X37256221Y-119517655D01*
X37256053Y-119518340D01*
X37217167Y-119676652D01*
X37218881Y-119840362D01*
X37251037Y-119960371D01*
X37261257Y-119998510D01*
X37341629Y-120141147D01*
X37454949Y-120259317D01*
X37485317Y-120280188D01*
X37485335Y-120280199D01*
X37796202Y-120459678D01*
X37854139Y-120493128D01*
X37887398Y-120508992D01*
X37887402Y-120508993D01*
X38046396Y-120548044D01*
X38063799Y-120547862D01*
X38131041Y-120566843D01*
X38173127Y-120610981D01*
X38181673Y-120626147D01*
X38294993Y-120744317D01*
X38324910Y-120764878D01*
X38325361Y-120765188D01*
X38325379Y-120765199D01*
X38636246Y-120944678D01*
X38694183Y-120978128D01*
X38716884Y-120988956D01*
X38727442Y-120993992D01*
X38727446Y-120993993D01*
X38886440Y-121033044D01*
X39050153Y-121031330D01*
X39208298Y-120988956D01*
X39350935Y-120908583D01*
X39469104Y-120795264D01*
X39489975Y-120764896D01*
X39489980Y-120764886D01*
X39489986Y-120764878D01*
X39646882Y-120493125D01*
X39727915Y-120352772D01*
X39743779Y-120319513D01*
X39782832Y-120160516D01*
X39781118Y-119996802D01*
X39738743Y-119838658D01*
X39658371Y-119696021D01*
X39554754Y-119587969D01*
X39522561Y-119525958D01*
X39521313Y-119518325D01*
X39520522Y-119512318D01*
X39520522Y-119512314D01*
X39513042Y-119484396D01*
X39479599Y-119359586D01*
X39439907Y-119290838D01*
X39400542Y-119222655D01*
X39288738Y-119110851D01*
X39288737Y-119110850D01*
X39284407Y-119106520D01*
X39284396Y-119106510D01*
X38736819Y-118558933D01*
X38703334Y-118497610D01*
X38700500Y-118471252D01*
X38700500Y-115795338D01*
X38720185Y-115728299D01*
X38736819Y-115707657D01*
X38745086Y-115699390D01*
X38860398Y-115584078D01*
X38883867Y-115556601D01*
X38961219Y-115415897D01*
X38977828Y-115351206D01*
X39013563Y-115291172D01*
X39067091Y-115261943D01*
X39131782Y-115245334D01*
X39131786Y-115245332D01*
X39272483Y-115167984D01*
X39272483Y-115167983D01*
X39272486Y-115167982D01*
X39299963Y-115144514D01*
X39581646Y-114862830D01*
X39605115Y-114835353D01*
X39682467Y-114694649D01*
X39722398Y-114539129D01*
X39722398Y-114462314D01*
X39742083Y-114395275D01*
X39758717Y-114374633D01*
X46285819Y-107847531D01*
X46347142Y-107814046D01*
X46416834Y-107819030D01*
X46472767Y-107860902D01*
X46497184Y-107926366D01*
X46497500Y-107935212D01*
X46497500Y-108475199D01*
X46477815Y-108542238D01*
X46461181Y-108562880D01*
X42034220Y-112989841D01*
X42034218Y-112989843D01*
X41964538Y-113059522D01*
X41894859Y-113129201D01*
X41785371Y-113293061D01*
X41785364Y-113293074D01*
X41709950Y-113475142D01*
X41709947Y-113475152D01*
X41671500Y-113668438D01*
X41671500Y-113668441D01*
X41671500Y-117700541D01*
X41671500Y-117700543D01*
X41671499Y-117700543D01*
X41709947Y-117893829D01*
X41709950Y-117893839D01*
X41785364Y-118075907D01*
X41785371Y-118075920D01*
X41894860Y-118239781D01*
X41894863Y-118239785D01*
X42038537Y-118383459D01*
X42038559Y-118383479D01*
X47289735Y-123634655D01*
X47289764Y-123634686D01*
X47432217Y-123777139D01*
X47596080Y-123886628D01*
X47596086Y-123886632D01*
X47698276Y-123928960D01*
X47778164Y-123962051D01*
X47874812Y-123981275D01*
X47898686Y-123986024D01*
X47971458Y-124000500D01*
X47971459Y-124000500D01*
X48837975Y-124000500D01*
X48837983Y-124000499D01*
X49272871Y-124000499D01*
X49272872Y-124000499D01*
X49332483Y-123994091D01*
X49467331Y-123943796D01*
X49475820Y-123937440D01*
X49541283Y-123913020D01*
X49604628Y-123926505D01*
X49604831Y-123926016D01*
X49607479Y-123927112D01*
X49608598Y-123927351D01*
X49610463Y-123928348D01*
X49745001Y-123969159D01*
X49745001Y-123209618D01*
X49795447Y-123260064D01*
X49869556Y-123302851D01*
X49952214Y-123325000D01*
X50037788Y-123325000D01*
X50120446Y-123302851D01*
X50194555Y-123260064D01*
X50245001Y-123209618D01*
X50245001Y-123969159D01*
X50379535Y-123928349D01*
X50553260Y-123835492D01*
X50558321Y-123832111D01*
X50559444Y-123833792D01*
X50615208Y-123810087D01*
X50684080Y-123821854D01*
X50701187Y-123832844D01*
X50701399Y-123832527D01*
X50706459Y-123835908D01*
X50706462Y-123835910D01*
X50706464Y-123835911D01*
X50706467Y-123835913D01*
X50880266Y-123928811D01*
X50880269Y-123928811D01*
X50880273Y-123928814D01*
X51068868Y-123986024D01*
X51265000Y-124005341D01*
X51461132Y-123986024D01*
X51649727Y-123928814D01*
X51652912Y-123927112D01*
X51823532Y-123835913D01*
X51823538Y-123835910D01*
X51975883Y-123710883D01*
X52100910Y-123558538D01*
X52193814Y-123384727D01*
X52251024Y-123196132D01*
X52270341Y-123000000D01*
X52251024Y-122803868D01*
X52193814Y-122615273D01*
X52193811Y-122615269D01*
X52193811Y-122615266D01*
X52100913Y-122441467D01*
X52100909Y-122441460D01*
X51975883Y-122289116D01*
X51823539Y-122164090D01*
X51823532Y-122164086D01*
X51649733Y-122071188D01*
X51649727Y-122071186D01*
X51461132Y-122013976D01*
X51461129Y-122013975D01*
X51265000Y-121994659D01*
X51068870Y-122013975D01*
X51013278Y-122030839D01*
X50880273Y-122071186D01*
X50880272Y-122071186D01*
X50880267Y-122071188D01*
X50706468Y-122164085D01*
X50701400Y-122167473D01*
X50700387Y-122165958D01*
X50643937Y-122189920D01*
X50575072Y-122178115D01*
X50558575Y-122167511D01*
X50558323Y-122167890D01*
X50553254Y-122164503D01*
X50379542Y-122071652D01*
X50245001Y-122030839D01*
X50245001Y-122790382D01*
X50194555Y-122739936D01*
X50120446Y-122697149D01*
X50037788Y-122675000D01*
X49952214Y-122675000D01*
X49869556Y-122697149D01*
X49795447Y-122739936D01*
X49745001Y-122790382D01*
X49745001Y-122030839D01*
X49745000Y-122030839D01*
X49610463Y-122071651D01*
X49608580Y-122072658D01*
X49607480Y-122072886D01*
X49604839Y-122073981D01*
X49604631Y-122073479D01*
X49540176Y-122086894D01*
X49475824Y-122062561D01*
X49467335Y-122056206D01*
X49467328Y-122056202D01*
X49332482Y-122005908D01*
X49332483Y-122005908D01*
X49272883Y-121999501D01*
X49272881Y-121999500D01*
X49272873Y-121999500D01*
X49272865Y-121999500D01*
X48535782Y-121999500D01*
X48468743Y-121979815D01*
X48448101Y-121963181D01*
X45047907Y-118562987D01*
X46290565Y-118562987D01*
X46363014Y-118632423D01*
X46726573Y-118925975D01*
X47113698Y-119187626D01*
X47113717Y-119187638D01*
X47521636Y-119415516D01*
X47521658Y-119415527D01*
X47947434Y-119607990D01*
X47947440Y-119607992D01*
X48388026Y-119763661D01*
X48840220Y-119881402D01*
X49300768Y-119960371D01*
X49300776Y-119960372D01*
X49766344Y-119999999D01*
X49766364Y-120000000D01*
X50233636Y-120000000D01*
X50233655Y-119999999D01*
X50699223Y-119960372D01*
X50699231Y-119960371D01*
X51159779Y-119881402D01*
X51611973Y-119763661D01*
X52052559Y-119607992D01*
X52052565Y-119607990D01*
X52478341Y-119415527D01*
X52478363Y-119415516D01*
X52886282Y-119187638D01*
X52886301Y-119187626D01*
X53273433Y-118925971D01*
X53273434Y-118925970D01*
X53636976Y-118632430D01*
X53636992Y-118632416D01*
X53709432Y-118562986D01*
X50000000Y-114853554D01*
X46290565Y-118562987D01*
X45047907Y-118562987D01*
X43708819Y-117223899D01*
X43675334Y-117162576D01*
X43672500Y-117136218D01*
X43672500Y-114232763D01*
X43692185Y-114165724D01*
X43708814Y-114145087D01*
X44360006Y-113493895D01*
X44421327Y-113460412D01*
X44491019Y-113465396D01*
X44546952Y-113507268D01*
X44571369Y-113572732D01*
X44570681Y-113597328D01*
X44514870Y-114033159D01*
X44495040Y-114499993D01*
X44495040Y-114500006D01*
X44514870Y-114966840D01*
X44574224Y-115430344D01*
X44672669Y-115887129D01*
X44672671Y-115887137D01*
X44809497Y-116333923D01*
X44809502Y-116333936D01*
X44983719Y-116767489D01*
X44983723Y-116767500D01*
X45194083Y-117184723D01*
X45194093Y-117184743D01*
X45439091Y-117582643D01*
X45716947Y-117958330D01*
X45716953Y-117958338D01*
X45937508Y-118208936D01*
X49646447Y-114499999D01*
X50353554Y-114499999D01*
X50353554Y-114500000D01*
X54062490Y-118208936D01*
X54283047Y-117958335D01*
X54283061Y-117958318D01*
X54560908Y-117582643D01*
X54805906Y-117184743D01*
X54805916Y-117184723D01*
X55016276Y-116767500D01*
X55016280Y-116767489D01*
X55190497Y-116333936D01*
X55190502Y-116333923D01*
X55327328Y-115887137D01*
X55327330Y-115887129D01*
X55425775Y-115430344D01*
X55485129Y-114966840D01*
X55504960Y-114500006D01*
X55504960Y-114499993D01*
X55485129Y-114033159D01*
X55425775Y-113569655D01*
X55327330Y-113112870D01*
X55327328Y-113112862D01*
X55190502Y-112666076D01*
X55190497Y-112666063D01*
X55016280Y-112232510D01*
X55016276Y-112232499D01*
X54805916Y-111815276D01*
X54805906Y-111815256D01*
X54560908Y-111417356D01*
X54283052Y-111041669D01*
X54283046Y-111041661D01*
X54062490Y-110791062D01*
X50353554Y-114499999D01*
X49646447Y-114499999D01*
X49823223Y-114323223D01*
X53709433Y-110437011D01*
X53636985Y-110367576D01*
X53273426Y-110074024D01*
X52886301Y-109812373D01*
X52886282Y-109812361D01*
X52478363Y-109584483D01*
X52478341Y-109584472D01*
X52052565Y-109392009D01*
X52052559Y-109392007D01*
X51611973Y-109236338D01*
X51159779Y-109118597D01*
X50699231Y-109039628D01*
X50699223Y-109039627D01*
X50233655Y-109000000D01*
X49766344Y-109000000D01*
X49300776Y-109039627D01*
X49300768Y-109039628D01*
X48840220Y-109118597D01*
X48653589Y-109167192D01*
X48583752Y-109165035D01*
X48526169Y-109125464D01*
X48499120Y-109061042D01*
X48499016Y-109045614D01*
X48498500Y-109045614D01*
X48498500Y-105376940D01*
X48518185Y-105309901D01*
X48534819Y-105289259D01*
X48627816Y-105196262D01*
X48723789Y-105043522D01*
X48783368Y-104873255D01*
X48793054Y-104787290D01*
X48803565Y-104694003D01*
X48803565Y-104693996D01*
X48783369Y-104514750D01*
X48783368Y-104514748D01*
X48783368Y-104514745D01*
X48755446Y-104434951D01*
X48751884Y-104365177D01*
X48755440Y-104353066D01*
X48783368Y-104273255D01*
X48783369Y-104273249D01*
X48803565Y-104094003D01*
X48803565Y-104093996D01*
X48783369Y-103914750D01*
X48783368Y-103914745D01*
X48723788Y-103744476D01*
X48627815Y-103591737D01*
X48500262Y-103464184D01*
X48347521Y-103368210D01*
X48177246Y-103308629D01*
X48170459Y-103307080D01*
X48171137Y-103304108D01*
X48119165Y-103282197D01*
X48109895Y-103273817D01*
X48000262Y-103164184D01*
X47847523Y-103068211D01*
X47677254Y-103008631D01*
X47677249Y-103008630D01*
X47498004Y-102988435D01*
X47497996Y-102988435D01*
X47318750Y-103008630D01*
X47318738Y-103008633D01*
X47298111Y-103015851D01*
X47228332Y-103019412D01*
X47167705Y-102984682D01*
X47135479Y-102922688D01*
X47141885Y-102853113D01*
X47169475Y-102811130D01*
X49912319Y-100068287D01*
X49973642Y-100034802D01*
X50043334Y-100039786D01*
G37*
%TD.AperFunction*%
%TA.AperFunction,Conductor*%
G36*
X50984027Y-75520319D02*
G01*
X50988954Y-75520517D01*
X51968919Y-75579794D01*
X51973860Y-75580193D01*
X52950617Y-75678879D01*
X52955551Y-75679478D01*
X53927534Y-75817412D01*
X53932431Y-75818208D01*
X54898078Y-75995170D01*
X54902963Y-75996167D01*
X55860684Y-76211863D01*
X55865511Y-76213053D01*
X56813819Y-76467152D01*
X56818568Y-76468528D01*
X57755844Y-76760594D01*
X57760506Y-76762150D01*
X58685317Y-77091741D01*
X58689942Y-77093496D01*
X59600690Y-77460040D01*
X59605229Y-77461973D01*
X60500476Y-77864891D01*
X60504979Y-77867028D01*
X61383264Y-78305661D01*
X61387664Y-78307970D01*
X62247571Y-78781611D01*
X62251876Y-78784096D01*
X63092031Y-79291986D01*
X63096200Y-79294623D01*
X63771105Y-79740682D01*
X63915219Y-79835930D01*
X63919320Y-79838760D01*
X64715881Y-80412608D01*
X64719834Y-80415579D01*
X65373519Y-80927709D01*
X65492642Y-81021036D01*
X65496510Y-81024195D01*
X66244250Y-81660225D01*
X66247989Y-81663536D01*
X66969580Y-82329222D01*
X66973181Y-82332682D01*
X67667317Y-83026818D01*
X67670777Y-83030419D01*
X68336463Y-83752010D01*
X68339774Y-83755749D01*
X68975804Y-84503489D01*
X68978963Y-84507357D01*
X69187664Y-84773743D01*
X69539736Y-85223130D01*
X69584405Y-85280145D01*
X69587396Y-85284126D01*
X70116107Y-86018032D01*
X70161232Y-86080670D01*
X70164069Y-86084780D01*
X70421710Y-86474601D01*
X70705360Y-86903773D01*
X70708029Y-86907994D01*
X71215897Y-87748113D01*
X71218394Y-87752438D01*
X71692023Y-88612324D01*
X71694344Y-88616746D01*
X72132967Y-89495011D01*
X72135108Y-89499523D01*
X72538014Y-90394743D01*
X72539971Y-90399337D01*
X72906498Y-91310043D01*
X72908267Y-91314709D01*
X73236388Y-92235393D01*
X73237834Y-92239448D01*
X73239415Y-92244186D01*
X73531464Y-93181408D01*
X73532854Y-93186204D01*
X73786943Y-94134477D01*
X73788138Y-94139326D01*
X74003831Y-95097032D01*
X74004830Y-95101925D01*
X74181788Y-96067551D01*
X74182589Y-96072481D01*
X74320519Y-97044436D01*
X74321121Y-97049393D01*
X74419804Y-98026120D01*
X74420206Y-98031098D01*
X74479480Y-99011014D01*
X74479681Y-99016004D01*
X74499449Y-99997503D01*
X74499449Y-100002497D01*
X74479681Y-100983995D01*
X74479480Y-100988985D01*
X74420206Y-101968901D01*
X74419804Y-101973879D01*
X74321121Y-102950606D01*
X74320519Y-102955563D01*
X74182589Y-103927518D01*
X74181788Y-103932448D01*
X74004830Y-104898074D01*
X74003831Y-104902967D01*
X73788138Y-105860673D01*
X73786943Y-105865522D01*
X73532854Y-106813795D01*
X73531464Y-106818591D01*
X73239415Y-107755813D01*
X73237834Y-107760550D01*
X72951147Y-108564975D01*
X72910099Y-108621516D01*
X72844999Y-108646889D01*
X72776516Y-108633039D01*
X72726393Y-108584362D01*
X72710343Y-108523348D01*
X72710343Y-107830806D01*
X72710344Y-107830793D01*
X72710344Y-107662690D01*
X72669419Y-107509960D01*
X72651919Y-107479650D01*
X72635445Y-107411750D01*
X72635571Y-107409536D01*
X72643354Y-107292370D01*
X72613237Y-107131441D01*
X72544045Y-106983057D01*
X72440125Y-106856544D01*
X72440124Y-106856543D01*
X72440123Y-106856542D01*
X72369279Y-106804692D01*
X72308007Y-106759848D01*
X72274478Y-106744568D01*
X72274480Y-106744568D01*
X72202089Y-106718220D01*
X72145825Y-106676793D01*
X72120890Y-106611524D01*
X72120500Y-106601698D01*
X72120500Y-101860783D01*
X72140185Y-101793744D01*
X72156819Y-101773102D01*
X72617604Y-101312316D01*
X72678925Y-101278833D01*
X72718925Y-101278166D01*
X72719008Y-101277112D01*
X72730829Y-101278042D01*
X72762060Y-101280500D01*
X72762068Y-101280500D01*
X73237932Y-101280500D01*
X73237940Y-101280500D01*
X73274675Y-101277609D01*
X73274677Y-101277608D01*
X73274679Y-101277608D01*
X73431892Y-101231933D01*
X73431893Y-101231932D01*
X73431897Y-101231931D01*
X73572820Y-101148590D01*
X73688590Y-101032820D01*
X73771931Y-100891897D01*
X73771932Y-100891893D01*
X73771933Y-100891892D01*
X73817608Y-100734679D01*
X73817609Y-100734673D01*
X73820499Y-100697947D01*
X73820500Y-100697940D01*
X73820500Y-100272060D01*
X73817609Y-100235325D01*
X73817608Y-100235320D01*
X73771933Y-100078107D01*
X73771932Y-100078106D01*
X73771931Y-100078105D01*
X73771931Y-100078103D01*
X73763070Y-100063120D01*
X73745887Y-99995399D01*
X73763070Y-99936879D01*
X73771931Y-99921897D01*
X73771932Y-99921892D01*
X73771933Y-99921892D01*
X73817608Y-99764679D01*
X73817609Y-99764673D01*
X73820499Y-99727947D01*
X73820500Y-99727940D01*
X73820500Y-99302060D01*
X73817609Y-99265325D01*
X73816390Y-99261128D01*
X73771933Y-99108107D01*
X73771931Y-99108104D01*
X73771931Y-99108103D01*
X73688590Y-98967180D01*
X73688588Y-98967178D01*
X73688585Y-98967174D01*
X73572825Y-98851414D01*
X73572817Y-98851408D01*
X73431895Y-98768068D01*
X73431892Y-98768066D01*
X73274679Y-98722391D01*
X73274673Y-98722390D01*
X73237947Y-98719500D01*
X73237940Y-98719500D01*
X72762060Y-98719500D01*
X72762052Y-98719500D01*
X72725326Y-98722390D01*
X72725320Y-98722391D01*
X72568107Y-98768066D01*
X72568104Y-98768068D01*
X72427182Y-98851408D01*
X72427174Y-98851414D01*
X72311414Y-98967174D01*
X72311408Y-98967182D01*
X72228068Y-99108104D01*
X72228066Y-99108107D01*
X72182391Y-99265320D01*
X72182390Y-99265326D01*
X72179500Y-99302052D01*
X72179500Y-99434903D01*
X72159815Y-99501942D01*
X72143181Y-99522584D01*
X71232181Y-100433584D01*
X71170858Y-100467069D01*
X71101166Y-100462085D01*
X71056819Y-100433584D01*
X70261590Y-99638355D01*
X70261588Y-99638352D01*
X70142717Y-99519481D01*
X70142716Y-99519480D01*
X70051178Y-99466631D01*
X70005785Y-99440423D01*
X69853057Y-99399499D01*
X69694943Y-99399499D01*
X69687347Y-99399499D01*
X69687331Y-99399500D01*
X68798617Y-99399500D01*
X68731578Y-99379815D01*
X68710940Y-99363185D01*
X68656620Y-99308865D01*
X68645125Y-99302067D01*
X68518415Y-99227131D01*
X68518410Y-99227129D01*
X68364230Y-99182335D01*
X68364224Y-99182334D01*
X68328203Y-99179500D01*
X67929852Y-99179500D01*
X67929830Y-99179501D01*
X67893816Y-99182335D01*
X67739633Y-99227129D01*
X67739630Y-99227130D01*
X67682143Y-99261128D01*
X67614419Y-99278310D01*
X67555903Y-99261128D01*
X67498415Y-99227130D01*
X67498412Y-99227129D01*
X67344232Y-99182335D01*
X67344226Y-99182334D01*
X67308212Y-99179500D01*
X67308205Y-99179500D01*
X67189121Y-99179500D01*
X67122082Y-99159815D01*
X67101440Y-99143181D01*
X67018614Y-99060355D01*
X67018612Y-99060352D01*
X66899741Y-98941481D01*
X66899740Y-98941480D01*
X66786192Y-98875923D01*
X66786192Y-98875922D01*
X66786187Y-98875921D01*
X66778029Y-98871210D01*
X66762810Y-98862423D01*
X66723896Y-98851996D01*
X66610081Y-98821499D01*
X66451967Y-98821499D01*
X66444371Y-98821499D01*
X66444355Y-98821500D01*
X53984839Y-98821500D01*
X53917800Y-98801815D01*
X53897158Y-98785181D01*
X52480597Y-97368620D01*
X52447112Y-97307297D01*
X52445436Y-97297843D01*
X52426580Y-97160651D01*
X52408021Y-97117925D01*
X52399368Y-97048595D01*
X52429572Y-96985591D01*
X52434056Y-96980863D01*
X54085863Y-95329057D01*
X54235185Y-95179735D01*
X54235188Y-95179733D01*
X54252624Y-95162297D01*
X54252625Y-95162297D01*
X54364429Y-95050493D01*
X54443486Y-94913561D01*
X54458595Y-94857174D01*
X54484410Y-94760835D01*
X54484410Y-94602721D01*
X54484410Y-94595126D01*
X54484409Y-94595108D01*
X54484409Y-92466188D01*
X54504094Y-92399149D01*
X54520728Y-92378507D01*
X57457711Y-89441524D01*
X60598603Y-86300631D01*
X60659924Y-86267148D01*
X60729616Y-86272132D01*
X60768702Y-86296176D01*
X60768897Y-86295949D01*
X60770349Y-86297189D01*
X60770438Y-86297244D01*
X60770741Y-86297524D01*
X60770747Y-86297529D01*
X60770748Y-86297530D01*
X60798225Y-86320999D01*
X60938928Y-86398351D01*
X61094449Y-86438282D01*
X61094453Y-86438282D01*
X61255010Y-86438282D01*
X61255014Y-86438282D01*
X61410534Y-86398351D01*
X61410538Y-86398349D01*
X61551235Y-86321001D01*
X61551235Y-86321000D01*
X61551238Y-86320999D01*
X61578715Y-86297531D01*
X61860398Y-86015847D01*
X61883867Y-85988370D01*
X61961219Y-85847666D01*
X61977828Y-85782975D01*
X62013563Y-85722941D01*
X62067091Y-85693712D01*
X62131782Y-85677103D01*
X62225894Y-85625365D01*
X62272483Y-85599753D01*
X62272483Y-85599752D01*
X62272486Y-85599751D01*
X62299963Y-85576283D01*
X62384168Y-85492077D01*
X62445489Y-85458594D01*
X62471848Y-85455760D01*
X66529502Y-85455760D01*
X66596541Y-85475445D01*
X66642296Y-85528249D01*
X66653502Y-85579760D01*
X66653502Y-88344064D01*
X66653501Y-88344082D01*
X66653501Y-88509788D01*
X66653500Y-88509788D01*
X66694425Y-88662519D01*
X66723360Y-88712634D01*
X66723361Y-88712638D01*
X66723362Y-88712638D01*
X66761933Y-88779447D01*
X66773481Y-88799448D01*
X66773483Y-88799451D01*
X66892351Y-88918319D01*
X66892357Y-88918324D01*
X70927694Y-92953661D01*
X70927704Y-92953672D01*
X70932034Y-92958002D01*
X70932035Y-92958003D01*
X71043839Y-93069807D01*
X71068611Y-93084109D01*
X71106671Y-93118258D01*
X71192598Y-93235661D01*
X71302464Y-93325906D01*
X71319113Y-93339582D01*
X71398303Y-93376508D01*
X71467495Y-93408774D01*
X71628424Y-93438890D01*
X71737157Y-93431668D01*
X71791778Y-93428041D01*
X71791784Y-93428040D01*
X71791787Y-93428040D01*
X71827296Y-93418193D01*
X72274476Y-93255432D01*
X72308007Y-93240151D01*
X72440125Y-93143455D01*
X72544045Y-93016942D01*
X72613237Y-92868558D01*
X72643354Y-92707629D01*
X72637158Y-92614343D01*
X72632505Y-92544272D01*
X72632505Y-92544271D01*
X72632504Y-92544266D01*
X72622657Y-92508758D01*
X72476997Y-92108561D01*
X72461716Y-92075030D01*
X72365020Y-91942913D01*
X72351571Y-91931866D01*
X72312262Y-91874105D01*
X72308394Y-91813235D01*
X72311596Y-91796127D01*
X72304813Y-91693996D01*
X72300747Y-91632770D01*
X72300747Y-91632769D01*
X72300746Y-91632764D01*
X72290899Y-91597256D01*
X72145239Y-91197059D01*
X72129958Y-91163528D01*
X72033262Y-91031411D01*
X71998165Y-91002582D01*
X71906746Y-90927489D01*
X71758363Y-90858297D01*
X71597439Y-90828182D01*
X71597436Y-90828182D01*
X71512194Y-90833842D01*
X71443998Y-90818643D01*
X71416298Y-90797796D01*
X68567593Y-87949091D01*
X68534108Y-87887768D01*
X68531274Y-87861410D01*
X68531274Y-86182412D01*
X68550959Y-86115373D01*
X68558318Y-86105111D01*
X68560587Y-86102264D01*
X68560590Y-86102262D01*
X68560592Y-86102258D01*
X68564591Y-86097243D01*
X68581834Y-86079561D01*
X68624384Y-86043859D01*
X68650667Y-86018032D01*
X68741744Y-85881980D01*
X68796127Y-85727554D01*
X68810396Y-85564453D01*
X68783656Y-85402930D01*
X68717587Y-85253129D01*
X68717586Y-85253128D01*
X68717587Y-85253128D01*
X68696188Y-85223129D01*
X68696178Y-85223117D01*
X68693255Y-85219634D01*
X68533158Y-85028838D01*
X68422439Y-84896888D01*
X68422434Y-84896883D01*
X68396612Y-84870606D01*
X68396604Y-84870600D01*
X68260564Y-84779530D01*
X68260561Y-84779528D01*
X68260559Y-84779527D01*
X68260555Y-84779525D01*
X68260552Y-84779524D01*
X68244138Y-84773743D01*
X68187444Y-84732907D01*
X68162994Y-84677036D01*
X68160152Y-84659866D01*
X68094083Y-84510065D01*
X68094082Y-84510064D01*
X68094083Y-84510064D01*
X68072684Y-84480065D01*
X68072674Y-84480053D01*
X68041918Y-84443400D01*
X67878620Y-84248789D01*
X67798935Y-84153824D01*
X67798930Y-84153819D01*
X67773108Y-84127542D01*
X67773100Y-84127536D01*
X67637060Y-84036466D01*
X67637051Y-84036461D01*
X67482630Y-83982080D01*
X67482631Y-83982080D01*
X67319532Y-83967811D01*
X67319525Y-83967811D01*
X67158008Y-83994551D01*
X67158005Y-83994551D01*
X67158004Y-83994552D01*
X67158003Y-83994552D01*
X67158001Y-83994553D01*
X67008204Y-84060621D01*
X67008200Y-84060623D01*
X66978204Y-84082019D01*
X66978192Y-84082029D01*
X66806915Y-84225749D01*
X66742907Y-84253762D01*
X66727209Y-84254760D01*
X62401136Y-84254760D01*
X62334097Y-84235075D01*
X62313455Y-84218441D01*
X62229252Y-84134238D01*
X62201780Y-84110773D01*
X62201777Y-84110771D01*
X62201775Y-84110769D01*
X62110560Y-84060623D01*
X62061075Y-84033418D01*
X62061065Y-84033415D01*
X61905554Y-83993486D01*
X61905551Y-83993486D01*
X61744986Y-83993486D01*
X61744982Y-83993486D01*
X61589463Y-84033417D01*
X61448764Y-84110766D01*
X61448764Y-84110767D01*
X61421286Y-84134235D01*
X61421269Y-84134251D01*
X61139618Y-84415903D01*
X61139607Y-84415915D01*
X61116133Y-84443397D01*
X61038782Y-84584098D01*
X61038780Y-84584105D01*
X61022171Y-84648790D01*
X60986432Y-84708828D01*
X60932906Y-84738055D01*
X60868221Y-84754664D01*
X60868220Y-84754664D01*
X60727512Y-84832017D01*
X60700038Y-84855483D01*
X60700034Y-84855487D01*
X60658639Y-84896883D01*
X60615832Y-84939689D01*
X60554512Y-84973173D01*
X60528153Y-84976007D01*
X60394435Y-84976007D01*
X60318071Y-84996469D01*
X60241706Y-85016931D01*
X60241701Y-85016934D01*
X60104782Y-85095983D01*
X60104774Y-85095989D01*
X54296090Y-90904674D01*
X54234767Y-90938159D01*
X54165075Y-90933175D01*
X54109142Y-90891303D01*
X54084725Y-90825839D01*
X54084409Y-90816993D01*
X54084409Y-86337106D01*
X54104094Y-86270067D01*
X54120728Y-86249425D01*
X54202409Y-86167744D01*
X54354306Y-86015847D01*
X54377775Y-85988370D01*
X54455127Y-85847666D01*
X54471736Y-85782975D01*
X54507471Y-85722941D01*
X54560999Y-85693712D01*
X54625690Y-85677103D01*
X54719802Y-85625365D01*
X54766391Y-85599753D01*
X54766391Y-85599752D01*
X54766394Y-85599751D01*
X54793871Y-85576283D01*
X54878076Y-85492077D01*
X54939397Y-85458594D01*
X54965756Y-85455760D01*
X56028071Y-85455760D01*
X56028087Y-85455761D01*
X56035683Y-85455761D01*
X56193794Y-85455761D01*
X56193797Y-85455761D01*
X56346525Y-85414837D01*
X56413688Y-85376060D01*
X56483456Y-85335780D01*
X56595260Y-85223976D01*
X56595260Y-85223974D01*
X56605464Y-85213771D01*
X56605467Y-85213766D01*
X60664416Y-81154819D01*
X60725739Y-81121334D01*
X60752097Y-81118500D01*
X61622058Y-81118500D01*
X61684058Y-81135113D01*
X61694183Y-81140959D01*
X61716884Y-81151787D01*
X61727442Y-81156823D01*
X61727446Y-81156824D01*
X61886440Y-81195875D01*
X62050153Y-81194161D01*
X62208298Y-81151787D01*
X62350935Y-81071414D01*
X62469104Y-80958095D01*
X62489975Y-80927727D01*
X62489980Y-80927717D01*
X62489986Y-80927709D01*
X62601352Y-80734816D01*
X62727915Y-80515603D01*
X62743779Y-80482344D01*
X62782832Y-80323347D01*
X62781118Y-80159633D01*
X62738743Y-80001489D01*
X62658371Y-79858852D01*
X62545051Y-79740682D01*
X62514683Y-79719811D01*
X62514682Y-79719810D01*
X62514664Y-79719799D01*
X62145865Y-79506873D01*
X62112601Y-79491006D01*
X62112597Y-79491005D01*
X61953601Y-79451954D01*
X61936196Y-79452136D01*
X61868955Y-79433152D01*
X61826872Y-79389016D01*
X61818328Y-79373854D01*
X61818327Y-79373852D01*
X61742365Y-79294639D01*
X61705009Y-79255684D01*
X61705008Y-79255683D01*
X61705007Y-79255682D01*
X61684761Y-79241768D01*
X61674638Y-79234810D01*
X61674620Y-79234799D01*
X61305821Y-79021873D01*
X61272557Y-79006006D01*
X61272553Y-79006005D01*
X61113559Y-78966954D01*
X60949850Y-78968668D01*
X60791702Y-79011042D01*
X60649067Y-79091414D01*
X60649064Y-79091416D01*
X60530898Y-79204732D01*
X60530896Y-79204735D01*
X60510025Y-79235103D01*
X60494059Y-79262755D01*
X60459270Y-79323010D01*
X60452410Y-79333075D01*
X60354190Y-79489390D01*
X60354188Y-79489395D01*
X60344148Y-79518085D01*
X60334496Y-79539126D01*
X60272085Y-79647226D01*
X60256223Y-79680482D01*
X60256221Y-79680487D01*
X60217167Y-79839483D01*
X60217665Y-79887001D01*
X60198683Y-79954243D01*
X60155672Y-79995686D01*
X60083287Y-80037477D01*
X60083282Y-80037481D01*
X59971478Y-80149286D01*
X55902324Y-84218441D01*
X55841001Y-84251926D01*
X55814643Y-84254760D01*
X54895044Y-84254760D01*
X54828005Y-84235075D01*
X54807363Y-84218441D01*
X54723160Y-84134238D01*
X54695688Y-84110773D01*
X54695685Y-84110771D01*
X54695683Y-84110769D01*
X54604468Y-84060623D01*
X54554983Y-84033418D01*
X54554973Y-84033415D01*
X54399462Y-83993486D01*
X54399459Y-83993486D01*
X54393355Y-83993486D01*
X54326316Y-83973801D01*
X54305674Y-83957167D01*
X54153095Y-83804588D01*
X54119610Y-83743265D01*
X54116776Y-83716907D01*
X54116776Y-78352020D01*
X54136461Y-78284981D01*
X54189265Y-78239226D01*
X54258423Y-78229282D01*
X54262306Y-78229903D01*
X54538767Y-78278651D01*
X54575446Y-78282183D01*
X54738211Y-78264501D01*
X54891465Y-78206897D01*
X55025579Y-78112989D01*
X55132125Y-77988679D01*
X55204411Y-77841777D01*
X55213637Y-77806102D01*
X55236606Y-77675832D01*
X55241681Y-77656409D01*
X55256908Y-77612895D01*
X55272772Y-77472093D01*
X55273863Y-77464538D01*
X55296272Y-77337452D01*
X55299804Y-77300773D01*
X55282122Y-77138008D01*
X55224518Y-76984754D01*
X55130610Y-76850639D01*
X55006300Y-76744093D01*
X55006298Y-76744092D01*
X55006296Y-76744090D01*
X54859402Y-76671810D01*
X54859398Y-76671808D01*
X54823723Y-76662582D01*
X54823719Y-76662581D01*
X54823718Y-76662581D01*
X54404308Y-76588628D01*
X54404309Y-76588628D01*
X54367638Y-76585097D01*
X54367632Y-76585097D01*
X54204865Y-76602779D01*
X54204862Y-76602780D01*
X54188570Y-76608904D01*
X54118892Y-76614063D01*
X54064251Y-76586981D01*
X54051037Y-76575655D01*
X53904134Y-76503370D01*
X53868459Y-76494144D01*
X53868455Y-76494143D01*
X53868454Y-76494143D01*
X53449044Y-76420190D01*
X53449045Y-76420190D01*
X53412374Y-76416659D01*
X53412368Y-76416659D01*
X53249605Y-76434341D01*
X53096351Y-76491944D01*
X52962236Y-76585853D01*
X52855693Y-76710159D01*
X52783404Y-76857067D01*
X52774178Y-76892744D01*
X52691543Y-77361393D01*
X52688012Y-77398064D01*
X52688012Y-77398069D01*
X52705694Y-77560834D01*
X52763298Y-77714088D01*
X52857206Y-77848203D01*
X52872470Y-77861285D01*
X52910562Y-77919856D01*
X52915776Y-77955436D01*
X52915776Y-83930334D01*
X52915775Y-83930352D01*
X52915775Y-84096058D01*
X52915774Y-84096058D01*
X52946238Y-84209751D01*
X52956699Y-84248789D01*
X52960147Y-84254760D01*
X52977475Y-84284773D01*
X52977477Y-84284776D01*
X53035755Y-84385718D01*
X53035757Y-84385721D01*
X53154625Y-84504589D01*
X53154631Y-84504594D01*
X53272817Y-84622780D01*
X53306302Y-84684103D01*
X53301318Y-84753795D01*
X53259446Y-84809728D01*
X53244876Y-84819122D01*
X53221422Y-84832016D01*
X53193946Y-84855483D01*
X53193929Y-84855499D01*
X52912278Y-85137151D01*
X52912267Y-85137163D01*
X52888795Y-85164643D01*
X52811440Y-85305349D01*
X52771510Y-85460866D01*
X52771510Y-85621438D01*
X52811439Y-85776949D01*
X52811442Y-85776959D01*
X52868071Y-85879966D01*
X52883409Y-85939703D01*
X52883409Y-90777677D01*
X52863724Y-90844716D01*
X52810920Y-90890471D01*
X52773293Y-90900897D01*
X52704659Y-90908630D01*
X52534387Y-90968210D01*
X52381646Y-91064184D01*
X52254093Y-91191737D01*
X52158120Y-91344476D01*
X52098540Y-91514745D01*
X52098539Y-91514750D01*
X52078344Y-91693996D01*
X52078344Y-91694003D01*
X52098539Y-91873249D01*
X52098540Y-91873254D01*
X52158120Y-92043523D01*
X52254094Y-92196263D01*
X52256354Y-92199097D01*
X52257243Y-92201275D01*
X52257798Y-92202158D01*
X52257643Y-92202255D01*
X52282764Y-92263783D01*
X52283409Y-92276412D01*
X52283409Y-93399764D01*
X52263724Y-93466803D01*
X52210920Y-93512558D01*
X52173293Y-93522984D01*
X52088642Y-93532521D01*
X52088638Y-93532522D01*
X51918369Y-93592102D01*
X51765630Y-93688075D01*
X51638077Y-93815628D01*
X51542104Y-93968367D01*
X51482524Y-94138636D01*
X51482523Y-94138641D01*
X51462328Y-94317887D01*
X51462328Y-94317895D01*
X51479860Y-94473506D01*
X51467805Y-94542328D01*
X51444321Y-94575070D01*
X50330644Y-95688750D01*
X50162181Y-95857213D01*
X50100858Y-95890698D01*
X50031166Y-95885714D01*
X49975233Y-95843842D01*
X49950816Y-95778378D01*
X49950500Y-95769532D01*
X49950500Y-88648852D01*
X49950501Y-88648839D01*
X49950501Y-88480736D01*
X49950501Y-88480735D01*
X49909577Y-88328008D01*
X49907298Y-88324060D01*
X49830524Y-88191082D01*
X49830518Y-88191074D01*
X47264809Y-85625365D01*
X47231324Y-85564042D01*
X47228490Y-85537684D01*
X47228490Y-85460874D01*
X47228489Y-85460866D01*
X47206714Y-85376058D01*
X47188559Y-85305350D01*
X47188558Y-85305349D01*
X47188558Y-85305347D01*
X47111208Y-85164648D01*
X47111207Y-85164646D01*
X47087739Y-85137169D01*
X47087733Y-85137163D01*
X47087724Y-85137153D01*
X46806072Y-84855502D01*
X46806060Y-84855491D01*
X46806059Y-84855490D01*
X46806055Y-84855486D01*
X46778578Y-84832017D01*
X46755124Y-84819123D01*
X46705861Y-84769578D01*
X46691204Y-84701263D01*
X46715807Y-84635869D01*
X46727169Y-84622792D01*
X46964243Y-84385721D01*
X47043300Y-84248789D01*
X47084224Y-84096062D01*
X47084224Y-83937947D01*
X47084224Y-83930352D01*
X47084223Y-83930334D01*
X47084223Y-77955436D01*
X47103908Y-77888397D01*
X47127527Y-77861287D01*
X47142793Y-77848203D01*
X47236701Y-77714088D01*
X47294305Y-77560834D01*
X47311987Y-77398069D01*
X47308455Y-77361390D01*
X47225820Y-76892740D01*
X47216594Y-76857065D01*
X47144308Y-76710163D01*
X47103526Y-76662582D01*
X47037762Y-76585853D01*
X46903647Y-76491944D01*
X46807997Y-76455992D01*
X46750394Y-76434341D01*
X46587629Y-76416659D01*
X46587627Y-76416659D01*
X46550953Y-76420190D01*
X46131544Y-76494143D01*
X46095864Y-76503370D01*
X45948965Y-76575653D01*
X45948963Y-76575655D01*
X45935749Y-76586981D01*
X45935745Y-76586984D01*
X45872033Y-76615664D01*
X45811426Y-76608904D01*
X45795133Y-76602780D01*
X45795132Y-76602779D01*
X45795130Y-76602779D01*
X45632365Y-76585097D01*
X45632363Y-76585097D01*
X45595689Y-76588628D01*
X45176280Y-76662581D01*
X45140600Y-76671808D01*
X45140596Y-76671810D01*
X44993703Y-76744090D01*
X44993702Y-76744090D01*
X44869389Y-76850638D01*
X44775481Y-76984754D01*
X44717877Y-77138008D01*
X44700195Y-77300771D01*
X44700195Y-77300777D01*
X44703726Y-77337448D01*
X44703726Y-77337452D01*
X44726127Y-77464499D01*
X44727231Y-77472146D01*
X44743090Y-77612894D01*
X44743090Y-77612897D01*
X44758317Y-77656411D01*
X44763392Y-77675833D01*
X44775874Y-77746626D01*
X44786362Y-77806102D01*
X44795588Y-77841777D01*
X44867874Y-77988679D01*
X44867875Y-77988680D01*
X44867876Y-77988682D01*
X44974419Y-78112988D01*
X44974420Y-78112989D01*
X45108534Y-78206897D01*
X45261788Y-78264501D01*
X45424553Y-78282183D01*
X45461232Y-78278651D01*
X45737691Y-78229904D01*
X45807130Y-78237648D01*
X45861359Y-78281705D01*
X45883161Y-78348086D01*
X45883223Y-78352020D01*
X45883223Y-83716907D01*
X45863538Y-83783946D01*
X45846904Y-83804588D01*
X45694325Y-83957167D01*
X45633002Y-83990652D01*
X45606644Y-83993486D01*
X45600537Y-83993486D01*
X45445026Y-84033415D01*
X45445016Y-84033418D01*
X45304319Y-84110766D01*
X45304319Y-84110767D01*
X45276841Y-84134235D01*
X45276837Y-84134239D01*
X45234737Y-84176340D01*
X45192634Y-84218442D01*
X45131314Y-84251926D01*
X45104955Y-84254760D01*
X44261357Y-84254760D01*
X44194318Y-84235075D01*
X44173676Y-84218441D01*
X40203590Y-80248355D01*
X40203588Y-80248352D01*
X40084717Y-80129481D01*
X40084716Y-80129480D01*
X39997904Y-80079360D01*
X39997904Y-80079359D01*
X39997900Y-80079358D01*
X39947785Y-80050423D01*
X39873995Y-80030650D01*
X39814335Y-79994285D01*
X39783807Y-79931438D01*
X39782097Y-79909577D01*
X39782334Y-79887001D01*
X39782831Y-79839483D01*
X39743778Y-79680486D01*
X39727914Y-79647227D01*
X39665503Y-79539129D01*
X39655848Y-79518082D01*
X39645810Y-79489393D01*
X39573211Y-79373853D01*
X39549837Y-79336653D01*
X39549835Y-79336651D01*
X39547575Y-79333054D01*
X39540723Y-79323003D01*
X39489976Y-79235106D01*
X39489765Y-79234799D01*
X39469103Y-79204735D01*
X39350934Y-79091416D01*
X39350931Y-79091414D01*
X39208296Y-79011042D01*
X39050148Y-78968668D01*
X39050149Y-78968668D01*
X38886439Y-78966954D01*
X38727445Y-79006005D01*
X38727441Y-79006006D01*
X38694177Y-79021873D01*
X38325378Y-79234799D01*
X38325360Y-79234810D01*
X38294989Y-79255684D01*
X38181670Y-79373853D01*
X38173123Y-79389021D01*
X38123061Y-79437761D01*
X38063802Y-79452136D01*
X38046396Y-79451954D01*
X37887401Y-79491005D01*
X37887397Y-79491006D01*
X37854133Y-79506873D01*
X37485334Y-79719799D01*
X37485316Y-79719810D01*
X37454945Y-79740684D01*
X37341628Y-79858851D01*
X37261255Y-80001490D01*
X37218880Y-80159636D01*
X37217166Y-80323346D01*
X37239088Y-80412594D01*
X37256220Y-80482344D01*
X37272084Y-80515603D01*
X37272086Y-80515607D01*
X37510012Y-80927709D01*
X37510023Y-80927726D01*
X37510024Y-80927727D01*
X37530895Y-80958095D01*
X37649064Y-81071414D01*
X37791701Y-81151787D01*
X37949846Y-81194161D01*
X37986226Y-81194541D01*
X38113552Y-81195875D01*
X38113552Y-81195874D01*
X38113559Y-81195875D01*
X38144654Y-81188237D01*
X38206326Y-81188881D01*
X38287004Y-81210500D01*
X38287005Y-81210500D01*
X39415903Y-81210500D01*
X39482942Y-81230185D01*
X39503584Y-81246819D01*
X43476399Y-85219634D01*
X43476409Y-85219645D01*
X43480739Y-85223975D01*
X43480740Y-85223976D01*
X43592544Y-85335780D01*
X43662312Y-85376060D01*
X43662313Y-85376061D01*
X43703415Y-85399791D01*
X43729475Y-85414837D01*
X43882202Y-85455760D01*
X43882203Y-85455760D01*
X45034245Y-85455760D01*
X45101284Y-85475445D01*
X45121926Y-85492079D01*
X45206129Y-85576282D01*
X45233606Y-85599751D01*
X45374310Y-85677103D01*
X45438998Y-85693712D01*
X45499034Y-85729448D01*
X45528263Y-85782976D01*
X45544873Y-85847666D01*
X45586758Y-85923855D01*
X45622225Y-85988371D01*
X45645691Y-86015845D01*
X45645707Y-86015862D01*
X45927359Y-86297513D01*
X45927370Y-86297523D01*
X45927377Y-86297530D01*
X45954854Y-86320999D01*
X46054855Y-86375974D01*
X46095557Y-86398351D01*
X46251074Y-86438281D01*
X46251078Y-86438282D01*
X46327893Y-86438282D01*
X46394932Y-86457967D01*
X46415574Y-86474601D01*
X48713181Y-88772208D01*
X48746666Y-88833531D01*
X48749500Y-88859889D01*
X48749500Y-95035217D01*
X48729815Y-95102256D01*
X48677011Y-95148011D01*
X48607853Y-95157955D01*
X48544297Y-95128930D01*
X48537819Y-95122898D01*
X48193857Y-94778936D01*
X48160372Y-94717613D01*
X48157538Y-94691255D01*
X48157538Y-91002582D01*
X48157539Y-91002569D01*
X48157539Y-90834466D01*
X48155855Y-90828182D01*
X48116615Y-90681738D01*
X48116611Y-90681731D01*
X48037562Y-90544812D01*
X48037556Y-90544804D01*
X42707614Y-85214863D01*
X42707612Y-85214860D01*
X42588741Y-85095989D01*
X42588733Y-85095983D01*
X42472433Y-85028838D01*
X42472433Y-85028837D01*
X42472428Y-85028836D01*
X42465233Y-85024681D01*
X42451810Y-85016931D01*
X42413627Y-85006700D01*
X42299081Y-84976007D01*
X42140967Y-84976007D01*
X42133371Y-84976007D01*
X42133355Y-84976008D01*
X39471847Y-84976008D01*
X39404808Y-84956323D01*
X39384166Y-84939689D01*
X39299967Y-84855490D01*
X39299963Y-84855486D01*
X39272486Y-84832017D01*
X39177012Y-84779530D01*
X39131785Y-84754666D01*
X39131782Y-84754665D01*
X39067092Y-84738055D01*
X39007055Y-84702316D01*
X38977828Y-84648790D01*
X38961219Y-84584102D01*
X38961217Y-84584098D01*
X38961217Y-84584097D01*
X38883868Y-84443400D01*
X38883867Y-84443398D01*
X38860399Y-84415921D01*
X38860393Y-84415915D01*
X38860384Y-84415905D01*
X38578732Y-84134254D01*
X38578720Y-84134243D01*
X38578715Y-84134238D01*
X38551238Y-84110769D01*
X38484570Y-84074118D01*
X38410534Y-84033416D01*
X38255017Y-83993486D01*
X38255014Y-83993486D01*
X38094449Y-83993486D01*
X38094445Y-83993486D01*
X37938934Y-84033415D01*
X37938924Y-84033418D01*
X37798227Y-84110766D01*
X37798227Y-84110767D01*
X37770749Y-84134235D01*
X37770745Y-84134239D01*
X37728645Y-84176340D01*
X37686542Y-84218442D01*
X37625222Y-84251926D01*
X37598863Y-84254760D01*
X33272790Y-84254760D01*
X33205751Y-84235075D01*
X33193084Y-84225749D01*
X33174018Y-84209751D01*
X33021794Y-84082019D01*
X32991795Y-84060621D01*
X32841995Y-83994552D01*
X32841991Y-83994551D01*
X32841990Y-83994551D01*
X32766660Y-83982080D01*
X32680471Y-83967811D01*
X32680469Y-83967811D01*
X32517368Y-83982080D01*
X32362947Y-84036461D01*
X32362938Y-84036466D01*
X32226898Y-84127536D01*
X32226890Y-84127542D01*
X32201068Y-84153819D01*
X32201063Y-84153824D01*
X31927324Y-84480053D01*
X31927314Y-84480065D01*
X31905916Y-84510064D01*
X31839845Y-84659871D01*
X31839845Y-84659872D01*
X31837002Y-84677042D01*
X31806630Y-84739965D01*
X31755861Y-84773743D01*
X31739439Y-84779526D01*
X31739438Y-84779527D01*
X31603394Y-84870600D01*
X31603386Y-84870606D01*
X31577564Y-84896883D01*
X31577559Y-84896888D01*
X31303820Y-85223117D01*
X31303810Y-85223129D01*
X31282412Y-85253128D01*
X31259380Y-85305350D01*
X31228194Y-85376061D01*
X31216343Y-85402931D01*
X31216341Y-85402935D01*
X31189603Y-85564449D01*
X31189603Y-85564457D01*
X31203872Y-85727555D01*
X31258254Y-85881978D01*
X31349329Y-86018029D01*
X31349331Y-86018032D01*
X31375610Y-86043854D01*
X31375617Y-86043861D01*
X31422977Y-86083601D01*
X31440192Y-86101245D01*
X31441646Y-86103067D01*
X31468076Y-86167744D01*
X31468725Y-86180412D01*
X31468725Y-87861409D01*
X31449040Y-87928448D01*
X31432406Y-87949090D01*
X28583699Y-90797796D01*
X28522376Y-90831281D01*
X28487803Y-90833842D01*
X28402563Y-90828182D01*
X28402561Y-90828182D01*
X28402559Y-90828182D01*
X28241635Y-90858297D01*
X28093252Y-90927489D01*
X27966737Y-91031410D01*
X27870040Y-91163529D01*
X27854759Y-91197060D01*
X27709099Y-91597258D01*
X27699251Y-91632769D01*
X27699251Y-91632770D01*
X27688403Y-91796123D01*
X27688403Y-91796130D01*
X27691605Y-91813238D01*
X27684588Y-91882755D01*
X27648429Y-91931864D01*
X27642885Y-91936418D01*
X27634980Y-91942912D01*
X27538282Y-92075031D01*
X27523001Y-92108562D01*
X27377341Y-92508760D01*
X27367493Y-92544271D01*
X27367493Y-92544272D01*
X27356645Y-92707626D01*
X27356645Y-92707631D01*
X27386762Y-92868558D01*
X27428470Y-92958003D01*
X27455954Y-93016942D01*
X27559874Y-93143455D01*
X27691992Y-93240151D01*
X27725519Y-93255430D01*
X27725518Y-93255430D01*
X27725521Y-93255431D01*
X27725523Y-93255432D01*
X28172703Y-93418193D01*
X28208212Y-93428040D01*
X28208220Y-93428041D01*
X28271858Y-93432267D01*
X28371575Y-93438890D01*
X28532504Y-93408774D01*
X28680887Y-93339581D01*
X28807401Y-93235661D01*
X28893327Y-93118258D01*
X28931392Y-93084106D01*
X28956160Y-93069807D01*
X29067964Y-92958003D01*
X29067964Y-92958001D01*
X29078172Y-92947794D01*
X29078173Y-92947791D01*
X33246520Y-88779447D01*
X33325577Y-88642515D01*
X33366501Y-88489788D01*
X33366501Y-88331673D01*
X33366501Y-88324078D01*
X33366500Y-88324060D01*
X33366500Y-85579760D01*
X33386185Y-85512721D01*
X33438989Y-85466966D01*
X33490500Y-85455760D01*
X37528153Y-85455760D01*
X37595192Y-85475445D01*
X37615834Y-85492079D01*
X37700037Y-85576282D01*
X37727514Y-85599751D01*
X37868218Y-85677103D01*
X37932906Y-85693712D01*
X37992942Y-85729448D01*
X38022171Y-85782976D01*
X38038781Y-85847666D01*
X38080666Y-85923855D01*
X38116133Y-85988371D01*
X38139599Y-86015845D01*
X38139615Y-86015862D01*
X38421267Y-86297513D01*
X38421278Y-86297523D01*
X38421285Y-86297530D01*
X38448762Y-86320999D01*
X38548763Y-86375974D01*
X38589465Y-86398351D01*
X38744982Y-86438281D01*
X38744986Y-86438282D01*
X38744990Y-86438282D01*
X38905547Y-86438282D01*
X38905551Y-86438282D01*
X39061072Y-86398351D01*
X39131423Y-86359675D01*
X39201772Y-86321001D01*
X39201772Y-86321000D01*
X39201775Y-86320999D01*
X39229252Y-86297531D01*
X39313457Y-86213325D01*
X39374778Y-86179842D01*
X39401137Y-86177008D01*
X41919927Y-86177008D01*
X41986966Y-86196693D01*
X42007608Y-86213327D01*
X44802256Y-89007976D01*
X44835741Y-89069299D01*
X44830757Y-89138991D01*
X44788885Y-89194924D01*
X44734985Y-89217966D01*
X44588382Y-89242429D01*
X44353197Y-89323169D01*
X44353188Y-89323172D01*
X44134493Y-89441524D01*
X43938257Y-89594261D01*
X43769836Y-89777215D01*
X43692673Y-89895322D01*
X43639526Y-89940678D01*
X43588864Y-89951500D01*
X43534626Y-89951500D01*
X43289344Y-89992429D01*
X43054158Y-90073169D01*
X43054149Y-90073172D01*
X42835454Y-90191524D01*
X42639218Y-90344261D01*
X42470794Y-90527217D01*
X42334787Y-90735393D01*
X42234897Y-90963118D01*
X42173853Y-91204175D01*
X42173851Y-91204187D01*
X42153318Y-91451994D01*
X42153318Y-91452005D01*
X42173851Y-91699812D01*
X42173853Y-91699824D01*
X42234898Y-91940881D01*
X42327586Y-92152190D01*
X42336489Y-92221490D01*
X42327586Y-92251810D01*
X42234898Y-92463118D01*
X42173853Y-92704175D01*
X42173851Y-92704187D01*
X42153318Y-92951994D01*
X42153318Y-92952005D01*
X42173851Y-93199812D01*
X42173853Y-93199824D01*
X42234897Y-93440881D01*
X42334787Y-93668606D01*
X42470794Y-93876782D01*
X42470797Y-93876785D01*
X42639217Y-94059738D01*
X42835452Y-94212474D01*
X42835454Y-94212475D01*
X43030245Y-94317891D01*
X43054151Y-94330828D01*
X43138315Y-94359721D01*
X43279581Y-94408219D01*
X43336596Y-94448605D01*
X43362727Y-94513404D01*
X43349676Y-94582044D01*
X43301587Y-94632732D01*
X43239318Y-94649500D01*
X41582412Y-94649500D01*
X41515373Y-94629815D01*
X41505097Y-94622445D01*
X41502263Y-94620185D01*
X41502262Y-94620184D01*
X41430464Y-94575070D01*
X41349523Y-94524211D01*
X41179254Y-94464631D01*
X41179249Y-94464630D01*
X41000004Y-94444435D01*
X40999996Y-94444435D01*
X40820750Y-94464630D01*
X40820745Y-94464631D01*
X40650476Y-94524211D01*
X40497737Y-94620184D01*
X40370184Y-94747737D01*
X40274211Y-94900476D01*
X40214631Y-95070745D01*
X40214630Y-95070750D01*
X40194435Y-95249996D01*
X40194435Y-95250003D01*
X40214630Y-95429249D01*
X40214631Y-95429254D01*
X40274211Y-95599523D01*
X40370184Y-95752262D01*
X40497738Y-95879816D01*
X40650478Y-95975789D01*
X40748459Y-96010074D01*
X40820745Y-96035368D01*
X40820750Y-96035369D01*
X40999996Y-96055565D01*
X41000000Y-96055565D01*
X41000004Y-96055565D01*
X41179249Y-96035369D01*
X41179252Y-96035368D01*
X41179255Y-96035368D01*
X41349522Y-95975789D01*
X41502262Y-95879816D01*
X41502267Y-95879810D01*
X41505097Y-95877555D01*
X41507275Y-95876665D01*
X41508158Y-95876111D01*
X41508255Y-95876265D01*
X41569783Y-95851145D01*
X41582412Y-95850500D01*
X46949903Y-95850500D01*
X47016942Y-95870185D01*
X47037584Y-95886819D01*
X47807969Y-96657204D01*
X47841454Y-96718527D01*
X47836470Y-96788219D01*
X47807969Y-96832566D01*
X47786455Y-96854080D01*
X47725132Y-96887565D01*
X47655440Y-96882581D01*
X47635654Y-96873131D01*
X47576199Y-96837970D01*
X47576190Y-96837966D01*
X47420918Y-96792855D01*
X47420912Y-96792854D01*
X47400000Y-96791209D01*
X47400000Y-97446000D01*
X47380315Y-97513039D01*
X47327511Y-97558794D01*
X47276000Y-97570000D01*
X47127704Y-97570000D01*
X47115496Y-97576666D01*
X47089138Y-97579500D01*
X46182055Y-97579500D01*
X46116083Y-97560494D01*
X46113377Y-97558794D01*
X46107581Y-97555151D01*
X46061521Y-97526210D01*
X45923036Y-97477752D01*
X45891255Y-97466632D01*
X45891254Y-97466631D01*
X45891246Y-97466629D01*
X45884459Y-97465080D01*
X45885137Y-97462108D01*
X45833165Y-97440197D01*
X45823895Y-97431817D01*
X45714262Y-97322184D01*
X45710786Y-97320000D01*
X46345496Y-97320000D01*
X46900000Y-97320000D01*
X46900000Y-96791210D01*
X46899999Y-96791209D01*
X46879087Y-96792854D01*
X46879081Y-96792855D01*
X46723809Y-96837966D01*
X46723804Y-96837968D01*
X46584625Y-96920278D01*
X46584616Y-96920285D01*
X46470285Y-97034616D01*
X46470278Y-97034625D01*
X46387968Y-97173804D01*
X46345496Y-97320000D01*
X45710786Y-97320000D01*
X45561523Y-97226211D01*
X45391254Y-97166631D01*
X45391249Y-97166630D01*
X45212004Y-97146435D01*
X45211996Y-97146435D01*
X45032750Y-97166630D01*
X45032745Y-97166631D01*
X44862476Y-97226211D01*
X44709739Y-97322183D01*
X44600103Y-97431819D01*
X44539494Y-97464913D01*
X44539533Y-97465083D01*
X44538931Y-97465220D01*
X44538780Y-97465303D01*
X44538012Y-97465430D01*
X44532747Y-97466631D01*
X44362478Y-97526210D01*
X44209737Y-97622184D01*
X44082184Y-97749737D01*
X43986211Y-97902476D01*
X43926631Y-98072745D01*
X43926630Y-98072750D01*
X43906435Y-98251996D01*
X43906435Y-98252003D01*
X43926631Y-98431253D01*
X43926631Y-98431254D01*
X43954551Y-98511047D01*
X43958112Y-98580826D01*
X43954551Y-98592953D01*
X43926631Y-98672745D01*
X43926631Y-98672746D01*
X43906435Y-98851996D01*
X43906435Y-98852003D01*
X43926630Y-99031249D01*
X43926631Y-99031254D01*
X43986211Y-99201522D01*
X43991242Y-99209529D01*
X44010241Y-99276766D01*
X43989873Y-99343601D01*
X43936604Y-99388814D01*
X43886247Y-99399500D01*
X33560571Y-99399500D01*
X33493532Y-99379815D01*
X33472894Y-99363185D01*
X33418574Y-99308865D01*
X33407079Y-99302067D01*
X33280369Y-99227131D01*
X33280364Y-99227129D01*
X33126184Y-99182335D01*
X33126178Y-99182334D01*
X33090157Y-99179500D01*
X32691806Y-99179500D01*
X32691784Y-99179501D01*
X32655770Y-99182335D01*
X32501587Y-99227129D01*
X32501584Y-99227130D01*
X32444097Y-99261128D01*
X32376373Y-99278310D01*
X32317857Y-99261128D01*
X32260369Y-99227130D01*
X32260366Y-99227129D01*
X32106186Y-99182335D01*
X32106180Y-99182334D01*
X32070159Y-99179500D01*
X31671808Y-99179500D01*
X31671786Y-99179501D01*
X31635772Y-99182335D01*
X31481589Y-99227129D01*
X31481584Y-99227131D01*
X31343382Y-99308863D01*
X31343378Y-99308866D01*
X31281291Y-99370953D01*
X31225705Y-99403046D01*
X31086213Y-99440423D01*
X31040822Y-99466631D01*
X31040821Y-99466631D01*
X30949287Y-99519477D01*
X30949282Y-99519481D01*
X30837478Y-99631286D01*
X29507341Y-100961422D01*
X29446018Y-100994907D01*
X29376326Y-100989923D01*
X29331979Y-100961422D01*
X27856819Y-99486262D01*
X27823334Y-99424939D01*
X27820500Y-99398581D01*
X27820500Y-99302067D01*
X27820499Y-99302052D01*
X27817609Y-99265326D01*
X27817608Y-99265320D01*
X27771933Y-99108107D01*
X27771931Y-99108104D01*
X27771931Y-99108103D01*
X27688590Y-98967180D01*
X27688588Y-98967178D01*
X27688585Y-98967174D01*
X27572825Y-98851414D01*
X27572817Y-98851408D01*
X27431895Y-98768068D01*
X27431892Y-98768066D01*
X27274679Y-98722391D01*
X27274673Y-98722390D01*
X27237947Y-98719500D01*
X27237940Y-98719500D01*
X26762060Y-98719500D01*
X26762052Y-98719500D01*
X26725326Y-98722390D01*
X26725320Y-98722391D01*
X26568107Y-98768066D01*
X26568104Y-98768068D01*
X26427182Y-98851408D01*
X26427174Y-98851414D01*
X26311414Y-98967174D01*
X26311408Y-98967182D01*
X26228068Y-99108104D01*
X26228066Y-99108107D01*
X26182391Y-99265320D01*
X26182390Y-99265326D01*
X26179500Y-99302052D01*
X26179500Y-99727947D01*
X26182390Y-99764673D01*
X26182391Y-99764679D01*
X26228067Y-99921894D01*
X26236931Y-99936883D01*
X26254110Y-100004608D01*
X26236931Y-100063117D01*
X26228067Y-100078105D01*
X26182391Y-100235320D01*
X26182390Y-100235326D01*
X26179500Y-100272052D01*
X26179500Y-100697947D01*
X26182390Y-100734673D01*
X26182391Y-100734679D01*
X26228066Y-100891892D01*
X26228068Y-100891895D01*
X26311408Y-101032817D01*
X26311414Y-101032825D01*
X26427174Y-101148585D01*
X26427178Y-101148588D01*
X26427180Y-101148590D01*
X26568103Y-101231931D01*
X26568104Y-101231931D01*
X26568107Y-101231933D01*
X26725320Y-101277608D01*
X26725323Y-101277608D01*
X26725325Y-101277609D01*
X26762060Y-101280500D01*
X26762068Y-101280500D01*
X27237932Y-101280500D01*
X27237940Y-101280500D01*
X27274675Y-101277609D01*
X27288972Y-101273455D01*
X27358840Y-101273653D01*
X27411249Y-101304850D01*
X28263181Y-102156781D01*
X28296666Y-102218104D01*
X28299500Y-102244462D01*
X28299500Y-106431803D01*
X28279815Y-106498842D01*
X28263181Y-106519484D01*
X28234749Y-106547916D01*
X28180205Y-106579725D01*
X28172716Y-106581801D01*
X28172706Y-106581804D01*
X27725519Y-106744568D01*
X27691993Y-106759847D01*
X27559875Y-106856542D01*
X27455953Y-106983058D01*
X27455952Y-106983058D01*
X27386762Y-107131440D01*
X27356645Y-107292367D01*
X27356645Y-107292372D01*
X27364419Y-107409432D01*
X27349220Y-107477629D01*
X27348080Y-107479648D01*
X27330579Y-107509960D01*
X27316937Y-107560870D01*
X27289655Y-107662689D01*
X27289655Y-107662690D01*
X27289655Y-107662691D01*
X27289655Y-107830792D01*
X27289656Y-107830805D01*
X27289656Y-108518750D01*
X27289655Y-108518768D01*
X27289655Y-108523342D01*
X27289343Y-108524404D01*
X27288898Y-108532444D01*
X27288897Y-108532453D01*
X27287040Y-108532246D01*
X27269970Y-108590381D01*
X27217166Y-108636136D01*
X27148008Y-108646080D01*
X27084452Y-108617055D01*
X27048851Y-108564970D01*
X27040750Y-108542238D01*
X26762150Y-107760506D01*
X26760594Y-107755844D01*
X26468528Y-106818568D01*
X26467152Y-106813819D01*
X26213053Y-105865511D01*
X26211861Y-105860673D01*
X26109175Y-105404735D01*
X25996167Y-104902963D01*
X25995169Y-104898074D01*
X25954377Y-104675478D01*
X25818208Y-103932431D01*
X25817410Y-103927518D01*
X25815597Y-103914745D01*
X25679478Y-102955551D01*
X25678878Y-102950606D01*
X25677210Y-102934097D01*
X25580193Y-101973860D01*
X25579793Y-101968901D01*
X25520517Y-100988954D01*
X25520319Y-100984027D01*
X25500550Y-100002482D01*
X25500550Y-99997503D01*
X25520319Y-99015970D01*
X25520517Y-99011047D01*
X25579794Y-98031076D01*
X25580195Y-98026120D01*
X25582949Y-97998868D01*
X25678879Y-97049376D01*
X25679480Y-97044436D01*
X25680036Y-97040520D01*
X25817413Y-96072457D01*
X25818206Y-96067576D01*
X25995171Y-95101911D01*
X25996168Y-95097032D01*
X26211866Y-94139304D01*
X26213056Y-94134477D01*
X26467155Y-93186167D01*
X26468524Y-93181444D01*
X26760599Y-92244140D01*
X26762144Y-92239508D01*
X27091747Y-91314665D01*
X27093489Y-91310073D01*
X27460047Y-90399291D01*
X27461965Y-90394788D01*
X27864903Y-89499496D01*
X27867018Y-89495039D01*
X28305671Y-88616714D01*
X28307959Y-88612355D01*
X28781623Y-87752406D01*
X28784083Y-87748144D01*
X29292000Y-86907946D01*
X29294608Y-86903821D01*
X29835952Y-86084747D01*
X29838744Y-86080702D01*
X30412626Y-85284093D01*
X30415561Y-85280188D01*
X31021053Y-84507335D01*
X31024176Y-84503511D01*
X31660232Y-83755740D01*
X31663536Y-83752010D01*
X32329245Y-83030394D01*
X32332657Y-83026843D01*
X33026843Y-82332657D01*
X33030394Y-82329245D01*
X33752018Y-81663528D01*
X33755749Y-81660225D01*
X34503511Y-81024176D01*
X34507335Y-81021053D01*
X35280188Y-80415561D01*
X35284093Y-80412626D01*
X36080702Y-79838744D01*
X36084747Y-79835952D01*
X36903821Y-79294608D01*
X36907946Y-79292000D01*
X37748144Y-78784083D01*
X37752406Y-78781623D01*
X38612355Y-78307959D01*
X38616714Y-78305671D01*
X39495039Y-77867018D01*
X39499496Y-77864903D01*
X40394788Y-77461965D01*
X40399291Y-77460047D01*
X41310073Y-77093489D01*
X41314665Y-77091747D01*
X42239508Y-76762144D01*
X42244140Y-76760599D01*
X43181444Y-76468524D01*
X43186167Y-76467155D01*
X44134499Y-76213050D01*
X44139304Y-76211866D01*
X45097046Y-75996165D01*
X45101911Y-75995171D01*
X46067576Y-75818206D01*
X46072457Y-75817413D01*
X47044454Y-75679477D01*
X47049376Y-75678879D01*
X48026143Y-75580193D01*
X48031076Y-75579794D01*
X49011047Y-75520517D01*
X49015970Y-75520319D01*
X49997518Y-75500550D01*
X50002482Y-75500550D01*
X50984027Y-75520319D01*
G37*
%TD.AperFunction*%
%TA.AperFunction,Conductor*%
G36*
X50043334Y-97317425D02*
G01*
X50087681Y-97345926D01*
X50153858Y-97412103D01*
X50153878Y-97412121D01*
X50226821Y-97469424D01*
X50247728Y-97490330D01*
X50305041Y-97563285D01*
X50305053Y-97563298D01*
X50436701Y-97694946D01*
X50436721Y-97694964D01*
X50509664Y-97752267D01*
X50530571Y-97773173D01*
X50587884Y-97846128D01*
X50587896Y-97846141D01*
X50654074Y-97912319D01*
X50687559Y-97973642D01*
X50682575Y-98043334D01*
X50654074Y-98087681D01*
X50587896Y-98153858D01*
X50587884Y-98153871D01*
X50530573Y-98226824D01*
X50509667Y-98247730D01*
X50436714Y-98305041D01*
X50436701Y-98305053D01*
X50305053Y-98436701D01*
X50305041Y-98436714D01*
X50247730Y-98509667D01*
X50226824Y-98530573D01*
X50153871Y-98587884D01*
X50153858Y-98587896D01*
X50087681Y-98654074D01*
X50026358Y-98687559D01*
X49956666Y-98682575D01*
X49912319Y-98654074D01*
X49846141Y-98587896D01*
X49846128Y-98587884D01*
X49773173Y-98530571D01*
X49752267Y-98509664D01*
X49694964Y-98436721D01*
X49694946Y-98436701D01*
X49563298Y-98305053D01*
X49563285Y-98305041D01*
X49490330Y-98247728D01*
X49469424Y-98226821D01*
X49412121Y-98153878D01*
X49412103Y-98153858D01*
X49345572Y-98087327D01*
X49312087Y-98026004D01*
X49317071Y-97956312D01*
X49345572Y-97911964D01*
X49411728Y-97845808D01*
X49411738Y-97845797D01*
X49467763Y-97774482D01*
X49488670Y-97753574D01*
X49493222Y-97749997D01*
X49493226Y-97749996D01*
X49563289Y-97694955D01*
X49694955Y-97563289D01*
X49749996Y-97493226D01*
X49749996Y-97493223D01*
X49752268Y-97490333D01*
X49773176Y-97469425D01*
X49776066Y-97467153D01*
X49776069Y-97467153D01*
X49846132Y-97412112D01*
X49847094Y-97411150D01*
X49912319Y-97345926D01*
X49973642Y-97312441D01*
X50043334Y-97317425D01*
G37*
%TD.AperFunction*%
%TD*%
M02*
