%TF.GenerationSoftware,KiCad,Pcbnew,9.0.0*%
%TF.CreationDate,2025-02-26T13:29:12-06:00*%
%TF.ProjectId,reverse,72657665-7273-4652-9e6b-696361645f70,rev?*%
%TF.SameCoordinates,Original*%
%TF.FileFunction,Legend,Top*%
%TF.FilePolarity,Positive*%
%FSLAX46Y46*%
G04 Gerber Fmt 4.6, Leading zero omitted, Abs format (unit mm)*
G04 Created by KiCad (PCBNEW 9.0.0) date 2025-02-26 13:29:12*
%MOMM*%
%LPD*%
G01*
G04 APERTURE LIST*
G04 Aperture macros list*
%AMRoundRect*
0 Rectangle with rounded corners*
0 $1 Rounding radius*
0 $2 $3 $4 $5 $6 $7 $8 $9 X,Y pos of 4 corners*
0 Add a 4 corners polygon primitive as box body*
4,1,4,$2,$3,$4,$5,$6,$7,$8,$9,$2,$3,0*
0 Add four circle primitives for the rounded corners*
1,1,$1+$1,$2,$3*
1,1,$1+$1,$4,$5*
1,1,$1+$1,$6,$7*
1,1,$1+$1,$8,$9*
0 Add four rect primitives between the rounded corners*
20,1,$1+$1,$2,$3,$4,$5,0*
20,1,$1+$1,$4,$5,$6,$7,0*
20,1,$1+$1,$6,$7,$8,$9,0*
20,1,$1+$1,$8,$9,$2,$3,0*%
%AMRotRect*
0 Rectangle, with rotation*
0 The origin of the aperture is its center*
0 $1 length*
0 $2 width*
0 $3 Rotation angle, in degrees counterclockwise*
0 Add horizontal line*
21,1,$1,$2,0,0,$3*%
G04 Aperture macros list end*
%ADD10C,0.100000*%
%ADD11C,0.150000*%
%ADD12C,1.000000*%
%ADD13C,0.120000*%
%ADD14C,2.000000*%
%ADD15RoundRect,0.135000X-0.226274X-0.035355X-0.035355X-0.226274X0.226274X0.035355X0.035355X0.226274X0*%
%ADD16RoundRect,0.135000X0.035355X-0.226274X0.226274X-0.035355X-0.035355X0.226274X-0.226274X0.035355X0*%
%ADD17RoundRect,0.147500X-0.226954X0.002111X-0.037331X-0.223872X0.226954X-0.002111X0.037331X0.223872X0*%
%ADD18R,1.000000X1.000000*%
%ADD19O,1.000000X1.000000*%
%ADD20RoundRect,0.135000X-0.135000X-0.185000X0.135000X-0.185000X0.135000X0.185000X-0.135000X0.185000X0*%
%ADD21RoundRect,0.147500X0.041489X0.223139X-0.213989X0.075639X-0.041489X-0.223139X0.213989X-0.075639X0*%
%ADD22RoundRect,0.147500X0.212545X-0.079606X0.111649X0.197603X-0.212545X0.079606X-0.111649X-0.197603X0*%
%ADD23RoundRect,0.147500X-0.037331X0.223872X-0.226954X-0.002111X0.037331X-0.223872X0.226954X0.002111X0*%
%ADD24RoundRect,0.147500X-0.213989X-0.075639X0.041489X-0.223139X0.213989X0.075639X-0.041489X0.223139X0*%
%ADD25RoundRect,0.050000X-0.300520X0.229810X0.229810X-0.300520X0.300520X-0.229810X-0.229810X0.300520X0*%
%ADD26RoundRect,0.050000X-0.300520X-0.229810X-0.229810X-0.300520X0.300520X0.229810X0.229810X0.300520X0*%
%ADD27RotRect,1.650000X1.650000X315.000000*%
%ADD28RoundRect,0.135000X0.135000X0.185000X-0.135000X0.185000X-0.135000X-0.185000X0.135000X-0.185000X0*%
%ADD29RoundRect,0.147500X-0.172500X0.147500X-0.172500X-0.147500X0.172500X-0.147500X0.172500X0.147500X0*%
%ADD30RoundRect,0.147500X0.115305X0.195492X-0.175213X0.144266X-0.115305X-0.195492X0.175213X-0.144266X0*%
%ADD31RoundRect,0.140000X0.170000X-0.140000X0.170000X0.140000X-0.170000X0.140000X-0.170000X-0.140000X0*%
%ADD32RoundRect,0.147500X0.037331X-0.223872X0.226954X0.002111X-0.037331X0.223872X-0.226954X-0.002111X0*%
%ADD33C,1.600000*%
%ADD34RoundRect,0.147500X-0.212545X0.079606X-0.111649X-0.197603X0.212545X-0.079606X0.111649X0.197603X0*%
%ADD35RoundRect,0.135000X0.226274X0.035355X0.035355X0.226274X-0.226274X-0.035355X-0.035355X-0.226274X0*%
%ADD36RoundRect,0.147500X-0.041489X-0.223139X0.213989X-0.075639X0.041489X0.223139X-0.213989X0.075639X0*%
%ADD37RoundRect,0.147500X0.213989X0.075639X-0.041489X0.223139X-0.213989X-0.075639X0.041489X-0.223139X0*%
%ADD38RoundRect,0.147500X0.172500X-0.147500X0.172500X0.147500X-0.172500X0.147500X-0.172500X-0.147500X0*%
%ADD39RoundRect,0.135000X-0.035355X0.226274X-0.226274X0.035355X0.035355X-0.226274X0.226274X-0.035355X0*%
%ADD40C,10.000000*%
%ADD41RoundRect,0.147500X-0.111649X0.197603X-0.212545X-0.079606X0.111649X-0.197603X0.212545X0.079606X0*%
%ADD42O,1.200000X4.200000*%
%ADD43C,4.000000*%
%ADD44RoundRect,0.147500X0.175213X0.144266X-0.115305X0.195492X-0.175213X-0.144266X0.115305X-0.195492X0*%
%ADD45RoundRect,0.147500X0.111649X-0.197603X0.212545X0.079606X-0.111649X0.197603X-0.212545X-0.079606X0*%
%ADD46RoundRect,0.147500X0.226954X-0.002111X0.037331X0.223872X-0.226954X0.002111X-0.037331X-0.223872X0*%
G04 APERTURE END LIST*
D10*
X55380951Y-49457419D02*
X55380951Y-50171704D01*
X55380951Y-50171704D02*
X55333332Y-50314561D01*
X55333332Y-50314561D02*
X55238094Y-50409800D01*
X55238094Y-50409800D02*
X55095237Y-50457419D01*
X55095237Y-50457419D02*
X54999999Y-50457419D01*
X56333332Y-50457419D02*
X55857142Y-50457419D01*
X55857142Y-50457419D02*
X55857142Y-49457419D01*
X57238094Y-50362180D02*
X57190475Y-50409800D01*
X57190475Y-50409800D02*
X57047618Y-50457419D01*
X57047618Y-50457419D02*
X56952380Y-50457419D01*
X56952380Y-50457419D02*
X56809523Y-50409800D01*
X56809523Y-50409800D02*
X56714285Y-50314561D01*
X56714285Y-50314561D02*
X56666666Y-50219323D01*
X56666666Y-50219323D02*
X56619047Y-50028847D01*
X56619047Y-50028847D02*
X56619047Y-49885990D01*
X56619047Y-49885990D02*
X56666666Y-49695514D01*
X56666666Y-49695514D02*
X56714285Y-49600276D01*
X56714285Y-49600276D02*
X56809523Y-49505038D01*
X56809523Y-49505038D02*
X56952380Y-49457419D01*
X56952380Y-49457419D02*
X57047618Y-49457419D01*
X57047618Y-49457419D02*
X57190475Y-49505038D01*
X57190475Y-49505038D02*
X57238094Y-49552657D01*
X57952380Y-49457419D02*
X57952380Y-50171704D01*
X57952380Y-50171704D02*
X57904761Y-50314561D01*
X57904761Y-50314561D02*
X57809523Y-50409800D01*
X57809523Y-50409800D02*
X57666666Y-50457419D01*
X57666666Y-50457419D02*
X57571428Y-50457419D01*
X58904761Y-50457419D02*
X58428571Y-50457419D01*
X58428571Y-50457419D02*
X58428571Y-49457419D01*
X59809523Y-50362180D02*
X59761904Y-50409800D01*
X59761904Y-50409800D02*
X59619047Y-50457419D01*
X59619047Y-50457419D02*
X59523809Y-50457419D01*
X59523809Y-50457419D02*
X59380952Y-50409800D01*
X59380952Y-50409800D02*
X59285714Y-50314561D01*
X59285714Y-50314561D02*
X59238095Y-50219323D01*
X59238095Y-50219323D02*
X59190476Y-50028847D01*
X59190476Y-50028847D02*
X59190476Y-49885990D01*
X59190476Y-49885990D02*
X59238095Y-49695514D01*
X59238095Y-49695514D02*
X59285714Y-49600276D01*
X59285714Y-49600276D02*
X59380952Y-49505038D01*
X59380952Y-49505038D02*
X59523809Y-49457419D01*
X59523809Y-49457419D02*
X59619047Y-49457419D01*
X59619047Y-49457419D02*
X59761904Y-49505038D01*
X59761904Y-49505038D02*
X59809523Y-49552657D01*
X60523809Y-49457419D02*
X60523809Y-50171704D01*
X60523809Y-50171704D02*
X60476190Y-50314561D01*
X60476190Y-50314561D02*
X60380952Y-50409800D01*
X60380952Y-50409800D02*
X60238095Y-50457419D01*
X60238095Y-50457419D02*
X60142857Y-50457419D01*
X61476190Y-50457419D02*
X61000000Y-50457419D01*
X61000000Y-50457419D02*
X61000000Y-49457419D01*
X62380952Y-50362180D02*
X62333333Y-50409800D01*
X62333333Y-50409800D02*
X62190476Y-50457419D01*
X62190476Y-50457419D02*
X62095238Y-50457419D01*
X62095238Y-50457419D02*
X61952381Y-50409800D01*
X61952381Y-50409800D02*
X61857143Y-50314561D01*
X61857143Y-50314561D02*
X61809524Y-50219323D01*
X61809524Y-50219323D02*
X61761905Y-50028847D01*
X61761905Y-50028847D02*
X61761905Y-49885990D01*
X61761905Y-49885990D02*
X61809524Y-49695514D01*
X61809524Y-49695514D02*
X61857143Y-49600276D01*
X61857143Y-49600276D02*
X61952381Y-49505038D01*
X61952381Y-49505038D02*
X62095238Y-49457419D01*
X62095238Y-49457419D02*
X62190476Y-49457419D01*
X62190476Y-49457419D02*
X62333333Y-49505038D01*
X62333333Y-49505038D02*
X62380952Y-49552657D01*
X63095238Y-49457419D02*
X63095238Y-50171704D01*
X63095238Y-50171704D02*
X63047619Y-50314561D01*
X63047619Y-50314561D02*
X62952381Y-50409800D01*
X62952381Y-50409800D02*
X62809524Y-50457419D01*
X62809524Y-50457419D02*
X62714286Y-50457419D01*
X64047619Y-50457419D02*
X63571429Y-50457419D01*
X63571429Y-50457419D02*
X63571429Y-49457419D01*
X64952381Y-50362180D02*
X64904762Y-50409800D01*
X64904762Y-50409800D02*
X64761905Y-50457419D01*
X64761905Y-50457419D02*
X64666667Y-50457419D01*
X64666667Y-50457419D02*
X64523810Y-50409800D01*
X64523810Y-50409800D02*
X64428572Y-50314561D01*
X64428572Y-50314561D02*
X64380953Y-50219323D01*
X64380953Y-50219323D02*
X64333334Y-50028847D01*
X64333334Y-50028847D02*
X64333334Y-49885990D01*
X64333334Y-49885990D02*
X64380953Y-49695514D01*
X64380953Y-49695514D02*
X64428572Y-49600276D01*
X64428572Y-49600276D02*
X64523810Y-49505038D01*
X64523810Y-49505038D02*
X64666667Y-49457419D01*
X64666667Y-49457419D02*
X64761905Y-49457419D01*
X64761905Y-49457419D02*
X64904762Y-49505038D01*
X64904762Y-49505038D02*
X64952381Y-49552657D01*
D11*
X61887858Y-64160554D02*
X61988873Y-63588135D01*
X61483797Y-63756493D02*
X62190904Y-63049387D01*
X62190904Y-63049387D02*
X62460278Y-63318761D01*
X62460278Y-63318761D02*
X62493950Y-63419776D01*
X62493950Y-63419776D02*
X62493950Y-63487119D01*
X62493950Y-63487119D02*
X62460278Y-63588135D01*
X62460278Y-63588135D02*
X62359263Y-63689150D01*
X62359263Y-63689150D02*
X62258247Y-63722822D01*
X62258247Y-63722822D02*
X62190904Y-63722822D01*
X62190904Y-63722822D02*
X62089889Y-63689150D01*
X62089889Y-63689150D02*
X61820515Y-63419776D01*
X62695980Y-64160554D02*
X62662308Y-64059539D01*
X62662308Y-64059539D02*
X62662308Y-63992196D01*
X62662308Y-63992196D02*
X62695980Y-63891180D01*
X62695980Y-63891180D02*
X62729652Y-63857509D01*
X62729652Y-63857509D02*
X62830667Y-63823837D01*
X62830667Y-63823837D02*
X62898011Y-63823837D01*
X62898011Y-63823837D02*
X62999026Y-63857509D01*
X62999026Y-63857509D02*
X63133713Y-63992196D01*
X63133713Y-63992196D02*
X63167385Y-64093211D01*
X63167385Y-64093211D02*
X63167385Y-64160554D01*
X63167385Y-64160554D02*
X63133713Y-64261570D01*
X63133713Y-64261570D02*
X63100041Y-64295241D01*
X63100041Y-64295241D02*
X62999026Y-64328913D01*
X62999026Y-64328913D02*
X62931682Y-64328913D01*
X62931682Y-64328913D02*
X62830667Y-64295241D01*
X62830667Y-64295241D02*
X62695980Y-64160554D01*
X62695980Y-64160554D02*
X62594965Y-64126883D01*
X62594965Y-64126883D02*
X62527621Y-64126883D01*
X62527621Y-64126883D02*
X62426606Y-64160554D01*
X62426606Y-64160554D02*
X62291919Y-64295241D01*
X62291919Y-64295241D02*
X62258247Y-64396257D01*
X62258247Y-64396257D02*
X62258247Y-64463600D01*
X62258247Y-64463600D02*
X62291919Y-64564615D01*
X62291919Y-64564615D02*
X62426606Y-64699302D01*
X62426606Y-64699302D02*
X62527621Y-64732974D01*
X62527621Y-64732974D02*
X62594965Y-64732974D01*
X62594965Y-64732974D02*
X62695980Y-64699302D01*
X62695980Y-64699302D02*
X62830667Y-64564615D01*
X62830667Y-64564615D02*
X62864339Y-64463600D01*
X62864339Y-64463600D02*
X62864339Y-64396257D01*
X62864339Y-64396257D02*
X62830667Y-64295241D01*
X60876439Y-34828025D02*
X60304020Y-34727010D01*
X60472378Y-35232086D02*
X59765272Y-34524979D01*
X59765272Y-34524979D02*
X60034646Y-34255605D01*
X60034646Y-34255605D02*
X60135661Y-34221933D01*
X60135661Y-34221933D02*
X60203004Y-34221933D01*
X60203004Y-34221933D02*
X60304020Y-34255605D01*
X60304020Y-34255605D02*
X60405035Y-34356620D01*
X60405035Y-34356620D02*
X60438707Y-34457636D01*
X60438707Y-34457636D02*
X60438707Y-34524979D01*
X60438707Y-34524979D02*
X60405035Y-34625994D01*
X60405035Y-34625994D02*
X60135661Y-34895368D01*
X60775424Y-33514827D02*
X60640737Y-33649514D01*
X60640737Y-33649514D02*
X60607065Y-33750529D01*
X60607065Y-33750529D02*
X60607065Y-33817872D01*
X60607065Y-33817872D02*
X60640737Y-33986231D01*
X60640737Y-33986231D02*
X60741752Y-34154590D01*
X60741752Y-34154590D02*
X61011126Y-34423964D01*
X61011126Y-34423964D02*
X61112142Y-34457636D01*
X61112142Y-34457636D02*
X61179485Y-34457636D01*
X61179485Y-34457636D02*
X61280500Y-34423964D01*
X61280500Y-34423964D02*
X61415187Y-34289277D01*
X61415187Y-34289277D02*
X61448859Y-34188262D01*
X61448859Y-34188262D02*
X61448859Y-34120918D01*
X61448859Y-34120918D02*
X61415187Y-34019903D01*
X61415187Y-34019903D02*
X61246829Y-33851544D01*
X61246829Y-33851544D02*
X61145813Y-33817872D01*
X61145813Y-33817872D02*
X61078470Y-33817872D01*
X61078470Y-33817872D02*
X60977455Y-33851544D01*
X60977455Y-33851544D02*
X60842768Y-33986231D01*
X60842768Y-33986231D02*
X60809096Y-34087246D01*
X60809096Y-34087246D02*
X60809096Y-34154590D01*
X60809096Y-34154590D02*
X60842768Y-34255605D01*
X30792083Y-65153841D02*
X31558127Y-64511054D01*
X31558127Y-64511054D02*
X31711172Y-64693445D01*
X31711172Y-64693445D02*
X31766520Y-64833489D01*
X31766520Y-64833489D02*
X31754782Y-64967663D01*
X31754782Y-64967663D02*
X31712434Y-65065360D01*
X31712434Y-65065360D02*
X31597130Y-65224274D01*
X31597130Y-65224274D02*
X31487695Y-65316100D01*
X31487695Y-65316100D02*
X31311173Y-65402058D01*
X31311173Y-65402058D02*
X31207607Y-65426797D01*
X31207607Y-65426797D02*
X31073433Y-65415059D01*
X31073433Y-65415059D02*
X30945127Y-65336233D01*
X30945127Y-65336233D02*
X30792083Y-65153841D01*
X32097349Y-65301838D02*
X32164436Y-65307707D01*
X32164436Y-65307707D02*
X32262133Y-65350055D01*
X32262133Y-65350055D02*
X32415177Y-65532446D01*
X32415177Y-65532446D02*
X32439917Y-65636012D01*
X32439917Y-65636012D02*
X32434048Y-65703099D01*
X32434048Y-65703099D02*
X32391700Y-65800795D01*
X32391700Y-65800795D02*
X32318743Y-65862013D01*
X32318743Y-65862013D02*
X32178699Y-65917361D01*
X32178699Y-65917361D02*
X31373652Y-65846929D01*
X31373652Y-65846929D02*
X31771569Y-66321147D01*
X67452356Y-49284819D02*
X67119023Y-48808628D01*
X66880928Y-49284819D02*
X66880928Y-48284819D01*
X66880928Y-48284819D02*
X67261880Y-48284819D01*
X67261880Y-48284819D02*
X67357118Y-48332438D01*
X67357118Y-48332438D02*
X67404737Y-48380057D01*
X67404737Y-48380057D02*
X67452356Y-48475295D01*
X67452356Y-48475295D02*
X67452356Y-48618152D01*
X67452356Y-48618152D02*
X67404737Y-48713390D01*
X67404737Y-48713390D02*
X67357118Y-48761009D01*
X67357118Y-48761009D02*
X67261880Y-48808628D01*
X67261880Y-48808628D02*
X66880928Y-48808628D01*
X67785690Y-48284819D02*
X68452356Y-48284819D01*
X68452356Y-48284819D02*
X68023785Y-49284819D01*
X37588199Y-29978322D02*
X37088199Y-29112296D01*
X37088199Y-29112296D02*
X37294396Y-28993249D01*
X37294396Y-28993249D02*
X37441923Y-28963059D01*
X37441923Y-28963059D02*
X37572021Y-28997919D01*
X37572021Y-28997919D02*
X37660879Y-29056588D01*
X37660879Y-29056588D02*
X37797357Y-29197736D01*
X37797357Y-29197736D02*
X37868785Y-29321454D01*
X37868785Y-29321454D02*
X37922784Y-29510220D01*
X37922784Y-29510220D02*
X37929164Y-29616509D01*
X37929164Y-29616509D02*
X37894304Y-29746606D01*
X37894304Y-29746606D02*
X37794396Y-29859274D01*
X37794396Y-29859274D02*
X37588199Y-29978322D01*
X37871746Y-28659915D02*
X38449096Y-28326582D01*
X38449096Y-28326582D02*
X38577943Y-29406893D01*
X71709922Y-40806017D02*
X72649615Y-40463997D01*
X72649615Y-40463997D02*
X72731048Y-40687734D01*
X72731048Y-40687734D02*
X72735161Y-40838262D01*
X72735161Y-40838262D02*
X72678240Y-40960330D01*
X72678240Y-40960330D02*
X72605032Y-41037651D01*
X72605032Y-41037651D02*
X72442330Y-41147545D01*
X72442330Y-41147545D02*
X72308088Y-41196405D01*
X72308088Y-41196405D02*
X72112812Y-41216804D01*
X72112812Y-41216804D02*
X72007031Y-41204630D01*
X72007031Y-41204630D02*
X71884963Y-41147709D01*
X71884963Y-41147709D02*
X71791356Y-41029754D01*
X71791356Y-41029754D02*
X71709922Y-40806017D01*
X72231096Y-42237930D02*
X72035656Y-41700963D01*
X72133376Y-41969446D02*
X73073068Y-41627426D01*
X73073068Y-41627426D02*
X72906253Y-41586792D01*
X72906253Y-41586792D02*
X72784185Y-41529871D01*
X72784185Y-41529871D02*
X72706865Y-41456663D01*
X73211587Y-42286461D02*
X73272621Y-42314922D01*
X73272621Y-42314922D02*
X73349942Y-42388130D01*
X73349942Y-42388130D02*
X73431375Y-42611866D01*
X73431375Y-42611866D02*
X73419201Y-42717647D01*
X73419201Y-42717647D02*
X73390741Y-42778681D01*
X73390741Y-42778681D02*
X73317533Y-42856002D01*
X73317533Y-42856002D02*
X73228038Y-42888575D01*
X73228038Y-42888575D02*
X73077510Y-42892688D01*
X73077510Y-42892688D02*
X72345102Y-42551161D01*
X72345102Y-42551161D02*
X72556829Y-43132875D01*
X31488906Y-35430861D02*
X30722861Y-34788073D01*
X30722861Y-34788073D02*
X30875906Y-34605682D01*
X30875906Y-34605682D02*
X31004211Y-34526856D01*
X31004211Y-34526856D02*
X31138386Y-34515117D01*
X31138386Y-34515117D02*
X31241951Y-34539857D01*
X31241951Y-34539857D02*
X31418473Y-34625814D01*
X31418473Y-34625814D02*
X31527908Y-34717641D01*
X31527908Y-34717641D02*
X31643213Y-34876555D01*
X31643213Y-34876555D02*
X31685560Y-34974251D01*
X31685560Y-34974251D02*
X31697299Y-35108426D01*
X31697299Y-35108426D02*
X31641951Y-35248469D01*
X31641951Y-35248469D02*
X31488906Y-35430861D01*
X31641130Y-33693724D02*
X31518694Y-33839637D01*
X31518694Y-33839637D02*
X31493954Y-33943203D01*
X31493954Y-33943203D02*
X31499824Y-34010290D01*
X31499824Y-34010290D02*
X31548041Y-34175074D01*
X31548041Y-34175074D02*
X31663345Y-34333988D01*
X31663345Y-34333988D02*
X31955171Y-34578859D01*
X31955171Y-34578859D02*
X32058737Y-34603599D01*
X32058737Y-34603599D02*
X32125824Y-34597729D01*
X32125824Y-34597729D02*
X32223520Y-34555382D01*
X32223520Y-34555382D02*
X32345956Y-34409468D01*
X32345956Y-34409468D02*
X32370696Y-34305903D01*
X32370696Y-34305903D02*
X32364826Y-34238816D01*
X32364826Y-34238816D02*
X32322479Y-34141119D01*
X32322479Y-34141119D02*
X32140087Y-33988075D01*
X32140087Y-33988075D02*
X32036522Y-33963335D01*
X32036522Y-33963335D02*
X31969434Y-33969205D01*
X31969434Y-33969205D02*
X31871738Y-34011552D01*
X31871738Y-34011552D02*
X31749302Y-34157465D01*
X31749302Y-34157465D02*
X31724563Y-34261031D01*
X31724563Y-34261031D02*
X31730432Y-34328118D01*
X31730432Y-34328118D02*
X31772780Y-34425814D01*
X37133381Y-70809446D02*
X37633381Y-69943421D01*
X37633381Y-69943421D02*
X37839578Y-70062468D01*
X37839578Y-70062468D02*
X37939486Y-70175136D01*
X37939486Y-70175136D02*
X37974346Y-70305234D01*
X37974346Y-70305234D02*
X37967966Y-70411522D01*
X37967966Y-70411522D02*
X37913967Y-70600289D01*
X37913967Y-70600289D02*
X37842539Y-70724007D01*
X37842539Y-70724007D02*
X37706061Y-70865154D01*
X37706061Y-70865154D02*
X37617203Y-70923823D01*
X37617203Y-70923823D02*
X37487105Y-70958683D01*
X37487105Y-70958683D02*
X37339578Y-70928494D01*
X37339578Y-70928494D02*
X37133381Y-70809446D01*
X38453039Y-71571351D02*
X37958167Y-71285636D01*
X38205603Y-71428494D02*
X38705603Y-70562468D01*
X38705603Y-70562468D02*
X38551696Y-70638567D01*
X38551696Y-70638567D02*
X38421598Y-70673427D01*
X38421598Y-70673427D02*
X38315310Y-70667047D01*
X51847865Y-45074638D02*
X51275445Y-45647058D01*
X51275445Y-45647058D02*
X51241773Y-45748073D01*
X51241773Y-45748073D02*
X51241773Y-45815417D01*
X51241773Y-45815417D02*
X51275445Y-45916432D01*
X51275445Y-45916432D02*
X51410132Y-46051119D01*
X51410132Y-46051119D02*
X51511147Y-46084791D01*
X51511147Y-46084791D02*
X51578491Y-46084791D01*
X51578491Y-46084791D02*
X51679506Y-46051119D01*
X51679506Y-46051119D02*
X52251926Y-45478699D01*
X52251926Y-46892913D02*
X51847865Y-46488852D01*
X52049895Y-46690882D02*
X52757002Y-45983776D01*
X52757002Y-45983776D02*
X52588643Y-46017447D01*
X52588643Y-46017447D02*
X52453956Y-46017447D01*
X52453956Y-46017447D02*
X52352941Y-45983776D01*
X32214310Y-51624819D02*
X31880977Y-51148628D01*
X31642882Y-51624819D02*
X31642882Y-50624819D01*
X31642882Y-50624819D02*
X32023834Y-50624819D01*
X32023834Y-50624819D02*
X32119072Y-50672438D01*
X32119072Y-50672438D02*
X32166691Y-50720057D01*
X32166691Y-50720057D02*
X32214310Y-50815295D01*
X32214310Y-50815295D02*
X32214310Y-50958152D01*
X32214310Y-50958152D02*
X32166691Y-51053390D01*
X32166691Y-51053390D02*
X32119072Y-51101009D01*
X32119072Y-51101009D02*
X32023834Y-51148628D01*
X32023834Y-51148628D02*
X31642882Y-51148628D01*
X32595263Y-50720057D02*
X32642882Y-50672438D01*
X32642882Y-50672438D02*
X32738120Y-50624819D01*
X32738120Y-50624819D02*
X32976215Y-50624819D01*
X32976215Y-50624819D02*
X33071453Y-50672438D01*
X33071453Y-50672438D02*
X33119072Y-50720057D01*
X33119072Y-50720057D02*
X33166691Y-50815295D01*
X33166691Y-50815295D02*
X33166691Y-50910533D01*
X33166691Y-50910533D02*
X33119072Y-51053390D01*
X33119072Y-51053390D02*
X32547644Y-51624819D01*
X32547644Y-51624819D02*
X33166691Y-51624819D01*
X26454819Y-50738094D02*
X25454819Y-50738094D01*
X25454819Y-50738094D02*
X25454819Y-50499999D01*
X25454819Y-50499999D02*
X25502438Y-50357142D01*
X25502438Y-50357142D02*
X25597676Y-50261904D01*
X25597676Y-50261904D02*
X25692914Y-50214285D01*
X25692914Y-50214285D02*
X25883390Y-50166666D01*
X25883390Y-50166666D02*
X26026247Y-50166666D01*
X26026247Y-50166666D02*
X26216723Y-50214285D01*
X26216723Y-50214285D02*
X26311961Y-50261904D01*
X26311961Y-50261904D02*
X26407200Y-50357142D01*
X26407200Y-50357142D02*
X26454819Y-50499999D01*
X26454819Y-50499999D02*
X26454819Y-50738094D01*
X25788152Y-49309523D02*
X26454819Y-49309523D01*
X25407200Y-49547618D02*
X26121485Y-49785713D01*
X26121485Y-49785713D02*
X26121485Y-49166666D01*
X45184540Y-26940691D02*
X45010891Y-25955883D01*
X45010891Y-25955883D02*
X45245369Y-25914538D01*
X45245369Y-25914538D02*
X45394325Y-25936627D01*
X45394325Y-25936627D02*
X45504654Y-26013880D01*
X45504654Y-26013880D02*
X45568088Y-26099402D01*
X45568088Y-26099402D02*
X45648059Y-26278716D01*
X45648059Y-26278716D02*
X45672866Y-26419403D01*
X45672866Y-26419403D02*
X45659046Y-26615254D01*
X45659046Y-26615254D02*
X45628689Y-26717314D01*
X45628689Y-26717314D02*
X45551435Y-26827643D01*
X45551435Y-26827643D02*
X45419018Y-26899346D01*
X45419018Y-26899346D02*
X45184540Y-26940691D01*
X46210807Y-26179488D02*
X46108746Y-26149131D01*
X46108746Y-26149131D02*
X46053582Y-26110504D01*
X46053582Y-26110504D02*
X45990148Y-26024982D01*
X45990148Y-26024982D02*
X45981879Y-25978086D01*
X45981879Y-25978086D02*
X46012237Y-25876026D01*
X46012237Y-25876026D02*
X46050864Y-25820861D01*
X46050864Y-25820861D02*
X46136386Y-25757428D01*
X46136386Y-25757428D02*
X46323968Y-25724352D01*
X46323968Y-25724352D02*
X46426029Y-25754710D01*
X46426029Y-25754710D02*
X46481193Y-25793336D01*
X46481193Y-25793336D02*
X46544627Y-25878859D01*
X46544627Y-25878859D02*
X46552896Y-25925754D01*
X46552896Y-25925754D02*
X46522538Y-26027814D01*
X46522538Y-26027814D02*
X46483911Y-26082979D01*
X46483911Y-26082979D02*
X46398389Y-26146412D01*
X46398389Y-26146412D02*
X46210807Y-26179488D01*
X46210807Y-26179488D02*
X46125284Y-26242922D01*
X46125284Y-26242922D02*
X46086658Y-26298086D01*
X46086658Y-26298086D02*
X46056300Y-26400147D01*
X46056300Y-26400147D02*
X46089376Y-26587729D01*
X46089376Y-26587729D02*
X46152809Y-26673251D01*
X46152809Y-26673251D02*
X46207974Y-26711878D01*
X46207974Y-26711878D02*
X46310034Y-26742236D01*
X46310034Y-26742236D02*
X46497617Y-26709160D01*
X46497617Y-26709160D02*
X46583139Y-26645726D01*
X46583139Y-26645726D02*
X46621765Y-26590562D01*
X46621765Y-26590562D02*
X46652123Y-26488501D01*
X46652123Y-26488501D02*
X46619047Y-26300919D01*
X46619047Y-26300919D02*
X46555614Y-26215397D01*
X46555614Y-26215397D02*
X46500449Y-26176770D01*
X46500449Y-26176770D02*
X46398389Y-26146412D01*
X46983333Y-46659580D02*
X46935714Y-46707200D01*
X46935714Y-46707200D02*
X46792857Y-46754819D01*
X46792857Y-46754819D02*
X46697619Y-46754819D01*
X46697619Y-46754819D02*
X46554762Y-46707200D01*
X46554762Y-46707200D02*
X46459524Y-46611961D01*
X46459524Y-46611961D02*
X46411905Y-46516723D01*
X46411905Y-46516723D02*
X46364286Y-46326247D01*
X46364286Y-46326247D02*
X46364286Y-46183390D01*
X46364286Y-46183390D02*
X46411905Y-45992914D01*
X46411905Y-45992914D02*
X46459524Y-45897676D01*
X46459524Y-45897676D02*
X46554762Y-45802438D01*
X46554762Y-45802438D02*
X46697619Y-45754819D01*
X46697619Y-45754819D02*
X46792857Y-45754819D01*
X46792857Y-45754819D02*
X46935714Y-45802438D01*
X46935714Y-45802438D02*
X46983333Y-45850057D01*
X47935714Y-46754819D02*
X47364286Y-46754819D01*
X47650000Y-46754819D02*
X47650000Y-45754819D01*
X47650000Y-45754819D02*
X47554762Y-45897676D01*
X47554762Y-45897676D02*
X47459524Y-45992914D01*
X47459524Y-45992914D02*
X47364286Y-46040533D01*
X67952949Y-66649451D02*
X67186905Y-66006664D01*
X67186905Y-66006664D02*
X67339949Y-65824272D01*
X67339949Y-65824272D02*
X67468255Y-65745446D01*
X67468255Y-65745446D02*
X67602429Y-65733708D01*
X67602429Y-65733708D02*
X67705995Y-65758447D01*
X67705995Y-65758447D02*
X67882517Y-65844405D01*
X67882517Y-65844405D02*
X67991952Y-65936231D01*
X67991952Y-65936231D02*
X68107256Y-66095145D01*
X68107256Y-66095145D02*
X68149604Y-66192842D01*
X68149604Y-66192842D02*
X68161342Y-66327016D01*
X68161342Y-66327016D02*
X68105994Y-66467060D01*
X68105994Y-66467060D02*
X67952949Y-66649451D01*
X68932435Y-65482146D02*
X68565128Y-65919885D01*
X68748782Y-65701015D02*
X67982737Y-65058228D01*
X67982737Y-65058228D02*
X68030954Y-65223011D01*
X68030954Y-65223011D02*
X68042693Y-65357186D01*
X68042693Y-65357186D02*
X68017953Y-65460751D01*
X68747960Y-64146270D02*
X68441871Y-64511053D01*
X68441871Y-64511053D02*
X68776045Y-64853621D01*
X68776045Y-64853621D02*
X68770176Y-64786534D01*
X68770176Y-64786534D02*
X68794915Y-64682968D01*
X68794915Y-64682968D02*
X68947960Y-64500577D01*
X68947960Y-64500577D02*
X69045656Y-64458229D01*
X69045656Y-64458229D02*
X69112744Y-64452359D01*
X69112744Y-64452359D02*
X69216309Y-64477099D01*
X69216309Y-64477099D02*
X69398701Y-64630144D01*
X69398701Y-64630144D02*
X69441048Y-64727840D01*
X69441048Y-64727840D02*
X69446918Y-64794927D01*
X69446918Y-64794927D02*
X69422178Y-64898493D01*
X69422178Y-64898493D02*
X69269133Y-65080884D01*
X69269133Y-65080884D02*
X69171437Y-65123232D01*
X69171437Y-65123232D02*
X69104350Y-65129101D01*
X26767542Y-57670458D02*
X27707235Y-57328437D01*
X27707235Y-57328437D02*
X27788668Y-57552174D01*
X27788668Y-57552174D02*
X27792781Y-57702702D01*
X27792781Y-57702702D02*
X27735860Y-57824770D01*
X27735860Y-57824770D02*
X27662652Y-57902091D01*
X27662652Y-57902091D02*
X27499949Y-58011985D01*
X27499949Y-58011985D02*
X27365708Y-58060845D01*
X27365708Y-58060845D02*
X27170432Y-58081244D01*
X27170432Y-58081244D02*
X27064651Y-58069070D01*
X27064651Y-58069070D02*
X26942583Y-58012149D01*
X26942583Y-58012149D02*
X26848975Y-57894194D01*
X26848975Y-57894194D02*
X26767542Y-57670458D01*
X28016682Y-58178636D02*
X28228408Y-58760350D01*
X28228408Y-58760350D02*
X27756423Y-58577413D01*
X27756423Y-58577413D02*
X27805283Y-58711654D01*
X27805283Y-58711654D02*
X27793110Y-58817436D01*
X27793110Y-58817436D02*
X27764649Y-58878469D01*
X27764649Y-58878469D02*
X27691441Y-58955790D01*
X27691441Y-58955790D02*
X27467705Y-59037223D01*
X27467705Y-59037223D02*
X27361924Y-59025050D01*
X27361924Y-59025050D02*
X27300890Y-58996589D01*
X27300890Y-58996589D02*
X27223569Y-58923381D01*
X27223569Y-58923381D02*
X27125849Y-58654897D01*
X27125849Y-58654897D02*
X27138023Y-58549116D01*
X27138023Y-58549116D02*
X27166483Y-58488082D01*
X44859528Y-36126745D02*
X44960543Y-35554326D01*
X44455467Y-35722684D02*
X45162574Y-35015578D01*
X45162574Y-35015578D02*
X45431948Y-35284952D01*
X45431948Y-35284952D02*
X45465620Y-35385967D01*
X45465620Y-35385967D02*
X45465620Y-35453310D01*
X45465620Y-35453310D02*
X45431948Y-35554326D01*
X45431948Y-35554326D02*
X45330933Y-35655341D01*
X45330933Y-35655341D02*
X45229917Y-35689013D01*
X45229917Y-35689013D02*
X45162574Y-35689013D01*
X45162574Y-35689013D02*
X45061559Y-35655341D01*
X45061559Y-35655341D02*
X44792185Y-35385967D01*
X45937024Y-36261432D02*
X45465620Y-36732837D01*
X46038039Y-35823700D02*
X45364604Y-36160417D01*
X45364604Y-36160417D02*
X45802337Y-36598150D01*
X61175807Y-71785636D02*
X60675807Y-70919611D01*
X60675807Y-70919611D02*
X60882003Y-70800563D01*
X60882003Y-70800563D02*
X61029531Y-70770374D01*
X61029531Y-70770374D02*
X61159628Y-70805234D01*
X61159628Y-70805234D02*
X61248487Y-70863903D01*
X61248487Y-70863903D02*
X61384964Y-71005050D01*
X61384964Y-71005050D02*
X61456393Y-71128768D01*
X61456393Y-71128768D02*
X61510391Y-71317535D01*
X61510391Y-71317535D02*
X61516771Y-71423823D01*
X61516771Y-71423823D02*
X61481912Y-71553921D01*
X61481912Y-71553921D02*
X61382003Y-71666589D01*
X61382003Y-71666589D02*
X61175807Y-71785636D01*
X62495464Y-71023731D02*
X62000593Y-71309446D01*
X62248029Y-71166589D02*
X61748029Y-70300563D01*
X61748029Y-70300563D02*
X61736979Y-70471900D01*
X61736979Y-70471900D02*
X61702119Y-70601998D01*
X61702119Y-70601998D02*
X61643450Y-70690856D01*
X62737772Y-69729135D02*
X62572815Y-69824373D01*
X62572815Y-69824373D02*
X62514146Y-69913231D01*
X62514146Y-69913231D02*
X62496716Y-69978280D01*
X62496716Y-69978280D02*
X62485666Y-70149617D01*
X62485666Y-70149617D02*
X62539665Y-70338384D01*
X62539665Y-70338384D02*
X62730141Y-70668298D01*
X62730141Y-70668298D02*
X62818999Y-70726967D01*
X62818999Y-70726967D02*
X62884048Y-70744397D01*
X62884048Y-70744397D02*
X62990336Y-70738017D01*
X62990336Y-70738017D02*
X63155293Y-70642779D01*
X63155293Y-70642779D02*
X63213962Y-70553921D01*
X63213962Y-70553921D02*
X63231392Y-70488872D01*
X63231392Y-70488872D02*
X63225013Y-70382584D01*
X63225013Y-70382584D02*
X63105965Y-70176387D01*
X63105965Y-70176387D02*
X63017107Y-70117718D01*
X63017107Y-70117718D02*
X62952058Y-70100288D01*
X62952058Y-70100288D02*
X62845770Y-70106668D01*
X62845770Y-70106668D02*
X62680812Y-70201906D01*
X62680812Y-70201906D02*
X62622143Y-70290765D01*
X62622143Y-70290765D02*
X62604713Y-70355813D01*
X62604713Y-70355813D02*
X62611093Y-70462102D01*
X60720988Y-29002131D02*
X61220988Y-28136106D01*
X61220988Y-28136106D02*
X61427184Y-28255154D01*
X61427184Y-28255154D02*
X61527093Y-28367822D01*
X61527093Y-28367822D02*
X61561952Y-28497919D01*
X61561952Y-28497919D02*
X61555572Y-28604207D01*
X61555572Y-28604207D02*
X61501574Y-28792974D01*
X61501574Y-28792974D02*
X61430145Y-28916692D01*
X61430145Y-28916692D02*
X61293668Y-29057840D01*
X61293668Y-29057840D02*
X61204809Y-29116509D01*
X61204809Y-29116509D02*
X61074712Y-29151368D01*
X61074712Y-29151368D02*
X60927184Y-29121179D01*
X60927184Y-29121179D02*
X60720988Y-29002131D01*
X62040645Y-29764036D02*
X61545774Y-29478322D01*
X61793210Y-29621179D02*
X62293210Y-28755154D01*
X62293210Y-28755154D02*
X62139302Y-28831253D01*
X62139302Y-28831253D02*
X62009205Y-28866112D01*
X62009205Y-28866112D02*
X61902917Y-28859732D01*
X63076756Y-29207535D02*
X63159235Y-29255154D01*
X63159235Y-29255154D02*
X63217904Y-29344012D01*
X63217904Y-29344012D02*
X63235334Y-29409061D01*
X63235334Y-29409061D02*
X63228954Y-29515349D01*
X63228954Y-29515349D02*
X63174955Y-29704116D01*
X63174955Y-29704116D02*
X63055908Y-29910312D01*
X63055908Y-29910312D02*
X62919430Y-30051460D01*
X62919430Y-30051460D02*
X62830572Y-30110129D01*
X62830572Y-30110129D02*
X62765523Y-30127559D01*
X62765523Y-30127559D02*
X62659235Y-30121179D01*
X62659235Y-30121179D02*
X62576756Y-30073560D01*
X62576756Y-30073560D02*
X62518087Y-29984702D01*
X62518087Y-29984702D02*
X62500658Y-29919653D01*
X62500658Y-29919653D02*
X62507037Y-29813365D01*
X62507037Y-29813365D02*
X62561036Y-29624598D01*
X62561036Y-29624598D02*
X62680084Y-29418401D01*
X62680084Y-29418401D02*
X62816561Y-29277254D01*
X62816561Y-29277254D02*
X62905419Y-29218585D01*
X62905419Y-29218585D02*
X62970468Y-29201155D01*
X62970468Y-29201155D02*
X63076756Y-29207535D01*
X74454819Y-51214285D02*
X73454819Y-51214285D01*
X73454819Y-51214285D02*
X73454819Y-50976190D01*
X73454819Y-50976190D02*
X73502438Y-50833333D01*
X73502438Y-50833333D02*
X73597676Y-50738095D01*
X73597676Y-50738095D02*
X73692914Y-50690476D01*
X73692914Y-50690476D02*
X73883390Y-50642857D01*
X73883390Y-50642857D02*
X74026247Y-50642857D01*
X74026247Y-50642857D02*
X74216723Y-50690476D01*
X74216723Y-50690476D02*
X74311961Y-50738095D01*
X74311961Y-50738095D02*
X74407200Y-50833333D01*
X74407200Y-50833333D02*
X74454819Y-50976190D01*
X74454819Y-50976190D02*
X74454819Y-51214285D01*
X74454819Y-49690476D02*
X74454819Y-50261904D01*
X74454819Y-49976190D02*
X73454819Y-49976190D01*
X73454819Y-49976190D02*
X73597676Y-50071428D01*
X73597676Y-50071428D02*
X73692914Y-50166666D01*
X73692914Y-50166666D02*
X73740533Y-50261904D01*
X73454819Y-49357142D02*
X73454819Y-48738095D01*
X73454819Y-48738095D02*
X73835771Y-49071428D01*
X73835771Y-49071428D02*
X73835771Y-48928571D01*
X73835771Y-48928571D02*
X73883390Y-48833333D01*
X73883390Y-48833333D02*
X73931009Y-48785714D01*
X73931009Y-48785714D02*
X74026247Y-48738095D01*
X74026247Y-48738095D02*
X74264342Y-48738095D01*
X74264342Y-48738095D02*
X74359580Y-48785714D01*
X74359580Y-48785714D02*
X74407200Y-48833333D01*
X74407200Y-48833333D02*
X74454819Y-48928571D01*
X74454819Y-48928571D02*
X74454819Y-49214285D01*
X74454819Y-49214285D02*
X74407200Y-49309523D01*
X74407200Y-49309523D02*
X74359580Y-49357142D01*
X39531069Y-66050886D02*
X38958650Y-65949871D01*
X39127008Y-66454947D02*
X38419902Y-65747840D01*
X38419902Y-65747840D02*
X38689276Y-65478466D01*
X38689276Y-65478466D02*
X38790291Y-65444794D01*
X38790291Y-65444794D02*
X38857634Y-65444794D01*
X38857634Y-65444794D02*
X38958650Y-65478466D01*
X38958650Y-65478466D02*
X39059665Y-65579481D01*
X39059665Y-65579481D02*
X39093337Y-65680497D01*
X39093337Y-65680497D02*
X39093337Y-65747840D01*
X39093337Y-65747840D02*
X39059665Y-65848855D01*
X39059665Y-65848855D02*
X38790291Y-66118229D01*
X40204504Y-65377451D02*
X39800443Y-65781512D01*
X40002474Y-65579481D02*
X39295367Y-64872375D01*
X39295367Y-64872375D02*
X39329039Y-65040733D01*
X39329039Y-65040733D02*
X39329039Y-65175420D01*
X39329039Y-65175420D02*
X39295367Y-65276436D01*
D12*
X46190476Y-73964666D02*
X53809524Y-73964666D01*
D11*
X27622322Y-42640655D02*
X26682630Y-42298635D01*
X26682630Y-42298635D02*
X26764063Y-42074898D01*
X26764063Y-42074898D02*
X26857670Y-41956943D01*
X26857670Y-41956943D02*
X26979738Y-41900022D01*
X26979738Y-41900022D02*
X27085519Y-41887848D01*
X27085519Y-41887848D02*
X27280795Y-41908248D01*
X27280795Y-41908248D02*
X27415037Y-41957108D01*
X27415037Y-41957108D02*
X27577739Y-42067002D01*
X27577739Y-42067002D02*
X27650947Y-42144322D01*
X27650947Y-42144322D02*
X27707868Y-42266390D01*
X27707868Y-42266390D02*
X27703756Y-42416919D01*
X27703756Y-42416919D02*
X27622322Y-42640655D01*
X27187517Y-40911470D02*
X27024650Y-41358942D01*
X27024650Y-41358942D02*
X27455836Y-41566556D01*
X27455836Y-41566556D02*
X27427375Y-41505522D01*
X27427375Y-41505522D02*
X27415201Y-41399741D01*
X27415201Y-41399741D02*
X27496635Y-41176005D01*
X27496635Y-41176005D02*
X27573955Y-41102797D01*
X27573955Y-41102797D02*
X27634989Y-41074336D01*
X27634989Y-41074336D02*
X27740770Y-41062162D01*
X27740770Y-41062162D02*
X27964507Y-41143596D01*
X27964507Y-41143596D02*
X28037715Y-41220916D01*
X28037715Y-41220916D02*
X28066175Y-41281950D01*
X28066175Y-41281950D02*
X28078349Y-41387731D01*
X28078349Y-41387731D02*
X27996916Y-41611468D01*
X27996916Y-41611468D02*
X27919595Y-41684676D01*
X27919595Y-41684676D02*
X27858561Y-41713136D01*
X54904769Y-36362447D02*
X54332350Y-36261432D01*
X54500708Y-36766508D02*
X53793602Y-36059401D01*
X53793602Y-36059401D02*
X54062976Y-35790027D01*
X54062976Y-35790027D02*
X54163991Y-35756355D01*
X54163991Y-35756355D02*
X54231334Y-35756355D01*
X54231334Y-35756355D02*
X54332350Y-35790027D01*
X54332350Y-35790027D02*
X54433365Y-35891042D01*
X54433365Y-35891042D02*
X54467037Y-35992058D01*
X54467037Y-35992058D02*
X54467037Y-36059401D01*
X54467037Y-36059401D02*
X54433365Y-36160416D01*
X54433365Y-36160416D02*
X54163991Y-36429790D01*
X54837426Y-35015577D02*
X54500708Y-35352294D01*
X54500708Y-35352294D02*
X54803754Y-35722684D01*
X54803754Y-35722684D02*
X54803754Y-35655340D01*
X54803754Y-35655340D02*
X54837426Y-35554325D01*
X54837426Y-35554325D02*
X55005785Y-35385966D01*
X55005785Y-35385966D02*
X55106800Y-35352294D01*
X55106800Y-35352294D02*
X55174143Y-35352294D01*
X55174143Y-35352294D02*
X55275159Y-35385966D01*
X55275159Y-35385966D02*
X55443517Y-35554325D01*
X55443517Y-35554325D02*
X55477189Y-35655340D01*
X55477189Y-35655340D02*
X55477189Y-35722684D01*
X55477189Y-35722684D02*
X55443517Y-35823699D01*
X55443517Y-35823699D02*
X55275159Y-35992058D01*
X55275159Y-35992058D02*
X55174143Y-36025729D01*
X55174143Y-36025729D02*
X55106800Y-36025729D01*
X53361696Y-26684353D02*
X53535344Y-25699545D01*
X53535344Y-25699545D02*
X53769822Y-25740890D01*
X53769822Y-25740890D02*
X53902240Y-25812593D01*
X53902240Y-25812593D02*
X53979493Y-25922922D01*
X53979493Y-25922922D02*
X54009851Y-26024982D01*
X54009851Y-26024982D02*
X54023670Y-26220833D01*
X54023670Y-26220833D02*
X53998863Y-26361520D01*
X53998863Y-26361520D02*
X53918892Y-26540834D01*
X53918892Y-26540834D02*
X53855459Y-26626356D01*
X53855459Y-26626356D02*
X53745129Y-26703609D01*
X53745129Y-26703609D02*
X53596174Y-26725698D01*
X53596174Y-26725698D02*
X53361696Y-26684353D01*
X54393399Y-26866270D02*
X54580981Y-26899346D01*
X54580981Y-26899346D02*
X54683042Y-26868988D01*
X54683042Y-26868988D02*
X54738206Y-26830362D01*
X54738206Y-26830362D02*
X54856804Y-26706213D01*
X54856804Y-26706213D02*
X54936776Y-26526899D01*
X54936776Y-26526899D02*
X55002927Y-26151734D01*
X55002927Y-26151734D02*
X54972570Y-26049674D01*
X54972570Y-26049674D02*
X54933943Y-25994510D01*
X54933943Y-25994510D02*
X54848421Y-25931076D01*
X54848421Y-25931076D02*
X54660838Y-25898000D01*
X54660838Y-25898000D02*
X54558778Y-25928358D01*
X54558778Y-25928358D02*
X54503614Y-25966985D01*
X54503614Y-25966985D02*
X54440180Y-26052507D01*
X54440180Y-26052507D02*
X54398835Y-26286985D01*
X54398835Y-26286985D02*
X54429193Y-26389045D01*
X54429193Y-26389045D02*
X54467820Y-26444210D01*
X54467820Y-26444210D02*
X54553342Y-26507643D01*
X54553342Y-26507643D02*
X54740924Y-26540719D01*
X54740924Y-26540719D02*
X54842984Y-26510361D01*
X54842984Y-26510361D02*
X54898149Y-26471735D01*
X54898149Y-26471735D02*
X54961583Y-26386212D01*
X72564702Y-59505095D02*
X71625010Y-59163075D01*
X71625010Y-59163075D02*
X71706443Y-58939339D01*
X71706443Y-58939339D02*
X71800050Y-58821384D01*
X71800050Y-58821384D02*
X71922118Y-58764462D01*
X71922118Y-58764462D02*
X72027900Y-58752288D01*
X72027900Y-58752288D02*
X72223175Y-58772688D01*
X72223175Y-58772688D02*
X72357417Y-58821548D01*
X72357417Y-58821548D02*
X72520119Y-58931442D01*
X72520119Y-58931442D02*
X72593327Y-59008762D01*
X72593327Y-59008762D02*
X72650249Y-59130830D01*
X72650249Y-59130830D02*
X72646136Y-59281359D01*
X72646136Y-59281359D02*
X72564702Y-59505095D01*
X73085876Y-58073183D02*
X72890436Y-58610150D01*
X72988156Y-58341666D02*
X72048463Y-57999646D01*
X72048463Y-57999646D02*
X72150132Y-58138001D01*
X72150132Y-58138001D02*
X72207053Y-58260068D01*
X72207053Y-58260068D02*
X72219227Y-58365850D01*
X72752574Y-57039718D02*
X73379036Y-57267732D01*
X72313163Y-57133161D02*
X72902938Y-57601198D01*
X72902938Y-57601198D02*
X73114665Y-57019483D01*
X67256126Y-33935251D02*
X68022170Y-33292463D01*
X68022170Y-33292463D02*
X68175215Y-33474855D01*
X68175215Y-33474855D02*
X68230564Y-33614898D01*
X68230564Y-33614898D02*
X68218825Y-33749073D01*
X68218825Y-33749073D02*
X68176477Y-33846769D01*
X68176477Y-33846769D02*
X68061173Y-34005683D01*
X68061173Y-34005683D02*
X67951738Y-34097510D01*
X67951738Y-34097510D02*
X67775216Y-34183467D01*
X67775216Y-34183467D02*
X67671650Y-34208207D01*
X67671650Y-34208207D02*
X67537476Y-34196468D01*
X67537476Y-34196468D02*
X67409171Y-34117642D01*
X67409171Y-34117642D02*
X67256126Y-33935251D01*
X68235612Y-35102557D02*
X67868305Y-34664817D01*
X68051958Y-34883687D02*
X68818003Y-34240899D01*
X68818003Y-34240899D02*
X68647350Y-34259769D01*
X68647350Y-34259769D02*
X68513176Y-34248030D01*
X68513176Y-34248030D02*
X68415479Y-34205683D01*
X68847791Y-35832123D02*
X68480483Y-35394383D01*
X68664137Y-35613253D02*
X69430181Y-34970465D01*
X69430181Y-34970465D02*
X69259529Y-34989335D01*
X69259529Y-34989335D02*
X69125354Y-34977597D01*
X69125354Y-34977597D02*
X69027658Y-34935249D01*
X37233228Y-36246953D02*
X37334243Y-35674534D01*
X36829167Y-35842892D02*
X37536274Y-35135786D01*
X37536274Y-35135786D02*
X37805648Y-35405160D01*
X37805648Y-35405160D02*
X37839320Y-35506175D01*
X37839320Y-35506175D02*
X37839320Y-35573518D01*
X37839320Y-35573518D02*
X37805648Y-35674534D01*
X37805648Y-35674534D02*
X37704633Y-35775549D01*
X37704633Y-35775549D02*
X37603617Y-35809221D01*
X37603617Y-35809221D02*
X37536274Y-35809221D01*
X37536274Y-35809221D02*
X37435259Y-35775549D01*
X37435259Y-35775549D02*
X37165885Y-35506175D01*
X38176037Y-35775549D02*
X38613770Y-36213282D01*
X38613770Y-36213282D02*
X38108694Y-36246953D01*
X38108694Y-36246953D02*
X38209709Y-36347969D01*
X38209709Y-36347969D02*
X38243381Y-36448984D01*
X38243381Y-36448984D02*
X38243381Y-36516327D01*
X38243381Y-36516327D02*
X38209709Y-36617343D01*
X38209709Y-36617343D02*
X38041350Y-36785701D01*
X38041350Y-36785701D02*
X37940335Y-36819373D01*
X37940335Y-36819373D02*
X37872991Y-36819373D01*
X37872991Y-36819373D02*
X37771976Y-36785701D01*
X37771976Y-36785701D02*
X37569946Y-36583671D01*
X37569946Y-36583671D02*
X37536274Y-36482656D01*
X37536274Y-36482656D02*
X37536274Y-36415312D01*
D13*
%TO.C,R8*%
X61122659Y-64944175D02*
X61339940Y-65161456D01*
X61660060Y-64406774D02*
X61877341Y-64624055D01*
%TO.C,R6*%
X61122659Y-35055824D02*
X61339940Y-34838543D01*
X61660060Y-35593225D02*
X61877341Y-35375944D01*
D10*
%TO.C,D2*%
X31730339Y-63949127D02*
G75*
G02*
X31630339Y-63949127I-50000J0D01*
G01*
X31630339Y-63949127D02*
G75*
G02*
X31730339Y-63949127I50000J0D01*
G01*
D13*
%TO.C,J1*%
X47965000Y-74110000D02*
X47965000Y-73000000D01*
X48725000Y-74110001D02*
X47965000Y-74110000D01*
X49485000Y-71890000D02*
X51960000Y-71890000D01*
X49485000Y-72436529D02*
X49485000Y-71890000D01*
X49485000Y-74110000D02*
X49485000Y-73563471D01*
X49485000Y-74110000D02*
X51960000Y-74110000D01*
X51960000Y-72692470D02*
X51960000Y-71890000D01*
X51960000Y-74110000D02*
X51960000Y-73307530D01*
%TO.C,R7*%
X67465382Y-49620000D02*
X67772664Y-49620000D01*
X67465382Y-50380000D02*
X67772664Y-50380000D01*
D10*
%TO.C,D7*%
X39493966Y-29536415D02*
G75*
G02*
X39393968Y-29536415I-49999J0D01*
G01*
X39393968Y-29536415D02*
G75*
G02*
X39493966Y-29536415I49999J0D01*
G01*
%TO.C,D12*%
X72035732Y-43157801D02*
G75*
G02*
X71935732Y-43157801I-50000J0D01*
G01*
X71935732Y-43157801D02*
G75*
G02*
X72035732Y-43157801I50000J0D01*
G01*
%TO.C,D6*%
X33131615Y-34380896D02*
G75*
G02*
X33031615Y-34380896I-50000J0D01*
G01*
X33031615Y-34380896D02*
G75*
G02*
X33131615Y-34380896I50000J0D01*
G01*
%TO.C,D1*%
X37606031Y-69373584D02*
G75*
G02*
X37506033Y-69373584I-49999J0D01*
G01*
X37506033Y-69373584D02*
G75*
G02*
X37606031Y-69373584I49999J0D01*
G01*
D13*
%TO.C,U1*%
X47723116Y-48000000D02*
X48041314Y-47681802D01*
X48041314Y-48318198D02*
X47723116Y-48000000D01*
X49681802Y-46041314D02*
X49830294Y-45892822D01*
X49681802Y-49958686D02*
X50000000Y-50276884D01*
X50000000Y-50276884D02*
X50318198Y-49958686D01*
X50318198Y-46041314D02*
X50212132Y-45935248D01*
X51958686Y-47681802D02*
X52276884Y-48000000D01*
X52276884Y-48000000D02*
X51958686Y-48318198D01*
X50403051Y-45659477D02*
X50000000Y-45723116D01*
X50063640Y-45320065D01*
X50403051Y-45659477D01*
G36*
X50403051Y-45659477D02*
G01*
X50000000Y-45723116D01*
X50063640Y-45320065D01*
X50403051Y-45659477D01*
G37*
%TO.C,through-r1*%
X46158000Y-42202000D02*
G75*
G02*
X43758000Y-42202000I-1200000J0D01*
G01*
X43758000Y-42202000D02*
G75*
G02*
X46158000Y-42202000I1200000J0D01*
G01*
%TO.C,R2*%
X32534618Y-49620000D02*
X32227336Y-49620000D01*
X32534618Y-50380000D02*
X32227336Y-50380000D01*
D10*
%TO.C,D4*%
X27049999Y-48910001D02*
G75*
G02*
X26950001Y-48910001I-49999J0D01*
G01*
X26950001Y-48910001D02*
G75*
G02*
X27049999Y-48910001I49999J0D01*
G01*
%TO.C,D8*%
X47129531Y-27160144D02*
G75*
G02*
X47029531Y-27160144I-50000J0D01*
G01*
X47029531Y-27160144D02*
G75*
G02*
X47129531Y-27160144I50000J0D01*
G01*
D13*
%TO.C,C1*%
X46790000Y-48157836D02*
X46790000Y-47942164D01*
X47510000Y-48157836D02*
X47510000Y-47942164D01*
D10*
%TO.C,D15*%
X66968384Y-65619103D02*
G75*
G02*
X66868384Y-65619103I-50000J0D01*
G01*
X66868384Y-65619103D02*
G75*
G02*
X66968384Y-65619103I50000J0D01*
G01*
D13*
%TO.C,through-r6*%
X44858961Y-42952000D02*
G75*
G02*
X42458961Y-42952000I-1200000J0D01*
G01*
X42458961Y-42952000D02*
G75*
G02*
X44858961Y-42952000I1200000J0D01*
G01*
D10*
%TO.C,D3*%
X28064267Y-56842198D02*
G75*
G02*
X27964267Y-56842198I-50000J0D01*
G01*
X27964267Y-56842198D02*
G75*
G02*
X28064267Y-56842198I50000J0D01*
G01*
D13*
%TO.C,through-r4*%
X47457038Y-42952000D02*
G75*
G02*
X45057038Y-42952000I-1200000J0D01*
G01*
X45057038Y-42952000D02*
G75*
G02*
X47457038Y-42952000I1200000J0D01*
G01*
%TO.C,R4*%
X45846032Y-35593225D02*
X45628751Y-35375944D01*
X46383433Y-35055824D02*
X46166152Y-34838543D01*
D10*
%TO.C,D16*%
X60606032Y-70463584D02*
G75*
G02*
X60506032Y-70463584I-50000J0D01*
G01*
X60506032Y-70463584D02*
G75*
G02*
X60606032Y-70463584I50000J0D01*
G01*
D13*
%TO.C,through-r2*%
X46158000Y-40702000D02*
G75*
G02*
X43758000Y-40702000I-1200000J0D01*
G01*
X43758000Y-40702000D02*
G75*
G02*
X46158000Y-40702000I1200000J0D01*
G01*
D10*
%TO.C,D10*%
X62493968Y-30626415D02*
G75*
G02*
X62393968Y-30626415I-50000J0D01*
G01*
X62393968Y-30626415D02*
G75*
G02*
X62493968Y-30626415I50000J0D01*
G01*
D13*
%TO.C,through-r7*%
X44858961Y-41452000D02*
G75*
G02*
X42458961Y-41452000I-1200000J0D01*
G01*
X42458961Y-41452000D02*
G75*
G02*
X44858961Y-41452000I1200000J0D01*
G01*
D10*
%TO.C,D13*%
X73049999Y-51089999D02*
G75*
G02*
X72950001Y-51089999I-49999J0D01*
G01*
X72950001Y-51089999D02*
G75*
G02*
X73049999Y-51089999I49999J0D01*
G01*
D13*
%TO.C,through-r3*%
X47457038Y-41452000D02*
G75*
G02*
X45057038Y-41452000I-1200000J0D01*
G01*
X45057038Y-41452000D02*
G75*
G02*
X47457038Y-41452000I1200000J0D01*
G01*
%TO.C,R1*%
X38339940Y-64406774D02*
X38122659Y-64624055D01*
X38877341Y-64944175D02*
X38660060Y-65161456D01*
%TO.C,-*%
X52250000Y-64500000D02*
G75*
G02*
X47750000Y-64500000I-2250000J0D01*
G01*
X47750000Y-64500000D02*
G75*
G02*
X52250000Y-64500000I2250000J0D01*
G01*
D10*
%TO.C,D5*%
X28809871Y-41109271D02*
G75*
G02*
X28709871Y-41109271I-50000J0D01*
G01*
X28709871Y-41109271D02*
G75*
G02*
X28809871Y-41109271I50000J0D01*
G01*
D13*
%TO.C,through-r5*%
X46158000Y-43702000D02*
G75*
G02*
X43758000Y-43702000I-1200000J0D01*
G01*
X43758000Y-43702000D02*
G75*
G02*
X46158000Y-43702000I1200000J0D01*
G01*
%TO.C,battery-eject1*%
X51100000Y-57000000D02*
G75*
G02*
X48900000Y-57000000I-1100000J0D01*
G01*
X48900000Y-57000000D02*
G75*
G02*
X51100000Y-57000000I1100000J0D01*
G01*
%TO.C,R5*%
X53616567Y-35055824D02*
X53833848Y-34838543D01*
X54153968Y-35593225D02*
X54371249Y-35375944D01*
%TO.C,B1*%
X52250000Y-64500000D02*
G75*
G02*
X47750000Y-64500000I-2250000J0D01*
G01*
X47750000Y-64500000D02*
G75*
G02*
X52250000Y-64500000I2250000J0D01*
G01*
D10*
%TO.C,D9*%
X55117348Y-27538698D02*
G75*
G02*
X55017348Y-27538698I-50000J0D01*
G01*
X55017348Y-27538698D02*
G75*
G02*
X55117348Y-27538698I50000J0D01*
G01*
%TO.C,D14*%
X71290128Y-58890728D02*
G75*
G02*
X71190128Y-58890728I-50000J0D01*
G01*
X71190128Y-58890728D02*
G75*
G02*
X71290128Y-58890728I50000J0D01*
G01*
%TO.C,D11*%
X68369660Y-36050872D02*
G75*
G02*
X68269660Y-36050872I-50000J0D01*
G01*
X68269660Y-36050872D02*
G75*
G02*
X68369660Y-36050872I50000J0D01*
G01*
D13*
%TO.C,R3*%
X38339940Y-35593225D02*
X38122659Y-35375944D01*
X38877341Y-35055824D02*
X38660060Y-34838543D01*
%TD*%
%LPC*%
D14*
%TO.C,stitch1*%
X26924000Y-45758000D03*
%TD*%
D15*
%TO.C,R8*%
X61139376Y-64423491D03*
X61860624Y-65144739D03*
%TD*%
D14*
%TO.C,stitch1*%
X41910000Y-27978000D03*
%TD*%
D16*
%TO.C,R6*%
X61139376Y-35576508D03*
X61860624Y-34855260D03*
%TD*%
D17*
%TO.C,D2*%
X32069225Y-64412583D03*
X32692729Y-65155647D03*
%TD*%
D18*
%TO.C,J1*%
X48725000Y-73000000D03*
D19*
X49995001Y-73000000D03*
X51265000Y-73000000D03*
%TD*%
D20*
%TO.C,R7*%
X67109024Y-50000000D03*
X68129022Y-50000000D03*
%TD*%
D21*
%TO.C,D7*%
X38920021Y-29838915D03*
X38079977Y-30323915D03*
%TD*%
D14*
%TO.C,stitch1*%
X27178000Y-55156000D03*
%TD*%
D22*
%TO.C,D12*%
X71778809Y-42589287D03*
X71447051Y-41677785D03*
%TD*%
D23*
%TO.C,D6*%
X32692729Y-34844352D03*
X32069225Y-35587416D03*
%TD*%
D24*
%TO.C,D1*%
X38079978Y-69676084D03*
X38920022Y-70161084D03*
%TD*%
D25*
%TO.C,U1*%
X49540381Y-46409010D03*
X49257538Y-46691852D03*
X48974695Y-46974695D03*
X48691852Y-47257538D03*
X48409010Y-47540381D03*
D26*
X48409010Y-48459619D03*
X48691852Y-48742462D03*
X48974695Y-49025305D03*
X49257538Y-49308148D03*
X49540381Y-49590990D03*
D25*
X50459619Y-49590990D03*
X50742462Y-49308148D03*
X51025305Y-49025305D03*
X51308148Y-48742462D03*
X51590990Y-48459619D03*
D26*
X51590990Y-47540381D03*
X51308148Y-47257538D03*
X51025305Y-46974695D03*
X50742462Y-46691852D03*
X50459619Y-46409010D03*
D27*
X50000000Y-48000000D03*
%TD*%
D14*
%TO.C,through-r1*%
X44958000Y-42202000D03*
%TD*%
%TO.C,stitch1*%
X35306000Y-31788000D03*
%TD*%
D28*
%TO.C,R2*%
X32890976Y-50000000D03*
X31870978Y-50000000D03*
%TD*%
D29*
%TO.C,D4*%
X27000000Y-49515000D03*
X27000000Y-50485000D03*
%TD*%
D30*
%TO.C,D8*%
X46483723Y-27265202D03*
X45528459Y-27433640D03*
%TD*%
D14*
%TO.C,stitch1*%
X35052000Y-68110000D03*
%TD*%
D31*
%TO.C,C1*%
X47150000Y-48530000D03*
X47150000Y-47570000D03*
%TD*%
D14*
%TO.C,stitch1*%
X64948000Y-68110000D03*
%TD*%
%TO.C,stitch1*%
X73076000Y-45758000D03*
%TD*%
D32*
%TO.C,D15*%
X67307270Y-65155647D03*
X67930774Y-64412583D03*
%TD*%
D33*
%TO.C,align-r1*%
X27800000Y-52400000D03*
%TD*%
D14*
%TO.C,through-r6*%
X43658961Y-42952000D03*
%TD*%
D34*
%TO.C,D3*%
X28221190Y-57410712D03*
X28552948Y-58322214D03*
%TD*%
D14*
%TO.C,through-r4*%
X46257038Y-42952000D03*
%TD*%
D33*
%TO.C,align-r2*%
X72200000Y-47300000D03*
%TD*%
D35*
%TO.C,R4*%
X46366716Y-35576508D03*
X45645468Y-34855260D03*
%TD*%
D36*
%TO.C,D16*%
X61079978Y-70161084D03*
X61920022Y-69676084D03*
%TD*%
D14*
%TO.C,through-r2*%
X44958000Y-40702000D03*
%TD*%
D37*
%TO.C,D10*%
X61920022Y-30323915D03*
X61079978Y-29838915D03*
%TD*%
D14*
%TO.C,through-r7*%
X43658961Y-41452000D03*
%TD*%
D38*
%TO.C,D13*%
X73000000Y-50485000D03*
X73000000Y-49515000D03*
%TD*%
D14*
%TO.C,through-r3*%
X46257038Y-41452000D03*
%TD*%
D39*
%TO.C,R1*%
X38860624Y-64423491D03*
X38139376Y-65144739D03*
%TD*%
D40*
%TO.C,-*%
X50000000Y-64500000D03*
%TD*%
D41*
%TO.C,D5*%
X28552948Y-41677785D03*
X28221190Y-42589287D03*
%TD*%
D14*
%TO.C,through-r5*%
X44958000Y-43702000D03*
%TD*%
D42*
%TO.C,battery-eject1*%
X50000000Y-57000000D03*
%TD*%
D16*
%TO.C,R5*%
X53633284Y-35576508D03*
X54354532Y-34855260D03*
%TD*%
D14*
%TO.C,stitch1*%
X64694000Y-31788000D03*
%TD*%
D43*
%TO.C,B1*%
X50000000Y-64500000D03*
%TD*%
D44*
%TO.C,D9*%
X54471540Y-27433640D03*
X53516276Y-27265202D03*
%TD*%
D45*
%TO.C,D14*%
X71447051Y-58322214D03*
X71778809Y-57410712D03*
%TD*%
D14*
%TO.C,stitch1*%
X72822000Y-55156000D03*
%TD*%
%TO.C,stitch1*%
X58090000Y-27978000D03*
%TD*%
D46*
%TO.C,D11*%
X67930774Y-35587416D03*
X67307270Y-34844352D03*
%TD*%
D14*
%TO.C,stitch1*%
X50038000Y-26454000D03*
%TD*%
D35*
%TO.C,R3*%
X38860624Y-35576508D03*
X38139376Y-34855260D03*
%TD*%
%LPD*%
M02*
