%TF.GenerationSoftware,KiCad,Pcbnew,8.0.8*%
%TF.CreationDate,2025-02-15T12:27:40-06:00*%
%TF.ProjectId,reverse,72657665-7273-4652-9e6b-696361645f70,rev?*%
%TF.SameCoordinates,Original*%
%TF.FileFunction,Legend,Bot*%
%TF.FilePolarity,Positive*%
%FSLAX46Y46*%
G04 Gerber Fmt 4.6, Leading zero omitted, Abs format (unit mm)*
G04 Created by KiCad (PCBNEW 8.0.8) date 2025-02-15 12:27:40*
%MOMM*%
%LPD*%
G01*
G04 APERTURE LIST*
%ADD10C,0.000000*%
%ADD11C,0.100000*%
%ADD12C,0.300000*%
%ADD13C,0.150000*%
%ADD14C,0.120000*%
%ADD15C,2.000000*%
%ADD16R,1.000000X1.000000*%
%ADD17O,1.000000X1.000000*%
%ADD18C,1.600000*%
%ADD19O,1.200000X4.200000*%
G04 APERTURE END LIST*
D10*
G36*
X47604167Y-118516666D02*
G01*
X47075000Y-118516666D01*
X46545833Y-118516666D01*
X46016667Y-118516666D01*
X45487500Y-118516666D01*
X44958334Y-118516666D01*
X44958334Y-117987500D01*
X45487500Y-117987500D01*
X46016667Y-117987500D01*
X46545833Y-117987500D01*
X47075000Y-117987500D01*
X47604167Y-117987500D01*
X47604167Y-118516666D01*
G37*
G36*
X51308333Y-120104166D02*
G01*
X50779166Y-120104166D01*
X50779166Y-119575000D01*
X51308333Y-119575000D01*
X51308333Y-120104166D01*
G37*
G36*
X50779166Y-110050000D02*
G01*
X50250000Y-110050000D01*
X50250000Y-109520834D01*
X50779166Y-109520834D01*
X50779166Y-110050000D01*
G37*
G36*
X44958334Y-117987500D02*
G01*
X44429167Y-117987500D01*
X44429167Y-117458333D01*
X44958334Y-117458333D01*
X44958334Y-117987500D01*
G37*
G36*
X49720833Y-110050000D02*
G01*
X50250000Y-110050000D01*
X50250000Y-110579167D01*
X49720833Y-110579167D01*
X49720833Y-111108334D01*
X49191667Y-111108334D01*
X48662500Y-111108334D01*
X48662500Y-111637500D01*
X49191667Y-111637500D01*
X49191667Y-112166667D01*
X48662500Y-112166667D01*
X48662500Y-112695833D01*
X48133333Y-112695833D01*
X48133333Y-113225000D01*
X47604167Y-113225000D01*
X47604167Y-112695833D01*
X47604167Y-112166667D01*
X48133333Y-112166667D01*
X48133333Y-111637500D01*
X47604167Y-111637500D01*
X47604167Y-111108334D01*
X48133333Y-111108334D01*
X48133333Y-110579167D01*
X48662500Y-110579167D01*
X49191667Y-110579167D01*
X49191667Y-110050000D01*
X49191667Y-109520834D01*
X49720833Y-109520834D01*
X49720833Y-110050000D01*
G37*
G36*
X47075000Y-117458333D02*
G01*
X46545833Y-117458333D01*
X46545833Y-116929166D01*
X47075000Y-116929166D01*
X47075000Y-117458333D01*
G37*
G36*
X49720833Y-113754167D02*
G01*
X49191667Y-113754167D01*
X49191667Y-113225000D01*
X49720833Y-113225000D01*
X49720833Y-113754167D01*
G37*
G36*
X56070833Y-114283333D02*
G01*
X56070833Y-114812500D01*
X56600000Y-114812500D01*
X56600000Y-115341667D01*
X56600000Y-115870833D01*
X56070833Y-115870833D01*
X55541666Y-115870833D01*
X55541666Y-115341667D01*
X55541666Y-114812500D01*
X55541666Y-114283333D01*
X55541666Y-113754167D01*
X56070833Y-113754167D01*
X56070833Y-114283333D01*
G37*
G36*
X49191667Y-117458333D02*
G01*
X48662500Y-117458333D01*
X48133333Y-117458333D01*
X48133333Y-116929166D01*
X48662500Y-116929166D01*
X49191667Y-116929166D01*
X49191667Y-117458333D01*
G37*
G36*
X44429167Y-115870833D02*
G01*
X43900000Y-115870833D01*
X43900000Y-115341667D01*
X44429167Y-115341667D01*
X44429167Y-115870833D01*
G37*
G36*
X47075000Y-110050000D02*
G01*
X47075000Y-110579167D01*
X47075000Y-111108334D01*
X47075000Y-111637500D01*
X47075000Y-112166667D01*
X47075000Y-112695833D01*
X47075000Y-113225000D01*
X46545833Y-113225000D01*
X46016667Y-113225000D01*
X45487500Y-113225000D01*
X44958334Y-113225000D01*
X44429167Y-113225000D01*
X43900000Y-113225000D01*
X43370834Y-113225000D01*
X43370834Y-112695833D01*
X43370834Y-112166667D01*
X43370834Y-111637500D01*
X43370834Y-111108334D01*
X43900000Y-111108334D01*
X43900000Y-111637500D01*
X43900000Y-112166667D01*
X43900000Y-112695833D01*
X44429167Y-112695833D01*
X44958334Y-112695833D01*
X45487500Y-112695833D01*
X46016667Y-112695833D01*
X46545833Y-112695833D01*
X46545833Y-112166667D01*
X46545833Y-111637500D01*
X46545833Y-111108334D01*
X46545833Y-110579167D01*
X46545833Y-110050000D01*
X46016667Y-110050000D01*
X45487500Y-110050000D01*
X44958334Y-110050000D01*
X44429167Y-110050000D01*
X43900000Y-110050000D01*
X43900000Y-110579167D01*
X43900000Y-111108334D01*
X43370834Y-111108334D01*
X43370834Y-110579167D01*
X43370834Y-110050000D01*
X43370834Y-109520834D01*
X43900000Y-109520834D01*
X44429167Y-109520834D01*
X44958334Y-109520834D01*
X45487500Y-109520834D01*
X46016667Y-109520834D01*
X46545833Y-109520834D01*
X47075000Y-109520834D01*
X47075000Y-110050000D01*
G37*
G36*
X49720833Y-114812500D02*
G01*
X50250000Y-114812500D01*
X50250000Y-115341667D01*
X49720833Y-115341667D01*
X49720833Y-115870833D01*
X49191667Y-115870833D01*
X49191667Y-115341667D01*
X48662500Y-115341667D01*
X48662500Y-114812500D01*
X49191667Y-114812500D01*
X49191667Y-114283333D01*
X49720833Y-114283333D01*
X49720833Y-114812500D01*
G37*
G36*
X51837500Y-110579167D02*
G01*
X52366666Y-110579167D01*
X52366666Y-111108334D01*
X52366666Y-111637500D01*
X52366666Y-112166667D01*
X52366666Y-112695833D01*
X52366666Y-113225000D01*
X51837500Y-113225000D01*
X51837500Y-112695833D01*
X51308333Y-112695833D01*
X51308333Y-112166667D01*
X51837500Y-112166667D01*
X51837500Y-111637500D01*
X51308333Y-111637500D01*
X50779166Y-111637500D01*
X50250000Y-111637500D01*
X50250000Y-111108334D01*
X50779166Y-111108334D01*
X50779166Y-110579167D01*
X51308333Y-110579167D01*
X51308333Y-110050000D01*
X51837500Y-110050000D01*
X51837500Y-110579167D01*
G37*
G36*
X46016667Y-114283333D02*
G01*
X46545833Y-114283333D01*
X46545833Y-114812500D01*
X46016667Y-114812500D01*
X46016667Y-115341667D01*
X46545833Y-115341667D01*
X46545833Y-115870833D01*
X47075000Y-115870833D01*
X47075000Y-116400000D01*
X46545833Y-116400000D01*
X46545833Y-116929166D01*
X46016667Y-116929166D01*
X46016667Y-116400000D01*
X45487500Y-116400000D01*
X45487500Y-116929166D01*
X44958334Y-116929166D01*
X44429167Y-116929166D01*
X43900000Y-116929166D01*
X43900000Y-117458333D01*
X43900000Y-117987500D01*
X43900000Y-118516666D01*
X43370834Y-118516666D01*
X43370834Y-117987500D01*
X43370834Y-117458333D01*
X43370834Y-116929166D01*
X43370834Y-116400000D01*
X43370834Y-115870833D01*
X43900000Y-115870833D01*
X43900000Y-116400000D01*
X44429167Y-116400000D01*
X44429167Y-115870833D01*
X44958334Y-115870833D01*
X44958334Y-116400000D01*
X45487500Y-116400000D01*
X45487500Y-115870833D01*
X45487500Y-115341667D01*
X44958334Y-115341667D01*
X44958334Y-114812500D01*
X44429167Y-114812500D01*
X43900000Y-114812500D01*
X43900000Y-115341667D01*
X43370834Y-115341667D01*
X43370834Y-114812500D01*
X43370834Y-114283333D01*
X43370834Y-113754167D01*
X43900000Y-113754167D01*
X44429167Y-113754167D01*
X44958334Y-113754167D01*
X45487500Y-113754167D01*
X46016667Y-113754167D01*
X46016667Y-114283333D01*
G37*
G36*
X50779166Y-115870833D02*
G01*
X50779166Y-116400000D01*
X50250000Y-116400000D01*
X50250000Y-115870833D01*
X50250000Y-115341667D01*
X50779166Y-115341667D01*
X50779166Y-115870833D01*
G37*
G36*
X48662500Y-110050000D02*
G01*
X48133333Y-110050000D01*
X48133333Y-109520834D01*
X48662500Y-109520834D01*
X48662500Y-110050000D01*
G37*
G36*
X56600000Y-110050000D02*
G01*
X56600000Y-110579167D01*
X56600000Y-111108334D01*
X56600000Y-111637500D01*
X56600000Y-112166667D01*
X56600000Y-112695833D01*
X56600000Y-113225000D01*
X56070833Y-113225000D01*
X55541666Y-113225000D01*
X55012500Y-113225000D01*
X54483333Y-113225000D01*
X53954166Y-113225000D01*
X53425000Y-113225000D01*
X52895833Y-113225000D01*
X52895833Y-112695833D01*
X52895833Y-112166667D01*
X52895833Y-111637500D01*
X52895833Y-111108334D01*
X53425000Y-111108334D01*
X53425000Y-111637500D01*
X53425000Y-112166667D01*
X53425000Y-112695833D01*
X53954166Y-112695833D01*
X54483333Y-112695833D01*
X55012500Y-112695833D01*
X55541666Y-112695833D01*
X56070833Y-112695833D01*
X56070833Y-112166667D01*
X56070833Y-111637500D01*
X56070833Y-111108334D01*
X56070833Y-110579167D01*
X56070833Y-110050000D01*
X55541666Y-110050000D01*
X55012500Y-110050000D01*
X54483333Y-110050000D01*
X53954166Y-110050000D01*
X53425000Y-110050000D01*
X53425000Y-110579167D01*
X53425000Y-111108334D01*
X52895833Y-111108334D01*
X52895833Y-110579167D01*
X52895833Y-110050000D01*
X52895833Y-109520834D01*
X53425000Y-109520834D01*
X53954166Y-109520834D01*
X54483333Y-109520834D01*
X55012500Y-109520834D01*
X55541666Y-109520834D01*
X56070833Y-109520834D01*
X56600000Y-109520834D01*
X56600000Y-110050000D01*
G37*
G36*
X48662500Y-118516666D02*
G01*
X49191667Y-118516666D01*
X49720833Y-118516666D01*
X49720833Y-119045833D01*
X50250000Y-119045833D01*
X50779166Y-119045833D01*
X50779166Y-119575000D01*
X50250000Y-119575000D01*
X50250000Y-120104166D01*
X49720833Y-120104166D01*
X49191667Y-120104166D01*
X49191667Y-120633333D01*
X49720833Y-120633333D01*
X49720833Y-121162500D01*
X49191667Y-121162500D01*
X48662500Y-121162500D01*
X48662500Y-121691666D01*
X48662500Y-122220833D01*
X48133333Y-122220833D01*
X48133333Y-122750000D01*
X47604167Y-122750000D01*
X47604167Y-122220833D01*
X47604167Y-121691666D01*
X47604167Y-121162500D01*
X47604167Y-120633333D01*
X47604167Y-120104166D01*
X48133333Y-120104166D01*
X48133333Y-120633333D01*
X48662500Y-120633333D01*
X48662500Y-120104166D01*
X48662500Y-119575000D01*
X48662500Y-119045833D01*
X48133333Y-119045833D01*
X48133333Y-119575000D01*
X47604167Y-119575000D01*
X47604167Y-119045833D01*
X47604167Y-118516666D01*
X48133333Y-118516666D01*
X48133333Y-117987500D01*
X48662500Y-117987500D01*
X48662500Y-118516666D01*
G37*
G36*
X50250000Y-122220833D02*
G01*
X49720833Y-122220833D01*
X49191667Y-122220833D01*
X49191667Y-121691666D01*
X49720833Y-121691666D01*
X50250000Y-121691666D01*
X50250000Y-122220833D01*
G37*
G36*
X50779166Y-121691666D02*
G01*
X50250000Y-121691666D01*
X50250000Y-121162500D01*
X50779166Y-121162500D01*
X50779166Y-121691666D01*
G37*
G36*
X56600000Y-117458333D02*
G01*
X56070833Y-117458333D01*
X56070833Y-117987500D01*
X56600000Y-117987500D01*
X56600000Y-118516666D01*
X56070833Y-118516666D01*
X55541666Y-118516666D01*
X55012500Y-118516666D01*
X55012500Y-117987500D01*
X55541666Y-117987500D01*
X55541666Y-117458333D01*
X55541666Y-116929166D01*
X56070833Y-116929166D01*
X56600000Y-116929166D01*
X56600000Y-117458333D01*
G37*
G36*
X48133333Y-110579167D02*
G01*
X47604167Y-110579167D01*
X47604167Y-110050000D01*
X48133333Y-110050000D01*
X48133333Y-110579167D01*
G37*
G36*
X56600000Y-119575000D02*
G01*
X56070833Y-119575000D01*
X56070833Y-120104166D01*
X55541666Y-120104166D01*
X55541666Y-119575000D01*
X55541666Y-119045833D01*
X56070833Y-119045833D01*
X56600000Y-119045833D01*
X56600000Y-119575000D01*
G37*
G36*
X55541666Y-111108334D02*
G01*
X55541666Y-111637500D01*
X55541666Y-112166667D01*
X55012500Y-112166667D01*
X54483333Y-112166667D01*
X53954166Y-112166667D01*
X53954166Y-111637500D01*
X53954166Y-111108334D01*
X53954166Y-110579167D01*
X54483333Y-110579167D01*
X55012500Y-110579167D01*
X55541666Y-110579167D01*
X55541666Y-111108334D01*
G37*
G36*
X52366666Y-110050000D02*
G01*
X51837500Y-110050000D01*
X51837500Y-109520834D01*
X52366666Y-109520834D01*
X52366666Y-110050000D01*
G37*
G36*
X49191667Y-113225000D02*
G01*
X48662500Y-113225000D01*
X48662500Y-112695833D01*
X49191667Y-112695833D01*
X49191667Y-113225000D01*
G37*
G36*
X55012500Y-114283333D02*
G01*
X54483333Y-114283333D01*
X54483333Y-113754167D01*
X55012500Y-113754167D01*
X55012500Y-114283333D01*
G37*
G36*
X50250000Y-112166667D02*
G01*
X50779166Y-112166667D01*
X50779166Y-112695833D01*
X50250000Y-112695833D01*
X50250000Y-113225000D01*
X49720833Y-113225000D01*
X49720833Y-112695833D01*
X49191667Y-112695833D01*
X49191667Y-112166667D01*
X49720833Y-112166667D01*
X49720833Y-111637500D01*
X50250000Y-111637500D01*
X50250000Y-112166667D01*
G37*
G36*
X46016667Y-120633333D02*
G01*
X46016667Y-121162500D01*
X46016667Y-121691666D01*
X45487500Y-121691666D01*
X44958334Y-121691666D01*
X44429167Y-121691666D01*
X44429167Y-121162500D01*
X44429167Y-120633333D01*
X44429167Y-120104166D01*
X44958334Y-120104166D01*
X45487500Y-120104166D01*
X46016667Y-120104166D01*
X46016667Y-120633333D01*
G37*
G36*
X47075000Y-119575000D02*
G01*
X47075000Y-120104166D01*
X47075000Y-120633333D01*
X47075000Y-121162500D01*
X47075000Y-121691666D01*
X47075000Y-122220833D01*
X47075000Y-122750000D01*
X46545833Y-122750000D01*
X46016667Y-122750000D01*
X45487500Y-122750000D01*
X44958334Y-122750000D01*
X44429167Y-122750000D01*
X43900000Y-122750000D01*
X43370834Y-122750000D01*
X43370834Y-122220833D01*
X43370834Y-121691666D01*
X43370834Y-121162500D01*
X43370834Y-120633333D01*
X43900000Y-120633333D01*
X43900000Y-121162500D01*
X43900000Y-121691666D01*
X43900000Y-122220833D01*
X44429167Y-122220833D01*
X44958334Y-122220833D01*
X45487500Y-122220833D01*
X46016667Y-122220833D01*
X46545833Y-122220833D01*
X46545833Y-121691666D01*
X46545833Y-121162500D01*
X46545833Y-120633333D01*
X46545833Y-120104166D01*
X46545833Y-119575000D01*
X46016667Y-119575000D01*
X45487500Y-119575000D01*
X44958334Y-119575000D01*
X44429167Y-119575000D01*
X43900000Y-119575000D01*
X43900000Y-120104166D01*
X43900000Y-120633333D01*
X43370834Y-120633333D01*
X43370834Y-120104166D01*
X43370834Y-119575000D01*
X43370834Y-119045833D01*
X43900000Y-119045833D01*
X44429167Y-119045833D01*
X44958334Y-119045833D01*
X45487500Y-119045833D01*
X46016667Y-119045833D01*
X46545833Y-119045833D01*
X47075000Y-119045833D01*
X47075000Y-119575000D01*
G37*
G36*
X50779166Y-120633333D02*
G01*
X50250000Y-120633333D01*
X50250000Y-120104166D01*
X50779166Y-120104166D01*
X50779166Y-120633333D01*
G37*
G36*
X51308333Y-122220833D02*
G01*
X50779166Y-122220833D01*
X50779166Y-121691666D01*
X51308333Y-121691666D01*
X51308333Y-122220833D01*
G37*
G36*
X53425000Y-119575000D02*
G01*
X52895833Y-119575000D01*
X52895833Y-119045833D01*
X53425000Y-119045833D01*
X53425000Y-119575000D01*
G37*
G36*
X46016667Y-117458333D02*
G01*
X45487500Y-117458333D01*
X45487500Y-116929166D01*
X46016667Y-116929166D01*
X46016667Y-117458333D01*
G37*
G36*
X51837500Y-117458333D02*
G01*
X52366666Y-117458333D01*
X52366666Y-116929166D01*
X52895833Y-116929166D01*
X52895833Y-117458333D01*
X52895833Y-117987500D01*
X53425000Y-117987500D01*
X53954166Y-117987500D01*
X54483333Y-117987500D01*
X54483333Y-118516666D01*
X54483333Y-119045833D01*
X54483333Y-119575000D01*
X54483333Y-120104166D01*
X55012500Y-120104166D01*
X55541666Y-120104166D01*
X55541666Y-120633333D01*
X56070833Y-120633333D01*
X56070833Y-120104166D01*
X56600000Y-120104166D01*
X56600000Y-120633333D01*
X56600000Y-121162500D01*
X56600000Y-121691666D01*
X56600000Y-122220833D01*
X56600000Y-122750000D01*
X56070833Y-122750000D01*
X55541666Y-122750000D01*
X55012500Y-122750000D01*
X54483333Y-122750000D01*
X53954166Y-122750000D01*
X53425000Y-122750000D01*
X52895833Y-122750000D01*
X52366666Y-122750000D01*
X52366666Y-122220833D01*
X51837500Y-122220833D01*
X51837500Y-121691666D01*
X52366666Y-121691666D01*
X52895833Y-121691666D01*
X53425000Y-121691666D01*
X53425000Y-122220833D01*
X53954166Y-122220833D01*
X55012500Y-122220833D01*
X55541666Y-122220833D01*
X56070833Y-122220833D01*
X56070833Y-121691666D01*
X56070833Y-121162500D01*
X55541666Y-121162500D01*
X55541666Y-121691666D01*
X55012500Y-121691666D01*
X55012500Y-122220833D01*
X53954166Y-122220833D01*
X53954166Y-121691666D01*
X54483333Y-121691666D01*
X54483333Y-121162500D01*
X53954166Y-121162500D01*
X53954166Y-120633333D01*
X55012500Y-120633333D01*
X55012500Y-121162500D01*
X55541666Y-121162500D01*
X55541666Y-120633333D01*
X55012500Y-120633333D01*
X53954166Y-120633333D01*
X53425000Y-120633333D01*
X53425000Y-121162500D01*
X52895833Y-121162500D01*
X52366666Y-121162500D01*
X52366666Y-120633333D01*
X51837500Y-120633333D01*
X51308333Y-120633333D01*
X51308333Y-120104166D01*
X51837500Y-120104166D01*
X51837500Y-119575000D01*
X52366666Y-119575000D01*
X52366666Y-120104166D01*
X52895833Y-120104166D01*
X53425000Y-120104166D01*
X53954166Y-120104166D01*
X53954166Y-119575000D01*
X53954166Y-119045833D01*
X53954166Y-118516666D01*
X53425000Y-118516666D01*
X52895833Y-118516666D01*
X52366666Y-118516666D01*
X52366666Y-119045833D01*
X52366666Y-119575000D01*
X51837500Y-119575000D01*
X51837500Y-119045833D01*
X51837500Y-118516666D01*
X51308333Y-118516666D01*
X50779166Y-118516666D01*
X50250000Y-118516666D01*
X50250000Y-117987500D01*
X50779166Y-117987500D01*
X50779166Y-117458333D01*
X51308333Y-117458333D01*
X51308333Y-116929166D01*
X51837500Y-116929166D01*
X51837500Y-117458333D01*
G37*
G36*
X48133333Y-117987500D02*
G01*
X47604167Y-117987500D01*
X47604167Y-117458333D01*
X48133333Y-117458333D01*
X48133333Y-117987500D01*
G37*
G36*
X48662500Y-113754167D02*
G01*
X48662500Y-114283333D01*
X48133333Y-114283333D01*
X47604167Y-114283333D01*
X47075000Y-114283333D01*
X46545833Y-114283333D01*
X46545833Y-113754167D01*
X47075000Y-113754167D01*
X47604167Y-113754167D01*
X48133333Y-113754167D01*
X48133333Y-113225000D01*
X48662500Y-113225000D01*
X48662500Y-113754167D01*
G37*
G36*
X51308333Y-113225000D02*
G01*
X51308333Y-113754167D01*
X51837500Y-113754167D01*
X51837500Y-114283333D01*
X51308333Y-114283333D01*
X50779166Y-114283333D01*
X50779166Y-113754167D01*
X50779166Y-113225000D01*
X50779166Y-112695833D01*
X51308333Y-112695833D01*
X51308333Y-113225000D01*
G37*
G36*
X50779166Y-122750000D02*
G01*
X50250000Y-122750000D01*
X50250000Y-122220833D01*
X50779166Y-122220833D01*
X50779166Y-122750000D01*
G37*
G36*
X52895833Y-114283333D02*
G01*
X52366666Y-114283333D01*
X52366666Y-113754167D01*
X52895833Y-113754167D01*
X52895833Y-114283333D01*
G37*
G36*
X48133333Y-115341667D02*
G01*
X48133333Y-115870833D01*
X48662500Y-115870833D01*
X49191667Y-115870833D01*
X49191667Y-116400000D01*
X48662500Y-116400000D01*
X48133333Y-116400000D01*
X48133333Y-116929166D01*
X47604167Y-116929166D01*
X47604167Y-116400000D01*
X47604167Y-115870833D01*
X47604167Y-115341667D01*
X47604167Y-114812500D01*
X48133333Y-114812500D01*
X48133333Y-115341667D01*
G37*
G36*
X50250000Y-116929166D02*
G01*
X50779166Y-116929166D01*
X50779166Y-117458333D01*
X50250000Y-117458333D01*
X49720833Y-117458333D01*
X49720833Y-116929166D01*
X49191667Y-116929166D01*
X49191667Y-116400000D01*
X49720833Y-116400000D01*
X50250000Y-116400000D01*
X50250000Y-116929166D01*
G37*
G36*
X47075000Y-115341667D02*
G01*
X46545833Y-115341667D01*
X46545833Y-114812500D01*
X47075000Y-114812500D01*
X47075000Y-115341667D01*
G37*
G36*
X52366666Y-116929166D02*
G01*
X51837500Y-116929166D01*
X51837500Y-116400000D01*
X52366666Y-116400000D01*
X52366666Y-116929166D01*
G37*
G36*
X49720833Y-117987500D02*
G01*
X49191667Y-117987500D01*
X49191667Y-117458333D01*
X49720833Y-117458333D01*
X49720833Y-117987500D01*
G37*
G36*
X53954166Y-121691666D02*
G01*
X53425000Y-121691666D01*
X53425000Y-121162500D01*
X53954166Y-121162500D01*
X53954166Y-121691666D01*
G37*
G36*
X53954166Y-114283333D02*
G01*
X53954166Y-114812500D01*
X54483333Y-114812500D01*
X55012500Y-114812500D01*
X55012500Y-115341667D01*
X54483333Y-115341667D01*
X54483333Y-115870833D01*
X55012500Y-115870833D01*
X55541666Y-115870833D01*
X55541666Y-116400000D01*
X55541666Y-116929166D01*
X55012500Y-116929166D01*
X55012500Y-117458333D01*
X54483333Y-117458333D01*
X53954166Y-117458333D01*
X53425000Y-117458333D01*
X53425000Y-116929166D01*
X53425000Y-116400000D01*
X53954166Y-116400000D01*
X53954166Y-116929166D01*
X54483333Y-116929166D01*
X54483333Y-116400000D01*
X53954166Y-116400000D01*
X53954166Y-115870833D01*
X53425000Y-115870833D01*
X53425000Y-116400000D01*
X52895833Y-116400000D01*
X52895833Y-115870833D01*
X52366666Y-115870833D01*
X51837500Y-115870833D01*
X51837500Y-116400000D01*
X51308333Y-116400000D01*
X51308333Y-115870833D01*
X51308333Y-115341667D01*
X51308333Y-114812500D01*
X51837500Y-114812500D01*
X51837500Y-114283333D01*
X52366666Y-114283333D01*
X52366666Y-114812500D01*
X52895833Y-114812500D01*
X52895833Y-115341667D01*
X53425000Y-115341667D01*
X53425000Y-114812500D01*
X53425000Y-114283333D01*
X53425000Y-113754167D01*
X53954166Y-113754167D01*
X53954166Y-114283333D01*
G37*
G36*
X46016667Y-111108334D02*
G01*
X46016667Y-111637500D01*
X46016667Y-112166667D01*
X45487500Y-112166667D01*
X44958334Y-112166667D01*
X44429167Y-112166667D01*
X44429167Y-111637500D01*
X44429167Y-111108334D01*
X44429167Y-110579167D01*
X44958334Y-110579167D01*
X45487500Y-110579167D01*
X46016667Y-110579167D01*
X46016667Y-111108334D01*
G37*
G36*
X51308333Y-121162500D02*
G01*
X50779166Y-121162500D01*
X50779166Y-120633333D01*
X51308333Y-120633333D01*
X51308333Y-121162500D01*
G37*
D11*
X48051353Y-123332419D02*
X47432306Y-123332419D01*
X47432306Y-123332419D02*
X47765639Y-123713371D01*
X47765639Y-123713371D02*
X47622782Y-123713371D01*
X47622782Y-123713371D02*
X47527544Y-123760990D01*
X47527544Y-123760990D02*
X47479925Y-123808609D01*
X47479925Y-123808609D02*
X47432306Y-123903847D01*
X47432306Y-123903847D02*
X47432306Y-124141942D01*
X47432306Y-124141942D02*
X47479925Y-124237180D01*
X47479925Y-124237180D02*
X47527544Y-124284800D01*
X47527544Y-124284800D02*
X47622782Y-124332419D01*
X47622782Y-124332419D02*
X47908496Y-124332419D01*
X47908496Y-124332419D02*
X48003734Y-124284800D01*
X48003734Y-124284800D02*
X48051353Y-124237180D01*
X47146591Y-123332419D02*
X46813258Y-124332419D01*
X46813258Y-124332419D02*
X46479925Y-123332419D01*
D12*
X68323716Y-87541923D02*
X68323716Y-88837161D01*
X68323716Y-88837161D02*
X68399906Y-88989542D01*
X68399906Y-88989542D02*
X68476097Y-89065733D01*
X68476097Y-89065733D02*
X68628478Y-89141923D01*
X68628478Y-89141923D02*
X68857049Y-89141923D01*
X68857049Y-89141923D02*
X69009430Y-89065733D01*
X68323716Y-88532400D02*
X68476097Y-88608590D01*
X68476097Y-88608590D02*
X68780859Y-88608590D01*
X68780859Y-88608590D02*
X68933240Y-88532400D01*
X68933240Y-88532400D02*
X69009430Y-88456209D01*
X69009430Y-88456209D02*
X69085621Y-88303828D01*
X69085621Y-88303828D02*
X69085621Y-87846685D01*
X69085621Y-87846685D02*
X69009430Y-87694304D01*
X69009430Y-87694304D02*
X68933240Y-87618114D01*
X68933240Y-87618114D02*
X68780859Y-87541923D01*
X68780859Y-87541923D02*
X68476097Y-87541923D01*
X68476097Y-87541923D02*
X68323716Y-87618114D01*
X67561811Y-88608590D02*
X67561811Y-87541923D01*
X67561811Y-87008590D02*
X67638002Y-87084780D01*
X67638002Y-87084780D02*
X67561811Y-87160971D01*
X67561811Y-87160971D02*
X67485621Y-87084780D01*
X67485621Y-87084780D02*
X67561811Y-87008590D01*
X67561811Y-87008590D02*
X67561811Y-87160971D01*
X67028478Y-87541923D02*
X66418954Y-87541923D01*
X66799906Y-87008590D02*
X66799906Y-88380019D01*
X66799906Y-88380019D02*
X66723716Y-88532400D01*
X66723716Y-88532400D02*
X66571335Y-88608590D01*
X66571335Y-88608590D02*
X66418954Y-88608590D01*
X65885620Y-88608590D02*
X65885620Y-87008590D01*
X65199906Y-88608590D02*
X65199906Y-87770495D01*
X65199906Y-87770495D02*
X65276096Y-87618114D01*
X65276096Y-87618114D02*
X65428477Y-87541923D01*
X65428477Y-87541923D02*
X65657049Y-87541923D01*
X65657049Y-87541923D02*
X65809430Y-87618114D01*
X65809430Y-87618114D02*
X65885620Y-87694304D01*
X63752287Y-87541923D02*
X63752287Y-88608590D01*
X64438001Y-87541923D02*
X64438001Y-88380019D01*
X64438001Y-88380019D02*
X64361811Y-88532400D01*
X64361811Y-88532400D02*
X64209430Y-88608590D01*
X64209430Y-88608590D02*
X63980858Y-88608590D01*
X63980858Y-88608590D02*
X63828477Y-88532400D01*
X63828477Y-88532400D02*
X63752287Y-88456209D01*
X62990382Y-88608590D02*
X62990382Y-87008590D01*
X62990382Y-87618114D02*
X62838001Y-87541923D01*
X62838001Y-87541923D02*
X62533239Y-87541923D01*
X62533239Y-87541923D02*
X62380858Y-87618114D01*
X62380858Y-87618114D02*
X62304668Y-87694304D01*
X62304668Y-87694304D02*
X62228477Y-87846685D01*
X62228477Y-87846685D02*
X62228477Y-88303828D01*
X62228477Y-88303828D02*
X62304668Y-88456209D01*
X62304668Y-88456209D02*
X62380858Y-88532400D01*
X62380858Y-88532400D02*
X62533239Y-88608590D01*
X62533239Y-88608590D02*
X62838001Y-88608590D01*
X62838001Y-88608590D02*
X62990382Y-88532400D01*
X61542763Y-88456209D02*
X61466573Y-88532400D01*
X61466573Y-88532400D02*
X61542763Y-88608590D01*
X61542763Y-88608590D02*
X61618954Y-88532400D01*
X61618954Y-88532400D02*
X61542763Y-88456209D01*
X61542763Y-88456209D02*
X61542763Y-88608590D01*
X60095144Y-88532400D02*
X60247525Y-88608590D01*
X60247525Y-88608590D02*
X60552287Y-88608590D01*
X60552287Y-88608590D02*
X60704668Y-88532400D01*
X60704668Y-88532400D02*
X60780858Y-88456209D01*
X60780858Y-88456209D02*
X60857049Y-88303828D01*
X60857049Y-88303828D02*
X60857049Y-87846685D01*
X60857049Y-87846685D02*
X60780858Y-87694304D01*
X60780858Y-87694304D02*
X60704668Y-87618114D01*
X60704668Y-87618114D02*
X60552287Y-87541923D01*
X60552287Y-87541923D02*
X60247525Y-87541923D01*
X60247525Y-87541923D02*
X60095144Y-87618114D01*
X59180858Y-88608590D02*
X59333239Y-88532400D01*
X59333239Y-88532400D02*
X59409429Y-88456209D01*
X59409429Y-88456209D02*
X59485620Y-88303828D01*
X59485620Y-88303828D02*
X59485620Y-87846685D01*
X59485620Y-87846685D02*
X59409429Y-87694304D01*
X59409429Y-87694304D02*
X59333239Y-87618114D01*
X59333239Y-87618114D02*
X59180858Y-87541923D01*
X59180858Y-87541923D02*
X58952286Y-87541923D01*
X58952286Y-87541923D02*
X58799905Y-87618114D01*
X58799905Y-87618114D02*
X58723715Y-87694304D01*
X58723715Y-87694304D02*
X58647524Y-87846685D01*
X58647524Y-87846685D02*
X58647524Y-88303828D01*
X58647524Y-88303828D02*
X58723715Y-88456209D01*
X58723715Y-88456209D02*
X58799905Y-88532400D01*
X58799905Y-88532400D02*
X58952286Y-88608590D01*
X58952286Y-88608590D02*
X59180858Y-88608590D01*
X57961810Y-88608590D02*
X57961810Y-87541923D01*
X57961810Y-87694304D02*
X57885620Y-87618114D01*
X57885620Y-87618114D02*
X57733239Y-87541923D01*
X57733239Y-87541923D02*
X57504667Y-87541923D01*
X57504667Y-87541923D02*
X57352286Y-87618114D01*
X57352286Y-87618114D02*
X57276096Y-87770495D01*
X57276096Y-87770495D02*
X57276096Y-88608590D01*
X57276096Y-87770495D02*
X57199905Y-87618114D01*
X57199905Y-87618114D02*
X57047524Y-87541923D01*
X57047524Y-87541923D02*
X56818953Y-87541923D01*
X56818953Y-87541923D02*
X56666572Y-87618114D01*
X56666572Y-87618114D02*
X56590382Y-87770495D01*
X56590382Y-87770495D02*
X56590382Y-88608590D01*
X54685620Y-86932400D02*
X56057049Y-88989542D01*
X53542763Y-88532400D02*
X53695144Y-88608590D01*
X53695144Y-88608590D02*
X53999906Y-88608590D01*
X53999906Y-88608590D02*
X54152287Y-88532400D01*
X54152287Y-88532400D02*
X54228478Y-88380019D01*
X54228478Y-88380019D02*
X54228478Y-87770495D01*
X54228478Y-87770495D02*
X54152287Y-87618114D01*
X54152287Y-87618114D02*
X53999906Y-87541923D01*
X53999906Y-87541923D02*
X53695144Y-87541923D01*
X53695144Y-87541923D02*
X53542763Y-87618114D01*
X53542763Y-87618114D02*
X53466573Y-87770495D01*
X53466573Y-87770495D02*
X53466573Y-87922876D01*
X53466573Y-87922876D02*
X54228478Y-88075257D01*
X52095144Y-87541923D02*
X52095144Y-88608590D01*
X52780858Y-87541923D02*
X52780858Y-88380019D01*
X52780858Y-88380019D02*
X52704668Y-88532400D01*
X52704668Y-88532400D02*
X52552287Y-88608590D01*
X52552287Y-88608590D02*
X52323715Y-88608590D01*
X52323715Y-88608590D02*
X52171334Y-88532400D01*
X52171334Y-88532400D02*
X52095144Y-88456209D01*
X51561811Y-87541923D02*
X50952287Y-87541923D01*
X51333239Y-87008590D02*
X51333239Y-88380019D01*
X51333239Y-88380019D02*
X51257049Y-88532400D01*
X51257049Y-88532400D02*
X51104668Y-88608590D01*
X51104668Y-88608590D02*
X50952287Y-88608590D01*
X49809429Y-88532400D02*
X49961810Y-88608590D01*
X49961810Y-88608590D02*
X50266572Y-88608590D01*
X50266572Y-88608590D02*
X50418953Y-88532400D01*
X50418953Y-88532400D02*
X50495144Y-88380019D01*
X50495144Y-88380019D02*
X50495144Y-87770495D01*
X50495144Y-87770495D02*
X50418953Y-87618114D01*
X50418953Y-87618114D02*
X50266572Y-87541923D01*
X50266572Y-87541923D02*
X49961810Y-87541923D01*
X49961810Y-87541923D02*
X49809429Y-87618114D01*
X49809429Y-87618114D02*
X49733239Y-87770495D01*
X49733239Y-87770495D02*
X49733239Y-87922876D01*
X49733239Y-87922876D02*
X50495144Y-88075257D01*
X48361810Y-88532400D02*
X48514191Y-88608590D01*
X48514191Y-88608590D02*
X48818953Y-88608590D01*
X48818953Y-88608590D02*
X48971334Y-88532400D01*
X48971334Y-88532400D02*
X49047524Y-88456209D01*
X49047524Y-88456209D02*
X49123715Y-88303828D01*
X49123715Y-88303828D02*
X49123715Y-87846685D01*
X49123715Y-87846685D02*
X49047524Y-87694304D01*
X49047524Y-87694304D02*
X48971334Y-87618114D01*
X48971334Y-87618114D02*
X48818953Y-87541923D01*
X48818953Y-87541923D02*
X48514191Y-87541923D01*
X48514191Y-87541923D02*
X48361810Y-87618114D01*
X47904667Y-87541923D02*
X47295143Y-87541923D01*
X47676095Y-87008590D02*
X47676095Y-88380019D01*
X47676095Y-88380019D02*
X47599905Y-88532400D01*
X47599905Y-88532400D02*
X47447524Y-88608590D01*
X47447524Y-88608590D02*
X47295143Y-88608590D01*
X46761809Y-88608590D02*
X46761809Y-87541923D01*
X46761809Y-87008590D02*
X46838000Y-87084780D01*
X46838000Y-87084780D02*
X46761809Y-87160971D01*
X46761809Y-87160971D02*
X46685619Y-87084780D01*
X46685619Y-87084780D02*
X46761809Y-87008590D01*
X46761809Y-87008590D02*
X46761809Y-87160971D01*
X45314190Y-88532400D02*
X45466571Y-88608590D01*
X45466571Y-88608590D02*
X45771333Y-88608590D01*
X45771333Y-88608590D02*
X45923714Y-88532400D01*
X45923714Y-88532400D02*
X45999904Y-88456209D01*
X45999904Y-88456209D02*
X46076095Y-88303828D01*
X46076095Y-88303828D02*
X46076095Y-87846685D01*
X46076095Y-87846685D02*
X45999904Y-87694304D01*
X45999904Y-87694304D02*
X45923714Y-87618114D01*
X45923714Y-87618114D02*
X45771333Y-87541923D01*
X45771333Y-87541923D02*
X45466571Y-87541923D01*
X45466571Y-87541923D02*
X45314190Y-87618114D01*
X43942761Y-87008590D02*
X44247523Y-87008590D01*
X44247523Y-87008590D02*
X44399904Y-87084780D01*
X44399904Y-87084780D02*
X44476094Y-87160971D01*
X44476094Y-87160971D02*
X44628475Y-87389542D01*
X44628475Y-87389542D02*
X44704666Y-87694304D01*
X44704666Y-87694304D02*
X44704666Y-88303828D01*
X44704666Y-88303828D02*
X44628475Y-88456209D01*
X44628475Y-88456209D02*
X44552285Y-88532400D01*
X44552285Y-88532400D02*
X44399904Y-88608590D01*
X44399904Y-88608590D02*
X44095142Y-88608590D01*
X44095142Y-88608590D02*
X43942761Y-88532400D01*
X43942761Y-88532400D02*
X43866570Y-88456209D01*
X43866570Y-88456209D02*
X43790380Y-88303828D01*
X43790380Y-88303828D02*
X43790380Y-87922876D01*
X43790380Y-87922876D02*
X43866570Y-87770495D01*
X43866570Y-87770495D02*
X43942761Y-87694304D01*
X43942761Y-87694304D02*
X44095142Y-87618114D01*
X44095142Y-87618114D02*
X44399904Y-87618114D01*
X44399904Y-87618114D02*
X44552285Y-87694304D01*
X44552285Y-87694304D02*
X44628475Y-87770495D01*
X44628475Y-87770495D02*
X44704666Y-87922876D01*
X43257046Y-87008590D02*
X42266570Y-87008590D01*
X42266570Y-87008590D02*
X42799903Y-87618114D01*
X42799903Y-87618114D02*
X42571332Y-87618114D01*
X42571332Y-87618114D02*
X42418951Y-87694304D01*
X42418951Y-87694304D02*
X42342760Y-87770495D01*
X42342760Y-87770495D02*
X42266570Y-87922876D01*
X42266570Y-87922876D02*
X42266570Y-88303828D01*
X42266570Y-88303828D02*
X42342760Y-88456209D01*
X42342760Y-88456209D02*
X42418951Y-88532400D01*
X42418951Y-88532400D02*
X42571332Y-88608590D01*
X42571332Y-88608590D02*
X43028475Y-88608590D01*
X43028475Y-88608590D02*
X43180856Y-88532400D01*
X43180856Y-88532400D02*
X43257046Y-88456209D01*
X41733236Y-87008590D02*
X40742760Y-87008590D01*
X40742760Y-87008590D02*
X41276093Y-87618114D01*
X41276093Y-87618114D02*
X41047522Y-87618114D01*
X41047522Y-87618114D02*
X40895141Y-87694304D01*
X40895141Y-87694304D02*
X40818950Y-87770495D01*
X40818950Y-87770495D02*
X40742760Y-87922876D01*
X40742760Y-87922876D02*
X40742760Y-88303828D01*
X40742760Y-88303828D02*
X40818950Y-88456209D01*
X40818950Y-88456209D02*
X40895141Y-88532400D01*
X40895141Y-88532400D02*
X41047522Y-88608590D01*
X41047522Y-88608590D02*
X41504665Y-88608590D01*
X41504665Y-88608590D02*
X41657046Y-88532400D01*
X41657046Y-88532400D02*
X41733236Y-88456209D01*
X40209426Y-87008590D02*
X39142759Y-87008590D01*
X39142759Y-87008590D02*
X39828474Y-88608590D01*
X37390378Y-86932400D02*
X38761807Y-88989542D01*
X36171331Y-88532400D02*
X36323712Y-88608590D01*
X36323712Y-88608590D02*
X36628474Y-88608590D01*
X36628474Y-88608590D02*
X36780855Y-88532400D01*
X36780855Y-88532400D02*
X36857045Y-88456209D01*
X36857045Y-88456209D02*
X36933236Y-88303828D01*
X36933236Y-88303828D02*
X36933236Y-87846685D01*
X36933236Y-87846685D02*
X36857045Y-87694304D01*
X36857045Y-87694304D02*
X36780855Y-87618114D01*
X36780855Y-87618114D02*
X36628474Y-87541923D01*
X36628474Y-87541923D02*
X36323712Y-87541923D01*
X36323712Y-87541923D02*
X36171331Y-87618114D01*
X35257045Y-88608590D02*
X35409426Y-88532400D01*
X35409426Y-88532400D02*
X35485616Y-88456209D01*
X35485616Y-88456209D02*
X35561807Y-88303828D01*
X35561807Y-88303828D02*
X35561807Y-87846685D01*
X35561807Y-87846685D02*
X35485616Y-87694304D01*
X35485616Y-87694304D02*
X35409426Y-87618114D01*
X35409426Y-87618114D02*
X35257045Y-87541923D01*
X35257045Y-87541923D02*
X35028473Y-87541923D01*
X35028473Y-87541923D02*
X34876092Y-87618114D01*
X34876092Y-87618114D02*
X34799902Y-87694304D01*
X34799902Y-87694304D02*
X34723711Y-87846685D01*
X34723711Y-87846685D02*
X34723711Y-88303828D01*
X34723711Y-88303828D02*
X34799902Y-88456209D01*
X34799902Y-88456209D02*
X34876092Y-88532400D01*
X34876092Y-88532400D02*
X35028473Y-88608590D01*
X35028473Y-88608590D02*
X35257045Y-88608590D01*
X34037997Y-88608590D02*
X34037997Y-87541923D01*
X34037997Y-87008590D02*
X34114188Y-87084780D01*
X34114188Y-87084780D02*
X34037997Y-87160971D01*
X34037997Y-87160971D02*
X33961807Y-87084780D01*
X33961807Y-87084780D02*
X34037997Y-87008590D01*
X34037997Y-87008590D02*
X34037997Y-87160971D01*
X33276092Y-87541923D02*
X33276092Y-88608590D01*
X33276092Y-87694304D02*
X33199902Y-87618114D01*
X33199902Y-87618114D02*
X33047521Y-87541923D01*
X33047521Y-87541923D02*
X32818949Y-87541923D01*
X32818949Y-87541923D02*
X32666568Y-87618114D01*
X32666568Y-87618114D02*
X32590378Y-87770495D01*
X32590378Y-87770495D02*
X32590378Y-88608590D01*
X30990378Y-88608590D02*
X31904664Y-88608590D01*
X31447521Y-88608590D02*
X31447521Y-87008590D01*
X31447521Y-87008590D02*
X31599902Y-87237161D01*
X31599902Y-87237161D02*
X31752283Y-87389542D01*
X31752283Y-87389542D02*
X31904664Y-87465733D01*
D11*
X54607734Y-124284800D02*
X54464877Y-124332419D01*
X54464877Y-124332419D02*
X54226782Y-124332419D01*
X54226782Y-124332419D02*
X54131544Y-124284800D01*
X54131544Y-124284800D02*
X54083925Y-124237180D01*
X54083925Y-124237180D02*
X54036306Y-124141942D01*
X54036306Y-124141942D02*
X54036306Y-124046704D01*
X54036306Y-124046704D02*
X54083925Y-123951466D01*
X54083925Y-123951466D02*
X54131544Y-123903847D01*
X54131544Y-123903847D02*
X54226782Y-123856228D01*
X54226782Y-123856228D02*
X54417258Y-123808609D01*
X54417258Y-123808609D02*
X54512496Y-123760990D01*
X54512496Y-123760990D02*
X54560115Y-123713371D01*
X54560115Y-123713371D02*
X54607734Y-123618133D01*
X54607734Y-123618133D02*
X54607734Y-123522895D01*
X54607734Y-123522895D02*
X54560115Y-123427657D01*
X54560115Y-123427657D02*
X54512496Y-123380038D01*
X54512496Y-123380038D02*
X54417258Y-123332419D01*
X54417258Y-123332419D02*
X54179163Y-123332419D01*
X54179163Y-123332419D02*
X54036306Y-123380038D01*
X53702972Y-123332419D02*
X53464877Y-124332419D01*
X53464877Y-124332419D02*
X53274401Y-123618133D01*
X53274401Y-123618133D02*
X53083925Y-124332419D01*
X53083925Y-124332419D02*
X52845830Y-123332419D01*
X52464877Y-124332419D02*
X52464877Y-123332419D01*
X52464877Y-123332419D02*
X52226782Y-123332419D01*
X52226782Y-123332419D02*
X52083925Y-123380038D01*
X52083925Y-123380038D02*
X51988687Y-123475276D01*
X51988687Y-123475276D02*
X51941068Y-123570514D01*
X51941068Y-123570514D02*
X51893449Y-123760990D01*
X51893449Y-123760990D02*
X51893449Y-123903847D01*
X51893449Y-123903847D02*
X51941068Y-124094323D01*
X51941068Y-124094323D02*
X51988687Y-124189561D01*
X51988687Y-124189561D02*
X52083925Y-124284800D01*
X52083925Y-124284800D02*
X52226782Y-124332419D01*
X52226782Y-124332419D02*
X52464877Y-124332419D01*
D13*
X65761904Y-97509200D02*
X65619047Y-97556819D01*
X65619047Y-97556819D02*
X65380952Y-97556819D01*
X65380952Y-97556819D02*
X65285714Y-97509200D01*
X65285714Y-97509200D02*
X65238095Y-97461580D01*
X65238095Y-97461580D02*
X65190476Y-97366342D01*
X65190476Y-97366342D02*
X65190476Y-97271104D01*
X65190476Y-97271104D02*
X65238095Y-97175866D01*
X65238095Y-97175866D02*
X65285714Y-97128247D01*
X65285714Y-97128247D02*
X65380952Y-97080628D01*
X65380952Y-97080628D02*
X65571428Y-97033009D01*
X65571428Y-97033009D02*
X65666666Y-96985390D01*
X65666666Y-96985390D02*
X65714285Y-96937771D01*
X65714285Y-96937771D02*
X65761904Y-96842533D01*
X65761904Y-96842533D02*
X65761904Y-96747295D01*
X65761904Y-96747295D02*
X65714285Y-96652057D01*
X65714285Y-96652057D02*
X65666666Y-96604438D01*
X65666666Y-96604438D02*
X65571428Y-96556819D01*
X65571428Y-96556819D02*
X65333333Y-96556819D01*
X65333333Y-96556819D02*
X65190476Y-96604438D01*
X64238095Y-97556819D02*
X64809523Y-97556819D01*
X64523809Y-97556819D02*
X64523809Y-96556819D01*
X64523809Y-96556819D02*
X64619047Y-96699676D01*
X64619047Y-96699676D02*
X64714285Y-96794914D01*
X64714285Y-96794914D02*
X64809523Y-96842533D01*
X35761904Y-97509200D02*
X35619047Y-97556819D01*
X35619047Y-97556819D02*
X35380952Y-97556819D01*
X35380952Y-97556819D02*
X35285714Y-97509200D01*
X35285714Y-97509200D02*
X35238095Y-97461580D01*
X35238095Y-97461580D02*
X35190476Y-97366342D01*
X35190476Y-97366342D02*
X35190476Y-97271104D01*
X35190476Y-97271104D02*
X35238095Y-97175866D01*
X35238095Y-97175866D02*
X35285714Y-97128247D01*
X35285714Y-97128247D02*
X35380952Y-97080628D01*
X35380952Y-97080628D02*
X35571428Y-97033009D01*
X35571428Y-97033009D02*
X35666666Y-96985390D01*
X35666666Y-96985390D02*
X35714285Y-96937771D01*
X35714285Y-96937771D02*
X35761904Y-96842533D01*
X35761904Y-96842533D02*
X35761904Y-96747295D01*
X35761904Y-96747295D02*
X35714285Y-96652057D01*
X35714285Y-96652057D02*
X35666666Y-96604438D01*
X35666666Y-96604438D02*
X35571428Y-96556819D01*
X35571428Y-96556819D02*
X35333333Y-96556819D01*
X35333333Y-96556819D02*
X35190476Y-96604438D01*
X34809523Y-96652057D02*
X34761904Y-96604438D01*
X34761904Y-96604438D02*
X34666666Y-96556819D01*
X34666666Y-96556819D02*
X34428571Y-96556819D01*
X34428571Y-96556819D02*
X34333333Y-96604438D01*
X34333333Y-96604438D02*
X34285714Y-96652057D01*
X34285714Y-96652057D02*
X34238095Y-96747295D01*
X34238095Y-96747295D02*
X34238095Y-96842533D01*
X34238095Y-96842533D02*
X34285714Y-96985390D01*
X34285714Y-96985390D02*
X34857142Y-97556819D01*
X34857142Y-97556819D02*
X34238095Y-97556819D01*
D14*
%TO.C,S1*%
X67250000Y-100000000D02*
G75*
G02*
X62750000Y-100000000I-2250000J0D01*
G01*
X62750000Y-100000000D02*
G75*
G02*
X67250000Y-100000000I2250000J0D01*
G01*
%TO.C,S2*%
X37250000Y-100000000D02*
G75*
G02*
X32750000Y-100000000I-2250000J0D01*
G01*
X32750000Y-100000000D02*
G75*
G02*
X37250000Y-100000000I2250000J0D01*
G01*
%TD*%
%LPC*%
D15*
%TO.C,stitch1*%
X26924000Y-95758000D03*
%TD*%
%TO.C,stitch1*%
X41910000Y-77978000D03*
%TD*%
D16*
%TO.C,J1*%
X48725000Y-123000000D03*
D17*
X49995001Y-123000000D03*
X51265000Y-123000000D03*
%TD*%
D15*
%TO.C,stitch1*%
X27178000Y-105156000D03*
%TD*%
%TO.C,through-r1*%
X44958000Y-92202000D03*
%TD*%
%TO.C,stitch1*%
X35306000Y-81788000D03*
%TD*%
%TO.C,stitch1*%
X35052000Y-118110000D03*
%TD*%
%TO.C,stitch1*%
X64948000Y-118110000D03*
%TD*%
%TO.C,stitch1*%
X73076000Y-95758000D03*
%TD*%
D18*
%TO.C,align-r1*%
X27800000Y-102400000D03*
%TD*%
D15*
%TO.C,through-r6*%
X43658961Y-92952000D03*
%TD*%
%TO.C,through-r4*%
X46257038Y-92952000D03*
%TD*%
D18*
%TO.C,align-r2*%
X72200000Y-97300000D03*
%TD*%
D15*
%TO.C,through-r2*%
X44958000Y-90702000D03*
%TD*%
%TO.C,through-r7*%
X43658961Y-91452000D03*
%TD*%
%TO.C,through-r3*%
X46257038Y-91452000D03*
%TD*%
%TO.C,through-r5*%
X44958000Y-93702000D03*
%TD*%
D19*
%TO.C,battery-eject1*%
X50000000Y-107000000D03*
%TD*%
D15*
%TO.C,stitch1*%
X64694000Y-81788000D03*
%TD*%
%TO.C,stitch1*%
X72822000Y-105156000D03*
%TD*%
%TO.C,stitch1*%
X58090000Y-77978000D03*
%TD*%
%TO.C,stitch1*%
X50038000Y-76454000D03*
%TD*%
%LPD*%
M02*
