%TF.GenerationSoftware,KiCad,Pcbnew,8.0.7*%
%TF.CreationDate,2024-12-05T10:42:28-06:00*%
%TF.ProjectId,reverse,72657665-7273-4652-9e6b-696361645f70,rev?*%
%TF.SameCoordinates,Original*%
%TF.FileFunction,Copper,L1,Top*%
%TF.FilePolarity,Positive*%
%FSLAX46Y46*%
G04 Gerber Fmt 4.6, Leading zero omitted, Abs format (unit mm)*
G04 Created by KiCad (PCBNEW 8.0.7) date 2024-12-05 10:42:28*
%MOMM*%
%LPD*%
G01*
G04 APERTURE LIST*
G04 Aperture macros list*
%AMRoundRect*
0 Rectangle with rounded corners*
0 $1 Rounding radius*
0 $2 $3 $4 $5 $6 $7 $8 $9 X,Y pos of 4 corners*
0 Add a 4 corners polygon primitive as box body*
4,1,4,$2,$3,$4,$5,$6,$7,$8,$9,$2,$3,0*
0 Add four circle primitives for the rounded corners*
1,1,$1+$1,$2,$3*
1,1,$1+$1,$4,$5*
1,1,$1+$1,$6,$7*
1,1,$1+$1,$8,$9*
0 Add four rect primitives between the rounded corners*
20,1,$1+$1,$2,$3,$4,$5,0*
20,1,$1+$1,$4,$5,$6,$7,0*
20,1,$1+$1,$6,$7,$8,$9,0*
20,1,$1+$1,$8,$9,$2,$3,0*%
G04 Aperture macros list end*
%TA.AperFunction,SMDPad,CuDef*%
%ADD10RoundRect,0.135000X0.209413X0.092715X-0.024413X0.227715X-0.209413X-0.092715X0.024413X-0.227715X0*%
%TD*%
%TA.AperFunction,SMDPad,CuDef*%
%ADD11RoundRect,0.147500X0.223139X-0.041489X0.075639X0.213989X-0.223139X0.041489X-0.075639X-0.213989X0*%
%TD*%
%TA.AperFunction,SMDPad,CuDef*%
%ADD12RoundRect,0.140000X-0.140000X-0.170000X0.140000X-0.170000X0.140000X0.170000X-0.140000X0.170000X0*%
%TD*%
%TA.AperFunction,ComponentPad*%
%ADD13O,1.000000X1.000000*%
%TD*%
%TA.AperFunction,ComponentPad*%
%ADD14R,1.000000X1.000000*%
%TD*%
%TA.AperFunction,SMDPad,CuDef*%
%ADD15RoundRect,0.135000X0.227715X-0.024413X0.092715X0.209413X-0.227715X0.024413X-0.092715X-0.209413X0*%
%TD*%
%TA.AperFunction,SMDPad,CuDef*%
%ADD16RoundRect,0.147500X0.213989X0.075639X-0.041489X0.223139X-0.213989X-0.075639X0.041489X-0.223139X0*%
%TD*%
%TA.AperFunction,SMDPad,CuDef*%
%ADD17RoundRect,0.050000X-0.375000X-0.050000X0.375000X-0.050000X0.375000X0.050000X-0.375000X0.050000X0*%
%TD*%
%TA.AperFunction,SMDPad,CuDef*%
%ADD18RoundRect,0.050000X-0.050000X-0.375000X0.050000X-0.375000X0.050000X0.375000X-0.050000X0.375000X0*%
%TD*%
%TA.AperFunction,HeatsinkPad*%
%ADD19R,1.650000X1.650000*%
%TD*%
%TA.AperFunction,ComponentPad*%
%ADD20C,2.000000*%
%TD*%
%TA.AperFunction,SMDPad,CuDef*%
%ADD21RoundRect,0.140000X-0.170000X0.140000X-0.170000X-0.140000X0.170000X-0.140000X0.170000X0.140000X0*%
%TD*%
%TA.AperFunction,SMDPad,CuDef*%
%ADD22RoundRect,0.140000X0.140000X0.170000X-0.140000X0.170000X-0.140000X-0.170000X0.140000X-0.170000X0*%
%TD*%
%TA.AperFunction,SMDPad,CuDef*%
%ADD23RoundRect,0.135000X0.024413X0.227715X-0.209413X0.092715X-0.024413X-0.227715X0.209413X-0.092715X0*%
%TD*%
%TA.AperFunction,SMDPad,CuDef*%
%ADD24RoundRect,0.147500X-0.213989X-0.075639X0.041489X-0.223139X0.213989X0.075639X-0.041489X0.223139X0*%
%TD*%
%TA.AperFunction,SMDPad,CuDef*%
%ADD25RoundRect,0.135000X-0.185000X0.135000X-0.185000X-0.135000X0.185000X-0.135000X0.185000X0.135000X0*%
%TD*%
%TA.AperFunction,SMDPad,CuDef*%
%ADD26RoundRect,0.135000X0.092715X-0.209413X0.227715X0.024413X-0.092715X0.209413X-0.227715X-0.024413X0*%
%TD*%
%TA.AperFunction,SMDPad,CuDef*%
%ADD27RoundRect,0.135000X0.185000X-0.135000X0.185000X0.135000X-0.185000X0.135000X-0.185000X-0.135000X0*%
%TD*%
%TA.AperFunction,SMDPad,CuDef*%
%ADD28RoundRect,0.147500X0.041489X0.223139X-0.213989X0.075639X-0.041489X-0.223139X0.213989X-0.075639X0*%
%TD*%
%TA.AperFunction,SMDPad,CuDef*%
%ADD29RoundRect,0.135000X-0.209413X-0.092715X0.024413X-0.227715X0.209413X0.092715X-0.024413X0.227715X0*%
%TD*%
%TA.AperFunction,SMDPad,CuDef*%
%ADD30RoundRect,0.135000X-0.024413X-0.227715X0.209413X-0.092715X0.024413X0.227715X-0.209413X0.092715X0*%
%TD*%
%TA.AperFunction,SMDPad,CuDef*%
%ADD31C,10.000000*%
%TD*%
%TA.AperFunction,SMDPad,CuDef*%
%ADD32RoundRect,0.135000X-0.092715X0.209413X-0.227715X-0.024413X0.092715X-0.209413X0.227715X0.024413X0*%
%TD*%
%TA.AperFunction,ComponentPad*%
%ADD33O,1.200000X3.200000*%
%TD*%
%TA.AperFunction,SMDPad,CuDef*%
%ADD34RoundRect,0.147500X-0.041489X-0.223139X0.213989X-0.075639X0.041489X0.223139X-0.213989X0.075639X0*%
%TD*%
%TA.AperFunction,SMDPad,CuDef*%
%ADD35RoundRect,0.147500X-0.075639X0.213989X-0.223139X-0.041489X0.075639X-0.213989X0.223139X0.041489X0*%
%TD*%
%TA.AperFunction,SMDPad,CuDef*%
%ADD36C,4.000000*%
%TD*%
%TA.AperFunction,SMDPad,CuDef*%
%ADD37RoundRect,0.135000X-0.227715X0.024413X-0.092715X-0.209413X0.227715X-0.024413X0.092715X0.209413X0*%
%TD*%
%TA.AperFunction,SMDPad,CuDef*%
%ADD38RoundRect,0.147500X0.172500X-0.147500X0.172500X0.147500X-0.172500X0.147500X-0.172500X-0.147500X0*%
%TD*%
%TA.AperFunction,SMDPad,CuDef*%
%ADD39RoundRect,0.147500X0.075639X-0.213989X0.223139X0.041489X-0.075639X0.213989X-0.223139X-0.041489X0*%
%TD*%
%TA.AperFunction,SMDPad,CuDef*%
%ADD40RoundRect,0.147500X-0.223139X0.041489X-0.075639X-0.213989X0.223139X-0.041489X0.075639X0.213989X0*%
%TD*%
%TA.AperFunction,SMDPad,CuDef*%
%ADD41RoundRect,0.147500X-0.172500X0.147500X-0.172500X-0.147500X0.172500X-0.147500X0.172500X0.147500X0*%
%TD*%
%TA.AperFunction,ViaPad*%
%ADD42C,0.600000*%
%TD*%
%TA.AperFunction,Conductor*%
%ADD43C,0.200000*%
%TD*%
%TA.AperFunction,Conductor*%
%ADD44C,0.800000*%
%TD*%
%TA.AperFunction,Conductor*%
%ADD45C,1.100000*%
%TD*%
%TA.AperFunction,Conductor*%
%ADD46C,0.500000*%
%TD*%
%TA.AperFunction,Conductor*%
%ADD47C,2.000000*%
%TD*%
%TA.AperFunction,Conductor*%
%ADD48C,0.600000*%
%TD*%
G04 APERTURE END LIST*
D10*
%TO.P,R1,1*%
%TO.N,/LED1*%
X41166673Y-65453745D03*
%TO.P,R1,2*%
%TO.N,Net-(D1-A)*%
X40283327Y-64943745D03*
%TD*%
D11*
%TO.P,D2,1,K*%
%TO.N,GND*%
X34221030Y-59670022D03*
%TO.P,D2,2,A*%
%TO.N,Net-(D2-A)*%
X33736030Y-58829978D03*
%TD*%
D12*
%TO.P,C6,1*%
%TO.N,+3V0*%
X49220000Y-34250000D03*
%TO.P,C6,2*%
%TO.N,GND*%
X50180000Y-34250000D03*
%TD*%
D13*
%TO.P,J1,1,Pin_1*%
%TO.N,+3V0*%
X48095000Y-32000000D03*
D14*
%TO.P,J1,2,Pin_2*%
%TO.N,GND*%
X49365000Y-32000000D03*
D13*
%TO.P,J1,3,Pin_3*%
%TO.N,/SWIO*%
X50635000Y-32000000D03*
%TO.P,J1,4,Pin_4*%
%TO.N,/NRST*%
X51905000Y-32000000D03*
%TD*%
D15*
%TO.P,R2,1*%
%TO.N,/LED2*%
X35056254Y-59216673D03*
%TO.P,R2,2*%
%TO.N,Net-(D2-A)*%
X34546254Y-58333327D03*
%TD*%
D16*
%TO.P,D1,1,K*%
%TO.N,GND*%
X40670022Y-66263969D03*
%TO.P,D1,2,A*%
%TO.N,Net-(D1-A)*%
X39829978Y-65778969D03*
%TD*%
D17*
%TO.P,U1,1,NRST*%
%TO.N,/NRST*%
X48550000Y-43200000D03*
%TO.P,U1,2,PA1*%
%TO.N,unconnected-(U1-PA1-Pad2)*%
X48550000Y-43600000D03*
%TO.P,U1,3,ADC_IN0*%
%TO.N,/touch1*%
X48550000Y-44000000D03*
%TO.P,U1,4,VSS*%
%TO.N,GND*%
X48550000Y-44400000D03*
%TO.P,U1,5,PD0*%
%TO.N,/LED3*%
X48550000Y-44800000D03*
D18*
%TO.P,U1,6,VDD*%
%TO.N,+3V0*%
X49200000Y-45450000D03*
%TO.P,U1,7,USART_TX_3*%
%TO.N,/TX*%
X49600000Y-45450000D03*
%TO.P,U1,8,USART_RX_3*%
%TO.N,/RX*%
X50000000Y-45450000D03*
%TO.P,U1,9,PC2*%
%TO.N,/LED2*%
X50400000Y-45450000D03*
%TO.P,U1,10,PC3*%
%TO.N,/LED1*%
X50800000Y-45450000D03*
D17*
%TO.P,U1,11,ADC_IN2*%
%TO.N,/touch2*%
X51450000Y-44800000D03*
%TO.P,U1,12,PC5*%
%TO.N,/LED10*%
X51450000Y-44400000D03*
%TO.P,U1,13,PC6*%
%TO.N,/LED9*%
X51450000Y-44000000D03*
%TO.P,U1,14,PC7*%
%TO.N,/LED8*%
X51450000Y-43600000D03*
%TO.P,U1,15,SWIO*%
%TO.N,/SWIO*%
X51450000Y-43200000D03*
D18*
%TO.P,U1,16,PD2*%
%TO.N,/LED7*%
X50800000Y-42550000D03*
%TO.P,U1,17,PD3*%
%TO.N,/LED6*%
X50400000Y-42550000D03*
%TO.P,U1,18,PD4*%
%TO.N,unconnected-(U1-PD4-Pad18)*%
X50000000Y-42550000D03*
%TO.P,U1,19,PD5*%
%TO.N,/LED5*%
X49600000Y-42550000D03*
%TO.P,U1,20,PD6*%
%TO.N,/LED4*%
X49200000Y-42550000D03*
D19*
%TO.P,U1,21,VSS*%
%TO.N,GND*%
X50000000Y-44000000D03*
%TD*%
D20*
%TO.P,T51,1*%
%TO.N,+3V0*%
X47500000Y-37000000D03*
%TD*%
D21*
%TO.P,C1,1*%
%TO.N,+3V0*%
X48275000Y-46570000D03*
%TO.P,C1,2*%
%TO.N,GND*%
X48275000Y-47530000D03*
%TD*%
D22*
%TO.P,C5,1*%
%TO.N,+3V0*%
X45780000Y-34250000D03*
%TO.P,C5,2*%
%TO.N,GND*%
X44820000Y-34250000D03*
%TD*%
D23*
%TO.P,R10,1*%
%TO.N,/LED10*%
X59716673Y-64943745D03*
%TO.P,R10,2*%
%TO.N,Net-(D10-A)*%
X58833327Y-65453745D03*
%TD*%
D20*
%TO.P,T55,1*%
%TO.N,+3V0*%
X46200961Y-37750000D03*
%TD*%
%TO.P,T53,1*%
%TO.N,+3V0*%
X48799038Y-37750000D03*
%TD*%
D24*
%TO.P,D6,1,K*%
%TO.N,GND*%
X58829978Y-33736030D03*
%TO.P,D6,2,A*%
%TO.N,Net-(D6-A)*%
X59670022Y-34221030D03*
%TD*%
D25*
%TO.P,R8,1*%
%TO.N,/LED8*%
X67550000Y-49490000D03*
%TO.P,R8,2*%
%TO.N,Net-(D8-A)*%
X67550000Y-50510000D03*
%TD*%
D26*
%TO.P,R4,1*%
%TO.N,/LED4*%
X34546254Y-41666673D03*
%TO.P,R4,2*%
%TO.N,Net-(D4-A)*%
X35056254Y-40783327D03*
%TD*%
D27*
%TO.P,R3,1*%
%TO.N,/LED3*%
X32450000Y-50510000D03*
%TO.P,R3,2*%
%TO.N,Net-(D3-A)*%
X32450000Y-49490000D03*
%TD*%
D20*
%TO.P,T51,1*%
%TO.N,+3V0*%
X47500000Y-35500000D03*
%TD*%
D28*
%TO.P,D10,1,K*%
%TO.N,GND*%
X60170022Y-65778969D03*
%TO.P,D10,2,A*%
%TO.N,Net-(D10-A)*%
X59329978Y-66263969D03*
%TD*%
D12*
%TO.P,C4,1*%
%TO.N,+3V0*%
X49220000Y-39750000D03*
%TO.P,C4,2*%
%TO.N,GND*%
X50180000Y-39750000D03*
%TD*%
D20*
%TO.P,T56,1*%
%TO.N,+3V0*%
X46200961Y-36250000D03*
%TD*%
D22*
%TO.P,C3,1*%
%TO.N,+3V0*%
X45780000Y-39750000D03*
%TO.P,C3,2*%
%TO.N,GND*%
X44820000Y-39750000D03*
%TD*%
D20*
%TO.P,T52,1*%
%TO.N,+3V0*%
X48799038Y-36250000D03*
%TD*%
D29*
%TO.P,R6,1*%
%TO.N,/LED6*%
X58333327Y-34546254D03*
%TO.P,R6,2*%
%TO.N,Net-(D6-A)*%
X59216673Y-35056254D03*
%TD*%
D30*
%TO.P,R5,1*%
%TO.N,/LED5*%
X40783327Y-35056254D03*
%TO.P,R5,2*%
%TO.N,Net-(D5-A)*%
X41666673Y-34546254D03*
%TD*%
D31*
%TO.P,-,1,1*%
%TO.N,GND*%
X50000000Y-60000000D03*
%TD*%
D20*
%TO.P,T54,1*%
%TO.N,+3V0*%
X47500000Y-38500000D03*
%TD*%
D32*
%TO.P,R9,1*%
%TO.N,/LED9*%
X65453745Y-58333327D03*
%TO.P,R9,2*%
%TO.N,Net-(D9-A)*%
X64943745Y-59216673D03*
%TD*%
D33*
%TO.P,T1,1*%
%TO.N,GND*%
X50000000Y-51000000D03*
%TD*%
D34*
%TO.P,D5,1,K*%
%TO.N,GND*%
X40329978Y-34221030D03*
%TO.P,D5,2,A*%
%TO.N,Net-(D5-A)*%
X41170022Y-33736030D03*
%TD*%
D14*
%TO.P,J2,1,Pin_1*%
%TO.N,GND*%
X48730000Y-68000000D03*
D13*
%TO.P,J2,2,Pin_2*%
%TO.N,/TX*%
X50000000Y-68000000D03*
%TO.P,J2,3,Pin_3*%
%TO.N,/RX*%
X51270000Y-68000000D03*
%TD*%
D35*
%TO.P,D9,1,K*%
%TO.N,GND*%
X66263969Y-58829978D03*
%TO.P,D9,2,A*%
%TO.N,Net-(D9-A)*%
X65778969Y-59670022D03*
%TD*%
D36*
%TO.P,B1,1,1*%
%TO.N,GND*%
X50000000Y-60000000D03*
%TD*%
D37*
%TO.P,R7,1*%
%TO.N,/LED7*%
X64943745Y-40783327D03*
%TO.P,R7,2*%
%TO.N,Net-(D7-A)*%
X65453745Y-41666673D03*
%TD*%
D38*
%TO.P,D3,1,K*%
%TO.N,GND*%
X31500000Y-50485000D03*
%TO.P,D3,2,A*%
%TO.N,Net-(D3-A)*%
X31500000Y-49515000D03*
%TD*%
D39*
%TO.P,D4,1,K*%
%TO.N,GND*%
X33736030Y-41170022D03*
%TO.P,D4,2,A*%
%TO.N,Net-(D4-A)*%
X34221030Y-40329978D03*
%TD*%
D40*
%TO.P,D7,1,K*%
%TO.N,GND*%
X65778969Y-40329978D03*
%TO.P,D7,2,A*%
%TO.N,Net-(D7-A)*%
X66263969Y-41170022D03*
%TD*%
D22*
%TO.P,C2,1*%
%TO.N,+3V0*%
X47430000Y-45450000D03*
%TO.P,C2,2*%
%TO.N,GND*%
X46470000Y-45450000D03*
%TD*%
D41*
%TO.P,D8,1,K*%
%TO.N,GND*%
X68500000Y-49515000D03*
%TO.P,D8,2,A*%
%TO.N,Net-(D8-A)*%
X68500000Y-50485000D03*
%TD*%
D42*
%TO.N,GND*%
X50500000Y-43800000D03*
X52500000Y-59700000D03*
X53500000Y-59700000D03*
X47460000Y-60000000D03*
X53500000Y-60300000D03*
X53000000Y-60600000D03*
X52500000Y-60300000D03*
X53000000Y-60000000D03*
X49500000Y-44500000D03*
X50500000Y-44500000D03*
X34221030Y-59670022D03*
X49500000Y-43800000D03*
X40675000Y-66263969D03*
X52085864Y-41383327D03*
X53000000Y-59400000D03*
%TO.N,+3V0*%
X48900000Y-46100000D03*
X48300000Y-46100000D03*
X48300000Y-45500000D03*
X48900000Y-45500000D03*
%TO.N,/NRST*%
X48604934Y-43000000D03*
%TO.N,/SWIO*%
X51400000Y-41874265D03*
%TO.N,/RX*%
X49800000Y-47244000D03*
%TO.N,/TX*%
X48396999Y-48647000D03*
%TO.N,/touch2*%
X51395066Y-44999999D03*
%TO.N,/touch1*%
X41990000Y-45000000D03*
%TD*%
D43*
%TO.N,Net-(D1-A)*%
X40283327Y-64943745D02*
X39829978Y-65778969D01*
%TO.N,GND*%
X59876774Y-33501774D02*
X65778969Y-39403969D01*
X69250167Y-52374833D02*
X66263969Y-55361031D01*
X66263969Y-55361031D02*
X66263969Y-58829978D01*
X30880000Y-49865000D02*
X30880000Y-47745000D01*
X33501774Y-40935766D02*
X33501774Y-39998226D01*
X65778969Y-39403969D02*
X65778969Y-40329978D01*
X68500000Y-45725000D02*
X68500000Y-49515000D01*
X58829978Y-33736030D02*
X51101030Y-33736030D01*
X66348682Y-40329978D02*
X67125000Y-41106296D01*
X43736031Y-66263969D02*
X40675000Y-66263969D01*
X60170022Y-66379978D02*
X59837469Y-66712531D01*
X60596031Y-65778969D02*
X60170022Y-65778969D01*
X40675000Y-66263969D02*
X40670022Y-66263969D01*
X49250000Y-44400000D02*
X49425000Y-44575000D01*
X67125000Y-44350000D02*
X68500000Y-45725000D01*
X66263969Y-58829978D02*
X66498225Y-59064234D01*
X58829978Y-33736030D02*
X59064234Y-33501774D01*
X33736030Y-41170022D02*
X33501774Y-40935766D01*
X68500000Y-49515000D02*
X69250167Y-50265167D01*
X33651317Y-59670022D02*
X33063787Y-59082492D01*
X59837469Y-66712531D02*
X59572759Y-66870688D01*
X65778969Y-40329978D02*
X66348682Y-40329978D01*
X60170022Y-65778969D02*
X60170022Y-66379978D01*
X39278970Y-34221030D02*
X40329978Y-34221030D01*
X57153888Y-67153888D02*
X50000000Y-60000000D01*
X33063787Y-59082492D02*
X33063787Y-52613787D01*
X30880000Y-47745000D02*
X33736030Y-44888970D01*
X48550000Y-44400000D02*
X49250000Y-44400000D01*
X66498225Y-59876775D02*
X60596031Y-65778969D01*
X66498225Y-59064234D02*
X66498225Y-59876775D01*
X31500000Y-51050000D02*
X31500000Y-50485000D01*
X33063787Y-52613787D02*
X31500000Y-51050000D01*
X51101030Y-33736030D02*
X49365000Y-32000000D01*
X50000000Y-60000000D02*
X43736031Y-66263969D01*
X59572759Y-66870688D02*
X59046484Y-67153888D01*
X69250167Y-50265167D02*
X69250167Y-52374833D01*
X33501774Y-39998226D02*
X39278970Y-34221030D01*
X33736030Y-44888970D02*
X33736030Y-41170022D01*
X34221030Y-59670022D02*
X33651317Y-59670022D01*
X67125000Y-41106296D02*
X67125000Y-44350000D01*
X59064234Y-33501774D02*
X59876774Y-33501774D01*
X31500000Y-50485000D02*
X30880000Y-49865000D01*
X59046484Y-67153888D02*
X57153888Y-67153888D01*
D44*
%TO.N,+3V0*%
X48300000Y-45500000D02*
X48300000Y-46100000D01*
X48900000Y-45500000D02*
X48900000Y-46100000D01*
D45*
X47500000Y-32595000D02*
X48095000Y-32000000D01*
D46*
X47500000Y-38030000D02*
X49220000Y-39750000D01*
X47500000Y-37000000D02*
X47500000Y-35970000D01*
D44*
X48300000Y-46100000D02*
X48300000Y-46545000D01*
X48300000Y-45500000D02*
X47430000Y-45500000D01*
D45*
X47500000Y-37000000D02*
X47500000Y-32595000D01*
D46*
X47500000Y-35970000D02*
X45780000Y-34250000D01*
D44*
X48900000Y-46100000D02*
X48300000Y-46100000D01*
X48900000Y-45500000D02*
X48300000Y-45500000D01*
D46*
X45780000Y-39750000D02*
X47500000Y-38030000D01*
X47500000Y-38030000D02*
X47500000Y-37000000D01*
D47*
X47190000Y-36690000D02*
X47500000Y-37000000D01*
D46*
X47500000Y-35970000D02*
X49220000Y-34250000D01*
D43*
%TO.N,Net-(D2-A)*%
X34546254Y-58333327D02*
X33736030Y-58829978D01*
%TO.N,Net-(D3-A)*%
X31525000Y-49490000D02*
X31500000Y-49515000D01*
X32450000Y-49490000D02*
X31525000Y-49490000D01*
%TO.N,Net-(D4-A)*%
X35056254Y-40783327D02*
X34221030Y-40329978D01*
%TO.N,Net-(D5-A)*%
X41666673Y-34546254D02*
X41170022Y-33736030D01*
%TO.N,Net-(D6-A)*%
X59216673Y-35056254D02*
X59670022Y-34221030D01*
%TO.N,Net-(D10-A)*%
X58833327Y-65453745D02*
X59329978Y-66263969D01*
%TO.N,Net-(D9-A)*%
X64943745Y-59216673D02*
X65778969Y-59670022D01*
%TO.N,Net-(D8-A)*%
X68475000Y-50510000D02*
X68500000Y-50485000D01*
X67550000Y-50510000D02*
X68475000Y-50510000D01*
%TO.N,Net-(D7-A)*%
X65453745Y-41666673D02*
X66263969Y-41170022D01*
%TO.N,/LED7*%
X50800000Y-41600000D02*
X50800000Y-42550000D01*
X51616673Y-40783327D02*
X50800000Y-41600000D01*
X64943745Y-40783327D02*
X51616673Y-40783327D01*
%TO.N,/LED6*%
X50400000Y-41434314D02*
X57288060Y-34546254D01*
X57288060Y-34546254D02*
X58333327Y-34546254D01*
X50400000Y-42550000D02*
X50400000Y-41434314D01*
%TO.N,/LED5*%
X40783327Y-38683327D02*
X43366673Y-41266673D01*
X48838032Y-41266673D02*
X49274918Y-41703559D01*
X49274918Y-41703559D02*
X49600000Y-42028640D01*
X43366673Y-41266673D02*
X48838032Y-41266673D01*
X40783327Y-35056254D02*
X40783327Y-38683327D01*
X49600000Y-42028640D02*
X49600000Y-42550000D01*
%TO.N,/LED4*%
X34729581Y-41850000D02*
X48855673Y-41850000D01*
X49200000Y-42194325D02*
X49200000Y-42550000D01*
X49109232Y-42103559D02*
X49200000Y-42194325D01*
X34546254Y-41666673D02*
X34729581Y-41850000D01*
X48855673Y-41850000D02*
X49109232Y-42103559D01*
%TO.N,/NRST*%
X48604934Y-43145066D02*
X48550000Y-43200000D01*
X48604934Y-43000000D02*
X48604934Y-43145066D01*
D48*
%TO.N,/SWIO*%
X51400000Y-41874265D02*
X51400000Y-43000000D01*
D43*
%TO.N,/LED10*%
X59716673Y-52916673D02*
X52175000Y-45375000D01*
X52175000Y-45375000D02*
X52175000Y-44603640D01*
X59716673Y-64943745D02*
X59716673Y-52916673D01*
X51971360Y-44400000D02*
X51450000Y-44400000D01*
X52175000Y-44603640D02*
X51971360Y-44400000D01*
%TO.N,/LED9*%
X65453745Y-47803745D02*
X62000000Y-44350000D01*
X52487046Y-44350000D02*
X52137046Y-44000000D01*
X65453745Y-58333327D02*
X65453745Y-47803745D01*
X52137046Y-44000000D02*
X51450000Y-44000000D01*
X62000000Y-44350000D02*
X52487046Y-44350000D01*
%TO.N,/LED8*%
X51971360Y-43600000D02*
X51450000Y-43600000D01*
X63200000Y-42600000D02*
X52971360Y-42600000D01*
X52971360Y-42600000D02*
X51971360Y-43600000D01*
X67550000Y-49490000D02*
X67550000Y-46950000D01*
X67550000Y-46950000D02*
X63200000Y-42600000D01*
%TO.N,/LED3*%
X39290000Y-50510000D02*
X45000000Y-44800000D01*
X32450000Y-50510000D02*
X39290000Y-50510000D01*
X45000000Y-44800000D02*
X48550000Y-44800000D01*
%TO.N,/LED2*%
X35056254Y-59216673D02*
X38675856Y-59216673D01*
X38675856Y-59216673D02*
X50400000Y-47492529D01*
X50400000Y-47492529D02*
X50400000Y-45450000D01*
%TO.N,/LED1*%
X50800000Y-47050000D02*
X51750000Y-48000000D01*
X47250000Y-53500000D02*
X41166673Y-59583327D01*
X50800000Y-45450000D02*
X50800000Y-47050000D01*
X51750000Y-48000000D02*
X51750000Y-52700000D01*
X41166673Y-59583327D02*
X41166673Y-65453745D01*
X50950000Y-53500000D02*
X47250000Y-53500000D01*
X51750000Y-52700000D02*
X50950000Y-53500000D01*
%TO.N,/RX*%
X50000000Y-47044000D02*
X50000000Y-45450000D01*
X49800000Y-47244000D02*
X50000000Y-47044000D01*
%TO.N,/TX*%
X48396999Y-48647000D02*
X49200000Y-47843999D01*
X49600000Y-46595471D02*
X49600000Y-45450000D01*
X49200000Y-46995471D02*
X49600000Y-46595471D01*
X49200000Y-47843999D02*
X49200000Y-46995471D01*
%TO.N,/touch1*%
X48550000Y-44000000D02*
X48028640Y-44000000D01*
X43690000Y-43300000D02*
X41990000Y-45000000D01*
X47328640Y-43300000D02*
X43690000Y-43300000D01*
X48028640Y-44000000D02*
X47328640Y-43300000D01*
%TD*%
%TA.AperFunction,Conductor*%
%TO.N,GND*%
G36*
X51749280Y-45798516D02*
G01*
X51806284Y-45855520D01*
X51806285Y-45855520D01*
X51813352Y-45862587D01*
X51813351Y-45862587D01*
X51813355Y-45862590D01*
X59079854Y-53129089D01*
X59113339Y-53190412D01*
X59116173Y-53216770D01*
X59116173Y-64290840D01*
X59096488Y-64357879D01*
X59081671Y-64376666D01*
X58993017Y-64469113D01*
X58993011Y-64469121D01*
X58960226Y-64527304D01*
X58910166Y-64576046D01*
X58850899Y-64590423D01*
X58784117Y-64589723D01*
X58658935Y-64620471D01*
X58628187Y-64628024D01*
X58628184Y-64628025D01*
X58628182Y-64628026D01*
X58595576Y-64643579D01*
X58595570Y-64643582D01*
X58250584Y-64842760D01*
X58220806Y-64863224D01*
X58220799Y-64863230D01*
X58109668Y-64979116D01*
X58109666Y-64979119D01*
X58030845Y-65119005D01*
X57989288Y-65274100D01*
X57987607Y-65434652D01*
X57993925Y-65460372D01*
X58025908Y-65590584D01*
X58025910Y-65590588D01*
X58025911Y-65590591D01*
X58041462Y-65623195D01*
X58041469Y-65623208D01*
X58290633Y-66054772D01*
X58290636Y-66054776D01*
X58290645Y-66054791D01*
X58311112Y-66084571D01*
X58311115Y-66084574D01*
X58311116Y-66084575D01*
X58431791Y-66200298D01*
X58466386Y-66260218D01*
X58467293Y-66263911D01*
X58506221Y-66422398D01*
X58509013Y-66428251D01*
X58522087Y-66455661D01*
X58760013Y-66867763D01*
X58760024Y-66867780D01*
X58766982Y-66877903D01*
X58780896Y-66898149D01*
X58780897Y-66898150D01*
X58780898Y-66898151D01*
X58899064Y-67011467D01*
X58899067Y-67011469D01*
X59008421Y-67073088D01*
X59057163Y-67123147D01*
X59071103Y-67191612D01*
X59045816Y-67256745D01*
X59003843Y-67291603D01*
X58462984Y-67567184D01*
X58457970Y-67569598D01*
X57666323Y-67929181D01*
X57661206Y-67931368D01*
X56854235Y-68255067D01*
X56849026Y-68257022D01*
X56028288Y-68544212D01*
X56022995Y-68545932D01*
X55190242Y-68795995D01*
X55184878Y-68797475D01*
X54341762Y-69009922D01*
X54336337Y-69011161D01*
X53484484Y-69185579D01*
X53479009Y-69186572D01*
X52620232Y-69322589D01*
X52614718Y-69323336D01*
X51750690Y-69420689D01*
X51745147Y-69421188D01*
X50877626Y-69479677D01*
X50872067Y-69479927D01*
X50002782Y-69499437D01*
X49997218Y-69499437D01*
X49127932Y-69479927D01*
X49122373Y-69479677D01*
X48254852Y-69421188D01*
X48249309Y-69420689D01*
X47385281Y-69323336D01*
X47379767Y-69322589D01*
X46520990Y-69186572D01*
X46515515Y-69185579D01*
X45663662Y-69011161D01*
X45658237Y-69009922D01*
X44815121Y-68797475D01*
X44809757Y-68795995D01*
X43983371Y-68547844D01*
X47730000Y-68547844D01*
X47736401Y-68607372D01*
X47736403Y-68607379D01*
X47786645Y-68742086D01*
X47786649Y-68742093D01*
X47872809Y-68857187D01*
X47872812Y-68857190D01*
X47987906Y-68943350D01*
X47987913Y-68943354D01*
X48122620Y-68993596D01*
X48122627Y-68993598D01*
X48182155Y-68999999D01*
X48182172Y-69000000D01*
X48480000Y-69000000D01*
X48480000Y-68250000D01*
X47730000Y-68250000D01*
X47730000Y-68547844D01*
X43983371Y-68547844D01*
X43977004Y-68545932D01*
X43971711Y-68544212D01*
X43150973Y-68257022D01*
X43145764Y-68255067D01*
X42435508Y-67970163D01*
X48580000Y-67970163D01*
X48580000Y-68029837D01*
X48602836Y-68084968D01*
X48645032Y-68127164D01*
X48700163Y-68150000D01*
X48759837Y-68150000D01*
X48814968Y-68127164D01*
X48857164Y-68084968D01*
X48880000Y-68029837D01*
X48880000Y-67970163D01*
X48857164Y-67915032D01*
X48814968Y-67872836D01*
X48759837Y-67850000D01*
X48700163Y-67850000D01*
X48645032Y-67872836D01*
X48602836Y-67915032D01*
X48580000Y-67970163D01*
X42435508Y-67970163D01*
X42338793Y-67931368D01*
X42333676Y-67929181D01*
X41542029Y-67569598D01*
X41537015Y-67567184D01*
X41311258Y-67452155D01*
X47730000Y-67452155D01*
X47730000Y-67750000D01*
X48480000Y-67750000D01*
X48480000Y-67000000D01*
X48980000Y-67000000D01*
X48980000Y-69000000D01*
X49277828Y-69000000D01*
X49277844Y-68999999D01*
X49337372Y-68993598D01*
X49337376Y-68993597D01*
X49472089Y-68943351D01*
X49479890Y-68937512D01*
X49545353Y-68913091D01*
X49609529Y-68926751D01*
X49609641Y-68926482D01*
X49611100Y-68927086D01*
X49612663Y-68927419D01*
X49615273Y-68928814D01*
X49803868Y-68986024D01*
X50000000Y-69005341D01*
X50196132Y-68986024D01*
X50384727Y-68928814D01*
X50558538Y-68835910D01*
X50558544Y-68835904D01*
X50563607Y-68832523D01*
X50564703Y-68834164D01*
X50620639Y-68810405D01*
X50689507Y-68822194D01*
X50706148Y-68832888D01*
X50706393Y-68832523D01*
X50711458Y-68835907D01*
X50711462Y-68835910D01*
X50885273Y-68928814D01*
X51073868Y-68986024D01*
X51270000Y-69005341D01*
X51466132Y-68986024D01*
X51654727Y-68928814D01*
X51828538Y-68835910D01*
X51980883Y-68710883D01*
X52105910Y-68558538D01*
X52198814Y-68384727D01*
X52256024Y-68196132D01*
X52275341Y-68000000D01*
X52256024Y-67803868D01*
X52198814Y-67615273D01*
X52198811Y-67615269D01*
X52198811Y-67615266D01*
X52105913Y-67441467D01*
X52105909Y-67441460D01*
X51980883Y-67289116D01*
X51828539Y-67164090D01*
X51828532Y-67164086D01*
X51654733Y-67071188D01*
X51654727Y-67071186D01*
X51466132Y-67013976D01*
X51466129Y-67013975D01*
X51270000Y-66994659D01*
X51073870Y-67013975D01*
X50885266Y-67071188D01*
X50711467Y-67164086D01*
X50706399Y-67167473D01*
X50705305Y-67165836D01*
X50649337Y-67189596D01*
X50580471Y-67177795D01*
X50563843Y-67167109D01*
X50563601Y-67167473D01*
X50558532Y-67164086D01*
X50384733Y-67071188D01*
X50384727Y-67071186D01*
X50196132Y-67013976D01*
X50196129Y-67013975D01*
X50000000Y-66994659D01*
X49803870Y-67013975D01*
X49719246Y-67039645D01*
X49615273Y-67071186D01*
X49615270Y-67071187D01*
X49615268Y-67071188D01*
X49612647Y-67072589D01*
X49611118Y-67072907D01*
X49609646Y-67073517D01*
X49609530Y-67073237D01*
X49544243Y-67086823D01*
X49479894Y-67062490D01*
X49472091Y-67056648D01*
X49337376Y-67006402D01*
X49337372Y-67006401D01*
X49277844Y-67000000D01*
X48980000Y-67000000D01*
X48480000Y-67000000D01*
X48182155Y-67000000D01*
X48122627Y-67006401D01*
X48122620Y-67006403D01*
X47987913Y-67056645D01*
X47987906Y-67056649D01*
X47872812Y-67142809D01*
X47872809Y-67142812D01*
X47786649Y-67257906D01*
X47786645Y-67257913D01*
X47736403Y-67392620D01*
X47736401Y-67392627D01*
X47730000Y-67452155D01*
X41311258Y-67452155D01*
X40995621Y-67291330D01*
X40944825Y-67243355D01*
X40928030Y-67175534D01*
X40950567Y-67109400D01*
X40991045Y-67072814D01*
X41100632Y-67011065D01*
X41100635Y-67011063D01*
X41218710Y-66897833D01*
X41232685Y-66877497D01*
X40652408Y-66542474D01*
X40604192Y-66491907D01*
X40590969Y-66423300D01*
X40607021Y-66373087D01*
X40672772Y-66259204D01*
X40723339Y-66210988D01*
X40791946Y-66197766D01*
X40842154Y-66213815D01*
X40928918Y-66263908D01*
X40928922Y-66263910D01*
X40928924Y-66263911D01*
X40949573Y-66273761D01*
X40961533Y-66279466D01*
X41117463Y-66317766D01*
X41117464Y-66317765D01*
X41117465Y-66317766D01*
X41120146Y-66317737D01*
X41226683Y-66316621D01*
X41289980Y-66333227D01*
X41482684Y-66444484D01*
X41482685Y-66444484D01*
X41493305Y-66422222D01*
X41493307Y-66422217D01*
X41532941Y-66260862D01*
X41567537Y-66200942D01*
X41572996Y-66195706D01*
X41572999Y-66195705D01*
X41688888Y-66084571D01*
X41709355Y-66054792D01*
X41958535Y-65623198D01*
X41974092Y-65590584D01*
X42012392Y-65434654D01*
X42010711Y-65274098D01*
X41969154Y-65119004D01*
X41890332Y-64979117D01*
X41801674Y-64886666D01*
X41769481Y-64824656D01*
X41767173Y-64800841D01*
X41767173Y-64062987D01*
X46290565Y-64062987D01*
X46363014Y-64132423D01*
X46726573Y-64425975D01*
X47113698Y-64687626D01*
X47113717Y-64687638D01*
X47521636Y-64915516D01*
X47521658Y-64915527D01*
X47947434Y-65107990D01*
X47947440Y-65107992D01*
X48388026Y-65263661D01*
X48840220Y-65381402D01*
X49300768Y-65460371D01*
X49300776Y-65460372D01*
X49766344Y-65499999D01*
X49766364Y-65500000D01*
X50233636Y-65500000D01*
X50233655Y-65499999D01*
X50699223Y-65460372D01*
X50699231Y-65460371D01*
X51159779Y-65381402D01*
X51611973Y-65263661D01*
X52052559Y-65107992D01*
X52052565Y-65107990D01*
X52478341Y-64915527D01*
X52478363Y-64915516D01*
X52886282Y-64687638D01*
X52886301Y-64687626D01*
X53273433Y-64425971D01*
X53273434Y-64425970D01*
X53636976Y-64132430D01*
X53636992Y-64132416D01*
X53709432Y-64062986D01*
X50000000Y-60353554D01*
X46290565Y-64062987D01*
X41767173Y-64062987D01*
X41767173Y-59999993D01*
X44495040Y-59999993D01*
X44495040Y-60000006D01*
X44514870Y-60466840D01*
X44574224Y-60930344D01*
X44672669Y-61387129D01*
X44672671Y-61387137D01*
X44809497Y-61833923D01*
X44809502Y-61833936D01*
X44983719Y-62267489D01*
X44983723Y-62267500D01*
X45194083Y-62684723D01*
X45194093Y-62684743D01*
X45439091Y-63082643D01*
X45716947Y-63458330D01*
X45716953Y-63458338D01*
X45937508Y-63708936D01*
X45937509Y-63708936D01*
X49646446Y-60000000D01*
X49646446Y-59999999D01*
X50353554Y-59999999D01*
X50353554Y-60000000D01*
X54062490Y-63708936D01*
X54283047Y-63458335D01*
X54283061Y-63458318D01*
X54560908Y-63082643D01*
X54805906Y-62684743D01*
X54805916Y-62684723D01*
X55016276Y-62267500D01*
X55016280Y-62267489D01*
X55190497Y-61833936D01*
X55190502Y-61833923D01*
X55327328Y-61387137D01*
X55327330Y-61387129D01*
X55425775Y-60930344D01*
X55485129Y-60466840D01*
X55504960Y-60000006D01*
X55504960Y-59999993D01*
X55485129Y-59533159D01*
X55425775Y-59069655D01*
X55327330Y-58612870D01*
X55327328Y-58612862D01*
X55190502Y-58166076D01*
X55190497Y-58166063D01*
X55016280Y-57732510D01*
X55016276Y-57732499D01*
X54805916Y-57315276D01*
X54805906Y-57315256D01*
X54560908Y-56917356D01*
X54283052Y-56541669D01*
X54283046Y-56541661D01*
X54062490Y-56291062D01*
X50353554Y-59999999D01*
X49646446Y-59999999D01*
X45937509Y-56291063D01*
X45716947Y-56541669D01*
X45716944Y-56541673D01*
X45439091Y-56917356D01*
X45194093Y-57315256D01*
X45194083Y-57315276D01*
X44983723Y-57732499D01*
X44983719Y-57732510D01*
X44809502Y-58166063D01*
X44809497Y-58166076D01*
X44672671Y-58612862D01*
X44672669Y-58612870D01*
X44574224Y-59069655D01*
X44514870Y-59533159D01*
X44495040Y-59999993D01*
X41767173Y-59999993D01*
X41767173Y-59883424D01*
X41786858Y-59816385D01*
X41803492Y-59795743D01*
X45662224Y-55937012D01*
X46290565Y-55937012D01*
X49999999Y-59646446D01*
X53709433Y-55937011D01*
X53636985Y-55867576D01*
X53273426Y-55574024D01*
X52886301Y-55312373D01*
X52886282Y-55312361D01*
X52478363Y-55084483D01*
X52478341Y-55084472D01*
X52052565Y-54892009D01*
X52052559Y-54892007D01*
X51611973Y-54736338D01*
X51159779Y-54618597D01*
X50699231Y-54539628D01*
X50699223Y-54539627D01*
X50233655Y-54500000D01*
X49766344Y-54500000D01*
X49300776Y-54539627D01*
X49300768Y-54539628D01*
X48840220Y-54618597D01*
X48388026Y-54736338D01*
X47947440Y-54892007D01*
X47947434Y-54892009D01*
X47521658Y-55084472D01*
X47521636Y-55084483D01*
X47113717Y-55312361D01*
X47113698Y-55312373D01*
X46726566Y-55574028D01*
X46726565Y-55574029D01*
X46363024Y-55867568D01*
X46363008Y-55867582D01*
X46290565Y-55937012D01*
X45662224Y-55937012D01*
X47462417Y-54136819D01*
X47523740Y-54103334D01*
X47550098Y-54100500D01*
X50863331Y-54100500D01*
X50863347Y-54100501D01*
X50870943Y-54100501D01*
X51029054Y-54100501D01*
X51029057Y-54100501D01*
X51181785Y-54059577D01*
X51231904Y-54030639D01*
X51318716Y-53980520D01*
X51430520Y-53868716D01*
X51430520Y-53868714D01*
X51440728Y-53858507D01*
X51440730Y-53858504D01*
X52118713Y-53180521D01*
X52118716Y-53180520D01*
X52230520Y-53068716D01*
X52280639Y-52981904D01*
X52309577Y-52931785D01*
X52350501Y-52779057D01*
X52350501Y-52620943D01*
X52350501Y-52613348D01*
X52350500Y-52613330D01*
X52350500Y-48089059D01*
X52350501Y-48089046D01*
X52350501Y-47920945D01*
X52350501Y-47920943D01*
X52309577Y-47768215D01*
X52257797Y-47678530D01*
X52230520Y-47631284D01*
X52118716Y-47519480D01*
X52118715Y-47519479D01*
X52114385Y-47515149D01*
X52114374Y-47515139D01*
X51436819Y-46837584D01*
X51403334Y-46776261D01*
X51400500Y-46749903D01*
X51400500Y-45915764D01*
X51420185Y-45848725D01*
X51472989Y-45802970D01*
X51510611Y-45792544D01*
X51574321Y-45785367D01*
X51620645Y-45769156D01*
X51690421Y-45765594D01*
X51749280Y-45798516D01*
G37*
%TD.AperFunction*%
%TA.AperFunction,Conductor*%
G36*
X61766942Y-44970185D02*
G01*
X61787584Y-44986819D01*
X64816926Y-48016161D01*
X64850411Y-48077484D01*
X64853245Y-48103842D01*
X64853245Y-57699198D01*
X64836632Y-57761198D01*
X64643583Y-58095569D01*
X64643580Y-58095575D01*
X64628024Y-58128185D01*
X64589723Y-58284117D01*
X64590423Y-58350899D01*
X64571442Y-58418141D01*
X64527304Y-58460226D01*
X64469121Y-58493011D01*
X64469113Y-58493017D01*
X64353227Y-58604147D01*
X64332771Y-58633911D01*
X64332758Y-58633932D01*
X64133583Y-58978915D01*
X64133580Y-58978921D01*
X64118024Y-59011531D01*
X64079724Y-59167460D01*
X64079723Y-59167466D01*
X64081406Y-59328020D01*
X64122961Y-59483109D01*
X64122962Y-59483112D01*
X64122963Y-59483113D01*
X64134886Y-59504272D01*
X64201785Y-59622999D01*
X64268710Y-59692788D01*
X64312919Y-59738888D01*
X64342698Y-59759355D01*
X64342710Y-59759362D01*
X64342716Y-59759366D01*
X64579134Y-59895861D01*
X64774292Y-60008535D01*
X64806906Y-60024092D01*
X64962836Y-60062392D01*
X64962837Y-60062391D01*
X64969282Y-60063975D01*
X65029203Y-60098571D01*
X65031470Y-60100935D01*
X65144789Y-60219104D01*
X65175157Y-60239975D01*
X65175174Y-60239986D01*
X65466827Y-60408371D01*
X65587281Y-60477915D01*
X65620540Y-60493779D01*
X65779537Y-60532832D01*
X65943251Y-60531118D01*
X66101395Y-60488743D01*
X66102226Y-60488275D01*
X66188761Y-60439515D01*
X66256829Y-60423754D01*
X66322613Y-60447296D01*
X66365227Y-60502666D01*
X66371140Y-60572285D01*
X66354627Y-60613517D01*
X66275236Y-60739867D01*
X66272170Y-60744511D01*
X65777010Y-61459232D01*
X65773739Y-61463734D01*
X65247017Y-62155513D01*
X65243548Y-62159864D01*
X64686297Y-62827343D01*
X64682636Y-62831533D01*
X64096009Y-63473328D01*
X64092163Y-63477350D01*
X63477350Y-64092163D01*
X63473328Y-64096009D01*
X62831533Y-64682636D01*
X62827343Y-64686297D01*
X62159864Y-65243548D01*
X62155513Y-65247017D01*
X61463734Y-65773739D01*
X61459232Y-65777010D01*
X61226360Y-65938344D01*
X61160043Y-65960341D01*
X61092362Y-65942993D01*
X61044803Y-65891807D01*
X61031751Y-65835118D01*
X61032332Y-65779602D01*
X61032331Y-65779598D01*
X60993306Y-65620718D01*
X60982685Y-65598450D01*
X60402408Y-65933474D01*
X60334508Y-65949947D01*
X60268481Y-65927094D01*
X60233021Y-65888087D01*
X60167271Y-65774205D01*
X60150798Y-65706305D01*
X60173650Y-65640278D01*
X60212656Y-65604819D01*
X60299417Y-65554728D01*
X60329198Y-65534262D01*
X60440332Y-65418373D01*
X60493953Y-65323208D01*
X60539982Y-65276696D01*
X60732684Y-65165439D01*
X60732685Y-65165439D01*
X60718711Y-65145105D01*
X60718709Y-65145102D01*
X60598792Y-65030107D01*
X60564197Y-64970187D01*
X60562391Y-64962838D01*
X60562392Y-64962836D01*
X60524092Y-64806906D01*
X60508536Y-64774292D01*
X60458506Y-64687638D01*
X60333786Y-64471616D01*
X60317173Y-64409616D01*
X60317173Y-52837618D01*
X60317173Y-52837616D01*
X60276250Y-52684889D01*
X60276250Y-52684888D01*
X60237333Y-52617482D01*
X60197193Y-52547957D01*
X60085389Y-52436153D01*
X60085388Y-52436152D01*
X60081058Y-52431822D01*
X60081047Y-52431812D01*
X52811819Y-45162584D01*
X52778334Y-45101261D01*
X52775500Y-45074903D01*
X52775500Y-45074500D01*
X52795185Y-45007461D01*
X52847989Y-44961706D01*
X52899500Y-44950500D01*
X61699903Y-44950500D01*
X61766942Y-44970185D01*
G37*
%TD.AperFunction*%
%TA.AperFunction,Conductor*%
G36*
X50864598Y-47979679D02*
G01*
X50908945Y-48008180D01*
X51113181Y-48212416D01*
X51146666Y-48273739D01*
X51149500Y-48300097D01*
X51149500Y-52399903D01*
X51129815Y-52466942D01*
X51113181Y-52487584D01*
X50737584Y-52863181D01*
X50676261Y-52896666D01*
X50649903Y-52899500D01*
X47336670Y-52899500D01*
X47336654Y-52899499D01*
X47329058Y-52899499D01*
X47170943Y-52899499D01*
X47094579Y-52919961D01*
X47018214Y-52940423D01*
X47018209Y-52940426D01*
X46881290Y-53019475D01*
X46881282Y-53019481D01*
X40686154Y-59214609D01*
X40639319Y-59295730D01*
X40607097Y-59351539D01*
X40607096Y-59351540D01*
X40587509Y-59424639D01*
X40566172Y-59504270D01*
X40566172Y-59504272D01*
X40566172Y-59672373D01*
X40566173Y-59672386D01*
X40566173Y-63978967D01*
X40546488Y-64046006D01*
X40493684Y-64091761D01*
X40424526Y-64101705D01*
X40412595Y-64099388D01*
X40332539Y-64079724D01*
X40332533Y-64079723D01*
X40171979Y-64081406D01*
X40016890Y-64122961D01*
X39877000Y-64201785D01*
X39761115Y-64312915D01*
X39740633Y-64342716D01*
X39491466Y-64774289D01*
X39491463Y-64774295D01*
X39475910Y-64806901D01*
X39475908Y-64806906D01*
X39467101Y-64842762D01*
X39436025Y-64969281D01*
X39401430Y-65029201D01*
X39280898Y-65144786D01*
X39260024Y-65175157D01*
X39260013Y-65175174D01*
X39022087Y-65587276D01*
X39013720Y-65604818D01*
X39006221Y-65620540D01*
X39005569Y-65623194D01*
X38967167Y-65779538D01*
X38967745Y-65834772D01*
X38948763Y-65902013D01*
X38896440Y-65948318D01*
X38827389Y-65958984D01*
X38773136Y-65937996D01*
X38540767Y-65777010D01*
X38536265Y-65773739D01*
X37844486Y-65247017D01*
X37840135Y-65243548D01*
X37338383Y-64824656D01*
X37172653Y-64686295D01*
X37168466Y-64682636D01*
X36934871Y-64469121D01*
X36526671Y-64096009D01*
X36522649Y-64092163D01*
X35907836Y-63477350D01*
X35903990Y-63473328D01*
X35317363Y-62831533D01*
X35313702Y-62827343D01*
X35194634Y-62684723D01*
X34756449Y-62159861D01*
X34752982Y-62155513D01*
X34226260Y-61463734D01*
X34222989Y-61459232D01*
X33727829Y-60744511D01*
X33724763Y-60739867D01*
X33644814Y-60612629D01*
X33625814Y-60545392D01*
X33646182Y-60478557D01*
X33699450Y-60433343D01*
X33768706Y-60424106D01*
X33810680Y-60438626D01*
X33898792Y-60488275D01*
X34056820Y-60530619D01*
X34220396Y-60532332D01*
X34220402Y-60532331D01*
X34379277Y-60493307D01*
X34379282Y-60493306D01*
X34401546Y-60482686D01*
X34401546Y-60482685D01*
X34066523Y-59902408D01*
X34050050Y-59834508D01*
X34072903Y-59768481D01*
X34111910Y-59733021D01*
X34225793Y-59667271D01*
X34293693Y-59650798D01*
X34359720Y-59673651D01*
X34395179Y-59712656D01*
X34431895Y-59776250D01*
X34445273Y-59799420D01*
X34465733Y-59829193D01*
X34465739Y-59829200D01*
X34470521Y-59833786D01*
X34581626Y-59940332D01*
X34676787Y-59993952D01*
X34723301Y-60039982D01*
X34834558Y-60232684D01*
X34834559Y-60232684D01*
X34854885Y-60218717D01*
X34854893Y-60218711D01*
X34969891Y-60098792D01*
X35029811Y-60064197D01*
X35037159Y-60062391D01*
X35037163Y-60062392D01*
X35193093Y-60024092D01*
X35225707Y-60008536D01*
X35527132Y-59834508D01*
X35528383Y-59833786D01*
X35590383Y-59817173D01*
X38589187Y-59817173D01*
X38589203Y-59817174D01*
X38596799Y-59817174D01*
X38754910Y-59817174D01*
X38754913Y-59817174D01*
X38907641Y-59776250D01*
X38982110Y-59733255D01*
X39044572Y-59697193D01*
X39156376Y-59585389D01*
X39156376Y-59585387D01*
X39166580Y-59575184D01*
X39166584Y-59575179D01*
X50733583Y-48008180D01*
X50794906Y-47974695D01*
X50864598Y-47979679D01*
G37*
%TD.AperFunction*%
%TA.AperFunction,Conductor*%
G36*
X62966942Y-43220185D02*
G01*
X62987584Y-43236819D01*
X66913181Y-47162416D01*
X66946666Y-47223739D01*
X66949500Y-47250097D01*
X66949500Y-48820404D01*
X66929815Y-48887443D01*
X66913181Y-48908085D01*
X66858869Y-48962396D01*
X66858863Y-48962404D01*
X66777131Y-49100606D01*
X66777129Y-49100611D01*
X66732335Y-49254791D01*
X66732334Y-49254797D01*
X66729500Y-49290811D01*
X66729500Y-49689169D01*
X66729501Y-49689191D01*
X66732335Y-49725205D01*
X66777129Y-49879388D01*
X66777132Y-49879395D01*
X66811128Y-49936881D01*
X66828309Y-50004605D01*
X66811128Y-50063119D01*
X66777132Y-50120604D01*
X66777129Y-50120611D01*
X66732335Y-50274791D01*
X66732334Y-50274797D01*
X66729500Y-50310811D01*
X66729500Y-50709169D01*
X66729501Y-50709191D01*
X66732335Y-50745205D01*
X66777129Y-50899388D01*
X66777131Y-50899393D01*
X66856038Y-51032819D01*
X66858864Y-51037597D01*
X66858869Y-51037603D01*
X66972396Y-51151130D01*
X66972400Y-51151133D01*
X66972402Y-51151135D01*
X67110607Y-51232869D01*
X67151268Y-51244682D01*
X67264791Y-51277664D01*
X67264794Y-51277664D01*
X67264796Y-51277665D01*
X67300819Y-51280500D01*
X67799180Y-51280499D01*
X67835204Y-51277665D01*
X67989393Y-51232869D01*
X67989393Y-51232868D01*
X67995767Y-51231017D01*
X68064958Y-51231017D01*
X68068102Y-51231930D01*
X68068103Y-51231931D01*
X68225325Y-51277609D01*
X68262060Y-51280500D01*
X68262068Y-51280500D01*
X68737932Y-51280500D01*
X68737940Y-51280500D01*
X68774675Y-51277609D01*
X68774677Y-51277608D01*
X68774679Y-51277608D01*
X68931892Y-51231933D01*
X68931893Y-51231932D01*
X68931897Y-51231931D01*
X69072820Y-51148590D01*
X69188590Y-51032820D01*
X69239782Y-50946257D01*
X69290848Y-50898577D01*
X69359589Y-50886073D01*
X69424179Y-50912717D01*
X69464110Y-50970052D01*
X69470231Y-51017722D01*
X69421188Y-51745147D01*
X69420689Y-51750690D01*
X69323336Y-52614718D01*
X69322589Y-52620232D01*
X69186572Y-53479009D01*
X69185579Y-53484484D01*
X69011161Y-54336337D01*
X69009922Y-54341762D01*
X68797475Y-55184878D01*
X68795995Y-55190242D01*
X68545932Y-56022995D01*
X68544212Y-56028288D01*
X68257022Y-56849026D01*
X68255067Y-56854235D01*
X67931368Y-57661206D01*
X67929181Y-57666323D01*
X67569598Y-58457970D01*
X67567184Y-58462984D01*
X67369206Y-58851538D01*
X67321231Y-58902334D01*
X67253411Y-58919129D01*
X67187276Y-58896592D01*
X67143824Y-58841877D01*
X67134728Y-58796541D01*
X67133716Y-58699918D01*
X67091375Y-58541895D01*
X67011063Y-58399364D01*
X66897834Y-58281290D01*
X66877497Y-58267313D01*
X66542474Y-58847590D01*
X66491907Y-58895806D01*
X66423300Y-58909029D01*
X66373087Y-58892977D01*
X66259204Y-58827227D01*
X66210989Y-58776660D01*
X66197765Y-58708053D01*
X66213814Y-58657846D01*
X66263908Y-58571082D01*
X66279466Y-58538467D01*
X66317766Y-58382537D01*
X66316621Y-58273315D01*
X66333227Y-58210018D01*
X66444484Y-58017313D01*
X66422221Y-58006694D01*
X66422208Y-58006689D01*
X66260863Y-57967058D01*
X66200944Y-57932464D01*
X66088747Y-57815466D01*
X66056553Y-57753455D01*
X66054245Y-57729640D01*
X66054245Y-47892804D01*
X66054246Y-47892791D01*
X66054246Y-47724690D01*
X66054246Y-47724688D01*
X66013322Y-47571960D01*
X65977305Y-47509577D01*
X65934265Y-47435029D01*
X65822461Y-47323225D01*
X65822460Y-47323224D01*
X65818130Y-47318894D01*
X65818119Y-47318884D01*
X62487590Y-43988355D01*
X62487588Y-43988352D01*
X62368717Y-43869481D01*
X62368709Y-43869475D01*
X62249241Y-43800501D01*
X62249238Y-43800500D01*
X62231785Y-43790423D01*
X62212356Y-43785217D01*
X62079057Y-43749499D01*
X61920943Y-43749499D01*
X61913347Y-43749499D01*
X61913331Y-43749500D01*
X52970457Y-43749500D01*
X52903418Y-43729815D01*
X52857663Y-43677011D01*
X52847719Y-43607853D01*
X52876744Y-43544297D01*
X52882776Y-43537819D01*
X53183777Y-43236819D01*
X53245100Y-43203334D01*
X53271458Y-43200500D01*
X62899903Y-43200500D01*
X62966942Y-43220185D01*
G37*
%TD.AperFunction*%
%TA.AperFunction,Conductor*%
G36*
X46436177Y-45420185D02*
G01*
X46456819Y-45436819D01*
X46493181Y-45473181D01*
X46526666Y-45534504D01*
X46529500Y-45560862D01*
X46529500Y-45588695D01*
X46564103Y-45762658D01*
X46564106Y-45762667D01*
X46631984Y-45926542D01*
X46631985Y-45926543D01*
X46631987Y-45926547D01*
X46699102Y-46026991D01*
X46719980Y-46093667D01*
X46720000Y-46095881D01*
X46720000Y-46254503D01*
X46816710Y-46226408D01*
X46886580Y-46226607D01*
X46920195Y-46242381D01*
X47003453Y-46298013D01*
X47003454Y-46298013D01*
X47003455Y-46298014D01*
X47003457Y-46298015D01*
X47112707Y-46343267D01*
X47167334Y-46365894D01*
X47167336Y-46365894D01*
X47167341Y-46365896D01*
X47299691Y-46392222D01*
X47361602Y-46424607D01*
X47396176Y-46485322D01*
X47399500Y-46513839D01*
X47399500Y-46633692D01*
X47434103Y-46807658D01*
X47434106Y-46807667D01*
X47501983Y-46971539D01*
X47501989Y-46971550D01*
X47515376Y-46991585D01*
X47536253Y-47058263D01*
X47519006Y-47123594D01*
X47512970Y-47133799D01*
X47512968Y-47133804D01*
X47470496Y-47280000D01*
X47741533Y-47280000D01*
X47808572Y-47299685D01*
X47810369Y-47300861D01*
X47873453Y-47343013D01*
X47873455Y-47343014D01*
X47873459Y-47343016D01*
X47975498Y-47385281D01*
X48037334Y-47410894D01*
X48037336Y-47410894D01*
X48037341Y-47410896D01*
X48175191Y-47438316D01*
X48237102Y-47470701D01*
X48271676Y-47531416D01*
X48275000Y-47559933D01*
X48275000Y-47656000D01*
X48255315Y-47723039D01*
X48202511Y-47768794D01*
X48151000Y-47780000D01*
X47470496Y-47780000D01*
X47512968Y-47926195D01*
X47595278Y-48065374D01*
X47595285Y-48065383D01*
X47661549Y-48131647D01*
X47695034Y-48192970D01*
X47690050Y-48262662D01*
X47678863Y-48285299D01*
X47671207Y-48297482D01*
X47611632Y-48467737D01*
X47611629Y-48467750D01*
X47591434Y-48646996D01*
X47591434Y-48647003D01*
X47611629Y-48826249D01*
X47611630Y-48826254D01*
X47671210Y-48996523D01*
X47692211Y-49029945D01*
X47752037Y-49125158D01*
X47763520Y-49143432D01*
X47782520Y-49210668D01*
X47762152Y-49277504D01*
X47746207Y-49297085D01*
X38463440Y-58579854D01*
X38402117Y-58613339D01*
X38375759Y-58616173D01*
X35709159Y-58616173D01*
X35642120Y-58596488D01*
X35623333Y-58581671D01*
X35530882Y-58493014D01*
X35530877Y-58493011D01*
X35472695Y-58460227D01*
X35423953Y-58410168D01*
X35409575Y-58350897D01*
X35410275Y-58284119D01*
X35410274Y-58284114D01*
X35371975Y-58128187D01*
X35356418Y-58095573D01*
X35261858Y-57931791D01*
X35157238Y-57750584D01*
X35136774Y-57720806D01*
X35136768Y-57720799D01*
X35020882Y-57609668D01*
X35020879Y-57609666D01*
X34880993Y-57530845D01*
X34725898Y-57489288D01*
X34565346Y-57487607D01*
X34487380Y-57506758D01*
X34409415Y-57525908D01*
X34409411Y-57525909D01*
X34409407Y-57525911D01*
X34376803Y-57541462D01*
X34376790Y-57541469D01*
X33945226Y-57790633D01*
X33945221Y-57790637D01*
X33945216Y-57790640D01*
X33945208Y-57790645D01*
X33915428Y-57811112D01*
X33915426Y-57811113D01*
X33915423Y-57811116D01*
X33799700Y-57931791D01*
X33739781Y-57966386D01*
X33695952Y-57977151D01*
X33577601Y-58006221D01*
X33571177Y-58009285D01*
X33544337Y-58022087D01*
X33132235Y-58260013D01*
X33132218Y-58260024D01*
X33101847Y-58280898D01*
X32988531Y-58399064D01*
X32988529Y-58399067D01*
X32908157Y-58541702D01*
X32865783Y-58699850D01*
X32864781Y-58795579D01*
X32844396Y-58862409D01*
X32791116Y-58907608D01*
X32721857Y-58916827D01*
X32658609Y-58887139D01*
X32630303Y-58850576D01*
X32553539Y-58699918D01*
X32432806Y-58462965D01*
X32430410Y-58457990D01*
X32191399Y-57931791D01*
X32070818Y-57666323D01*
X32068631Y-57661206D01*
X31744932Y-56854235D01*
X31742977Y-56849026D01*
X31455787Y-56028288D01*
X31454075Y-56023020D01*
X31204004Y-55190242D01*
X31202524Y-55184878D01*
X30990077Y-54341762D01*
X30988838Y-54336337D01*
X30814414Y-53484454D01*
X30813432Y-53479039D01*
X30677406Y-52620207D01*
X30676666Y-52614743D01*
X30579306Y-51750651D01*
X30578814Y-51745187D01*
X30529693Y-51016612D01*
X30544823Y-50948402D01*
X30594430Y-50899199D01*
X30662763Y-50884626D01*
X30728127Y-50909310D01*
X30760144Y-50945152D01*
X30811805Y-51032507D01*
X30811812Y-51032516D01*
X30927483Y-51148187D01*
X30927491Y-51148193D01*
X31068302Y-51231468D01*
X31068307Y-51231470D01*
X31225402Y-51277110D01*
X31250000Y-51279045D01*
X31250000Y-50609000D01*
X31269685Y-50541961D01*
X31322489Y-50496206D01*
X31374000Y-50485000D01*
X31505501Y-50485000D01*
X31572540Y-50504685D01*
X31618295Y-50557489D01*
X31629501Y-50609000D01*
X31629501Y-50709191D01*
X31632334Y-50745200D01*
X31677131Y-50899393D01*
X31732732Y-50993409D01*
X31750000Y-51056530D01*
X31750000Y-51279044D01*
X31750001Y-51279045D01*
X31774592Y-51277112D01*
X31774596Y-51277111D01*
X31934146Y-51230757D01*
X32003337Y-51230757D01*
X32164791Y-51277664D01*
X32164794Y-51277664D01*
X32164796Y-51277665D01*
X32200819Y-51280500D01*
X32699180Y-51280499D01*
X32735204Y-51277665D01*
X32889393Y-51232869D01*
X33027598Y-51151135D01*
X33027603Y-51151130D01*
X33031915Y-51146819D01*
X33093238Y-51113334D01*
X33119596Y-51110500D01*
X39203331Y-51110500D01*
X39203347Y-51110501D01*
X39210943Y-51110501D01*
X39369054Y-51110501D01*
X39369057Y-51110501D01*
X39521785Y-51069577D01*
X39577174Y-51037598D01*
X39658716Y-50990520D01*
X39770520Y-50878716D01*
X39770520Y-50878714D01*
X39780724Y-50868511D01*
X39780727Y-50868506D01*
X44949235Y-45700000D01*
X45691210Y-45700000D01*
X45692854Y-45720910D01*
X45737968Y-45876195D01*
X45820278Y-46015374D01*
X45820285Y-46015383D01*
X45934616Y-46129714D01*
X45934625Y-46129721D01*
X46073804Y-46212031D01*
X46220000Y-46254504D01*
X46220000Y-45700000D01*
X45691210Y-45700000D01*
X44949235Y-45700000D01*
X45212416Y-45436819D01*
X45273739Y-45403334D01*
X45300097Y-45400500D01*
X46369138Y-45400500D01*
X46436177Y-45420185D01*
G37*
%TD.AperFunction*%
%TA.AperFunction,Conductor*%
G36*
X32812722Y-41103408D02*
G01*
X32856174Y-41158123D01*
X32865270Y-41203458D01*
X32866282Y-41300081D01*
X32908623Y-41458104D01*
X32988935Y-41600635D01*
X33102167Y-41718712D01*
X33122500Y-41732686D01*
X33457523Y-41152409D01*
X33508090Y-41104193D01*
X33576697Y-41090970D01*
X33626910Y-41107022D01*
X33740793Y-41172772D01*
X33789008Y-41223339D01*
X33802232Y-41291946D01*
X33786181Y-41342158D01*
X33736088Y-41428922D01*
X33720533Y-41461531D01*
X33682233Y-41617460D01*
X33682232Y-41617466D01*
X33683376Y-41726681D01*
X33666770Y-41789978D01*
X33555512Y-41982684D01*
X33577779Y-41993307D01*
X33577786Y-41993309D01*
X33739136Y-42032942D01*
X33799055Y-42067536D01*
X33804294Y-42072999D01*
X33915428Y-42188888D01*
X33945207Y-42209355D01*
X33945219Y-42209362D01*
X33945225Y-42209366D01*
X34169401Y-42338793D01*
X34376801Y-42458535D01*
X34409415Y-42474092D01*
X34565345Y-42512392D01*
X34725901Y-42510711D01*
X34880995Y-42469154D01*
X34884558Y-42467146D01*
X34885759Y-42466470D01*
X34946632Y-42450500D01*
X47780438Y-42450500D01*
X47847477Y-42470185D01*
X47893232Y-42522989D01*
X47903176Y-42592147D01*
X47885431Y-42640473D01*
X47879147Y-42650472D01*
X47879146Y-42650475D01*
X47875771Y-42660120D01*
X47835046Y-42716894D01*
X47833658Y-42717962D01*
X47782080Y-42757076D01*
X47778782Y-42760374D01*
X47717457Y-42793856D01*
X47647765Y-42788867D01*
X47629106Y-42780076D01*
X47624870Y-42777630D01*
X47589272Y-42757078D01*
X47583174Y-42753557D01*
X47560426Y-42740423D01*
X47560427Y-42740423D01*
X47499333Y-42724053D01*
X47407697Y-42699499D01*
X47249583Y-42699499D01*
X47241987Y-42699499D01*
X47241971Y-42699500D01*
X43610943Y-42699500D01*
X43458212Y-42740423D01*
X43431734Y-42755711D01*
X43429372Y-42757076D01*
X43429370Y-42757077D01*
X43429367Y-42757078D01*
X43321290Y-42819475D01*
X43321282Y-42819481D01*
X43209478Y-42931286D01*
X41971465Y-44169298D01*
X41910142Y-44202783D01*
X41897668Y-44204837D01*
X41810750Y-44214630D01*
X41640478Y-44274210D01*
X41487737Y-44370184D01*
X41360184Y-44497737D01*
X41264211Y-44650476D01*
X41204631Y-44820745D01*
X41204630Y-44820750D01*
X41184435Y-44999996D01*
X41184435Y-45000003D01*
X41204630Y-45179249D01*
X41204631Y-45179254D01*
X41264211Y-45349523D01*
X41319063Y-45436819D01*
X41360184Y-45502262D01*
X41487738Y-45629816D01*
X41640478Y-45725789D01*
X41754234Y-45765594D01*
X41810745Y-45785368D01*
X41810750Y-45785369D01*
X41989996Y-45805565D01*
X41990000Y-45805565D01*
X41990004Y-45805565D01*
X42169249Y-45785369D01*
X42169252Y-45785368D01*
X42169255Y-45785368D01*
X42339522Y-45725789D01*
X42492262Y-45629816D01*
X42619816Y-45502262D01*
X42715789Y-45349522D01*
X42775368Y-45179255D01*
X42785161Y-45092329D01*
X42812226Y-45027918D01*
X42820690Y-45018543D01*
X43902416Y-43936819D01*
X43963739Y-43903334D01*
X43990097Y-43900500D01*
X47028543Y-43900500D01*
X47095582Y-43920185D01*
X47116224Y-43936819D01*
X47167224Y-43987819D01*
X47200709Y-44049142D01*
X47195725Y-44118834D01*
X47153853Y-44174767D01*
X47088389Y-44199184D01*
X47079543Y-44199500D01*
X44920939Y-44199500D01*
X44881296Y-44210122D01*
X44881297Y-44210123D01*
X44768214Y-44240423D01*
X44768209Y-44240426D01*
X44631290Y-44319475D01*
X44631282Y-44319481D01*
X44550764Y-44400000D01*
X44519480Y-44431284D01*
X44519478Y-44431286D01*
X41788349Y-47162416D01*
X39077584Y-49873181D01*
X39016261Y-49906666D01*
X38989903Y-49909500D01*
X33379275Y-49909500D01*
X33312236Y-49889815D01*
X33266481Y-49837011D01*
X33256537Y-49767853D01*
X33260198Y-49750906D01*
X33266870Y-49727940D01*
X33267665Y-49725204D01*
X33270500Y-49689181D01*
X33270499Y-49290820D01*
X33267665Y-49254796D01*
X33222869Y-49100607D01*
X33141135Y-48962402D01*
X33141133Y-48962400D01*
X33141130Y-48962396D01*
X33027603Y-48848869D01*
X33027595Y-48848863D01*
X32889393Y-48767131D01*
X32889388Y-48767129D01*
X32735208Y-48722335D01*
X32735202Y-48722334D01*
X32699181Y-48719500D01*
X32200830Y-48719500D01*
X32200808Y-48719501D01*
X32164798Y-48722334D01*
X32004232Y-48768983D01*
X31935043Y-48768982D01*
X31774679Y-48722391D01*
X31774673Y-48722390D01*
X31737947Y-48719500D01*
X31737940Y-48719500D01*
X31262060Y-48719500D01*
X31262052Y-48719500D01*
X31225326Y-48722390D01*
X31225320Y-48722391D01*
X31068107Y-48768066D01*
X31068104Y-48768068D01*
X30927182Y-48851408D01*
X30927174Y-48851414D01*
X30811414Y-48967174D01*
X30811407Y-48967183D01*
X30760219Y-49053739D01*
X30709150Y-49101423D01*
X30640408Y-49113926D01*
X30575819Y-49087281D01*
X30535889Y-49029945D01*
X30529768Y-48982277D01*
X30530765Y-48967491D01*
X30578814Y-48254808D01*
X30579306Y-48249352D01*
X30676667Y-47385250D01*
X30677405Y-47379798D01*
X30813433Y-46520952D01*
X30814413Y-46515553D01*
X30988841Y-45663648D01*
X30990077Y-45658237D01*
X30997239Y-45629816D01*
X31202525Y-44815114D01*
X31204004Y-44809757D01*
X31261050Y-44619784D01*
X31454079Y-43976966D01*
X31455787Y-43971711D01*
X31742977Y-43150973D01*
X31744932Y-43145764D01*
X31846704Y-42892051D01*
X32068632Y-42338789D01*
X32070818Y-42333676D01*
X32081598Y-42309943D01*
X32430418Y-41541992D01*
X32432797Y-41537051D01*
X32630794Y-41148459D01*
X32678766Y-41097666D01*
X32746587Y-41080871D01*
X32812722Y-41103408D01*
G37*
%TD.AperFunction*%
%TA.AperFunction,Conductor*%
G36*
X67341388Y-41112858D02*
G01*
X67369695Y-41149421D01*
X67567184Y-41537015D01*
X67569598Y-41542029D01*
X67929181Y-42333676D01*
X67931368Y-42338793D01*
X68255067Y-43145764D01*
X68257022Y-43150973D01*
X68544212Y-43971711D01*
X68545932Y-43977004D01*
X68795995Y-44809757D01*
X68797475Y-44815121D01*
X69009922Y-45658237D01*
X69011161Y-45663662D01*
X69185579Y-46515515D01*
X69186572Y-46520990D01*
X69322589Y-47379767D01*
X69323336Y-47385281D01*
X69420689Y-48249309D01*
X69421188Y-48254852D01*
X69470306Y-48983385D01*
X69455176Y-49051597D01*
X69405569Y-49100800D01*
X69337236Y-49115373D01*
X69271872Y-49090689D01*
X69239855Y-49054847D01*
X69188193Y-48967491D01*
X69188187Y-48967483D01*
X69072516Y-48851812D01*
X69072508Y-48851806D01*
X68931697Y-48768531D01*
X68931692Y-48768529D01*
X68774603Y-48722890D01*
X68774591Y-48722888D01*
X68750000Y-48720952D01*
X68750000Y-49391000D01*
X68730315Y-49458039D01*
X68677511Y-49503794D01*
X68626000Y-49515000D01*
X68494499Y-49515000D01*
X68427460Y-49495315D01*
X68381705Y-49442511D01*
X68370499Y-49391000D01*
X68370499Y-49290830D01*
X68370498Y-49290808D01*
X68368493Y-49265325D01*
X68367665Y-49254796D01*
X68322869Y-49100607D01*
X68281080Y-49029945D01*
X68267267Y-49006588D01*
X68250000Y-48943468D01*
X68250000Y-48720953D01*
X68236163Y-48708162D01*
X68215847Y-48703894D01*
X68166092Y-48654841D01*
X68150500Y-48594643D01*
X68150500Y-47039059D01*
X68150501Y-47039046D01*
X68150501Y-46870945D01*
X68150501Y-46870943D01*
X68109577Y-46718215D01*
X68060777Y-46633691D01*
X68030520Y-46581284D01*
X67918716Y-46469480D01*
X67918715Y-46469479D01*
X67914385Y-46465149D01*
X67914374Y-46465139D01*
X63687590Y-42238355D01*
X63687588Y-42238352D01*
X63568717Y-42119481D01*
X63568716Y-42119480D01*
X63454470Y-42053520D01*
X63454470Y-42053519D01*
X63454465Y-42053518D01*
X63446550Y-42048948D01*
X63431786Y-42040423D01*
X63393603Y-42030192D01*
X63279057Y-41999499D01*
X63120943Y-41999499D01*
X63113347Y-41999499D01*
X63113331Y-41999500D01*
X53058030Y-41999500D01*
X53058014Y-41999499D01*
X53050418Y-41999499D01*
X52892303Y-41999499D01*
X52815939Y-42019961D01*
X52739574Y-42040423D01*
X52739569Y-42040426D01*
X52602650Y-42119475D01*
X52602642Y-42119481D01*
X52412181Y-42309943D01*
X52350858Y-42343428D01*
X52281166Y-42338444D01*
X52225233Y-42296572D01*
X52200816Y-42231108D01*
X52200500Y-42222262D01*
X52200500Y-41926179D01*
X52201280Y-41912294D01*
X52202167Y-41904427D01*
X52205565Y-41874265D01*
X52201279Y-41836233D01*
X52200500Y-41822350D01*
X52200500Y-41795422D01*
X52192711Y-41756268D01*
X52191110Y-41745979D01*
X52185368Y-41695010D01*
X52177023Y-41671163D01*
X52172449Y-41654404D01*
X52169737Y-41640768D01*
X52149484Y-41591872D01*
X52147026Y-41585436D01*
X52134198Y-41548777D01*
X52130639Y-41479000D01*
X52165370Y-41418373D01*
X52227364Y-41386148D01*
X52251242Y-41383827D01*
X64290840Y-41383827D01*
X64357879Y-41403512D01*
X64376666Y-41418329D01*
X64469116Y-41506985D01*
X64469119Y-41506987D01*
X64527301Y-41539771D01*
X64576044Y-41589830D01*
X64590423Y-41649100D01*
X64589723Y-41715882D01*
X64609261Y-41795423D01*
X64628024Y-41871813D01*
X64628026Y-41871817D01*
X64643579Y-41904423D01*
X64643582Y-41904429D01*
X64842760Y-42249415D01*
X64863224Y-42279193D01*
X64863226Y-42279196D01*
X64863228Y-42279198D01*
X64979117Y-42390332D01*
X65119004Y-42469154D01*
X65274098Y-42510711D01*
X65354376Y-42511551D01*
X65434652Y-42512392D01*
X65434652Y-42512391D01*
X65434654Y-42512392D01*
X65590584Y-42474092D01*
X65623198Y-42458536D01*
X66004567Y-42238352D01*
X66054772Y-42209366D01*
X66054772Y-42209365D01*
X66054791Y-42209355D01*
X66084571Y-42188888D01*
X66195705Y-42072999D01*
X66195705Y-42072997D01*
X66200299Y-42068208D01*
X66260219Y-42033613D01*
X66263398Y-42032831D01*
X66263401Y-42032832D01*
X66422398Y-41993779D01*
X66455657Y-41977915D01*
X66713047Y-41829311D01*
X66867763Y-41739986D01*
X66867771Y-41739980D01*
X66867781Y-41739975D01*
X66898149Y-41719104D01*
X67011468Y-41600935D01*
X67091841Y-41458298D01*
X67134215Y-41300153D01*
X67135217Y-41204418D01*
X67155601Y-41137589D01*
X67208881Y-41092389D01*
X67278140Y-41083169D01*
X67341388Y-41112858D01*
G37*
%TD.AperFunction*%
%TA.AperFunction,Conductor*%
G36*
X49818434Y-43464876D02*
G01*
X49818436Y-43464877D01*
X49890821Y-43473569D01*
X49906897Y-43475500D01*
X49906898Y-43475500D01*
X50093103Y-43475500D01*
X50109178Y-43473569D01*
X50181564Y-43464877D01*
X50181565Y-43464876D01*
X50185215Y-43464438D01*
X50214785Y-43464438D01*
X50218434Y-43464876D01*
X50218436Y-43464877D01*
X50290821Y-43473569D01*
X50306897Y-43475500D01*
X50400500Y-43475500D01*
X50467539Y-43495185D01*
X50513294Y-43547989D01*
X50524500Y-43599500D01*
X50524500Y-43693102D01*
X50527389Y-43717156D01*
X50535561Y-43785217D01*
X50535561Y-43814783D01*
X50529718Y-43863440D01*
X50524500Y-43906898D01*
X50524500Y-44093102D01*
X50527590Y-44118834D01*
X50535561Y-44185217D01*
X50535561Y-44214783D01*
X50532482Y-44240426D01*
X50524500Y-44306898D01*
X50524500Y-44306903D01*
X50524500Y-44400500D01*
X50504815Y-44467539D01*
X50452011Y-44513294D01*
X50400500Y-44524500D01*
X50306898Y-44524500D01*
X50263440Y-44529718D01*
X50214783Y-44535561D01*
X50185217Y-44535561D01*
X50136559Y-44529718D01*
X50093102Y-44524500D01*
X49906898Y-44524500D01*
X49863440Y-44529718D01*
X49814783Y-44535561D01*
X49785217Y-44535561D01*
X49736559Y-44529718D01*
X49693102Y-44524500D01*
X49599000Y-44524500D01*
X49531961Y-44504815D01*
X49486206Y-44452011D01*
X49475000Y-44400500D01*
X49475000Y-44306940D01*
X49464185Y-44216890D01*
X49464185Y-44187318D01*
X49464875Y-44181567D01*
X49464877Y-44181564D01*
X49475500Y-44093102D01*
X49475500Y-43906898D01*
X49464877Y-43818436D01*
X49464876Y-43818434D01*
X49464438Y-43814785D01*
X49464438Y-43785215D01*
X49464876Y-43781565D01*
X49464877Y-43781564D01*
X49475500Y-43693102D01*
X49475500Y-43599500D01*
X49495185Y-43532461D01*
X49547989Y-43486706D01*
X49599500Y-43475500D01*
X49693103Y-43475500D01*
X49709178Y-43473569D01*
X49781564Y-43464877D01*
X49781565Y-43464876D01*
X49785215Y-43464438D01*
X49814785Y-43464438D01*
X49818434Y-43464876D01*
G37*
%TD.AperFunction*%
%TA.AperFunction,Conductor*%
G36*
X50872098Y-30520073D02*
G01*
X50877594Y-30520320D01*
X51745187Y-30578814D01*
X51750651Y-30579306D01*
X52614743Y-30676666D01*
X52620207Y-30677406D01*
X53479039Y-30813432D01*
X53484454Y-30814414D01*
X54336342Y-30988839D01*
X54341756Y-30990075D01*
X54725708Y-31086823D01*
X55184878Y-31202524D01*
X55190242Y-31204004D01*
X56023020Y-31454075D01*
X56028288Y-31455787D01*
X56849026Y-31742977D01*
X56854235Y-31744932D01*
X57661206Y-32068631D01*
X57666323Y-32070818D01*
X57981146Y-32213817D01*
X58457990Y-32430410D01*
X58462965Y-32432806D01*
X58851538Y-32630793D01*
X58902333Y-32678766D01*
X58919128Y-32746587D01*
X58896591Y-32812722D01*
X58841876Y-32856174D01*
X58796541Y-32865270D01*
X58699918Y-32866282D01*
X58541895Y-32908623D01*
X58399364Y-32988935D01*
X58281288Y-33102167D01*
X58281286Y-33102169D01*
X58267313Y-33122499D01*
X58847590Y-33457523D01*
X58895806Y-33508090D01*
X58909029Y-33576697D01*
X58892977Y-33626910D01*
X58827227Y-33740793D01*
X58776660Y-33789008D01*
X58708053Y-33802232D01*
X58657841Y-33786181D01*
X58571077Y-33736088D01*
X58538468Y-33720533D01*
X58382539Y-33682233D01*
X58382533Y-33682232D01*
X58273316Y-33683376D01*
X58210018Y-33666770D01*
X58017314Y-33555513D01*
X58017313Y-33555513D01*
X58006695Y-33577773D01*
X58006689Y-33577789D01*
X57967058Y-33739135D01*
X57932464Y-33799054D01*
X57815466Y-33911252D01*
X57753455Y-33943446D01*
X57729640Y-33945754D01*
X57374729Y-33945754D01*
X57374713Y-33945753D01*
X57367117Y-33945753D01*
X57209003Y-33945753D01*
X57094457Y-33976446D01*
X57056274Y-33986677D01*
X57006682Y-34015310D01*
X57006681Y-34015310D01*
X56919347Y-34065731D01*
X56919342Y-34065735D01*
X56807538Y-34177540D01*
X51021396Y-39963681D01*
X50960073Y-39997166D01*
X50933715Y-40000000D01*
X50430000Y-40000000D01*
X50430000Y-40503715D01*
X50410315Y-40570754D01*
X50393681Y-40591396D01*
X50031286Y-40953792D01*
X49919481Y-41065596D01*
X49919480Y-41065598D01*
X49900114Y-41099142D01*
X49885768Y-41123990D01*
X49885766Y-41123992D01*
X49841684Y-41200342D01*
X49791117Y-41248557D01*
X49722509Y-41261779D01*
X49675586Y-41242993D01*
X49664274Y-41239672D01*
X49661297Y-41237273D01*
X49657645Y-41235811D01*
X49646617Y-41226022D01*
X49643637Y-41223042D01*
X49643632Y-41223038D01*
X49325622Y-40905028D01*
X49325620Y-40905025D01*
X49206746Y-40786151D01*
X49202473Y-40782872D01*
X49161273Y-40726443D01*
X49157121Y-40656696D01*
X49191336Y-40595778D01*
X49253055Y-40563028D01*
X49277964Y-40560500D01*
X49424682Y-40560500D01*
X49424690Y-40560500D01*
X49460993Y-40557643D01*
X49460995Y-40557642D01*
X49460997Y-40557642D01*
X49504534Y-40544993D01*
X49616395Y-40512494D01*
X49637369Y-40500089D01*
X49705088Y-40482906D01*
X49763613Y-40500090D01*
X49783803Y-40512031D01*
X49930000Y-40554504D01*
X49930000Y-40248352D01*
X49947267Y-40185233D01*
X49952494Y-40176395D01*
X49956345Y-40163142D01*
X49997642Y-40020997D01*
X49997643Y-40020991D01*
X50000500Y-39984690D01*
X50000500Y-39515310D01*
X49997643Y-39479007D01*
X49994701Y-39468882D01*
X49952495Y-39323608D01*
X49952492Y-39323600D01*
X49947266Y-39314763D01*
X49930000Y-39251645D01*
X49930000Y-38945494D01*
X50430000Y-38945494D01*
X50430000Y-39500000D01*
X50958790Y-39500000D01*
X50957145Y-39479089D01*
X50912031Y-39323804D01*
X50829721Y-39184625D01*
X50829714Y-39184616D01*
X50715383Y-39070285D01*
X50715374Y-39070278D01*
X50576193Y-38987967D01*
X50576190Y-38987965D01*
X50430001Y-38945493D01*
X50430000Y-38945494D01*
X49930000Y-38945494D01*
X49926078Y-38942550D01*
X49884287Y-38886556D01*
X49879403Y-38816857D01*
X49909299Y-38759409D01*
X49987202Y-38674785D01*
X50123211Y-38466607D01*
X50223101Y-38238881D01*
X50284146Y-37997821D01*
X50297036Y-37842261D01*
X50304681Y-37750005D01*
X50304681Y-37749994D01*
X50284147Y-37502187D01*
X50284145Y-37502175D01*
X50223101Y-37261118D01*
X50130412Y-37049810D01*
X50121509Y-36980510D01*
X50130412Y-36950190D01*
X50223101Y-36738881D01*
X50276840Y-36526671D01*
X50284146Y-36497821D01*
X50304681Y-36250000D01*
X50284146Y-36002179D01*
X50252455Y-35877036D01*
X50223101Y-35761118D01*
X50123211Y-35533393D01*
X49987204Y-35325217D01*
X49909301Y-35240592D01*
X49878379Y-35177937D01*
X49886239Y-35108511D01*
X49926080Y-35057448D01*
X49930000Y-35054504D01*
X49930000Y-35054503D01*
X50430000Y-35054503D01*
X50576195Y-35012031D01*
X50715374Y-34929721D01*
X50715383Y-34929714D01*
X50829714Y-34815383D01*
X50829721Y-34815374D01*
X50912031Y-34676195D01*
X50912033Y-34676190D01*
X50957144Y-34520918D01*
X50957145Y-34520912D01*
X50958790Y-34500000D01*
X50430000Y-34500000D01*
X50430000Y-35054503D01*
X49930000Y-35054503D01*
X49930000Y-34748352D01*
X49947267Y-34685233D01*
X49952494Y-34676395D01*
X49984758Y-34565345D01*
X49997642Y-34520997D01*
X49997643Y-34520991D01*
X49997649Y-34520912D01*
X50000500Y-34484690D01*
X50000500Y-34015310D01*
X49997643Y-33979007D01*
X49987827Y-33945221D01*
X49952495Y-33823608D01*
X49952492Y-33823600D01*
X49947266Y-33814763D01*
X49930000Y-33751645D01*
X49930000Y-33445494D01*
X50430000Y-33445494D01*
X50430000Y-34000000D01*
X50958790Y-34000000D01*
X50957145Y-33979089D01*
X50912031Y-33823804D01*
X50829721Y-33684625D01*
X50829714Y-33684616D01*
X50715383Y-33570285D01*
X50715374Y-33570278D01*
X50576193Y-33487967D01*
X50576190Y-33487965D01*
X50430001Y-33445493D01*
X50430000Y-33445494D01*
X49930000Y-33445494D01*
X49929998Y-33445493D01*
X49783809Y-33487965D01*
X49783806Y-33487967D01*
X49763608Y-33499912D01*
X49695884Y-33517092D01*
X49637370Y-33499910D01*
X49616397Y-33487507D01*
X49616390Y-33487504D01*
X49460997Y-33442357D01*
X49460991Y-33442356D01*
X49424697Y-33439500D01*
X49424690Y-33439500D01*
X49015310Y-33439500D01*
X49015302Y-33439500D01*
X48979008Y-33442356D01*
X48979002Y-33442357D01*
X48823609Y-33487504D01*
X48823608Y-33487504D01*
X48737620Y-33538357D01*
X48669896Y-33555539D01*
X48603634Y-33533378D01*
X48559871Y-33478912D01*
X48550500Y-33431624D01*
X48550500Y-33094938D01*
X48570185Y-33027899D01*
X48622989Y-32982144D01*
X48692147Y-32972200D01*
X48717834Y-32978756D01*
X48757628Y-32993598D01*
X48757627Y-32993598D01*
X48817155Y-32999999D01*
X48817172Y-33000000D01*
X49115000Y-33000000D01*
X49115000Y-32269010D01*
X49117383Y-32244818D01*
X49127068Y-32196132D01*
X49145500Y-32103465D01*
X49145500Y-31970163D01*
X49215000Y-31970163D01*
X49215000Y-32029837D01*
X49237836Y-32084968D01*
X49280032Y-32127164D01*
X49335163Y-32150000D01*
X49394837Y-32150000D01*
X49449968Y-32127164D01*
X49492164Y-32084968D01*
X49515000Y-32029837D01*
X49515000Y-31970163D01*
X49492164Y-31915032D01*
X49449968Y-31872836D01*
X49394837Y-31850000D01*
X49335163Y-31850000D01*
X49280032Y-31872836D01*
X49237836Y-31915032D01*
X49215000Y-31970163D01*
X49145500Y-31970163D01*
X49145500Y-31896535D01*
X49117383Y-31755180D01*
X49115000Y-31730989D01*
X49115000Y-31000000D01*
X49615000Y-31000000D01*
X49615000Y-33000000D01*
X49912828Y-33000000D01*
X49912844Y-32999999D01*
X49972372Y-32993598D01*
X49972376Y-32993597D01*
X50107089Y-32943351D01*
X50114890Y-32937512D01*
X50180353Y-32913091D01*
X50244529Y-32926751D01*
X50244641Y-32926482D01*
X50246100Y-32927086D01*
X50247663Y-32927419D01*
X50250273Y-32928814D01*
X50438868Y-32986024D01*
X50635000Y-33005341D01*
X50831132Y-32986024D01*
X51019727Y-32928814D01*
X51193538Y-32835910D01*
X51193544Y-32835904D01*
X51198607Y-32832523D01*
X51199703Y-32834164D01*
X51255639Y-32810405D01*
X51324507Y-32822194D01*
X51341148Y-32832888D01*
X51341393Y-32832523D01*
X51346458Y-32835907D01*
X51346462Y-32835910D01*
X51520273Y-32928814D01*
X51708868Y-32986024D01*
X51905000Y-33005341D01*
X52101132Y-32986024D01*
X52289727Y-32928814D01*
X52328374Y-32908157D01*
X52407648Y-32865784D01*
X52463538Y-32835910D01*
X52615883Y-32710883D01*
X52740910Y-32558538D01*
X52833814Y-32384727D01*
X52891024Y-32196132D01*
X52910341Y-32000000D01*
X52891024Y-31803868D01*
X52833814Y-31615273D01*
X52833811Y-31615269D01*
X52833811Y-31615266D01*
X52740913Y-31441467D01*
X52740909Y-31441460D01*
X52615883Y-31289116D01*
X52463539Y-31164090D01*
X52463532Y-31164086D01*
X52289733Y-31071188D01*
X52289727Y-31071186D01*
X52101132Y-31013976D01*
X52101129Y-31013975D01*
X51905000Y-30994659D01*
X51708870Y-31013975D01*
X51520266Y-31071188D01*
X51346467Y-31164086D01*
X51341399Y-31167473D01*
X51340305Y-31165836D01*
X51284337Y-31189596D01*
X51215471Y-31177795D01*
X51198843Y-31167109D01*
X51198601Y-31167473D01*
X51193532Y-31164086D01*
X51019733Y-31071188D01*
X51019727Y-31071186D01*
X50831132Y-31013976D01*
X50831129Y-31013975D01*
X50635000Y-30994659D01*
X50438870Y-31013975D01*
X50354246Y-31039645D01*
X50250273Y-31071186D01*
X50250270Y-31071187D01*
X50250268Y-31071188D01*
X50247647Y-31072589D01*
X50246118Y-31072907D01*
X50244646Y-31073517D01*
X50244530Y-31073237D01*
X50179243Y-31086823D01*
X50114894Y-31062490D01*
X50107091Y-31056648D01*
X49972376Y-31006402D01*
X49972372Y-31006401D01*
X49912844Y-31000000D01*
X49615000Y-31000000D01*
X49115000Y-31000000D01*
X48817155Y-31000000D01*
X48757627Y-31006401D01*
X48757619Y-31006403D01*
X48636904Y-31051427D01*
X48567212Y-31056411D01*
X48546118Y-31049806D01*
X48401420Y-30989870D01*
X48401412Y-30989868D01*
X48198469Y-30949500D01*
X48198465Y-30949500D01*
X47991535Y-30949500D01*
X47991530Y-30949500D01*
X47788587Y-30989868D01*
X47788579Y-30989870D01*
X47597404Y-31069057D01*
X47597395Y-31069062D01*
X47425345Y-31184023D01*
X47425341Y-31184026D01*
X47106966Y-31502402D01*
X46830348Y-31779020D01*
X46830345Y-31779023D01*
X46759368Y-31850000D01*
X46684023Y-31925344D01*
X46569058Y-32097403D01*
X46489870Y-32288579D01*
X46489868Y-32288587D01*
X46449500Y-32491530D01*
X46449500Y-33431624D01*
X46429815Y-33498663D01*
X46377011Y-33544418D01*
X46307853Y-33554362D01*
X46262380Y-33538357D01*
X46226422Y-33517092D01*
X46176395Y-33487506D01*
X46176391Y-33487505D01*
X46176390Y-33487504D01*
X46020997Y-33442357D01*
X46020991Y-33442356D01*
X45984697Y-33439500D01*
X45984690Y-33439500D01*
X45575310Y-33439500D01*
X45575302Y-33439500D01*
X45539008Y-33442356D01*
X45539002Y-33442357D01*
X45383609Y-33487504D01*
X45383604Y-33487506D01*
X45362628Y-33499911D01*
X45294903Y-33517092D01*
X45236389Y-33499911D01*
X45216191Y-33487966D01*
X45216190Y-33487965D01*
X45070001Y-33445493D01*
X45070000Y-33445494D01*
X45070000Y-33751645D01*
X45052734Y-33814763D01*
X45047507Y-33823600D01*
X45047504Y-33823608D01*
X45002357Y-33979002D01*
X45002356Y-33979008D01*
X44999500Y-34015302D01*
X44999500Y-34484697D01*
X45002356Y-34520991D01*
X45002357Y-34520997D01*
X45047503Y-34676389D01*
X45047505Y-34676393D01*
X45047506Y-34676395D01*
X45052732Y-34685233D01*
X45070000Y-34748352D01*
X45070000Y-35054504D01*
X45073920Y-35057448D01*
X45115712Y-35113442D01*
X45120596Y-35183140D01*
X45090698Y-35240592D01*
X45012794Y-35325217D01*
X44876787Y-35533393D01*
X44776897Y-35761118D01*
X44715853Y-36002175D01*
X44715851Y-36002187D01*
X44695318Y-36249994D01*
X44695318Y-36250005D01*
X44715851Y-36497812D01*
X44715853Y-36497824D01*
X44776898Y-36738881D01*
X44869586Y-36950190D01*
X44878489Y-37019490D01*
X44869586Y-37049810D01*
X44776898Y-37261118D01*
X44715853Y-37502175D01*
X44715851Y-37502187D01*
X44695318Y-37749994D01*
X44695318Y-37750005D01*
X44715851Y-37997812D01*
X44715853Y-37997824D01*
X44776897Y-38238881D01*
X44876787Y-38466606D01*
X45012794Y-38674782D01*
X45090697Y-38759407D01*
X45121619Y-38822062D01*
X45113759Y-38891488D01*
X45073920Y-38942550D01*
X45070000Y-38945493D01*
X45070000Y-39251645D01*
X45052734Y-39314763D01*
X45047507Y-39323600D01*
X45047504Y-39323608D01*
X45002357Y-39479002D01*
X45002356Y-39479008D01*
X44999500Y-39515302D01*
X44999500Y-39626000D01*
X44979815Y-39693039D01*
X44927011Y-39738794D01*
X44875500Y-39750000D01*
X44820000Y-39750000D01*
X44820000Y-39876000D01*
X44800315Y-39943039D01*
X44747511Y-39988794D01*
X44696000Y-40000000D01*
X44041210Y-40000000D01*
X44042854Y-40020910D01*
X44087968Y-40176195D01*
X44170278Y-40315374D01*
X44170285Y-40315383D01*
X44284616Y-40429714D01*
X44284625Y-40429721D01*
X44294297Y-40435441D01*
X44341981Y-40486510D01*
X44354484Y-40555252D01*
X44327839Y-40619841D01*
X44270503Y-40659771D01*
X44231176Y-40666173D01*
X43666770Y-40666173D01*
X43599731Y-40646488D01*
X43579089Y-40629854D01*
X42449234Y-39499999D01*
X44041209Y-39499999D01*
X44041210Y-39500000D01*
X44570000Y-39500000D01*
X44570000Y-38945494D01*
X44569998Y-38945493D01*
X44423809Y-38987965D01*
X44423806Y-38987967D01*
X44284625Y-39070278D01*
X44284616Y-39070285D01*
X44170285Y-39184616D01*
X44170278Y-39184625D01*
X44087968Y-39323804D01*
X44087966Y-39323809D01*
X44042855Y-39479081D01*
X44042854Y-39479087D01*
X44041209Y-39499999D01*
X42449234Y-39499999D01*
X41420146Y-38470911D01*
X41386661Y-38409588D01*
X41383827Y-38383230D01*
X41383827Y-35709158D01*
X41403512Y-35642119D01*
X41418329Y-35623332D01*
X41449928Y-35590381D01*
X41506986Y-35530882D01*
X41539771Y-35472696D01*
X41589830Y-35423954D01*
X41649100Y-35409575D01*
X41709790Y-35410211D01*
X41715880Y-35410275D01*
X41715880Y-35410274D01*
X41715883Y-35410275D01*
X41871813Y-35371975D01*
X41904427Y-35356418D01*
X42249417Y-35157237D01*
X42279198Y-35136771D01*
X42390332Y-35020882D01*
X42469154Y-34880995D01*
X42510711Y-34725901D01*
X42512392Y-34565345D01*
X42496342Y-34500000D01*
X44041210Y-34500000D01*
X44042854Y-34520910D01*
X44087968Y-34676195D01*
X44170278Y-34815374D01*
X44170285Y-34815383D01*
X44284616Y-34929714D01*
X44284625Y-34929721D01*
X44423804Y-35012031D01*
X44570000Y-35054504D01*
X44570000Y-34500000D01*
X44041210Y-34500000D01*
X42496342Y-34500000D01*
X42474092Y-34409415D01*
X42458536Y-34376801D01*
X42458530Y-34376790D01*
X42240989Y-33999999D01*
X44041209Y-33999999D01*
X44041210Y-34000000D01*
X44570000Y-34000000D01*
X44570000Y-33445494D01*
X44569998Y-33445493D01*
X44423809Y-33487965D01*
X44423806Y-33487967D01*
X44284625Y-33570278D01*
X44284616Y-33570285D01*
X44170285Y-33684616D01*
X44170278Y-33684625D01*
X44087968Y-33823804D01*
X44087966Y-33823809D01*
X44042855Y-33979081D01*
X44042854Y-33979087D01*
X44041209Y-33999999D01*
X42240989Y-33999999D01*
X42209366Y-33945226D01*
X42209363Y-33945223D01*
X42209355Y-33945208D01*
X42188888Y-33915428D01*
X42188883Y-33915423D01*
X42068208Y-33799699D01*
X42033613Y-33739779D01*
X42032707Y-33736091D01*
X41993779Y-33577601D01*
X41977915Y-33544342D01*
X41920845Y-33445494D01*
X41739986Y-33132235D01*
X41739975Y-33132218D01*
X41733295Y-33122499D01*
X41719104Y-33101850D01*
X41644315Y-33030131D01*
X41600935Y-32988531D01*
X41600932Y-32988529D01*
X41458297Y-32908157D01*
X41314270Y-32869566D01*
X41300153Y-32865784D01*
X41300152Y-32865783D01*
X41300150Y-32865783D01*
X41204420Y-32864781D01*
X41137590Y-32844396D01*
X41092391Y-32791116D01*
X41083172Y-32721857D01*
X41112860Y-32658609D01*
X41149420Y-32630304D01*
X41537051Y-32432797D01*
X41541992Y-32430418D01*
X42333679Y-32070816D01*
X42338793Y-32068631D01*
X42509888Y-32000000D01*
X43145769Y-31744930D01*
X43150973Y-31742977D01*
X43971711Y-31455787D01*
X43976966Y-31454079D01*
X44809763Y-31204002D01*
X44815114Y-31202525D01*
X45658252Y-30990073D01*
X45663648Y-30988841D01*
X46515553Y-30814413D01*
X46520952Y-30813433D01*
X47379798Y-30677405D01*
X47385250Y-30676667D01*
X48249352Y-30579306D01*
X48254808Y-30578814D01*
X49122407Y-30520320D01*
X49127899Y-30520073D01*
X49997238Y-30500562D01*
X50002762Y-30500562D01*
X50872098Y-30520073D01*
G37*
%TD.AperFunction*%
%TA.AperFunction,Conductor*%
G36*
X39521442Y-33646182D02*
G01*
X39566656Y-33699450D01*
X39575893Y-33768706D01*
X39561373Y-33810679D01*
X39511725Y-33898790D01*
X39511725Y-33898791D01*
X39469380Y-34056820D01*
X39467667Y-34220396D01*
X39467668Y-34220400D01*
X39506694Y-34379283D01*
X39517312Y-34401546D01*
X39517313Y-34401547D01*
X40097590Y-34066523D01*
X40165490Y-34050050D01*
X40231517Y-34072902D01*
X40266977Y-34111910D01*
X40332728Y-34225793D01*
X40349201Y-34293693D01*
X40326349Y-34359720D01*
X40287342Y-34395180D01*
X40200579Y-34445273D01*
X40170806Y-34465733D01*
X40170799Y-34465739D01*
X40059668Y-34581625D01*
X40059664Y-34581631D01*
X40006047Y-34676786D01*
X39960017Y-34723301D01*
X39767314Y-34834558D01*
X39781289Y-34854894D01*
X39901208Y-34969892D01*
X39935803Y-35029812D01*
X39937608Y-35037160D01*
X39937608Y-35037163D01*
X39975908Y-35193092D01*
X39975911Y-35193100D01*
X39991462Y-35225704D01*
X39991469Y-35225717D01*
X40166214Y-35528381D01*
X40182827Y-35590381D01*
X40182827Y-38596657D01*
X40182826Y-38596675D01*
X40182826Y-38762381D01*
X40182825Y-38762381D01*
X40182826Y-38762384D01*
X40223750Y-38915112D01*
X40237831Y-38939500D01*
X40241292Y-38945494D01*
X40302806Y-39052042D01*
X40421676Y-39170912D01*
X40421682Y-39170917D01*
X42288584Y-41037819D01*
X42322069Y-41099142D01*
X42317085Y-41168834D01*
X42275213Y-41224767D01*
X42209749Y-41249184D01*
X42200903Y-41249500D01*
X35949314Y-41249500D01*
X35882275Y-41229815D01*
X35836520Y-41177011D01*
X35826576Y-41107853D01*
X35841927Y-41063500D01*
X35842148Y-41063115D01*
X35866417Y-41021082D01*
X35881975Y-40988467D01*
X35920275Y-40832537D01*
X35918593Y-40671981D01*
X35877036Y-40516887D01*
X35798214Y-40377001D01*
X35732932Y-40308926D01*
X35687083Y-40261115D01*
X35687082Y-40261114D01*
X35687080Y-40261112D01*
X35657301Y-40240645D01*
X35657291Y-40240639D01*
X35657282Y-40240633D01*
X35225709Y-39991466D01*
X35225703Y-39991463D01*
X35193097Y-39975910D01*
X35193098Y-39975910D01*
X35193093Y-39975908D01*
X35037163Y-39937608D01*
X35037161Y-39937608D01*
X35030717Y-39936025D01*
X34970796Y-39901429D01*
X34855212Y-39780898D01*
X34855211Y-39780897D01*
X34855210Y-39780896D01*
X34824842Y-39760025D01*
X34824841Y-39760024D01*
X34824824Y-39760013D01*
X34412722Y-39522087D01*
X34402711Y-39517312D01*
X34379459Y-39506221D01*
X34316752Y-39490819D01*
X34220461Y-39467167D01*
X34056751Y-39468881D01*
X33898605Y-39511256D01*
X33811238Y-39560485D01*
X33743169Y-39576245D01*
X33677385Y-39552702D01*
X33634772Y-39497332D01*
X33628859Y-39427713D01*
X33645370Y-39386485D01*
X33724776Y-39260111D01*
X33727815Y-39255508D01*
X34222994Y-38540759D01*
X34226260Y-38536265D01*
X34303674Y-38434592D01*
X34753001Y-37844461D01*
X34756431Y-37840159D01*
X35313726Y-37172628D01*
X35317339Y-37168493D01*
X35904011Y-36526648D01*
X35907814Y-36522671D01*
X36522671Y-35907814D01*
X36526648Y-35904011D01*
X37168493Y-35317339D01*
X37172628Y-35313726D01*
X37840159Y-34756431D01*
X37844461Y-34753001D01*
X38536272Y-34226254D01*
X38540767Y-34222989D01*
X38673476Y-34131048D01*
X39255508Y-33727815D01*
X39260111Y-33724776D01*
X39387372Y-33644813D01*
X39454607Y-33625814D01*
X39521442Y-33646182D01*
G37*
%TD.AperFunction*%
%TA.AperFunction,Conductor*%
G36*
X60613516Y-33645371D02*
G01*
X60727651Y-33717087D01*
X60739867Y-33724763D01*
X60744511Y-33727829D01*
X61459232Y-34222989D01*
X61463734Y-34226260D01*
X61930460Y-34581626D01*
X62054663Y-34676195D01*
X62155513Y-34752982D01*
X62159861Y-34756449D01*
X62682881Y-35193097D01*
X62827343Y-35313702D01*
X62831528Y-35317359D01*
X63432223Y-35866418D01*
X63473328Y-35903990D01*
X63477350Y-35907836D01*
X64092163Y-36522649D01*
X64096009Y-36526671D01*
X64574179Y-37049810D01*
X64682636Y-37168466D01*
X64686297Y-37172656D01*
X65243548Y-37840135D01*
X65247017Y-37844486D01*
X65773739Y-38536265D01*
X65777010Y-38540767D01*
X66272170Y-39255488D01*
X66275236Y-39260132D01*
X66355186Y-39387371D01*
X66374186Y-39454607D01*
X66353818Y-39521443D01*
X66300551Y-39566657D01*
X66231294Y-39575895D01*
X66189320Y-39561374D01*
X66101206Y-39511725D01*
X65943178Y-39469380D01*
X65779602Y-39467667D01*
X65779596Y-39467668D01*
X65620721Y-39506691D01*
X65598451Y-39517312D01*
X65598451Y-39517313D01*
X65933475Y-40097590D01*
X65949948Y-40165490D01*
X65927095Y-40231517D01*
X65888088Y-40266977D01*
X65774205Y-40332728D01*
X65706305Y-40349201D01*
X65640278Y-40326349D01*
X65604818Y-40287341D01*
X65554729Y-40200584D01*
X65534265Y-40170806D01*
X65534259Y-40170799D01*
X65418373Y-40059668D01*
X65418367Y-40059664D01*
X65323211Y-40006046D01*
X65276696Y-39960016D01*
X65165438Y-39767313D01*
X65145106Y-39781287D01*
X65030106Y-39901208D01*
X64970186Y-39935803D01*
X64962837Y-39937608D01*
X64962836Y-39937608D01*
X64806906Y-39975908D01*
X64806903Y-39975909D01*
X64806898Y-39975911D01*
X64774294Y-39991462D01*
X64774281Y-39991469D01*
X64471616Y-40166214D01*
X64409616Y-40182827D01*
X52800084Y-40182827D01*
X52733045Y-40163142D01*
X52687290Y-40110338D01*
X52677346Y-40041180D01*
X52706371Y-39977624D01*
X52712403Y-39971146D01*
X57500476Y-35183073D01*
X57561799Y-35149588D01*
X57588157Y-35146754D01*
X57699197Y-35146754D01*
X57761197Y-35163367D01*
X58016795Y-35310935D01*
X58095572Y-35356417D01*
X58128187Y-35371975D01*
X58284117Y-35410275D01*
X58284118Y-35410274D01*
X58284119Y-35410275D01*
X58288238Y-35410231D01*
X58350898Y-35409575D01*
X58418139Y-35428555D01*
X58460227Y-35472695D01*
X58491605Y-35528381D01*
X58493014Y-35530882D01*
X58604147Y-35646771D01*
X58633911Y-35667227D01*
X58633932Y-35667240D01*
X58736426Y-35726414D01*
X58978918Y-35866417D01*
X59011533Y-35881975D01*
X59167463Y-35920275D01*
X59167465Y-35920274D01*
X59167466Y-35920275D01*
X59172408Y-35920223D01*
X59328019Y-35918593D01*
X59483113Y-35877036D01*
X59622999Y-35798214D01*
X59738888Y-35687080D01*
X59759355Y-35657301D01*
X60008535Y-35225707D01*
X60024092Y-35193093D01*
X60062392Y-35037163D01*
X60062391Y-35037160D01*
X60063975Y-35030716D01*
X60098571Y-34970795D01*
X60100932Y-34968530D01*
X60100935Y-34968529D01*
X60219104Y-34855210D01*
X60239975Y-34824842D01*
X60239980Y-34824832D01*
X60239986Y-34824824D01*
X60415402Y-34520993D01*
X60477915Y-34412718D01*
X60493779Y-34379459D01*
X60532832Y-34220462D01*
X60531118Y-34056748D01*
X60488743Y-33898604D01*
X60488742Y-33898603D01*
X60488742Y-33898601D01*
X60439515Y-33811238D01*
X60423754Y-33743170D01*
X60447296Y-33677386D01*
X60502666Y-33634772D01*
X60572285Y-33628859D01*
X60613516Y-33645371D01*
G37*
%TD.AperFunction*%
%TD*%
M02*
