%TF.GenerationSoftware,KiCad,Pcbnew,8.0.8*%
%TF.CreationDate,2025-02-15T12:27:40-06:00*%
%TF.ProjectId,reverse,72657665-7273-4652-9e6b-696361645f70,rev?*%
%TF.SameCoordinates,Original*%
%TF.FileFunction,Legend,Top*%
%TF.FilePolarity,Positive*%
%FSLAX46Y46*%
G04 Gerber Fmt 4.6, Leading zero omitted, Abs format (unit mm)*
G04 Created by KiCad (PCBNEW 8.0.8) date 2025-02-15 12:27:40*
%MOMM*%
%LPD*%
G01*
G04 APERTURE LIST*
G04 Aperture macros list*
%AMRoundRect*
0 Rectangle with rounded corners*
0 $1 Rounding radius*
0 $2 $3 $4 $5 $6 $7 $8 $9 X,Y pos of 4 corners*
0 Add a 4 corners polygon primitive as box body*
4,1,4,$2,$3,$4,$5,$6,$7,$8,$9,$2,$3,0*
0 Add four circle primitives for the rounded corners*
1,1,$1+$1,$2,$3*
1,1,$1+$1,$4,$5*
1,1,$1+$1,$6,$7*
1,1,$1+$1,$8,$9*
0 Add four rect primitives between the rounded corners*
20,1,$1+$1,$2,$3,$4,$5,0*
20,1,$1+$1,$4,$5,$6,$7,0*
20,1,$1+$1,$6,$7,$8,$9,0*
20,1,$1+$1,$8,$9,$2,$3,0*%
%AMRotRect*
0 Rectangle, with rotation*
0 The origin of the aperture is its center*
0 $1 length*
0 $2 width*
0 $3 Rotation angle, in degrees counterclockwise*
0 Add horizontal line*
21,1,$1,$2,0,0,$3*%
G04 Aperture macros list end*
%ADD10C,0.100000*%
%ADD11C,0.150000*%
%ADD12C,1.000000*%
%ADD13C,0.120000*%
%ADD14C,2.000000*%
%ADD15RoundRect,0.135000X-0.226274X-0.035355X-0.035355X-0.226274X0.226274X0.035355X0.035355X0.226274X0*%
%ADD16RoundRect,0.135000X0.035355X-0.226274X0.226274X-0.035355X-0.035355X0.226274X-0.226274X0.035355X0*%
%ADD17RoundRect,0.147500X-0.226954X0.002111X-0.037331X-0.223872X0.226954X-0.002111X0.037331X0.223872X0*%
%ADD18R,1.000000X1.000000*%
%ADD19O,1.000000X1.000000*%
%ADD20RoundRect,0.135000X-0.135000X-0.185000X0.135000X-0.185000X0.135000X0.185000X-0.135000X0.185000X0*%
%ADD21RoundRect,0.147500X0.041489X0.223139X-0.213989X0.075639X-0.041489X-0.223139X0.213989X-0.075639X0*%
%ADD22RoundRect,0.147500X0.212545X-0.079606X0.111649X0.197603X-0.212545X0.079606X-0.111649X-0.197603X0*%
%ADD23RoundRect,0.147500X-0.037331X0.223872X-0.226954X-0.002111X0.037331X-0.223872X0.226954X0.002111X0*%
%ADD24RoundRect,0.147500X-0.213989X-0.075639X0.041489X-0.223139X0.213989X0.075639X-0.041489X0.223139X0*%
%ADD25RoundRect,0.050000X-0.300520X0.229810X0.229810X-0.300520X0.300520X-0.229810X-0.229810X0.300520X0*%
%ADD26RoundRect,0.050000X-0.300520X-0.229810X-0.229810X-0.300520X0.300520X0.229810X0.229810X0.300520X0*%
%ADD27RotRect,1.650000X1.650000X315.000000*%
%ADD28RoundRect,0.135000X0.135000X0.185000X-0.135000X0.185000X-0.135000X-0.185000X0.135000X-0.185000X0*%
%ADD29RoundRect,0.147500X-0.172500X0.147500X-0.172500X-0.147500X0.172500X-0.147500X0.172500X0.147500X0*%
%ADD30RoundRect,0.147500X0.115305X0.195492X-0.175213X0.144266X-0.115305X-0.195492X0.175213X-0.144266X0*%
%ADD31RoundRect,0.140000X0.170000X-0.140000X0.170000X0.140000X-0.170000X0.140000X-0.170000X-0.140000X0*%
%ADD32RoundRect,0.147500X0.037331X-0.223872X0.226954X0.002111X-0.037331X0.223872X-0.226954X-0.002111X0*%
%ADD33C,1.600000*%
%ADD34RoundRect,0.147500X-0.212545X0.079606X-0.111649X-0.197603X0.212545X-0.079606X0.111649X0.197603X0*%
%ADD35RoundRect,0.135000X0.226274X0.035355X0.035355X0.226274X-0.226274X-0.035355X-0.035355X-0.226274X0*%
%ADD36RoundRect,0.147500X-0.041489X-0.223139X0.213989X-0.075639X0.041489X0.223139X-0.213989X0.075639X0*%
%ADD37RoundRect,0.147500X0.213989X0.075639X-0.041489X0.223139X-0.213989X-0.075639X0.041489X-0.223139X0*%
%ADD38RoundRect,0.147500X0.172500X-0.147500X0.172500X0.147500X-0.172500X0.147500X-0.172500X-0.147500X0*%
%ADD39RoundRect,0.135000X-0.035355X0.226274X-0.226274X0.035355X0.035355X-0.226274X0.226274X-0.035355X0*%
%ADD40C,10.000000*%
%ADD41RoundRect,0.147500X-0.111649X0.197603X-0.212545X-0.079606X0.111649X-0.197603X0.212545X0.079606X0*%
%ADD42O,1.200000X4.200000*%
%ADD43C,4.000000*%
%ADD44RoundRect,0.147500X0.175213X0.144266X-0.115305X0.195492X-0.175213X-0.144266X0.115305X-0.195492X0*%
%ADD45RoundRect,0.147500X0.111649X-0.197603X0.212545X0.079606X-0.111649X0.197603X-0.212545X-0.079606X0*%
%ADD46RoundRect,0.147500X0.226954X-0.002111X0.037331X0.223872X-0.226954X0.002111X-0.037331X-0.223872X0*%
G04 APERTURE END LIST*
D10*
X55380951Y-99457419D02*
X55380951Y-100171704D01*
X55380951Y-100171704D02*
X55333332Y-100314561D01*
X55333332Y-100314561D02*
X55238094Y-100409800D01*
X55238094Y-100409800D02*
X55095237Y-100457419D01*
X55095237Y-100457419D02*
X54999999Y-100457419D01*
X56333332Y-100457419D02*
X55857142Y-100457419D01*
X55857142Y-100457419D02*
X55857142Y-99457419D01*
X57238094Y-100362180D02*
X57190475Y-100409800D01*
X57190475Y-100409800D02*
X57047618Y-100457419D01*
X57047618Y-100457419D02*
X56952380Y-100457419D01*
X56952380Y-100457419D02*
X56809523Y-100409800D01*
X56809523Y-100409800D02*
X56714285Y-100314561D01*
X56714285Y-100314561D02*
X56666666Y-100219323D01*
X56666666Y-100219323D02*
X56619047Y-100028847D01*
X56619047Y-100028847D02*
X56619047Y-99885990D01*
X56619047Y-99885990D02*
X56666666Y-99695514D01*
X56666666Y-99695514D02*
X56714285Y-99600276D01*
X56714285Y-99600276D02*
X56809523Y-99505038D01*
X56809523Y-99505038D02*
X56952380Y-99457419D01*
X56952380Y-99457419D02*
X57047618Y-99457419D01*
X57047618Y-99457419D02*
X57190475Y-99505038D01*
X57190475Y-99505038D02*
X57238094Y-99552657D01*
X57952380Y-99457419D02*
X57952380Y-100171704D01*
X57952380Y-100171704D02*
X57904761Y-100314561D01*
X57904761Y-100314561D02*
X57809523Y-100409800D01*
X57809523Y-100409800D02*
X57666666Y-100457419D01*
X57666666Y-100457419D02*
X57571428Y-100457419D01*
X58904761Y-100457419D02*
X58428571Y-100457419D01*
X58428571Y-100457419D02*
X58428571Y-99457419D01*
X59809523Y-100362180D02*
X59761904Y-100409800D01*
X59761904Y-100409800D02*
X59619047Y-100457419D01*
X59619047Y-100457419D02*
X59523809Y-100457419D01*
X59523809Y-100457419D02*
X59380952Y-100409800D01*
X59380952Y-100409800D02*
X59285714Y-100314561D01*
X59285714Y-100314561D02*
X59238095Y-100219323D01*
X59238095Y-100219323D02*
X59190476Y-100028847D01*
X59190476Y-100028847D02*
X59190476Y-99885990D01*
X59190476Y-99885990D02*
X59238095Y-99695514D01*
X59238095Y-99695514D02*
X59285714Y-99600276D01*
X59285714Y-99600276D02*
X59380952Y-99505038D01*
X59380952Y-99505038D02*
X59523809Y-99457419D01*
X59523809Y-99457419D02*
X59619047Y-99457419D01*
X59619047Y-99457419D02*
X59761904Y-99505038D01*
X59761904Y-99505038D02*
X59809523Y-99552657D01*
X60523809Y-99457419D02*
X60523809Y-100171704D01*
X60523809Y-100171704D02*
X60476190Y-100314561D01*
X60476190Y-100314561D02*
X60380952Y-100409800D01*
X60380952Y-100409800D02*
X60238095Y-100457419D01*
X60238095Y-100457419D02*
X60142857Y-100457419D01*
X61476190Y-100457419D02*
X61000000Y-100457419D01*
X61000000Y-100457419D02*
X61000000Y-99457419D01*
X62380952Y-100362180D02*
X62333333Y-100409800D01*
X62333333Y-100409800D02*
X62190476Y-100457419D01*
X62190476Y-100457419D02*
X62095238Y-100457419D01*
X62095238Y-100457419D02*
X61952381Y-100409800D01*
X61952381Y-100409800D02*
X61857143Y-100314561D01*
X61857143Y-100314561D02*
X61809524Y-100219323D01*
X61809524Y-100219323D02*
X61761905Y-100028847D01*
X61761905Y-100028847D02*
X61761905Y-99885990D01*
X61761905Y-99885990D02*
X61809524Y-99695514D01*
X61809524Y-99695514D02*
X61857143Y-99600276D01*
X61857143Y-99600276D02*
X61952381Y-99505038D01*
X61952381Y-99505038D02*
X62095238Y-99457419D01*
X62095238Y-99457419D02*
X62190476Y-99457419D01*
X62190476Y-99457419D02*
X62333333Y-99505038D01*
X62333333Y-99505038D02*
X62380952Y-99552657D01*
X63095238Y-99457419D02*
X63095238Y-100171704D01*
X63095238Y-100171704D02*
X63047619Y-100314561D01*
X63047619Y-100314561D02*
X62952381Y-100409800D01*
X62952381Y-100409800D02*
X62809524Y-100457419D01*
X62809524Y-100457419D02*
X62714286Y-100457419D01*
X64047619Y-100457419D02*
X63571429Y-100457419D01*
X63571429Y-100457419D02*
X63571429Y-99457419D01*
X64952381Y-100362180D02*
X64904762Y-100409800D01*
X64904762Y-100409800D02*
X64761905Y-100457419D01*
X64761905Y-100457419D02*
X64666667Y-100457419D01*
X64666667Y-100457419D02*
X64523810Y-100409800D01*
X64523810Y-100409800D02*
X64428572Y-100314561D01*
X64428572Y-100314561D02*
X64380953Y-100219323D01*
X64380953Y-100219323D02*
X64333334Y-100028847D01*
X64333334Y-100028847D02*
X64333334Y-99885990D01*
X64333334Y-99885990D02*
X64380953Y-99695514D01*
X64380953Y-99695514D02*
X64428572Y-99600276D01*
X64428572Y-99600276D02*
X64523810Y-99505038D01*
X64523810Y-99505038D02*
X64666667Y-99457419D01*
X64666667Y-99457419D02*
X64761905Y-99457419D01*
X64761905Y-99457419D02*
X64904762Y-99505038D01*
X64904762Y-99505038D02*
X64952381Y-99552657D01*
D11*
X61887858Y-114160554D02*
X61988873Y-113588135D01*
X61483797Y-113756493D02*
X62190904Y-113049387D01*
X62190904Y-113049387D02*
X62460278Y-113318761D01*
X62460278Y-113318761D02*
X62493950Y-113419776D01*
X62493950Y-113419776D02*
X62493950Y-113487119D01*
X62493950Y-113487119D02*
X62460278Y-113588135D01*
X62460278Y-113588135D02*
X62359263Y-113689150D01*
X62359263Y-113689150D02*
X62258247Y-113722822D01*
X62258247Y-113722822D02*
X62190904Y-113722822D01*
X62190904Y-113722822D02*
X62089889Y-113689150D01*
X62089889Y-113689150D02*
X61820515Y-113419776D01*
X62695980Y-114160554D02*
X62662308Y-114059539D01*
X62662308Y-114059539D02*
X62662308Y-113992196D01*
X62662308Y-113992196D02*
X62695980Y-113891180D01*
X62695980Y-113891180D02*
X62729652Y-113857509D01*
X62729652Y-113857509D02*
X62830667Y-113823837D01*
X62830667Y-113823837D02*
X62898011Y-113823837D01*
X62898011Y-113823837D02*
X62999026Y-113857509D01*
X62999026Y-113857509D02*
X63133713Y-113992196D01*
X63133713Y-113992196D02*
X63167385Y-114093211D01*
X63167385Y-114093211D02*
X63167385Y-114160554D01*
X63167385Y-114160554D02*
X63133713Y-114261570D01*
X63133713Y-114261570D02*
X63100041Y-114295241D01*
X63100041Y-114295241D02*
X62999026Y-114328913D01*
X62999026Y-114328913D02*
X62931682Y-114328913D01*
X62931682Y-114328913D02*
X62830667Y-114295241D01*
X62830667Y-114295241D02*
X62695980Y-114160554D01*
X62695980Y-114160554D02*
X62594965Y-114126883D01*
X62594965Y-114126883D02*
X62527621Y-114126883D01*
X62527621Y-114126883D02*
X62426606Y-114160554D01*
X62426606Y-114160554D02*
X62291919Y-114295241D01*
X62291919Y-114295241D02*
X62258247Y-114396257D01*
X62258247Y-114396257D02*
X62258247Y-114463600D01*
X62258247Y-114463600D02*
X62291919Y-114564615D01*
X62291919Y-114564615D02*
X62426606Y-114699302D01*
X62426606Y-114699302D02*
X62527621Y-114732974D01*
X62527621Y-114732974D02*
X62594965Y-114732974D01*
X62594965Y-114732974D02*
X62695980Y-114699302D01*
X62695980Y-114699302D02*
X62830667Y-114564615D01*
X62830667Y-114564615D02*
X62864339Y-114463600D01*
X62864339Y-114463600D02*
X62864339Y-114396257D01*
X62864339Y-114396257D02*
X62830667Y-114295241D01*
X60876439Y-84828025D02*
X60304020Y-84727010D01*
X60472378Y-85232086D02*
X59765272Y-84524979D01*
X59765272Y-84524979D02*
X60034646Y-84255605D01*
X60034646Y-84255605D02*
X60135661Y-84221933D01*
X60135661Y-84221933D02*
X60203004Y-84221933D01*
X60203004Y-84221933D02*
X60304020Y-84255605D01*
X60304020Y-84255605D02*
X60405035Y-84356620D01*
X60405035Y-84356620D02*
X60438707Y-84457636D01*
X60438707Y-84457636D02*
X60438707Y-84524979D01*
X60438707Y-84524979D02*
X60405035Y-84625994D01*
X60405035Y-84625994D02*
X60135661Y-84895368D01*
X60775424Y-83514827D02*
X60640737Y-83649514D01*
X60640737Y-83649514D02*
X60607065Y-83750529D01*
X60607065Y-83750529D02*
X60607065Y-83817872D01*
X60607065Y-83817872D02*
X60640737Y-83986231D01*
X60640737Y-83986231D02*
X60741752Y-84154590D01*
X60741752Y-84154590D02*
X61011126Y-84423964D01*
X61011126Y-84423964D02*
X61112142Y-84457636D01*
X61112142Y-84457636D02*
X61179485Y-84457636D01*
X61179485Y-84457636D02*
X61280500Y-84423964D01*
X61280500Y-84423964D02*
X61415187Y-84289277D01*
X61415187Y-84289277D02*
X61448859Y-84188262D01*
X61448859Y-84188262D02*
X61448859Y-84120918D01*
X61448859Y-84120918D02*
X61415187Y-84019903D01*
X61415187Y-84019903D02*
X61246829Y-83851544D01*
X61246829Y-83851544D02*
X61145813Y-83817872D01*
X61145813Y-83817872D02*
X61078470Y-83817872D01*
X61078470Y-83817872D02*
X60977455Y-83851544D01*
X60977455Y-83851544D02*
X60842768Y-83986231D01*
X60842768Y-83986231D02*
X60809096Y-84087246D01*
X60809096Y-84087246D02*
X60809096Y-84154590D01*
X60809096Y-84154590D02*
X60842768Y-84255605D01*
X30792083Y-115153841D02*
X31558127Y-114511054D01*
X31558127Y-114511054D02*
X31711172Y-114693445D01*
X31711172Y-114693445D02*
X31766520Y-114833489D01*
X31766520Y-114833489D02*
X31754782Y-114967663D01*
X31754782Y-114967663D02*
X31712434Y-115065360D01*
X31712434Y-115065360D02*
X31597130Y-115224274D01*
X31597130Y-115224274D02*
X31487695Y-115316100D01*
X31487695Y-115316100D02*
X31311173Y-115402058D01*
X31311173Y-115402058D02*
X31207607Y-115426797D01*
X31207607Y-115426797D02*
X31073433Y-115415059D01*
X31073433Y-115415059D02*
X30945127Y-115336233D01*
X30945127Y-115336233D02*
X30792083Y-115153841D01*
X32097349Y-115301838D02*
X32164436Y-115307707D01*
X32164436Y-115307707D02*
X32262133Y-115350055D01*
X32262133Y-115350055D02*
X32415177Y-115532446D01*
X32415177Y-115532446D02*
X32439917Y-115636012D01*
X32439917Y-115636012D02*
X32434048Y-115703099D01*
X32434048Y-115703099D02*
X32391700Y-115800795D01*
X32391700Y-115800795D02*
X32318743Y-115862013D01*
X32318743Y-115862013D02*
X32178699Y-115917361D01*
X32178699Y-115917361D02*
X31373652Y-115846929D01*
X31373652Y-115846929D02*
X31771569Y-116321147D01*
X67452356Y-99284819D02*
X67119023Y-98808628D01*
X66880928Y-99284819D02*
X66880928Y-98284819D01*
X66880928Y-98284819D02*
X67261880Y-98284819D01*
X67261880Y-98284819D02*
X67357118Y-98332438D01*
X67357118Y-98332438D02*
X67404737Y-98380057D01*
X67404737Y-98380057D02*
X67452356Y-98475295D01*
X67452356Y-98475295D02*
X67452356Y-98618152D01*
X67452356Y-98618152D02*
X67404737Y-98713390D01*
X67404737Y-98713390D02*
X67357118Y-98761009D01*
X67357118Y-98761009D02*
X67261880Y-98808628D01*
X67261880Y-98808628D02*
X66880928Y-98808628D01*
X67785690Y-98284819D02*
X68452356Y-98284819D01*
X68452356Y-98284819D02*
X68023785Y-99284819D01*
X37588199Y-79978322D02*
X37088199Y-79112296D01*
X37088199Y-79112296D02*
X37294396Y-78993249D01*
X37294396Y-78993249D02*
X37441923Y-78963059D01*
X37441923Y-78963059D02*
X37572021Y-78997919D01*
X37572021Y-78997919D02*
X37660879Y-79056588D01*
X37660879Y-79056588D02*
X37797357Y-79197736D01*
X37797357Y-79197736D02*
X37868785Y-79321454D01*
X37868785Y-79321454D02*
X37922784Y-79510220D01*
X37922784Y-79510220D02*
X37929164Y-79616509D01*
X37929164Y-79616509D02*
X37894304Y-79746606D01*
X37894304Y-79746606D02*
X37794396Y-79859274D01*
X37794396Y-79859274D02*
X37588199Y-79978322D01*
X37871746Y-78659915D02*
X38449096Y-78326582D01*
X38449096Y-78326582D02*
X38577943Y-79406893D01*
X71709922Y-90806017D02*
X72649615Y-90463997D01*
X72649615Y-90463997D02*
X72731048Y-90687734D01*
X72731048Y-90687734D02*
X72735161Y-90838262D01*
X72735161Y-90838262D02*
X72678240Y-90960330D01*
X72678240Y-90960330D02*
X72605032Y-91037651D01*
X72605032Y-91037651D02*
X72442330Y-91147545D01*
X72442330Y-91147545D02*
X72308088Y-91196405D01*
X72308088Y-91196405D02*
X72112812Y-91216804D01*
X72112812Y-91216804D02*
X72007031Y-91204630D01*
X72007031Y-91204630D02*
X71884963Y-91147709D01*
X71884963Y-91147709D02*
X71791356Y-91029754D01*
X71791356Y-91029754D02*
X71709922Y-90806017D01*
X72231096Y-92237930D02*
X72035656Y-91700963D01*
X72133376Y-91969446D02*
X73073068Y-91627426D01*
X73073068Y-91627426D02*
X72906253Y-91586792D01*
X72906253Y-91586792D02*
X72784185Y-91529871D01*
X72784185Y-91529871D02*
X72706865Y-91456663D01*
X73211587Y-92286461D02*
X73272621Y-92314922D01*
X73272621Y-92314922D02*
X73349942Y-92388130D01*
X73349942Y-92388130D02*
X73431375Y-92611866D01*
X73431375Y-92611866D02*
X73419201Y-92717647D01*
X73419201Y-92717647D02*
X73390741Y-92778681D01*
X73390741Y-92778681D02*
X73317533Y-92856002D01*
X73317533Y-92856002D02*
X73228038Y-92888575D01*
X73228038Y-92888575D02*
X73077510Y-92892688D01*
X73077510Y-92892688D02*
X72345102Y-92551161D01*
X72345102Y-92551161D02*
X72556829Y-93132875D01*
X31488906Y-85430861D02*
X30722861Y-84788073D01*
X30722861Y-84788073D02*
X30875906Y-84605682D01*
X30875906Y-84605682D02*
X31004211Y-84526856D01*
X31004211Y-84526856D02*
X31138386Y-84515117D01*
X31138386Y-84515117D02*
X31241951Y-84539857D01*
X31241951Y-84539857D02*
X31418473Y-84625814D01*
X31418473Y-84625814D02*
X31527908Y-84717641D01*
X31527908Y-84717641D02*
X31643213Y-84876555D01*
X31643213Y-84876555D02*
X31685560Y-84974251D01*
X31685560Y-84974251D02*
X31697299Y-85108426D01*
X31697299Y-85108426D02*
X31641951Y-85248469D01*
X31641951Y-85248469D02*
X31488906Y-85430861D01*
X31641130Y-83693724D02*
X31518694Y-83839637D01*
X31518694Y-83839637D02*
X31493954Y-83943203D01*
X31493954Y-83943203D02*
X31499824Y-84010290D01*
X31499824Y-84010290D02*
X31548041Y-84175074D01*
X31548041Y-84175074D02*
X31663345Y-84333988D01*
X31663345Y-84333988D02*
X31955171Y-84578859D01*
X31955171Y-84578859D02*
X32058737Y-84603599D01*
X32058737Y-84603599D02*
X32125824Y-84597729D01*
X32125824Y-84597729D02*
X32223520Y-84555382D01*
X32223520Y-84555382D02*
X32345956Y-84409468D01*
X32345956Y-84409468D02*
X32370696Y-84305903D01*
X32370696Y-84305903D02*
X32364826Y-84238816D01*
X32364826Y-84238816D02*
X32322479Y-84141119D01*
X32322479Y-84141119D02*
X32140087Y-83988075D01*
X32140087Y-83988075D02*
X32036522Y-83963335D01*
X32036522Y-83963335D02*
X31969434Y-83969205D01*
X31969434Y-83969205D02*
X31871738Y-84011552D01*
X31871738Y-84011552D02*
X31749302Y-84157465D01*
X31749302Y-84157465D02*
X31724563Y-84261031D01*
X31724563Y-84261031D02*
X31730432Y-84328118D01*
X31730432Y-84328118D02*
X31772780Y-84425814D01*
X37133381Y-120809446D02*
X37633381Y-119943421D01*
X37633381Y-119943421D02*
X37839578Y-120062468D01*
X37839578Y-120062468D02*
X37939486Y-120175136D01*
X37939486Y-120175136D02*
X37974346Y-120305234D01*
X37974346Y-120305234D02*
X37967966Y-120411522D01*
X37967966Y-120411522D02*
X37913967Y-120600289D01*
X37913967Y-120600289D02*
X37842539Y-120724007D01*
X37842539Y-120724007D02*
X37706061Y-120865154D01*
X37706061Y-120865154D02*
X37617203Y-120923823D01*
X37617203Y-120923823D02*
X37487105Y-120958683D01*
X37487105Y-120958683D02*
X37339578Y-120928494D01*
X37339578Y-120928494D02*
X37133381Y-120809446D01*
X38453039Y-121571351D02*
X37958167Y-121285636D01*
X38205603Y-121428494D02*
X38705603Y-120562468D01*
X38705603Y-120562468D02*
X38551696Y-120638567D01*
X38551696Y-120638567D02*
X38421598Y-120673427D01*
X38421598Y-120673427D02*
X38315310Y-120667047D01*
X51847865Y-95074638D02*
X51275445Y-95647058D01*
X51275445Y-95647058D02*
X51241773Y-95748073D01*
X51241773Y-95748073D02*
X51241773Y-95815417D01*
X51241773Y-95815417D02*
X51275445Y-95916432D01*
X51275445Y-95916432D02*
X51410132Y-96051119D01*
X51410132Y-96051119D02*
X51511147Y-96084791D01*
X51511147Y-96084791D02*
X51578491Y-96084791D01*
X51578491Y-96084791D02*
X51679506Y-96051119D01*
X51679506Y-96051119D02*
X52251926Y-95478699D01*
X52251926Y-96892913D02*
X51847865Y-96488852D01*
X52049895Y-96690882D02*
X52757002Y-95983776D01*
X52757002Y-95983776D02*
X52588643Y-96017447D01*
X52588643Y-96017447D02*
X52453956Y-96017447D01*
X52453956Y-96017447D02*
X52352941Y-95983776D01*
X32214310Y-101624819D02*
X31880977Y-101148628D01*
X31642882Y-101624819D02*
X31642882Y-100624819D01*
X31642882Y-100624819D02*
X32023834Y-100624819D01*
X32023834Y-100624819D02*
X32119072Y-100672438D01*
X32119072Y-100672438D02*
X32166691Y-100720057D01*
X32166691Y-100720057D02*
X32214310Y-100815295D01*
X32214310Y-100815295D02*
X32214310Y-100958152D01*
X32214310Y-100958152D02*
X32166691Y-101053390D01*
X32166691Y-101053390D02*
X32119072Y-101101009D01*
X32119072Y-101101009D02*
X32023834Y-101148628D01*
X32023834Y-101148628D02*
X31642882Y-101148628D01*
X32595263Y-100720057D02*
X32642882Y-100672438D01*
X32642882Y-100672438D02*
X32738120Y-100624819D01*
X32738120Y-100624819D02*
X32976215Y-100624819D01*
X32976215Y-100624819D02*
X33071453Y-100672438D01*
X33071453Y-100672438D02*
X33119072Y-100720057D01*
X33119072Y-100720057D02*
X33166691Y-100815295D01*
X33166691Y-100815295D02*
X33166691Y-100910533D01*
X33166691Y-100910533D02*
X33119072Y-101053390D01*
X33119072Y-101053390D02*
X32547644Y-101624819D01*
X32547644Y-101624819D02*
X33166691Y-101624819D01*
X26454819Y-100738094D02*
X25454819Y-100738094D01*
X25454819Y-100738094D02*
X25454819Y-100499999D01*
X25454819Y-100499999D02*
X25502438Y-100357142D01*
X25502438Y-100357142D02*
X25597676Y-100261904D01*
X25597676Y-100261904D02*
X25692914Y-100214285D01*
X25692914Y-100214285D02*
X25883390Y-100166666D01*
X25883390Y-100166666D02*
X26026247Y-100166666D01*
X26026247Y-100166666D02*
X26216723Y-100214285D01*
X26216723Y-100214285D02*
X26311961Y-100261904D01*
X26311961Y-100261904D02*
X26407200Y-100357142D01*
X26407200Y-100357142D02*
X26454819Y-100499999D01*
X26454819Y-100499999D02*
X26454819Y-100738094D01*
X25788152Y-99309523D02*
X26454819Y-99309523D01*
X25407200Y-99547618D02*
X26121485Y-99785713D01*
X26121485Y-99785713D02*
X26121485Y-99166666D01*
X45184540Y-76940691D02*
X45010891Y-75955883D01*
X45010891Y-75955883D02*
X45245369Y-75914538D01*
X45245369Y-75914538D02*
X45394325Y-75936627D01*
X45394325Y-75936627D02*
X45504654Y-76013880D01*
X45504654Y-76013880D02*
X45568088Y-76099402D01*
X45568088Y-76099402D02*
X45648059Y-76278716D01*
X45648059Y-76278716D02*
X45672866Y-76419403D01*
X45672866Y-76419403D02*
X45659046Y-76615254D01*
X45659046Y-76615254D02*
X45628689Y-76717314D01*
X45628689Y-76717314D02*
X45551435Y-76827643D01*
X45551435Y-76827643D02*
X45419018Y-76899346D01*
X45419018Y-76899346D02*
X45184540Y-76940691D01*
X46210807Y-76179488D02*
X46108746Y-76149131D01*
X46108746Y-76149131D02*
X46053582Y-76110504D01*
X46053582Y-76110504D02*
X45990148Y-76024982D01*
X45990148Y-76024982D02*
X45981879Y-75978086D01*
X45981879Y-75978086D02*
X46012237Y-75876026D01*
X46012237Y-75876026D02*
X46050864Y-75820861D01*
X46050864Y-75820861D02*
X46136386Y-75757428D01*
X46136386Y-75757428D02*
X46323968Y-75724352D01*
X46323968Y-75724352D02*
X46426029Y-75754710D01*
X46426029Y-75754710D02*
X46481193Y-75793336D01*
X46481193Y-75793336D02*
X46544627Y-75878859D01*
X46544627Y-75878859D02*
X46552896Y-75925754D01*
X46552896Y-75925754D02*
X46522538Y-76027814D01*
X46522538Y-76027814D02*
X46483911Y-76082979D01*
X46483911Y-76082979D02*
X46398389Y-76146412D01*
X46398389Y-76146412D02*
X46210807Y-76179488D01*
X46210807Y-76179488D02*
X46125284Y-76242922D01*
X46125284Y-76242922D02*
X46086658Y-76298086D01*
X46086658Y-76298086D02*
X46056300Y-76400147D01*
X46056300Y-76400147D02*
X46089376Y-76587729D01*
X46089376Y-76587729D02*
X46152809Y-76673251D01*
X46152809Y-76673251D02*
X46207974Y-76711878D01*
X46207974Y-76711878D02*
X46310034Y-76742236D01*
X46310034Y-76742236D02*
X46497617Y-76709160D01*
X46497617Y-76709160D02*
X46583139Y-76645726D01*
X46583139Y-76645726D02*
X46621765Y-76590562D01*
X46621765Y-76590562D02*
X46652123Y-76488501D01*
X46652123Y-76488501D02*
X46619047Y-76300919D01*
X46619047Y-76300919D02*
X46555614Y-76215397D01*
X46555614Y-76215397D02*
X46500449Y-76176770D01*
X46500449Y-76176770D02*
X46398389Y-76146412D01*
X46983333Y-96659580D02*
X46935714Y-96707200D01*
X46935714Y-96707200D02*
X46792857Y-96754819D01*
X46792857Y-96754819D02*
X46697619Y-96754819D01*
X46697619Y-96754819D02*
X46554762Y-96707200D01*
X46554762Y-96707200D02*
X46459524Y-96611961D01*
X46459524Y-96611961D02*
X46411905Y-96516723D01*
X46411905Y-96516723D02*
X46364286Y-96326247D01*
X46364286Y-96326247D02*
X46364286Y-96183390D01*
X46364286Y-96183390D02*
X46411905Y-95992914D01*
X46411905Y-95992914D02*
X46459524Y-95897676D01*
X46459524Y-95897676D02*
X46554762Y-95802438D01*
X46554762Y-95802438D02*
X46697619Y-95754819D01*
X46697619Y-95754819D02*
X46792857Y-95754819D01*
X46792857Y-95754819D02*
X46935714Y-95802438D01*
X46935714Y-95802438D02*
X46983333Y-95850057D01*
X47935714Y-96754819D02*
X47364286Y-96754819D01*
X47650000Y-96754819D02*
X47650000Y-95754819D01*
X47650000Y-95754819D02*
X47554762Y-95897676D01*
X47554762Y-95897676D02*
X47459524Y-95992914D01*
X47459524Y-95992914D02*
X47364286Y-96040533D01*
X67952949Y-116649451D02*
X67186905Y-116006664D01*
X67186905Y-116006664D02*
X67339949Y-115824272D01*
X67339949Y-115824272D02*
X67468255Y-115745446D01*
X67468255Y-115745446D02*
X67602429Y-115733708D01*
X67602429Y-115733708D02*
X67705995Y-115758447D01*
X67705995Y-115758447D02*
X67882517Y-115844405D01*
X67882517Y-115844405D02*
X67991952Y-115936231D01*
X67991952Y-115936231D02*
X68107256Y-116095145D01*
X68107256Y-116095145D02*
X68149604Y-116192842D01*
X68149604Y-116192842D02*
X68161342Y-116327016D01*
X68161342Y-116327016D02*
X68105994Y-116467060D01*
X68105994Y-116467060D02*
X67952949Y-116649451D01*
X68932435Y-115482146D02*
X68565128Y-115919885D01*
X68748782Y-115701015D02*
X67982737Y-115058228D01*
X67982737Y-115058228D02*
X68030954Y-115223011D01*
X68030954Y-115223011D02*
X68042693Y-115357186D01*
X68042693Y-115357186D02*
X68017953Y-115460751D01*
X68747960Y-114146270D02*
X68441871Y-114511053D01*
X68441871Y-114511053D02*
X68776045Y-114853621D01*
X68776045Y-114853621D02*
X68770176Y-114786534D01*
X68770176Y-114786534D02*
X68794915Y-114682968D01*
X68794915Y-114682968D02*
X68947960Y-114500577D01*
X68947960Y-114500577D02*
X69045656Y-114458229D01*
X69045656Y-114458229D02*
X69112744Y-114452359D01*
X69112744Y-114452359D02*
X69216309Y-114477099D01*
X69216309Y-114477099D02*
X69398701Y-114630144D01*
X69398701Y-114630144D02*
X69441048Y-114727840D01*
X69441048Y-114727840D02*
X69446918Y-114794927D01*
X69446918Y-114794927D02*
X69422178Y-114898493D01*
X69422178Y-114898493D02*
X69269133Y-115080884D01*
X69269133Y-115080884D02*
X69171437Y-115123232D01*
X69171437Y-115123232D02*
X69104350Y-115129101D01*
X26767542Y-107670458D02*
X27707235Y-107328437D01*
X27707235Y-107328437D02*
X27788668Y-107552174D01*
X27788668Y-107552174D02*
X27792781Y-107702702D01*
X27792781Y-107702702D02*
X27735860Y-107824770D01*
X27735860Y-107824770D02*
X27662652Y-107902091D01*
X27662652Y-107902091D02*
X27499949Y-108011985D01*
X27499949Y-108011985D02*
X27365708Y-108060845D01*
X27365708Y-108060845D02*
X27170432Y-108081244D01*
X27170432Y-108081244D02*
X27064651Y-108069070D01*
X27064651Y-108069070D02*
X26942583Y-108012149D01*
X26942583Y-108012149D02*
X26848975Y-107894194D01*
X26848975Y-107894194D02*
X26767542Y-107670458D01*
X28016682Y-108178636D02*
X28228408Y-108760350D01*
X28228408Y-108760350D02*
X27756423Y-108577413D01*
X27756423Y-108577413D02*
X27805283Y-108711654D01*
X27805283Y-108711654D02*
X27793110Y-108817436D01*
X27793110Y-108817436D02*
X27764649Y-108878469D01*
X27764649Y-108878469D02*
X27691441Y-108955790D01*
X27691441Y-108955790D02*
X27467705Y-109037223D01*
X27467705Y-109037223D02*
X27361924Y-109025050D01*
X27361924Y-109025050D02*
X27300890Y-108996589D01*
X27300890Y-108996589D02*
X27223569Y-108923381D01*
X27223569Y-108923381D02*
X27125849Y-108654897D01*
X27125849Y-108654897D02*
X27138023Y-108549116D01*
X27138023Y-108549116D02*
X27166483Y-108488082D01*
X44859528Y-86126745D02*
X44960543Y-85554326D01*
X44455467Y-85722684D02*
X45162574Y-85015578D01*
X45162574Y-85015578D02*
X45431948Y-85284952D01*
X45431948Y-85284952D02*
X45465620Y-85385967D01*
X45465620Y-85385967D02*
X45465620Y-85453310D01*
X45465620Y-85453310D02*
X45431948Y-85554326D01*
X45431948Y-85554326D02*
X45330933Y-85655341D01*
X45330933Y-85655341D02*
X45229917Y-85689013D01*
X45229917Y-85689013D02*
X45162574Y-85689013D01*
X45162574Y-85689013D02*
X45061559Y-85655341D01*
X45061559Y-85655341D02*
X44792185Y-85385967D01*
X45937024Y-86261432D02*
X45465620Y-86732837D01*
X46038039Y-85823700D02*
X45364604Y-86160417D01*
X45364604Y-86160417D02*
X45802337Y-86598150D01*
X61175807Y-121785636D02*
X60675807Y-120919611D01*
X60675807Y-120919611D02*
X60882003Y-120800563D01*
X60882003Y-120800563D02*
X61029531Y-120770374D01*
X61029531Y-120770374D02*
X61159628Y-120805234D01*
X61159628Y-120805234D02*
X61248487Y-120863903D01*
X61248487Y-120863903D02*
X61384964Y-121005050D01*
X61384964Y-121005050D02*
X61456393Y-121128768D01*
X61456393Y-121128768D02*
X61510391Y-121317535D01*
X61510391Y-121317535D02*
X61516771Y-121423823D01*
X61516771Y-121423823D02*
X61481912Y-121553921D01*
X61481912Y-121553921D02*
X61382003Y-121666589D01*
X61382003Y-121666589D02*
X61175807Y-121785636D01*
X62495464Y-121023731D02*
X62000593Y-121309446D01*
X62248029Y-121166589D02*
X61748029Y-120300563D01*
X61748029Y-120300563D02*
X61736979Y-120471900D01*
X61736979Y-120471900D02*
X61702119Y-120601998D01*
X61702119Y-120601998D02*
X61643450Y-120690856D01*
X62737772Y-119729135D02*
X62572815Y-119824373D01*
X62572815Y-119824373D02*
X62514146Y-119913231D01*
X62514146Y-119913231D02*
X62496716Y-119978280D01*
X62496716Y-119978280D02*
X62485666Y-120149617D01*
X62485666Y-120149617D02*
X62539665Y-120338384D01*
X62539665Y-120338384D02*
X62730141Y-120668298D01*
X62730141Y-120668298D02*
X62818999Y-120726967D01*
X62818999Y-120726967D02*
X62884048Y-120744397D01*
X62884048Y-120744397D02*
X62990336Y-120738017D01*
X62990336Y-120738017D02*
X63155293Y-120642779D01*
X63155293Y-120642779D02*
X63213962Y-120553921D01*
X63213962Y-120553921D02*
X63231392Y-120488872D01*
X63231392Y-120488872D02*
X63225013Y-120382584D01*
X63225013Y-120382584D02*
X63105965Y-120176387D01*
X63105965Y-120176387D02*
X63017107Y-120117718D01*
X63017107Y-120117718D02*
X62952058Y-120100288D01*
X62952058Y-120100288D02*
X62845770Y-120106668D01*
X62845770Y-120106668D02*
X62680812Y-120201906D01*
X62680812Y-120201906D02*
X62622143Y-120290765D01*
X62622143Y-120290765D02*
X62604713Y-120355813D01*
X62604713Y-120355813D02*
X62611093Y-120462102D01*
X60720988Y-79002131D02*
X61220988Y-78136106D01*
X61220988Y-78136106D02*
X61427184Y-78255154D01*
X61427184Y-78255154D02*
X61527093Y-78367822D01*
X61527093Y-78367822D02*
X61561952Y-78497919D01*
X61561952Y-78497919D02*
X61555572Y-78604207D01*
X61555572Y-78604207D02*
X61501574Y-78792974D01*
X61501574Y-78792974D02*
X61430145Y-78916692D01*
X61430145Y-78916692D02*
X61293668Y-79057840D01*
X61293668Y-79057840D02*
X61204809Y-79116509D01*
X61204809Y-79116509D02*
X61074712Y-79151368D01*
X61074712Y-79151368D02*
X60927184Y-79121179D01*
X60927184Y-79121179D02*
X60720988Y-79002131D01*
X62040645Y-79764036D02*
X61545774Y-79478322D01*
X61793210Y-79621179D02*
X62293210Y-78755154D01*
X62293210Y-78755154D02*
X62139302Y-78831253D01*
X62139302Y-78831253D02*
X62009205Y-78866112D01*
X62009205Y-78866112D02*
X61902917Y-78859732D01*
X63076756Y-79207535D02*
X63159235Y-79255154D01*
X63159235Y-79255154D02*
X63217904Y-79344012D01*
X63217904Y-79344012D02*
X63235334Y-79409061D01*
X63235334Y-79409061D02*
X63228954Y-79515349D01*
X63228954Y-79515349D02*
X63174955Y-79704116D01*
X63174955Y-79704116D02*
X63055908Y-79910312D01*
X63055908Y-79910312D02*
X62919430Y-80051460D01*
X62919430Y-80051460D02*
X62830572Y-80110129D01*
X62830572Y-80110129D02*
X62765523Y-80127559D01*
X62765523Y-80127559D02*
X62659235Y-80121179D01*
X62659235Y-80121179D02*
X62576756Y-80073560D01*
X62576756Y-80073560D02*
X62518087Y-79984702D01*
X62518087Y-79984702D02*
X62500658Y-79919653D01*
X62500658Y-79919653D02*
X62507037Y-79813365D01*
X62507037Y-79813365D02*
X62561036Y-79624598D01*
X62561036Y-79624598D02*
X62680084Y-79418401D01*
X62680084Y-79418401D02*
X62816561Y-79277254D01*
X62816561Y-79277254D02*
X62905419Y-79218585D01*
X62905419Y-79218585D02*
X62970468Y-79201155D01*
X62970468Y-79201155D02*
X63076756Y-79207535D01*
X74454819Y-101214285D02*
X73454819Y-101214285D01*
X73454819Y-101214285D02*
X73454819Y-100976190D01*
X73454819Y-100976190D02*
X73502438Y-100833333D01*
X73502438Y-100833333D02*
X73597676Y-100738095D01*
X73597676Y-100738095D02*
X73692914Y-100690476D01*
X73692914Y-100690476D02*
X73883390Y-100642857D01*
X73883390Y-100642857D02*
X74026247Y-100642857D01*
X74026247Y-100642857D02*
X74216723Y-100690476D01*
X74216723Y-100690476D02*
X74311961Y-100738095D01*
X74311961Y-100738095D02*
X74407200Y-100833333D01*
X74407200Y-100833333D02*
X74454819Y-100976190D01*
X74454819Y-100976190D02*
X74454819Y-101214285D01*
X74454819Y-99690476D02*
X74454819Y-100261904D01*
X74454819Y-99976190D02*
X73454819Y-99976190D01*
X73454819Y-99976190D02*
X73597676Y-100071428D01*
X73597676Y-100071428D02*
X73692914Y-100166666D01*
X73692914Y-100166666D02*
X73740533Y-100261904D01*
X73454819Y-99357142D02*
X73454819Y-98738095D01*
X73454819Y-98738095D02*
X73835771Y-99071428D01*
X73835771Y-99071428D02*
X73835771Y-98928571D01*
X73835771Y-98928571D02*
X73883390Y-98833333D01*
X73883390Y-98833333D02*
X73931009Y-98785714D01*
X73931009Y-98785714D02*
X74026247Y-98738095D01*
X74026247Y-98738095D02*
X74264342Y-98738095D01*
X74264342Y-98738095D02*
X74359580Y-98785714D01*
X74359580Y-98785714D02*
X74407200Y-98833333D01*
X74407200Y-98833333D02*
X74454819Y-98928571D01*
X74454819Y-98928571D02*
X74454819Y-99214285D01*
X74454819Y-99214285D02*
X74407200Y-99309523D01*
X74407200Y-99309523D02*
X74359580Y-99357142D01*
X39531069Y-116050886D02*
X38958650Y-115949871D01*
X39127008Y-116454947D02*
X38419902Y-115747840D01*
X38419902Y-115747840D02*
X38689276Y-115478466D01*
X38689276Y-115478466D02*
X38790291Y-115444794D01*
X38790291Y-115444794D02*
X38857634Y-115444794D01*
X38857634Y-115444794D02*
X38958650Y-115478466D01*
X38958650Y-115478466D02*
X39059665Y-115579481D01*
X39059665Y-115579481D02*
X39093337Y-115680497D01*
X39093337Y-115680497D02*
X39093337Y-115747840D01*
X39093337Y-115747840D02*
X39059665Y-115848855D01*
X39059665Y-115848855D02*
X38790291Y-116118229D01*
X40204504Y-115377451D02*
X39800443Y-115781512D01*
X40002474Y-115579481D02*
X39295367Y-114872375D01*
X39295367Y-114872375D02*
X39329039Y-115040733D01*
X39329039Y-115040733D02*
X39329039Y-115175420D01*
X39329039Y-115175420D02*
X39295367Y-115276436D01*
D12*
X46190476Y-123964666D02*
X53809524Y-123964666D01*
D11*
X27622322Y-92640655D02*
X26682630Y-92298635D01*
X26682630Y-92298635D02*
X26764063Y-92074898D01*
X26764063Y-92074898D02*
X26857670Y-91956943D01*
X26857670Y-91956943D02*
X26979738Y-91900022D01*
X26979738Y-91900022D02*
X27085519Y-91887848D01*
X27085519Y-91887848D02*
X27280795Y-91908248D01*
X27280795Y-91908248D02*
X27415037Y-91957108D01*
X27415037Y-91957108D02*
X27577739Y-92067002D01*
X27577739Y-92067002D02*
X27650947Y-92144322D01*
X27650947Y-92144322D02*
X27707868Y-92266390D01*
X27707868Y-92266390D02*
X27703756Y-92416919D01*
X27703756Y-92416919D02*
X27622322Y-92640655D01*
X27187517Y-90911470D02*
X27024650Y-91358942D01*
X27024650Y-91358942D02*
X27455836Y-91566556D01*
X27455836Y-91566556D02*
X27427375Y-91505522D01*
X27427375Y-91505522D02*
X27415201Y-91399741D01*
X27415201Y-91399741D02*
X27496635Y-91176005D01*
X27496635Y-91176005D02*
X27573955Y-91102797D01*
X27573955Y-91102797D02*
X27634989Y-91074336D01*
X27634989Y-91074336D02*
X27740770Y-91062162D01*
X27740770Y-91062162D02*
X27964507Y-91143596D01*
X27964507Y-91143596D02*
X28037715Y-91220916D01*
X28037715Y-91220916D02*
X28066175Y-91281950D01*
X28066175Y-91281950D02*
X28078349Y-91387731D01*
X28078349Y-91387731D02*
X27996916Y-91611468D01*
X27996916Y-91611468D02*
X27919595Y-91684676D01*
X27919595Y-91684676D02*
X27858561Y-91713136D01*
X54904769Y-86362447D02*
X54332350Y-86261432D01*
X54500708Y-86766508D02*
X53793602Y-86059401D01*
X53793602Y-86059401D02*
X54062976Y-85790027D01*
X54062976Y-85790027D02*
X54163991Y-85756355D01*
X54163991Y-85756355D02*
X54231334Y-85756355D01*
X54231334Y-85756355D02*
X54332350Y-85790027D01*
X54332350Y-85790027D02*
X54433365Y-85891042D01*
X54433365Y-85891042D02*
X54467037Y-85992058D01*
X54467037Y-85992058D02*
X54467037Y-86059401D01*
X54467037Y-86059401D02*
X54433365Y-86160416D01*
X54433365Y-86160416D02*
X54163991Y-86429790D01*
X54837426Y-85015577D02*
X54500708Y-85352294D01*
X54500708Y-85352294D02*
X54803754Y-85722684D01*
X54803754Y-85722684D02*
X54803754Y-85655340D01*
X54803754Y-85655340D02*
X54837426Y-85554325D01*
X54837426Y-85554325D02*
X55005785Y-85385966D01*
X55005785Y-85385966D02*
X55106800Y-85352294D01*
X55106800Y-85352294D02*
X55174143Y-85352294D01*
X55174143Y-85352294D02*
X55275159Y-85385966D01*
X55275159Y-85385966D02*
X55443517Y-85554325D01*
X55443517Y-85554325D02*
X55477189Y-85655340D01*
X55477189Y-85655340D02*
X55477189Y-85722684D01*
X55477189Y-85722684D02*
X55443517Y-85823699D01*
X55443517Y-85823699D02*
X55275159Y-85992058D01*
X55275159Y-85992058D02*
X55174143Y-86025729D01*
X55174143Y-86025729D02*
X55106800Y-86025729D01*
X53361696Y-76684353D02*
X53535344Y-75699545D01*
X53535344Y-75699545D02*
X53769822Y-75740890D01*
X53769822Y-75740890D02*
X53902240Y-75812593D01*
X53902240Y-75812593D02*
X53979493Y-75922922D01*
X53979493Y-75922922D02*
X54009851Y-76024982D01*
X54009851Y-76024982D02*
X54023670Y-76220833D01*
X54023670Y-76220833D02*
X53998863Y-76361520D01*
X53998863Y-76361520D02*
X53918892Y-76540834D01*
X53918892Y-76540834D02*
X53855459Y-76626356D01*
X53855459Y-76626356D02*
X53745129Y-76703609D01*
X53745129Y-76703609D02*
X53596174Y-76725698D01*
X53596174Y-76725698D02*
X53361696Y-76684353D01*
X54393399Y-76866270D02*
X54580981Y-76899346D01*
X54580981Y-76899346D02*
X54683042Y-76868988D01*
X54683042Y-76868988D02*
X54738206Y-76830362D01*
X54738206Y-76830362D02*
X54856804Y-76706213D01*
X54856804Y-76706213D02*
X54936776Y-76526899D01*
X54936776Y-76526899D02*
X55002927Y-76151734D01*
X55002927Y-76151734D02*
X54972570Y-76049674D01*
X54972570Y-76049674D02*
X54933943Y-75994510D01*
X54933943Y-75994510D02*
X54848421Y-75931076D01*
X54848421Y-75931076D02*
X54660838Y-75898000D01*
X54660838Y-75898000D02*
X54558778Y-75928358D01*
X54558778Y-75928358D02*
X54503614Y-75966985D01*
X54503614Y-75966985D02*
X54440180Y-76052507D01*
X54440180Y-76052507D02*
X54398835Y-76286985D01*
X54398835Y-76286985D02*
X54429193Y-76389045D01*
X54429193Y-76389045D02*
X54467820Y-76444210D01*
X54467820Y-76444210D02*
X54553342Y-76507643D01*
X54553342Y-76507643D02*
X54740924Y-76540719D01*
X54740924Y-76540719D02*
X54842984Y-76510361D01*
X54842984Y-76510361D02*
X54898149Y-76471735D01*
X54898149Y-76471735D02*
X54961583Y-76386212D01*
X72564702Y-109505095D02*
X71625010Y-109163075D01*
X71625010Y-109163075D02*
X71706443Y-108939339D01*
X71706443Y-108939339D02*
X71800050Y-108821384D01*
X71800050Y-108821384D02*
X71922118Y-108764462D01*
X71922118Y-108764462D02*
X72027900Y-108752288D01*
X72027900Y-108752288D02*
X72223175Y-108772688D01*
X72223175Y-108772688D02*
X72357417Y-108821548D01*
X72357417Y-108821548D02*
X72520119Y-108931442D01*
X72520119Y-108931442D02*
X72593327Y-109008762D01*
X72593327Y-109008762D02*
X72650249Y-109130830D01*
X72650249Y-109130830D02*
X72646136Y-109281359D01*
X72646136Y-109281359D02*
X72564702Y-109505095D01*
X73085876Y-108073183D02*
X72890436Y-108610150D01*
X72988156Y-108341666D02*
X72048463Y-107999646D01*
X72048463Y-107999646D02*
X72150132Y-108138001D01*
X72150132Y-108138001D02*
X72207053Y-108260068D01*
X72207053Y-108260068D02*
X72219227Y-108365850D01*
X72752574Y-107039718D02*
X73379036Y-107267732D01*
X72313163Y-107133161D02*
X72902938Y-107601198D01*
X72902938Y-107601198D02*
X73114665Y-107019483D01*
X67256126Y-83935251D02*
X68022170Y-83292463D01*
X68022170Y-83292463D02*
X68175215Y-83474855D01*
X68175215Y-83474855D02*
X68230564Y-83614898D01*
X68230564Y-83614898D02*
X68218825Y-83749073D01*
X68218825Y-83749073D02*
X68176477Y-83846769D01*
X68176477Y-83846769D02*
X68061173Y-84005683D01*
X68061173Y-84005683D02*
X67951738Y-84097510D01*
X67951738Y-84097510D02*
X67775216Y-84183467D01*
X67775216Y-84183467D02*
X67671650Y-84208207D01*
X67671650Y-84208207D02*
X67537476Y-84196468D01*
X67537476Y-84196468D02*
X67409171Y-84117642D01*
X67409171Y-84117642D02*
X67256126Y-83935251D01*
X68235612Y-85102557D02*
X67868305Y-84664817D01*
X68051958Y-84883687D02*
X68818003Y-84240899D01*
X68818003Y-84240899D02*
X68647350Y-84259769D01*
X68647350Y-84259769D02*
X68513176Y-84248030D01*
X68513176Y-84248030D02*
X68415479Y-84205683D01*
X68847791Y-85832123D02*
X68480483Y-85394383D01*
X68664137Y-85613253D02*
X69430181Y-84970465D01*
X69430181Y-84970465D02*
X69259529Y-84989335D01*
X69259529Y-84989335D02*
X69125354Y-84977597D01*
X69125354Y-84977597D02*
X69027658Y-84935249D01*
X37233228Y-86246953D02*
X37334243Y-85674534D01*
X36829167Y-85842892D02*
X37536274Y-85135786D01*
X37536274Y-85135786D02*
X37805648Y-85405160D01*
X37805648Y-85405160D02*
X37839320Y-85506175D01*
X37839320Y-85506175D02*
X37839320Y-85573518D01*
X37839320Y-85573518D02*
X37805648Y-85674534D01*
X37805648Y-85674534D02*
X37704633Y-85775549D01*
X37704633Y-85775549D02*
X37603617Y-85809221D01*
X37603617Y-85809221D02*
X37536274Y-85809221D01*
X37536274Y-85809221D02*
X37435259Y-85775549D01*
X37435259Y-85775549D02*
X37165885Y-85506175D01*
X38176037Y-85775549D02*
X38613770Y-86213282D01*
X38613770Y-86213282D02*
X38108694Y-86246953D01*
X38108694Y-86246953D02*
X38209709Y-86347969D01*
X38209709Y-86347969D02*
X38243381Y-86448984D01*
X38243381Y-86448984D02*
X38243381Y-86516327D01*
X38243381Y-86516327D02*
X38209709Y-86617343D01*
X38209709Y-86617343D02*
X38041350Y-86785701D01*
X38041350Y-86785701D02*
X37940335Y-86819373D01*
X37940335Y-86819373D02*
X37872991Y-86819373D01*
X37872991Y-86819373D02*
X37771976Y-86785701D01*
X37771976Y-86785701D02*
X37569946Y-86583671D01*
X37569946Y-86583671D02*
X37536274Y-86482656D01*
X37536274Y-86482656D02*
X37536274Y-86415312D01*
D13*
%TO.C,R8*%
X61122659Y-114944175D02*
X61339940Y-115161456D01*
X61660060Y-114406774D02*
X61877341Y-114624055D01*
%TO.C,R6*%
X61122659Y-85055824D02*
X61339940Y-84838543D01*
X61660060Y-85593225D02*
X61877341Y-85375944D01*
D10*
%TO.C,D2*%
X31730339Y-113949127D02*
G75*
G02*
X31630339Y-113949127I-50000J0D01*
G01*
X31630339Y-113949127D02*
G75*
G02*
X31730339Y-113949127I50000J0D01*
G01*
D13*
%TO.C,J1*%
X47965000Y-124110000D02*
X47965000Y-123000000D01*
X48725000Y-124110001D02*
X47965000Y-124110000D01*
X49485000Y-121890000D02*
X51960000Y-121890000D01*
X49485000Y-122436529D02*
X49485000Y-121890000D01*
X49485000Y-124110000D02*
X49485000Y-123563471D01*
X49485000Y-124110000D02*
X51960000Y-124110000D01*
X51960000Y-122692470D02*
X51960000Y-121890000D01*
X51960000Y-124110000D02*
X51960000Y-123307530D01*
%TO.C,R7*%
X67465382Y-99620000D02*
X67772664Y-99620000D01*
X67465382Y-100380000D02*
X67772664Y-100380000D01*
D10*
%TO.C,D7*%
X39493966Y-79536415D02*
G75*
G02*
X39393968Y-79536415I-49999J0D01*
G01*
X39393968Y-79536415D02*
G75*
G02*
X39493966Y-79536415I49999J0D01*
G01*
%TO.C,D12*%
X72035732Y-93157801D02*
G75*
G02*
X71935732Y-93157801I-50000J0D01*
G01*
X71935732Y-93157801D02*
G75*
G02*
X72035732Y-93157801I50000J0D01*
G01*
%TO.C,D6*%
X33131615Y-84380896D02*
G75*
G02*
X33031615Y-84380896I-50000J0D01*
G01*
X33031615Y-84380896D02*
G75*
G02*
X33131615Y-84380896I50000J0D01*
G01*
%TO.C,D1*%
X37606031Y-119373584D02*
G75*
G02*
X37506033Y-119373584I-49999J0D01*
G01*
X37506033Y-119373584D02*
G75*
G02*
X37606031Y-119373584I49999J0D01*
G01*
D13*
%TO.C,U1*%
X47723116Y-98000000D02*
X48041314Y-97681802D01*
X48041314Y-98318198D02*
X47723116Y-98000000D01*
X49681802Y-96041314D02*
X49830294Y-95892822D01*
X49681802Y-99958686D02*
X50000000Y-100276884D01*
X50000000Y-100276884D02*
X50318198Y-99958686D01*
X50318198Y-96041314D02*
X50212132Y-95935248D01*
X51958686Y-97681802D02*
X52276884Y-98000000D01*
X52276884Y-98000000D02*
X51958686Y-98318198D01*
X50403051Y-95659477D02*
X50000000Y-95723116D01*
X50063640Y-95320065D01*
X50403051Y-95659477D01*
G36*
X50403051Y-95659477D02*
G01*
X50000000Y-95723116D01*
X50063640Y-95320065D01*
X50403051Y-95659477D01*
G37*
%TO.C,through-r1*%
X46158000Y-92202000D02*
G75*
G02*
X43758000Y-92202000I-1200000J0D01*
G01*
X43758000Y-92202000D02*
G75*
G02*
X46158000Y-92202000I1200000J0D01*
G01*
%TO.C,R2*%
X32534618Y-99620000D02*
X32227336Y-99620000D01*
X32534618Y-100380000D02*
X32227336Y-100380000D01*
D10*
%TO.C,D4*%
X27049999Y-98910001D02*
G75*
G02*
X26950001Y-98910001I-49999J0D01*
G01*
X26950001Y-98910001D02*
G75*
G02*
X27049999Y-98910001I49999J0D01*
G01*
%TO.C,D8*%
X47129531Y-77160144D02*
G75*
G02*
X47029531Y-77160144I-50000J0D01*
G01*
X47029531Y-77160144D02*
G75*
G02*
X47129531Y-77160144I50000J0D01*
G01*
D13*
%TO.C,C1*%
X46790000Y-98157836D02*
X46790000Y-97942164D01*
X47510000Y-98157836D02*
X47510000Y-97942164D01*
D10*
%TO.C,D15*%
X66968384Y-115619103D02*
G75*
G02*
X66868384Y-115619103I-50000J0D01*
G01*
X66868384Y-115619103D02*
G75*
G02*
X66968384Y-115619103I50000J0D01*
G01*
D13*
%TO.C,through-r6*%
X44858961Y-92952000D02*
G75*
G02*
X42458961Y-92952000I-1200000J0D01*
G01*
X42458961Y-92952000D02*
G75*
G02*
X44858961Y-92952000I1200000J0D01*
G01*
D10*
%TO.C,D3*%
X28064267Y-106842198D02*
G75*
G02*
X27964267Y-106842198I-50000J0D01*
G01*
X27964267Y-106842198D02*
G75*
G02*
X28064267Y-106842198I50000J0D01*
G01*
D13*
%TO.C,through-r4*%
X47457038Y-92952000D02*
G75*
G02*
X45057038Y-92952000I-1200000J0D01*
G01*
X45057038Y-92952000D02*
G75*
G02*
X47457038Y-92952000I1200000J0D01*
G01*
%TO.C,R4*%
X45846032Y-85593225D02*
X45628751Y-85375944D01*
X46383433Y-85055824D02*
X46166152Y-84838543D01*
D10*
%TO.C,D16*%
X60606032Y-120463584D02*
G75*
G02*
X60506032Y-120463584I-50000J0D01*
G01*
X60506032Y-120463584D02*
G75*
G02*
X60606032Y-120463584I50000J0D01*
G01*
D13*
%TO.C,through-r2*%
X46158000Y-90702000D02*
G75*
G02*
X43758000Y-90702000I-1200000J0D01*
G01*
X43758000Y-90702000D02*
G75*
G02*
X46158000Y-90702000I1200000J0D01*
G01*
D10*
%TO.C,D10*%
X62493968Y-80626415D02*
G75*
G02*
X62393968Y-80626415I-50000J0D01*
G01*
X62393968Y-80626415D02*
G75*
G02*
X62493968Y-80626415I50000J0D01*
G01*
D13*
%TO.C,through-r7*%
X44858961Y-91452000D02*
G75*
G02*
X42458961Y-91452000I-1200000J0D01*
G01*
X42458961Y-91452000D02*
G75*
G02*
X44858961Y-91452000I1200000J0D01*
G01*
D10*
%TO.C,D13*%
X73049999Y-101089999D02*
G75*
G02*
X72950001Y-101089999I-49999J0D01*
G01*
X72950001Y-101089999D02*
G75*
G02*
X73049999Y-101089999I49999J0D01*
G01*
D13*
%TO.C,through-r3*%
X47457038Y-91452000D02*
G75*
G02*
X45057038Y-91452000I-1200000J0D01*
G01*
X45057038Y-91452000D02*
G75*
G02*
X47457038Y-91452000I1200000J0D01*
G01*
%TO.C,R1*%
X38339940Y-114406774D02*
X38122659Y-114624055D01*
X38877341Y-114944175D02*
X38660060Y-115161456D01*
%TO.C,-*%
X52250000Y-114500000D02*
G75*
G02*
X47750000Y-114500000I-2250000J0D01*
G01*
X47750000Y-114500000D02*
G75*
G02*
X52250000Y-114500000I2250000J0D01*
G01*
D10*
%TO.C,D5*%
X28809871Y-91109271D02*
G75*
G02*
X28709871Y-91109271I-50000J0D01*
G01*
X28709871Y-91109271D02*
G75*
G02*
X28809871Y-91109271I50000J0D01*
G01*
D13*
%TO.C,through-r5*%
X46158000Y-93702000D02*
G75*
G02*
X43758000Y-93702000I-1200000J0D01*
G01*
X43758000Y-93702000D02*
G75*
G02*
X46158000Y-93702000I1200000J0D01*
G01*
%TO.C,battery-eject1*%
X51100000Y-107000000D02*
G75*
G02*
X48900000Y-107000000I-1100000J0D01*
G01*
X48900000Y-107000000D02*
G75*
G02*
X51100000Y-107000000I1100000J0D01*
G01*
%TO.C,R5*%
X53616567Y-85055824D02*
X53833848Y-84838543D01*
X54153968Y-85593225D02*
X54371249Y-85375944D01*
%TO.C,B1*%
X52250000Y-114500000D02*
G75*
G02*
X47750000Y-114500000I-2250000J0D01*
G01*
X47750000Y-114500000D02*
G75*
G02*
X52250000Y-114500000I2250000J0D01*
G01*
D10*
%TO.C,D9*%
X55117348Y-77538698D02*
G75*
G02*
X55017348Y-77538698I-50000J0D01*
G01*
X55017348Y-77538698D02*
G75*
G02*
X55117348Y-77538698I50000J0D01*
G01*
%TO.C,D14*%
X71290128Y-108890728D02*
G75*
G02*
X71190128Y-108890728I-50000J0D01*
G01*
X71190128Y-108890728D02*
G75*
G02*
X71290128Y-108890728I50000J0D01*
G01*
%TO.C,D11*%
X68369660Y-86050872D02*
G75*
G02*
X68269660Y-86050872I-50000J0D01*
G01*
X68269660Y-86050872D02*
G75*
G02*
X68369660Y-86050872I50000J0D01*
G01*
D13*
%TO.C,R3*%
X38339940Y-85593225D02*
X38122659Y-85375944D01*
X38877341Y-85055824D02*
X38660060Y-84838543D01*
%TD*%
%LPC*%
D14*
%TO.C,stitch1*%
X26924000Y-95758000D03*
%TD*%
D15*
%TO.C,R8*%
X61139376Y-114423491D03*
X61860624Y-115144739D03*
%TD*%
D14*
%TO.C,stitch1*%
X41910000Y-77978000D03*
%TD*%
D16*
%TO.C,R6*%
X61139376Y-85576508D03*
X61860624Y-84855260D03*
%TD*%
D17*
%TO.C,D2*%
X32069225Y-114412583D03*
X32692729Y-115155647D03*
%TD*%
D18*
%TO.C,J1*%
X48725000Y-123000000D03*
D19*
X49995001Y-123000000D03*
X51265000Y-123000000D03*
%TD*%
D20*
%TO.C,R7*%
X67109024Y-100000000D03*
X68129022Y-100000000D03*
%TD*%
D21*
%TO.C,D7*%
X38920021Y-79838915D03*
X38079977Y-80323915D03*
%TD*%
D14*
%TO.C,stitch1*%
X27178000Y-105156000D03*
%TD*%
D22*
%TO.C,D12*%
X71778809Y-92589287D03*
X71447051Y-91677785D03*
%TD*%
D23*
%TO.C,D6*%
X32692729Y-84844352D03*
X32069225Y-85587416D03*
%TD*%
D24*
%TO.C,D1*%
X38079978Y-119676084D03*
X38920022Y-120161084D03*
%TD*%
D25*
%TO.C,U1*%
X49540381Y-96409010D03*
X49257538Y-96691852D03*
X48974695Y-96974695D03*
X48691852Y-97257538D03*
X48409010Y-97540381D03*
D26*
X48409010Y-98459619D03*
X48691852Y-98742462D03*
X48974695Y-99025305D03*
X49257538Y-99308148D03*
X49540381Y-99590990D03*
D25*
X50459619Y-99590990D03*
X50742462Y-99308148D03*
X51025305Y-99025305D03*
X51308148Y-98742462D03*
X51590990Y-98459619D03*
D26*
X51590990Y-97540381D03*
X51308148Y-97257538D03*
X51025305Y-96974695D03*
X50742462Y-96691852D03*
X50459619Y-96409010D03*
D27*
X50000000Y-98000000D03*
%TD*%
D14*
%TO.C,through-r1*%
X44958000Y-92202000D03*
%TD*%
%TO.C,stitch1*%
X35306000Y-81788000D03*
%TD*%
D28*
%TO.C,R2*%
X32890976Y-100000000D03*
X31870978Y-100000000D03*
%TD*%
D29*
%TO.C,D4*%
X27000000Y-99515000D03*
X27000000Y-100485000D03*
%TD*%
D30*
%TO.C,D8*%
X46483723Y-77265202D03*
X45528459Y-77433640D03*
%TD*%
D14*
%TO.C,stitch1*%
X35052000Y-118110000D03*
%TD*%
D31*
%TO.C,C1*%
X47150000Y-98530000D03*
X47150000Y-97570000D03*
%TD*%
D14*
%TO.C,stitch1*%
X64948000Y-118110000D03*
%TD*%
%TO.C,stitch1*%
X73076000Y-95758000D03*
%TD*%
D32*
%TO.C,D15*%
X67307270Y-115155647D03*
X67930774Y-114412583D03*
%TD*%
D33*
%TO.C,align-r1*%
X27800000Y-102400000D03*
%TD*%
D14*
%TO.C,through-r6*%
X43658961Y-92952000D03*
%TD*%
D34*
%TO.C,D3*%
X28221190Y-107410712D03*
X28552948Y-108322214D03*
%TD*%
D14*
%TO.C,through-r4*%
X46257038Y-92952000D03*
%TD*%
D33*
%TO.C,align-r2*%
X72200000Y-97300000D03*
%TD*%
D35*
%TO.C,R4*%
X46366716Y-85576508D03*
X45645468Y-84855260D03*
%TD*%
D36*
%TO.C,D16*%
X61079978Y-120161084D03*
X61920022Y-119676084D03*
%TD*%
D14*
%TO.C,through-r2*%
X44958000Y-90702000D03*
%TD*%
D37*
%TO.C,D10*%
X61920022Y-80323915D03*
X61079978Y-79838915D03*
%TD*%
D14*
%TO.C,through-r7*%
X43658961Y-91452000D03*
%TD*%
D38*
%TO.C,D13*%
X73000000Y-100485000D03*
X73000000Y-99515000D03*
%TD*%
D14*
%TO.C,through-r3*%
X46257038Y-91452000D03*
%TD*%
D39*
%TO.C,R1*%
X38860624Y-114423491D03*
X38139376Y-115144739D03*
%TD*%
D40*
%TO.C,-*%
X50000000Y-114500000D03*
%TD*%
D41*
%TO.C,D5*%
X28552948Y-91677785D03*
X28221190Y-92589287D03*
%TD*%
D14*
%TO.C,through-r5*%
X44958000Y-93702000D03*
%TD*%
D42*
%TO.C,battery-eject1*%
X50000000Y-107000000D03*
%TD*%
D16*
%TO.C,R5*%
X53633284Y-85576508D03*
X54354532Y-84855260D03*
%TD*%
D14*
%TO.C,stitch1*%
X64694000Y-81788000D03*
%TD*%
D43*
%TO.C,B1*%
X50000000Y-114500000D03*
%TD*%
D44*
%TO.C,D9*%
X54471540Y-77433640D03*
X53516276Y-77265202D03*
%TD*%
D45*
%TO.C,D14*%
X71447051Y-108322214D03*
X71778809Y-107410712D03*
%TD*%
D14*
%TO.C,stitch1*%
X72822000Y-105156000D03*
%TD*%
%TO.C,stitch1*%
X58090000Y-77978000D03*
%TD*%
D46*
%TO.C,D11*%
X67930774Y-85587416D03*
X67307270Y-84844352D03*
%TD*%
D14*
%TO.C,stitch1*%
X50038000Y-76454000D03*
%TD*%
D35*
%TO.C,R3*%
X38860624Y-85576508D03*
X38139376Y-84855260D03*
%TD*%
%LPD*%
M02*
