%TF.GenerationSoftware,KiCad,Pcbnew,8.0.8*%
%TF.CreationDate,2025-02-15T12:27:39-06:00*%
%TF.ProjectId,reverse,72657665-7273-4652-9e6b-696361645f70,rev?*%
%TF.SameCoordinates,Original*%
%TF.FileFunction,Copper,L2,Bot*%
%TF.FilePolarity,Positive*%
%FSLAX46Y46*%
G04 Gerber Fmt 4.6, Leading zero omitted, Abs format (unit mm)*
G04 Created by KiCad (PCBNEW 8.0.8) date 2025-02-15 12:27:39*
%MOMM*%
%LPD*%
G01*
G04 APERTURE LIST*
%TA.AperFunction,ComponentPad*%
%ADD10C,2.000000*%
%TD*%
%TA.AperFunction,ComponentPad*%
%ADD11R,1.000000X1.000000*%
%TD*%
%TA.AperFunction,ComponentPad*%
%ADD12O,1.000000X1.000000*%
%TD*%
%TA.AperFunction,ComponentPad*%
%ADD13C,1.600000*%
%TD*%
%TA.AperFunction,ComponentPad*%
%ADD14O,1.200000X4.200000*%
%TD*%
%TA.AperFunction,SMDPad,CuDef*%
%ADD15O,12.000000X30.000000*%
%TD*%
%TA.AperFunction,ViaPad*%
%ADD16C,0.600000*%
%TD*%
%TA.AperFunction,ViaPad*%
%ADD17C,0.500000*%
%TD*%
%TA.AperFunction,Conductor*%
%ADD18C,2.000000*%
%TD*%
%TA.AperFunction,Conductor*%
%ADD19C,1.000000*%
%TD*%
%TA.AperFunction,Conductor*%
%ADD20C,0.200000*%
%TD*%
G04 APERTURE END LIST*
D10*
%TO.P,stitch1,1*%
%TO.N,GND*%
X26924000Y-95758000D03*
%TD*%
%TO.P,stitch1,1*%
%TO.N,GND*%
X41910000Y-77978000D03*
%TD*%
D11*
%TO.P,J1,1,Pin_1*%
%TO.N,+3V0*%
X48725000Y-123000000D03*
D12*
%TO.P,J1,2,Pin_2*%
%TO.N,GND*%
X49995001Y-123000000D03*
%TO.P,J1,3,Pin_3*%
%TO.N,GP6*%
X51265000Y-123000000D03*
%TD*%
D10*
%TO.P,stitch1,1*%
%TO.N,GND*%
X27178000Y-105156000D03*
%TD*%
%TO.P,through-r1,1*%
%TO.N,+3V0*%
X44958000Y-92202000D03*
%TD*%
%TO.P,stitch1,1*%
%TO.N,GND*%
X35306000Y-81788000D03*
%TD*%
%TO.P,stitch1,1*%
%TO.N,GND*%
X35052000Y-118110000D03*
%TD*%
%TO.P,stitch1,1*%
%TO.N,GND*%
X64948000Y-118110000D03*
%TD*%
%TO.P,stitch1,1*%
%TO.N,GND*%
X73076000Y-95758000D03*
%TD*%
D13*
%TO.P,align-r1,1*%
%TO.N,GND*%
X27800000Y-102400000D03*
%TD*%
D10*
%TO.P,through-r6,1*%
%TO.N,+3V0*%
X43658961Y-92952000D03*
%TD*%
%TO.P,through-r4,1*%
%TO.N,+3V0*%
X46257038Y-92952000D03*
%TD*%
D13*
%TO.P,align-r2,1*%
%TO.N,GND*%
X72200000Y-97300000D03*
%TD*%
D10*
%TO.P,through-r2,1*%
%TO.N,+3V0*%
X44958000Y-90702000D03*
%TD*%
%TO.P,through-r7,1*%
%TO.N,+3V0*%
X43658961Y-91452000D03*
%TD*%
%TO.P,through-r3,1*%
%TO.N,+3V0*%
X46257038Y-91452000D03*
%TD*%
%TO.P,through-r5,1*%
%TO.N,+3V0*%
X44958000Y-93702000D03*
%TD*%
D14*
%TO.P,battery-eject1,1*%
%TO.N,GND*%
X50000000Y-107000000D03*
%TD*%
D10*
%TO.P,stitch1,1*%
%TO.N,GND*%
X64694000Y-81788000D03*
%TD*%
%TO.P,stitch1,1*%
%TO.N,GND*%
X72822000Y-105156000D03*
%TD*%
%TO.P,stitch1,1*%
%TO.N,GND*%
X58090000Y-77978000D03*
%TD*%
%TO.P,stitch1,1*%
%TO.N,GND*%
X50038000Y-76454000D03*
%TD*%
D15*
%TO.P,S1,1,1*%
%TO.N,/touch1*%
X64300000Y-100000000D03*
%TD*%
%TO.P,S2,1,1*%
%TO.N,/touch2*%
X35700000Y-100000000D03*
%TD*%
D16*
%TO.N,GND*%
X39878000Y-120650000D03*
D17*
X43622000Y-117184248D03*
D16*
X71139913Y-100517384D03*
X28082024Y-93384656D03*
X73092489Y-98720000D03*
D17*
X42150000Y-95800000D03*
X43434000Y-94700000D03*
D16*
X37479978Y-115965040D03*
D17*
X42082735Y-90070910D03*
X57850000Y-98872000D03*
X54610000Y-93767891D03*
X39362091Y-81160000D03*
D16*
X29200000Y-100830151D03*
X33355379Y-115965040D03*
X66554035Y-115916000D03*
D17*
X48538595Y-101370595D03*
D16*
X61320022Y-115779979D03*
X62520022Y-119111544D03*
D17*
X48107038Y-94702248D03*
X42150000Y-101170000D03*
X53974280Y-98872000D03*
X48726000Y-95382497D03*
D16*
X47280160Y-77203793D03*
D17*
X52324000Y-122936000D03*
X43434000Y-95800000D03*
X46736000Y-95800000D03*
X42150000Y-99450000D03*
X54226545Y-83949455D03*
D16*
X66802000Y-84100000D03*
D17*
X47498000Y-123952000D03*
D16*
X71207898Y-90590102D03*
X60349070Y-120485116D03*
X31436104Y-86093963D03*
X28300000Y-106385079D03*
X70800000Y-92964000D03*
X38862000Y-115824000D03*
X41659829Y-86176508D03*
X62576000Y-115916000D03*
D17*
X55922000Y-104140000D03*
D16*
X54590219Y-92308310D03*
D17*
X54838834Y-109116580D03*
D16*
X49250000Y-98000000D03*
X28606085Y-90776118D03*
D17*
X45890159Y-78163978D03*
X42150000Y-94700000D03*
D16*
X72120000Y-101823608D03*
X27322614Y-101262826D03*
D17*
X46548001Y-107899817D03*
X52832000Y-90932000D03*
X50292000Y-100880000D03*
X43712243Y-114070243D03*
D16*
X72243090Y-93265986D03*
X72154151Y-106701304D03*
D17*
X48514000Y-108966000D03*
D16*
X47249057Y-102730843D03*
D17*
X56042852Y-108549149D03*
X58032262Y-110522486D03*
X39925111Y-86126508D03*
X54356000Y-90424000D03*
X54446550Y-85665599D03*
D16*
X50750000Y-98000000D03*
D17*
X58300909Y-88526909D03*
X45720000Y-106680000D03*
X47244000Y-85344000D03*
D16*
X55294048Y-77322727D03*
X27178000Y-98552000D03*
D17*
X54299595Y-78383403D03*
D16*
X42054793Y-110380793D03*
D17*
X51450000Y-121920000D03*
D16*
X33348962Y-84100000D03*
D17*
X51450000Y-102108000D03*
X54822000Y-105410000D03*
X57658000Y-93726000D03*
X45683248Y-103922752D03*
D16*
X68581384Y-113920710D03*
D17*
X52356770Y-97124803D03*
D16*
X37396029Y-119261093D03*
X39638553Y-79238915D03*
X61262421Y-118560399D03*
X44616892Y-77496677D03*
X60390804Y-79238915D03*
D17*
X51308000Y-108966000D03*
X52578000Y-103378000D03*
X48514000Y-88646000D03*
X43932694Y-99323306D03*
X44958000Y-89154000D03*
D16*
X38747590Y-118570410D03*
D17*
X57658000Y-100584000D03*
D16*
X37338000Y-80772000D03*
D17*
X53594000Y-100584000D03*
X48423752Y-122010248D03*
D16*
X52727373Y-77161069D03*
D17*
X41762190Y-113493583D03*
D16*
X29188208Y-109454350D03*
D17*
X57658000Y-94867891D03*
D16*
X29200000Y-92825258D03*
D17*
X48514000Y-103378000D03*
X55880000Y-84286000D03*
X50019783Y-96071028D03*
D16*
X68563894Y-86093962D03*
D17*
X52333909Y-92456000D03*
X41822294Y-118026853D03*
X60960000Y-84150000D03*
X48521909Y-105925909D03*
X54429190Y-94867891D03*
X45701927Y-84020982D03*
X39370000Y-84794000D03*
X50038000Y-88392000D03*
X47007038Y-97570000D03*
D16*
X72944441Y-101280000D03*
D17*
X46736000Y-101170000D03*
X44770000Y-101170000D03*
X51117893Y-94889405D03*
X44203909Y-84286000D03*
D16*
X62562598Y-80800942D03*
X31436103Y-113906037D03*
D17*
X60713909Y-81068000D03*
D16*
X70785497Y-109433974D03*
D17*
X45447207Y-85644992D03*
D16*
%TO.N,+3V0*%
X44712000Y-98252000D03*
X46998000Y-104094000D03*
X47998000Y-104094000D03*
X45212000Y-98552000D03*
X47998000Y-104694000D03*
X47498000Y-104994000D03*
X46998000Y-104694000D03*
X44712000Y-98852000D03*
X47498000Y-104394000D03*
X45212000Y-99152000D03*
X45712000Y-98852000D03*
X45712000Y-98252000D03*
X45212000Y-97952000D03*
X47498000Y-103794000D03*
%TO.N,GP4*%
X48306433Y-97720647D03*
X45528459Y-77433640D03*
X38920021Y-79838915D03*
%TO.N,/touch2*%
X41000000Y-95250000D03*
%TO.N,/touch1*%
X52267893Y-94317891D03*
%TO.N,GP6*%
X67930774Y-85600000D03*
X51693567Y-98279354D03*
%TO.N,GP1*%
X32692729Y-115155647D03*
X51400000Y-100330000D03*
X38079978Y-119676084D03*
%TO.N,GP8*%
X61920022Y-119676084D03*
X55372000Y-103378000D03*
X67296362Y-115144739D03*
%TO.N,GP5*%
X61079978Y-79838915D03*
X54471540Y-77433640D03*
X52883909Y-91694000D03*
%TO.N,GP3*%
X47724578Y-99992578D03*
X32069225Y-85598000D03*
%TD*%
D18*
%TO.N,+3V0*%
X44958000Y-98298000D02*
X44958000Y-97790000D01*
D19*
X47498000Y-104394000D02*
X45720000Y-102616000D01*
D18*
X45212000Y-98552000D02*
X44958000Y-98298000D01*
X44958000Y-97790000D02*
X44958000Y-92202000D01*
D19*
X45720000Y-102616000D02*
X45720000Y-99060000D01*
X45720000Y-99060000D02*
X45212000Y-98552000D01*
D20*
%TO.N,GP4*%
X46482000Y-85598000D02*
X49276000Y-88392000D01*
X45937640Y-77433640D02*
X46482000Y-77978000D01*
X49276000Y-88392000D02*
X49276000Y-96751080D01*
X38944915Y-79838915D02*
X43942000Y-84836000D01*
X49276000Y-96751080D02*
X48306433Y-97720647D01*
X46482000Y-77978000D02*
X46482000Y-85598000D01*
X38920021Y-79838915D02*
X38944915Y-79838915D01*
X43942000Y-84836000D02*
X46482000Y-84836000D01*
X45528459Y-77433640D02*
X45937640Y-77433640D01*
%TO.N,/touch1*%
X58617891Y-94317891D02*
X64300000Y-100000000D01*
X52267893Y-94317891D02*
X58617891Y-94317891D01*
%TO.N,GP6*%
X51265000Y-123000000D02*
X52000000Y-122265000D01*
X52000000Y-122265000D02*
X52000000Y-98585787D01*
X52000000Y-98585787D02*
X51693567Y-98279354D01*
X51667893Y-98253680D02*
X51667893Y-94069362D01*
X67030774Y-84700000D02*
X67930774Y-85600000D01*
X51693567Y-98279354D02*
X51667893Y-98253680D01*
X51667893Y-94069362D02*
X61037255Y-84700000D01*
X61037255Y-84700000D02*
X67030774Y-84700000D01*
%TO.N,GP1*%
X38140433Y-115529567D02*
X38079978Y-115529567D01*
X32692729Y-115155647D02*
X32902122Y-115365040D01*
X51400000Y-100330000D02*
X50038000Y-100330000D01*
X38079978Y-115529567D02*
X38079978Y-119676084D01*
X49100000Y-101268000D02*
X49100000Y-104570000D01*
X32902122Y-115365040D02*
X37915451Y-115365040D01*
X50038000Y-100330000D02*
X49100000Y-101268000D01*
X49100000Y-104570000D02*
X38140433Y-115529567D01*
X37915451Y-115365040D02*
X38079978Y-115529567D01*
%TO.N,GP8*%
X67296362Y-115144739D02*
X67125101Y-115316000D01*
X67125101Y-115316000D02*
X61920022Y-115316000D01*
X55372000Y-103378000D02*
X55372000Y-108981545D01*
X61706455Y-115316000D02*
X61920022Y-115316000D01*
X55372000Y-108981545D02*
X61706455Y-115316000D01*
X61920022Y-115316000D02*
X61920022Y-119676084D01*
%TO.N,GP5*%
X54471540Y-77433640D02*
X53594000Y-78311180D01*
X61079978Y-79890022D02*
X61079978Y-79838915D01*
X53594000Y-90983909D02*
X52883909Y-91694000D01*
X53594000Y-78311180D02*
X53594000Y-90983909D01*
X53594000Y-84836000D02*
X56134000Y-84836000D01*
X56134000Y-84836000D02*
X61079978Y-79890022D01*
%TO.N,GP3*%
X41987516Y-85344000D02*
X38953545Y-85344000D01*
X47557038Y-99825038D02*
X47557038Y-90913522D01*
X32967225Y-84700000D02*
X32069225Y-85598000D01*
X47557038Y-90913522D02*
X41987516Y-85344000D01*
X47724578Y-99992578D02*
X47557038Y-99825038D01*
X38309545Y-84700000D02*
X32967225Y-84700000D01*
X38953545Y-85344000D02*
X38309545Y-84700000D01*
%TD*%
%TA.AperFunction,Conductor*%
%TO.N,GND*%
G36*
X42405703Y-93785860D02*
G01*
X42428309Y-93811752D01*
X42470794Y-93876782D01*
X42503206Y-93911991D01*
X42639217Y-94059738D01*
X42835452Y-94212474D01*
X43054151Y-94330828D01*
X43289347Y-94411571D01*
X43353909Y-94422344D01*
X43416794Y-94452794D01*
X43453234Y-94512408D01*
X43457500Y-94544653D01*
X43457500Y-98416097D01*
X43494446Y-98649368D01*
X43567433Y-98873996D01*
X43638517Y-99013505D01*
X43674657Y-99084434D01*
X43813483Y-99275510D01*
X44234490Y-99696517D01*
X44425566Y-99835343D01*
X44636008Y-99942568D01*
X44636014Y-99942570D01*
X44640508Y-99944432D01*
X44639859Y-99945996D01*
X44691471Y-99981266D01*
X44718688Y-100045617D01*
X44719500Y-100059787D01*
X44719500Y-102714541D01*
X44719500Y-102714543D01*
X44719499Y-102714543D01*
X44757947Y-102907829D01*
X44757950Y-102907839D01*
X44833364Y-103089907D01*
X44833371Y-103089920D01*
X44942859Y-103253780D01*
X44942860Y-103253781D01*
X44942861Y-103253782D01*
X45082218Y-103393139D01*
X45082219Y-103393139D01*
X45089286Y-103400206D01*
X45089285Y-103400206D01*
X45089289Y-103400209D01*
X46169515Y-104480435D01*
X46203000Y-104541758D01*
X46205054Y-104582000D01*
X46192435Y-104693997D01*
X46192435Y-104694003D01*
X46212630Y-104873249D01*
X46212631Y-104873254D01*
X46272211Y-105043523D01*
X46368184Y-105196262D01*
X46495738Y-105323816D01*
X46648478Y-105419789D01*
X46818745Y-105479368D01*
X46818749Y-105479368D01*
X46825533Y-105480917D01*
X46824839Y-105483954D01*
X46876527Y-105505552D01*
X46886103Y-105514181D01*
X46995738Y-105623816D01*
X46995745Y-105623820D01*
X46999193Y-105626570D01*
X47039334Y-105683758D01*
X47042186Y-105753569D01*
X47009563Y-105811200D01*
X42242578Y-110578185D01*
X42181255Y-110611670D01*
X42111563Y-110606686D01*
X42055630Y-110564814D01*
X42031213Y-110499350D01*
X42034322Y-110461566D01*
X42080514Y-110269163D01*
X42160423Y-109764641D01*
X42200500Y-109255405D01*
X42200500Y-93879573D01*
X42220185Y-93812534D01*
X42272989Y-93766779D01*
X42342147Y-93756835D01*
X42405703Y-93785860D01*
G37*
%TD.AperFunction*%
%TA.AperFunction,Conductor*%
G36*
X46922495Y-94386648D02*
G01*
X46954355Y-94448830D01*
X46956538Y-94471993D01*
X46956538Y-98399137D01*
X46936853Y-98466176D01*
X46884049Y-98511931D01*
X46814891Y-98521875D01*
X46751335Y-98492850D01*
X46713561Y-98434072D01*
X46710065Y-98418535D01*
X46699844Y-98354003D01*
X46675552Y-98200631D01*
X46602568Y-97976008D01*
X46495343Y-97765566D01*
X46490152Y-97758421D01*
X46482181Y-97747449D01*
X46458702Y-97681643D01*
X46458500Y-97674565D01*
X46458500Y-94544653D01*
X46478185Y-94477614D01*
X46530989Y-94431859D01*
X46562090Y-94422344D01*
X46626652Y-94411571D01*
X46792276Y-94354711D01*
X46862073Y-94351562D01*
X46922495Y-94386648D01*
G37*
%TD.AperFunction*%
%TA.AperFunction,Conductor*%
G36*
X58140235Y-88548767D02*
G01*
X58196168Y-88590639D01*
X58220585Y-88656103D01*
X58211463Y-88712400D01*
X58196578Y-88748336D01*
X58038736Y-89234128D01*
X58038729Y-89234151D01*
X57919485Y-89730842D01*
X57839577Y-90235357D01*
X57839577Y-90235358D01*
X57799500Y-90744589D01*
X57799500Y-93593391D01*
X57779815Y-93660430D01*
X57727011Y-93706185D01*
X57675500Y-93717391D01*
X53168461Y-93717391D01*
X53101422Y-93697706D01*
X53055667Y-93644902D01*
X53045723Y-93575744D01*
X53074748Y-93512188D01*
X53080780Y-93505710D01*
X54262674Y-92323816D01*
X58009222Y-88577266D01*
X58070543Y-88543783D01*
X58140235Y-88548767D01*
G37*
%TD.AperFunction*%
%TA.AperFunction,Conductor*%
G36*
X41754458Y-85964185D02*
G01*
X41775100Y-85980819D01*
X44802256Y-89007976D01*
X44835741Y-89069299D01*
X44830757Y-89138991D01*
X44788885Y-89194924D01*
X44734985Y-89217966D01*
X44588382Y-89242429D01*
X44353197Y-89323169D01*
X44353188Y-89323172D01*
X44134493Y-89441524D01*
X43938257Y-89594261D01*
X43769836Y-89777215D01*
X43692673Y-89895322D01*
X43639526Y-89940678D01*
X43588864Y-89951500D01*
X43534626Y-89951500D01*
X43289344Y-89992429D01*
X43054158Y-90073169D01*
X43054149Y-90073172D01*
X42835454Y-90191524D01*
X42639218Y-90344261D01*
X42470793Y-90527219D01*
X42413185Y-90615394D01*
X42360038Y-90660751D01*
X42290807Y-90670174D01*
X42227472Y-90640671D01*
X42190140Y-90581611D01*
X42185760Y-90557308D01*
X42160423Y-90235359D01*
X42080514Y-89730837D01*
X41961268Y-89234140D01*
X41803419Y-88748330D01*
X41607940Y-88276402D01*
X41376037Y-87821267D01*
X41376028Y-87821253D01*
X41376026Y-87821247D01*
X41186773Y-87512417D01*
X41109139Y-87385729D01*
X40808892Y-86972474D01*
X40808887Y-86972467D01*
X40477152Y-86584057D01*
X40477147Y-86584051D01*
X40115949Y-86222853D01*
X40115941Y-86222846D01*
X40115930Y-86222836D01*
X40045625Y-86162790D01*
X40007431Y-86104284D01*
X40006932Y-86034416D01*
X40044286Y-85975369D01*
X40107633Y-85945891D01*
X40126156Y-85944500D01*
X41687419Y-85944500D01*
X41754458Y-85964185D01*
G37*
%TD.AperFunction*%
%TA.AperFunction,Conductor*%
G36*
X50984027Y-75520319D02*
G01*
X50988954Y-75520517D01*
X51968919Y-75579794D01*
X51973860Y-75580193D01*
X52950617Y-75678879D01*
X52955551Y-75679478D01*
X53927534Y-75817412D01*
X53932431Y-75818208D01*
X54898078Y-75995170D01*
X54902963Y-75996167D01*
X55860684Y-76211863D01*
X55865511Y-76213053D01*
X56813819Y-76467152D01*
X56818568Y-76468528D01*
X57755844Y-76760594D01*
X57760506Y-76762150D01*
X58685317Y-77091741D01*
X58689942Y-77093496D01*
X59600690Y-77460040D01*
X59605229Y-77461973D01*
X60500476Y-77864891D01*
X60504979Y-77867028D01*
X61383264Y-78305661D01*
X61387664Y-78307970D01*
X62247571Y-78781611D01*
X62251876Y-78784096D01*
X63092031Y-79291986D01*
X63096200Y-79294623D01*
X63915219Y-79835930D01*
X63919320Y-79838760D01*
X64715881Y-80412608D01*
X64719834Y-80415579D01*
X65404371Y-80951880D01*
X65492642Y-81021036D01*
X65496510Y-81024195D01*
X66244250Y-81660225D01*
X66247989Y-81663536D01*
X66969580Y-82329222D01*
X66973181Y-82332682D01*
X67667317Y-83026818D01*
X67670777Y-83030419D01*
X68336463Y-83752010D01*
X68339774Y-83755749D01*
X68975804Y-84503489D01*
X68978963Y-84507357D01*
X69196031Y-84784423D01*
X69561160Y-85250476D01*
X69584405Y-85280145D01*
X69587396Y-85284126D01*
X70079136Y-85966712D01*
X70161232Y-86080670D01*
X70164069Y-86084780D01*
X70705360Y-86903773D01*
X70708021Y-86907982D01*
X70996828Y-87385727D01*
X71215897Y-87748113D01*
X71218394Y-87752438D01*
X71692023Y-88612324D01*
X71694344Y-88616746D01*
X72132967Y-89495011D01*
X72135108Y-89499523D01*
X72356947Y-89992429D01*
X72466281Y-90235360D01*
X72538014Y-90394743D01*
X72539971Y-90399337D01*
X72906498Y-91310043D01*
X72908267Y-91314709D01*
X73236388Y-92235393D01*
X73237834Y-92239448D01*
X73239415Y-92244186D01*
X73531464Y-93181408D01*
X73532854Y-93186204D01*
X73786943Y-94134477D01*
X73788138Y-94139326D01*
X74003831Y-95097032D01*
X74004830Y-95101925D01*
X74181788Y-96067551D01*
X74182589Y-96072481D01*
X74320519Y-97044436D01*
X74321121Y-97049393D01*
X74419804Y-98026120D01*
X74420206Y-98031098D01*
X74479480Y-99011014D01*
X74479681Y-99016004D01*
X74499449Y-99997503D01*
X74499449Y-100002497D01*
X74479681Y-100983995D01*
X74479480Y-100988985D01*
X74420206Y-101968901D01*
X74419804Y-101973879D01*
X74321121Y-102950606D01*
X74320519Y-102955563D01*
X74182589Y-103927518D01*
X74181788Y-103932448D01*
X74004830Y-104898074D01*
X74003831Y-104902967D01*
X73788138Y-105860673D01*
X73786943Y-105865522D01*
X73532854Y-106813795D01*
X73531464Y-106818591D01*
X73239415Y-107755813D01*
X73237834Y-107760551D01*
X72908269Y-108685287D01*
X72906498Y-108689956D01*
X72539971Y-109600662D01*
X72538014Y-109605256D01*
X72135108Y-110500476D01*
X72132967Y-110504988D01*
X71694344Y-111383253D01*
X71692023Y-111387675D01*
X71218394Y-112247561D01*
X71215897Y-112251886D01*
X70708029Y-113092005D01*
X70705360Y-113096226D01*
X70164069Y-113915219D01*
X70161232Y-113919329D01*
X69587405Y-114715862D01*
X69584405Y-114719854D01*
X68978963Y-115492642D01*
X68975804Y-115496510D01*
X68339774Y-116244250D01*
X68336463Y-116247989D01*
X67670777Y-116969580D01*
X67667317Y-116973181D01*
X66973181Y-117667317D01*
X66969580Y-117670777D01*
X66247989Y-118336463D01*
X66244250Y-118339774D01*
X65496510Y-118975804D01*
X65492642Y-118978963D01*
X64719854Y-119584405D01*
X64715862Y-119587405D01*
X63919329Y-120161232D01*
X63915219Y-120164069D01*
X63096226Y-120705360D01*
X63092005Y-120708029D01*
X62251886Y-121215897D01*
X62247561Y-121218394D01*
X61387675Y-121692023D01*
X61383253Y-121694344D01*
X60504988Y-122132967D01*
X60500476Y-122135108D01*
X59605256Y-122538014D01*
X59600662Y-122539971D01*
X58689956Y-122906498D01*
X58685287Y-122908269D01*
X57760551Y-123237834D01*
X57755813Y-123239415D01*
X56818591Y-123531464D01*
X56813795Y-123532854D01*
X55865522Y-123786943D01*
X55860673Y-123788138D01*
X54902967Y-124003831D01*
X54898074Y-124004830D01*
X53932448Y-124181788D01*
X53927518Y-124182589D01*
X52955563Y-124320519D01*
X52950606Y-124321121D01*
X51973879Y-124419804D01*
X51968901Y-124420206D01*
X50988985Y-124479480D01*
X50983995Y-124479681D01*
X50002497Y-124499449D01*
X49997503Y-124499449D01*
X49016004Y-124479681D01*
X49011014Y-124479480D01*
X48031098Y-124420206D01*
X48026120Y-124419804D01*
X47049393Y-124321121D01*
X47044436Y-124320519D01*
X46072481Y-124182589D01*
X46067551Y-124181788D01*
X45101925Y-124004830D01*
X45097032Y-124003831D01*
X44139326Y-123788138D01*
X44134477Y-123786943D01*
X43186204Y-123532854D01*
X43181408Y-123531464D01*
X42244186Y-123239415D01*
X42239464Y-123237839D01*
X41314709Y-122908267D01*
X41310043Y-122906498D01*
X40399337Y-122539971D01*
X40394743Y-122538014D01*
X39499523Y-122135108D01*
X39495011Y-122132967D01*
X38616746Y-121694344D01*
X38612324Y-121692023D01*
X37752438Y-121218394D01*
X37748113Y-121215897D01*
X37494922Y-121062838D01*
X36907982Y-120708021D01*
X36903786Y-120705368D01*
X36084780Y-120164069D01*
X36080670Y-120161232D01*
X35407233Y-119676084D01*
X35284126Y-119587396D01*
X35280157Y-119584414D01*
X34756076Y-119173822D01*
X34507357Y-118978963D01*
X34503489Y-118975804D01*
X33755749Y-118339774D01*
X33752010Y-118336463D01*
X33030419Y-117670777D01*
X33026818Y-117667317D01*
X32332682Y-116973181D01*
X32329222Y-116969580D01*
X31663536Y-116247989D01*
X31660225Y-116244250D01*
X31024195Y-115496510D01*
X31021036Y-115492642D01*
X30897450Y-115334896D01*
X30415579Y-114719834D01*
X30412608Y-114715881D01*
X29838760Y-113919320D01*
X29835930Y-113915219D01*
X29294623Y-113096200D01*
X29291986Y-113092031D01*
X28784096Y-112251876D01*
X28781605Y-112247561D01*
X28743694Y-112178733D01*
X28307970Y-111387664D01*
X28305655Y-111383253D01*
X27896910Y-110564814D01*
X27867028Y-110504979D01*
X27864891Y-110500476D01*
X27847375Y-110461556D01*
X27461973Y-109605229D01*
X27460040Y-109600690D01*
X27093496Y-108689942D01*
X27091741Y-108685317D01*
X26762150Y-107760506D01*
X26760594Y-107755844D01*
X26468528Y-106818568D01*
X26467152Y-106813819D01*
X26213053Y-105865511D01*
X26211861Y-105860673D01*
X26172016Y-105683758D01*
X25996167Y-104902963D01*
X25995169Y-104898074D01*
X25990620Y-104873249D01*
X25818208Y-103932431D01*
X25817410Y-103927518D01*
X25812564Y-103893373D01*
X25679478Y-102955551D01*
X25678878Y-102950606D01*
X25671314Y-102875737D01*
X25580193Y-101973860D01*
X25579793Y-101968901D01*
X25551494Y-101501058D01*
X25520517Y-100988954D01*
X25520319Y-100984027D01*
X25500550Y-100002482D01*
X25500550Y-99997503D01*
X25500649Y-99992578D01*
X25520319Y-99015970D01*
X25520517Y-99011047D01*
X25579794Y-98031076D01*
X25580195Y-98026120D01*
X25582949Y-97998868D01*
X25678879Y-97049376D01*
X25679480Y-97044436D01*
X25817413Y-96072457D01*
X25818206Y-96067576D01*
X25995171Y-95101911D01*
X25996168Y-95097032D01*
X26012585Y-95024140D01*
X26211866Y-94139304D01*
X26213056Y-94134477D01*
X26467155Y-93186167D01*
X26468524Y-93181444D01*
X26760599Y-92244140D01*
X26762144Y-92239508D01*
X27091747Y-91314665D01*
X27093489Y-91310073D01*
X27321074Y-90744595D01*
X29199500Y-90744595D01*
X29199500Y-109255405D01*
X29239577Y-109764641D01*
X29319486Y-110269163D01*
X29438732Y-110765860D01*
X29483800Y-110904564D01*
X29596578Y-111251664D01*
X29651084Y-111383253D01*
X29792060Y-111723598D01*
X30023963Y-112178733D01*
X30023968Y-112178741D01*
X30023970Y-112178745D01*
X30023973Y-112178752D01*
X30290855Y-112614261D01*
X30290862Y-112614272D01*
X30591102Y-113027518D01*
X30591112Y-113027532D01*
X30846493Y-113326543D01*
X30922853Y-113415949D01*
X31284051Y-113777147D01*
X31284057Y-113777152D01*
X31672467Y-114108887D01*
X31672474Y-114108892D01*
X32085729Y-114409139D01*
X32088905Y-114411085D01*
X32135782Y-114462892D01*
X32147209Y-114531821D01*
X32119556Y-114595985D01*
X32111802Y-114604495D01*
X32062913Y-114653384D01*
X31966940Y-114806123D01*
X31907360Y-114976392D01*
X31907359Y-114976397D01*
X31887164Y-115155643D01*
X31887164Y-115155650D01*
X31907359Y-115334896D01*
X31907360Y-115334901D01*
X31966940Y-115505170D01*
X32056059Y-115647001D01*
X32062913Y-115657909D01*
X32190467Y-115785463D01*
X32343207Y-115881436D01*
X32443417Y-115916501D01*
X32513474Y-115941015D01*
X32513479Y-115941016D01*
X32692725Y-115961212D01*
X32692728Y-115961212D01*
X32692728Y-115961211D01*
X32692729Y-115961212D01*
X32749800Y-115954781D01*
X32795776Y-115958227D01*
X32823064Y-115965540D01*
X32823065Y-115965540D01*
X37355478Y-115965540D01*
X37422517Y-115985225D01*
X37468272Y-116038029D01*
X37479478Y-116089540D01*
X37479478Y-119093671D01*
X37459793Y-119160710D01*
X37452428Y-119170980D01*
X37450164Y-119173818D01*
X37354189Y-119326560D01*
X37294609Y-119496829D01*
X37294608Y-119496834D01*
X37274413Y-119676080D01*
X37274413Y-119676087D01*
X37294608Y-119855333D01*
X37294609Y-119855338D01*
X37354189Y-120025607D01*
X37441191Y-120164069D01*
X37450162Y-120178346D01*
X37577716Y-120305900D01*
X37730456Y-120401873D01*
X37900723Y-120461452D01*
X37900728Y-120461453D01*
X38079974Y-120481649D01*
X38079978Y-120481649D01*
X38079982Y-120481649D01*
X38259227Y-120461453D01*
X38259230Y-120461452D01*
X38259233Y-120461452D01*
X38429500Y-120401873D01*
X38582240Y-120305900D01*
X38709794Y-120178346D01*
X38805767Y-120025606D01*
X38865346Y-119855339D01*
X38885543Y-119676084D01*
X38875551Y-119587405D01*
X38865347Y-119496834D01*
X38865346Y-119496829D01*
X38805766Y-119326560D01*
X38709791Y-119173818D01*
X38707528Y-119170980D01*
X38706637Y-119168799D01*
X38706089Y-119167926D01*
X38706242Y-119167829D01*
X38681122Y-119106293D01*
X38680478Y-119093671D01*
X38680478Y-115890118D01*
X38700163Y-115823079D01*
X38716792Y-115802442D01*
X49458506Y-105060727D01*
X49458511Y-105060724D01*
X49468714Y-105050520D01*
X49468716Y-105050520D01*
X49580520Y-104938716D01*
X49639140Y-104837182D01*
X49659577Y-104801785D01*
X49700500Y-104649058D01*
X49700500Y-104490943D01*
X49700500Y-101568097D01*
X49720185Y-101501058D01*
X49736819Y-101480416D01*
X50250416Y-100966819D01*
X50311739Y-100933334D01*
X50338097Y-100930500D01*
X50817588Y-100930500D01*
X50884627Y-100950185D01*
X50894903Y-100957555D01*
X50897736Y-100959814D01*
X50897738Y-100959816D01*
X51050478Y-101055789D01*
X51220745Y-101115368D01*
X51289384Y-101123101D01*
X51353796Y-101150166D01*
X51393352Y-101207760D01*
X51399500Y-101246321D01*
X51399500Y-121871093D01*
X51379815Y-121938132D01*
X51327011Y-121983887D01*
X51271091Y-121993207D01*
X51271091Y-121994659D01*
X51265000Y-121994659D01*
X51068870Y-122013975D01*
X51013278Y-122030839D01*
X50880273Y-122071186D01*
X50880272Y-122071186D01*
X50880267Y-122071188D01*
X50706468Y-122164085D01*
X50701400Y-122167473D01*
X50700387Y-122165958D01*
X50643937Y-122189920D01*
X50575072Y-122178115D01*
X50558575Y-122167511D01*
X50558323Y-122167890D01*
X50553254Y-122164503D01*
X50379542Y-122071652D01*
X50245001Y-122030839D01*
X50245001Y-122790382D01*
X50194555Y-122739936D01*
X50120446Y-122697149D01*
X50037788Y-122675000D01*
X49952214Y-122675000D01*
X49869556Y-122697149D01*
X49795447Y-122739936D01*
X49745001Y-122790382D01*
X49745001Y-122030839D01*
X49745000Y-122030839D01*
X49610463Y-122071651D01*
X49608580Y-122072658D01*
X49607480Y-122072886D01*
X49604839Y-122073981D01*
X49604631Y-122073479D01*
X49540176Y-122086894D01*
X49475824Y-122062561D01*
X49467335Y-122056206D01*
X49467328Y-122056202D01*
X49332482Y-122005908D01*
X49332483Y-122005908D01*
X49272883Y-121999501D01*
X49272881Y-121999500D01*
X49272873Y-121999500D01*
X49272864Y-121999500D01*
X48177129Y-121999500D01*
X48177123Y-121999501D01*
X48117516Y-122005908D01*
X47982671Y-122056202D01*
X47982664Y-122056206D01*
X47867455Y-122142452D01*
X47867452Y-122142455D01*
X47781206Y-122257664D01*
X47781202Y-122257671D01*
X47730908Y-122392517D01*
X47724501Y-122452116D01*
X47724500Y-122452135D01*
X47724500Y-123547870D01*
X47724501Y-123547876D01*
X47730908Y-123607483D01*
X47781202Y-123742328D01*
X47781206Y-123742335D01*
X47867452Y-123857544D01*
X47867455Y-123857547D01*
X47982664Y-123943793D01*
X47982671Y-123943797D01*
X48117517Y-123994091D01*
X48117516Y-123994091D01*
X48124444Y-123994835D01*
X48177127Y-124000500D01*
X49272872Y-124000499D01*
X49332483Y-123994091D01*
X49467331Y-123943796D01*
X49475820Y-123937440D01*
X49541283Y-123913020D01*
X49604628Y-123926505D01*
X49604831Y-123926016D01*
X49607479Y-123927112D01*
X49608598Y-123927351D01*
X49610463Y-123928348D01*
X49745001Y-123969159D01*
X49745001Y-123209618D01*
X49795447Y-123260064D01*
X49869556Y-123302851D01*
X49952214Y-123325000D01*
X50037788Y-123325000D01*
X50120446Y-123302851D01*
X50194555Y-123260064D01*
X50245001Y-123209618D01*
X50245001Y-123969159D01*
X50379535Y-123928349D01*
X50553260Y-123835492D01*
X50558321Y-123832111D01*
X50559444Y-123833792D01*
X50615208Y-123810087D01*
X50684080Y-123821854D01*
X50701187Y-123832844D01*
X50701399Y-123832527D01*
X50706459Y-123835908D01*
X50706462Y-123835910D01*
X50706464Y-123835911D01*
X50706467Y-123835913D01*
X50880266Y-123928811D01*
X50880269Y-123928811D01*
X50880273Y-123928814D01*
X51068868Y-123986024D01*
X51265000Y-124005341D01*
X51461132Y-123986024D01*
X51649727Y-123928814D01*
X51652912Y-123927112D01*
X51783060Y-123857546D01*
X51823538Y-123835910D01*
X51975883Y-123710883D01*
X52100910Y-123558538D01*
X52193814Y-123384727D01*
X52251024Y-123196132D01*
X52270341Y-123000000D01*
X52262092Y-122916252D01*
X52275110Y-122847609D01*
X52297811Y-122816422D01*
X52358506Y-122755728D01*
X52358511Y-122755724D01*
X52368714Y-122745520D01*
X52368716Y-122745520D01*
X52480520Y-122633716D01*
X52535183Y-122539036D01*
X52559577Y-122496785D01*
X52600501Y-122344057D01*
X52600501Y-122185943D01*
X52600501Y-122178348D01*
X52600500Y-122178330D01*
X52600500Y-98674847D01*
X52600501Y-98674834D01*
X52600501Y-98506731D01*
X52600501Y-98506730D01*
X52559577Y-98354003D01*
X52507860Y-98264427D01*
X52492028Y-98216310D01*
X52478936Y-98100104D01*
X52478935Y-98100099D01*
X52468462Y-98070168D01*
X52419356Y-97929832D01*
X52323383Y-97777092D01*
X52304712Y-97758421D01*
X52271227Y-97697098D01*
X52268393Y-97670740D01*
X52268393Y-95234212D01*
X52288078Y-95167173D01*
X52340882Y-95121418D01*
X52378505Y-95110992D01*
X52447148Y-95103259D01*
X52617415Y-95043680D01*
X52770155Y-94947707D01*
X52770160Y-94947701D01*
X52772990Y-94945446D01*
X52775168Y-94944556D01*
X52776051Y-94944002D01*
X52776148Y-94944156D01*
X52837676Y-94919036D01*
X52850305Y-94918391D01*
X57675500Y-94918391D01*
X57742539Y-94938076D01*
X57788294Y-94990880D01*
X57799500Y-95042391D01*
X57799500Y-109255404D01*
X57839577Y-109764641D01*
X57839577Y-109764642D01*
X57919485Y-110269157D01*
X57946577Y-110382004D01*
X57943086Y-110451786D01*
X57902422Y-110508604D01*
X57837496Y-110534417D01*
X57768921Y-110521031D01*
X57738322Y-110498632D01*
X56008819Y-108769129D01*
X55975334Y-108707806D01*
X55972500Y-108681448D01*
X55972500Y-103960412D01*
X55992185Y-103893373D01*
X55999555Y-103883097D01*
X56001810Y-103880267D01*
X56001816Y-103880262D01*
X56097789Y-103727522D01*
X56157368Y-103557255D01*
X56157369Y-103557249D01*
X56177565Y-103378003D01*
X56177565Y-103377996D01*
X56157369Y-103198750D01*
X56157368Y-103198745D01*
X56097788Y-103028476D01*
X56001815Y-102875737D01*
X55874262Y-102748184D01*
X55721523Y-102652211D01*
X55551254Y-102592631D01*
X55551249Y-102592630D01*
X55372004Y-102572435D01*
X55371996Y-102572435D01*
X55192750Y-102592630D01*
X55192745Y-102592631D01*
X55022476Y-102652211D01*
X54869737Y-102748184D01*
X54742184Y-102875737D01*
X54646211Y-103028476D01*
X54586631Y-103198745D01*
X54586630Y-103198750D01*
X54566435Y-103377996D01*
X54566435Y-103378003D01*
X54586630Y-103557249D01*
X54586631Y-103557254D01*
X54646211Y-103727523D01*
X54742185Y-103880263D01*
X54744445Y-103883097D01*
X54745334Y-103885275D01*
X54745889Y-103886158D01*
X54745734Y-103886255D01*
X54770855Y-103947783D01*
X54771500Y-103960412D01*
X54771500Y-108894875D01*
X54771499Y-108894893D01*
X54771499Y-109060599D01*
X54771498Y-109060599D01*
X54771499Y-109060602D01*
X54812423Y-109213330D01*
X54836715Y-109255405D01*
X54891477Y-109350257D01*
X54891481Y-109350262D01*
X55010349Y-109469130D01*
X55010355Y-109469135D01*
X61221594Y-115680374D01*
X61221604Y-115680385D01*
X61225934Y-115684715D01*
X61225935Y-115684716D01*
X61283204Y-115741985D01*
X61316688Y-115803306D01*
X61319522Y-115829665D01*
X61319522Y-119093671D01*
X61299837Y-119160710D01*
X61292472Y-119170980D01*
X61290208Y-119173818D01*
X61194233Y-119326560D01*
X61134653Y-119496829D01*
X61134652Y-119496834D01*
X61114457Y-119676080D01*
X61114457Y-119676087D01*
X61134652Y-119855333D01*
X61134653Y-119855338D01*
X61194233Y-120025607D01*
X61281235Y-120164069D01*
X61290206Y-120178346D01*
X61417760Y-120305900D01*
X61570500Y-120401873D01*
X61740767Y-120461452D01*
X61740772Y-120461453D01*
X61920018Y-120481649D01*
X61920022Y-120481649D01*
X61920026Y-120481649D01*
X62099271Y-120461453D01*
X62099274Y-120461452D01*
X62099277Y-120461452D01*
X62269544Y-120401873D01*
X62422284Y-120305900D01*
X62549838Y-120178346D01*
X62645811Y-120025606D01*
X62705390Y-119855339D01*
X62725587Y-119676084D01*
X62715595Y-119587405D01*
X62705391Y-119496834D01*
X62705390Y-119496829D01*
X62645810Y-119326560D01*
X62549835Y-119173818D01*
X62547572Y-119170980D01*
X62546681Y-119168799D01*
X62546133Y-119167926D01*
X62546286Y-119167829D01*
X62521166Y-119106293D01*
X62520522Y-119093671D01*
X62520522Y-116040500D01*
X62540207Y-115973461D01*
X62593011Y-115927706D01*
X62644522Y-115916500D01*
X67038432Y-115916500D01*
X67038448Y-115916501D01*
X67046044Y-115916501D01*
X67057154Y-115916501D01*
X67098107Y-115923458D01*
X67117107Y-115930107D01*
X67176858Y-115936839D01*
X67296358Y-115950304D01*
X67296362Y-115950304D01*
X67296366Y-115950304D01*
X67475611Y-115930108D01*
X67475614Y-115930107D01*
X67475617Y-115930107D01*
X67645884Y-115870528D01*
X67798624Y-115774555D01*
X67926178Y-115647001D01*
X68022151Y-115494261D01*
X68081730Y-115323994D01*
X68100698Y-115155647D01*
X68101927Y-115144742D01*
X68101927Y-115144735D01*
X68081731Y-114965489D01*
X68081730Y-114965484D01*
X68022150Y-114795215D01*
X67926177Y-114642476D01*
X67888198Y-114604497D01*
X67854713Y-114543174D01*
X67859697Y-114473482D01*
X67901569Y-114417549D01*
X67911091Y-114411088D01*
X67911977Y-114410544D01*
X67914271Y-114409139D01*
X68327526Y-114108892D01*
X68715949Y-113777147D01*
X69077147Y-113415949D01*
X69408892Y-113027526D01*
X69709139Y-112614271D01*
X69932518Y-112249750D01*
X69976026Y-112178752D01*
X69976027Y-112178748D01*
X69976037Y-112178733D01*
X70207940Y-111723598D01*
X70403419Y-111251670D01*
X70561268Y-110765860D01*
X70680514Y-110269163D01*
X70760423Y-109764641D01*
X70800500Y-109255405D01*
X70800500Y-90744595D01*
X70760423Y-90235359D01*
X70680514Y-89730837D01*
X70561268Y-89234140D01*
X70403419Y-88748330D01*
X70207940Y-88276402D01*
X69976037Y-87821267D01*
X69976028Y-87821253D01*
X69976026Y-87821247D01*
X69786773Y-87512417D01*
X69709139Y-87385729D01*
X69408892Y-86972474D01*
X69408887Y-86972467D01*
X69077152Y-86584057D01*
X69077147Y-86584051D01*
X68715949Y-86222853D01*
X68646986Y-86163952D01*
X68608794Y-86105447D01*
X68608295Y-86035580D01*
X68622526Y-86003691D01*
X68656562Y-85949524D01*
X68657263Y-85947522D01*
X68716142Y-85779255D01*
X68716143Y-85779249D01*
X68736339Y-85600003D01*
X68736339Y-85599996D01*
X68716143Y-85420750D01*
X68716142Y-85420745D01*
X68656562Y-85250476D01*
X68560589Y-85097737D01*
X68433036Y-84970184D01*
X68280295Y-84874210D01*
X68110023Y-84814630D01*
X68023104Y-84804837D01*
X67958690Y-84777770D01*
X67949307Y-84769298D01*
X67518364Y-84338355D01*
X67518362Y-84338352D01*
X67399491Y-84219481D01*
X67399490Y-84219480D01*
X67312678Y-84169360D01*
X67312678Y-84169359D01*
X67312674Y-84169358D01*
X67262559Y-84140423D01*
X67109831Y-84099499D01*
X66951717Y-84099499D01*
X66944121Y-84099499D01*
X66944105Y-84099500D01*
X61123925Y-84099500D01*
X61123909Y-84099499D01*
X61116313Y-84099499D01*
X60958198Y-84099499D01*
X60850842Y-84128265D01*
X60805465Y-84140424D01*
X60805464Y-84140425D01*
X60755351Y-84169359D01*
X60755350Y-84169360D01*
X60711944Y-84194420D01*
X60668540Y-84219479D01*
X60668537Y-84219481D01*
X54406181Y-90481838D01*
X54344858Y-90515323D01*
X54275166Y-90510339D01*
X54219233Y-90468467D01*
X54194816Y-90403003D01*
X54194500Y-90394157D01*
X54194500Y-85560500D01*
X54214185Y-85493461D01*
X54266989Y-85447706D01*
X54318500Y-85436500D01*
X56047331Y-85436500D01*
X56047347Y-85436501D01*
X56054943Y-85436501D01*
X56213054Y-85436501D01*
X56213057Y-85436501D01*
X56365785Y-85395577D01*
X56365787Y-85395575D01*
X56365789Y-85395575D01*
X56365790Y-85395574D01*
X56416640Y-85366216D01*
X56416641Y-85366215D01*
X56502716Y-85316520D01*
X56614520Y-85204716D01*
X56614520Y-85204714D01*
X56624724Y-85194511D01*
X56624728Y-85194506D01*
X61156109Y-80663124D01*
X61217430Y-80629641D01*
X61229889Y-80627588D01*
X61259233Y-80624283D01*
X61429500Y-80564704D01*
X61582240Y-80468731D01*
X61709794Y-80341177D01*
X61805767Y-80188437D01*
X61865346Y-80018170D01*
X61885543Y-79838915D01*
X61885526Y-79838767D01*
X61865347Y-79659665D01*
X61865346Y-79659660D01*
X61805766Y-79489391D01*
X61709793Y-79336652D01*
X61582240Y-79209099D01*
X61429501Y-79113126D01*
X61259232Y-79053546D01*
X61259227Y-79053545D01*
X61079982Y-79033350D01*
X61079974Y-79033350D01*
X60900728Y-79053545D01*
X60900723Y-79053546D01*
X60730454Y-79113126D01*
X60577715Y-79209099D01*
X60450162Y-79336652D01*
X60354189Y-79489391D01*
X60294609Y-79659660D01*
X60294608Y-79659664D01*
X60278326Y-79804179D01*
X60251259Y-79868593D01*
X60242787Y-79877976D01*
X55921584Y-84199181D01*
X55860261Y-84232666D01*
X55833903Y-84235500D01*
X54318500Y-84235500D01*
X54251461Y-84215815D01*
X54205706Y-84163011D01*
X54194500Y-84111500D01*
X54194500Y-78611276D01*
X54214185Y-78544237D01*
X54230815Y-78523599D01*
X54490075Y-78264338D01*
X54551396Y-78230855D01*
X54563851Y-78228803D01*
X54650795Y-78219008D01*
X54821062Y-78159429D01*
X54973802Y-78063456D01*
X55101356Y-77935902D01*
X55197329Y-77783162D01*
X55256908Y-77612895D01*
X55269912Y-77497480D01*
X55277105Y-77433643D01*
X55277105Y-77433636D01*
X55256909Y-77254390D01*
X55256908Y-77254385D01*
X55200286Y-77092570D01*
X55197329Y-77084118D01*
X55101356Y-76931378D01*
X54973802Y-76803824D01*
X54821063Y-76707851D01*
X54650794Y-76648271D01*
X54650789Y-76648270D01*
X54471544Y-76628075D01*
X54471536Y-76628075D01*
X54292290Y-76648270D01*
X54292285Y-76648271D01*
X54122016Y-76707851D01*
X53969277Y-76803824D01*
X53841724Y-76931377D01*
X53745750Y-77084118D01*
X53686170Y-77254390D01*
X53676377Y-77341308D01*
X53649310Y-77405722D01*
X53640838Y-77415105D01*
X53225286Y-77830658D01*
X53113481Y-77942462D01*
X53113477Y-77942467D01*
X53095896Y-77972921D01*
X53095895Y-77972923D01*
X53034423Y-78079395D01*
X52993499Y-78232123D01*
X52993499Y-78232125D01*
X52993499Y-78400226D01*
X52993500Y-78400239D01*
X52993500Y-90683810D01*
X52973815Y-90750849D01*
X52957181Y-90771492D01*
X52865373Y-90863299D01*
X52804049Y-90896783D01*
X52791576Y-90898837D01*
X52704659Y-90908630D01*
X52534387Y-90968210D01*
X52381646Y-91064184D01*
X52254093Y-91191737D01*
X52158120Y-91344476D01*
X52098540Y-91514745D01*
X52098539Y-91514750D01*
X52078344Y-91693996D01*
X52078344Y-91694003D01*
X52098539Y-91873249D01*
X52098540Y-91873254D01*
X52158120Y-92043523D01*
X52254093Y-92196262D01*
X52385244Y-92327413D01*
X52418729Y-92388736D01*
X52413745Y-92458428D01*
X52385244Y-92502775D01*
X51187374Y-93700644D01*
X51187370Y-93700649D01*
X51170924Y-93729137D01*
X51170923Y-93729139D01*
X51108316Y-93837577D01*
X51067392Y-93990305D01*
X51067392Y-93990307D01*
X51067392Y-94158408D01*
X51067393Y-94158421D01*
X51067393Y-97735571D01*
X51048387Y-97801543D01*
X50967778Y-97929830D01*
X50908198Y-98100099D01*
X50908197Y-98100104D01*
X50888002Y-98279350D01*
X50888002Y-98279357D01*
X50908197Y-98458603D01*
X50908198Y-98458608D01*
X50967778Y-98628877D01*
X51063751Y-98781616D01*
X51191305Y-98909170D01*
X51341474Y-99003527D01*
X51387763Y-99055859D01*
X51399500Y-99108519D01*
X51399500Y-99413677D01*
X51379815Y-99480716D01*
X51327011Y-99526471D01*
X51289384Y-99536897D01*
X51220750Y-99544630D01*
X51050478Y-99604210D01*
X50897736Y-99700185D01*
X50894903Y-99702445D01*
X50892724Y-99703334D01*
X50891842Y-99703889D01*
X50891744Y-99703734D01*
X50830217Y-99728855D01*
X50817588Y-99729500D01*
X50117057Y-99729500D01*
X49958942Y-99729500D01*
X49806215Y-99770423D01*
X49806214Y-99770423D01*
X49806212Y-99770424D01*
X49806209Y-99770425D01*
X49771066Y-99790716D01*
X49771064Y-99790717D01*
X49669290Y-99849475D01*
X49669282Y-99849481D01*
X48619481Y-100899282D01*
X48619480Y-100899284D01*
X48584532Y-100959816D01*
X48540423Y-101036215D01*
X48499499Y-101188943D01*
X48499499Y-101188945D01*
X48499499Y-101357046D01*
X48499500Y-101357059D01*
X48499500Y-103246628D01*
X48479815Y-103313667D01*
X48427011Y-103359422D01*
X48357853Y-103369366D01*
X48334546Y-103363670D01*
X48177246Y-103308629D01*
X48170459Y-103307080D01*
X48171137Y-103304108D01*
X48119165Y-103282197D01*
X48109895Y-103273817D01*
X48000262Y-103164184D01*
X47847521Y-103068210D01*
X47677249Y-103008630D01*
X47551659Y-102994480D01*
X47487245Y-102967413D01*
X47477862Y-102958941D01*
X46756819Y-102237898D01*
X46723334Y-102176575D01*
X46720500Y-102150217D01*
X46720500Y-100276609D01*
X46740185Y-100209570D01*
X46792989Y-100163815D01*
X46862147Y-100153871D01*
X46925703Y-100182896D01*
X46961542Y-100235654D01*
X46998789Y-100342101D01*
X47094762Y-100494840D01*
X47222316Y-100622394D01*
X47375056Y-100718367D01*
X47545323Y-100777946D01*
X47545328Y-100777947D01*
X47724574Y-100798143D01*
X47724578Y-100798143D01*
X47724582Y-100798143D01*
X47903827Y-100777947D01*
X47903830Y-100777946D01*
X47903833Y-100777946D01*
X48074100Y-100718367D01*
X48226840Y-100622394D01*
X48354394Y-100494840D01*
X48450367Y-100342100D01*
X48509946Y-100171833D01*
X48509947Y-100171827D01*
X48530143Y-99992581D01*
X48530143Y-99992574D01*
X48509947Y-99813328D01*
X48509946Y-99813323D01*
X48486382Y-99745981D01*
X48450367Y-99643056D01*
X48425958Y-99604210D01*
X48383663Y-99536897D01*
X48354394Y-99490316D01*
X48226840Y-99362762D01*
X48226837Y-99362759D01*
X48215563Y-99355675D01*
X48169273Y-99303339D01*
X48157538Y-99250683D01*
X48157538Y-98648191D01*
X48177223Y-98581152D01*
X48230027Y-98535397D01*
X48295423Y-98524971D01*
X48306433Y-98526212D01*
X48433182Y-98511931D01*
X48485682Y-98506016D01*
X48485685Y-98506015D01*
X48485688Y-98506015D01*
X48655955Y-98446436D01*
X48808695Y-98350463D01*
X48936249Y-98222909D01*
X49032222Y-98070169D01*
X49091801Y-97899902D01*
X49101594Y-97812976D01*
X49128659Y-97748565D01*
X49137122Y-97739191D01*
X49756520Y-97119796D01*
X49835577Y-96982865D01*
X49876501Y-96830137D01*
X49876501Y-96672022D01*
X49876501Y-96664427D01*
X49876500Y-96664409D01*
X49876500Y-88481060D01*
X49876501Y-88481047D01*
X49876501Y-88312944D01*
X49866710Y-88276404D01*
X49835577Y-88160216D01*
X49835573Y-88160209D01*
X49756524Y-88023290D01*
X49756518Y-88023282D01*
X47118819Y-85385583D01*
X47085334Y-85324260D01*
X47082500Y-85297902D01*
X47082500Y-77898944D01*
X47082499Y-77898938D01*
X47074255Y-77868170D01*
X47041577Y-77746215D01*
X47012639Y-77696095D01*
X46962520Y-77609284D01*
X46850716Y-77497480D01*
X46850715Y-77497479D01*
X46846385Y-77493149D01*
X46846374Y-77493139D01*
X46425230Y-77071995D01*
X46425228Y-77071992D01*
X46306357Y-76953121D01*
X46306349Y-76953115D01*
X46204576Y-76894357D01*
X46204574Y-76894356D01*
X46169430Y-76874065D01*
X46169421Y-76874061D01*
X46107990Y-76857600D01*
X46052404Y-76825507D01*
X46030721Y-76803824D01*
X45877982Y-76707851D01*
X45707713Y-76648271D01*
X45707708Y-76648270D01*
X45528463Y-76628075D01*
X45528455Y-76628075D01*
X45349209Y-76648270D01*
X45349204Y-76648271D01*
X45178935Y-76707851D01*
X45026196Y-76803824D01*
X44898643Y-76931377D01*
X44802670Y-77084116D01*
X44743090Y-77254385D01*
X44743089Y-77254390D01*
X44722894Y-77433636D01*
X44722894Y-77433643D01*
X44743089Y-77612889D01*
X44743090Y-77612894D01*
X44802670Y-77783163D01*
X44875417Y-77898938D01*
X44898643Y-77935902D01*
X45026197Y-78063456D01*
X45178937Y-78159429D01*
X45330185Y-78212353D01*
X45349204Y-78219008D01*
X45349209Y-78219009D01*
X45528455Y-78239205D01*
X45528459Y-78239205D01*
X45528463Y-78239205D01*
X45707708Y-78219009D01*
X45707709Y-78219008D01*
X45707714Y-78219008D01*
X45716542Y-78215918D01*
X45786318Y-78212353D01*
X45846947Y-78247079D01*
X45879177Y-78309071D01*
X45881500Y-78332958D01*
X45881500Y-84111500D01*
X45861815Y-84178539D01*
X45809011Y-84224294D01*
X45757500Y-84235500D01*
X44242097Y-84235500D01*
X44175058Y-84215815D01*
X44154416Y-84199181D01*
X39747560Y-79792325D01*
X39714075Y-79731002D01*
X39712023Y-79718544D01*
X39705389Y-79659660D01*
X39645810Y-79489393D01*
X39549837Y-79336653D01*
X39422283Y-79209099D01*
X39269544Y-79113126D01*
X39099275Y-79053546D01*
X39099270Y-79053545D01*
X38920025Y-79033350D01*
X38920017Y-79033350D01*
X38740771Y-79053545D01*
X38740766Y-79053546D01*
X38570497Y-79113126D01*
X38417758Y-79209099D01*
X38290205Y-79336652D01*
X38194232Y-79489391D01*
X38134652Y-79659660D01*
X38134651Y-79659665D01*
X38114456Y-79838911D01*
X38114456Y-79838918D01*
X38134651Y-80018164D01*
X38134652Y-80018169D01*
X38194232Y-80188438D01*
X38290205Y-80341177D01*
X38417759Y-80468731D01*
X38570499Y-80564704D01*
X38687173Y-80605530D01*
X38740766Y-80624283D01*
X38740771Y-80624284D01*
X38855742Y-80637237D01*
X38920156Y-80664303D01*
X38929541Y-80672776D01*
X43457139Y-85200374D01*
X43457149Y-85200385D01*
X43461479Y-85204715D01*
X43461480Y-85204716D01*
X43573284Y-85316520D01*
X43573286Y-85316521D01*
X43573290Y-85316524D01*
X43692906Y-85385583D01*
X43710216Y-85395577D01*
X43812773Y-85423057D01*
X43862942Y-85436500D01*
X43862943Y-85436500D01*
X45757499Y-85436500D01*
X45824538Y-85456185D01*
X45870293Y-85508989D01*
X45881499Y-85560500D01*
X45881499Y-85677054D01*
X45881498Y-85677054D01*
X45881499Y-85677057D01*
X45908347Y-85777255D01*
X45922423Y-85829784D01*
X45922424Y-85829787D01*
X45923569Y-85831769D01*
X45923573Y-85831787D01*
X45923578Y-85831785D01*
X46001477Y-85966712D01*
X46001481Y-85966717D01*
X46120349Y-86085585D01*
X46120355Y-86085590D01*
X48639181Y-88604416D01*
X48672666Y-88665739D01*
X48675500Y-88692097D01*
X48675500Y-96450982D01*
X48655815Y-96518021D01*
X48639181Y-96538663D01*
X48369219Y-96808625D01*
X48307896Y-96842110D01*
X48238204Y-96837126D01*
X48182271Y-96795254D01*
X48157854Y-96729790D01*
X48157538Y-96720944D01*
X48157538Y-91002582D01*
X48157539Y-91002569D01*
X48157539Y-90834466D01*
X48140665Y-90771492D01*
X48116615Y-90681738D01*
X48078312Y-90615394D01*
X48037562Y-90544812D01*
X48037556Y-90544804D01*
X42475106Y-84982355D01*
X42475104Y-84982352D01*
X42356233Y-84863481D01*
X42356232Y-84863480D01*
X42268160Y-84812632D01*
X42268159Y-84812631D01*
X42219306Y-84784425D01*
X42219305Y-84784424D01*
X42194472Y-84777770D01*
X42066573Y-84743499D01*
X41908459Y-84743499D01*
X41900863Y-84743499D01*
X41900847Y-84743500D01*
X39253643Y-84743500D01*
X39186604Y-84723815D01*
X39165962Y-84707181D01*
X38797135Y-84338355D01*
X38797133Y-84338352D01*
X38678262Y-84219481D01*
X38678261Y-84219480D01*
X38591449Y-84169360D01*
X38591449Y-84169359D01*
X38591445Y-84169358D01*
X38541330Y-84140423D01*
X38388602Y-84099499D01*
X38230488Y-84099499D01*
X38222892Y-84099499D01*
X38222876Y-84099500D01*
X33053895Y-84099500D01*
X33053879Y-84099499D01*
X33046283Y-84099499D01*
X32888168Y-84099499D01*
X32843381Y-84111500D01*
X32735439Y-84140423D01*
X32735434Y-84140426D01*
X32598515Y-84219475D01*
X32598507Y-84219481D01*
X32050690Y-84767298D01*
X31989367Y-84800783D01*
X31976893Y-84802837D01*
X31889975Y-84812630D01*
X31719703Y-84872210D01*
X31566962Y-84968184D01*
X31439409Y-85095737D01*
X31343436Y-85248476D01*
X31283856Y-85418745D01*
X31283855Y-85418750D01*
X31263660Y-85597996D01*
X31263660Y-85598003D01*
X31283855Y-85777249D01*
X31283856Y-85777254D01*
X31343436Y-85947524D01*
X31378290Y-86002992D01*
X31397291Y-86070229D01*
X31376924Y-86137064D01*
X31353829Y-86163255D01*
X31284056Y-86222847D01*
X31284042Y-86222860D01*
X30922860Y-86584043D01*
X30922847Y-86584057D01*
X30591112Y-86972467D01*
X30591102Y-86972481D01*
X30290862Y-87385727D01*
X30290855Y-87385738D01*
X30023973Y-87821247D01*
X30023970Y-87821254D01*
X29792059Y-88276404D01*
X29596578Y-88748335D01*
X29438736Y-89234128D01*
X29438729Y-89234151D01*
X29319485Y-89730842D01*
X29239577Y-90235357D01*
X29239577Y-90235358D01*
X29203520Y-90693520D01*
X29199500Y-90744595D01*
X27321074Y-90744595D01*
X27460047Y-90399291D01*
X27461965Y-90394788D01*
X27864903Y-89499496D01*
X27867018Y-89495039D01*
X28305671Y-88616714D01*
X28307959Y-88612355D01*
X28781623Y-87752406D01*
X28784083Y-87748144D01*
X29292000Y-86907946D01*
X29294608Y-86903821D01*
X29835952Y-86084747D01*
X29838744Y-86080702D01*
X30412626Y-85284093D01*
X30415561Y-85280188D01*
X31021053Y-84507335D01*
X31024176Y-84503511D01*
X31660232Y-83755740D01*
X31663536Y-83752010D01*
X31955472Y-83435557D01*
X32329245Y-83030394D01*
X32332657Y-83026843D01*
X33026843Y-82332657D01*
X33030394Y-82329245D01*
X33752018Y-81663528D01*
X33755749Y-81660225D01*
X34503511Y-81024176D01*
X34507335Y-81021053D01*
X35280188Y-80415561D01*
X35284093Y-80412626D01*
X36080702Y-79838744D01*
X36084747Y-79835952D01*
X36903821Y-79294608D01*
X36907946Y-79292000D01*
X37748144Y-78784083D01*
X37752406Y-78781623D01*
X38612355Y-78307959D01*
X38616714Y-78305671D01*
X39495039Y-77867018D01*
X39499496Y-77864903D01*
X40394788Y-77461965D01*
X40399291Y-77460047D01*
X41310073Y-77093489D01*
X41314665Y-77091747D01*
X42239508Y-76762144D01*
X42244140Y-76760599D01*
X43181444Y-76468524D01*
X43186167Y-76467155D01*
X44134499Y-76213050D01*
X44139304Y-76211866D01*
X45097046Y-75996165D01*
X45101911Y-75995171D01*
X46067576Y-75818206D01*
X46072457Y-75817413D01*
X47044454Y-75679477D01*
X47049376Y-75678879D01*
X48026143Y-75580193D01*
X48031076Y-75579794D01*
X49011047Y-75520517D01*
X49015970Y-75520319D01*
X49997518Y-75500550D01*
X50002482Y-75500550D01*
X50984027Y-75520319D01*
G37*
%TD.AperFunction*%
%TD*%
M02*
