%TF.GenerationSoftware,KiCad,Pcbnew,8.0.7*%
%TF.CreationDate,2024-12-05T10:42:37-06:00*%
%TF.ProjectId,reverse,72657665-7273-4652-9e6b-696361645f70,rev?*%
%TF.SameCoordinates,Original*%
%TF.FileFunction,Drillmap*%
%TF.FilePolarity,Positive*%
%FSLAX45Y45*%
G04 Gerber Fmt 4.5, Leading zero omitted, Abs format (unit mm)*
G04 Created by KiCad (PCBNEW 8.0.7) date 2024-12-05 10:42:37*
%MOMM*%
%LPD*%
G01*
G04 APERTURE LIST*
%ADD10C,0.050000*%
%ADD11C,0.200000*%
%ADD12C,0.100000*%
G04 APERTURE END LIST*
D10*
X7000000Y-5000000D02*
G75*
G02*
X3000000Y-5000000I-2000000J0D01*
G01*
X3000000Y-5000000D02*
G75*
G02*
X7000000Y-5000000I2000000J0D01*
G01*
D11*
D12*
X3407103Y-5952002D02*
X3437103Y-5982002D01*
X3437103Y-5952002D02*
X3407103Y-5982002D01*
X4052500Y-6611397D02*
X4082500Y-6641397D01*
X4082500Y-6611397D02*
X4052500Y-6641397D01*
X4184000Y-4485000D02*
X4214000Y-4515000D01*
X4214000Y-4485000D02*
X4184000Y-4515000D01*
X4731000Y-5985000D02*
X4761000Y-6015000D01*
X4761000Y-5985000D02*
X4731000Y-6015000D01*
X4815000Y-4535000D02*
X4845000Y-4565000D01*
X4845000Y-4535000D02*
X4815000Y-4565000D01*
X4815000Y-4595000D02*
X4845000Y-4625000D01*
X4845000Y-4595000D02*
X4815000Y-4625000D01*
X4824700Y-4849700D02*
X4854700Y-4879700D01*
X4854700Y-4849700D02*
X4824700Y-4879700D01*
X4845493Y-4285000D02*
X4875493Y-4315000D01*
X4875493Y-4285000D02*
X4845493Y-4315000D01*
X4875000Y-4535000D02*
X4905000Y-4565000D01*
X4905000Y-4535000D02*
X4875000Y-4565000D01*
X4875000Y-4595000D02*
X4905000Y-4625000D01*
X4905000Y-4595000D02*
X4875000Y-4625000D01*
X4935000Y-4365000D02*
X4965000Y-4395000D01*
X4965000Y-4365000D02*
X4935000Y-4395000D01*
X4935000Y-4435000D02*
X4965000Y-4465000D01*
X4965000Y-4435000D02*
X4935000Y-4465000D01*
X4965000Y-4709400D02*
X4995000Y-4739400D01*
X4995000Y-4709400D02*
X4965000Y-4739400D01*
X5035000Y-4365000D02*
X5065000Y-4395000D01*
X5065000Y-4365000D02*
X5035000Y-4395000D01*
X5035000Y-4435000D02*
X5065000Y-4465000D01*
X5065000Y-4435000D02*
X5035000Y-4465000D01*
X5124507Y-4485000D02*
X5154507Y-4515000D01*
X5154507Y-4485000D02*
X5124507Y-4515000D01*
X5125000Y-4172426D02*
X5155000Y-4202427D01*
X5155000Y-4172426D02*
X5125000Y-4202427D01*
X5193586Y-4123333D02*
X5223586Y-4153333D01*
X5223586Y-4123333D02*
X5193586Y-4153333D01*
X5235000Y-5955000D02*
X5265000Y-5985000D01*
X5265000Y-5955000D02*
X5235000Y-5985000D01*
X5235000Y-6015000D02*
X5265000Y-6045000D01*
X5265000Y-6015000D02*
X5235000Y-6045000D01*
X5285000Y-5925000D02*
X5315000Y-5955000D01*
X5315000Y-5925000D02*
X5285000Y-5955000D01*
X5285000Y-5985000D02*
X5315000Y-6015000D01*
X5315000Y-5985000D02*
X5285000Y-6015000D01*
X5285000Y-6045000D02*
X5315000Y-6075000D01*
X5315000Y-6045000D02*
X5285000Y-6075000D01*
X5335000Y-5955000D02*
X5365000Y-5985000D01*
X5365000Y-5955000D02*
X5335000Y-5985000D01*
X5335000Y-6015000D02*
X5365000Y-6045000D01*
X5365000Y-6015000D02*
X5335000Y-6045000D01*
X4824500Y-3200000D02*
G75*
G02*
X4794500Y-3200000I-15000J0D01*
G01*
X4794500Y-3200000D02*
G75*
G02*
X4824500Y-3200000I15000J0D01*
G01*
X4888000Y-6800000D02*
G75*
G02*
X4858000Y-6800000I-15000J0D01*
G01*
X4858000Y-6800000D02*
G75*
G02*
X4888000Y-6800000I15000J0D01*
G01*
X4951500Y-3200000D02*
G75*
G02*
X4921500Y-3200000I-15000J0D01*
G01*
X4921500Y-3200000D02*
G75*
G02*
X4951500Y-3200000I15000J0D01*
G01*
X5015000Y-6800000D02*
G75*
G02*
X4985000Y-6800000I-15000J0D01*
G01*
X4985000Y-6800000D02*
G75*
G02*
X5015000Y-6800000I15000J0D01*
G01*
X5078500Y-3200000D02*
G75*
G02*
X5048500Y-3200000I-15000J0D01*
G01*
X5048500Y-3200000D02*
G75*
G02*
X5078500Y-3200000I15000J0D01*
G01*
X5142000Y-6800000D02*
G75*
G02*
X5112000Y-6800000I-15000J0D01*
G01*
X5112000Y-6800000D02*
G75*
G02*
X5142000Y-6800000I15000J0D01*
G01*
X5205500Y-3200000D02*
G75*
G02*
X5175500Y-3200000I-15000J0D01*
G01*
X5175500Y-3200000D02*
G75*
G02*
X5205500Y-3200000I15000J0D01*
G01*
X4620096Y-3575000D02*
X4620096Y-3675000D01*
X4570096Y-3625000D02*
X4670096Y-3625000D01*
X4620096Y-3725000D02*
X4620096Y-3825000D01*
X4570096Y-3775000D02*
X4670096Y-3775000D01*
X4750000Y-3500000D02*
X4750000Y-3600000D01*
X4700000Y-3550000D02*
X4800000Y-3550000D01*
X4750000Y-3650000D02*
X4750000Y-3750000D01*
X4700000Y-3700000D02*
X4800000Y-3700000D01*
X4750000Y-3800000D02*
X4750000Y-3900000D01*
X4700000Y-3850000D02*
X4800000Y-3850000D01*
X4879904Y-3575000D02*
X4879904Y-3675000D01*
X4829904Y-3625000D02*
X4929904Y-3625000D01*
X4879904Y-3725000D02*
X4879904Y-3825000D01*
X4829904Y-3775000D02*
X4929904Y-3775000D01*
X5000000Y-5050000D02*
X5000000Y-5150000D01*
X4950000Y-5100000D02*
X5050000Y-5100000D01*
X4950000Y-5000000D02*
X4950000Y-5200000D01*
X5050000Y-5200000D02*
G75*
G02*
X4950000Y-5200000I-50000J0D01*
G01*
X5050000Y-5200000D02*
X5050000Y-5000000D01*
X5050000Y-5000000D02*
G75*
G03*
X4950000Y-5000000I-50000J0D01*
G01*
D11*
X3258277Y-7313984D02*
X3258277Y-7113984D01*
X3258277Y-7113984D02*
X3305896Y-7113984D01*
X3305896Y-7113984D02*
X3334467Y-7123508D01*
X3334467Y-7123508D02*
X3353515Y-7142555D01*
X3353515Y-7142555D02*
X3363039Y-7161603D01*
X3363039Y-7161603D02*
X3372562Y-7199698D01*
X3372562Y-7199698D02*
X3372562Y-7228269D01*
X3372562Y-7228269D02*
X3363039Y-7266365D01*
X3363039Y-7266365D02*
X3353515Y-7285412D01*
X3353515Y-7285412D02*
X3334467Y-7304460D01*
X3334467Y-7304460D02*
X3305896Y-7313984D01*
X3305896Y-7313984D02*
X3258277Y-7313984D01*
X3458277Y-7313984D02*
X3458277Y-7180650D01*
X3458277Y-7218746D02*
X3467801Y-7199698D01*
X3467801Y-7199698D02*
X3477324Y-7190174D01*
X3477324Y-7190174D02*
X3496372Y-7180650D01*
X3496372Y-7180650D02*
X3515420Y-7180650D01*
X3582086Y-7313984D02*
X3582086Y-7180650D01*
X3582086Y-7113984D02*
X3572562Y-7123508D01*
X3572562Y-7123508D02*
X3582086Y-7133031D01*
X3582086Y-7133031D02*
X3591610Y-7123508D01*
X3591610Y-7123508D02*
X3582086Y-7113984D01*
X3582086Y-7113984D02*
X3582086Y-7133031D01*
X3705896Y-7313984D02*
X3686848Y-7304460D01*
X3686848Y-7304460D02*
X3677324Y-7285412D01*
X3677324Y-7285412D02*
X3677324Y-7113984D01*
X3810658Y-7313984D02*
X3791610Y-7304460D01*
X3791610Y-7304460D02*
X3782086Y-7285412D01*
X3782086Y-7285412D02*
X3782086Y-7113984D01*
X4039229Y-7313984D02*
X4039229Y-7113984D01*
X4039229Y-7113984D02*
X4105896Y-7256841D01*
X4105896Y-7256841D02*
X4172562Y-7113984D01*
X4172562Y-7113984D02*
X4172562Y-7313984D01*
X4353515Y-7313984D02*
X4353515Y-7209222D01*
X4353515Y-7209222D02*
X4343991Y-7190174D01*
X4343991Y-7190174D02*
X4324944Y-7180650D01*
X4324944Y-7180650D02*
X4286848Y-7180650D01*
X4286848Y-7180650D02*
X4267801Y-7190174D01*
X4353515Y-7304460D02*
X4334467Y-7313984D01*
X4334467Y-7313984D02*
X4286848Y-7313984D01*
X4286848Y-7313984D02*
X4267801Y-7304460D01*
X4267801Y-7304460D02*
X4258277Y-7285412D01*
X4258277Y-7285412D02*
X4258277Y-7266365D01*
X4258277Y-7266365D02*
X4267801Y-7247317D01*
X4267801Y-7247317D02*
X4286848Y-7237793D01*
X4286848Y-7237793D02*
X4334467Y-7237793D01*
X4334467Y-7237793D02*
X4353515Y-7228269D01*
X4448753Y-7180650D02*
X4448753Y-7380650D01*
X4448753Y-7190174D02*
X4467801Y-7180650D01*
X4467801Y-7180650D02*
X4505896Y-7180650D01*
X4505896Y-7180650D02*
X4524944Y-7190174D01*
X4524944Y-7190174D02*
X4534467Y-7199698D01*
X4534467Y-7199698D02*
X4543991Y-7218746D01*
X4543991Y-7218746D02*
X4543991Y-7275888D01*
X4543991Y-7275888D02*
X4534467Y-7294936D01*
X4534467Y-7294936D02*
X4524944Y-7304460D01*
X4524944Y-7304460D02*
X4505896Y-7313984D01*
X4505896Y-7313984D02*
X4467801Y-7313984D01*
X4467801Y-7313984D02*
X4448753Y-7304460D01*
X4629705Y-7294936D02*
X4639229Y-7304460D01*
X4639229Y-7304460D02*
X4629705Y-7313984D01*
X4629705Y-7313984D02*
X4620182Y-7304460D01*
X4620182Y-7304460D02*
X4629705Y-7294936D01*
X4629705Y-7294936D02*
X4629705Y-7313984D01*
X4629705Y-7190174D02*
X4639229Y-7199698D01*
X4639229Y-7199698D02*
X4629705Y-7209222D01*
X4629705Y-7209222D02*
X4620182Y-7199698D01*
X4620182Y-7199698D02*
X4629705Y-7190174D01*
X4629705Y-7190174D02*
X4629705Y-7209222D01*
D12*
X2967500Y-7627500D02*
X2997500Y-7657500D01*
X2997500Y-7627500D02*
X2967500Y-7657500D01*
D11*
X3296372Y-7533984D02*
X3315420Y-7533984D01*
X3315420Y-7533984D02*
X3334467Y-7543508D01*
X3334467Y-7543508D02*
X3343991Y-7553031D01*
X3343991Y-7553031D02*
X3353515Y-7572079D01*
X3353515Y-7572079D02*
X3363039Y-7610174D01*
X3363039Y-7610174D02*
X3363039Y-7657793D01*
X3363039Y-7657793D02*
X3353515Y-7695888D01*
X3353515Y-7695888D02*
X3343991Y-7714936D01*
X3343991Y-7714936D02*
X3334467Y-7724460D01*
X3334467Y-7724460D02*
X3315420Y-7733984D01*
X3315420Y-7733984D02*
X3296372Y-7733984D01*
X3296372Y-7733984D02*
X3277324Y-7724460D01*
X3277324Y-7724460D02*
X3267801Y-7714936D01*
X3267801Y-7714936D02*
X3258277Y-7695888D01*
X3258277Y-7695888D02*
X3248753Y-7657793D01*
X3248753Y-7657793D02*
X3248753Y-7610174D01*
X3248753Y-7610174D02*
X3258277Y-7572079D01*
X3258277Y-7572079D02*
X3267801Y-7553031D01*
X3267801Y-7553031D02*
X3277324Y-7543508D01*
X3277324Y-7543508D02*
X3296372Y-7533984D01*
X3448753Y-7714936D02*
X3458277Y-7724460D01*
X3458277Y-7724460D02*
X3448753Y-7733984D01*
X3448753Y-7733984D02*
X3439229Y-7724460D01*
X3439229Y-7724460D02*
X3448753Y-7714936D01*
X3448753Y-7714936D02*
X3448753Y-7733984D01*
X3524943Y-7533984D02*
X3648753Y-7533984D01*
X3648753Y-7533984D02*
X3582086Y-7610174D01*
X3582086Y-7610174D02*
X3610658Y-7610174D01*
X3610658Y-7610174D02*
X3629705Y-7619698D01*
X3629705Y-7619698D02*
X3639229Y-7629222D01*
X3639229Y-7629222D02*
X3648753Y-7648269D01*
X3648753Y-7648269D02*
X3648753Y-7695888D01*
X3648753Y-7695888D02*
X3639229Y-7714936D01*
X3639229Y-7714936D02*
X3629705Y-7724460D01*
X3629705Y-7724460D02*
X3610658Y-7733984D01*
X3610658Y-7733984D02*
X3553515Y-7733984D01*
X3553515Y-7733984D02*
X3534467Y-7724460D01*
X3534467Y-7724460D02*
X3524943Y-7714936D01*
X3772562Y-7533984D02*
X3791610Y-7533984D01*
X3791610Y-7533984D02*
X3810658Y-7543508D01*
X3810658Y-7543508D02*
X3820182Y-7553031D01*
X3820182Y-7553031D02*
X3829705Y-7572079D01*
X3829705Y-7572079D02*
X3839229Y-7610174D01*
X3839229Y-7610174D02*
X3839229Y-7657793D01*
X3839229Y-7657793D02*
X3829705Y-7695888D01*
X3829705Y-7695888D02*
X3820182Y-7714936D01*
X3820182Y-7714936D02*
X3810658Y-7724460D01*
X3810658Y-7724460D02*
X3791610Y-7733984D01*
X3791610Y-7733984D02*
X3772562Y-7733984D01*
X3772562Y-7733984D02*
X3753515Y-7724460D01*
X3753515Y-7724460D02*
X3743991Y-7714936D01*
X3743991Y-7714936D02*
X3734467Y-7695888D01*
X3734467Y-7695888D02*
X3724943Y-7657793D01*
X3724943Y-7657793D02*
X3724943Y-7610174D01*
X3724943Y-7610174D02*
X3734467Y-7572079D01*
X3734467Y-7572079D02*
X3743991Y-7553031D01*
X3743991Y-7553031D02*
X3753515Y-7543508D01*
X3753515Y-7543508D02*
X3772562Y-7533984D01*
X3963039Y-7533984D02*
X3982086Y-7533984D01*
X3982086Y-7533984D02*
X4001134Y-7543508D01*
X4001134Y-7543508D02*
X4010658Y-7553031D01*
X4010658Y-7553031D02*
X4020182Y-7572079D01*
X4020182Y-7572079D02*
X4029705Y-7610174D01*
X4029705Y-7610174D02*
X4029705Y-7657793D01*
X4029705Y-7657793D02*
X4020182Y-7695888D01*
X4020182Y-7695888D02*
X4010658Y-7714936D01*
X4010658Y-7714936D02*
X4001134Y-7724460D01*
X4001134Y-7724460D02*
X3982086Y-7733984D01*
X3982086Y-7733984D02*
X3963039Y-7733984D01*
X3963039Y-7733984D02*
X3943991Y-7724460D01*
X3943991Y-7724460D02*
X3934467Y-7714936D01*
X3934467Y-7714936D02*
X3924943Y-7695888D01*
X3924943Y-7695888D02*
X3915420Y-7657793D01*
X3915420Y-7657793D02*
X3915420Y-7610174D01*
X3915420Y-7610174D02*
X3924943Y-7572079D01*
X3924943Y-7572079D02*
X3934467Y-7553031D01*
X3934467Y-7553031D02*
X3943991Y-7543508D01*
X3943991Y-7543508D02*
X3963039Y-7533984D01*
X4115420Y-7733984D02*
X4115420Y-7600650D01*
X4115420Y-7619698D02*
X4124943Y-7610174D01*
X4124943Y-7610174D02*
X4143991Y-7600650D01*
X4143991Y-7600650D02*
X4172563Y-7600650D01*
X4172563Y-7600650D02*
X4191610Y-7610174D01*
X4191610Y-7610174D02*
X4201134Y-7629222D01*
X4201134Y-7629222D02*
X4201134Y-7733984D01*
X4201134Y-7629222D02*
X4210658Y-7610174D01*
X4210658Y-7610174D02*
X4229705Y-7600650D01*
X4229705Y-7600650D02*
X4258277Y-7600650D01*
X4258277Y-7600650D02*
X4277325Y-7610174D01*
X4277325Y-7610174D02*
X4286848Y-7629222D01*
X4286848Y-7629222D02*
X4286848Y-7733984D01*
X4382086Y-7733984D02*
X4382086Y-7600650D01*
X4382086Y-7619698D02*
X4391610Y-7610174D01*
X4391610Y-7610174D02*
X4410658Y-7600650D01*
X4410658Y-7600650D02*
X4439229Y-7600650D01*
X4439229Y-7600650D02*
X4458277Y-7610174D01*
X4458277Y-7610174D02*
X4467801Y-7629222D01*
X4467801Y-7629222D02*
X4467801Y-7733984D01*
X4467801Y-7629222D02*
X4477325Y-7610174D01*
X4477325Y-7610174D02*
X4496372Y-7600650D01*
X4496372Y-7600650D02*
X4524944Y-7600650D01*
X4524944Y-7600650D02*
X4543991Y-7610174D01*
X4543991Y-7610174D02*
X4553515Y-7629222D01*
X4553515Y-7629222D02*
X4553515Y-7733984D01*
X4943991Y-7524460D02*
X4772563Y-7781603D01*
X5201134Y-7533984D02*
X5220182Y-7533984D01*
X5220182Y-7533984D02*
X5239229Y-7543508D01*
X5239229Y-7543508D02*
X5248753Y-7553031D01*
X5248753Y-7553031D02*
X5258277Y-7572079D01*
X5258277Y-7572079D02*
X5267801Y-7610174D01*
X5267801Y-7610174D02*
X5267801Y-7657793D01*
X5267801Y-7657793D02*
X5258277Y-7695888D01*
X5258277Y-7695888D02*
X5248753Y-7714936D01*
X5248753Y-7714936D02*
X5239229Y-7724460D01*
X5239229Y-7724460D02*
X5220182Y-7733984D01*
X5220182Y-7733984D02*
X5201134Y-7733984D01*
X5201134Y-7733984D02*
X5182087Y-7724460D01*
X5182087Y-7724460D02*
X5172563Y-7714936D01*
X5172563Y-7714936D02*
X5163039Y-7695888D01*
X5163039Y-7695888D02*
X5153515Y-7657793D01*
X5153515Y-7657793D02*
X5153515Y-7610174D01*
X5153515Y-7610174D02*
X5163039Y-7572079D01*
X5163039Y-7572079D02*
X5172563Y-7553031D01*
X5172563Y-7553031D02*
X5182087Y-7543508D01*
X5182087Y-7543508D02*
X5201134Y-7533984D01*
X5353515Y-7714936D02*
X5363039Y-7724460D01*
X5363039Y-7724460D02*
X5353515Y-7733984D01*
X5353515Y-7733984D02*
X5343991Y-7724460D01*
X5343991Y-7724460D02*
X5353515Y-7714936D01*
X5353515Y-7714936D02*
X5353515Y-7733984D01*
X5486848Y-7533984D02*
X5505896Y-7533984D01*
X5505896Y-7533984D02*
X5524944Y-7543508D01*
X5524944Y-7543508D02*
X5534468Y-7553031D01*
X5534468Y-7553031D02*
X5543991Y-7572079D01*
X5543991Y-7572079D02*
X5553515Y-7610174D01*
X5553515Y-7610174D02*
X5553515Y-7657793D01*
X5553515Y-7657793D02*
X5543991Y-7695888D01*
X5543991Y-7695888D02*
X5534468Y-7714936D01*
X5534468Y-7714936D02*
X5524944Y-7724460D01*
X5524944Y-7724460D02*
X5505896Y-7733984D01*
X5505896Y-7733984D02*
X5486848Y-7733984D01*
X5486848Y-7733984D02*
X5467801Y-7724460D01*
X5467801Y-7724460D02*
X5458277Y-7714936D01*
X5458277Y-7714936D02*
X5448753Y-7695888D01*
X5448753Y-7695888D02*
X5439229Y-7657793D01*
X5439229Y-7657793D02*
X5439229Y-7610174D01*
X5439229Y-7610174D02*
X5448753Y-7572079D01*
X5448753Y-7572079D02*
X5458277Y-7553031D01*
X5458277Y-7553031D02*
X5467801Y-7543508D01*
X5467801Y-7543508D02*
X5486848Y-7533984D01*
X5743991Y-7733984D02*
X5629706Y-7733984D01*
X5686848Y-7733984D02*
X5686848Y-7533984D01*
X5686848Y-7533984D02*
X5667801Y-7562555D01*
X5667801Y-7562555D02*
X5648753Y-7581603D01*
X5648753Y-7581603D02*
X5629706Y-7591127D01*
X5934467Y-7733984D02*
X5820182Y-7733984D01*
X5877325Y-7733984D02*
X5877325Y-7533984D01*
X5877325Y-7533984D02*
X5858277Y-7562555D01*
X5858277Y-7562555D02*
X5839229Y-7581603D01*
X5839229Y-7581603D02*
X5820182Y-7591127D01*
X6048753Y-7619698D02*
X6029706Y-7610174D01*
X6029706Y-7610174D02*
X6020182Y-7600650D01*
X6020182Y-7600650D02*
X6010658Y-7581603D01*
X6010658Y-7581603D02*
X6010658Y-7572079D01*
X6010658Y-7572079D02*
X6020182Y-7553031D01*
X6020182Y-7553031D02*
X6029706Y-7543508D01*
X6029706Y-7543508D02*
X6048753Y-7533984D01*
X6048753Y-7533984D02*
X6086848Y-7533984D01*
X6086848Y-7533984D02*
X6105896Y-7543508D01*
X6105896Y-7543508D02*
X6115420Y-7553031D01*
X6115420Y-7553031D02*
X6124944Y-7572079D01*
X6124944Y-7572079D02*
X6124944Y-7581603D01*
X6124944Y-7581603D02*
X6115420Y-7600650D01*
X6115420Y-7600650D02*
X6105896Y-7610174D01*
X6105896Y-7610174D02*
X6086848Y-7619698D01*
X6086848Y-7619698D02*
X6048753Y-7619698D01*
X6048753Y-7619698D02*
X6029706Y-7629222D01*
X6029706Y-7629222D02*
X6020182Y-7638746D01*
X6020182Y-7638746D02*
X6010658Y-7657793D01*
X6010658Y-7657793D02*
X6010658Y-7695888D01*
X6010658Y-7695888D02*
X6020182Y-7714936D01*
X6020182Y-7714936D02*
X6029706Y-7724460D01*
X6029706Y-7724460D02*
X6048753Y-7733984D01*
X6048753Y-7733984D02*
X6086848Y-7733984D01*
X6086848Y-7733984D02*
X6105896Y-7724460D01*
X6105896Y-7724460D02*
X6115420Y-7714936D01*
X6115420Y-7714936D02*
X6124944Y-7695888D01*
X6124944Y-7695888D02*
X6124944Y-7657793D01*
X6124944Y-7657793D02*
X6115420Y-7638746D01*
X6115420Y-7638746D02*
X6105896Y-7629222D01*
X6105896Y-7629222D02*
X6086848Y-7619698D01*
X6201134Y-7533984D02*
X6201134Y-7572079D01*
X6277325Y-7533984D02*
X6277325Y-7572079D01*
X6572563Y-7810174D02*
X6563039Y-7800650D01*
X6563039Y-7800650D02*
X6543991Y-7772079D01*
X6543991Y-7772079D02*
X6534468Y-7753031D01*
X6534468Y-7753031D02*
X6524944Y-7724460D01*
X6524944Y-7724460D02*
X6515420Y-7676841D01*
X6515420Y-7676841D02*
X6515420Y-7638746D01*
X6515420Y-7638746D02*
X6524944Y-7591127D01*
X6524944Y-7591127D02*
X6534468Y-7562555D01*
X6534468Y-7562555D02*
X6543991Y-7543508D01*
X6543991Y-7543508D02*
X6563039Y-7514936D01*
X6563039Y-7514936D02*
X6572563Y-7505412D01*
X6639229Y-7553031D02*
X6648753Y-7543508D01*
X6648753Y-7543508D02*
X6667801Y-7533984D01*
X6667801Y-7533984D02*
X6715420Y-7533984D01*
X6715420Y-7533984D02*
X6734468Y-7543508D01*
X6734468Y-7543508D02*
X6743991Y-7553031D01*
X6743991Y-7553031D02*
X6753515Y-7572079D01*
X6753515Y-7572079D02*
X6753515Y-7591127D01*
X6753515Y-7591127D02*
X6743991Y-7619698D01*
X6743991Y-7619698D02*
X6629706Y-7733984D01*
X6629706Y-7733984D02*
X6753515Y-7733984D01*
X6934468Y-7533984D02*
X6839229Y-7533984D01*
X6839229Y-7533984D02*
X6829706Y-7629222D01*
X6829706Y-7629222D02*
X6839229Y-7619698D01*
X6839229Y-7619698D02*
X6858277Y-7610174D01*
X6858277Y-7610174D02*
X6905896Y-7610174D01*
X6905896Y-7610174D02*
X6924944Y-7619698D01*
X6924944Y-7619698D02*
X6934468Y-7629222D01*
X6934468Y-7629222D02*
X6943991Y-7648269D01*
X6943991Y-7648269D02*
X6943991Y-7695888D01*
X6943991Y-7695888D02*
X6934468Y-7714936D01*
X6934468Y-7714936D02*
X6924944Y-7724460D01*
X6924944Y-7724460D02*
X6905896Y-7733984D01*
X6905896Y-7733984D02*
X6858277Y-7733984D01*
X6858277Y-7733984D02*
X6839229Y-7724460D01*
X6839229Y-7724460D02*
X6829706Y-7714936D01*
X7182087Y-7733984D02*
X7182087Y-7533984D01*
X7267801Y-7733984D02*
X7267801Y-7629222D01*
X7267801Y-7629222D02*
X7258277Y-7610174D01*
X7258277Y-7610174D02*
X7239230Y-7600650D01*
X7239230Y-7600650D02*
X7210658Y-7600650D01*
X7210658Y-7600650D02*
X7191610Y-7610174D01*
X7191610Y-7610174D02*
X7182087Y-7619698D01*
X7391610Y-7733984D02*
X7372563Y-7724460D01*
X7372563Y-7724460D02*
X7363039Y-7714936D01*
X7363039Y-7714936D02*
X7353515Y-7695888D01*
X7353515Y-7695888D02*
X7353515Y-7638746D01*
X7353515Y-7638746D02*
X7363039Y-7619698D01*
X7363039Y-7619698D02*
X7372563Y-7610174D01*
X7372563Y-7610174D02*
X7391610Y-7600650D01*
X7391610Y-7600650D02*
X7420182Y-7600650D01*
X7420182Y-7600650D02*
X7439230Y-7610174D01*
X7439230Y-7610174D02*
X7448753Y-7619698D01*
X7448753Y-7619698D02*
X7458277Y-7638746D01*
X7458277Y-7638746D02*
X7458277Y-7695888D01*
X7458277Y-7695888D02*
X7448753Y-7714936D01*
X7448753Y-7714936D02*
X7439230Y-7724460D01*
X7439230Y-7724460D02*
X7420182Y-7733984D01*
X7420182Y-7733984D02*
X7391610Y-7733984D01*
X7572563Y-7733984D02*
X7553515Y-7724460D01*
X7553515Y-7724460D02*
X7543991Y-7705412D01*
X7543991Y-7705412D02*
X7543991Y-7533984D01*
X7724944Y-7724460D02*
X7705896Y-7733984D01*
X7705896Y-7733984D02*
X7667801Y-7733984D01*
X7667801Y-7733984D02*
X7648753Y-7724460D01*
X7648753Y-7724460D02*
X7639230Y-7705412D01*
X7639230Y-7705412D02*
X7639230Y-7629222D01*
X7639230Y-7629222D02*
X7648753Y-7610174D01*
X7648753Y-7610174D02*
X7667801Y-7600650D01*
X7667801Y-7600650D02*
X7705896Y-7600650D01*
X7705896Y-7600650D02*
X7724944Y-7610174D01*
X7724944Y-7610174D02*
X7734468Y-7629222D01*
X7734468Y-7629222D02*
X7734468Y-7648269D01*
X7734468Y-7648269D02*
X7639230Y-7667317D01*
X7810658Y-7724460D02*
X7829706Y-7733984D01*
X7829706Y-7733984D02*
X7867801Y-7733984D01*
X7867801Y-7733984D02*
X7886849Y-7724460D01*
X7886849Y-7724460D02*
X7896372Y-7705412D01*
X7896372Y-7705412D02*
X7896372Y-7695888D01*
X7896372Y-7695888D02*
X7886849Y-7676841D01*
X7886849Y-7676841D02*
X7867801Y-7667317D01*
X7867801Y-7667317D02*
X7839230Y-7667317D01*
X7839230Y-7667317D02*
X7820182Y-7657793D01*
X7820182Y-7657793D02*
X7810658Y-7638746D01*
X7810658Y-7638746D02*
X7810658Y-7629222D01*
X7810658Y-7629222D02*
X7820182Y-7610174D01*
X7820182Y-7610174D02*
X7839230Y-7600650D01*
X7839230Y-7600650D02*
X7867801Y-7600650D01*
X7867801Y-7600650D02*
X7886849Y-7610174D01*
X7963039Y-7810174D02*
X7972563Y-7800650D01*
X7972563Y-7800650D02*
X7991611Y-7772079D01*
X7991611Y-7772079D02*
X8001134Y-7753031D01*
X8001134Y-7753031D02*
X8010658Y-7724460D01*
X8010658Y-7724460D02*
X8020182Y-7676841D01*
X8020182Y-7676841D02*
X8020182Y-7638746D01*
X8020182Y-7638746D02*
X8010658Y-7591127D01*
X8010658Y-7591127D02*
X8001134Y-7562555D01*
X8001134Y-7562555D02*
X7991611Y-7543508D01*
X7991611Y-7543508D02*
X7972563Y-7514936D01*
X7972563Y-7514936D02*
X7963039Y-7505412D01*
D12*
X2997500Y-7906500D02*
G75*
G02*
X2967500Y-7906500I-15000J0D01*
G01*
X2967500Y-7906500D02*
G75*
G02*
X2997500Y-7906500I15000J0D01*
G01*
D11*
X3296372Y-7797984D02*
X3315420Y-7797984D01*
X3315420Y-7797984D02*
X3334467Y-7807508D01*
X3334467Y-7807508D02*
X3343991Y-7817031D01*
X3343991Y-7817031D02*
X3353515Y-7836079D01*
X3353515Y-7836079D02*
X3363039Y-7874174D01*
X3363039Y-7874174D02*
X3363039Y-7921793D01*
X3363039Y-7921793D02*
X3353515Y-7959888D01*
X3353515Y-7959888D02*
X3343991Y-7978936D01*
X3343991Y-7978936D02*
X3334467Y-7988460D01*
X3334467Y-7988460D02*
X3315420Y-7997984D01*
X3315420Y-7997984D02*
X3296372Y-7997984D01*
X3296372Y-7997984D02*
X3277324Y-7988460D01*
X3277324Y-7988460D02*
X3267801Y-7978936D01*
X3267801Y-7978936D02*
X3258277Y-7959888D01*
X3258277Y-7959888D02*
X3248753Y-7921793D01*
X3248753Y-7921793D02*
X3248753Y-7874174D01*
X3248753Y-7874174D02*
X3258277Y-7836079D01*
X3258277Y-7836079D02*
X3267801Y-7817031D01*
X3267801Y-7817031D02*
X3277324Y-7807508D01*
X3277324Y-7807508D02*
X3296372Y-7797984D01*
X3448753Y-7978936D02*
X3458277Y-7988460D01*
X3458277Y-7988460D02*
X3448753Y-7997984D01*
X3448753Y-7997984D02*
X3439229Y-7988460D01*
X3439229Y-7988460D02*
X3448753Y-7978936D01*
X3448753Y-7978936D02*
X3448753Y-7997984D01*
X3524943Y-7797984D02*
X3648753Y-7797984D01*
X3648753Y-7797984D02*
X3582086Y-7874174D01*
X3582086Y-7874174D02*
X3610658Y-7874174D01*
X3610658Y-7874174D02*
X3629705Y-7883698D01*
X3629705Y-7883698D02*
X3639229Y-7893222D01*
X3639229Y-7893222D02*
X3648753Y-7912269D01*
X3648753Y-7912269D02*
X3648753Y-7959888D01*
X3648753Y-7959888D02*
X3639229Y-7978936D01*
X3639229Y-7978936D02*
X3629705Y-7988460D01*
X3629705Y-7988460D02*
X3610658Y-7997984D01*
X3610658Y-7997984D02*
X3553515Y-7997984D01*
X3553515Y-7997984D02*
X3534467Y-7988460D01*
X3534467Y-7988460D02*
X3524943Y-7978936D01*
X3772562Y-7797984D02*
X3791610Y-7797984D01*
X3791610Y-7797984D02*
X3810658Y-7807508D01*
X3810658Y-7807508D02*
X3820182Y-7817031D01*
X3820182Y-7817031D02*
X3829705Y-7836079D01*
X3829705Y-7836079D02*
X3839229Y-7874174D01*
X3839229Y-7874174D02*
X3839229Y-7921793D01*
X3839229Y-7921793D02*
X3829705Y-7959888D01*
X3829705Y-7959888D02*
X3820182Y-7978936D01*
X3820182Y-7978936D02*
X3810658Y-7988460D01*
X3810658Y-7988460D02*
X3791610Y-7997984D01*
X3791610Y-7997984D02*
X3772562Y-7997984D01*
X3772562Y-7997984D02*
X3753515Y-7988460D01*
X3753515Y-7988460D02*
X3743991Y-7978936D01*
X3743991Y-7978936D02*
X3734467Y-7959888D01*
X3734467Y-7959888D02*
X3724943Y-7921793D01*
X3724943Y-7921793D02*
X3724943Y-7874174D01*
X3724943Y-7874174D02*
X3734467Y-7836079D01*
X3734467Y-7836079D02*
X3743991Y-7817031D01*
X3743991Y-7817031D02*
X3753515Y-7807508D01*
X3753515Y-7807508D02*
X3772562Y-7797984D01*
X3963039Y-7797984D02*
X3982086Y-7797984D01*
X3982086Y-7797984D02*
X4001134Y-7807508D01*
X4001134Y-7807508D02*
X4010658Y-7817031D01*
X4010658Y-7817031D02*
X4020182Y-7836079D01*
X4020182Y-7836079D02*
X4029705Y-7874174D01*
X4029705Y-7874174D02*
X4029705Y-7921793D01*
X4029705Y-7921793D02*
X4020182Y-7959888D01*
X4020182Y-7959888D02*
X4010658Y-7978936D01*
X4010658Y-7978936D02*
X4001134Y-7988460D01*
X4001134Y-7988460D02*
X3982086Y-7997984D01*
X3982086Y-7997984D02*
X3963039Y-7997984D01*
X3963039Y-7997984D02*
X3943991Y-7988460D01*
X3943991Y-7988460D02*
X3934467Y-7978936D01*
X3934467Y-7978936D02*
X3924943Y-7959888D01*
X3924943Y-7959888D02*
X3915420Y-7921793D01*
X3915420Y-7921793D02*
X3915420Y-7874174D01*
X3915420Y-7874174D02*
X3924943Y-7836079D01*
X3924943Y-7836079D02*
X3934467Y-7817031D01*
X3934467Y-7817031D02*
X3943991Y-7807508D01*
X3943991Y-7807508D02*
X3963039Y-7797984D01*
X4115420Y-7997984D02*
X4115420Y-7864650D01*
X4115420Y-7883698D02*
X4124943Y-7874174D01*
X4124943Y-7874174D02*
X4143991Y-7864650D01*
X4143991Y-7864650D02*
X4172563Y-7864650D01*
X4172563Y-7864650D02*
X4191610Y-7874174D01*
X4191610Y-7874174D02*
X4201134Y-7893222D01*
X4201134Y-7893222D02*
X4201134Y-7997984D01*
X4201134Y-7893222D02*
X4210658Y-7874174D01*
X4210658Y-7874174D02*
X4229705Y-7864650D01*
X4229705Y-7864650D02*
X4258277Y-7864650D01*
X4258277Y-7864650D02*
X4277325Y-7874174D01*
X4277325Y-7874174D02*
X4286848Y-7893222D01*
X4286848Y-7893222D02*
X4286848Y-7997984D01*
X4382086Y-7997984D02*
X4382086Y-7864650D01*
X4382086Y-7883698D02*
X4391610Y-7874174D01*
X4391610Y-7874174D02*
X4410658Y-7864650D01*
X4410658Y-7864650D02*
X4439229Y-7864650D01*
X4439229Y-7864650D02*
X4458277Y-7874174D01*
X4458277Y-7874174D02*
X4467801Y-7893222D01*
X4467801Y-7893222D02*
X4467801Y-7997984D01*
X4467801Y-7893222D02*
X4477325Y-7874174D01*
X4477325Y-7874174D02*
X4496372Y-7864650D01*
X4496372Y-7864650D02*
X4524944Y-7864650D01*
X4524944Y-7864650D02*
X4543991Y-7874174D01*
X4543991Y-7874174D02*
X4553515Y-7893222D01*
X4553515Y-7893222D02*
X4553515Y-7997984D01*
X4943991Y-7788460D02*
X4772563Y-8045603D01*
X5201134Y-7797984D02*
X5220182Y-7797984D01*
X5220182Y-7797984D02*
X5239229Y-7807508D01*
X5239229Y-7807508D02*
X5248753Y-7817031D01*
X5248753Y-7817031D02*
X5258277Y-7836079D01*
X5258277Y-7836079D02*
X5267801Y-7874174D01*
X5267801Y-7874174D02*
X5267801Y-7921793D01*
X5267801Y-7921793D02*
X5258277Y-7959888D01*
X5258277Y-7959888D02*
X5248753Y-7978936D01*
X5248753Y-7978936D02*
X5239229Y-7988460D01*
X5239229Y-7988460D02*
X5220182Y-7997984D01*
X5220182Y-7997984D02*
X5201134Y-7997984D01*
X5201134Y-7997984D02*
X5182087Y-7988460D01*
X5182087Y-7988460D02*
X5172563Y-7978936D01*
X5172563Y-7978936D02*
X5163039Y-7959888D01*
X5163039Y-7959888D02*
X5153515Y-7921793D01*
X5153515Y-7921793D02*
X5153515Y-7874174D01*
X5153515Y-7874174D02*
X5163039Y-7836079D01*
X5163039Y-7836079D02*
X5172563Y-7817031D01*
X5172563Y-7817031D02*
X5182087Y-7807508D01*
X5182087Y-7807508D02*
X5201134Y-7797984D01*
X5353515Y-7978936D02*
X5363039Y-7988460D01*
X5363039Y-7988460D02*
X5353515Y-7997984D01*
X5353515Y-7997984D02*
X5343991Y-7988460D01*
X5343991Y-7988460D02*
X5353515Y-7978936D01*
X5353515Y-7978936D02*
X5353515Y-7997984D01*
X5486848Y-7797984D02*
X5505896Y-7797984D01*
X5505896Y-7797984D02*
X5524944Y-7807508D01*
X5524944Y-7807508D02*
X5534468Y-7817031D01*
X5534468Y-7817031D02*
X5543991Y-7836079D01*
X5543991Y-7836079D02*
X5553515Y-7874174D01*
X5553515Y-7874174D02*
X5553515Y-7921793D01*
X5553515Y-7921793D02*
X5543991Y-7959888D01*
X5543991Y-7959888D02*
X5534468Y-7978936D01*
X5534468Y-7978936D02*
X5524944Y-7988460D01*
X5524944Y-7988460D02*
X5505896Y-7997984D01*
X5505896Y-7997984D02*
X5486848Y-7997984D01*
X5486848Y-7997984D02*
X5467801Y-7988460D01*
X5467801Y-7988460D02*
X5458277Y-7978936D01*
X5458277Y-7978936D02*
X5448753Y-7959888D01*
X5448753Y-7959888D02*
X5439229Y-7921793D01*
X5439229Y-7921793D02*
X5439229Y-7874174D01*
X5439229Y-7874174D02*
X5448753Y-7836079D01*
X5448753Y-7836079D02*
X5458277Y-7817031D01*
X5458277Y-7817031D02*
X5467801Y-7807508D01*
X5467801Y-7807508D02*
X5486848Y-7797984D01*
X5743991Y-7997984D02*
X5629706Y-7997984D01*
X5686848Y-7997984D02*
X5686848Y-7797984D01*
X5686848Y-7797984D02*
X5667801Y-7826555D01*
X5667801Y-7826555D02*
X5648753Y-7845603D01*
X5648753Y-7845603D02*
X5629706Y-7855127D01*
X5934467Y-7997984D02*
X5820182Y-7997984D01*
X5877325Y-7997984D02*
X5877325Y-7797984D01*
X5877325Y-7797984D02*
X5858277Y-7826555D01*
X5858277Y-7826555D02*
X5839229Y-7845603D01*
X5839229Y-7845603D02*
X5820182Y-7855127D01*
X6048753Y-7883698D02*
X6029706Y-7874174D01*
X6029706Y-7874174D02*
X6020182Y-7864650D01*
X6020182Y-7864650D02*
X6010658Y-7845603D01*
X6010658Y-7845603D02*
X6010658Y-7836079D01*
X6010658Y-7836079D02*
X6020182Y-7817031D01*
X6020182Y-7817031D02*
X6029706Y-7807508D01*
X6029706Y-7807508D02*
X6048753Y-7797984D01*
X6048753Y-7797984D02*
X6086848Y-7797984D01*
X6086848Y-7797984D02*
X6105896Y-7807508D01*
X6105896Y-7807508D02*
X6115420Y-7817031D01*
X6115420Y-7817031D02*
X6124944Y-7836079D01*
X6124944Y-7836079D02*
X6124944Y-7845603D01*
X6124944Y-7845603D02*
X6115420Y-7864650D01*
X6115420Y-7864650D02*
X6105896Y-7874174D01*
X6105896Y-7874174D02*
X6086848Y-7883698D01*
X6086848Y-7883698D02*
X6048753Y-7883698D01*
X6048753Y-7883698D02*
X6029706Y-7893222D01*
X6029706Y-7893222D02*
X6020182Y-7902746D01*
X6020182Y-7902746D02*
X6010658Y-7921793D01*
X6010658Y-7921793D02*
X6010658Y-7959888D01*
X6010658Y-7959888D02*
X6020182Y-7978936D01*
X6020182Y-7978936D02*
X6029706Y-7988460D01*
X6029706Y-7988460D02*
X6048753Y-7997984D01*
X6048753Y-7997984D02*
X6086848Y-7997984D01*
X6086848Y-7997984D02*
X6105896Y-7988460D01*
X6105896Y-7988460D02*
X6115420Y-7978936D01*
X6115420Y-7978936D02*
X6124944Y-7959888D01*
X6124944Y-7959888D02*
X6124944Y-7921793D01*
X6124944Y-7921793D02*
X6115420Y-7902746D01*
X6115420Y-7902746D02*
X6105896Y-7893222D01*
X6105896Y-7893222D02*
X6086848Y-7883698D01*
X6201134Y-7797984D02*
X6201134Y-7836079D01*
X6277325Y-7797984D02*
X6277325Y-7836079D01*
X6572563Y-8074174D02*
X6563039Y-8064650D01*
X6563039Y-8064650D02*
X6543991Y-8036079D01*
X6543991Y-8036079D02*
X6534468Y-8017031D01*
X6534468Y-8017031D02*
X6524944Y-7988460D01*
X6524944Y-7988460D02*
X6515420Y-7940841D01*
X6515420Y-7940841D02*
X6515420Y-7902746D01*
X6515420Y-7902746D02*
X6524944Y-7855127D01*
X6524944Y-7855127D02*
X6534468Y-7826555D01*
X6534468Y-7826555D02*
X6543991Y-7807508D01*
X6543991Y-7807508D02*
X6563039Y-7778936D01*
X6563039Y-7778936D02*
X6572563Y-7769412D01*
X6629706Y-7797984D02*
X6763039Y-7797984D01*
X6763039Y-7797984D02*
X6677325Y-7997984D01*
X6991610Y-7997984D02*
X6991610Y-7797984D01*
X7077325Y-7997984D02*
X7077325Y-7893222D01*
X7077325Y-7893222D02*
X7067801Y-7874174D01*
X7067801Y-7874174D02*
X7048753Y-7864650D01*
X7048753Y-7864650D02*
X7020182Y-7864650D01*
X7020182Y-7864650D02*
X7001134Y-7874174D01*
X7001134Y-7874174D02*
X6991610Y-7883698D01*
X7201134Y-7997984D02*
X7182087Y-7988460D01*
X7182087Y-7988460D02*
X7172563Y-7978936D01*
X7172563Y-7978936D02*
X7163039Y-7959888D01*
X7163039Y-7959888D02*
X7163039Y-7902746D01*
X7163039Y-7902746D02*
X7172563Y-7883698D01*
X7172563Y-7883698D02*
X7182087Y-7874174D01*
X7182087Y-7874174D02*
X7201134Y-7864650D01*
X7201134Y-7864650D02*
X7229706Y-7864650D01*
X7229706Y-7864650D02*
X7248753Y-7874174D01*
X7248753Y-7874174D02*
X7258277Y-7883698D01*
X7258277Y-7883698D02*
X7267801Y-7902746D01*
X7267801Y-7902746D02*
X7267801Y-7959888D01*
X7267801Y-7959888D02*
X7258277Y-7978936D01*
X7258277Y-7978936D02*
X7248753Y-7988460D01*
X7248753Y-7988460D02*
X7229706Y-7997984D01*
X7229706Y-7997984D02*
X7201134Y-7997984D01*
X7382087Y-7997984D02*
X7363039Y-7988460D01*
X7363039Y-7988460D02*
X7353515Y-7969412D01*
X7353515Y-7969412D02*
X7353515Y-7797984D01*
X7534468Y-7988460D02*
X7515420Y-7997984D01*
X7515420Y-7997984D02*
X7477325Y-7997984D01*
X7477325Y-7997984D02*
X7458277Y-7988460D01*
X7458277Y-7988460D02*
X7448753Y-7969412D01*
X7448753Y-7969412D02*
X7448753Y-7893222D01*
X7448753Y-7893222D02*
X7458277Y-7874174D01*
X7458277Y-7874174D02*
X7477325Y-7864650D01*
X7477325Y-7864650D02*
X7515420Y-7864650D01*
X7515420Y-7864650D02*
X7534468Y-7874174D01*
X7534468Y-7874174D02*
X7543991Y-7893222D01*
X7543991Y-7893222D02*
X7543991Y-7912269D01*
X7543991Y-7912269D02*
X7448753Y-7931317D01*
X7620182Y-7988460D02*
X7639230Y-7997984D01*
X7639230Y-7997984D02*
X7677325Y-7997984D01*
X7677325Y-7997984D02*
X7696372Y-7988460D01*
X7696372Y-7988460D02*
X7705896Y-7969412D01*
X7705896Y-7969412D02*
X7705896Y-7959888D01*
X7705896Y-7959888D02*
X7696372Y-7940841D01*
X7696372Y-7940841D02*
X7677325Y-7931317D01*
X7677325Y-7931317D02*
X7648753Y-7931317D01*
X7648753Y-7931317D02*
X7629706Y-7921793D01*
X7629706Y-7921793D02*
X7620182Y-7902746D01*
X7620182Y-7902746D02*
X7620182Y-7893222D01*
X7620182Y-7893222D02*
X7629706Y-7874174D01*
X7629706Y-7874174D02*
X7648753Y-7864650D01*
X7648753Y-7864650D02*
X7677325Y-7864650D01*
X7677325Y-7864650D02*
X7696372Y-7874174D01*
X7772563Y-8074174D02*
X7782087Y-8064650D01*
X7782087Y-8064650D02*
X7801134Y-8036079D01*
X7801134Y-8036079D02*
X7810658Y-8017031D01*
X7810658Y-8017031D02*
X7820182Y-7988460D01*
X7820182Y-7988460D02*
X7829706Y-7940841D01*
X7829706Y-7940841D02*
X7829706Y-7902746D01*
X7829706Y-7902746D02*
X7820182Y-7855127D01*
X7820182Y-7855127D02*
X7810658Y-7826555D01*
X7810658Y-7826555D02*
X7801134Y-7807508D01*
X7801134Y-7807508D02*
X7782087Y-7778936D01*
X7782087Y-7778936D02*
X7772563Y-7769412D01*
D12*
X2947500Y-8120500D02*
X2947500Y-8220500D01*
X2897500Y-8170500D02*
X2997500Y-8170500D01*
D11*
X3363039Y-8261984D02*
X3248753Y-8261984D01*
X3305896Y-8261984D02*
X3305896Y-8061984D01*
X3305896Y-8061984D02*
X3286848Y-8090555D01*
X3286848Y-8090555D02*
X3267801Y-8109603D01*
X3267801Y-8109603D02*
X3248753Y-8119127D01*
X3448753Y-8242936D02*
X3458277Y-8252460D01*
X3458277Y-8252460D02*
X3448753Y-8261984D01*
X3448753Y-8261984D02*
X3439229Y-8252460D01*
X3439229Y-8252460D02*
X3448753Y-8242936D01*
X3448753Y-8242936D02*
X3448753Y-8261984D01*
X3582086Y-8061984D02*
X3601134Y-8061984D01*
X3601134Y-8061984D02*
X3620182Y-8071508D01*
X3620182Y-8071508D02*
X3629705Y-8081031D01*
X3629705Y-8081031D02*
X3639229Y-8100079D01*
X3639229Y-8100079D02*
X3648753Y-8138174D01*
X3648753Y-8138174D02*
X3648753Y-8185793D01*
X3648753Y-8185793D02*
X3639229Y-8223888D01*
X3639229Y-8223888D02*
X3629705Y-8242936D01*
X3629705Y-8242936D02*
X3620182Y-8252460D01*
X3620182Y-8252460D02*
X3601134Y-8261984D01*
X3601134Y-8261984D02*
X3582086Y-8261984D01*
X3582086Y-8261984D02*
X3563039Y-8252460D01*
X3563039Y-8252460D02*
X3553515Y-8242936D01*
X3553515Y-8242936D02*
X3543991Y-8223888D01*
X3543991Y-8223888D02*
X3534467Y-8185793D01*
X3534467Y-8185793D02*
X3534467Y-8138174D01*
X3534467Y-8138174D02*
X3543991Y-8100079D01*
X3543991Y-8100079D02*
X3553515Y-8081031D01*
X3553515Y-8081031D02*
X3563039Y-8071508D01*
X3563039Y-8071508D02*
X3582086Y-8061984D01*
X3772562Y-8061984D02*
X3791610Y-8061984D01*
X3791610Y-8061984D02*
X3810658Y-8071508D01*
X3810658Y-8071508D02*
X3820182Y-8081031D01*
X3820182Y-8081031D02*
X3829705Y-8100079D01*
X3829705Y-8100079D02*
X3839229Y-8138174D01*
X3839229Y-8138174D02*
X3839229Y-8185793D01*
X3839229Y-8185793D02*
X3829705Y-8223888D01*
X3829705Y-8223888D02*
X3820182Y-8242936D01*
X3820182Y-8242936D02*
X3810658Y-8252460D01*
X3810658Y-8252460D02*
X3791610Y-8261984D01*
X3791610Y-8261984D02*
X3772562Y-8261984D01*
X3772562Y-8261984D02*
X3753515Y-8252460D01*
X3753515Y-8252460D02*
X3743991Y-8242936D01*
X3743991Y-8242936D02*
X3734467Y-8223888D01*
X3734467Y-8223888D02*
X3724943Y-8185793D01*
X3724943Y-8185793D02*
X3724943Y-8138174D01*
X3724943Y-8138174D02*
X3734467Y-8100079D01*
X3734467Y-8100079D02*
X3743991Y-8081031D01*
X3743991Y-8081031D02*
X3753515Y-8071508D01*
X3753515Y-8071508D02*
X3772562Y-8061984D01*
X3963039Y-8061984D02*
X3982086Y-8061984D01*
X3982086Y-8061984D02*
X4001134Y-8071508D01*
X4001134Y-8071508D02*
X4010658Y-8081031D01*
X4010658Y-8081031D02*
X4020182Y-8100079D01*
X4020182Y-8100079D02*
X4029705Y-8138174D01*
X4029705Y-8138174D02*
X4029705Y-8185793D01*
X4029705Y-8185793D02*
X4020182Y-8223888D01*
X4020182Y-8223888D02*
X4010658Y-8242936D01*
X4010658Y-8242936D02*
X4001134Y-8252460D01*
X4001134Y-8252460D02*
X3982086Y-8261984D01*
X3982086Y-8261984D02*
X3963039Y-8261984D01*
X3963039Y-8261984D02*
X3943991Y-8252460D01*
X3943991Y-8252460D02*
X3934467Y-8242936D01*
X3934467Y-8242936D02*
X3924943Y-8223888D01*
X3924943Y-8223888D02*
X3915420Y-8185793D01*
X3915420Y-8185793D02*
X3915420Y-8138174D01*
X3915420Y-8138174D02*
X3924943Y-8100079D01*
X3924943Y-8100079D02*
X3934467Y-8081031D01*
X3934467Y-8081031D02*
X3943991Y-8071508D01*
X3943991Y-8071508D02*
X3963039Y-8061984D01*
X4115420Y-8261984D02*
X4115420Y-8128650D01*
X4115420Y-8147698D02*
X4124943Y-8138174D01*
X4124943Y-8138174D02*
X4143991Y-8128650D01*
X4143991Y-8128650D02*
X4172563Y-8128650D01*
X4172563Y-8128650D02*
X4191610Y-8138174D01*
X4191610Y-8138174D02*
X4201134Y-8157222D01*
X4201134Y-8157222D02*
X4201134Y-8261984D01*
X4201134Y-8157222D02*
X4210658Y-8138174D01*
X4210658Y-8138174D02*
X4229705Y-8128650D01*
X4229705Y-8128650D02*
X4258277Y-8128650D01*
X4258277Y-8128650D02*
X4277325Y-8138174D01*
X4277325Y-8138174D02*
X4286848Y-8157222D01*
X4286848Y-8157222D02*
X4286848Y-8261984D01*
X4382086Y-8261984D02*
X4382086Y-8128650D01*
X4382086Y-8147698D02*
X4391610Y-8138174D01*
X4391610Y-8138174D02*
X4410658Y-8128650D01*
X4410658Y-8128650D02*
X4439229Y-8128650D01*
X4439229Y-8128650D02*
X4458277Y-8138174D01*
X4458277Y-8138174D02*
X4467801Y-8157222D01*
X4467801Y-8157222D02*
X4467801Y-8261984D01*
X4467801Y-8157222D02*
X4477325Y-8138174D01*
X4477325Y-8138174D02*
X4496372Y-8128650D01*
X4496372Y-8128650D02*
X4524944Y-8128650D01*
X4524944Y-8128650D02*
X4543991Y-8138174D01*
X4543991Y-8138174D02*
X4553515Y-8157222D01*
X4553515Y-8157222D02*
X4553515Y-8261984D01*
X4943991Y-8052460D02*
X4772563Y-8309603D01*
X5201134Y-8061984D02*
X5220182Y-8061984D01*
X5220182Y-8061984D02*
X5239229Y-8071508D01*
X5239229Y-8071508D02*
X5248753Y-8081031D01*
X5248753Y-8081031D02*
X5258277Y-8100079D01*
X5258277Y-8100079D02*
X5267801Y-8138174D01*
X5267801Y-8138174D02*
X5267801Y-8185793D01*
X5267801Y-8185793D02*
X5258277Y-8223888D01*
X5258277Y-8223888D02*
X5248753Y-8242936D01*
X5248753Y-8242936D02*
X5239229Y-8252460D01*
X5239229Y-8252460D02*
X5220182Y-8261984D01*
X5220182Y-8261984D02*
X5201134Y-8261984D01*
X5201134Y-8261984D02*
X5182087Y-8252460D01*
X5182087Y-8252460D02*
X5172563Y-8242936D01*
X5172563Y-8242936D02*
X5163039Y-8223888D01*
X5163039Y-8223888D02*
X5153515Y-8185793D01*
X5153515Y-8185793D02*
X5153515Y-8138174D01*
X5153515Y-8138174D02*
X5163039Y-8100079D01*
X5163039Y-8100079D02*
X5172563Y-8081031D01*
X5172563Y-8081031D02*
X5182087Y-8071508D01*
X5182087Y-8071508D02*
X5201134Y-8061984D01*
X5353515Y-8242936D02*
X5363039Y-8252460D01*
X5363039Y-8252460D02*
X5353515Y-8261984D01*
X5353515Y-8261984D02*
X5343991Y-8252460D01*
X5343991Y-8252460D02*
X5353515Y-8242936D01*
X5353515Y-8242936D02*
X5353515Y-8261984D01*
X5486848Y-8061984D02*
X5505896Y-8061984D01*
X5505896Y-8061984D02*
X5524944Y-8071508D01*
X5524944Y-8071508D02*
X5534468Y-8081031D01*
X5534468Y-8081031D02*
X5543991Y-8100079D01*
X5543991Y-8100079D02*
X5553515Y-8138174D01*
X5553515Y-8138174D02*
X5553515Y-8185793D01*
X5553515Y-8185793D02*
X5543991Y-8223888D01*
X5543991Y-8223888D02*
X5534468Y-8242936D01*
X5534468Y-8242936D02*
X5524944Y-8252460D01*
X5524944Y-8252460D02*
X5505896Y-8261984D01*
X5505896Y-8261984D02*
X5486848Y-8261984D01*
X5486848Y-8261984D02*
X5467801Y-8252460D01*
X5467801Y-8252460D02*
X5458277Y-8242936D01*
X5458277Y-8242936D02*
X5448753Y-8223888D01*
X5448753Y-8223888D02*
X5439229Y-8185793D01*
X5439229Y-8185793D02*
X5439229Y-8138174D01*
X5439229Y-8138174D02*
X5448753Y-8100079D01*
X5448753Y-8100079D02*
X5458277Y-8081031D01*
X5458277Y-8081031D02*
X5467801Y-8071508D01*
X5467801Y-8071508D02*
X5486848Y-8061984D01*
X5620182Y-8061984D02*
X5743991Y-8061984D01*
X5743991Y-8061984D02*
X5677325Y-8138174D01*
X5677325Y-8138174D02*
X5705896Y-8138174D01*
X5705896Y-8138174D02*
X5724944Y-8147698D01*
X5724944Y-8147698D02*
X5734467Y-8157222D01*
X5734467Y-8157222D02*
X5743991Y-8176269D01*
X5743991Y-8176269D02*
X5743991Y-8223888D01*
X5743991Y-8223888D02*
X5734467Y-8242936D01*
X5734467Y-8242936D02*
X5724944Y-8252460D01*
X5724944Y-8252460D02*
X5705896Y-8261984D01*
X5705896Y-8261984D02*
X5648753Y-8261984D01*
X5648753Y-8261984D02*
X5629706Y-8252460D01*
X5629706Y-8252460D02*
X5620182Y-8242936D01*
X5839229Y-8261984D02*
X5877325Y-8261984D01*
X5877325Y-8261984D02*
X5896372Y-8252460D01*
X5896372Y-8252460D02*
X5905896Y-8242936D01*
X5905896Y-8242936D02*
X5924944Y-8214365D01*
X5924944Y-8214365D02*
X5934467Y-8176269D01*
X5934467Y-8176269D02*
X5934467Y-8100079D01*
X5934467Y-8100079D02*
X5924944Y-8081031D01*
X5924944Y-8081031D02*
X5915420Y-8071508D01*
X5915420Y-8071508D02*
X5896372Y-8061984D01*
X5896372Y-8061984D02*
X5858277Y-8061984D01*
X5858277Y-8061984D02*
X5839229Y-8071508D01*
X5839229Y-8071508D02*
X5829706Y-8081031D01*
X5829706Y-8081031D02*
X5820182Y-8100079D01*
X5820182Y-8100079D02*
X5820182Y-8147698D01*
X5820182Y-8147698D02*
X5829706Y-8166746D01*
X5829706Y-8166746D02*
X5839229Y-8176269D01*
X5839229Y-8176269D02*
X5858277Y-8185793D01*
X5858277Y-8185793D02*
X5896372Y-8185793D01*
X5896372Y-8185793D02*
X5915420Y-8176269D01*
X5915420Y-8176269D02*
X5924944Y-8166746D01*
X5924944Y-8166746D02*
X5934467Y-8147698D01*
X6105896Y-8128650D02*
X6105896Y-8261984D01*
X6058277Y-8052460D02*
X6010658Y-8195317D01*
X6010658Y-8195317D02*
X6134467Y-8195317D01*
X6201134Y-8061984D02*
X6201134Y-8100079D01*
X6277325Y-8061984D02*
X6277325Y-8100079D01*
X6572563Y-8338174D02*
X6563039Y-8328650D01*
X6563039Y-8328650D02*
X6543991Y-8300079D01*
X6543991Y-8300079D02*
X6534468Y-8281031D01*
X6534468Y-8281031D02*
X6524944Y-8252460D01*
X6524944Y-8252460D02*
X6515420Y-8204841D01*
X6515420Y-8204841D02*
X6515420Y-8166746D01*
X6515420Y-8166746D02*
X6524944Y-8119127D01*
X6524944Y-8119127D02*
X6534468Y-8090555D01*
X6534468Y-8090555D02*
X6543991Y-8071508D01*
X6543991Y-8071508D02*
X6563039Y-8042936D01*
X6563039Y-8042936D02*
X6572563Y-8033412D01*
X6629706Y-8061984D02*
X6763039Y-8061984D01*
X6763039Y-8061984D02*
X6677325Y-8261984D01*
X6991610Y-8261984D02*
X6991610Y-8061984D01*
X7077325Y-8261984D02*
X7077325Y-8157222D01*
X7077325Y-8157222D02*
X7067801Y-8138174D01*
X7067801Y-8138174D02*
X7048753Y-8128650D01*
X7048753Y-8128650D02*
X7020182Y-8128650D01*
X7020182Y-8128650D02*
X7001134Y-8138174D01*
X7001134Y-8138174D02*
X6991610Y-8147698D01*
X7201134Y-8261984D02*
X7182087Y-8252460D01*
X7182087Y-8252460D02*
X7172563Y-8242936D01*
X7172563Y-8242936D02*
X7163039Y-8223888D01*
X7163039Y-8223888D02*
X7163039Y-8166746D01*
X7163039Y-8166746D02*
X7172563Y-8147698D01*
X7172563Y-8147698D02*
X7182087Y-8138174D01*
X7182087Y-8138174D02*
X7201134Y-8128650D01*
X7201134Y-8128650D02*
X7229706Y-8128650D01*
X7229706Y-8128650D02*
X7248753Y-8138174D01*
X7248753Y-8138174D02*
X7258277Y-8147698D01*
X7258277Y-8147698D02*
X7267801Y-8166746D01*
X7267801Y-8166746D02*
X7267801Y-8223888D01*
X7267801Y-8223888D02*
X7258277Y-8242936D01*
X7258277Y-8242936D02*
X7248753Y-8252460D01*
X7248753Y-8252460D02*
X7229706Y-8261984D01*
X7229706Y-8261984D02*
X7201134Y-8261984D01*
X7382087Y-8261984D02*
X7363039Y-8252460D01*
X7363039Y-8252460D02*
X7353515Y-8233412D01*
X7353515Y-8233412D02*
X7353515Y-8061984D01*
X7534468Y-8252460D02*
X7515420Y-8261984D01*
X7515420Y-8261984D02*
X7477325Y-8261984D01*
X7477325Y-8261984D02*
X7458277Y-8252460D01*
X7458277Y-8252460D02*
X7448753Y-8233412D01*
X7448753Y-8233412D02*
X7448753Y-8157222D01*
X7448753Y-8157222D02*
X7458277Y-8138174D01*
X7458277Y-8138174D02*
X7477325Y-8128650D01*
X7477325Y-8128650D02*
X7515420Y-8128650D01*
X7515420Y-8128650D02*
X7534468Y-8138174D01*
X7534468Y-8138174D02*
X7543991Y-8157222D01*
X7543991Y-8157222D02*
X7543991Y-8176269D01*
X7543991Y-8176269D02*
X7448753Y-8195317D01*
X7620182Y-8252460D02*
X7639230Y-8261984D01*
X7639230Y-8261984D02*
X7677325Y-8261984D01*
X7677325Y-8261984D02*
X7696372Y-8252460D01*
X7696372Y-8252460D02*
X7705896Y-8233412D01*
X7705896Y-8233412D02*
X7705896Y-8223888D01*
X7705896Y-8223888D02*
X7696372Y-8204841D01*
X7696372Y-8204841D02*
X7677325Y-8195317D01*
X7677325Y-8195317D02*
X7648753Y-8195317D01*
X7648753Y-8195317D02*
X7629706Y-8185793D01*
X7629706Y-8185793D02*
X7620182Y-8166746D01*
X7620182Y-8166746D02*
X7620182Y-8157222D01*
X7620182Y-8157222D02*
X7629706Y-8138174D01*
X7629706Y-8138174D02*
X7648753Y-8128650D01*
X7648753Y-8128650D02*
X7677325Y-8128650D01*
X7677325Y-8128650D02*
X7696372Y-8138174D01*
X7943992Y-8185793D02*
X8096373Y-8185793D01*
X8020182Y-8261984D02*
X8020182Y-8109603D01*
X8448754Y-8261984D02*
X8334468Y-8261984D01*
X8391611Y-8261984D02*
X8391611Y-8061984D01*
X8391611Y-8061984D02*
X8372563Y-8090555D01*
X8372563Y-8090555D02*
X8353515Y-8109603D01*
X8353515Y-8109603D02*
X8334468Y-8119127D01*
X8677325Y-8252460D02*
X8696373Y-8261984D01*
X8696373Y-8261984D02*
X8734468Y-8261984D01*
X8734468Y-8261984D02*
X8753516Y-8252460D01*
X8753516Y-8252460D02*
X8763039Y-8233412D01*
X8763039Y-8233412D02*
X8763039Y-8223888D01*
X8763039Y-8223888D02*
X8753516Y-8204841D01*
X8753516Y-8204841D02*
X8734468Y-8195317D01*
X8734468Y-8195317D02*
X8705896Y-8195317D01*
X8705896Y-8195317D02*
X8686849Y-8185793D01*
X8686849Y-8185793D02*
X8677325Y-8166746D01*
X8677325Y-8166746D02*
X8677325Y-8157222D01*
X8677325Y-8157222D02*
X8686849Y-8138174D01*
X8686849Y-8138174D02*
X8705896Y-8128650D01*
X8705896Y-8128650D02*
X8734468Y-8128650D01*
X8734468Y-8128650D02*
X8753516Y-8138174D01*
X8877325Y-8261984D02*
X8858277Y-8252460D01*
X8858277Y-8252460D02*
X8848754Y-8233412D01*
X8848754Y-8233412D02*
X8848754Y-8061984D01*
X8982087Y-8261984D02*
X8963039Y-8252460D01*
X8963039Y-8252460D02*
X8953516Y-8242936D01*
X8953516Y-8242936D02*
X8943992Y-8223888D01*
X8943992Y-8223888D02*
X8943992Y-8166746D01*
X8943992Y-8166746D02*
X8953516Y-8147698D01*
X8953516Y-8147698D02*
X8963039Y-8138174D01*
X8963039Y-8138174D02*
X8982087Y-8128650D01*
X8982087Y-8128650D02*
X9010658Y-8128650D01*
X9010658Y-8128650D02*
X9029706Y-8138174D01*
X9029706Y-8138174D02*
X9039230Y-8147698D01*
X9039230Y-8147698D02*
X9048754Y-8166746D01*
X9048754Y-8166746D02*
X9048754Y-8223888D01*
X9048754Y-8223888D02*
X9039230Y-8242936D01*
X9039230Y-8242936D02*
X9029706Y-8252460D01*
X9029706Y-8252460D02*
X9010658Y-8261984D01*
X9010658Y-8261984D02*
X8982087Y-8261984D01*
X9105897Y-8128650D02*
X9182087Y-8128650D01*
X9134468Y-8061984D02*
X9134468Y-8233412D01*
X9134468Y-8233412D02*
X9143992Y-8252460D01*
X9143992Y-8252460D02*
X9163039Y-8261984D01*
X9163039Y-8261984D02*
X9182087Y-8261984D01*
X9229706Y-8338174D02*
X9239230Y-8328650D01*
X9239230Y-8328650D02*
X9258277Y-8300079D01*
X9258277Y-8300079D02*
X9267801Y-8281031D01*
X9267801Y-8281031D02*
X9277325Y-8252460D01*
X9277325Y-8252460D02*
X9286849Y-8204841D01*
X9286849Y-8204841D02*
X9286849Y-8166746D01*
X9286849Y-8166746D02*
X9277325Y-8119127D01*
X9277325Y-8119127D02*
X9267801Y-8090555D01*
X9267801Y-8090555D02*
X9258277Y-8071508D01*
X9258277Y-8071508D02*
X9239230Y-8042936D01*
X9239230Y-8042936D02*
X9229706Y-8033412D01*
M02*
