%TF.GenerationSoftware,KiCad,Pcbnew,9.0.0*%
%TF.CreationDate,2025-02-26T13:29:23-06:00*%
%TF.ProjectId,reverse,72657665-7273-4652-9e6b-696361645f70,rev?*%
%TF.SameCoordinates,Original*%
%TF.FileFunction,Drillmap*%
%TF.FilePolarity,Positive*%
%FSLAX45Y45*%
G04 Gerber Fmt 4.5, Leading zero omitted, Abs format (unit mm)*
G04 Created by KiCad (PCBNEW 9.0.0) date 2025-02-26 13:29:23*
%MOMM*%
%LPD*%
G01*
G04 APERTURE LIST*
%ADD10C,0.100000*%
%ADD11C,0.200000*%
G04 APERTURE END LIST*
D10*
X7500000Y-5000000D02*
G75*
G02*
X2500000Y-5000000I-2500000J0D01*
G01*
X2500000Y-5000000D02*
G75*
G02*
X7500000Y-5000000I2500000J0D01*
G01*
D11*
D10*
X2702800Y-4840200D02*
X2732800Y-4870200D01*
X2732800Y-4840200D02*
X2702800Y-4870200D01*
X2717261Y-5111283D02*
X2747261Y-5141283D01*
X2747261Y-5111283D02*
X2717261Y-5141283D01*
X2793202Y-4323466D02*
X2823202Y-4353466D01*
X2823202Y-4323466D02*
X2793202Y-4353466D01*
X2815000Y-5623508D02*
X2845000Y-5653508D01*
X2845000Y-5623508D02*
X2815000Y-5653508D01*
X2845608Y-4062612D02*
X2875608Y-4092612D01*
X2875608Y-4062612D02*
X2845608Y-4092612D01*
X2903821Y-5930435D02*
X2933821Y-5960435D01*
X2933821Y-5930435D02*
X2903821Y-5960435D01*
X2905000Y-4267526D02*
X2935000Y-4297526D01*
X2935000Y-4267526D02*
X2905000Y-4297526D01*
X2905000Y-5068015D02*
X2935000Y-5098015D01*
X2935000Y-5068015D02*
X2905000Y-5098015D01*
X3128610Y-6375604D02*
X3158610Y-6405604D01*
X3158610Y-6375604D02*
X3128610Y-6405604D01*
X3128610Y-3594396D02*
X3158610Y-3624396D01*
X3158610Y-3594396D02*
X3128610Y-3624396D01*
X3191922Y-3544800D02*
X3221922Y-3574800D01*
X3221922Y-3544800D02*
X3191922Y-3574800D01*
X3254273Y-6500565D02*
X3284273Y-6530565D01*
X3284273Y-6500565D02*
X3254273Y-6530565D01*
X3319896Y-3395000D02*
X3349896Y-3425000D01*
X3349896Y-3395000D02*
X3319896Y-3425000D01*
X3320538Y-6581504D02*
X3350538Y-6611504D01*
X3350538Y-6581504D02*
X3320538Y-6611504D01*
X3718800Y-3062200D02*
X3748800Y-3092200D01*
X3748800Y-3062200D02*
X3718800Y-3092200D01*
X3724603Y-6911109D02*
X3754603Y-6941109D01*
X3754603Y-6911109D02*
X3724603Y-6941109D01*
X3732998Y-6581504D02*
X3762998Y-6611504D01*
X3762998Y-6581504D02*
X3732998Y-6611504D01*
X3792998Y-6952608D02*
X3822998Y-6982608D01*
X3822998Y-6952608D02*
X3792998Y-6982608D01*
X3859759Y-6842041D02*
X3889759Y-6872041D01*
X3889759Y-6842041D02*
X3859759Y-6872041D01*
X3871200Y-6567400D02*
X3901200Y-6597400D01*
X3901200Y-6567400D02*
X3871200Y-6597400D01*
X3877002Y-2968891D02*
X3907002Y-2998891D01*
X3907002Y-2968891D02*
X3877002Y-2998891D01*
X3921209Y-3101000D02*
X3951209Y-3131000D01*
X3951209Y-3101000D02*
X3921209Y-3131000D01*
X3922000Y-3464400D02*
X3952000Y-3494400D01*
X3952000Y-3464400D02*
X3922000Y-3494400D01*
X3948855Y-2908891D02*
X3978855Y-2938891D01*
X3978855Y-2908891D02*
X3948855Y-2938891D01*
X3972800Y-7050000D02*
X4002800Y-7080000D01*
X4002800Y-7050000D02*
X3972800Y-7080000D01*
X3977511Y-3597651D02*
X4007511Y-3627651D01*
X4007511Y-3597651D02*
X3977511Y-3627651D01*
X4085000Y-4510000D02*
X4115000Y-4540000D01*
X4115000Y-4510000D02*
X4085000Y-4540000D01*
X4150983Y-3602651D02*
X4180983Y-3632651D01*
X4180983Y-3602651D02*
X4150983Y-3632651D01*
X4161219Y-6334358D02*
X4191219Y-6364358D01*
X4191219Y-6334358D02*
X4161219Y-6364358D01*
X4167229Y-6787685D02*
X4197229Y-6817685D01*
X4197229Y-6787685D02*
X4167229Y-6817685D01*
X4190479Y-6023079D02*
X4220479Y-6053079D01*
X4220479Y-6023079D02*
X4190479Y-6053079D01*
X4193273Y-3992091D02*
X4223274Y-4022091D01*
X4223274Y-3992091D02*
X4193273Y-4022091D01*
X4200000Y-4455000D02*
X4230000Y-4485000D01*
X4230000Y-4455000D02*
X4200000Y-4485000D01*
X4200000Y-4565000D02*
X4230000Y-4595000D01*
X4230000Y-4565000D02*
X4200000Y-4595000D01*
X4200000Y-4930000D02*
X4230000Y-4960000D01*
X4230000Y-4930000D02*
X4200000Y-4960000D01*
X4200000Y-5102000D02*
X4230000Y-5132000D01*
X4230000Y-5102000D02*
X4200000Y-5132000D01*
X4328400Y-4455000D02*
X4358400Y-4485000D01*
X4358400Y-4455000D02*
X4328400Y-4485000D01*
X4328400Y-4565000D02*
X4358400Y-4595000D01*
X4358400Y-4565000D02*
X4328400Y-4595000D01*
X4347200Y-6703425D02*
X4377200Y-6733425D01*
X4377200Y-6703425D02*
X4347200Y-6733425D01*
X4356224Y-6392024D02*
X4386224Y-6422024D01*
X4386224Y-6392024D02*
X4356224Y-6422024D01*
X4378269Y-4917331D02*
X4408269Y-4947331D01*
X4408269Y-4917331D02*
X4378269Y-4947331D01*
X4405391Y-3413600D02*
X4435391Y-3443600D01*
X4435391Y-3413600D02*
X4405391Y-3443600D01*
X4446689Y-2734668D02*
X4476689Y-2764668D01*
X4476689Y-2734668D02*
X4446689Y-2764668D01*
X4456200Y-4810200D02*
X4486200Y-4840200D01*
X4486200Y-4810200D02*
X4456200Y-4840200D01*
X4456200Y-4870200D02*
X4486200Y-4900200D01*
X4486200Y-4870200D02*
X4456200Y-4900200D01*
X4462000Y-5102000D02*
X4492000Y-5132000D01*
X4492000Y-5102000D02*
X4462000Y-5132000D01*
X4480800Y-3900400D02*
X4510800Y-3930400D01*
X4510800Y-3900400D02*
X4480800Y-3930400D01*
X4506200Y-4780200D02*
X4536200Y-4810200D01*
X4536200Y-4780200D02*
X4506200Y-4810200D01*
X4506200Y-4840200D02*
X4536200Y-4870200D01*
X4536200Y-4840200D02*
X4506200Y-4870200D01*
X4506200Y-4900200D02*
X4536200Y-4930200D01*
X4536200Y-4900200D02*
X4506200Y-4930200D01*
X4529721Y-3549499D02*
X4559721Y-3579499D01*
X4559721Y-3549499D02*
X4529721Y-3579499D01*
X4537846Y-2728364D02*
X4567846Y-2758364D01*
X4567846Y-2728364D02*
X4537846Y-2758364D01*
X4553325Y-5377275D02*
X4583325Y-5407275D01*
X4583325Y-5377275D02*
X4553325Y-5407275D01*
X4555193Y-3387098D02*
X4585193Y-3417098D01*
X4585193Y-3387098D02*
X4555193Y-3417098D01*
X4556200Y-4810200D02*
X4586200Y-4840200D01*
X4586200Y-4810200D02*
X4556200Y-4840200D01*
X4556200Y-4870200D02*
X4586200Y-4900200D01*
X4586200Y-4870200D02*
X4556200Y-4900200D01*
X4557000Y-5653000D02*
X4587000Y-5683000D01*
X4587000Y-5653000D02*
X4557000Y-5683000D01*
X4574016Y-2801398D02*
X4604016Y-2831398D01*
X4604016Y-2801398D02*
X4574016Y-2831398D01*
X4639800Y-5774982D02*
X4669800Y-5804982D01*
X4669800Y-5774982D02*
X4639800Y-5804982D01*
X4658600Y-4565000D02*
X4688600Y-4595000D01*
X4688600Y-4565000D02*
X4658600Y-4595000D01*
X4658600Y-5102000D02*
X4688600Y-5132000D01*
X4688600Y-5102000D02*
X4658600Y-5132000D01*
X4684800Y-5394400D02*
X4714800Y-5424400D01*
X4714800Y-5394400D02*
X4684800Y-5424400D01*
X4684800Y-5454400D02*
X4714800Y-5484400D01*
X4714800Y-5454400D02*
X4684800Y-5484400D01*
X4685704Y-4742000D02*
X4715704Y-4772000D01*
X4715704Y-4742000D02*
X4685704Y-4772000D01*
X4709400Y-3519400D02*
X4739400Y-3549400D01*
X4739400Y-3519400D02*
X4709400Y-3549400D01*
X4709906Y-5258084D02*
X4739906Y-5288084D01*
X4739906Y-5258084D02*
X4709906Y-5288084D01*
X4713016Y-2705379D02*
X4743016Y-2735379D01*
X4743016Y-2705379D02*
X4713016Y-2735379D01*
X4734800Y-5364400D02*
X4764800Y-5394400D01*
X4764800Y-5364400D02*
X4734800Y-5394400D01*
X4734800Y-5424400D02*
X4764800Y-5454400D01*
X4764800Y-5424400D02*
X4734800Y-5454400D01*
X4734800Y-5484400D02*
X4764800Y-5514400D01*
X4764800Y-5484400D02*
X4734800Y-5514400D01*
X4734800Y-7380200D02*
X4764800Y-7410200D01*
X4764800Y-7380200D02*
X4734800Y-7410200D01*
X4757458Y-4984258D02*
X4787458Y-5014258D01*
X4787458Y-4984258D02*
X4757458Y-5014258D01*
X4784800Y-5394400D02*
X4814800Y-5424400D01*
X4814800Y-5394400D02*
X4784800Y-5424400D01*
X4784800Y-5454400D02*
X4814800Y-5484400D01*
X4814800Y-5454400D02*
X4784800Y-5484400D01*
X4795704Y-4455225D02*
X4825704Y-4485225D01*
X4825704Y-4455225D02*
X4795704Y-4485225D01*
X4815643Y-4757065D02*
X4845643Y-4787065D01*
X4845643Y-4757065D02*
X4815643Y-4787065D01*
X4827375Y-7186025D02*
X4857375Y-7216025D01*
X4857375Y-7186025D02*
X4827375Y-7216025D01*
X4836400Y-3849600D02*
X4866400Y-3879600D01*
X4866400Y-3849600D02*
X4836400Y-3879600D01*
X4836400Y-5322800D02*
X4866400Y-5352800D01*
X4866400Y-5322800D02*
X4836400Y-5352800D01*
X4836400Y-5881600D02*
X4866400Y-5911600D01*
X4866400Y-5881600D02*
X4836400Y-5911600D01*
X4837191Y-5577591D02*
X4867191Y-5607591D01*
X4867191Y-5577591D02*
X4837191Y-5607591D01*
X4838860Y-5122060D02*
X4868860Y-5152060D01*
X4868860Y-5122060D02*
X4838860Y-5152060D01*
X4857600Y-4523250D02*
X4887600Y-4553250D01*
X4887600Y-4523250D02*
X4857600Y-4553250D01*
X4910000Y-4785000D02*
X4940000Y-4815000D01*
X4940000Y-4785000D02*
X4910000Y-4815000D01*
X4986978Y-4592103D02*
X5016978Y-4622103D01*
X5016978Y-4592103D02*
X4986978Y-4622103D01*
X4988800Y-3824200D02*
X5018800Y-3854200D01*
X5018800Y-3824200D02*
X4988800Y-3854200D01*
X5014200Y-5073000D02*
X5044200Y-5103000D01*
X5044200Y-5073000D02*
X5014200Y-5103000D01*
X5060000Y-4785000D02*
X5090000Y-4815000D01*
X5090000Y-4785000D02*
X5060000Y-4815000D01*
X5096789Y-4473941D02*
X5126789Y-4503941D01*
X5126789Y-4473941D02*
X5096789Y-4503941D01*
X5115800Y-5881600D02*
X5145800Y-5911600D01*
X5145800Y-5881600D02*
X5115800Y-5911600D01*
X5125000Y-5018000D02*
X5155000Y-5048000D01*
X5155000Y-5018000D02*
X5125000Y-5048000D01*
X5130000Y-5195800D02*
X5160000Y-5225800D01*
X5160000Y-5195800D02*
X5130000Y-5225800D01*
X5130000Y-7177000D02*
X5160000Y-7207000D01*
X5160000Y-7177000D02*
X5130000Y-7207000D01*
X5154357Y-4812935D02*
X5184357Y-4842935D01*
X5184357Y-4812935D02*
X5154357Y-4842935D01*
X5211789Y-4416789D02*
X5241789Y-4446789D01*
X5241789Y-4416789D02*
X5211789Y-4446789D01*
X5217400Y-7278600D02*
X5247400Y-7308600D01*
X5247400Y-7278600D02*
X5217400Y-7308600D01*
X5218391Y-4230600D02*
X5248391Y-4260600D01*
X5248391Y-4230600D02*
X5218391Y-4260600D01*
X5220677Y-4697480D02*
X5250677Y-4727480D01*
X5250677Y-4697480D02*
X5220677Y-4727480D01*
X5242800Y-5322800D02*
X5272800Y-5352800D01*
X5272800Y-5322800D02*
X5242800Y-5352800D01*
X5257737Y-2701107D02*
X5287737Y-2731107D01*
X5287737Y-2701107D02*
X5257737Y-2731107D01*
X5268200Y-4078200D02*
X5298200Y-4108200D01*
X5298200Y-4078200D02*
X5268200Y-4108200D01*
X5273391Y-4154400D02*
X5303391Y-4184400D01*
X5303391Y-4154400D02*
X5273391Y-4184400D01*
X5344400Y-5043400D02*
X5374400Y-5073400D01*
X5374400Y-5043400D02*
X5344400Y-5073400D01*
X5382428Y-4872200D02*
X5412428Y-4902200D01*
X5412428Y-4872200D02*
X5382428Y-4902200D01*
X5407655Y-3379945D02*
X5437655Y-3409945D01*
X5437655Y-3379945D02*
X5407655Y-3409945D01*
X5414960Y-2823340D02*
X5444960Y-2853340D01*
X5444960Y-2823340D02*
X5414960Y-2853340D01*
X5420600Y-4027400D02*
X5450600Y-4057400D01*
X5450600Y-4027400D02*
X5420600Y-4057400D01*
X5427919Y-4471789D02*
X5457919Y-4501789D01*
X5457919Y-4471789D02*
X5427919Y-4501789D01*
X5429655Y-3551560D02*
X5459655Y-3581560D01*
X5459655Y-3551560D02*
X5429655Y-3581560D01*
X5432154Y-2728364D02*
X5462154Y-2758364D01*
X5462154Y-2728364D02*
X5432154Y-2758364D01*
X5444022Y-4215831D02*
X5474022Y-4245831D01*
X5474022Y-4215831D02*
X5444022Y-4245831D01*
X5446000Y-4361789D02*
X5476000Y-4391789D01*
X5476000Y-4361789D02*
X5446000Y-4391789D01*
X5467200Y-5526000D02*
X5497200Y-5556000D01*
X5497200Y-5526000D02*
X5467200Y-5556000D01*
X5468883Y-5896658D02*
X5498883Y-5926658D01*
X5498883Y-5896658D02*
X5468883Y-5926658D01*
X5514405Y-2717273D02*
X5544405Y-2747273D01*
X5544405Y-2717273D02*
X5514405Y-2747273D01*
X5522200Y-5322800D02*
X5552200Y-5352800D01*
X5552200Y-5322800D02*
X5522200Y-5352800D01*
X5573000Y-3413600D02*
X5603000Y-3443600D01*
X5603000Y-3413600D02*
X5573000Y-3443600D01*
X5577200Y-5399000D02*
X5607200Y-5429000D01*
X5607200Y-5399000D02*
X5577200Y-5429000D01*
X5589285Y-5839915D02*
X5619285Y-5869915D01*
X5619285Y-5839915D02*
X5589285Y-5869915D01*
X5750800Y-4357600D02*
X5780800Y-4387600D01*
X5780800Y-4357600D02*
X5750800Y-4387600D01*
X5750800Y-4471789D02*
X5780800Y-4501789D01*
X5780800Y-4471789D02*
X5750800Y-4501789D01*
X5750800Y-5043400D02*
X5780800Y-5073400D01*
X5780800Y-5043400D02*
X5750800Y-5073400D01*
X5770000Y-4872200D02*
X5800000Y-4902200D01*
X5800000Y-4872200D02*
X5770000Y-4902200D01*
X5788226Y-6037249D02*
X5818226Y-6067249D01*
X5818226Y-6037249D02*
X5788226Y-6067249D01*
X5815091Y-3837691D02*
X5845091Y-3867691D01*
X5845091Y-3837691D02*
X5815091Y-3867691D01*
X6019907Y-7033512D02*
X6049907Y-7063512D01*
X6049907Y-7033512D02*
X6019907Y-7063512D01*
X6024080Y-2908891D02*
X6054080Y-2938891D01*
X6054080Y-2908891D02*
X6024080Y-2938891D01*
X6056391Y-3091800D02*
X6086391Y-3121800D01*
X6086391Y-3091800D02*
X6056391Y-3121800D01*
X6081000Y-3400000D02*
X6111000Y-3430000D01*
X6111000Y-3400000D02*
X6081000Y-3430000D01*
X6092998Y-2968891D02*
X6122998Y-2998891D01*
X6122998Y-2968891D02*
X6092998Y-2998891D01*
X6111242Y-6841040D02*
X6141242Y-6871040D01*
X6141242Y-6841040D02*
X6111242Y-6871040D01*
X6117002Y-6562998D02*
X6147002Y-6592998D01*
X6147002Y-6562998D02*
X6117002Y-6592998D01*
X6177002Y-6952608D02*
X6207002Y-6982608D01*
X6207002Y-6952608D02*
X6177002Y-6982608D01*
X6237002Y-6896154D02*
X6267002Y-6926154D01*
X6267002Y-6896154D02*
X6237002Y-6926154D01*
X6241260Y-3065094D02*
X6271260Y-3095094D01*
X6271260Y-3065094D02*
X6241260Y-3095094D01*
X6242600Y-6576600D02*
X6272600Y-6606600D01*
X6272600Y-6576600D02*
X6242600Y-6606600D01*
X6640403Y-6576600D02*
X6670403Y-6606600D01*
X6670403Y-6576600D02*
X6640403Y-6606600D01*
X6665200Y-3395000D02*
X6695200Y-3425000D01*
X6695200Y-3395000D02*
X6665200Y-3425000D01*
X6714636Y-6499474D02*
X6744636Y-6529474D01*
X6744636Y-6499474D02*
X6714636Y-6529474D01*
X6778077Y-3545000D02*
X6808077Y-3575000D01*
X6808077Y-3545000D02*
X6778077Y-3575000D01*
X6841389Y-3594396D02*
X6871389Y-3624396D01*
X6871389Y-3594396D02*
X6841389Y-3624396D01*
X6843138Y-6377071D02*
X6873138Y-6407071D01*
X6873138Y-6377071D02*
X6843138Y-6407071D01*
X7063550Y-5928397D02*
X7093550Y-5958397D01*
X7093550Y-5928397D02*
X7063550Y-5958397D01*
X7065000Y-4281400D02*
X7095000Y-4311400D01*
X7095000Y-4281400D02*
X7065000Y-4311400D01*
X7098991Y-5036738D02*
X7128991Y-5066738D01*
X7128991Y-5036738D02*
X7098991Y-5066738D01*
X7105790Y-4044010D02*
X7135790Y-4074010D01*
X7135790Y-4044010D02*
X7105790Y-4074010D01*
X7197000Y-5167361D02*
X7227000Y-5197361D01*
X7227000Y-5167361D02*
X7197000Y-5197361D01*
X7200415Y-5655130D02*
X7230415Y-5685130D01*
X7230415Y-5655130D02*
X7200415Y-5685130D01*
X7209309Y-4311599D02*
X7239309Y-4341599D01*
X7239309Y-4311599D02*
X7209309Y-4341599D01*
X7279444Y-5113000D02*
X7309444Y-5143000D01*
X7309444Y-5113000D02*
X7279444Y-5143000D01*
X7294249Y-4857000D02*
X7324249Y-4887000D01*
X7324249Y-4857000D02*
X7294249Y-4887000D01*
X4905000Y-7300000D02*
G75*
G02*
X4840000Y-7300000I-32500J0D01*
G01*
X4840000Y-7300000D02*
G75*
G02*
X4905000Y-7300000I32500J0D01*
G01*
X5032000Y-7300000D02*
G75*
G02*
X4967000Y-7300000I-32500J0D01*
G01*
X4967000Y-7300000D02*
G75*
G02*
X5032000Y-7300000I32500J0D01*
G01*
X5159000Y-7300000D02*
G75*
G02*
X5094000Y-7300000I-32500J0D01*
G01*
X5094000Y-7300000D02*
G75*
G02*
X5159000Y-7300000I32500J0D01*
G01*
X2692400Y-4525800D02*
X2692400Y-4625800D01*
X2642400Y-4575800D02*
X2742400Y-4575800D01*
X2717800Y-5465600D02*
X2717800Y-5565600D01*
X2667800Y-5515600D02*
X2767800Y-5515600D01*
X2780000Y-5190000D02*
X2780000Y-5290000D01*
X2730000Y-5240000D02*
X2830000Y-5240000D01*
X3505200Y-6761000D02*
X3505200Y-6861000D01*
X3455200Y-6811000D02*
X3555200Y-6811000D01*
X3530600Y-3128800D02*
X3530600Y-3228800D01*
X3480600Y-3178800D02*
X3580600Y-3178800D01*
X4191000Y-2747800D02*
X4191000Y-2847800D01*
X4141000Y-2797800D02*
X4241000Y-2797800D01*
X4365896Y-4095200D02*
X4365896Y-4195200D01*
X4315896Y-4145200D02*
X4415896Y-4145200D01*
X4365896Y-4245200D02*
X4365896Y-4345200D01*
X4315896Y-4295200D02*
X4415896Y-4295200D01*
X4495800Y-4020200D02*
X4495800Y-4120200D01*
X4445800Y-4070200D02*
X4545800Y-4070200D01*
X4495800Y-4170200D02*
X4495800Y-4270200D01*
X4445800Y-4220200D02*
X4545800Y-4220200D01*
X4495800Y-4320200D02*
X4495800Y-4420200D01*
X4445800Y-4370200D02*
X4545800Y-4370200D01*
X4625704Y-4095200D02*
X4625704Y-4195200D01*
X4575704Y-4145200D02*
X4675704Y-4145200D01*
X4625704Y-4245200D02*
X4625704Y-4345200D01*
X4575704Y-4295200D02*
X4675704Y-4295200D01*
X5000000Y-5650000D02*
X5000000Y-5750000D01*
X4950000Y-5700000D02*
X5050000Y-5700000D01*
X4950000Y-5550000D02*
X4950000Y-5850000D01*
X5050000Y-5850000D02*
G75*
G02*
X4950000Y-5850000I-50000J0D01*
G01*
X5050000Y-5850000D02*
X5050000Y-5550000D01*
X5050000Y-5550000D02*
G75*
G03*
X4950000Y-5550000I-50000J0D01*
G01*
X5003800Y-2595400D02*
X5003800Y-2695400D01*
X4953800Y-2645400D02*
X5053800Y-2645400D01*
X5809000Y-2747800D02*
X5809000Y-2847800D01*
X5759000Y-2797800D02*
X5859000Y-2797800D01*
X6469400Y-3128800D02*
X6469400Y-3228800D01*
X6419400Y-3178800D02*
X6519400Y-3178800D01*
X6494800Y-6761000D02*
X6494800Y-6861000D01*
X6444800Y-6811000D02*
X6544800Y-6811000D01*
X7220000Y-4680000D02*
X7220000Y-4780000D01*
X7170000Y-4730000D02*
X7270000Y-4730000D01*
X7282200Y-5465600D02*
X7282200Y-5565600D01*
X7232200Y-5515600D02*
X7332200Y-5515600D01*
X7307600Y-4525800D02*
X7307600Y-4625800D01*
X7257600Y-4575800D02*
X7357600Y-4575800D01*
D11*
X2755777Y-7816484D02*
X2755777Y-7616484D01*
X2755777Y-7616484D02*
X2803396Y-7616484D01*
X2803396Y-7616484D02*
X2831967Y-7626008D01*
X2831967Y-7626008D02*
X2851015Y-7645055D01*
X2851015Y-7645055D02*
X2860539Y-7664103D01*
X2860539Y-7664103D02*
X2870062Y-7702198D01*
X2870062Y-7702198D02*
X2870062Y-7730769D01*
X2870062Y-7730769D02*
X2860539Y-7768865D01*
X2860539Y-7768865D02*
X2851015Y-7787912D01*
X2851015Y-7787912D02*
X2831967Y-7806960D01*
X2831967Y-7806960D02*
X2803396Y-7816484D01*
X2803396Y-7816484D02*
X2755777Y-7816484D01*
X2955777Y-7816484D02*
X2955777Y-7683150D01*
X2955777Y-7721246D02*
X2965301Y-7702198D01*
X2965301Y-7702198D02*
X2974824Y-7692674D01*
X2974824Y-7692674D02*
X2993872Y-7683150D01*
X2993872Y-7683150D02*
X3012920Y-7683150D01*
X3079586Y-7816484D02*
X3079586Y-7683150D01*
X3079586Y-7616484D02*
X3070062Y-7626008D01*
X3070062Y-7626008D02*
X3079586Y-7635531D01*
X3079586Y-7635531D02*
X3089110Y-7626008D01*
X3089110Y-7626008D02*
X3079586Y-7616484D01*
X3079586Y-7616484D02*
X3079586Y-7635531D01*
X3203396Y-7816484D02*
X3184348Y-7806960D01*
X3184348Y-7806960D02*
X3174824Y-7787912D01*
X3174824Y-7787912D02*
X3174824Y-7616484D01*
X3308158Y-7816484D02*
X3289110Y-7806960D01*
X3289110Y-7806960D02*
X3279586Y-7787912D01*
X3279586Y-7787912D02*
X3279586Y-7616484D01*
X3536729Y-7816484D02*
X3536729Y-7616484D01*
X3536729Y-7616484D02*
X3603396Y-7759341D01*
X3603396Y-7759341D02*
X3670062Y-7616484D01*
X3670062Y-7616484D02*
X3670062Y-7816484D01*
X3851015Y-7816484D02*
X3851015Y-7711722D01*
X3851015Y-7711722D02*
X3841491Y-7692674D01*
X3841491Y-7692674D02*
X3822443Y-7683150D01*
X3822443Y-7683150D02*
X3784348Y-7683150D01*
X3784348Y-7683150D02*
X3765301Y-7692674D01*
X3851015Y-7806960D02*
X3831967Y-7816484D01*
X3831967Y-7816484D02*
X3784348Y-7816484D01*
X3784348Y-7816484D02*
X3765301Y-7806960D01*
X3765301Y-7806960D02*
X3755777Y-7787912D01*
X3755777Y-7787912D02*
X3755777Y-7768865D01*
X3755777Y-7768865D02*
X3765301Y-7749817D01*
X3765301Y-7749817D02*
X3784348Y-7740293D01*
X3784348Y-7740293D02*
X3831967Y-7740293D01*
X3831967Y-7740293D02*
X3851015Y-7730769D01*
X3946253Y-7683150D02*
X3946253Y-7883150D01*
X3946253Y-7692674D02*
X3965301Y-7683150D01*
X3965301Y-7683150D02*
X4003396Y-7683150D01*
X4003396Y-7683150D02*
X4022443Y-7692674D01*
X4022443Y-7692674D02*
X4031967Y-7702198D01*
X4031967Y-7702198D02*
X4041491Y-7721246D01*
X4041491Y-7721246D02*
X4041491Y-7778388D01*
X4041491Y-7778388D02*
X4031967Y-7797436D01*
X4031967Y-7797436D02*
X4022443Y-7806960D01*
X4022443Y-7806960D02*
X4003396Y-7816484D01*
X4003396Y-7816484D02*
X3965301Y-7816484D01*
X3965301Y-7816484D02*
X3946253Y-7806960D01*
X4127205Y-7797436D02*
X4136729Y-7806960D01*
X4136729Y-7806960D02*
X4127205Y-7816484D01*
X4127205Y-7816484D02*
X4117682Y-7806960D01*
X4117682Y-7806960D02*
X4127205Y-7797436D01*
X4127205Y-7797436D02*
X4127205Y-7816484D01*
X4127205Y-7692674D02*
X4136729Y-7702198D01*
X4136729Y-7702198D02*
X4127205Y-7711722D01*
X4127205Y-7711722D02*
X4117682Y-7702198D01*
X4117682Y-7702198D02*
X4127205Y-7692674D01*
X4127205Y-7692674D02*
X4127205Y-7711722D01*
D10*
X2465000Y-8130000D02*
X2495000Y-8160000D01*
X2495000Y-8130000D02*
X2465000Y-8160000D01*
D11*
X2793872Y-8036484D02*
X2812920Y-8036484D01*
X2812920Y-8036484D02*
X2831967Y-8046008D01*
X2831967Y-8046008D02*
X2841491Y-8055531D01*
X2841491Y-8055531D02*
X2851015Y-8074579D01*
X2851015Y-8074579D02*
X2860539Y-8112674D01*
X2860539Y-8112674D02*
X2860539Y-8160293D01*
X2860539Y-8160293D02*
X2851015Y-8198388D01*
X2851015Y-8198388D02*
X2841491Y-8217436D01*
X2841491Y-8217436D02*
X2831967Y-8226960D01*
X2831967Y-8226960D02*
X2812920Y-8236484D01*
X2812920Y-8236484D02*
X2793872Y-8236484D01*
X2793872Y-8236484D02*
X2774824Y-8226960D01*
X2774824Y-8226960D02*
X2765301Y-8217436D01*
X2765301Y-8217436D02*
X2755777Y-8198388D01*
X2755777Y-8198388D02*
X2746253Y-8160293D01*
X2746253Y-8160293D02*
X2746253Y-8112674D01*
X2746253Y-8112674D02*
X2755777Y-8074579D01*
X2755777Y-8074579D02*
X2765301Y-8055531D01*
X2765301Y-8055531D02*
X2774824Y-8046008D01*
X2774824Y-8046008D02*
X2793872Y-8036484D01*
X2946253Y-8217436D02*
X2955777Y-8226960D01*
X2955777Y-8226960D02*
X2946253Y-8236484D01*
X2946253Y-8236484D02*
X2936729Y-8226960D01*
X2936729Y-8226960D02*
X2946253Y-8217436D01*
X2946253Y-8217436D02*
X2946253Y-8236484D01*
X3022443Y-8036484D02*
X3146253Y-8036484D01*
X3146253Y-8036484D02*
X3079586Y-8112674D01*
X3079586Y-8112674D02*
X3108158Y-8112674D01*
X3108158Y-8112674D02*
X3127205Y-8122198D01*
X3127205Y-8122198D02*
X3136729Y-8131722D01*
X3136729Y-8131722D02*
X3146253Y-8150769D01*
X3146253Y-8150769D02*
X3146253Y-8198388D01*
X3146253Y-8198388D02*
X3136729Y-8217436D01*
X3136729Y-8217436D02*
X3127205Y-8226960D01*
X3127205Y-8226960D02*
X3108158Y-8236484D01*
X3108158Y-8236484D02*
X3051015Y-8236484D01*
X3051015Y-8236484D02*
X3031967Y-8226960D01*
X3031967Y-8226960D02*
X3022443Y-8217436D01*
X3270062Y-8036484D02*
X3289110Y-8036484D01*
X3289110Y-8036484D02*
X3308158Y-8046008D01*
X3308158Y-8046008D02*
X3317682Y-8055531D01*
X3317682Y-8055531D02*
X3327205Y-8074579D01*
X3327205Y-8074579D02*
X3336729Y-8112674D01*
X3336729Y-8112674D02*
X3336729Y-8160293D01*
X3336729Y-8160293D02*
X3327205Y-8198388D01*
X3327205Y-8198388D02*
X3317682Y-8217436D01*
X3317682Y-8217436D02*
X3308158Y-8226960D01*
X3308158Y-8226960D02*
X3289110Y-8236484D01*
X3289110Y-8236484D02*
X3270062Y-8236484D01*
X3270062Y-8236484D02*
X3251015Y-8226960D01*
X3251015Y-8226960D02*
X3241491Y-8217436D01*
X3241491Y-8217436D02*
X3231967Y-8198388D01*
X3231967Y-8198388D02*
X3222443Y-8160293D01*
X3222443Y-8160293D02*
X3222443Y-8112674D01*
X3222443Y-8112674D02*
X3231967Y-8074579D01*
X3231967Y-8074579D02*
X3241491Y-8055531D01*
X3241491Y-8055531D02*
X3251015Y-8046008D01*
X3251015Y-8046008D02*
X3270062Y-8036484D01*
X3460539Y-8036484D02*
X3479586Y-8036484D01*
X3479586Y-8036484D02*
X3498634Y-8046008D01*
X3498634Y-8046008D02*
X3508158Y-8055531D01*
X3508158Y-8055531D02*
X3517682Y-8074579D01*
X3517682Y-8074579D02*
X3527205Y-8112674D01*
X3527205Y-8112674D02*
X3527205Y-8160293D01*
X3527205Y-8160293D02*
X3517682Y-8198388D01*
X3517682Y-8198388D02*
X3508158Y-8217436D01*
X3508158Y-8217436D02*
X3498634Y-8226960D01*
X3498634Y-8226960D02*
X3479586Y-8236484D01*
X3479586Y-8236484D02*
X3460539Y-8236484D01*
X3460539Y-8236484D02*
X3441491Y-8226960D01*
X3441491Y-8226960D02*
X3431967Y-8217436D01*
X3431967Y-8217436D02*
X3422443Y-8198388D01*
X3422443Y-8198388D02*
X3412920Y-8160293D01*
X3412920Y-8160293D02*
X3412920Y-8112674D01*
X3412920Y-8112674D02*
X3422443Y-8074579D01*
X3422443Y-8074579D02*
X3431967Y-8055531D01*
X3431967Y-8055531D02*
X3441491Y-8046008D01*
X3441491Y-8046008D02*
X3460539Y-8036484D01*
X3612920Y-8236484D02*
X3612920Y-8103150D01*
X3612920Y-8122198D02*
X3622443Y-8112674D01*
X3622443Y-8112674D02*
X3641491Y-8103150D01*
X3641491Y-8103150D02*
X3670063Y-8103150D01*
X3670063Y-8103150D02*
X3689110Y-8112674D01*
X3689110Y-8112674D02*
X3698634Y-8131722D01*
X3698634Y-8131722D02*
X3698634Y-8236484D01*
X3698634Y-8131722D02*
X3708158Y-8112674D01*
X3708158Y-8112674D02*
X3727205Y-8103150D01*
X3727205Y-8103150D02*
X3755777Y-8103150D01*
X3755777Y-8103150D02*
X3774824Y-8112674D01*
X3774824Y-8112674D02*
X3784348Y-8131722D01*
X3784348Y-8131722D02*
X3784348Y-8236484D01*
X3879586Y-8236484D02*
X3879586Y-8103150D01*
X3879586Y-8122198D02*
X3889110Y-8112674D01*
X3889110Y-8112674D02*
X3908158Y-8103150D01*
X3908158Y-8103150D02*
X3936729Y-8103150D01*
X3936729Y-8103150D02*
X3955777Y-8112674D01*
X3955777Y-8112674D02*
X3965301Y-8131722D01*
X3965301Y-8131722D02*
X3965301Y-8236484D01*
X3965301Y-8131722D02*
X3974824Y-8112674D01*
X3974824Y-8112674D02*
X3993872Y-8103150D01*
X3993872Y-8103150D02*
X4022443Y-8103150D01*
X4022443Y-8103150D02*
X4041491Y-8112674D01*
X4041491Y-8112674D02*
X4051015Y-8131722D01*
X4051015Y-8131722D02*
X4051015Y-8236484D01*
X4441491Y-8026960D02*
X4270063Y-8284103D01*
X4698634Y-8036484D02*
X4717682Y-8036484D01*
X4717682Y-8036484D02*
X4736729Y-8046008D01*
X4736729Y-8046008D02*
X4746253Y-8055531D01*
X4746253Y-8055531D02*
X4755777Y-8074579D01*
X4755777Y-8074579D02*
X4765301Y-8112674D01*
X4765301Y-8112674D02*
X4765301Y-8160293D01*
X4765301Y-8160293D02*
X4755777Y-8198388D01*
X4755777Y-8198388D02*
X4746253Y-8217436D01*
X4746253Y-8217436D02*
X4736729Y-8226960D01*
X4736729Y-8226960D02*
X4717682Y-8236484D01*
X4717682Y-8236484D02*
X4698634Y-8236484D01*
X4698634Y-8236484D02*
X4679587Y-8226960D01*
X4679587Y-8226960D02*
X4670063Y-8217436D01*
X4670063Y-8217436D02*
X4660539Y-8198388D01*
X4660539Y-8198388D02*
X4651015Y-8160293D01*
X4651015Y-8160293D02*
X4651015Y-8112674D01*
X4651015Y-8112674D02*
X4660539Y-8074579D01*
X4660539Y-8074579D02*
X4670063Y-8055531D01*
X4670063Y-8055531D02*
X4679587Y-8046008D01*
X4679587Y-8046008D02*
X4698634Y-8036484D01*
X4851015Y-8217436D02*
X4860539Y-8226960D01*
X4860539Y-8226960D02*
X4851015Y-8236484D01*
X4851015Y-8236484D02*
X4841491Y-8226960D01*
X4841491Y-8226960D02*
X4851015Y-8217436D01*
X4851015Y-8217436D02*
X4851015Y-8236484D01*
X4984348Y-8036484D02*
X5003396Y-8036484D01*
X5003396Y-8036484D02*
X5022444Y-8046008D01*
X5022444Y-8046008D02*
X5031968Y-8055531D01*
X5031968Y-8055531D02*
X5041491Y-8074579D01*
X5041491Y-8074579D02*
X5051015Y-8112674D01*
X5051015Y-8112674D02*
X5051015Y-8160293D01*
X5051015Y-8160293D02*
X5041491Y-8198388D01*
X5041491Y-8198388D02*
X5031968Y-8217436D01*
X5031968Y-8217436D02*
X5022444Y-8226960D01*
X5022444Y-8226960D02*
X5003396Y-8236484D01*
X5003396Y-8236484D02*
X4984348Y-8236484D01*
X4984348Y-8236484D02*
X4965301Y-8226960D01*
X4965301Y-8226960D02*
X4955777Y-8217436D01*
X4955777Y-8217436D02*
X4946253Y-8198388D01*
X4946253Y-8198388D02*
X4936729Y-8160293D01*
X4936729Y-8160293D02*
X4936729Y-8112674D01*
X4936729Y-8112674D02*
X4946253Y-8074579D01*
X4946253Y-8074579D02*
X4955777Y-8055531D01*
X4955777Y-8055531D02*
X4965301Y-8046008D01*
X4965301Y-8046008D02*
X4984348Y-8036484D01*
X5241491Y-8236484D02*
X5127206Y-8236484D01*
X5184348Y-8236484D02*
X5184348Y-8036484D01*
X5184348Y-8036484D02*
X5165301Y-8065055D01*
X5165301Y-8065055D02*
X5146253Y-8084103D01*
X5146253Y-8084103D02*
X5127206Y-8093627D01*
X5431968Y-8236484D02*
X5317682Y-8236484D01*
X5374825Y-8236484D02*
X5374825Y-8036484D01*
X5374825Y-8036484D02*
X5355777Y-8065055D01*
X5355777Y-8065055D02*
X5336729Y-8084103D01*
X5336729Y-8084103D02*
X5317682Y-8093627D01*
X5546253Y-8122198D02*
X5527206Y-8112674D01*
X5527206Y-8112674D02*
X5517682Y-8103150D01*
X5517682Y-8103150D02*
X5508158Y-8084103D01*
X5508158Y-8084103D02*
X5508158Y-8074579D01*
X5508158Y-8074579D02*
X5517682Y-8055531D01*
X5517682Y-8055531D02*
X5527206Y-8046008D01*
X5527206Y-8046008D02*
X5546253Y-8036484D01*
X5546253Y-8036484D02*
X5584349Y-8036484D01*
X5584349Y-8036484D02*
X5603396Y-8046008D01*
X5603396Y-8046008D02*
X5612920Y-8055531D01*
X5612920Y-8055531D02*
X5622444Y-8074579D01*
X5622444Y-8074579D02*
X5622444Y-8084103D01*
X5622444Y-8084103D02*
X5612920Y-8103150D01*
X5612920Y-8103150D02*
X5603396Y-8112674D01*
X5603396Y-8112674D02*
X5584349Y-8122198D01*
X5584349Y-8122198D02*
X5546253Y-8122198D01*
X5546253Y-8122198D02*
X5527206Y-8131722D01*
X5527206Y-8131722D02*
X5517682Y-8141246D01*
X5517682Y-8141246D02*
X5508158Y-8160293D01*
X5508158Y-8160293D02*
X5508158Y-8198388D01*
X5508158Y-8198388D02*
X5517682Y-8217436D01*
X5517682Y-8217436D02*
X5527206Y-8226960D01*
X5527206Y-8226960D02*
X5546253Y-8236484D01*
X5546253Y-8236484D02*
X5584349Y-8236484D01*
X5584349Y-8236484D02*
X5603396Y-8226960D01*
X5603396Y-8226960D02*
X5612920Y-8217436D01*
X5612920Y-8217436D02*
X5622444Y-8198388D01*
X5622444Y-8198388D02*
X5622444Y-8160293D01*
X5622444Y-8160293D02*
X5612920Y-8141246D01*
X5612920Y-8141246D02*
X5603396Y-8131722D01*
X5603396Y-8131722D02*
X5584349Y-8122198D01*
X5698634Y-8036484D02*
X5698634Y-8074579D01*
X5774825Y-8036484D02*
X5774825Y-8074579D01*
X6070063Y-8312674D02*
X6060539Y-8303150D01*
X6060539Y-8303150D02*
X6041491Y-8274579D01*
X6041491Y-8274579D02*
X6031968Y-8255531D01*
X6031968Y-8255531D02*
X6022444Y-8226960D01*
X6022444Y-8226960D02*
X6012920Y-8179341D01*
X6012920Y-8179341D02*
X6012920Y-8141246D01*
X6012920Y-8141246D02*
X6022444Y-8093627D01*
X6022444Y-8093627D02*
X6031968Y-8065055D01*
X6031968Y-8065055D02*
X6041491Y-8046008D01*
X6041491Y-8046008D02*
X6060539Y-8017436D01*
X6060539Y-8017436D02*
X6070063Y-8007912D01*
X6251015Y-8236484D02*
X6136729Y-8236484D01*
X6193872Y-8236484D02*
X6193872Y-8036484D01*
X6193872Y-8036484D02*
X6174825Y-8065055D01*
X6174825Y-8065055D02*
X6155777Y-8084103D01*
X6155777Y-8084103D02*
X6136729Y-8093627D01*
X6431968Y-8036484D02*
X6336729Y-8036484D01*
X6336729Y-8036484D02*
X6327206Y-8131722D01*
X6327206Y-8131722D02*
X6336729Y-8122198D01*
X6336729Y-8122198D02*
X6355777Y-8112674D01*
X6355777Y-8112674D02*
X6403396Y-8112674D01*
X6403396Y-8112674D02*
X6422444Y-8122198D01*
X6422444Y-8122198D02*
X6431968Y-8131722D01*
X6431968Y-8131722D02*
X6441491Y-8150769D01*
X6441491Y-8150769D02*
X6441491Y-8198388D01*
X6441491Y-8198388D02*
X6431968Y-8217436D01*
X6431968Y-8217436D02*
X6422444Y-8226960D01*
X6422444Y-8226960D02*
X6403396Y-8236484D01*
X6403396Y-8236484D02*
X6355777Y-8236484D01*
X6355777Y-8236484D02*
X6336729Y-8226960D01*
X6336729Y-8226960D02*
X6327206Y-8217436D01*
X6631968Y-8236484D02*
X6517682Y-8236484D01*
X6574825Y-8236484D02*
X6574825Y-8036484D01*
X6574825Y-8036484D02*
X6555777Y-8065055D01*
X6555777Y-8065055D02*
X6536729Y-8084103D01*
X6536729Y-8084103D02*
X6517682Y-8093627D01*
X6870063Y-8236484D02*
X6870063Y-8036484D01*
X6955777Y-8236484D02*
X6955777Y-8131722D01*
X6955777Y-8131722D02*
X6946253Y-8112674D01*
X6946253Y-8112674D02*
X6927206Y-8103150D01*
X6927206Y-8103150D02*
X6898634Y-8103150D01*
X6898634Y-8103150D02*
X6879587Y-8112674D01*
X6879587Y-8112674D02*
X6870063Y-8122198D01*
X7079587Y-8236484D02*
X7060539Y-8226960D01*
X7060539Y-8226960D02*
X7051015Y-8217436D01*
X7051015Y-8217436D02*
X7041491Y-8198388D01*
X7041491Y-8198388D02*
X7041491Y-8141246D01*
X7041491Y-8141246D02*
X7051015Y-8122198D01*
X7051015Y-8122198D02*
X7060539Y-8112674D01*
X7060539Y-8112674D02*
X7079587Y-8103150D01*
X7079587Y-8103150D02*
X7108158Y-8103150D01*
X7108158Y-8103150D02*
X7127206Y-8112674D01*
X7127206Y-8112674D02*
X7136730Y-8122198D01*
X7136730Y-8122198D02*
X7146253Y-8141246D01*
X7146253Y-8141246D02*
X7146253Y-8198388D01*
X7146253Y-8198388D02*
X7136730Y-8217436D01*
X7136730Y-8217436D02*
X7127206Y-8226960D01*
X7127206Y-8226960D02*
X7108158Y-8236484D01*
X7108158Y-8236484D02*
X7079587Y-8236484D01*
X7260539Y-8236484D02*
X7241491Y-8226960D01*
X7241491Y-8226960D02*
X7231968Y-8207912D01*
X7231968Y-8207912D02*
X7231968Y-8036484D01*
X7412920Y-8226960D02*
X7393872Y-8236484D01*
X7393872Y-8236484D02*
X7355777Y-8236484D01*
X7355777Y-8236484D02*
X7336730Y-8226960D01*
X7336730Y-8226960D02*
X7327206Y-8207912D01*
X7327206Y-8207912D02*
X7327206Y-8131722D01*
X7327206Y-8131722D02*
X7336730Y-8112674D01*
X7336730Y-8112674D02*
X7355777Y-8103150D01*
X7355777Y-8103150D02*
X7393872Y-8103150D01*
X7393872Y-8103150D02*
X7412920Y-8112674D01*
X7412920Y-8112674D02*
X7422444Y-8131722D01*
X7422444Y-8131722D02*
X7422444Y-8150769D01*
X7422444Y-8150769D02*
X7327206Y-8169817D01*
X7498634Y-8226960D02*
X7517682Y-8236484D01*
X7517682Y-8236484D02*
X7555777Y-8236484D01*
X7555777Y-8236484D02*
X7574825Y-8226960D01*
X7574825Y-8226960D02*
X7584349Y-8207912D01*
X7584349Y-8207912D02*
X7584349Y-8198388D01*
X7584349Y-8198388D02*
X7574825Y-8179341D01*
X7574825Y-8179341D02*
X7555777Y-8169817D01*
X7555777Y-8169817D02*
X7527206Y-8169817D01*
X7527206Y-8169817D02*
X7508158Y-8160293D01*
X7508158Y-8160293D02*
X7498634Y-8141246D01*
X7498634Y-8141246D02*
X7498634Y-8131722D01*
X7498634Y-8131722D02*
X7508158Y-8112674D01*
X7508158Y-8112674D02*
X7527206Y-8103150D01*
X7527206Y-8103150D02*
X7555777Y-8103150D01*
X7555777Y-8103150D02*
X7574825Y-8112674D01*
X7651015Y-8312674D02*
X7660539Y-8303150D01*
X7660539Y-8303150D02*
X7679587Y-8274579D01*
X7679587Y-8274579D02*
X7689111Y-8255531D01*
X7689111Y-8255531D02*
X7698634Y-8226960D01*
X7698634Y-8226960D02*
X7708158Y-8179341D01*
X7708158Y-8179341D02*
X7708158Y-8141246D01*
X7708158Y-8141246D02*
X7698634Y-8093627D01*
X7698634Y-8093627D02*
X7689111Y-8065055D01*
X7689111Y-8065055D02*
X7679587Y-8046008D01*
X7679587Y-8046008D02*
X7660539Y-8017436D01*
X7660539Y-8017436D02*
X7651015Y-8007912D01*
D10*
X2495000Y-8409000D02*
G75*
G02*
X2430000Y-8409000I-32500J0D01*
G01*
X2430000Y-8409000D02*
G75*
G02*
X2495000Y-8409000I32500J0D01*
G01*
D11*
X2793872Y-8300484D02*
X2812920Y-8300484D01*
X2812920Y-8300484D02*
X2831967Y-8310008D01*
X2831967Y-8310008D02*
X2841491Y-8319531D01*
X2841491Y-8319531D02*
X2851015Y-8338579D01*
X2851015Y-8338579D02*
X2860539Y-8376674D01*
X2860539Y-8376674D02*
X2860539Y-8424293D01*
X2860539Y-8424293D02*
X2851015Y-8462389D01*
X2851015Y-8462389D02*
X2841491Y-8481436D01*
X2841491Y-8481436D02*
X2831967Y-8490960D01*
X2831967Y-8490960D02*
X2812920Y-8500484D01*
X2812920Y-8500484D02*
X2793872Y-8500484D01*
X2793872Y-8500484D02*
X2774824Y-8490960D01*
X2774824Y-8490960D02*
X2765301Y-8481436D01*
X2765301Y-8481436D02*
X2755777Y-8462389D01*
X2755777Y-8462389D02*
X2746253Y-8424293D01*
X2746253Y-8424293D02*
X2746253Y-8376674D01*
X2746253Y-8376674D02*
X2755777Y-8338579D01*
X2755777Y-8338579D02*
X2765301Y-8319531D01*
X2765301Y-8319531D02*
X2774824Y-8310008D01*
X2774824Y-8310008D02*
X2793872Y-8300484D01*
X2946253Y-8481436D02*
X2955777Y-8490960D01*
X2955777Y-8490960D02*
X2946253Y-8500484D01*
X2946253Y-8500484D02*
X2936729Y-8490960D01*
X2936729Y-8490960D02*
X2946253Y-8481436D01*
X2946253Y-8481436D02*
X2946253Y-8500484D01*
X3127205Y-8300484D02*
X3089110Y-8300484D01*
X3089110Y-8300484D02*
X3070062Y-8310008D01*
X3070062Y-8310008D02*
X3060539Y-8319531D01*
X3060539Y-8319531D02*
X3041491Y-8348103D01*
X3041491Y-8348103D02*
X3031967Y-8386198D01*
X3031967Y-8386198D02*
X3031967Y-8462389D01*
X3031967Y-8462389D02*
X3041491Y-8481436D01*
X3041491Y-8481436D02*
X3051015Y-8490960D01*
X3051015Y-8490960D02*
X3070062Y-8500484D01*
X3070062Y-8500484D02*
X3108158Y-8500484D01*
X3108158Y-8500484D02*
X3127205Y-8490960D01*
X3127205Y-8490960D02*
X3136729Y-8481436D01*
X3136729Y-8481436D02*
X3146253Y-8462389D01*
X3146253Y-8462389D02*
X3146253Y-8414770D01*
X3146253Y-8414770D02*
X3136729Y-8395722D01*
X3136729Y-8395722D02*
X3127205Y-8386198D01*
X3127205Y-8386198D02*
X3108158Y-8376674D01*
X3108158Y-8376674D02*
X3070062Y-8376674D01*
X3070062Y-8376674D02*
X3051015Y-8386198D01*
X3051015Y-8386198D02*
X3041491Y-8395722D01*
X3041491Y-8395722D02*
X3031967Y-8414770D01*
X3327205Y-8300484D02*
X3231967Y-8300484D01*
X3231967Y-8300484D02*
X3222443Y-8395722D01*
X3222443Y-8395722D02*
X3231967Y-8386198D01*
X3231967Y-8386198D02*
X3251015Y-8376674D01*
X3251015Y-8376674D02*
X3298634Y-8376674D01*
X3298634Y-8376674D02*
X3317682Y-8386198D01*
X3317682Y-8386198D02*
X3327205Y-8395722D01*
X3327205Y-8395722D02*
X3336729Y-8414770D01*
X3336729Y-8414770D02*
X3336729Y-8462389D01*
X3336729Y-8462389D02*
X3327205Y-8481436D01*
X3327205Y-8481436D02*
X3317682Y-8490960D01*
X3317682Y-8490960D02*
X3298634Y-8500484D01*
X3298634Y-8500484D02*
X3251015Y-8500484D01*
X3251015Y-8500484D02*
X3231967Y-8490960D01*
X3231967Y-8490960D02*
X3222443Y-8481436D01*
X3460539Y-8300484D02*
X3479586Y-8300484D01*
X3479586Y-8300484D02*
X3498634Y-8310008D01*
X3498634Y-8310008D02*
X3508158Y-8319531D01*
X3508158Y-8319531D02*
X3517682Y-8338579D01*
X3517682Y-8338579D02*
X3527205Y-8376674D01*
X3527205Y-8376674D02*
X3527205Y-8424293D01*
X3527205Y-8424293D02*
X3517682Y-8462389D01*
X3517682Y-8462389D02*
X3508158Y-8481436D01*
X3508158Y-8481436D02*
X3498634Y-8490960D01*
X3498634Y-8490960D02*
X3479586Y-8500484D01*
X3479586Y-8500484D02*
X3460539Y-8500484D01*
X3460539Y-8500484D02*
X3441491Y-8490960D01*
X3441491Y-8490960D02*
X3431967Y-8481436D01*
X3431967Y-8481436D02*
X3422443Y-8462389D01*
X3422443Y-8462389D02*
X3412920Y-8424293D01*
X3412920Y-8424293D02*
X3412920Y-8376674D01*
X3412920Y-8376674D02*
X3422443Y-8338579D01*
X3422443Y-8338579D02*
X3431967Y-8319531D01*
X3431967Y-8319531D02*
X3441491Y-8310008D01*
X3441491Y-8310008D02*
X3460539Y-8300484D01*
X3612920Y-8500484D02*
X3612920Y-8367150D01*
X3612920Y-8386198D02*
X3622443Y-8376674D01*
X3622443Y-8376674D02*
X3641491Y-8367150D01*
X3641491Y-8367150D02*
X3670063Y-8367150D01*
X3670063Y-8367150D02*
X3689110Y-8376674D01*
X3689110Y-8376674D02*
X3698634Y-8395722D01*
X3698634Y-8395722D02*
X3698634Y-8500484D01*
X3698634Y-8395722D02*
X3708158Y-8376674D01*
X3708158Y-8376674D02*
X3727205Y-8367150D01*
X3727205Y-8367150D02*
X3755777Y-8367150D01*
X3755777Y-8367150D02*
X3774824Y-8376674D01*
X3774824Y-8376674D02*
X3784348Y-8395722D01*
X3784348Y-8395722D02*
X3784348Y-8500484D01*
X3879586Y-8500484D02*
X3879586Y-8367150D01*
X3879586Y-8386198D02*
X3889110Y-8376674D01*
X3889110Y-8376674D02*
X3908158Y-8367150D01*
X3908158Y-8367150D02*
X3936729Y-8367150D01*
X3936729Y-8367150D02*
X3955777Y-8376674D01*
X3955777Y-8376674D02*
X3965301Y-8395722D01*
X3965301Y-8395722D02*
X3965301Y-8500484D01*
X3965301Y-8395722D02*
X3974824Y-8376674D01*
X3974824Y-8376674D02*
X3993872Y-8367150D01*
X3993872Y-8367150D02*
X4022443Y-8367150D01*
X4022443Y-8367150D02*
X4041491Y-8376674D01*
X4041491Y-8376674D02*
X4051015Y-8395722D01*
X4051015Y-8395722D02*
X4051015Y-8500484D01*
X4441491Y-8290960D02*
X4270063Y-8548103D01*
X4698634Y-8300484D02*
X4717682Y-8300484D01*
X4717682Y-8300484D02*
X4736729Y-8310008D01*
X4736729Y-8310008D02*
X4746253Y-8319531D01*
X4746253Y-8319531D02*
X4755777Y-8338579D01*
X4755777Y-8338579D02*
X4765301Y-8376674D01*
X4765301Y-8376674D02*
X4765301Y-8424293D01*
X4765301Y-8424293D02*
X4755777Y-8462389D01*
X4755777Y-8462389D02*
X4746253Y-8481436D01*
X4746253Y-8481436D02*
X4736729Y-8490960D01*
X4736729Y-8490960D02*
X4717682Y-8500484D01*
X4717682Y-8500484D02*
X4698634Y-8500484D01*
X4698634Y-8500484D02*
X4679587Y-8490960D01*
X4679587Y-8490960D02*
X4670063Y-8481436D01*
X4670063Y-8481436D02*
X4660539Y-8462389D01*
X4660539Y-8462389D02*
X4651015Y-8424293D01*
X4651015Y-8424293D02*
X4651015Y-8376674D01*
X4651015Y-8376674D02*
X4660539Y-8338579D01*
X4660539Y-8338579D02*
X4670063Y-8319531D01*
X4670063Y-8319531D02*
X4679587Y-8310008D01*
X4679587Y-8310008D02*
X4698634Y-8300484D01*
X4851015Y-8481436D02*
X4860539Y-8490960D01*
X4860539Y-8490960D02*
X4851015Y-8500484D01*
X4851015Y-8500484D02*
X4841491Y-8490960D01*
X4841491Y-8490960D02*
X4851015Y-8481436D01*
X4851015Y-8481436D02*
X4851015Y-8500484D01*
X4984348Y-8300484D02*
X5003396Y-8300484D01*
X5003396Y-8300484D02*
X5022444Y-8310008D01*
X5022444Y-8310008D02*
X5031968Y-8319531D01*
X5031968Y-8319531D02*
X5041491Y-8338579D01*
X5041491Y-8338579D02*
X5051015Y-8376674D01*
X5051015Y-8376674D02*
X5051015Y-8424293D01*
X5051015Y-8424293D02*
X5041491Y-8462389D01*
X5041491Y-8462389D02*
X5031968Y-8481436D01*
X5031968Y-8481436D02*
X5022444Y-8490960D01*
X5022444Y-8490960D02*
X5003396Y-8500484D01*
X5003396Y-8500484D02*
X4984348Y-8500484D01*
X4984348Y-8500484D02*
X4965301Y-8490960D01*
X4965301Y-8490960D02*
X4955777Y-8481436D01*
X4955777Y-8481436D02*
X4946253Y-8462389D01*
X4946253Y-8462389D02*
X4936729Y-8424293D01*
X4936729Y-8424293D02*
X4936729Y-8376674D01*
X4936729Y-8376674D02*
X4946253Y-8338579D01*
X4946253Y-8338579D02*
X4955777Y-8319531D01*
X4955777Y-8319531D02*
X4965301Y-8310008D01*
X4965301Y-8310008D02*
X4984348Y-8300484D01*
X5127206Y-8319531D02*
X5136729Y-8310008D01*
X5136729Y-8310008D02*
X5155777Y-8300484D01*
X5155777Y-8300484D02*
X5203396Y-8300484D01*
X5203396Y-8300484D02*
X5222444Y-8310008D01*
X5222444Y-8310008D02*
X5231968Y-8319531D01*
X5231968Y-8319531D02*
X5241491Y-8338579D01*
X5241491Y-8338579D02*
X5241491Y-8357627D01*
X5241491Y-8357627D02*
X5231968Y-8386198D01*
X5231968Y-8386198D02*
X5117682Y-8500484D01*
X5117682Y-8500484D02*
X5241491Y-8500484D01*
X5422444Y-8300484D02*
X5327206Y-8300484D01*
X5327206Y-8300484D02*
X5317682Y-8395722D01*
X5317682Y-8395722D02*
X5327206Y-8386198D01*
X5327206Y-8386198D02*
X5346253Y-8376674D01*
X5346253Y-8376674D02*
X5393872Y-8376674D01*
X5393872Y-8376674D02*
X5412920Y-8386198D01*
X5412920Y-8386198D02*
X5422444Y-8395722D01*
X5422444Y-8395722D02*
X5431968Y-8414770D01*
X5431968Y-8414770D02*
X5431968Y-8462389D01*
X5431968Y-8462389D02*
X5422444Y-8481436D01*
X5422444Y-8481436D02*
X5412920Y-8490960D01*
X5412920Y-8490960D02*
X5393872Y-8500484D01*
X5393872Y-8500484D02*
X5346253Y-8500484D01*
X5346253Y-8500484D02*
X5327206Y-8490960D01*
X5327206Y-8490960D02*
X5317682Y-8481436D01*
X5603396Y-8300484D02*
X5565301Y-8300484D01*
X5565301Y-8300484D02*
X5546253Y-8310008D01*
X5546253Y-8310008D02*
X5536729Y-8319531D01*
X5536729Y-8319531D02*
X5517682Y-8348103D01*
X5517682Y-8348103D02*
X5508158Y-8386198D01*
X5508158Y-8386198D02*
X5508158Y-8462389D01*
X5508158Y-8462389D02*
X5517682Y-8481436D01*
X5517682Y-8481436D02*
X5527206Y-8490960D01*
X5527206Y-8490960D02*
X5546253Y-8500484D01*
X5546253Y-8500484D02*
X5584349Y-8500484D01*
X5584349Y-8500484D02*
X5603396Y-8490960D01*
X5603396Y-8490960D02*
X5612920Y-8481436D01*
X5612920Y-8481436D02*
X5622444Y-8462389D01*
X5622444Y-8462389D02*
X5622444Y-8414770D01*
X5622444Y-8414770D02*
X5612920Y-8395722D01*
X5612920Y-8395722D02*
X5603396Y-8386198D01*
X5603396Y-8386198D02*
X5584349Y-8376674D01*
X5584349Y-8376674D02*
X5546253Y-8376674D01*
X5546253Y-8376674D02*
X5527206Y-8386198D01*
X5527206Y-8386198D02*
X5517682Y-8395722D01*
X5517682Y-8395722D02*
X5508158Y-8414770D01*
X5698634Y-8300484D02*
X5698634Y-8338579D01*
X5774825Y-8300484D02*
X5774825Y-8338579D01*
X6070063Y-8576674D02*
X6060539Y-8567150D01*
X6060539Y-8567150D02*
X6041491Y-8538579D01*
X6041491Y-8538579D02*
X6031968Y-8519531D01*
X6031968Y-8519531D02*
X6022444Y-8490960D01*
X6022444Y-8490960D02*
X6012920Y-8443341D01*
X6012920Y-8443341D02*
X6012920Y-8405246D01*
X6012920Y-8405246D02*
X6022444Y-8357627D01*
X6022444Y-8357627D02*
X6031968Y-8329055D01*
X6031968Y-8329055D02*
X6041491Y-8310008D01*
X6041491Y-8310008D02*
X6060539Y-8281436D01*
X6060539Y-8281436D02*
X6070063Y-8271912D01*
X6127206Y-8300484D02*
X6251015Y-8300484D01*
X6251015Y-8300484D02*
X6184348Y-8376674D01*
X6184348Y-8376674D02*
X6212920Y-8376674D01*
X6212920Y-8376674D02*
X6231968Y-8386198D01*
X6231968Y-8386198D02*
X6241491Y-8395722D01*
X6241491Y-8395722D02*
X6251015Y-8414770D01*
X6251015Y-8414770D02*
X6251015Y-8462389D01*
X6251015Y-8462389D02*
X6241491Y-8481436D01*
X6241491Y-8481436D02*
X6231968Y-8490960D01*
X6231968Y-8490960D02*
X6212920Y-8500484D01*
X6212920Y-8500484D02*
X6155777Y-8500484D01*
X6155777Y-8500484D02*
X6136729Y-8490960D01*
X6136729Y-8490960D02*
X6127206Y-8481436D01*
X6489110Y-8500484D02*
X6489110Y-8300484D01*
X6574825Y-8500484D02*
X6574825Y-8395722D01*
X6574825Y-8395722D02*
X6565301Y-8376674D01*
X6565301Y-8376674D02*
X6546253Y-8367150D01*
X6546253Y-8367150D02*
X6517682Y-8367150D01*
X6517682Y-8367150D02*
X6498634Y-8376674D01*
X6498634Y-8376674D02*
X6489110Y-8386198D01*
X6698634Y-8500484D02*
X6679587Y-8490960D01*
X6679587Y-8490960D02*
X6670063Y-8481436D01*
X6670063Y-8481436D02*
X6660539Y-8462389D01*
X6660539Y-8462389D02*
X6660539Y-8405246D01*
X6660539Y-8405246D02*
X6670063Y-8386198D01*
X6670063Y-8386198D02*
X6679587Y-8376674D01*
X6679587Y-8376674D02*
X6698634Y-8367150D01*
X6698634Y-8367150D02*
X6727206Y-8367150D01*
X6727206Y-8367150D02*
X6746253Y-8376674D01*
X6746253Y-8376674D02*
X6755777Y-8386198D01*
X6755777Y-8386198D02*
X6765301Y-8405246D01*
X6765301Y-8405246D02*
X6765301Y-8462389D01*
X6765301Y-8462389D02*
X6755777Y-8481436D01*
X6755777Y-8481436D02*
X6746253Y-8490960D01*
X6746253Y-8490960D02*
X6727206Y-8500484D01*
X6727206Y-8500484D02*
X6698634Y-8500484D01*
X6879587Y-8500484D02*
X6860539Y-8490960D01*
X6860539Y-8490960D02*
X6851015Y-8471912D01*
X6851015Y-8471912D02*
X6851015Y-8300484D01*
X7031968Y-8490960D02*
X7012920Y-8500484D01*
X7012920Y-8500484D02*
X6974825Y-8500484D01*
X6974825Y-8500484D02*
X6955777Y-8490960D01*
X6955777Y-8490960D02*
X6946253Y-8471912D01*
X6946253Y-8471912D02*
X6946253Y-8395722D01*
X6946253Y-8395722D02*
X6955777Y-8376674D01*
X6955777Y-8376674D02*
X6974825Y-8367150D01*
X6974825Y-8367150D02*
X7012920Y-8367150D01*
X7012920Y-8367150D02*
X7031968Y-8376674D01*
X7031968Y-8376674D02*
X7041491Y-8395722D01*
X7041491Y-8395722D02*
X7041491Y-8414770D01*
X7041491Y-8414770D02*
X6946253Y-8433817D01*
X7117682Y-8490960D02*
X7136730Y-8500484D01*
X7136730Y-8500484D02*
X7174825Y-8500484D01*
X7174825Y-8500484D02*
X7193872Y-8490960D01*
X7193872Y-8490960D02*
X7203396Y-8471912D01*
X7203396Y-8471912D02*
X7203396Y-8462389D01*
X7203396Y-8462389D02*
X7193872Y-8443341D01*
X7193872Y-8443341D02*
X7174825Y-8433817D01*
X7174825Y-8433817D02*
X7146253Y-8433817D01*
X7146253Y-8433817D02*
X7127206Y-8424293D01*
X7127206Y-8424293D02*
X7117682Y-8405246D01*
X7117682Y-8405246D02*
X7117682Y-8395722D01*
X7117682Y-8395722D02*
X7127206Y-8376674D01*
X7127206Y-8376674D02*
X7146253Y-8367150D01*
X7146253Y-8367150D02*
X7174825Y-8367150D01*
X7174825Y-8367150D02*
X7193872Y-8376674D01*
X7270063Y-8576674D02*
X7279587Y-8567150D01*
X7279587Y-8567150D02*
X7298634Y-8538579D01*
X7298634Y-8538579D02*
X7308158Y-8519531D01*
X7308158Y-8519531D02*
X7317682Y-8490960D01*
X7317682Y-8490960D02*
X7327206Y-8443341D01*
X7327206Y-8443341D02*
X7327206Y-8405246D01*
X7327206Y-8405246D02*
X7317682Y-8357627D01*
X7317682Y-8357627D02*
X7308158Y-8329055D01*
X7308158Y-8329055D02*
X7298634Y-8310008D01*
X7298634Y-8310008D02*
X7279587Y-8281436D01*
X7279587Y-8281436D02*
X7270063Y-8271912D01*
D10*
X2445000Y-8623000D02*
X2445000Y-8723000D01*
X2395000Y-8673000D02*
X2495000Y-8673000D01*
D11*
X2860539Y-8764484D02*
X2746253Y-8764484D01*
X2803396Y-8764484D02*
X2803396Y-8564484D01*
X2803396Y-8564484D02*
X2784348Y-8593055D01*
X2784348Y-8593055D02*
X2765301Y-8612103D01*
X2765301Y-8612103D02*
X2746253Y-8621627D01*
X2946253Y-8745436D02*
X2955777Y-8754960D01*
X2955777Y-8754960D02*
X2946253Y-8764484D01*
X2946253Y-8764484D02*
X2936729Y-8754960D01*
X2936729Y-8754960D02*
X2946253Y-8745436D01*
X2946253Y-8745436D02*
X2946253Y-8764484D01*
X3079586Y-8564484D02*
X3098634Y-8564484D01*
X3098634Y-8564484D02*
X3117682Y-8574008D01*
X3117682Y-8574008D02*
X3127205Y-8583531D01*
X3127205Y-8583531D02*
X3136729Y-8602579D01*
X3136729Y-8602579D02*
X3146253Y-8640674D01*
X3146253Y-8640674D02*
X3146253Y-8688293D01*
X3146253Y-8688293D02*
X3136729Y-8726389D01*
X3136729Y-8726389D02*
X3127205Y-8745436D01*
X3127205Y-8745436D02*
X3117682Y-8754960D01*
X3117682Y-8754960D02*
X3098634Y-8764484D01*
X3098634Y-8764484D02*
X3079586Y-8764484D01*
X3079586Y-8764484D02*
X3060539Y-8754960D01*
X3060539Y-8754960D02*
X3051015Y-8745436D01*
X3051015Y-8745436D02*
X3041491Y-8726389D01*
X3041491Y-8726389D02*
X3031967Y-8688293D01*
X3031967Y-8688293D02*
X3031967Y-8640674D01*
X3031967Y-8640674D02*
X3041491Y-8602579D01*
X3041491Y-8602579D02*
X3051015Y-8583531D01*
X3051015Y-8583531D02*
X3060539Y-8574008D01*
X3060539Y-8574008D02*
X3079586Y-8564484D01*
X3270062Y-8564484D02*
X3289110Y-8564484D01*
X3289110Y-8564484D02*
X3308158Y-8574008D01*
X3308158Y-8574008D02*
X3317682Y-8583531D01*
X3317682Y-8583531D02*
X3327205Y-8602579D01*
X3327205Y-8602579D02*
X3336729Y-8640674D01*
X3336729Y-8640674D02*
X3336729Y-8688293D01*
X3336729Y-8688293D02*
X3327205Y-8726389D01*
X3327205Y-8726389D02*
X3317682Y-8745436D01*
X3317682Y-8745436D02*
X3308158Y-8754960D01*
X3308158Y-8754960D02*
X3289110Y-8764484D01*
X3289110Y-8764484D02*
X3270062Y-8764484D01*
X3270062Y-8764484D02*
X3251015Y-8754960D01*
X3251015Y-8754960D02*
X3241491Y-8745436D01*
X3241491Y-8745436D02*
X3231967Y-8726389D01*
X3231967Y-8726389D02*
X3222443Y-8688293D01*
X3222443Y-8688293D02*
X3222443Y-8640674D01*
X3222443Y-8640674D02*
X3231967Y-8602579D01*
X3231967Y-8602579D02*
X3241491Y-8583531D01*
X3241491Y-8583531D02*
X3251015Y-8574008D01*
X3251015Y-8574008D02*
X3270062Y-8564484D01*
X3460539Y-8564484D02*
X3479586Y-8564484D01*
X3479586Y-8564484D02*
X3498634Y-8574008D01*
X3498634Y-8574008D02*
X3508158Y-8583531D01*
X3508158Y-8583531D02*
X3517682Y-8602579D01*
X3517682Y-8602579D02*
X3527205Y-8640674D01*
X3527205Y-8640674D02*
X3527205Y-8688293D01*
X3527205Y-8688293D02*
X3517682Y-8726389D01*
X3517682Y-8726389D02*
X3508158Y-8745436D01*
X3508158Y-8745436D02*
X3498634Y-8754960D01*
X3498634Y-8754960D02*
X3479586Y-8764484D01*
X3479586Y-8764484D02*
X3460539Y-8764484D01*
X3460539Y-8764484D02*
X3441491Y-8754960D01*
X3441491Y-8754960D02*
X3431967Y-8745436D01*
X3431967Y-8745436D02*
X3422443Y-8726389D01*
X3422443Y-8726389D02*
X3412920Y-8688293D01*
X3412920Y-8688293D02*
X3412920Y-8640674D01*
X3412920Y-8640674D02*
X3422443Y-8602579D01*
X3422443Y-8602579D02*
X3431967Y-8583531D01*
X3431967Y-8583531D02*
X3441491Y-8574008D01*
X3441491Y-8574008D02*
X3460539Y-8564484D01*
X3612920Y-8764484D02*
X3612920Y-8631150D01*
X3612920Y-8650198D02*
X3622443Y-8640674D01*
X3622443Y-8640674D02*
X3641491Y-8631150D01*
X3641491Y-8631150D02*
X3670063Y-8631150D01*
X3670063Y-8631150D02*
X3689110Y-8640674D01*
X3689110Y-8640674D02*
X3698634Y-8659722D01*
X3698634Y-8659722D02*
X3698634Y-8764484D01*
X3698634Y-8659722D02*
X3708158Y-8640674D01*
X3708158Y-8640674D02*
X3727205Y-8631150D01*
X3727205Y-8631150D02*
X3755777Y-8631150D01*
X3755777Y-8631150D02*
X3774824Y-8640674D01*
X3774824Y-8640674D02*
X3784348Y-8659722D01*
X3784348Y-8659722D02*
X3784348Y-8764484D01*
X3879586Y-8764484D02*
X3879586Y-8631150D01*
X3879586Y-8650198D02*
X3889110Y-8640674D01*
X3889110Y-8640674D02*
X3908158Y-8631150D01*
X3908158Y-8631150D02*
X3936729Y-8631150D01*
X3936729Y-8631150D02*
X3955777Y-8640674D01*
X3955777Y-8640674D02*
X3965301Y-8659722D01*
X3965301Y-8659722D02*
X3965301Y-8764484D01*
X3965301Y-8659722D02*
X3974824Y-8640674D01*
X3974824Y-8640674D02*
X3993872Y-8631150D01*
X3993872Y-8631150D02*
X4022443Y-8631150D01*
X4022443Y-8631150D02*
X4041491Y-8640674D01*
X4041491Y-8640674D02*
X4051015Y-8659722D01*
X4051015Y-8659722D02*
X4051015Y-8764484D01*
X4441491Y-8554960D02*
X4270063Y-8812103D01*
X4698634Y-8564484D02*
X4717682Y-8564484D01*
X4717682Y-8564484D02*
X4736729Y-8574008D01*
X4736729Y-8574008D02*
X4746253Y-8583531D01*
X4746253Y-8583531D02*
X4755777Y-8602579D01*
X4755777Y-8602579D02*
X4765301Y-8640674D01*
X4765301Y-8640674D02*
X4765301Y-8688293D01*
X4765301Y-8688293D02*
X4755777Y-8726389D01*
X4755777Y-8726389D02*
X4746253Y-8745436D01*
X4746253Y-8745436D02*
X4736729Y-8754960D01*
X4736729Y-8754960D02*
X4717682Y-8764484D01*
X4717682Y-8764484D02*
X4698634Y-8764484D01*
X4698634Y-8764484D02*
X4679587Y-8754960D01*
X4679587Y-8754960D02*
X4670063Y-8745436D01*
X4670063Y-8745436D02*
X4660539Y-8726389D01*
X4660539Y-8726389D02*
X4651015Y-8688293D01*
X4651015Y-8688293D02*
X4651015Y-8640674D01*
X4651015Y-8640674D02*
X4660539Y-8602579D01*
X4660539Y-8602579D02*
X4670063Y-8583531D01*
X4670063Y-8583531D02*
X4679587Y-8574008D01*
X4679587Y-8574008D02*
X4698634Y-8564484D01*
X4851015Y-8745436D02*
X4860539Y-8754960D01*
X4860539Y-8754960D02*
X4851015Y-8764484D01*
X4851015Y-8764484D02*
X4841491Y-8754960D01*
X4841491Y-8754960D02*
X4851015Y-8745436D01*
X4851015Y-8745436D02*
X4851015Y-8764484D01*
X4984348Y-8564484D02*
X5003396Y-8564484D01*
X5003396Y-8564484D02*
X5022444Y-8574008D01*
X5022444Y-8574008D02*
X5031968Y-8583531D01*
X5031968Y-8583531D02*
X5041491Y-8602579D01*
X5041491Y-8602579D02*
X5051015Y-8640674D01*
X5051015Y-8640674D02*
X5051015Y-8688293D01*
X5051015Y-8688293D02*
X5041491Y-8726389D01*
X5041491Y-8726389D02*
X5031968Y-8745436D01*
X5031968Y-8745436D02*
X5022444Y-8754960D01*
X5022444Y-8754960D02*
X5003396Y-8764484D01*
X5003396Y-8764484D02*
X4984348Y-8764484D01*
X4984348Y-8764484D02*
X4965301Y-8754960D01*
X4965301Y-8754960D02*
X4955777Y-8745436D01*
X4955777Y-8745436D02*
X4946253Y-8726389D01*
X4946253Y-8726389D02*
X4936729Y-8688293D01*
X4936729Y-8688293D02*
X4936729Y-8640674D01*
X4936729Y-8640674D02*
X4946253Y-8602579D01*
X4946253Y-8602579D02*
X4955777Y-8583531D01*
X4955777Y-8583531D02*
X4965301Y-8574008D01*
X4965301Y-8574008D02*
X4984348Y-8564484D01*
X5117682Y-8564484D02*
X5241491Y-8564484D01*
X5241491Y-8564484D02*
X5174825Y-8640674D01*
X5174825Y-8640674D02*
X5203396Y-8640674D01*
X5203396Y-8640674D02*
X5222444Y-8650198D01*
X5222444Y-8650198D02*
X5231968Y-8659722D01*
X5231968Y-8659722D02*
X5241491Y-8678770D01*
X5241491Y-8678770D02*
X5241491Y-8726389D01*
X5241491Y-8726389D02*
X5231968Y-8745436D01*
X5231968Y-8745436D02*
X5222444Y-8754960D01*
X5222444Y-8754960D02*
X5203396Y-8764484D01*
X5203396Y-8764484D02*
X5146253Y-8764484D01*
X5146253Y-8764484D02*
X5127206Y-8754960D01*
X5127206Y-8754960D02*
X5117682Y-8745436D01*
X5336729Y-8764484D02*
X5374825Y-8764484D01*
X5374825Y-8764484D02*
X5393872Y-8754960D01*
X5393872Y-8754960D02*
X5403396Y-8745436D01*
X5403396Y-8745436D02*
X5422444Y-8716865D01*
X5422444Y-8716865D02*
X5431968Y-8678770D01*
X5431968Y-8678770D02*
X5431968Y-8602579D01*
X5431968Y-8602579D02*
X5422444Y-8583531D01*
X5422444Y-8583531D02*
X5412920Y-8574008D01*
X5412920Y-8574008D02*
X5393872Y-8564484D01*
X5393872Y-8564484D02*
X5355777Y-8564484D01*
X5355777Y-8564484D02*
X5336729Y-8574008D01*
X5336729Y-8574008D02*
X5327206Y-8583531D01*
X5327206Y-8583531D02*
X5317682Y-8602579D01*
X5317682Y-8602579D02*
X5317682Y-8650198D01*
X5317682Y-8650198D02*
X5327206Y-8669246D01*
X5327206Y-8669246D02*
X5336729Y-8678770D01*
X5336729Y-8678770D02*
X5355777Y-8688293D01*
X5355777Y-8688293D02*
X5393872Y-8688293D01*
X5393872Y-8688293D02*
X5412920Y-8678770D01*
X5412920Y-8678770D02*
X5422444Y-8669246D01*
X5422444Y-8669246D02*
X5431968Y-8650198D01*
X5603396Y-8631150D02*
X5603396Y-8764484D01*
X5555777Y-8554960D02*
X5508158Y-8697817D01*
X5508158Y-8697817D02*
X5631967Y-8697817D01*
X5698634Y-8564484D02*
X5698634Y-8602579D01*
X5774825Y-8564484D02*
X5774825Y-8602579D01*
X6070063Y-8840674D02*
X6060539Y-8831150D01*
X6060539Y-8831150D02*
X6041491Y-8802579D01*
X6041491Y-8802579D02*
X6031968Y-8783531D01*
X6031968Y-8783531D02*
X6022444Y-8754960D01*
X6022444Y-8754960D02*
X6012920Y-8707341D01*
X6012920Y-8707341D02*
X6012920Y-8669246D01*
X6012920Y-8669246D02*
X6022444Y-8621627D01*
X6022444Y-8621627D02*
X6031968Y-8593055D01*
X6031968Y-8593055D02*
X6041491Y-8574008D01*
X6041491Y-8574008D02*
X6060539Y-8545436D01*
X6060539Y-8545436D02*
X6070063Y-8535912D01*
X6136729Y-8583531D02*
X6146253Y-8574008D01*
X6146253Y-8574008D02*
X6165301Y-8564484D01*
X6165301Y-8564484D02*
X6212920Y-8564484D01*
X6212920Y-8564484D02*
X6231968Y-8574008D01*
X6231968Y-8574008D02*
X6241491Y-8583531D01*
X6241491Y-8583531D02*
X6251015Y-8602579D01*
X6251015Y-8602579D02*
X6251015Y-8621627D01*
X6251015Y-8621627D02*
X6241491Y-8650198D01*
X6241491Y-8650198D02*
X6127206Y-8764484D01*
X6127206Y-8764484D02*
X6251015Y-8764484D01*
X6374825Y-8564484D02*
X6393872Y-8564484D01*
X6393872Y-8564484D02*
X6412920Y-8574008D01*
X6412920Y-8574008D02*
X6422444Y-8583531D01*
X6422444Y-8583531D02*
X6431968Y-8602579D01*
X6431968Y-8602579D02*
X6441491Y-8640674D01*
X6441491Y-8640674D02*
X6441491Y-8688293D01*
X6441491Y-8688293D02*
X6431968Y-8726389D01*
X6431968Y-8726389D02*
X6422444Y-8745436D01*
X6422444Y-8745436D02*
X6412920Y-8754960D01*
X6412920Y-8754960D02*
X6393872Y-8764484D01*
X6393872Y-8764484D02*
X6374825Y-8764484D01*
X6374825Y-8764484D02*
X6355777Y-8754960D01*
X6355777Y-8754960D02*
X6346253Y-8745436D01*
X6346253Y-8745436D02*
X6336729Y-8726389D01*
X6336729Y-8726389D02*
X6327206Y-8688293D01*
X6327206Y-8688293D02*
X6327206Y-8640674D01*
X6327206Y-8640674D02*
X6336729Y-8602579D01*
X6336729Y-8602579D02*
X6346253Y-8583531D01*
X6346253Y-8583531D02*
X6355777Y-8574008D01*
X6355777Y-8574008D02*
X6374825Y-8564484D01*
X6679587Y-8764484D02*
X6679587Y-8564484D01*
X6765301Y-8764484D02*
X6765301Y-8659722D01*
X6765301Y-8659722D02*
X6755777Y-8640674D01*
X6755777Y-8640674D02*
X6736730Y-8631150D01*
X6736730Y-8631150D02*
X6708158Y-8631150D01*
X6708158Y-8631150D02*
X6689110Y-8640674D01*
X6689110Y-8640674D02*
X6679587Y-8650198D01*
X6889110Y-8764484D02*
X6870063Y-8754960D01*
X6870063Y-8754960D02*
X6860539Y-8745436D01*
X6860539Y-8745436D02*
X6851015Y-8726389D01*
X6851015Y-8726389D02*
X6851015Y-8669246D01*
X6851015Y-8669246D02*
X6860539Y-8650198D01*
X6860539Y-8650198D02*
X6870063Y-8640674D01*
X6870063Y-8640674D02*
X6889110Y-8631150D01*
X6889110Y-8631150D02*
X6917682Y-8631150D01*
X6917682Y-8631150D02*
X6936730Y-8640674D01*
X6936730Y-8640674D02*
X6946253Y-8650198D01*
X6946253Y-8650198D02*
X6955777Y-8669246D01*
X6955777Y-8669246D02*
X6955777Y-8726389D01*
X6955777Y-8726389D02*
X6946253Y-8745436D01*
X6946253Y-8745436D02*
X6936730Y-8754960D01*
X6936730Y-8754960D02*
X6917682Y-8764484D01*
X6917682Y-8764484D02*
X6889110Y-8764484D01*
X7070063Y-8764484D02*
X7051015Y-8754960D01*
X7051015Y-8754960D02*
X7041491Y-8735912D01*
X7041491Y-8735912D02*
X7041491Y-8564484D01*
X7222444Y-8754960D02*
X7203396Y-8764484D01*
X7203396Y-8764484D02*
X7165301Y-8764484D01*
X7165301Y-8764484D02*
X7146253Y-8754960D01*
X7146253Y-8754960D02*
X7136730Y-8735912D01*
X7136730Y-8735912D02*
X7136730Y-8659722D01*
X7136730Y-8659722D02*
X7146253Y-8640674D01*
X7146253Y-8640674D02*
X7165301Y-8631150D01*
X7165301Y-8631150D02*
X7203396Y-8631150D01*
X7203396Y-8631150D02*
X7222444Y-8640674D01*
X7222444Y-8640674D02*
X7231968Y-8659722D01*
X7231968Y-8659722D02*
X7231968Y-8678770D01*
X7231968Y-8678770D02*
X7136730Y-8697817D01*
X7308158Y-8754960D02*
X7327206Y-8764484D01*
X7327206Y-8764484D02*
X7365301Y-8764484D01*
X7365301Y-8764484D02*
X7384349Y-8754960D01*
X7384349Y-8754960D02*
X7393872Y-8735912D01*
X7393872Y-8735912D02*
X7393872Y-8726389D01*
X7393872Y-8726389D02*
X7384349Y-8707341D01*
X7384349Y-8707341D02*
X7365301Y-8697817D01*
X7365301Y-8697817D02*
X7336730Y-8697817D01*
X7336730Y-8697817D02*
X7317682Y-8688293D01*
X7317682Y-8688293D02*
X7308158Y-8669246D01*
X7308158Y-8669246D02*
X7308158Y-8659722D01*
X7308158Y-8659722D02*
X7317682Y-8640674D01*
X7317682Y-8640674D02*
X7336730Y-8631150D01*
X7336730Y-8631150D02*
X7365301Y-8631150D01*
X7365301Y-8631150D02*
X7384349Y-8640674D01*
X7631968Y-8688293D02*
X7784349Y-8688293D01*
X7708158Y-8764484D02*
X7708158Y-8612103D01*
X8136730Y-8764484D02*
X8022444Y-8764484D01*
X8079587Y-8764484D02*
X8079587Y-8564484D01*
X8079587Y-8564484D02*
X8060539Y-8593055D01*
X8060539Y-8593055D02*
X8041492Y-8612103D01*
X8041492Y-8612103D02*
X8022444Y-8621627D01*
X8365301Y-8754960D02*
X8384349Y-8764484D01*
X8384349Y-8764484D02*
X8422444Y-8764484D01*
X8422444Y-8764484D02*
X8441492Y-8754960D01*
X8441492Y-8754960D02*
X8451016Y-8735912D01*
X8451016Y-8735912D02*
X8451016Y-8726389D01*
X8451016Y-8726389D02*
X8441492Y-8707341D01*
X8441492Y-8707341D02*
X8422444Y-8697817D01*
X8422444Y-8697817D02*
X8393873Y-8697817D01*
X8393873Y-8697817D02*
X8374825Y-8688293D01*
X8374825Y-8688293D02*
X8365301Y-8669246D01*
X8365301Y-8669246D02*
X8365301Y-8659722D01*
X8365301Y-8659722D02*
X8374825Y-8640674D01*
X8374825Y-8640674D02*
X8393873Y-8631150D01*
X8393873Y-8631150D02*
X8422444Y-8631150D01*
X8422444Y-8631150D02*
X8441492Y-8640674D01*
X8565301Y-8764484D02*
X8546254Y-8754960D01*
X8546254Y-8754960D02*
X8536730Y-8735912D01*
X8536730Y-8735912D02*
X8536730Y-8564484D01*
X8670063Y-8764484D02*
X8651016Y-8754960D01*
X8651016Y-8754960D02*
X8641492Y-8745436D01*
X8641492Y-8745436D02*
X8631968Y-8726389D01*
X8631968Y-8726389D02*
X8631968Y-8669246D01*
X8631968Y-8669246D02*
X8641492Y-8650198D01*
X8641492Y-8650198D02*
X8651016Y-8640674D01*
X8651016Y-8640674D02*
X8670063Y-8631150D01*
X8670063Y-8631150D02*
X8698635Y-8631150D01*
X8698635Y-8631150D02*
X8717682Y-8640674D01*
X8717682Y-8640674D02*
X8727206Y-8650198D01*
X8727206Y-8650198D02*
X8736730Y-8669246D01*
X8736730Y-8669246D02*
X8736730Y-8726389D01*
X8736730Y-8726389D02*
X8727206Y-8745436D01*
X8727206Y-8745436D02*
X8717682Y-8754960D01*
X8717682Y-8754960D02*
X8698635Y-8764484D01*
X8698635Y-8764484D02*
X8670063Y-8764484D01*
X8793873Y-8631150D02*
X8870063Y-8631150D01*
X8822444Y-8564484D02*
X8822444Y-8735912D01*
X8822444Y-8735912D02*
X8831968Y-8754960D01*
X8831968Y-8754960D02*
X8851016Y-8764484D01*
X8851016Y-8764484D02*
X8870063Y-8764484D01*
X8917682Y-8840674D02*
X8927206Y-8831150D01*
X8927206Y-8831150D02*
X8946254Y-8802579D01*
X8946254Y-8802579D02*
X8955777Y-8783531D01*
X8955777Y-8783531D02*
X8965301Y-8754960D01*
X8965301Y-8754960D02*
X8974825Y-8707341D01*
X8974825Y-8707341D02*
X8974825Y-8669246D01*
X8974825Y-8669246D02*
X8965301Y-8621627D01*
X8965301Y-8621627D02*
X8955777Y-8593055D01*
X8955777Y-8593055D02*
X8946254Y-8574008D01*
X8946254Y-8574008D02*
X8927206Y-8545436D01*
X8927206Y-8545436D02*
X8917682Y-8535912D01*
M02*
