%TF.GenerationSoftware,KiCad,Pcbnew,9.0.0*%
%TF.CreationDate,2025-02-26T13:27:29-06:00*%
%TF.ProjectId,obverse,6f627665-7273-4652-9e6b-696361645f70,rev?*%
%TF.SameCoordinates,Original*%
%TF.FileFunction,Drillmap*%
%TF.FilePolarity,Positive*%
%FSLAX45Y45*%
G04 Gerber Fmt 4.5, Leading zero omitted, Abs format (unit mm)*
G04 Created by KiCad (PCBNEW 9.0.0) date 2025-02-26 13:27:29*
%MOMM*%
%LPD*%
G01*
G04 APERTURE LIST*
%ADD10C,0.100000*%
%ADD11C,0.200000*%
G04 APERTURE END LIST*
D10*
X17500000Y-5000000D02*
G75*
G02*
X12500000Y-5000000I-2500000J0D01*
G01*
X12500000Y-5000000D02*
G75*
G02*
X17500000Y-5000000I2500000J0D01*
G01*
D11*
D10*
X12650000Y-4950000D02*
X12750000Y-5050000D01*
X12750000Y-4950000D02*
X12650000Y-5050000D01*
X12730000Y-4680000D02*
X12830000Y-4780000D01*
X12830000Y-4680000D02*
X12730000Y-4780000D01*
X12788700Y-4163350D02*
X12888700Y-4263350D01*
X12888700Y-4163350D02*
X12788700Y-4263350D01*
X12788700Y-5736600D02*
X12888700Y-5836600D01*
X12888700Y-5736600D02*
X12788700Y-5836600D01*
X13188100Y-3471590D02*
X13288100Y-3571590D01*
X13288100Y-3471590D02*
X13188100Y-3571590D01*
X13188100Y-6428400D02*
X13288100Y-6528400D01*
X13288100Y-6428400D02*
X13188100Y-6528400D01*
X13800000Y-2958140D02*
X13900000Y-3058140D01*
X13900000Y-2958140D02*
X13800000Y-3058140D01*
X13800000Y-6941900D02*
X13900000Y-7041900D01*
X13900000Y-6941900D02*
X13800000Y-7041900D01*
X14550600Y-2684940D02*
X14650600Y-2784940D01*
X14650600Y-2684940D02*
X14550600Y-2784940D01*
X15349400Y-2684940D02*
X15449400Y-2784940D01*
X15449400Y-2684940D02*
X15349400Y-2784940D01*
X16100000Y-2958140D02*
X16200000Y-3058140D01*
X16200000Y-2958140D02*
X16100000Y-3058140D01*
X16100000Y-6941900D02*
X16200000Y-7041900D01*
X16200000Y-6941900D02*
X16100000Y-7041900D01*
X16711900Y-3471590D02*
X16811900Y-3571590D01*
X16811900Y-3471590D02*
X16711900Y-3571590D01*
X16711900Y-6428400D02*
X16811900Y-6528400D01*
X16811900Y-6428400D02*
X16711900Y-6528400D01*
X17111300Y-4163350D02*
X17211300Y-4263350D01*
X17211300Y-4163350D02*
X17111300Y-4263350D01*
X17111300Y-5736600D02*
X17211300Y-5836600D01*
X17211300Y-5736600D02*
X17111300Y-5836600D01*
X17170000Y-5190000D02*
X17270000Y-5290000D01*
X17270000Y-5190000D02*
X17170000Y-5290000D01*
X17250000Y-4950000D02*
X17350000Y-5050000D01*
X17350000Y-4950000D02*
X17250000Y-5050000D01*
D11*
X12755777Y-7816484D02*
X12755777Y-7616484D01*
X12755777Y-7616484D02*
X12803396Y-7616484D01*
X12803396Y-7616484D02*
X12831967Y-7626008D01*
X12831967Y-7626008D02*
X12851015Y-7645055D01*
X12851015Y-7645055D02*
X12860539Y-7664103D01*
X12860539Y-7664103D02*
X12870062Y-7702198D01*
X12870062Y-7702198D02*
X12870062Y-7730769D01*
X12870062Y-7730769D02*
X12860539Y-7768865D01*
X12860539Y-7768865D02*
X12851015Y-7787912D01*
X12851015Y-7787912D02*
X12831967Y-7806960D01*
X12831967Y-7806960D02*
X12803396Y-7816484D01*
X12803396Y-7816484D02*
X12755777Y-7816484D01*
X12955777Y-7816484D02*
X12955777Y-7683150D01*
X12955777Y-7721246D02*
X12965301Y-7702198D01*
X12965301Y-7702198D02*
X12974824Y-7692674D01*
X12974824Y-7692674D02*
X12993872Y-7683150D01*
X12993872Y-7683150D02*
X13012920Y-7683150D01*
X13079586Y-7816484D02*
X13079586Y-7683150D01*
X13079586Y-7616484D02*
X13070062Y-7626008D01*
X13070062Y-7626008D02*
X13079586Y-7635531D01*
X13079586Y-7635531D02*
X13089110Y-7626008D01*
X13089110Y-7626008D02*
X13079586Y-7616484D01*
X13079586Y-7616484D02*
X13079586Y-7635531D01*
X13203396Y-7816484D02*
X13184348Y-7806960D01*
X13184348Y-7806960D02*
X13174824Y-7787912D01*
X13174824Y-7787912D02*
X13174824Y-7616484D01*
X13308158Y-7816484D02*
X13289110Y-7806960D01*
X13289110Y-7806960D02*
X13279586Y-7787912D01*
X13279586Y-7787912D02*
X13279586Y-7616484D01*
X13536729Y-7816484D02*
X13536729Y-7616484D01*
X13536729Y-7616484D02*
X13603396Y-7759341D01*
X13603396Y-7759341D02*
X13670062Y-7616484D01*
X13670062Y-7616484D02*
X13670062Y-7816484D01*
X13851015Y-7816484D02*
X13851015Y-7711722D01*
X13851015Y-7711722D02*
X13841491Y-7692674D01*
X13841491Y-7692674D02*
X13822443Y-7683150D01*
X13822443Y-7683150D02*
X13784348Y-7683150D01*
X13784348Y-7683150D02*
X13765301Y-7692674D01*
X13851015Y-7806960D02*
X13831967Y-7816484D01*
X13831967Y-7816484D02*
X13784348Y-7816484D01*
X13784348Y-7816484D02*
X13765301Y-7806960D01*
X13765301Y-7806960D02*
X13755777Y-7787912D01*
X13755777Y-7787912D02*
X13755777Y-7768865D01*
X13755777Y-7768865D02*
X13765301Y-7749817D01*
X13765301Y-7749817D02*
X13784348Y-7740293D01*
X13784348Y-7740293D02*
X13831967Y-7740293D01*
X13831967Y-7740293D02*
X13851015Y-7730769D01*
X13946253Y-7683150D02*
X13946253Y-7883150D01*
X13946253Y-7692674D02*
X13965301Y-7683150D01*
X13965301Y-7683150D02*
X14003396Y-7683150D01*
X14003396Y-7683150D02*
X14022443Y-7692674D01*
X14022443Y-7692674D02*
X14031967Y-7702198D01*
X14031967Y-7702198D02*
X14041491Y-7721246D01*
X14041491Y-7721246D02*
X14041491Y-7778388D01*
X14041491Y-7778388D02*
X14031967Y-7797436D01*
X14031967Y-7797436D02*
X14022443Y-7806960D01*
X14022443Y-7806960D02*
X14003396Y-7816484D01*
X14003396Y-7816484D02*
X13965301Y-7816484D01*
X13965301Y-7816484D02*
X13946253Y-7806960D01*
X14127205Y-7797436D02*
X14136729Y-7806960D01*
X14136729Y-7806960D02*
X14127205Y-7816484D01*
X14127205Y-7816484D02*
X14117682Y-7806960D01*
X14117682Y-7806960D02*
X14127205Y-7797436D01*
X14127205Y-7797436D02*
X14127205Y-7816484D01*
X14127205Y-7692674D02*
X14136729Y-7702198D01*
X14136729Y-7702198D02*
X14127205Y-7711722D01*
X14127205Y-7711722D02*
X14117682Y-7702198D01*
X14117682Y-7702198D02*
X14127205Y-7692674D01*
X14127205Y-7692674D02*
X14127205Y-7711722D01*
D10*
X12395000Y-8095000D02*
X12495000Y-8195000D01*
X12495000Y-8095000D02*
X12395000Y-8195000D01*
D11*
X12860539Y-8236484D02*
X12746253Y-8236484D01*
X12803396Y-8236484D02*
X12803396Y-8036484D01*
X12803396Y-8036484D02*
X12784348Y-8065055D01*
X12784348Y-8065055D02*
X12765301Y-8084103D01*
X12765301Y-8084103D02*
X12746253Y-8093627D01*
X12946253Y-8217436D02*
X12955777Y-8226960D01*
X12955777Y-8226960D02*
X12946253Y-8236484D01*
X12946253Y-8236484D02*
X12936729Y-8226960D01*
X12936729Y-8226960D02*
X12946253Y-8217436D01*
X12946253Y-8217436D02*
X12946253Y-8236484D01*
X13079586Y-8036484D02*
X13098634Y-8036484D01*
X13098634Y-8036484D02*
X13117682Y-8046008D01*
X13117682Y-8046008D02*
X13127205Y-8055531D01*
X13127205Y-8055531D02*
X13136729Y-8074579D01*
X13136729Y-8074579D02*
X13146253Y-8112674D01*
X13146253Y-8112674D02*
X13146253Y-8160293D01*
X13146253Y-8160293D02*
X13136729Y-8198388D01*
X13136729Y-8198388D02*
X13127205Y-8217436D01*
X13127205Y-8217436D02*
X13117682Y-8226960D01*
X13117682Y-8226960D02*
X13098634Y-8236484D01*
X13098634Y-8236484D02*
X13079586Y-8236484D01*
X13079586Y-8236484D02*
X13060539Y-8226960D01*
X13060539Y-8226960D02*
X13051015Y-8217436D01*
X13051015Y-8217436D02*
X13041491Y-8198388D01*
X13041491Y-8198388D02*
X13031967Y-8160293D01*
X13031967Y-8160293D02*
X13031967Y-8112674D01*
X13031967Y-8112674D02*
X13041491Y-8074579D01*
X13041491Y-8074579D02*
X13051015Y-8055531D01*
X13051015Y-8055531D02*
X13060539Y-8046008D01*
X13060539Y-8046008D02*
X13079586Y-8036484D01*
X13270062Y-8036484D02*
X13289110Y-8036484D01*
X13289110Y-8036484D02*
X13308158Y-8046008D01*
X13308158Y-8046008D02*
X13317682Y-8055531D01*
X13317682Y-8055531D02*
X13327205Y-8074579D01*
X13327205Y-8074579D02*
X13336729Y-8112674D01*
X13336729Y-8112674D02*
X13336729Y-8160293D01*
X13336729Y-8160293D02*
X13327205Y-8198388D01*
X13327205Y-8198388D02*
X13317682Y-8217436D01*
X13317682Y-8217436D02*
X13308158Y-8226960D01*
X13308158Y-8226960D02*
X13289110Y-8236484D01*
X13289110Y-8236484D02*
X13270062Y-8236484D01*
X13270062Y-8236484D02*
X13251015Y-8226960D01*
X13251015Y-8226960D02*
X13241491Y-8217436D01*
X13241491Y-8217436D02*
X13231967Y-8198388D01*
X13231967Y-8198388D02*
X13222443Y-8160293D01*
X13222443Y-8160293D02*
X13222443Y-8112674D01*
X13222443Y-8112674D02*
X13231967Y-8074579D01*
X13231967Y-8074579D02*
X13241491Y-8055531D01*
X13241491Y-8055531D02*
X13251015Y-8046008D01*
X13251015Y-8046008D02*
X13270062Y-8036484D01*
X13460539Y-8036484D02*
X13479586Y-8036484D01*
X13479586Y-8036484D02*
X13498634Y-8046008D01*
X13498634Y-8046008D02*
X13508158Y-8055531D01*
X13508158Y-8055531D02*
X13517682Y-8074579D01*
X13517682Y-8074579D02*
X13527205Y-8112674D01*
X13527205Y-8112674D02*
X13527205Y-8160293D01*
X13527205Y-8160293D02*
X13517682Y-8198388D01*
X13517682Y-8198388D02*
X13508158Y-8217436D01*
X13508158Y-8217436D02*
X13498634Y-8226960D01*
X13498634Y-8226960D02*
X13479586Y-8236484D01*
X13479586Y-8236484D02*
X13460539Y-8236484D01*
X13460539Y-8236484D02*
X13441491Y-8226960D01*
X13441491Y-8226960D02*
X13431967Y-8217436D01*
X13431967Y-8217436D02*
X13422443Y-8198388D01*
X13422443Y-8198388D02*
X13412920Y-8160293D01*
X13412920Y-8160293D02*
X13412920Y-8112674D01*
X13412920Y-8112674D02*
X13422443Y-8074579D01*
X13422443Y-8074579D02*
X13431967Y-8055531D01*
X13431967Y-8055531D02*
X13441491Y-8046008D01*
X13441491Y-8046008D02*
X13460539Y-8036484D01*
X13612920Y-8236484D02*
X13612920Y-8103150D01*
X13612920Y-8122198D02*
X13622443Y-8112674D01*
X13622443Y-8112674D02*
X13641491Y-8103150D01*
X13641491Y-8103150D02*
X13670063Y-8103150D01*
X13670063Y-8103150D02*
X13689110Y-8112674D01*
X13689110Y-8112674D02*
X13698634Y-8131722D01*
X13698634Y-8131722D02*
X13698634Y-8236484D01*
X13698634Y-8131722D02*
X13708158Y-8112674D01*
X13708158Y-8112674D02*
X13727205Y-8103150D01*
X13727205Y-8103150D02*
X13755777Y-8103150D01*
X13755777Y-8103150D02*
X13774824Y-8112674D01*
X13774824Y-8112674D02*
X13784348Y-8131722D01*
X13784348Y-8131722D02*
X13784348Y-8236484D01*
X13879586Y-8236484D02*
X13879586Y-8103150D01*
X13879586Y-8122198D02*
X13889110Y-8112674D01*
X13889110Y-8112674D02*
X13908158Y-8103150D01*
X13908158Y-8103150D02*
X13936729Y-8103150D01*
X13936729Y-8103150D02*
X13955777Y-8112674D01*
X13955777Y-8112674D02*
X13965301Y-8131722D01*
X13965301Y-8131722D02*
X13965301Y-8236484D01*
X13965301Y-8131722D02*
X13974824Y-8112674D01*
X13974824Y-8112674D02*
X13993872Y-8103150D01*
X13993872Y-8103150D02*
X14022443Y-8103150D01*
X14022443Y-8103150D02*
X14041491Y-8112674D01*
X14041491Y-8112674D02*
X14051015Y-8131722D01*
X14051015Y-8131722D02*
X14051015Y-8236484D01*
X14441491Y-8026960D02*
X14270063Y-8284103D01*
X14698634Y-8036484D02*
X14717682Y-8036484D01*
X14717682Y-8036484D02*
X14736729Y-8046008D01*
X14736729Y-8046008D02*
X14746253Y-8055531D01*
X14746253Y-8055531D02*
X14755777Y-8074579D01*
X14755777Y-8074579D02*
X14765301Y-8112674D01*
X14765301Y-8112674D02*
X14765301Y-8160293D01*
X14765301Y-8160293D02*
X14755777Y-8198388D01*
X14755777Y-8198388D02*
X14746253Y-8217436D01*
X14746253Y-8217436D02*
X14736729Y-8226960D01*
X14736729Y-8226960D02*
X14717682Y-8236484D01*
X14717682Y-8236484D02*
X14698634Y-8236484D01*
X14698634Y-8236484D02*
X14679586Y-8226960D01*
X14679586Y-8226960D02*
X14670063Y-8217436D01*
X14670063Y-8217436D02*
X14660539Y-8198388D01*
X14660539Y-8198388D02*
X14651015Y-8160293D01*
X14651015Y-8160293D02*
X14651015Y-8112674D01*
X14651015Y-8112674D02*
X14660539Y-8074579D01*
X14660539Y-8074579D02*
X14670063Y-8055531D01*
X14670063Y-8055531D02*
X14679586Y-8046008D01*
X14679586Y-8046008D02*
X14698634Y-8036484D01*
X14851015Y-8217436D02*
X14860539Y-8226960D01*
X14860539Y-8226960D02*
X14851015Y-8236484D01*
X14851015Y-8236484D02*
X14841491Y-8226960D01*
X14841491Y-8226960D02*
X14851015Y-8217436D01*
X14851015Y-8217436D02*
X14851015Y-8236484D01*
X14984348Y-8036484D02*
X15003396Y-8036484D01*
X15003396Y-8036484D02*
X15022444Y-8046008D01*
X15022444Y-8046008D02*
X15031967Y-8055531D01*
X15031967Y-8055531D02*
X15041491Y-8074579D01*
X15041491Y-8074579D02*
X15051015Y-8112674D01*
X15051015Y-8112674D02*
X15051015Y-8160293D01*
X15051015Y-8160293D02*
X15041491Y-8198388D01*
X15041491Y-8198388D02*
X15031967Y-8217436D01*
X15031967Y-8217436D02*
X15022444Y-8226960D01*
X15022444Y-8226960D02*
X15003396Y-8236484D01*
X15003396Y-8236484D02*
X14984348Y-8236484D01*
X14984348Y-8236484D02*
X14965301Y-8226960D01*
X14965301Y-8226960D02*
X14955777Y-8217436D01*
X14955777Y-8217436D02*
X14946253Y-8198388D01*
X14946253Y-8198388D02*
X14936729Y-8160293D01*
X14936729Y-8160293D02*
X14936729Y-8112674D01*
X14936729Y-8112674D02*
X14946253Y-8074579D01*
X14946253Y-8074579D02*
X14955777Y-8055531D01*
X14955777Y-8055531D02*
X14965301Y-8046008D01*
X14965301Y-8046008D02*
X14984348Y-8036484D01*
X15117682Y-8036484D02*
X15241491Y-8036484D01*
X15241491Y-8036484D02*
X15174825Y-8112674D01*
X15174825Y-8112674D02*
X15203396Y-8112674D01*
X15203396Y-8112674D02*
X15222444Y-8122198D01*
X15222444Y-8122198D02*
X15231967Y-8131722D01*
X15231967Y-8131722D02*
X15241491Y-8150769D01*
X15241491Y-8150769D02*
X15241491Y-8198388D01*
X15241491Y-8198388D02*
X15231967Y-8217436D01*
X15231967Y-8217436D02*
X15222444Y-8226960D01*
X15222444Y-8226960D02*
X15203396Y-8236484D01*
X15203396Y-8236484D02*
X15146253Y-8236484D01*
X15146253Y-8236484D02*
X15127206Y-8226960D01*
X15127206Y-8226960D02*
X15117682Y-8217436D01*
X15336729Y-8236484D02*
X15374825Y-8236484D01*
X15374825Y-8236484D02*
X15393872Y-8226960D01*
X15393872Y-8226960D02*
X15403396Y-8217436D01*
X15403396Y-8217436D02*
X15422444Y-8188865D01*
X15422444Y-8188865D02*
X15431967Y-8150769D01*
X15431967Y-8150769D02*
X15431967Y-8074579D01*
X15431967Y-8074579D02*
X15422444Y-8055531D01*
X15422444Y-8055531D02*
X15412920Y-8046008D01*
X15412920Y-8046008D02*
X15393872Y-8036484D01*
X15393872Y-8036484D02*
X15355777Y-8036484D01*
X15355777Y-8036484D02*
X15336729Y-8046008D01*
X15336729Y-8046008D02*
X15327206Y-8055531D01*
X15327206Y-8055531D02*
X15317682Y-8074579D01*
X15317682Y-8074579D02*
X15317682Y-8122198D01*
X15317682Y-8122198D02*
X15327206Y-8141246D01*
X15327206Y-8141246D02*
X15336729Y-8150769D01*
X15336729Y-8150769D02*
X15355777Y-8160293D01*
X15355777Y-8160293D02*
X15393872Y-8160293D01*
X15393872Y-8160293D02*
X15412920Y-8150769D01*
X15412920Y-8150769D02*
X15422444Y-8141246D01*
X15422444Y-8141246D02*
X15431967Y-8122198D01*
X15603396Y-8103150D02*
X15603396Y-8236484D01*
X15555777Y-8026960D02*
X15508158Y-8169817D01*
X15508158Y-8169817D02*
X15631967Y-8169817D01*
X15698634Y-8036484D02*
X15698634Y-8074579D01*
X15774825Y-8036484D02*
X15774825Y-8074579D01*
X16070063Y-8312674D02*
X16060539Y-8303150D01*
X16060539Y-8303150D02*
X16041491Y-8274579D01*
X16041491Y-8274579D02*
X16031968Y-8255531D01*
X16031968Y-8255531D02*
X16022444Y-8226960D01*
X16022444Y-8226960D02*
X16012920Y-8179341D01*
X16012920Y-8179341D02*
X16012920Y-8141246D01*
X16012920Y-8141246D02*
X16022444Y-8093627D01*
X16022444Y-8093627D02*
X16031968Y-8065055D01*
X16031968Y-8065055D02*
X16041491Y-8046008D01*
X16041491Y-8046008D02*
X16060539Y-8017436D01*
X16060539Y-8017436D02*
X16070063Y-8007912D01*
X16251015Y-8236484D02*
X16136729Y-8236484D01*
X16193872Y-8236484D02*
X16193872Y-8036484D01*
X16193872Y-8036484D02*
X16174825Y-8065055D01*
X16174825Y-8065055D02*
X16155777Y-8084103D01*
X16155777Y-8084103D02*
X16136729Y-8093627D01*
X16365301Y-8122198D02*
X16346253Y-8112674D01*
X16346253Y-8112674D02*
X16336729Y-8103150D01*
X16336729Y-8103150D02*
X16327206Y-8084103D01*
X16327206Y-8084103D02*
X16327206Y-8074579D01*
X16327206Y-8074579D02*
X16336729Y-8055531D01*
X16336729Y-8055531D02*
X16346253Y-8046008D01*
X16346253Y-8046008D02*
X16365301Y-8036484D01*
X16365301Y-8036484D02*
X16403396Y-8036484D01*
X16403396Y-8036484D02*
X16422444Y-8046008D01*
X16422444Y-8046008D02*
X16431968Y-8055531D01*
X16431968Y-8055531D02*
X16441491Y-8074579D01*
X16441491Y-8074579D02*
X16441491Y-8084103D01*
X16441491Y-8084103D02*
X16431968Y-8103150D01*
X16431968Y-8103150D02*
X16422444Y-8112674D01*
X16422444Y-8112674D02*
X16403396Y-8122198D01*
X16403396Y-8122198D02*
X16365301Y-8122198D01*
X16365301Y-8122198D02*
X16346253Y-8131722D01*
X16346253Y-8131722D02*
X16336729Y-8141246D01*
X16336729Y-8141246D02*
X16327206Y-8160293D01*
X16327206Y-8160293D02*
X16327206Y-8198388D01*
X16327206Y-8198388D02*
X16336729Y-8217436D01*
X16336729Y-8217436D02*
X16346253Y-8226960D01*
X16346253Y-8226960D02*
X16365301Y-8236484D01*
X16365301Y-8236484D02*
X16403396Y-8236484D01*
X16403396Y-8236484D02*
X16422444Y-8226960D01*
X16422444Y-8226960D02*
X16431968Y-8217436D01*
X16431968Y-8217436D02*
X16441491Y-8198388D01*
X16441491Y-8198388D02*
X16441491Y-8160293D01*
X16441491Y-8160293D02*
X16431968Y-8141246D01*
X16431968Y-8141246D02*
X16422444Y-8131722D01*
X16422444Y-8131722D02*
X16403396Y-8122198D01*
X16679587Y-8236484D02*
X16679587Y-8036484D01*
X16765301Y-8236484D02*
X16765301Y-8131722D01*
X16765301Y-8131722D02*
X16755777Y-8112674D01*
X16755777Y-8112674D02*
X16736730Y-8103150D01*
X16736730Y-8103150D02*
X16708158Y-8103150D01*
X16708158Y-8103150D02*
X16689110Y-8112674D01*
X16689110Y-8112674D02*
X16679587Y-8122198D01*
X16889111Y-8236484D02*
X16870063Y-8226960D01*
X16870063Y-8226960D02*
X16860539Y-8217436D01*
X16860539Y-8217436D02*
X16851015Y-8198388D01*
X16851015Y-8198388D02*
X16851015Y-8141246D01*
X16851015Y-8141246D02*
X16860539Y-8122198D01*
X16860539Y-8122198D02*
X16870063Y-8112674D01*
X16870063Y-8112674D02*
X16889111Y-8103150D01*
X16889111Y-8103150D02*
X16917682Y-8103150D01*
X16917682Y-8103150D02*
X16936730Y-8112674D01*
X16936730Y-8112674D02*
X16946253Y-8122198D01*
X16946253Y-8122198D02*
X16955777Y-8141246D01*
X16955777Y-8141246D02*
X16955777Y-8198388D01*
X16955777Y-8198388D02*
X16946253Y-8217436D01*
X16946253Y-8217436D02*
X16936730Y-8226960D01*
X16936730Y-8226960D02*
X16917682Y-8236484D01*
X16917682Y-8236484D02*
X16889111Y-8236484D01*
X17070063Y-8236484D02*
X17051015Y-8226960D01*
X17051015Y-8226960D02*
X17041492Y-8207912D01*
X17041492Y-8207912D02*
X17041492Y-8036484D01*
X17222444Y-8226960D02*
X17203396Y-8236484D01*
X17203396Y-8236484D02*
X17165301Y-8236484D01*
X17165301Y-8236484D02*
X17146253Y-8226960D01*
X17146253Y-8226960D02*
X17136730Y-8207912D01*
X17136730Y-8207912D02*
X17136730Y-8131722D01*
X17136730Y-8131722D02*
X17146253Y-8112674D01*
X17146253Y-8112674D02*
X17165301Y-8103150D01*
X17165301Y-8103150D02*
X17203396Y-8103150D01*
X17203396Y-8103150D02*
X17222444Y-8112674D01*
X17222444Y-8112674D02*
X17231968Y-8131722D01*
X17231968Y-8131722D02*
X17231968Y-8150769D01*
X17231968Y-8150769D02*
X17136730Y-8169817D01*
X17308158Y-8226960D02*
X17327206Y-8236484D01*
X17327206Y-8236484D02*
X17365301Y-8236484D01*
X17365301Y-8236484D02*
X17384349Y-8226960D01*
X17384349Y-8226960D02*
X17393873Y-8207912D01*
X17393873Y-8207912D02*
X17393873Y-8198388D01*
X17393873Y-8198388D02*
X17384349Y-8179341D01*
X17384349Y-8179341D02*
X17365301Y-8169817D01*
X17365301Y-8169817D02*
X17336730Y-8169817D01*
X17336730Y-8169817D02*
X17317682Y-8160293D01*
X17317682Y-8160293D02*
X17308158Y-8141246D01*
X17308158Y-8141246D02*
X17308158Y-8131722D01*
X17308158Y-8131722D02*
X17317682Y-8112674D01*
X17317682Y-8112674D02*
X17336730Y-8103150D01*
X17336730Y-8103150D02*
X17365301Y-8103150D01*
X17365301Y-8103150D02*
X17384349Y-8112674D01*
X17460539Y-8312674D02*
X17470063Y-8303150D01*
X17470063Y-8303150D02*
X17489111Y-8274579D01*
X17489111Y-8274579D02*
X17498634Y-8255531D01*
X17498634Y-8255531D02*
X17508158Y-8226960D01*
X17508158Y-8226960D02*
X17517682Y-8179341D01*
X17517682Y-8179341D02*
X17517682Y-8141246D01*
X17517682Y-8141246D02*
X17508158Y-8093627D01*
X17508158Y-8093627D02*
X17498634Y-8065055D01*
X17498634Y-8065055D02*
X17489111Y-8046008D01*
X17489111Y-8046008D02*
X17470063Y-8017436D01*
X17470063Y-8017436D02*
X17460539Y-8007912D01*
M02*
