%TF.GenerationSoftware,KiCad,Pcbnew,8.0.7*%
%TF.CreationDate,2024-12-05T10:47:54-06:00*%
%TF.ProjectId,obverse,6f627665-7273-4652-9e6b-696361645f70,rev?*%
%TF.SameCoordinates,Original*%
%TF.FileFunction,Drillmap*%
%TF.FilePolarity,Positive*%
%FSLAX45Y45*%
G04 Gerber Fmt 4.5, Leading zero omitted, Abs format (unit mm)*
G04 Created by KiCad (PCBNEW 8.0.7) date 2024-12-05 10:47:54*
%MOMM*%
%LPD*%
G01*
G04 APERTURE LIST*
%ADD10C,0.050000*%
%ADD11C,0.200000*%
G04 APERTURE END LIST*
D10*
X17000000Y-5000000D02*
G75*
G02*
X13000000Y-5000000I-2000000J0D01*
G01*
X13000000Y-5000000D02*
G75*
G02*
X17000000Y-5000000I2000000J0D01*
G01*
D11*
X13258277Y-7313984D02*
X13258277Y-7113984D01*
X13258277Y-7113984D02*
X13305896Y-7113984D01*
X13305896Y-7113984D02*
X13334467Y-7123508D01*
X13334467Y-7123508D02*
X13353515Y-7142555D01*
X13353515Y-7142555D02*
X13363039Y-7161603D01*
X13363039Y-7161603D02*
X13372562Y-7199698D01*
X13372562Y-7199698D02*
X13372562Y-7228269D01*
X13372562Y-7228269D02*
X13363039Y-7266365D01*
X13363039Y-7266365D02*
X13353515Y-7285412D01*
X13353515Y-7285412D02*
X13334467Y-7304460D01*
X13334467Y-7304460D02*
X13305896Y-7313984D01*
X13305896Y-7313984D02*
X13258277Y-7313984D01*
X13458277Y-7313984D02*
X13458277Y-7180650D01*
X13458277Y-7218746D02*
X13467801Y-7199698D01*
X13467801Y-7199698D02*
X13477324Y-7190174D01*
X13477324Y-7190174D02*
X13496372Y-7180650D01*
X13496372Y-7180650D02*
X13515420Y-7180650D01*
X13582086Y-7313984D02*
X13582086Y-7180650D01*
X13582086Y-7113984D02*
X13572562Y-7123508D01*
X13572562Y-7123508D02*
X13582086Y-7133031D01*
X13582086Y-7133031D02*
X13591610Y-7123508D01*
X13591610Y-7123508D02*
X13582086Y-7113984D01*
X13582086Y-7113984D02*
X13582086Y-7133031D01*
X13705896Y-7313984D02*
X13686848Y-7304460D01*
X13686848Y-7304460D02*
X13677324Y-7285412D01*
X13677324Y-7285412D02*
X13677324Y-7113984D01*
X13810658Y-7313984D02*
X13791610Y-7304460D01*
X13791610Y-7304460D02*
X13782086Y-7285412D01*
X13782086Y-7285412D02*
X13782086Y-7113984D01*
X14039229Y-7313984D02*
X14039229Y-7113984D01*
X14039229Y-7113984D02*
X14105896Y-7256841D01*
X14105896Y-7256841D02*
X14172562Y-7113984D01*
X14172562Y-7113984D02*
X14172562Y-7313984D01*
X14353515Y-7313984D02*
X14353515Y-7209222D01*
X14353515Y-7209222D02*
X14343991Y-7190174D01*
X14343991Y-7190174D02*
X14324943Y-7180650D01*
X14324943Y-7180650D02*
X14286848Y-7180650D01*
X14286848Y-7180650D02*
X14267801Y-7190174D01*
X14353515Y-7304460D02*
X14334467Y-7313984D01*
X14334467Y-7313984D02*
X14286848Y-7313984D01*
X14286848Y-7313984D02*
X14267801Y-7304460D01*
X14267801Y-7304460D02*
X14258277Y-7285412D01*
X14258277Y-7285412D02*
X14258277Y-7266365D01*
X14258277Y-7266365D02*
X14267801Y-7247317D01*
X14267801Y-7247317D02*
X14286848Y-7237793D01*
X14286848Y-7237793D02*
X14334467Y-7237793D01*
X14334467Y-7237793D02*
X14353515Y-7228269D01*
X14448753Y-7180650D02*
X14448753Y-7380650D01*
X14448753Y-7190174D02*
X14467801Y-7180650D01*
X14467801Y-7180650D02*
X14505896Y-7180650D01*
X14505896Y-7180650D02*
X14524943Y-7190174D01*
X14524943Y-7190174D02*
X14534467Y-7199698D01*
X14534467Y-7199698D02*
X14543991Y-7218746D01*
X14543991Y-7218746D02*
X14543991Y-7275888D01*
X14543991Y-7275888D02*
X14534467Y-7294936D01*
X14534467Y-7294936D02*
X14524943Y-7304460D01*
X14524943Y-7304460D02*
X14505896Y-7313984D01*
X14505896Y-7313984D02*
X14467801Y-7313984D01*
X14467801Y-7313984D02*
X14448753Y-7304460D01*
X14629705Y-7294936D02*
X14639229Y-7304460D01*
X14639229Y-7304460D02*
X14629705Y-7313984D01*
X14629705Y-7313984D02*
X14620182Y-7304460D01*
X14620182Y-7304460D02*
X14629705Y-7294936D01*
X14629705Y-7294936D02*
X14629705Y-7313984D01*
X14629705Y-7190174D02*
X14639229Y-7199698D01*
X14639229Y-7199698D02*
X14629705Y-7209222D01*
X14629705Y-7209222D02*
X14620182Y-7199698D01*
X14620182Y-7199698D02*
X14629705Y-7190174D01*
X14629705Y-7190174D02*
X14629705Y-7209222D01*
M02*
