%TF.GenerationSoftware,KiCad,Pcbnew,8.0.8*%
%TF.CreationDate,2025-02-15T12:23:53-06:00*%
%TF.ProjectId,obverse,6f627665-7273-4652-9e6b-696361645f70,rev?*%
%TF.SameCoordinates,Original*%
%TF.FileFunction,Drillmap*%
%TF.FilePolarity,Positive*%
%FSLAX45Y45*%
G04 Gerber Fmt 4.5, Leading zero omitted, Abs format (unit mm)*
G04 Created by KiCad (PCBNEW 8.0.8) date 2025-02-15 12:23:53*
%MOMM*%
%LPD*%
G01*
G04 APERTURE LIST*
%ADD10C,0.100000*%
%ADD11C,0.200000*%
G04 APERTURE END LIST*
D10*
X17500000Y-10000000D02*
G75*
G02*
X12500000Y-10000000I-2500000J0D01*
G01*
X12500000Y-10000000D02*
G75*
G02*
X17500000Y-10000000I2500000J0D01*
G01*
D11*
X12755777Y-12816484D02*
X12755777Y-12616484D01*
X12755777Y-12616484D02*
X12803396Y-12616484D01*
X12803396Y-12616484D02*
X12831967Y-12626008D01*
X12831967Y-12626008D02*
X12851015Y-12645055D01*
X12851015Y-12645055D02*
X12860539Y-12664103D01*
X12860539Y-12664103D02*
X12870062Y-12702198D01*
X12870062Y-12702198D02*
X12870062Y-12730769D01*
X12870062Y-12730769D02*
X12860539Y-12768865D01*
X12860539Y-12768865D02*
X12851015Y-12787912D01*
X12851015Y-12787912D02*
X12831967Y-12806960D01*
X12831967Y-12806960D02*
X12803396Y-12816484D01*
X12803396Y-12816484D02*
X12755777Y-12816484D01*
X12955777Y-12816484D02*
X12955777Y-12683150D01*
X12955777Y-12721246D02*
X12965301Y-12702198D01*
X12965301Y-12702198D02*
X12974824Y-12692674D01*
X12974824Y-12692674D02*
X12993872Y-12683150D01*
X12993872Y-12683150D02*
X13012920Y-12683150D01*
X13079586Y-12816484D02*
X13079586Y-12683150D01*
X13079586Y-12616484D02*
X13070062Y-12626008D01*
X13070062Y-12626008D02*
X13079586Y-12635531D01*
X13079586Y-12635531D02*
X13089110Y-12626008D01*
X13089110Y-12626008D02*
X13079586Y-12616484D01*
X13079586Y-12616484D02*
X13079586Y-12635531D01*
X13203396Y-12816484D02*
X13184348Y-12806960D01*
X13184348Y-12806960D02*
X13174824Y-12787912D01*
X13174824Y-12787912D02*
X13174824Y-12616484D01*
X13308158Y-12816484D02*
X13289110Y-12806960D01*
X13289110Y-12806960D02*
X13279586Y-12787912D01*
X13279586Y-12787912D02*
X13279586Y-12616484D01*
X13536729Y-12816484D02*
X13536729Y-12616484D01*
X13536729Y-12616484D02*
X13603396Y-12759341D01*
X13603396Y-12759341D02*
X13670062Y-12616484D01*
X13670062Y-12616484D02*
X13670062Y-12816484D01*
X13851015Y-12816484D02*
X13851015Y-12711722D01*
X13851015Y-12711722D02*
X13841491Y-12692674D01*
X13841491Y-12692674D02*
X13822443Y-12683150D01*
X13822443Y-12683150D02*
X13784348Y-12683150D01*
X13784348Y-12683150D02*
X13765301Y-12692674D01*
X13851015Y-12806960D02*
X13831967Y-12816484D01*
X13831967Y-12816484D02*
X13784348Y-12816484D01*
X13784348Y-12816484D02*
X13765301Y-12806960D01*
X13765301Y-12806960D02*
X13755777Y-12787912D01*
X13755777Y-12787912D02*
X13755777Y-12768865D01*
X13755777Y-12768865D02*
X13765301Y-12749817D01*
X13765301Y-12749817D02*
X13784348Y-12740293D01*
X13784348Y-12740293D02*
X13831967Y-12740293D01*
X13831967Y-12740293D02*
X13851015Y-12730769D01*
X13946253Y-12683150D02*
X13946253Y-12883150D01*
X13946253Y-12692674D02*
X13965301Y-12683150D01*
X13965301Y-12683150D02*
X14003396Y-12683150D01*
X14003396Y-12683150D02*
X14022443Y-12692674D01*
X14022443Y-12692674D02*
X14031967Y-12702198D01*
X14031967Y-12702198D02*
X14041491Y-12721246D01*
X14041491Y-12721246D02*
X14041491Y-12778388D01*
X14041491Y-12778388D02*
X14031967Y-12797436D01*
X14031967Y-12797436D02*
X14022443Y-12806960D01*
X14022443Y-12806960D02*
X14003396Y-12816484D01*
X14003396Y-12816484D02*
X13965301Y-12816484D01*
X13965301Y-12816484D02*
X13946253Y-12806960D01*
X14127205Y-12797436D02*
X14136729Y-12806960D01*
X14136729Y-12806960D02*
X14127205Y-12816484D01*
X14127205Y-12816484D02*
X14117682Y-12806960D01*
X14117682Y-12806960D02*
X14127205Y-12797436D01*
X14127205Y-12797436D02*
X14127205Y-12816484D01*
X14127205Y-12692674D02*
X14136729Y-12702198D01*
X14136729Y-12702198D02*
X14127205Y-12711722D01*
X14127205Y-12711722D02*
X14117682Y-12702198D01*
X14117682Y-12702198D02*
X14127205Y-12692674D01*
X14127205Y-12692674D02*
X14127205Y-12711722D01*
M02*
