%TF.GenerationSoftware,KiCad,Pcbnew,8.0.7*%
%TF.CreationDate,2024-12-05T10:47:50-06:00*%
%TF.ProjectId,obverse,6f627665-7273-4652-9e6b-696361645f70,rev?*%
%TF.SameCoordinates,Original*%
%TF.FileFunction,Legend,Bot*%
%TF.FilePolarity,Positive*%
%FSLAX46Y46*%
G04 Gerber Fmt 4.6, Leading zero omitted, Abs format (unit mm)*
G04 Created by KiCad (PCBNEW 8.0.7) date 2024-12-05 10:47:50*
%MOMM*%
%LPD*%
G01*
G04 APERTURE LIST*
%ADD10C,1.000000*%
%ADD11C,0.150000*%
%ADD12C,0.120000*%
%ADD13C,0.600000*%
%ADD14C,4.000000*%
%ADD15C,10.000000*%
G04 APERTURE END LIST*
D10*
X153809523Y-66296666D02*
X146190476Y-66296666D01*
X149999999Y-70106190D02*
X149999999Y-62487142D01*
D11*
X150404761Y-54033009D02*
X150261904Y-54080628D01*
X150261904Y-54080628D02*
X150214285Y-54128247D01*
X150214285Y-54128247D02*
X150166666Y-54223485D01*
X150166666Y-54223485D02*
X150166666Y-54366342D01*
X150166666Y-54366342D02*
X150214285Y-54461580D01*
X150214285Y-54461580D02*
X150261904Y-54509200D01*
X150261904Y-54509200D02*
X150357142Y-54556819D01*
X150357142Y-54556819D02*
X150738094Y-54556819D01*
X150738094Y-54556819D02*
X150738094Y-53556819D01*
X150738094Y-53556819D02*
X150404761Y-53556819D01*
X150404761Y-53556819D02*
X150309523Y-53604438D01*
X150309523Y-53604438D02*
X150261904Y-53652057D01*
X150261904Y-53652057D02*
X150214285Y-53747295D01*
X150214285Y-53747295D02*
X150214285Y-53842533D01*
X150214285Y-53842533D02*
X150261904Y-53937771D01*
X150261904Y-53937771D02*
X150309523Y-53985390D01*
X150309523Y-53985390D02*
X150404761Y-54033009D01*
X150404761Y-54033009D02*
X150738094Y-54033009D01*
X149785713Y-53652057D02*
X149738094Y-53604438D01*
X149738094Y-53604438D02*
X149642856Y-53556819D01*
X149642856Y-53556819D02*
X149404761Y-53556819D01*
X149404761Y-53556819D02*
X149309523Y-53604438D01*
X149309523Y-53604438D02*
X149261904Y-53652057D01*
X149261904Y-53652057D02*
X149214285Y-53747295D01*
X149214285Y-53747295D02*
X149214285Y-53842533D01*
X149214285Y-53842533D02*
X149261904Y-53985390D01*
X149261904Y-53985390D02*
X149833332Y-54556819D01*
X149833332Y-54556819D02*
X149214285Y-54556819D01*
D12*
%TO.C,REF\u002A\u002A*%
X144750000Y-47000000D02*
G75*
G02*
X140250000Y-47000000I-2250000J0D01*
G01*
X140250000Y-47000000D02*
G75*
G02*
X144750000Y-47000000I2250000J0D01*
G01*
%TO.C,+*%
X152250000Y-57000000D02*
G75*
G02*
X147750000Y-57000000I-2250000J0D01*
G01*
X147750000Y-57000000D02*
G75*
G02*
X152250000Y-57000000I2250000J0D01*
G01*
%TO.C,B2*%
X152250000Y-57000000D02*
G75*
G02*
X147750000Y-57000000I-2250000J0D01*
G01*
X147750000Y-57000000D02*
G75*
G02*
X152250000Y-57000000I2250000J0D01*
G01*
%TD*%
%LPC*%
D13*
%TO.C,T51*%
X133978530Y-40750000D03*
%TD*%
%TO.C,T43*%
X166021469Y-40750000D03*
%TD*%
%TO.C,T50*%
X131500000Y-50000000D03*
%TD*%
%TO.C,T48*%
X140500000Y-66021469D03*
%TD*%
%TO.C,T44*%
X168500000Y-50000000D03*
%TD*%
%TO.C,T45*%
X166021469Y-59250000D03*
%TD*%
%TO.C,T46*%
X159500000Y-66021469D03*
%TD*%
%TO.C,T52*%
X140750000Y-33978530D03*
%TD*%
%TO.C,T49*%
X133978530Y-59250000D03*
%TD*%
%TO.C,T42*%
X159250000Y-33978530D03*
%TD*%
D14*
%TO.C,REF\u002A\u002A*%
X142500000Y-47000000D03*
%TD*%
D15*
%TO.C,+*%
X150000000Y-57000000D03*
%TD*%
D14*
%TO.C,B2*%
X150000000Y-57000000D03*
%TD*%
%LPD*%
M02*
