%TF.GenerationSoftware,KiCad,Pcbnew,8.0.8*%
%TF.CreationDate,2025-02-15T12:23:45-06:00*%
%TF.ProjectId,obverse,6f627665-7273-4652-9e6b-696361645f70,rev?*%
%TF.SameCoordinates,Original*%
%TF.FileFunction,Copper,L2,Bot*%
%TF.FilePolarity,Positive*%
%FSLAX46Y46*%
G04 Gerber Fmt 4.6, Leading zero omitted, Abs format (unit mm)*
G04 Created by KiCad (PCBNEW 8.0.8) date 2025-02-15 12:23:45*
%MOMM*%
%LPD*%
G01*
G04 APERTURE LIST*
%TA.AperFunction,ComponentPad*%
%ADD10C,3.500000*%
%TD*%
%TA.AperFunction,ComponentPad*%
%ADD11C,1.600000*%
%TD*%
%TA.AperFunction,SMDPad,CuDef*%
%ADD12C,4.000000*%
%TD*%
%TA.AperFunction,SMDPad,CuDef*%
%ADD13C,10.000000*%
%TD*%
%TA.AperFunction,Conductor*%
%ADD14C,4.000000*%
%TD*%
G04 APERTURE END LIST*
D10*
%TO.P,aperture-D4,1*%
%TO.N,GND*%
X127000000Y-100000000D03*
%TD*%
%TO.P,aperture-D3,1*%
%TO.N,GND*%
X128387000Y-107866000D03*
%TD*%
%TO.P,aperture-D15,1*%
%TO.N,GND*%
X167619000Y-114784000D03*
%TD*%
D11*
%TO.P,align-o2,1*%
%TO.N,GND*%
X172200000Y-102400000D03*
%TD*%
D10*
%TO.P,aperture-D11,1*%
%TO.N,GND*%
X167619000Y-85215900D03*
%TD*%
%TO.P,aperture-D8,1*%
%TO.N,GND*%
X146006000Y-77349400D03*
%TD*%
%TO.P,aperture-D16,1*%
%TO.N,GND*%
X161500000Y-119919000D03*
%TD*%
%TO.P,aperture-D5,1*%
%TO.N,GND*%
X128387000Y-92133500D03*
%TD*%
%TO.P,aperture-D7,1*%
%TO.N,GND*%
X138500000Y-80081400D03*
%TD*%
%TO.P,aperture-D13,1*%
%TO.N,GND*%
X173000000Y-100000000D03*
%TD*%
%TO.P,aperture-D14,1*%
%TO.N,GND*%
X171613000Y-107866000D03*
%TD*%
%TO.P,aperture-D12,1*%
%TO.N,GND*%
X171613000Y-92133500D03*
%TD*%
%TO.P,aperture-D6,1*%
%TO.N,GND*%
X132381000Y-85215900D03*
%TD*%
%TO.P,aperture-D2,1*%
%TO.N,GND*%
X132381000Y-114784000D03*
%TD*%
%TO.P,aperture-D9,1*%
%TO.N,GND*%
X153994000Y-77349400D03*
%TD*%
%TO.P,aperture-D10,1*%
%TO.N,GND*%
X161500000Y-80081400D03*
%TD*%
D11*
%TO.P,align-o1,1*%
%TO.N,GND*%
X127800000Y-97300000D03*
%TD*%
D10*
%TO.P,aperture-D1,1*%
%TO.N,GND*%
X138500000Y-119919000D03*
%TD*%
D12*
%TO.P,contact-o1,1*%
%TO.N,+3V0*%
X144996000Y-103670000D03*
%TD*%
D13*
%TO.P,+,1,1*%
%TO.N,+3V0*%
X150000000Y-114500000D03*
%TD*%
D12*
%TO.P,B2,1,1*%
%TO.N,+3V0*%
X150000000Y-114500000D03*
%TD*%
D14*
%TO.N,+3V0*%
X144996000Y-109496000D02*
X150000000Y-114500000D01*
X144996000Y-103670000D02*
X144996000Y-109496000D01*
%TD*%
%TA.AperFunction,Conductor*%
%TO.N,GND*%
G36*
X150984027Y-75520319D02*
G01*
X150988954Y-75520517D01*
X151968919Y-75579794D01*
X151973860Y-75580193D01*
X152950617Y-75678879D01*
X152955551Y-75679478D01*
X153927534Y-75817412D01*
X153932431Y-75818208D01*
X154898078Y-75995170D01*
X154902963Y-75996167D01*
X155860684Y-76211863D01*
X155865511Y-76213053D01*
X156813819Y-76467152D01*
X156818568Y-76468528D01*
X157755844Y-76760594D01*
X157760506Y-76762150D01*
X158685317Y-77091741D01*
X158689942Y-77093496D01*
X159600690Y-77460040D01*
X159605229Y-77461973D01*
X160500476Y-77864891D01*
X160504979Y-77867028D01*
X161383264Y-78305661D01*
X161387664Y-78307970D01*
X162247571Y-78781611D01*
X162251876Y-78784096D01*
X163092031Y-79291986D01*
X163096200Y-79294623D01*
X163915219Y-79835930D01*
X163919320Y-79838760D01*
X164715881Y-80412608D01*
X164719834Y-80415579D01*
X165404371Y-80951880D01*
X165492642Y-81021036D01*
X165496510Y-81024195D01*
X166244250Y-81660225D01*
X166247989Y-81663536D01*
X166969580Y-82329222D01*
X166973181Y-82332682D01*
X167667317Y-83026818D01*
X167670777Y-83030419D01*
X168336463Y-83752010D01*
X168339774Y-83755749D01*
X168975804Y-84503489D01*
X168978963Y-84507357D01*
X169584405Y-85280145D01*
X169587405Y-85284137D01*
X170161232Y-86080670D01*
X170164069Y-86084780D01*
X170705360Y-86903773D01*
X170708029Y-86907994D01*
X171215897Y-87748113D01*
X171218394Y-87752438D01*
X171692023Y-88612324D01*
X171694344Y-88616746D01*
X172132967Y-89495011D01*
X172135108Y-89499523D01*
X172538014Y-90394743D01*
X172539971Y-90399337D01*
X172906498Y-91310043D01*
X172908269Y-91314712D01*
X173237834Y-92239448D01*
X173239415Y-92244186D01*
X173531464Y-93181408D01*
X173532854Y-93186204D01*
X173786943Y-94134477D01*
X173788138Y-94139326D01*
X174003831Y-95097032D01*
X174004830Y-95101925D01*
X174181788Y-96067551D01*
X174182589Y-96072481D01*
X174320519Y-97044436D01*
X174321121Y-97049393D01*
X174419804Y-98026120D01*
X174420206Y-98031098D01*
X174479480Y-99011014D01*
X174479681Y-99016004D01*
X174499449Y-99997503D01*
X174499449Y-100002497D01*
X174479681Y-100983995D01*
X174479480Y-100988985D01*
X174420206Y-101968901D01*
X174419804Y-101973879D01*
X174321121Y-102950606D01*
X174320519Y-102955563D01*
X174182589Y-103927518D01*
X174181788Y-103932448D01*
X174004830Y-104898074D01*
X174003831Y-104902967D01*
X173788138Y-105860673D01*
X173786943Y-105865522D01*
X173532854Y-106813795D01*
X173531464Y-106818591D01*
X173239415Y-107755813D01*
X173237834Y-107760551D01*
X172908269Y-108685287D01*
X172906498Y-108689956D01*
X172539971Y-109600662D01*
X172538014Y-109605256D01*
X172135108Y-110500476D01*
X172132967Y-110504988D01*
X171694344Y-111383253D01*
X171692023Y-111387675D01*
X171218394Y-112247561D01*
X171215897Y-112251886D01*
X170708029Y-113092005D01*
X170705360Y-113096226D01*
X170164069Y-113915219D01*
X170161232Y-113919329D01*
X169587405Y-114715862D01*
X169584405Y-114719854D01*
X168978963Y-115492642D01*
X168975804Y-115496510D01*
X168339774Y-116244250D01*
X168336463Y-116247989D01*
X167670777Y-116969580D01*
X167667317Y-116973181D01*
X166973181Y-117667317D01*
X166969580Y-117670777D01*
X166247989Y-118336463D01*
X166244250Y-118339774D01*
X165496510Y-118975804D01*
X165492642Y-118978963D01*
X164719854Y-119584405D01*
X164715862Y-119587405D01*
X163919329Y-120161232D01*
X163915219Y-120164069D01*
X163096226Y-120705360D01*
X163092005Y-120708029D01*
X162251886Y-121215897D01*
X162247561Y-121218394D01*
X161387675Y-121692023D01*
X161383253Y-121694344D01*
X160504988Y-122132967D01*
X160500476Y-122135108D01*
X159605256Y-122538014D01*
X159600662Y-122539971D01*
X158689956Y-122906498D01*
X158685287Y-122908269D01*
X157760551Y-123237834D01*
X157755813Y-123239415D01*
X156818591Y-123531464D01*
X156813795Y-123532854D01*
X155865522Y-123786943D01*
X155860673Y-123788138D01*
X154902967Y-124003831D01*
X154898074Y-124004830D01*
X153932448Y-124181788D01*
X153927518Y-124182589D01*
X152955563Y-124320519D01*
X152950606Y-124321121D01*
X151973879Y-124419804D01*
X151968901Y-124420206D01*
X150988985Y-124479480D01*
X150983995Y-124479681D01*
X150002497Y-124499449D01*
X149997503Y-124499449D01*
X149016004Y-124479681D01*
X149011014Y-124479480D01*
X148031098Y-124420206D01*
X148026120Y-124419804D01*
X147049393Y-124321121D01*
X147044436Y-124320519D01*
X146072481Y-124182589D01*
X146067551Y-124181788D01*
X145101925Y-124004830D01*
X145097032Y-124003831D01*
X144139326Y-123788138D01*
X144134477Y-123786943D01*
X143186204Y-123532854D01*
X143181408Y-123531464D01*
X142244186Y-123239415D01*
X142239464Y-123237839D01*
X141314709Y-122908267D01*
X141310043Y-122906498D01*
X140399337Y-122539971D01*
X140394743Y-122538014D01*
X139499523Y-122135108D01*
X139495011Y-122132967D01*
X138616746Y-121694344D01*
X138612324Y-121692023D01*
X137752438Y-121218394D01*
X137748113Y-121215897D01*
X137494922Y-121062838D01*
X136907982Y-120708021D01*
X136903786Y-120705368D01*
X136084780Y-120164069D01*
X136080670Y-120161232D01*
X135857557Y-120000500D01*
X135284126Y-119587396D01*
X135280157Y-119584414D01*
X134507357Y-118978963D01*
X134503489Y-118975804D01*
X133755749Y-118339774D01*
X133752010Y-118336463D01*
X133030419Y-117670777D01*
X133026818Y-117667317D01*
X132332682Y-116973181D01*
X132329222Y-116969580D01*
X131663536Y-116247989D01*
X131660225Y-116244250D01*
X131024195Y-115496510D01*
X131021036Y-115492642D01*
X130628578Y-114991707D01*
X130415579Y-114719834D01*
X130412608Y-114715881D01*
X129838760Y-113919320D01*
X129835930Y-113915219D01*
X129305557Y-113112745D01*
X129294623Y-113096200D01*
X129291986Y-113092031D01*
X128784096Y-112251876D01*
X128781605Y-112247561D01*
X128773201Y-112232304D01*
X128307970Y-111387664D01*
X128305655Y-111383253D01*
X128134906Y-111041359D01*
X127867028Y-110504979D01*
X127864891Y-110500476D01*
X127844159Y-110454411D01*
X127461973Y-109605229D01*
X127460040Y-109600690D01*
X127093496Y-108689942D01*
X127091741Y-108685317D01*
X126762150Y-107760506D01*
X126760594Y-107755844D01*
X126468528Y-106818568D01*
X126467152Y-106813819D01*
X126213053Y-105865511D01*
X126211861Y-105860673D01*
X125996168Y-104902967D01*
X125995169Y-104898074D01*
X125818208Y-103932431D01*
X125817410Y-103927518D01*
X125792017Y-103748583D01*
X125780864Y-103669994D01*
X142490556Y-103669994D01*
X142490556Y-103670004D01*
X142495255Y-103744689D01*
X142495500Y-103752475D01*
X142495500Y-109636431D01*
X142526942Y-109915494D01*
X142526945Y-109915512D01*
X142589439Y-110189317D01*
X142589443Y-110189329D01*
X142682200Y-110454411D01*
X142804053Y-110707442D01*
X142804055Y-110707445D01*
X142953477Y-110945248D01*
X143030113Y-111041346D01*
X143128583Y-111164824D01*
X144714262Y-112750503D01*
X144747747Y-112811826D01*
X144745146Y-112874493D01*
X144672188Y-113112729D01*
X144672184Y-113112744D01*
X144573730Y-113569573D01*
X144514370Y-114033117D01*
X144494539Y-114499993D01*
X144494539Y-114500006D01*
X144514370Y-114966882D01*
X144514372Y-114966896D01*
X144573730Y-115430427D01*
X144587559Y-115494595D01*
X144672184Y-115887255D01*
X144672186Y-115887263D01*
X144809025Y-116334090D01*
X144809027Y-116334095D01*
X144983262Y-116767695D01*
X144983266Y-116767706D01*
X145193645Y-117184967D01*
X145193655Y-117184985D01*
X145438672Y-117582919D01*
X145438675Y-117582923D01*
X145716557Y-117958645D01*
X145716563Y-117958653D01*
X146025297Y-118309440D01*
X146025310Y-118309453D01*
X146362677Y-118632794D01*
X146362681Y-118632797D01*
X146726270Y-118926375D01*
X147113447Y-119188060D01*
X147294768Y-119289352D01*
X147521411Y-119415963D01*
X147521433Y-119415974D01*
X147947247Y-119608455D01*
X147947252Y-119608457D01*
X148150332Y-119680209D01*
X148387876Y-119764139D01*
X148840113Y-119881892D01*
X149300708Y-119960869D01*
X149444850Y-119973137D01*
X149766323Y-120000499D01*
X149766340Y-120000499D01*
X149766342Y-120000500D01*
X149766343Y-120000500D01*
X150233657Y-120000500D01*
X150233658Y-120000500D01*
X150233659Y-120000499D01*
X150233676Y-120000499D01*
X150510812Y-119976910D01*
X150699292Y-119960869D01*
X151159887Y-119881892D01*
X151612124Y-119764139D01*
X152052747Y-119608457D01*
X152052752Y-119608455D01*
X152478566Y-119415974D01*
X152478568Y-119415972D01*
X152478579Y-119415968D01*
X152886553Y-119188060D01*
X153273730Y-118926375D01*
X153637319Y-118632797D01*
X153974701Y-118309442D01*
X154216195Y-118035053D01*
X154283436Y-117958653D01*
X154283442Y-117958645D01*
X154283446Y-117958641D01*
X154561328Y-117582919D01*
X154806345Y-117184985D01*
X155016733Y-116767706D01*
X155190975Y-116334088D01*
X155327816Y-115887255D01*
X155426270Y-115430427D01*
X155485628Y-114966896D01*
X155505461Y-114500000D01*
X155505461Y-114499993D01*
X155485629Y-114033117D01*
X155485628Y-114033111D01*
X155485628Y-114033104D01*
X155426270Y-113569573D01*
X155327816Y-113112745D01*
X155190975Y-112665912D01*
X155016733Y-112232294D01*
X155016733Y-112232293D01*
X154806354Y-111815032D01*
X154806343Y-111815012D01*
X154561328Y-111417081D01*
X154283446Y-111041359D01*
X154283442Y-111041354D01*
X154283436Y-111041346D01*
X153974702Y-110690559D01*
X153974689Y-110690546D01*
X153637322Y-110367205D01*
X153516122Y-110269343D01*
X153273730Y-110073625D01*
X152886553Y-109811940D01*
X152875835Y-109805953D01*
X152478588Y-109584036D01*
X152478566Y-109584025D01*
X152052752Y-109391544D01*
X152052747Y-109391542D01*
X151612119Y-109235859D01*
X151159885Y-109118107D01*
X150699302Y-109039132D01*
X150699276Y-109039129D01*
X150233676Y-108999500D01*
X150233658Y-108999500D01*
X149766342Y-108999500D01*
X149766323Y-108999500D01*
X149300723Y-109039129D01*
X149300697Y-109039132D01*
X148840114Y-109118107D01*
X148387874Y-109235860D01*
X148376034Y-109240044D01*
X148306266Y-109243815D01*
X148247048Y-109210807D01*
X147532819Y-108496578D01*
X147499334Y-108435255D01*
X147496500Y-108408897D01*
X147496500Y-103752475D01*
X147496745Y-103744689D01*
X147501444Y-103670004D01*
X147501444Y-103669994D01*
X147496745Y-103595309D01*
X147496500Y-103587523D01*
X147496500Y-103529573D01*
X147494055Y-103507882D01*
X147488029Y-103454399D01*
X147487496Y-103448320D01*
X147481689Y-103355992D01*
X147481688Y-103355991D01*
X147481688Y-103355985D01*
X147470976Y-103299833D01*
X147469562Y-103290497D01*
X147465055Y-103250491D01*
X147444290Y-103159516D01*
X147443381Y-103155176D01*
X147443378Y-103155161D01*
X147422731Y-103046921D01*
X147410541Y-103009407D01*
X147407580Y-102998679D01*
X147402560Y-102976682D01*
X147365900Y-102871913D01*
X147365011Y-102869277D01*
X147325505Y-102747690D01*
X147325502Y-102747683D01*
X147325498Y-102747675D01*
X147316242Y-102728005D01*
X147311405Y-102716176D01*
X147309801Y-102711592D01*
X147253953Y-102595623D01*
X147253485Y-102594639D01*
X147191538Y-102462996D01*
X147191537Y-102462993D01*
X147191530Y-102462982D01*
X147110378Y-102335106D01*
X147110081Y-102334636D01*
X147038523Y-102220752D01*
X147036514Y-102217921D01*
X147036554Y-102217892D01*
X147031429Y-102210703D01*
X147022945Y-102197334D01*
X146937669Y-102094252D01*
X146936266Y-102092525D01*
X146863416Y-102001175D01*
X146851642Y-101989401D01*
X146843780Y-101980761D01*
X146822393Y-101954909D01*
X146822391Y-101954907D01*
X146737758Y-101875431D01*
X146734961Y-101872720D01*
X146664825Y-101802584D01*
X146637961Y-101781161D01*
X146630390Y-101774605D01*
X146593030Y-101739522D01*
X146593022Y-101739515D01*
X146513418Y-101681680D01*
X146508991Y-101678310D01*
X146445243Y-101627473D01*
X146401170Y-101599780D01*
X146394259Y-101595106D01*
X146338484Y-101554584D01*
X146338481Y-101554582D01*
X146267737Y-101515689D01*
X146261506Y-101512023D01*
X146207437Y-101478050D01*
X146144621Y-101447800D01*
X146138685Y-101444742D01*
X146062765Y-101403005D01*
X146062757Y-101403001D01*
X146004151Y-101379798D01*
X145995997Y-101376227D01*
X145954408Y-101356199D01*
X145954401Y-101356196D01*
X145871899Y-101327327D01*
X145867207Y-101325578D01*
X145770230Y-101287182D01*
X145726292Y-101275900D01*
X145716180Y-101272839D01*
X145689315Y-101263439D01*
X145586848Y-101240051D01*
X145583605Y-101239264D01*
X145465483Y-101208935D01*
X145465470Y-101208933D01*
X145438046Y-101205469D01*
X145425994Y-101203338D01*
X145415513Y-101200945D01*
X145415496Y-101200943D01*
X145293525Y-101187200D01*
X145291868Y-101187002D01*
X145153329Y-101169500D01*
X145153318Y-101169500D01*
X144838682Y-101169500D01*
X144838670Y-101169500D01*
X144700130Y-101187002D01*
X144698473Y-101187200D01*
X144576499Y-101200943D01*
X144571917Y-101201988D01*
X144566002Y-101203338D01*
X144553960Y-101205468D01*
X144526526Y-101208933D01*
X144408365Y-101239271D01*
X144405124Y-101240057D01*
X144302679Y-101263440D01*
X144275808Y-101272842D01*
X144265700Y-101275902D01*
X144221773Y-101287181D01*
X144124769Y-101325587D01*
X144120079Y-101327335D01*
X144037588Y-101356200D01*
X144037587Y-101356200D01*
X143996007Y-101376223D01*
X143987861Y-101379792D01*
X143929231Y-101403007D01*
X143853328Y-101444735D01*
X143847393Y-101447793D01*
X143784552Y-101478055D01*
X143730487Y-101512026D01*
X143724257Y-101515691D01*
X143653518Y-101554582D01*
X143597743Y-101595105D01*
X143590831Y-101599779D01*
X143546754Y-101627474D01*
X143546746Y-101627480D01*
X143483013Y-101678305D01*
X143478589Y-101681674D01*
X143398967Y-101739524D01*
X143398957Y-101739532D01*
X143361603Y-101774609D01*
X143354039Y-101781159D01*
X143327174Y-101802584D01*
X143257018Y-101872738D01*
X143254224Y-101875446D01*
X143169610Y-101954905D01*
X143148222Y-101980758D01*
X143140368Y-101989389D01*
X143128585Y-102001173D01*
X143128581Y-102001177D01*
X143055715Y-102092547D01*
X143054314Y-102094272D01*
X142969057Y-102197332D01*
X142969056Y-102197334D01*
X142969047Y-102197346D01*
X142960563Y-102210714D01*
X142955447Y-102217891D01*
X142955487Y-102217919D01*
X142953471Y-102220760D01*
X142881890Y-102334679D01*
X142881594Y-102335147D01*
X142800468Y-102462982D01*
X142800460Y-102462996D01*
X142738516Y-102594635D01*
X142738038Y-102595639D01*
X142682200Y-102711588D01*
X142680592Y-102716183D01*
X142675756Y-102728005D01*
X142666500Y-102747675D01*
X142666494Y-102747690D01*
X142626977Y-102869306D01*
X142626089Y-102871939D01*
X142589438Y-102976684D01*
X142584418Y-102998679D01*
X142581460Y-103009398D01*
X142569268Y-103046922D01*
X142569267Y-103046924D01*
X142548620Y-103155161D01*
X142547708Y-103159516D01*
X142526944Y-103250492D01*
X142522436Y-103290497D01*
X142521020Y-103299843D01*
X142510313Y-103355976D01*
X142510310Y-103356000D01*
X142504502Y-103448328D01*
X142503967Y-103454426D01*
X142495500Y-103529570D01*
X142495500Y-103587523D01*
X142495255Y-103595309D01*
X142490556Y-103669994D01*
X125780864Y-103669994D01*
X125679478Y-102955551D01*
X125678878Y-102950606D01*
X125670930Y-102871939D01*
X125580193Y-101973860D01*
X125579793Y-101968901D01*
X125578947Y-101954907D01*
X125520517Y-100988954D01*
X125520319Y-100984027D01*
X125500550Y-100002482D01*
X125500550Y-99997503D01*
X125520319Y-99015970D01*
X125520517Y-99011047D01*
X125579794Y-98031076D01*
X125580195Y-98026120D01*
X125582949Y-97998868D01*
X125678879Y-97049376D01*
X125679480Y-97044436D01*
X125817413Y-96072457D01*
X125818206Y-96067576D01*
X125995171Y-95101911D01*
X125996168Y-95097032D01*
X126211861Y-94139326D01*
X126213056Y-94134477D01*
X126236796Y-94045879D01*
X126467155Y-93186167D01*
X126468524Y-93181444D01*
X126760599Y-92244140D01*
X126762144Y-92239508D01*
X127091747Y-91314665D01*
X127093489Y-91310073D01*
X127460047Y-90399291D01*
X127461965Y-90394788D01*
X127864903Y-89499496D01*
X127867018Y-89495039D01*
X128305671Y-88616714D01*
X128307959Y-88612355D01*
X128781623Y-87752406D01*
X128784083Y-87748144D01*
X129292000Y-86907946D01*
X129294608Y-86903821D01*
X129835952Y-86084747D01*
X129838744Y-86080702D01*
X130412626Y-85284093D01*
X130415561Y-85280188D01*
X131021053Y-84507335D01*
X131024176Y-84503511D01*
X131660232Y-83755740D01*
X131663536Y-83752010D01*
X131955472Y-83435557D01*
X132329245Y-83030394D01*
X132332657Y-83026843D01*
X133026843Y-82332657D01*
X133030394Y-82329245D01*
X133752018Y-81663528D01*
X133755749Y-81660225D01*
X134503511Y-81024176D01*
X134507335Y-81021053D01*
X135280188Y-80415561D01*
X135284093Y-80412626D01*
X136080702Y-79838744D01*
X136084747Y-79835952D01*
X136903821Y-79294608D01*
X136907946Y-79292000D01*
X137748144Y-78784083D01*
X137752406Y-78781623D01*
X138612355Y-78307959D01*
X138616714Y-78305671D01*
X139495039Y-77867018D01*
X139499496Y-77864903D01*
X140394788Y-77461965D01*
X140399291Y-77460047D01*
X141310073Y-77093489D01*
X141314665Y-77091747D01*
X142239508Y-76762144D01*
X142244140Y-76760599D01*
X143181444Y-76468524D01*
X143186167Y-76467155D01*
X144134499Y-76213050D01*
X144139304Y-76211866D01*
X145097046Y-75996165D01*
X145101911Y-75995171D01*
X146067576Y-75818206D01*
X146072457Y-75817413D01*
X147044454Y-75679477D01*
X147049376Y-75678879D01*
X148026143Y-75580193D01*
X148031076Y-75579794D01*
X149011047Y-75520517D01*
X149015970Y-75520319D01*
X149997518Y-75500550D01*
X150002482Y-75500550D01*
X150984027Y-75520319D01*
G37*
%TD.AperFunction*%
%TD*%
M02*
