%TF.GenerationSoftware,KiCad,Pcbnew,8.0.8*%
%TF.CreationDate,2025-02-15T12:23:45-06:00*%
%TF.ProjectId,obverse,6f627665-7273-4652-9e6b-696361645f70,rev?*%
%TF.SameCoordinates,Original*%
%TF.FileFunction,Legend,Bot*%
%TF.FilePolarity,Positive*%
%FSLAX46Y46*%
G04 Gerber Fmt 4.6, Leading zero omitted, Abs format (unit mm)*
G04 Created by KiCad (PCBNEW 8.0.8) date 2025-02-15 12:23:45*
%MOMM*%
%LPD*%
G01*
G04 APERTURE LIST*
%ADD10C,1.000000*%
%ADD11C,0.120000*%
%ADD12C,3.500000*%
%ADD13C,1.600000*%
%ADD14C,4.000000*%
%ADD15C,10.000000*%
G04 APERTURE END LIST*
D10*
X153809523Y-122164666D02*
X146190476Y-122164666D01*
X149999999Y-125974190D02*
X149999999Y-118355142D01*
D11*
%TO.C,contact-o1*%
X147246000Y-103670000D02*
G75*
G02*
X142746000Y-103670000I-2250000J0D01*
G01*
X142746000Y-103670000D02*
G75*
G02*
X147246000Y-103670000I2250000J0D01*
G01*
%TO.C,+*%
X152250000Y-114500000D02*
G75*
G02*
X147750000Y-114500000I-2250000J0D01*
G01*
X147750000Y-114500000D02*
G75*
G02*
X152250000Y-114500000I2250000J0D01*
G01*
%TO.C,B2*%
X152250000Y-114500000D02*
G75*
G02*
X147750000Y-114500000I-2250000J0D01*
G01*
X147750000Y-114500000D02*
G75*
G02*
X152250000Y-114500000I2250000J0D01*
G01*
%TD*%
%LPC*%
D12*
%TO.C,aperture-D4*%
X127000000Y-100000000D03*
%TD*%
%TO.C,aperture-D3*%
X128387000Y-107866000D03*
%TD*%
%TO.C,aperture-D15*%
X167619000Y-114784000D03*
%TD*%
D13*
%TO.C,align-o2*%
X172200000Y-102400000D03*
%TD*%
D12*
%TO.C,aperture-D11*%
X167619000Y-85215900D03*
%TD*%
%TO.C,aperture-D8*%
X146006000Y-77349400D03*
%TD*%
%TO.C,aperture-D16*%
X161500000Y-119919000D03*
%TD*%
%TO.C,aperture-D5*%
X128387000Y-92133500D03*
%TD*%
%TO.C,aperture-D7*%
X138500000Y-80081400D03*
%TD*%
%TO.C,aperture-D13*%
X173000000Y-100000000D03*
%TD*%
%TO.C,aperture-D14*%
X171613000Y-107866000D03*
%TD*%
%TO.C,aperture-D12*%
X171613000Y-92133500D03*
%TD*%
%TO.C,aperture-D6*%
X132381000Y-85215900D03*
%TD*%
%TO.C,aperture-D2*%
X132381000Y-114784000D03*
%TD*%
%TO.C,aperture-D9*%
X153994000Y-77349400D03*
%TD*%
%TO.C,aperture-D10*%
X161500000Y-80081400D03*
%TD*%
D13*
%TO.C,align-o1*%
X127800000Y-97300000D03*
%TD*%
D12*
%TO.C,aperture-D1*%
X138500000Y-119919000D03*
%TD*%
D14*
%TO.C,contact-o1*%
X144996000Y-103670000D03*
%TD*%
D15*
%TO.C,+*%
X150000000Y-114500000D03*
%TD*%
D14*
%TO.C,B2*%
X150000000Y-114500000D03*
%TD*%
%LPD*%
M02*
