%TF.GenerationSoftware,KiCad,Pcbnew,9.0.0*%
%TF.CreationDate,2025-02-26T13:27:29-06:00*%
%TF.ProjectId,obverse,6f627665-7273-4652-9e6b-696361645f70,rev?*%
%TF.SameCoordinates,Original*%
%TF.FileFunction,Drillmap*%
%TF.FilePolarity,Positive*%
%FSLAX45Y45*%
G04 Gerber Fmt 4.5, Leading zero omitted, Abs format (unit mm)*
G04 Created by KiCad (PCBNEW 9.0.0) date 2025-02-26 13:27:29*
%MOMM*%
%LPD*%
G01*
G04 APERTURE LIST*
%ADD10C,0.100000*%
%ADD11C,0.200000*%
G04 APERTURE END LIST*
D10*
X17500000Y-5000000D02*
G75*
G02*
X12500000Y-5000000I-2500000J0D01*
G01*
X12500000Y-5000000D02*
G75*
G02*
X17500000Y-5000000I2500000J0D01*
G01*
D11*
X12755777Y-7816484D02*
X12755777Y-7616484D01*
X12755777Y-7616484D02*
X12803396Y-7616484D01*
X12803396Y-7616484D02*
X12831967Y-7626008D01*
X12831967Y-7626008D02*
X12851015Y-7645055D01*
X12851015Y-7645055D02*
X12860539Y-7664103D01*
X12860539Y-7664103D02*
X12870062Y-7702198D01*
X12870062Y-7702198D02*
X12870062Y-7730769D01*
X12870062Y-7730769D02*
X12860539Y-7768865D01*
X12860539Y-7768865D02*
X12851015Y-7787912D01*
X12851015Y-7787912D02*
X12831967Y-7806960D01*
X12831967Y-7806960D02*
X12803396Y-7816484D01*
X12803396Y-7816484D02*
X12755777Y-7816484D01*
X12955777Y-7816484D02*
X12955777Y-7683150D01*
X12955777Y-7721246D02*
X12965301Y-7702198D01*
X12965301Y-7702198D02*
X12974824Y-7692674D01*
X12974824Y-7692674D02*
X12993872Y-7683150D01*
X12993872Y-7683150D02*
X13012920Y-7683150D01*
X13079586Y-7816484D02*
X13079586Y-7683150D01*
X13079586Y-7616484D02*
X13070062Y-7626008D01*
X13070062Y-7626008D02*
X13079586Y-7635531D01*
X13079586Y-7635531D02*
X13089110Y-7626008D01*
X13089110Y-7626008D02*
X13079586Y-7616484D01*
X13079586Y-7616484D02*
X13079586Y-7635531D01*
X13203396Y-7816484D02*
X13184348Y-7806960D01*
X13184348Y-7806960D02*
X13174824Y-7787912D01*
X13174824Y-7787912D02*
X13174824Y-7616484D01*
X13308158Y-7816484D02*
X13289110Y-7806960D01*
X13289110Y-7806960D02*
X13279586Y-7787912D01*
X13279586Y-7787912D02*
X13279586Y-7616484D01*
X13536729Y-7816484D02*
X13536729Y-7616484D01*
X13536729Y-7616484D02*
X13603396Y-7759341D01*
X13603396Y-7759341D02*
X13670062Y-7616484D01*
X13670062Y-7616484D02*
X13670062Y-7816484D01*
X13851015Y-7816484D02*
X13851015Y-7711722D01*
X13851015Y-7711722D02*
X13841491Y-7692674D01*
X13841491Y-7692674D02*
X13822443Y-7683150D01*
X13822443Y-7683150D02*
X13784348Y-7683150D01*
X13784348Y-7683150D02*
X13765301Y-7692674D01*
X13851015Y-7806960D02*
X13831967Y-7816484D01*
X13831967Y-7816484D02*
X13784348Y-7816484D01*
X13784348Y-7816484D02*
X13765301Y-7806960D01*
X13765301Y-7806960D02*
X13755777Y-7787912D01*
X13755777Y-7787912D02*
X13755777Y-7768865D01*
X13755777Y-7768865D02*
X13765301Y-7749817D01*
X13765301Y-7749817D02*
X13784348Y-7740293D01*
X13784348Y-7740293D02*
X13831967Y-7740293D01*
X13831967Y-7740293D02*
X13851015Y-7730769D01*
X13946253Y-7683150D02*
X13946253Y-7883150D01*
X13946253Y-7692674D02*
X13965301Y-7683150D01*
X13965301Y-7683150D02*
X14003396Y-7683150D01*
X14003396Y-7683150D02*
X14022443Y-7692674D01*
X14022443Y-7692674D02*
X14031967Y-7702198D01*
X14031967Y-7702198D02*
X14041491Y-7721246D01*
X14041491Y-7721246D02*
X14041491Y-7778388D01*
X14041491Y-7778388D02*
X14031967Y-7797436D01*
X14031967Y-7797436D02*
X14022443Y-7806960D01*
X14022443Y-7806960D02*
X14003396Y-7816484D01*
X14003396Y-7816484D02*
X13965301Y-7816484D01*
X13965301Y-7816484D02*
X13946253Y-7806960D01*
X14127205Y-7797436D02*
X14136729Y-7806960D01*
X14136729Y-7806960D02*
X14127205Y-7816484D01*
X14127205Y-7816484D02*
X14117682Y-7806960D01*
X14117682Y-7806960D02*
X14127205Y-7797436D01*
X14127205Y-7797436D02*
X14127205Y-7816484D01*
X14127205Y-7692674D02*
X14136729Y-7702198D01*
X14136729Y-7702198D02*
X14127205Y-7711722D01*
X14127205Y-7711722D02*
X14117682Y-7702198D01*
X14117682Y-7702198D02*
X14127205Y-7692674D01*
X14127205Y-7692674D02*
X14127205Y-7711722D01*
M02*
