%TF.GenerationSoftware,KiCad,Pcbnew,8.0.8*%
%TF.CreationDate,2025-02-15T12:26:12-06:00*%
%TF.ProjectId,internal,696e7465-726e-4616-9c2e-6b696361645f,rev?*%
%TF.SameCoordinates,Original*%
%TF.FileFunction,Profile,NP*%
%FSLAX46Y46*%
G04 Gerber Fmt 4.6, Leading zero omitted, Abs format (unit mm)*
G04 Created by KiCad (PCBNEW 8.0.8) date 2025-02-15 12:26:12*
%MOMM*%
%LPD*%
G01*
G04 APERTURE LIST*
%TA.AperFunction,Profile*%
%ADD10C,0.100000*%
%TD*%
G04 APERTURE END LIST*
D10*
X101490378Y-125044464D02*
X102481345Y-125123446D01*
X103468388Y-125241763D01*
X104449947Y-125399228D01*
X105424470Y-125595592D01*
X106390416Y-125830544D01*
X107346257Y-126103713D01*
X108290482Y-126414668D01*
X109221598Y-126762915D01*
X110138133Y-127147905D01*
X111038637Y-127569028D01*
X111921688Y-128025620D01*
X112785887Y-128516958D01*
X113629869Y-129042265D01*
X114452300Y-129600710D01*
X115251879Y-130191411D01*
X116027341Y-130813433D01*
X116777461Y-131465793D01*
X117501052Y-132147460D01*
X118196970Y-132857355D01*
X118864116Y-133594356D01*
X119501433Y-134357298D01*
X120107914Y-135144974D01*
X120682601Y-135956139D01*
X121224584Y-136789511D01*
X121733007Y-137643770D01*
X122207065Y-138517568D01*
X122646010Y-139409521D01*
X123049146Y-140318221D01*
X123415837Y-141242229D01*
X123745503Y-142180085D01*
X124037623Y-143130306D01*
X124291734Y-144091389D01*
X124507434Y-145061815D01*
X124684384Y-146040049D01*
X124822302Y-147024545D01*
X124920971Y-148013746D01*
X124980235Y-149006087D01*
X125000000Y-150000000D01*
X124980235Y-150993913D01*
X124920971Y-151986254D01*
X124822302Y-152975455D01*
X124684384Y-153959951D01*
X124507434Y-154938185D01*
X124291734Y-155908611D01*
X124037623Y-156869694D01*
X123745503Y-157819915D01*
X123415837Y-158757771D01*
X123049146Y-159681779D01*
X122646010Y-160590479D01*
X122207065Y-161482432D01*
X121733007Y-162356230D01*
X121224584Y-163210489D01*
X120682601Y-164043861D01*
X120107914Y-164855026D01*
X119501433Y-165642702D01*
X118864116Y-166405644D01*
X118196970Y-167142645D01*
X117501052Y-167852540D01*
X116777461Y-168534207D01*
X116027341Y-169186567D01*
X115251879Y-169808589D01*
X114452300Y-170399290D01*
X113629869Y-170957735D01*
X112785887Y-171483042D01*
X111921688Y-171974380D01*
X111038637Y-172430972D01*
X110138133Y-172852095D01*
X109221598Y-173237085D01*
X108290482Y-173585332D01*
X108000000Y-173600000D01*
X108500000Y-164500000D01*
X108480185Y-163919939D01*
X108420831Y-163342583D01*
X108322215Y-162770624D01*
X108184797Y-162206727D01*
X108009218Y-161653523D01*
X107796296Y-161113591D01*
X107547024Y-160589447D01*
X107262565Y-160083536D01*
X106944244Y-159598217D01*
X106593546Y-159135752D01*
X106212106Y-158698298D01*
X105801702Y-158287894D01*
X105364248Y-157906454D01*
X104901783Y-157555756D01*
X104416464Y-157237435D01*
X103910553Y-156952976D01*
X103386409Y-156703704D01*
X102846477Y-156490782D01*
X102293273Y-156315203D01*
X102000000Y-156284630D01*
X102000000Y-156000000D01*
X101979643Y-155715370D01*
X101918986Y-155436535D01*
X101819264Y-155169170D01*
X101682507Y-154918718D01*
X101511499Y-154690279D01*
X101309721Y-154488501D01*
X101081282Y-154317493D01*
X100830830Y-154180736D01*
X100563465Y-154081014D01*
X100284630Y-154020357D01*
X100000000Y-154000000D01*
X99715370Y-154020357D01*
X99436535Y-154081014D01*
X99169170Y-154180736D01*
X98918718Y-154317493D01*
X98690279Y-154488501D01*
X98488501Y-154690279D01*
X98317493Y-154918718D01*
X98180736Y-155169170D01*
X98081014Y-155436535D01*
X98020357Y-155715370D01*
X98000000Y-156000000D01*
X98000000Y-156284630D01*
X97706727Y-156315203D01*
X97153523Y-156490782D01*
X96613591Y-156703704D01*
X96089447Y-156952976D01*
X95583536Y-157237435D01*
X95098217Y-157555756D01*
X94635752Y-157906454D01*
X94198298Y-158287894D01*
X93787894Y-158698298D01*
X93406454Y-159135752D01*
X93055756Y-159598217D01*
X92737435Y-160083536D01*
X92452976Y-160589447D01*
X92203704Y-161113591D01*
X91990782Y-161653523D01*
X91815203Y-162206727D01*
X91677785Y-162770624D01*
X91579169Y-163342583D01*
X91519815Y-163919939D01*
X91500000Y-164500000D01*
X92000000Y-173600000D01*
X91709518Y-173585332D01*
X90778402Y-173237085D01*
X89861867Y-172852095D01*
X88961363Y-172430972D01*
X88078312Y-171974380D01*
X87214113Y-171483042D01*
X86370131Y-170957735D01*
X85547700Y-170399290D01*
X84748121Y-169808589D01*
X83972659Y-169186567D01*
X83222539Y-168534207D01*
X82498948Y-167852540D01*
X81803030Y-167142645D01*
X81135884Y-166405644D01*
X80498567Y-165642702D01*
X79892086Y-164855026D01*
X79317399Y-164043861D01*
X78775416Y-163210489D01*
X78266993Y-162356230D01*
X77792935Y-161482432D01*
X77353990Y-160590479D01*
X76950854Y-159681779D01*
X76584163Y-158757771D01*
X76254497Y-157819915D01*
X75962377Y-156869694D01*
X75708266Y-155908611D01*
X75492566Y-154938185D01*
X75315616Y-153959951D01*
X75177698Y-152975455D01*
X75079029Y-151986254D01*
X75019765Y-150993913D01*
X75000000Y-150000000D01*
X75019765Y-149006087D01*
X75079029Y-148013746D01*
X75177698Y-147024545D01*
X75315616Y-146040049D01*
X75492566Y-145061815D01*
X75708266Y-144091389D01*
X75962377Y-143130306D01*
X76254497Y-142180085D01*
X76584163Y-141242229D01*
X76950854Y-140318221D01*
X77353990Y-139409521D01*
X77792935Y-138517568D01*
X78266993Y-137643770D01*
X78775416Y-136789511D01*
X79317399Y-135956139D01*
X79892086Y-135144974D01*
X80498567Y-134357298D01*
X81135884Y-133594356D01*
X81803030Y-132857355D01*
X82498948Y-132147460D01*
X83222539Y-131465793D01*
X83972659Y-130813433D01*
X84748121Y-130191411D01*
X85547700Y-129600710D01*
X86370131Y-129042265D01*
X87214113Y-128516958D01*
X88078312Y-128025620D01*
X88961363Y-127569028D01*
X89861867Y-127147905D01*
X90778402Y-126762915D01*
X91709518Y-126414668D01*
X92653743Y-126103713D01*
X93609584Y-125830544D01*
X94575530Y-125595592D01*
X95550053Y-125399228D01*
X96531612Y-125241763D01*
X97518655Y-125123446D01*
X98509622Y-125044464D01*
X99502945Y-125004942D01*
X100497055Y-125004942D01*
X101490378Y-125044464D01*
M02*
