%TF.GenerationSoftware,KiCad,Pcbnew,9.0.0*%
%TF.CreationDate,2025-02-26T13:30:57-06:00*%
%TF.ProjectId,internal,696e7465-726e-4616-9c2e-6b696361645f,rev?*%
%TF.SameCoordinates,Original*%
%TF.FileFunction,Profile,NP*%
%FSLAX46Y46*%
G04 Gerber Fmt 4.6, Leading zero omitted, Abs format (unit mm)*
G04 Created by KiCad (PCBNEW 9.0.0) date 2025-02-26 13:30:57*
%MOMM*%
%LPD*%
G01*
G04 APERTURE LIST*
%TA.AperFunction,Profile*%
%ADD10C,0.100000*%
%TD*%
G04 APERTURE END LIST*
D10*
X101490378Y-75044464D02*
X102481345Y-75123446D01*
X103468388Y-75241763D01*
X104449947Y-75399228D01*
X105424470Y-75595592D01*
X106390416Y-75830544D01*
X107346257Y-76103713D01*
X108290482Y-76414668D01*
X109221598Y-76762915D01*
X110138133Y-77147905D01*
X111038637Y-77569028D01*
X111921688Y-78025620D01*
X112785887Y-78516958D01*
X113629869Y-79042265D01*
X114452300Y-79600710D01*
X115251879Y-80191411D01*
X116027341Y-80813433D01*
X116777461Y-81465793D01*
X117501052Y-82147460D01*
X118196970Y-82857355D01*
X118864116Y-83594356D01*
X119501433Y-84357298D01*
X120107914Y-85144974D01*
X120682601Y-85956139D01*
X121224584Y-86789511D01*
X121733007Y-87643770D01*
X122207065Y-88517568D01*
X122646010Y-89409521D01*
X123049146Y-90318221D01*
X123415837Y-91242229D01*
X123745503Y-92180085D01*
X124037623Y-93130306D01*
X124291734Y-94091389D01*
X124507434Y-95061815D01*
X124684384Y-96040049D01*
X124822302Y-97024545D01*
X124920971Y-98013746D01*
X124980235Y-99006087D01*
X125000000Y-100000000D01*
X124980235Y-100993913D01*
X124920971Y-101986254D01*
X124822302Y-102975455D01*
X124684384Y-103959951D01*
X124507434Y-104938185D01*
X124291734Y-105908611D01*
X124037623Y-106869694D01*
X123745503Y-107819915D01*
X123415837Y-108757771D01*
X123049146Y-109681779D01*
X122646010Y-110590479D01*
X122207065Y-111482432D01*
X121733007Y-112356230D01*
X121224584Y-113210489D01*
X120682601Y-114043861D01*
X120107914Y-114855026D01*
X119501433Y-115642702D01*
X118864116Y-116405644D01*
X118196970Y-117142645D01*
X117501052Y-117852540D01*
X116777461Y-118534207D01*
X116027341Y-119186567D01*
X115251879Y-119808589D01*
X114452300Y-120399290D01*
X113629869Y-120957735D01*
X112785887Y-121483042D01*
X111921688Y-121974380D01*
X111038637Y-122430972D01*
X110138133Y-122852095D01*
X109221598Y-123237085D01*
X108290482Y-123585332D01*
X108000000Y-123600000D01*
X108500000Y-114500000D01*
X108480185Y-113919939D01*
X108420831Y-113342583D01*
X108322215Y-112770624D01*
X108184797Y-112206727D01*
X108009218Y-111653523D01*
X107796296Y-111113591D01*
X107547024Y-110589447D01*
X107262565Y-110083536D01*
X106944244Y-109598217D01*
X106593546Y-109135752D01*
X106212106Y-108698298D01*
X105801702Y-108287894D01*
X105364248Y-107906454D01*
X104901783Y-107555756D01*
X104416464Y-107237435D01*
X103910553Y-106952976D01*
X103386409Y-106703704D01*
X102846477Y-106490782D01*
X102293273Y-106315203D01*
X102000000Y-106284630D01*
X102000000Y-106000000D01*
X101979643Y-105715370D01*
X101918986Y-105436535D01*
X101819264Y-105169170D01*
X101682507Y-104918718D01*
X101511499Y-104690279D01*
X101309721Y-104488501D01*
X101081282Y-104317493D01*
X100830830Y-104180736D01*
X100563465Y-104081014D01*
X100284630Y-104020357D01*
X100000000Y-104000000D01*
X99715370Y-104020357D01*
X99436535Y-104081014D01*
X99169170Y-104180736D01*
X98918718Y-104317493D01*
X98690279Y-104488501D01*
X98488501Y-104690279D01*
X98317493Y-104918718D01*
X98180736Y-105169170D01*
X98081014Y-105436535D01*
X98020357Y-105715370D01*
X98000000Y-106000000D01*
X98000000Y-106284630D01*
X97706727Y-106315203D01*
X97153523Y-106490782D01*
X96613591Y-106703704D01*
X96089447Y-106952976D01*
X95583536Y-107237435D01*
X95098217Y-107555756D01*
X94635752Y-107906454D01*
X94198298Y-108287894D01*
X93787894Y-108698298D01*
X93406454Y-109135752D01*
X93055756Y-109598217D01*
X92737435Y-110083536D01*
X92452976Y-110589447D01*
X92203704Y-111113591D01*
X91990782Y-111653523D01*
X91815203Y-112206727D01*
X91677785Y-112770624D01*
X91579169Y-113342583D01*
X91519815Y-113919939D01*
X91500000Y-114500000D01*
X92000000Y-123600000D01*
X91709518Y-123585332D01*
X90778402Y-123237085D01*
X89861867Y-122852095D01*
X88961363Y-122430972D01*
X88078312Y-121974380D01*
X87214113Y-121483042D01*
X86370131Y-120957735D01*
X85547700Y-120399290D01*
X84748121Y-119808589D01*
X83972659Y-119186567D01*
X83222539Y-118534207D01*
X82498948Y-117852540D01*
X81803030Y-117142645D01*
X81135884Y-116405644D01*
X80498567Y-115642702D01*
X79892086Y-114855026D01*
X79317399Y-114043861D01*
X78775416Y-113210489D01*
X78266993Y-112356230D01*
X77792935Y-111482432D01*
X77353990Y-110590479D01*
X76950854Y-109681779D01*
X76584163Y-108757771D01*
X76254497Y-107819915D01*
X75962377Y-106869694D01*
X75708266Y-105908611D01*
X75492566Y-104938185D01*
X75315616Y-103959951D01*
X75177698Y-102975455D01*
X75079029Y-101986254D01*
X75019765Y-100993913D01*
X75000000Y-100000000D01*
X75019765Y-99006087D01*
X75079029Y-98013746D01*
X75177698Y-97024545D01*
X75315616Y-96040049D01*
X75492566Y-95061815D01*
X75708266Y-94091389D01*
X75962377Y-93130306D01*
X76254497Y-92180085D01*
X76584163Y-91242229D01*
X76950854Y-90318221D01*
X77353990Y-89409521D01*
X77792935Y-88517568D01*
X78266993Y-87643770D01*
X78775416Y-86789511D01*
X79317399Y-85956139D01*
X79892086Y-85144974D01*
X80498567Y-84357298D01*
X81135884Y-83594356D01*
X81803030Y-82857355D01*
X82498948Y-82147460D01*
X83222539Y-81465793D01*
X83972659Y-80813433D01*
X84748121Y-80191411D01*
X85547700Y-79600710D01*
X86370131Y-79042265D01*
X87214113Y-78516958D01*
X88078312Y-78025620D01*
X88961363Y-77569028D01*
X89861867Y-77147905D01*
X90778402Y-76762915D01*
X91709518Y-76414668D01*
X92653743Y-76103713D01*
X93609584Y-75830544D01*
X94575530Y-75595592D01*
X95550053Y-75399228D01*
X96531612Y-75241763D01*
X97518655Y-75123446D01*
X98509622Y-75044464D01*
X99502945Y-75004942D01*
X100497055Y-75004942D01*
X101490378Y-75044464D01*
M02*
