%TF.GenerationSoftware,KiCad,Pcbnew,8.0.7*%
%TF.CreationDate,2024-12-05T10:44:39-06:00*%
%TF.ProjectId,internal,696e7465-726e-4616-9c2e-6b696361645f,rev?*%
%TF.SameCoordinates,Original*%
%TF.FileFunction,Profile,NP*%
%FSLAX46Y46*%
G04 Gerber Fmt 4.6, Leading zero omitted, Abs format (unit mm)*
G04 Created by KiCad (PCBNEW 8.0.7) date 2024-12-05 10:44:39*
%MOMM*%
%LPD*%
G01*
G04 APERTURE LIST*
%TA.AperFunction,Profile*%
%ADD10C,0.050000*%
%TD*%
G04 APERTURE END LIST*
D10*
X100897297Y-30020139D02*
X101792786Y-30080514D01*
X102684665Y-30181005D01*
X103571138Y-30321408D01*
X104450419Y-30501442D01*
X105320737Y-30720743D01*
X106180340Y-30978870D01*
X107027496Y-31275303D01*
X107860501Y-31609445D01*
X108677675Y-31980623D01*
X109477373Y-32388089D01*
X110257986Y-32831024D01*
X111017940Y-33308535D01*
X111755705Y-33819660D01*
X112469796Y-34363370D01*
X113158775Y-34938571D01*
X113821253Y-35544103D01*
X114455897Y-36178747D01*
X115061429Y-36841225D01*
X115636630Y-37530204D01*
X116180340Y-38244295D01*
X116691465Y-38982060D01*
X117168976Y-39742014D01*
X117611911Y-40522627D01*
X118019377Y-41322325D01*
X118390555Y-42139499D01*
X118724697Y-42972504D01*
X119021130Y-43819660D01*
X119279257Y-44679263D01*
X119498558Y-45549581D01*
X119678592Y-46428862D01*
X119818995Y-47315335D01*
X119919486Y-48207214D01*
X119979861Y-49102703D01*
X120000000Y-50000000D01*
X119979861Y-50897297D01*
X119919486Y-51792786D01*
X119818995Y-52684665D01*
X119678592Y-53571138D01*
X119498558Y-54450419D01*
X119279257Y-55320737D01*
X119021130Y-56180340D01*
X118724697Y-57027496D01*
X118390555Y-57860501D01*
X118019377Y-58677675D01*
X117611911Y-59477373D01*
X117168976Y-60257986D01*
X116691465Y-61017940D01*
X116180340Y-61755705D01*
X115636630Y-62469796D01*
X115061429Y-63158775D01*
X114455897Y-63821253D01*
X113821253Y-64455897D01*
X113158775Y-65061429D01*
X112469796Y-65636630D01*
X111755705Y-66180340D01*
X111017940Y-66691465D01*
X110257986Y-67168976D01*
X109477373Y-67611911D01*
X108677675Y-68019377D01*
X108000000Y-68330000D01*
X108500000Y-60000000D01*
X108480185Y-59419939D01*
X108420831Y-58842583D01*
X108322215Y-58270624D01*
X108184797Y-57706727D01*
X108009218Y-57153523D01*
X107796296Y-56613591D01*
X107547024Y-56089447D01*
X107262565Y-55583536D01*
X106944244Y-55098217D01*
X106593546Y-54635752D01*
X106212106Y-54198298D01*
X105801702Y-53787894D01*
X105364248Y-53406454D01*
X104901783Y-53055756D01*
X104416464Y-52737435D01*
X103910553Y-52452976D01*
X103386409Y-52203704D01*
X102846477Y-51990782D01*
X102293273Y-51815203D01*
X101729376Y-51677785D01*
X101157417Y-51579169D01*
X100500000Y-51500000D01*
X100500000Y-50000000D01*
X100479746Y-49859134D01*
X100420627Y-49729680D01*
X100327430Y-49622125D01*
X100207708Y-49545184D01*
X100071157Y-49505089D01*
X99928843Y-49505089D01*
X99792292Y-49545184D01*
X99672570Y-49622125D01*
X99579373Y-49729680D01*
X99520254Y-49859134D01*
X99500000Y-50000000D01*
X99500000Y-51500000D01*
X98842583Y-51579169D01*
X98270624Y-51677785D01*
X97706727Y-51815203D01*
X97153523Y-51990782D01*
X96613591Y-52203704D01*
X96089447Y-52452976D01*
X95583536Y-52737435D01*
X95098217Y-53055756D01*
X94635752Y-53406454D01*
X94198298Y-53787894D01*
X93787894Y-54198298D01*
X93406454Y-54635752D01*
X93055756Y-55098217D01*
X92737435Y-55583536D01*
X92452976Y-56089447D01*
X92203704Y-56613591D01*
X91990782Y-57153523D01*
X91815203Y-57706727D01*
X91677785Y-58270624D01*
X91579169Y-58842583D01*
X91519815Y-59419939D01*
X91500000Y-60000000D01*
X92000000Y-68330000D01*
X91322325Y-68019377D01*
X90522627Y-67611911D01*
X89742014Y-67168976D01*
X88982060Y-66691465D01*
X88244295Y-66180340D01*
X87530204Y-65636630D01*
X86841225Y-65061429D01*
X86178747Y-64455897D01*
X85544103Y-63821253D01*
X84938571Y-63158775D01*
X84363370Y-62469796D01*
X83819660Y-61755705D01*
X83308535Y-61017940D01*
X82831024Y-60257986D01*
X82388089Y-59477373D01*
X81980623Y-58677675D01*
X81609445Y-57860501D01*
X81275303Y-57027496D01*
X80978870Y-56180340D01*
X80720743Y-55320737D01*
X80501442Y-54450419D01*
X80321408Y-53571138D01*
X80181005Y-52684665D01*
X80080514Y-51792786D01*
X80020139Y-50897297D01*
X80000000Y-50000000D01*
X80020139Y-49102703D01*
X80080514Y-48207214D01*
X80181005Y-47315335D01*
X80321408Y-46428862D01*
X80501442Y-45549581D01*
X80720743Y-44679263D01*
X80978870Y-43819660D01*
X81275303Y-42972504D01*
X81609445Y-42139499D01*
X81980623Y-41322325D01*
X82388089Y-40522627D01*
X82831024Y-39742014D01*
X83308535Y-38982060D01*
X83819660Y-38244295D01*
X84363370Y-37530204D01*
X84938571Y-36841225D01*
X85544103Y-36178747D01*
X86178747Y-35544103D01*
X86841225Y-34938571D01*
X87530204Y-34363370D01*
X88244295Y-33819660D01*
X88982060Y-33308535D01*
X89742014Y-32831024D01*
X90522627Y-32388089D01*
X91322325Y-31980623D01*
X92139499Y-31609445D01*
X92972504Y-31275303D01*
X93819660Y-30978870D01*
X94679263Y-30720743D01*
X95549581Y-30501442D01*
X96428862Y-30321408D01*
X97315335Y-30181005D01*
X98207214Y-30080514D01*
X99102703Y-30020139D01*
X100000000Y-30000000D01*
X100897297Y-30020139D01*
M02*
