M48
; DRILL file {KiCad 8.0.8} date 2025-02-15T12:26:33-0600
; FORMAT={-:-/ absolute / metric / decimal}
; #@! TF.CreationDate,2025-02-15T12:26:33-06:00
; #@! TF.GenerationSoftware,Kicad,Pcbnew,8.0.8
; #@! TF.FileFunction,Plated,1,2,PTH
FMAT,2
METRIC
; #@! TA.AperFunction,Plated,PTH,ComponentDrill
T1C1.000
; #@! TA.AperFunction,Plated,PTH,ComponentDrill
T2C3.000
; #@! TA.AperFunction,Plated,PTH,ComponentDrill
T3C5.000
%
G90
G05
T1
X77.8Y-147.3
X77.8Y-152.4
X93.697Y-152.92
X93.697Y-154.42
X94.996Y-152.17
X94.996Y-153.67
X94.996Y-155.17
X96.295Y-152.92
X96.295Y-154.42
X122.2Y-147.3
X122.2Y-152.4
T2
X77.0Y-150.0
X78.387Y-142.134
X78.387Y-157.866
X82.381Y-150.0
X82.381Y-135.216
X82.381Y-164.784
X88.5Y-130.081
X88.5Y-135.216
X88.5Y-164.784
X88.5Y-169.919
X96.006Y-135.216
X96.006Y-127.349
X103.994Y-135.216
X103.994Y-127.349
X111.5Y-130.081
X111.5Y-135.216
X111.5Y-164.784
X111.5Y-169.919
X117.619Y-135.216
X117.619Y-164.784
X117.619Y-150.0
X121.613Y-142.134
X121.613Y-157.866
X123.0Y-150.0
T3
X99.0Y-148.0G85X100.0Y-148.0
G05
M30
