M48
; DRILL file {KiCad 9.0.0} date 2025-02-26T13:31:05-0600
; FORMAT={-:-/ absolute / metric / decimal}
; #@! TF.CreationDate,2025-02-26T13:31:05-06:00
; #@! TF.GenerationSoftware,Kicad,Pcbnew,9.0.0
; #@! TF.FileFunction,Plated,1,2,PTH
FMAT,2
METRIC
; #@! TA.AperFunction,Plated,PTH,ComponentDrill
T1C1.000
; #@! TA.AperFunction,Plated,PTH,ComponentDrill
T2C3.000
; #@! TA.AperFunction,Plated,PTH,ComponentDrill
T3C5.000
%
G90
G05
T1
X77.8Y-97.3
X77.8Y-102.4
X93.697Y-102.92
X93.697Y-104.42
X94.996Y-102.17
X94.996Y-103.67
X94.996Y-105.17
X96.295Y-102.92
X96.295Y-104.42
X122.2Y-97.3
X122.2Y-102.4
T2
X77.0Y-100.0
X78.387Y-92.134
X78.387Y-107.866
X82.381Y-100.0
X82.381Y-85.216
X82.381Y-114.784
X88.5Y-80.081
X88.5Y-85.216
X88.5Y-114.784
X88.5Y-119.919
X96.006Y-85.216
X96.006Y-77.349
X103.994Y-85.216
X103.994Y-77.349
X111.5Y-80.081
X111.5Y-85.216
X111.5Y-114.784
X111.5Y-119.919
X117.619Y-85.216
X117.619Y-114.784
X117.619Y-100.0
X121.613Y-92.134
X121.613Y-107.866
X123.0Y-100.0
T3
X99.0Y-98.0G85X100.0Y-98.0
G05
M30
