%TF.GenerationSoftware,KiCad,Pcbnew,9.0.0*%
%TF.CreationDate,2025-02-26T13:31:05-06:00*%
%TF.ProjectId,internal,696e7465-726e-4616-9c2e-6b696361645f,rev?*%
%TF.SameCoordinates,Original*%
%TF.FileFunction,Drillmap*%
%TF.FilePolarity,Positive*%
%FSLAX45Y45*%
G04 Gerber Fmt 4.5, Leading zero omitted, Abs format (unit mm)*
G04 Created by KiCad (PCBNEW 9.0.0) date 2025-02-26 13:31:05*
%MOMM*%
%LPD*%
G01*
G04 APERTURE LIST*
%ADD10C,0.100000*%
%ADD11C,0.200000*%
G04 APERTURE END LIST*
D10*
X10149038Y-7504446D02*
X10248135Y-7512345D01*
X10346839Y-7524176D01*
X10444995Y-7539923D01*
X10542447Y-7559559D01*
X10639042Y-7583054D01*
X10734626Y-7610371D01*
X10829048Y-7641467D01*
X10922160Y-7676291D01*
X11013813Y-7714790D01*
X11103864Y-7756903D01*
X11192169Y-7802562D01*
X11278589Y-7851696D01*
X11362987Y-7904226D01*
X11445230Y-7960071D01*
X11525188Y-8019141D01*
X11602734Y-8081343D01*
X11677746Y-8146579D01*
X11750105Y-8214746D01*
X11819697Y-8285735D01*
X11886412Y-8359436D01*
X11950143Y-8435730D01*
X12010791Y-8514497D01*
X12068260Y-8595614D01*
X12122458Y-8678951D01*
X12173301Y-8764377D01*
X12220706Y-8851757D01*
X12264601Y-8940952D01*
X12304915Y-9031822D01*
X12341584Y-9124223D01*
X12374550Y-9218009D01*
X12403762Y-9313031D01*
X12429173Y-9409139D01*
X12450743Y-9506182D01*
X12468438Y-9604005D01*
X12482230Y-9702455D01*
X12492097Y-9801375D01*
X12498023Y-9900609D01*
X12500000Y-10000000D01*
X12498023Y-10099391D01*
X12492097Y-10198625D01*
X12482230Y-10297546D01*
X12468438Y-10395995D01*
X12450743Y-10493819D01*
X12429173Y-10590861D01*
X12403762Y-10686969D01*
X12374550Y-10781992D01*
X12341584Y-10875777D01*
X12304915Y-10968178D01*
X12264601Y-11059048D01*
X12220706Y-11148243D01*
X12173301Y-11235623D01*
X12122458Y-11321049D01*
X12068260Y-11404386D01*
X12010791Y-11485503D01*
X11950143Y-11564270D01*
X11886412Y-11640564D01*
X11819697Y-11714264D01*
X11750105Y-11785254D01*
X11677746Y-11853421D01*
X11602734Y-11918657D01*
X11525188Y-11980859D01*
X11445230Y-12039929D01*
X11362987Y-12095773D01*
X11278589Y-12148304D01*
X11192169Y-12197438D01*
X11103864Y-12243097D01*
X11013813Y-12285209D01*
X10922160Y-12323708D01*
X10829048Y-12358533D01*
X10800000Y-12360000D01*
X10850000Y-11450000D01*
X10848019Y-11391994D01*
X10842083Y-11334258D01*
X10832222Y-11277062D01*
X10818480Y-11220673D01*
X10800922Y-11165352D01*
X10779630Y-11111359D01*
X10754702Y-11058945D01*
X10726257Y-11008354D01*
X10694424Y-10959822D01*
X10659355Y-10913575D01*
X10621211Y-10869830D01*
X10580170Y-10828789D01*
X10536425Y-10790645D01*
X10490178Y-10755576D01*
X10441646Y-10723744D01*
X10391055Y-10695298D01*
X10338641Y-10670370D01*
X10284648Y-10649078D01*
X10229327Y-10631520D01*
X10200000Y-10628463D01*
X10200000Y-10600000D01*
X10197964Y-10571537D01*
X10191899Y-10543654D01*
X10181926Y-10516917D01*
X10168251Y-10491872D01*
X10151150Y-10469028D01*
X10130972Y-10448850D01*
X10108128Y-10431749D01*
X10083083Y-10418074D01*
X10056347Y-10408101D01*
X10028463Y-10402036D01*
X10000000Y-10400000D01*
X9971537Y-10402036D01*
X9943654Y-10408101D01*
X9916917Y-10418074D01*
X9891872Y-10431749D01*
X9869028Y-10448850D01*
X9848850Y-10469028D01*
X9831749Y-10491872D01*
X9818074Y-10516917D01*
X9808101Y-10543654D01*
X9802036Y-10571537D01*
X9800000Y-10600000D01*
X9800000Y-10628463D01*
X9770673Y-10631520D01*
X9715352Y-10649078D01*
X9661359Y-10670370D01*
X9608945Y-10695298D01*
X9558354Y-10723744D01*
X9509822Y-10755576D01*
X9463575Y-10790645D01*
X9419830Y-10828789D01*
X9378789Y-10869830D01*
X9340645Y-10913575D01*
X9305576Y-10959822D01*
X9273744Y-11008354D01*
X9245298Y-11058945D01*
X9220370Y-11111359D01*
X9199078Y-11165352D01*
X9181520Y-11220673D01*
X9167779Y-11277062D01*
X9157917Y-11334258D01*
X9151982Y-11391994D01*
X9150000Y-11450000D01*
X9200000Y-12360000D01*
X9170952Y-12358533D01*
X9077840Y-12323708D01*
X8986187Y-12285209D01*
X8896136Y-12243097D01*
X8807831Y-12197438D01*
X8721411Y-12148304D01*
X8637013Y-12095773D01*
X8554770Y-12039929D01*
X8474812Y-11980859D01*
X8397266Y-11918657D01*
X8322254Y-11853421D01*
X8249895Y-11785254D01*
X8180303Y-11714264D01*
X8113588Y-11640564D01*
X8049857Y-11564270D01*
X7989209Y-11485503D01*
X7931740Y-11404386D01*
X7877542Y-11321049D01*
X7826699Y-11235623D01*
X7779293Y-11148243D01*
X7735399Y-11059048D01*
X7695085Y-10968178D01*
X7658416Y-10875777D01*
X7625450Y-10781992D01*
X7596238Y-10686969D01*
X7570827Y-10590861D01*
X7549257Y-10493819D01*
X7531562Y-10395995D01*
X7517770Y-10297546D01*
X7507903Y-10198625D01*
X7501976Y-10099391D01*
X7500000Y-10000000D01*
X7501976Y-9900609D01*
X7507903Y-9801375D01*
X7517770Y-9702455D01*
X7531562Y-9604005D01*
X7549257Y-9506182D01*
X7570827Y-9409139D01*
X7596238Y-9313031D01*
X7625450Y-9218009D01*
X7658416Y-9124223D01*
X7695085Y-9031822D01*
X7735399Y-8940952D01*
X7779293Y-8851757D01*
X7826699Y-8764377D01*
X7877542Y-8678951D01*
X7931740Y-8595614D01*
X7989209Y-8514497D01*
X8049857Y-8435730D01*
X8113588Y-8359436D01*
X8180303Y-8285735D01*
X8249895Y-8214746D01*
X8322254Y-8146579D01*
X8397266Y-8081343D01*
X8474812Y-8019141D01*
X8554770Y-7960071D01*
X8637013Y-7904226D01*
X8721411Y-7851696D01*
X8807831Y-7802562D01*
X8896136Y-7756903D01*
X8986187Y-7714790D01*
X9077840Y-7676291D01*
X9170952Y-7641467D01*
X9265374Y-7610371D01*
X9360958Y-7583054D01*
X9457553Y-7559559D01*
X9555005Y-7539923D01*
X9653161Y-7524176D01*
X9751866Y-7512345D01*
X9850962Y-7504446D01*
X9950295Y-7500494D01*
X10049706Y-7500494D01*
X10149038Y-7504446D01*
D11*
X7755777Y-12676484D02*
X7755777Y-12476484D01*
X7755777Y-12476484D02*
X7803396Y-12476484D01*
X7803396Y-12476484D02*
X7831967Y-12486008D01*
X7831967Y-12486008D02*
X7851015Y-12505055D01*
X7851015Y-12505055D02*
X7860539Y-12524103D01*
X7860539Y-12524103D02*
X7870062Y-12562198D01*
X7870062Y-12562198D02*
X7870062Y-12590769D01*
X7870062Y-12590769D02*
X7860539Y-12628865D01*
X7860539Y-12628865D02*
X7851015Y-12647912D01*
X7851015Y-12647912D02*
X7831967Y-12666960D01*
X7831967Y-12666960D02*
X7803396Y-12676484D01*
X7803396Y-12676484D02*
X7755777Y-12676484D01*
X7955777Y-12676484D02*
X7955777Y-12543150D01*
X7955777Y-12581246D02*
X7965301Y-12562198D01*
X7965301Y-12562198D02*
X7974824Y-12552674D01*
X7974824Y-12552674D02*
X7993872Y-12543150D01*
X7993872Y-12543150D02*
X8012920Y-12543150D01*
X8079586Y-12676484D02*
X8079586Y-12543150D01*
X8079586Y-12476484D02*
X8070062Y-12486008D01*
X8070062Y-12486008D02*
X8079586Y-12495531D01*
X8079586Y-12495531D02*
X8089110Y-12486008D01*
X8089110Y-12486008D02*
X8079586Y-12476484D01*
X8079586Y-12476484D02*
X8079586Y-12495531D01*
X8203396Y-12676484D02*
X8184348Y-12666960D01*
X8184348Y-12666960D02*
X8174824Y-12647912D01*
X8174824Y-12647912D02*
X8174824Y-12476484D01*
X8308158Y-12676484D02*
X8289110Y-12666960D01*
X8289110Y-12666960D02*
X8279586Y-12647912D01*
X8279586Y-12647912D02*
X8279586Y-12476484D01*
X8536729Y-12676484D02*
X8536729Y-12476484D01*
X8536729Y-12476484D02*
X8603396Y-12619341D01*
X8603396Y-12619341D02*
X8670063Y-12476484D01*
X8670063Y-12476484D02*
X8670063Y-12676484D01*
X8851015Y-12676484D02*
X8851015Y-12571722D01*
X8851015Y-12571722D02*
X8841491Y-12552674D01*
X8841491Y-12552674D02*
X8822444Y-12543150D01*
X8822444Y-12543150D02*
X8784348Y-12543150D01*
X8784348Y-12543150D02*
X8765301Y-12552674D01*
X8851015Y-12666960D02*
X8831967Y-12676484D01*
X8831967Y-12676484D02*
X8784348Y-12676484D01*
X8784348Y-12676484D02*
X8765301Y-12666960D01*
X8765301Y-12666960D02*
X8755777Y-12647912D01*
X8755777Y-12647912D02*
X8755777Y-12628865D01*
X8755777Y-12628865D02*
X8765301Y-12609817D01*
X8765301Y-12609817D02*
X8784348Y-12600293D01*
X8784348Y-12600293D02*
X8831967Y-12600293D01*
X8831967Y-12600293D02*
X8851015Y-12590769D01*
X8946253Y-12543150D02*
X8946253Y-12743150D01*
X8946253Y-12552674D02*
X8965301Y-12543150D01*
X8965301Y-12543150D02*
X9003396Y-12543150D01*
X9003396Y-12543150D02*
X9022444Y-12552674D01*
X9022444Y-12552674D02*
X9031967Y-12562198D01*
X9031967Y-12562198D02*
X9041491Y-12581246D01*
X9041491Y-12581246D02*
X9041491Y-12638388D01*
X9041491Y-12638388D02*
X9031967Y-12657436D01*
X9031967Y-12657436D02*
X9022444Y-12666960D01*
X9022444Y-12666960D02*
X9003396Y-12676484D01*
X9003396Y-12676484D02*
X8965301Y-12676484D01*
X8965301Y-12676484D02*
X8946253Y-12666960D01*
X9127205Y-12657436D02*
X9136729Y-12666960D01*
X9136729Y-12666960D02*
X9127205Y-12676484D01*
X9127205Y-12676484D02*
X9117682Y-12666960D01*
X9117682Y-12666960D02*
X9127205Y-12657436D01*
X9127205Y-12657436D02*
X9127205Y-12676484D01*
X9127205Y-12552674D02*
X9136729Y-12562198D01*
X9136729Y-12562198D02*
X9127205Y-12571722D01*
X9127205Y-12571722D02*
X9117682Y-12562198D01*
X9117682Y-12562198D02*
X9127205Y-12552674D01*
X9127205Y-12552674D02*
X9127205Y-12571722D01*
M02*
