%TF.GenerationSoftware,KiCad,Pcbnew,9.0.0*%
%TF.CreationDate,2025-02-26T13:30:55-06:00*%
%TF.ProjectId,internal,696e7465-726e-4616-9c2e-6b696361645f,rev?*%
%TF.SameCoordinates,Original*%
%TF.FileFunction,Copper,L2,Bot*%
%TF.FilePolarity,Positive*%
%FSLAX46Y46*%
G04 Gerber Fmt 4.6, Leading zero omitted, Abs format (unit mm)*
G04 Created by KiCad (PCBNEW 9.0.0) date 2025-02-26 13:30:55*
%MOMM*%
%LPD*%
G01*
G04 APERTURE LIST*
%TA.AperFunction,ComponentPad*%
%ADD10C,3.500000*%
%TD*%
%TA.AperFunction,ComponentPad*%
%ADD11O,6.200000X5.200000*%
%TD*%
%TA.AperFunction,ComponentPad*%
%ADD12C,1.600000*%
%TD*%
%TA.AperFunction,ComponentPad*%
%ADD13C,2.000000*%
%TD*%
%TA.AperFunction,SMDPad,CuDef*%
%ADD14C,4.000000*%
%TD*%
%TA.AperFunction,SMDPad,CuDef*%
%ADD15C,2.000000*%
%TD*%
%TA.AperFunction,Conductor*%
%ADD16C,3.000000*%
%TD*%
%TA.AperFunction,Conductor*%
%ADD17C,0.300000*%
%TD*%
G04 APERTURE END LIST*
D10*
%TO.P,clearance-D12,1*%
%TO.N,GND*%
X121613000Y-92134000D03*
%TD*%
D11*
%TO.P,clearance-U1,1*%
%TO.N,GND*%
X99500000Y-98000000D03*
%TD*%
D12*
%TO.P,align-ir1,1*%
%TO.N,GND*%
X77800000Y-102400000D03*
%TD*%
D10*
%TO.P,clearance-R5,1*%
%TO.N,GND*%
X103993908Y-85215884D03*
%TD*%
%TO.P,clearance-R1,1*%
%TO.N,GND*%
X88500000Y-114784115D03*
%TD*%
%TO.P,clearance-R7,1*%
%TO.N,GND*%
X117619023Y-100000000D03*
%TD*%
%TO.P,clearance-R8,1*%
%TO.N,GND*%
X111500000Y-114784115D03*
%TD*%
%TO.P,clearance-R4,1*%
%TO.N,GND*%
X96006092Y-85215884D03*
%TD*%
D13*
%TO.P,through-i2,1*%
%TO.N,+3V0*%
X94996000Y-102170000D03*
%TD*%
D10*
%TO.P,clearance-R6,1*%
%TO.N,GND*%
X111500000Y-85215884D03*
%TD*%
%TO.P,clearance-D4,1*%
%TO.N,GND*%
X77000000Y-100000000D03*
%TD*%
D13*
%TO.P,through-i4,1*%
%TO.N,+3V0*%
X96295038Y-104420000D03*
%TD*%
D10*
%TO.P,clearance-D7,1*%
%TO.N,GND*%
X88500000Y-80081000D03*
%TD*%
D13*
%TO.P,through-i5,1*%
%TO.N,+3V0*%
X94996000Y-105170000D03*
%TD*%
D10*
%TO.P,clearance-D13,1*%
%TO.N,GND*%
X123000000Y-100000000D03*
%TD*%
D12*
%TO.P,align-io2,1*%
%TO.N,GND*%
X122200000Y-102400000D03*
%TD*%
D10*
%TO.P,clearance-D1,1*%
%TO.N,GND*%
X88500000Y-119919000D03*
%TD*%
%TO.P,clearance-D5,1*%
%TO.N,GND*%
X78387100Y-92134000D03*
%TD*%
%TO.P,clearance-D9,1*%
%TO.N,GND*%
X103994000Y-77349000D03*
%TD*%
D13*
%TO.P,through-i3,1*%
%TO.N,+3V0*%
X96295038Y-102920000D03*
%TD*%
D10*
%TO.P,clearance-D2,1*%
%TO.N,GND*%
X82381000Y-114784000D03*
%TD*%
D13*
%TO.P,through-i7,1*%
%TO.N,+3V0*%
X93696961Y-102920000D03*
%TD*%
D10*
%TO.P,clearance-D6,1*%
%TO.N,GND*%
X82381000Y-85216000D03*
%TD*%
%TO.P,clearance-D16,1*%
%TO.N,GND*%
X111500000Y-119919000D03*
%TD*%
%TO.P,clearance-D11,1*%
%TO.N,GND*%
X117619000Y-85216000D03*
%TD*%
D13*
%TO.P,through-i1,1*%
%TO.N,+3V0*%
X94996000Y-103670000D03*
%TD*%
D10*
%TO.P,clearance-D10,1*%
%TO.N,GND*%
X111500000Y-80081000D03*
%TD*%
%TO.P,clearance-R2,1*%
%TO.N,GND*%
X82380977Y-100000000D03*
%TD*%
%TO.P,clearance-D15,1*%
%TO.N,GND*%
X117619000Y-114784000D03*
%TD*%
%TO.P,clearance-D3,1*%
%TO.N,GND*%
X78387100Y-107866000D03*
%TD*%
D13*
%TO.P,through-i6,1*%
%TO.N,+3V0*%
X93696961Y-104420000D03*
%TD*%
D10*
%TO.P,clearance-D14,1*%
%TO.N,GND*%
X121613000Y-107866000D03*
%TD*%
%TO.P,clearance-D8,1*%
%TO.N,GND*%
X96006100Y-77349000D03*
%TD*%
D12*
%TO.P,align-io1,1*%
%TO.N,GND*%
X77800000Y-97300000D03*
%TD*%
%TO.P,align-ir2,1*%
%TO.N,GND*%
X122200000Y-97300000D03*
%TD*%
D10*
%TO.P,clearance-R3,1*%
%TO.N,GND*%
X88500000Y-85215884D03*
%TD*%
D14*
%TO.P,contact-i1,1*%
%TO.N,+3V0*%
X94958000Y-92202000D03*
%TD*%
D15*
%TO.P,stitch2,1*%
%TO.N,GND*%
X114948000Y-118110000D03*
%TD*%
%TO.P,stitch2,1*%
%TO.N,GND*%
X100038000Y-76454000D03*
%TD*%
%TO.P,stitch2,1*%
%TO.N,GND*%
X122822000Y-105156000D03*
%TD*%
%TO.P,stitch2,1*%
%TO.N,GND*%
X85306000Y-81788000D03*
%TD*%
%TO.P,stitch2,1*%
%TO.N,GND*%
X114694000Y-81788000D03*
%TD*%
%TO.P,stitch2,1*%
%TO.N,GND*%
X91910000Y-77978000D03*
%TD*%
%TO.P,stitch2,1*%
%TO.N,GND*%
X123076000Y-95758000D03*
%TD*%
%TO.P,stitch2,1*%
%TO.N,GND*%
X76924000Y-95758000D03*
%TD*%
%TO.P,stitch2,1*%
%TO.N,GND*%
X108090000Y-77978000D03*
%TD*%
%TO.P,stitch2,1*%
%TO.N,GND*%
X77178000Y-105156000D03*
%TD*%
%TO.P,stitch2,1*%
%TO.N,GND*%
X85052000Y-118110000D03*
%TD*%
D16*
%TO.N,+3V0*%
X94700000Y-92460000D02*
X94700000Y-103374000D01*
X94700000Y-103374000D02*
X94996000Y-103670000D01*
X94958000Y-92202000D02*
X94700000Y-92460000D01*
D17*
X94996000Y-102170000D02*
X94996000Y-103670000D01*
%TD*%
%TA.AperFunction,Conductor*%
%TO.N,GND*%
G36*
X100489558Y-75505540D02*
G01*
X101458068Y-75544074D01*
X101462990Y-75544368D01*
X102429214Y-75621377D01*
X102434083Y-75621863D01*
X103396512Y-75737230D01*
X103401364Y-75737909D01*
X104358442Y-75891446D01*
X104363232Y-75892313D01*
X105313457Y-76083782D01*
X105318217Y-76084840D01*
X106260086Y-76313935D01*
X106264782Y-76315176D01*
X107155647Y-76569776D01*
X107196774Y-76581530D01*
X107201490Y-76582979D01*
X108122170Y-76886180D01*
X108126757Y-76887792D01*
X108810628Y-77143568D01*
X109034645Y-77227353D01*
X109039228Y-77229172D01*
X109932884Y-77604551D01*
X109937355Y-77606536D01*
X110596066Y-77914583D01*
X110815361Y-78017137D01*
X110819785Y-78019314D01*
X111680760Y-78464492D01*
X111685094Y-78466843D01*
X112527742Y-78945928D01*
X112531979Y-78948450D01*
X113354847Y-79460616D01*
X113358980Y-79463304D01*
X114160897Y-80007819D01*
X114164890Y-80010648D01*
X114944486Y-80586587D01*
X114948393Y-80589595D01*
X115704477Y-81196074D01*
X115708261Y-81199235D01*
X116439631Y-81835287D01*
X116443287Y-81838596D01*
X117148822Y-82503253D01*
X117152343Y-82506705D01*
X117830882Y-83198873D01*
X117834262Y-83202462D01*
X118484705Y-83921009D01*
X118487941Y-83924729D01*
X119109355Y-84668634D01*
X119112441Y-84672481D01*
X119703776Y-85440486D01*
X119706706Y-85444452D01*
X120267039Y-86235358D01*
X120269808Y-86239437D01*
X120798234Y-87051963D01*
X120800840Y-87056149D01*
X121296565Y-87889073D01*
X121299002Y-87893359D01*
X121761213Y-88745319D01*
X121763478Y-88749699D01*
X122191473Y-89619404D01*
X122193561Y-89623871D01*
X122586600Y-90509811D01*
X122588510Y-90514357D01*
X122946053Y-91415311D01*
X122947780Y-91419929D01*
X123269201Y-92334329D01*
X123270744Y-92339013D01*
X123555572Y-93265517D01*
X123556926Y-93270257D01*
X123804684Y-94207310D01*
X123805850Y-94212102D01*
X124016161Y-95158281D01*
X124017135Y-95163114D01*
X124189668Y-96116936D01*
X124190449Y-96121805D01*
X124324916Y-97081660D01*
X124325503Y-97086556D01*
X124421711Y-98051091D01*
X124422102Y-98056006D01*
X124479885Y-99023538D01*
X124480081Y-99028465D01*
X124499351Y-99997534D01*
X124499351Y-100002464D01*
X124480081Y-100971533D01*
X124479885Y-100976460D01*
X124422102Y-101943992D01*
X124421711Y-101948907D01*
X124325503Y-102913442D01*
X124324916Y-102918338D01*
X124190449Y-103878193D01*
X124189668Y-103883062D01*
X124017135Y-104836884D01*
X124016161Y-104841717D01*
X123805850Y-105787896D01*
X123804684Y-105792688D01*
X123556926Y-106729741D01*
X123555572Y-106734481D01*
X123270744Y-107660985D01*
X123269201Y-107665669D01*
X122947780Y-108580069D01*
X122946053Y-108584687D01*
X122588510Y-109485641D01*
X122586600Y-109490187D01*
X122193561Y-110376127D01*
X122191473Y-110380594D01*
X121763478Y-111250299D01*
X121761213Y-111254679D01*
X121299002Y-112106639D01*
X121296565Y-112110925D01*
X120800840Y-112943849D01*
X120798234Y-112948035D01*
X120269808Y-113760561D01*
X120267039Y-113764640D01*
X119706706Y-114555546D01*
X119703776Y-114559512D01*
X119112441Y-115327517D01*
X119109355Y-115331364D01*
X118487941Y-116075269D01*
X118484705Y-116078989D01*
X117834262Y-116797536D01*
X117830882Y-116801125D01*
X117152343Y-117493293D01*
X117148822Y-117496745D01*
X116443287Y-118161402D01*
X116439631Y-118164711D01*
X115708261Y-118800763D01*
X115704477Y-118803924D01*
X114948393Y-119410403D01*
X114944486Y-119413411D01*
X114164905Y-119989339D01*
X114160881Y-119992190D01*
X113358980Y-120536694D01*
X113354847Y-120539382D01*
X112531979Y-121051548D01*
X112527742Y-121054070D01*
X111685094Y-121533155D01*
X111680760Y-121535506D01*
X110819785Y-121980684D01*
X110815361Y-121982861D01*
X109937373Y-122393454D01*
X109932866Y-122395454D01*
X109039228Y-122770826D01*
X109034645Y-122772644D01*
X108714134Y-122892519D01*
X108644447Y-122897567D01*
X108583093Y-122864138D01*
X108549553Y-122802845D01*
X108546882Y-122769574D01*
X108564878Y-122442042D01*
X108997368Y-114570737D01*
X109002458Y-114548766D01*
X109000969Y-114505191D01*
X109003361Y-114461666D01*
X109000936Y-114450115D01*
X108998361Y-114428866D01*
X108982051Y-113951395D01*
X108984799Y-113934302D01*
X108979810Y-113885773D01*
X108978144Y-113836998D01*
X108976603Y-113831944D01*
X108971861Y-113808457D01*
X108967359Y-113764667D01*
X108923674Y-113339718D01*
X108925249Y-113322476D01*
X108916959Y-113274398D01*
X108911969Y-113225853D01*
X108910087Y-113220917D01*
X108903754Y-113197811D01*
X108860330Y-112945958D01*
X108823690Y-112733451D01*
X108824085Y-112716141D01*
X108812533Y-112668738D01*
X108804242Y-112620650D01*
X108802029Y-112615857D01*
X108794133Y-112593238D01*
X108682567Y-112135422D01*
X108681779Y-112118123D01*
X108667016Y-112071611D01*
X108655465Y-112024208D01*
X108652930Y-112019578D01*
X108643512Y-111997554D01*
X108500961Y-111548413D01*
X108500960Y-111548410D01*
X108498995Y-111531210D01*
X108481096Y-111485821D01*
X108466334Y-111439310D01*
X108463479Y-111434847D01*
X108452585Y-111413522D01*
X108284135Y-110986365D01*
X108279720Y-110975169D01*
X108276584Y-110958140D01*
X108255628Y-110914076D01*
X108237727Y-110868682D01*
X108237726Y-110868680D01*
X108234581Y-110864433D01*
X108222251Y-110843894D01*
X108025045Y-110429230D01*
X108019876Y-110418361D01*
X108015585Y-110401583D01*
X107991666Y-110359043D01*
X107970713Y-110314985D01*
X107967288Y-110310965D01*
X107953585Y-110291317D01*
X107722639Y-109880578D01*
X107717213Y-109864134D01*
X107690451Y-109823332D01*
X107666537Y-109780801D01*
X107662844Y-109777023D01*
X107647832Y-109758355D01*
X107471940Y-109490187D01*
X107395993Y-109374395D01*
X107389392Y-109364332D01*
X107382859Y-109348300D01*
X107353380Y-109309427D01*
X107351065Y-109305897D01*
X107351051Y-109305877D01*
X107326613Y-109268618D01*
X107326612Y-109268617D01*
X107322669Y-109265099D01*
X107306420Y-109247500D01*
X107068041Y-108933150D01*
X107021698Y-108872037D01*
X107014084Y-108856486D01*
X106982019Y-108819712D01*
X106952533Y-108780829D01*
X106952531Y-108780827D01*
X106948353Y-108777583D01*
X106930940Y-108761133D01*
X106629176Y-108415055D01*
X106629175Y-108415054D01*
X106621263Y-108405980D01*
X106612606Y-108390984D01*
X106578102Y-108356480D01*
X106575321Y-108353290D01*
X106575320Y-108353289D01*
X106546037Y-108319706D01*
X106546036Y-108319705D01*
X106546035Y-108319704D01*
X106541645Y-108316752D01*
X106523153Y-108301531D01*
X106189956Y-107968334D01*
X106180296Y-107953965D01*
X106143519Y-107921897D01*
X106135279Y-107913657D01*
X106109017Y-107887394D01*
X106109015Y-107887392D01*
X106104433Y-107884747D01*
X106084946Y-107870824D01*
X105738861Y-107569053D01*
X105738860Y-107569053D01*
X105729790Y-107561144D01*
X105719171Y-107547467D01*
X105680298Y-107517989D01*
X105677103Y-107515203D01*
X105677101Y-107515201D01*
X105643521Y-107485920D01*
X105643519Y-107485919D01*
X105643517Y-107485918D01*
X105643515Y-107485916D01*
X105638760Y-107483587D01*
X105618374Y-107471030D01*
X105252498Y-107193577D01*
X105242907Y-107186304D01*
X105231381Y-107173386D01*
X105190588Y-107146630D01*
X105187211Y-107144069D01*
X105187207Y-107144066D01*
X105151702Y-107117142D01*
X105151700Y-107117141D01*
X105146804Y-107115145D01*
X105125600Y-107104004D01*
X104741644Y-106852166D01*
X104731580Y-106845565D01*
X104719199Y-106833463D01*
X104676674Y-106809552D01*
X104635867Y-106782787D01*
X104630841Y-106781128D01*
X104608931Y-106771462D01*
X104208684Y-106546415D01*
X104208684Y-106546414D01*
X104198192Y-106540515D01*
X104185015Y-106529286D01*
X104140945Y-106508327D01*
X104137253Y-106506251D01*
X104098418Y-106484415D01*
X104098414Y-106484414D01*
X104093300Y-106483106D01*
X104070773Y-106474955D01*
X103656102Y-106277746D01*
X103645231Y-106272576D01*
X103631317Y-106262272D01*
X103585923Y-106244370D01*
X103582108Y-106242556D01*
X103582096Y-106242551D01*
X103541860Y-106223416D01*
X103541861Y-106223416D01*
X103539670Y-106223012D01*
X103536665Y-106222459D01*
X103513640Y-106215865D01*
X103086472Y-106047411D01*
X103086472Y-106047412D01*
X103075274Y-106042996D01*
X103060690Y-106033666D01*
X103014178Y-106018904D01*
X103014175Y-106018903D01*
X103010240Y-106017351D01*
X103010239Y-106017350D01*
X103010238Y-106017350D01*
X102968793Y-106001006D01*
X102968791Y-106001005D01*
X102968790Y-106001005D01*
X102968789Y-106001004D01*
X102968786Y-106001004D01*
X102963544Y-106000405D01*
X102940117Y-105995398D01*
X102869055Y-105972844D01*
X102730751Y-105928948D01*
X102571431Y-105878382D01*
X102554153Y-105866740D01*
X102534634Y-105859460D01*
X102525763Y-105847610D01*
X102513488Y-105839339D01*
X102505247Y-105820205D01*
X102492762Y-105803527D01*
X102487349Y-105778646D01*
X102485851Y-105775168D01*
X102485259Y-105769039D01*
X102485188Y-105768048D01*
X102481519Y-105716754D01*
X102481345Y-105702032D01*
X102482711Y-105673367D01*
X102478197Y-105652621D01*
X102475680Y-105635118D01*
X102474167Y-105613941D01*
X102464783Y-105586829D01*
X102460796Y-105572629D01*
X102415956Y-105366500D01*
X102414385Y-105359278D01*
X102410956Y-105323366D01*
X102400440Y-105295171D01*
X102394042Y-105265760D01*
X102394042Y-105265759D01*
X102380894Y-105240257D01*
X102374926Y-105226768D01*
X102298627Y-105022202D01*
X102290121Y-104987138D01*
X102275696Y-104960720D01*
X102265180Y-104932526D01*
X102248534Y-104909149D01*
X102240712Y-104896652D01*
X102136073Y-104705020D01*
X102122665Y-104671528D01*
X102104630Y-104647437D01*
X102090207Y-104621022D01*
X102090206Y-104621021D01*
X102090205Y-104621019D01*
X102070408Y-104600258D01*
X102060882Y-104588996D01*
X101934461Y-104420117D01*
X101934461Y-104420118D01*
X101930032Y-104414201D01*
X101911998Y-104382965D01*
X101890720Y-104361687D01*
X101882034Y-104350084D01*
X101872682Y-104337590D01*
X101850129Y-104319855D01*
X101839098Y-104310065D01*
X101689933Y-104160899D01*
X101689933Y-104160898D01*
X101684706Y-104155671D01*
X101662409Y-104127318D01*
X101638316Y-104109282D01*
X101617035Y-104088001D01*
X101617034Y-104088000D01*
X101617031Y-104087998D01*
X101592185Y-104073653D01*
X101579876Y-104065534D01*
X101411002Y-103939116D01*
X101405087Y-103934688D01*
X101378978Y-103909793D01*
X101352562Y-103895369D01*
X101345461Y-103890053D01*
X101345460Y-103890051D01*
X101328474Y-103877336D01*
X101328470Y-103877333D01*
X101301835Y-103866670D01*
X101288497Y-103860386D01*
X101103342Y-103759284D01*
X101096859Y-103755744D01*
X101067474Y-103734820D01*
X101039279Y-103724303D01*
X101031494Y-103720052D01*
X101031493Y-103720051D01*
X101012865Y-103709880D01*
X101012859Y-103709878D01*
X100984981Y-103703115D01*
X100970882Y-103698793D01*
X100970879Y-103698792D01*
X100893686Y-103670000D01*
X100773228Y-103625071D01*
X100773228Y-103625070D01*
X100766301Y-103622486D01*
X100734240Y-103605958D01*
X100704828Y-103599559D01*
X100696522Y-103596461D01*
X100676632Y-103589043D01*
X100676628Y-103589042D01*
X100648071Y-103586315D01*
X100633505Y-103584043D01*
X100427373Y-103539203D01*
X100427371Y-103539203D01*
X100420151Y-103537632D01*
X100386059Y-103525833D01*
X100356044Y-103523686D01*
X100347382Y-103521802D01*
X100347375Y-103521801D01*
X100332089Y-103518476D01*
X100326633Y-103517289D01*
X100326632Y-103517289D01*
X100297965Y-103518653D01*
X100283227Y-103518477D01*
X100072814Y-103503429D01*
X100072813Y-103503429D01*
X100065444Y-103502902D01*
X100030019Y-103496075D01*
X100000001Y-103498220D01*
X99991153Y-103497588D01*
X99991151Y-103497587D01*
X99969984Y-103496074D01*
X99941800Y-103501505D01*
X99927186Y-103503428D01*
X99716772Y-103518476D01*
X99716773Y-103518477D01*
X99709395Y-103519004D01*
X99673367Y-103517289D01*
X99643969Y-103523684D01*
X99635119Y-103524317D01*
X99635117Y-103524318D01*
X99613941Y-103525833D01*
X99613935Y-103525834D01*
X99586819Y-103535219D01*
X99572622Y-103539204D01*
X99366494Y-103584042D01*
X99366495Y-103584043D01*
X99359269Y-103585614D01*
X99323366Y-103589044D01*
X99295172Y-103599558D01*
X99286505Y-103601444D01*
X99286504Y-103601443D01*
X99265763Y-103605956D01*
X99265758Y-103605958D01*
X99240249Y-103619108D01*
X99226768Y-103625072D01*
X99029117Y-103698792D01*
X99022195Y-103701373D01*
X98987138Y-103709879D01*
X98960720Y-103724303D01*
X98952412Y-103727402D01*
X98952410Y-103727402D01*
X98932524Y-103734820D01*
X98909154Y-103751461D01*
X98896659Y-103759282D01*
X98711505Y-103860384D01*
X98705013Y-103863928D01*
X98671528Y-103877335D01*
X98647447Y-103895361D01*
X98639657Y-103899615D01*
X98639656Y-103899617D01*
X98621023Y-103909792D01*
X98621022Y-103909792D01*
X98600259Y-103929590D01*
X98589002Y-103939112D01*
X98420113Y-104065541D01*
X98414197Y-104069969D01*
X98382965Y-104088002D01*
X98361689Y-104109276D01*
X98354593Y-104114589D01*
X98337590Y-104127318D01*
X98319856Y-104149869D01*
X98310068Y-104160897D01*
X98160896Y-104310068D01*
X98160895Y-104310067D01*
X98155662Y-104315299D01*
X98127318Y-104337591D01*
X98109288Y-104361674D01*
X98103014Y-104367949D01*
X98103014Y-104367950D01*
X98088003Y-104382962D01*
X98088002Y-104382962D01*
X98073653Y-104407815D01*
X98065537Y-104420118D01*
X98065535Y-104420121D01*
X98018805Y-104482545D01*
X97962872Y-104524417D01*
X97893180Y-104529401D01*
X97831857Y-104495916D01*
X97798372Y-104434593D01*
X97795538Y-104408235D01*
X97795538Y-104301902D01*
X97758591Y-104068631D01*
X97727886Y-103974133D01*
X97685606Y-103844008D01*
X97685603Y-103844004D01*
X97685603Y-103844001D01*
X97640633Y-103755744D01*
X97625627Y-103726294D01*
X97612731Y-103657627D01*
X97625628Y-103613704D01*
X97631876Y-103601443D01*
X97685606Y-103495992D01*
X97758591Y-103271368D01*
X97795538Y-103038097D01*
X97795538Y-102801902D01*
X97758591Y-102568631D01*
X97685604Y-102344003D01*
X97578380Y-102133566D01*
X97439555Y-101942490D01*
X97272548Y-101775483D01*
X97081471Y-101636657D01*
X96871034Y-101529433D01*
X96830798Y-101516359D01*
X96786180Y-101501862D01*
X96728506Y-101462425D01*
X96701308Y-101398066D01*
X96700500Y-101383932D01*
X96700500Y-94047103D01*
X96720185Y-93980064D01*
X96736819Y-93959422D01*
X96777772Y-93918469D01*
X96825416Y-93870825D01*
X97000523Y-93651248D01*
X97149945Y-93413445D01*
X97271801Y-93160408D01*
X97364560Y-92895318D01*
X97427055Y-92621509D01*
X97458500Y-92342425D01*
X97458500Y-92061575D01*
X97427055Y-91782491D01*
X97364560Y-91508682D01*
X97271801Y-91243592D01*
X97149945Y-90990555D01*
X97000523Y-90752752D01*
X96825416Y-90533175D01*
X96626825Y-90334584D01*
X96407248Y-90159477D01*
X96169445Y-90010055D01*
X96169442Y-90010053D01*
X95916411Y-89888200D01*
X95651329Y-89795443D01*
X95651317Y-89795439D01*
X95377512Y-89732945D01*
X95377494Y-89732942D01*
X95098431Y-89701500D01*
X95098425Y-89701500D01*
X94817575Y-89701500D01*
X94817568Y-89701500D01*
X94538505Y-89732942D01*
X94538487Y-89732945D01*
X94264682Y-89795439D01*
X94264670Y-89795443D01*
X93999588Y-89888200D01*
X93746557Y-90010053D01*
X93508753Y-90159476D01*
X93289175Y-90334583D01*
X93090583Y-90533175D01*
X92915476Y-90752753D01*
X92766053Y-90990557D01*
X92644200Y-91243588D01*
X92551443Y-91508670D01*
X92551439Y-91508682D01*
X92488945Y-91782487D01*
X92488942Y-91782505D01*
X92457500Y-92061568D01*
X92457500Y-92342431D01*
X92488942Y-92621494D01*
X92488945Y-92621512D01*
X92551439Y-92895317D01*
X92551443Y-92895329D01*
X92644196Y-93160401D01*
X92644202Y-93160415D01*
X92687220Y-93249741D01*
X92699500Y-93303543D01*
X92699500Y-101744072D01*
X92679815Y-101811111D01*
X92663181Y-101831753D01*
X92552446Y-101942487D01*
X92552446Y-101942488D01*
X92552444Y-101942490D01*
X92492823Y-102024550D01*
X92413618Y-102133566D01*
X92306394Y-102344003D01*
X92233407Y-102568631D01*
X92196461Y-102801902D01*
X92196461Y-103038097D01*
X92233407Y-103271368D01*
X92306395Y-103495999D01*
X92366370Y-103613706D01*
X92379266Y-103682375D01*
X92366370Y-103726294D01*
X92306395Y-103844000D01*
X92233407Y-104068631D01*
X92196461Y-104301902D01*
X92196461Y-104538097D01*
X92233407Y-104771368D01*
X92306394Y-104995996D01*
X92360024Y-105101249D01*
X92413618Y-105206433D01*
X92552444Y-105397510D01*
X92719451Y-105564517D01*
X92910528Y-105703343D01*
X93009952Y-105754002D01*
X93120964Y-105810566D01*
X93120966Y-105810566D01*
X93120969Y-105810568D01*
X93150629Y-105820205D01*
X93345592Y-105883553D01*
X93578864Y-105920500D01*
X93578869Y-105920500D01*
X93623369Y-105920500D01*
X93690408Y-105940185D01*
X93723685Y-105971613D01*
X93851483Y-106147510D01*
X94018490Y-106314517D01*
X94209567Y-106453343D01*
X94308991Y-106504002D01*
X94420003Y-106560566D01*
X94420005Y-106560566D01*
X94420008Y-106560568D01*
X94516573Y-106591944D01*
X94644631Y-106633553D01*
X94877903Y-106670500D01*
X95118964Y-106670500D01*
X95118964Y-106672525D01*
X95178997Y-106685137D01*
X95228754Y-106734189D01*
X95244093Y-106802354D01*
X95220144Y-106867991D01*
X95188357Y-106898078D01*
X94874393Y-107104007D01*
X94874392Y-107104006D01*
X94864325Y-107110608D01*
X94848300Y-107117141D01*
X94809436Y-107146611D01*
X94805885Y-107148941D01*
X94805879Y-107148946D01*
X94768619Y-107173385D01*
X94768614Y-107173390D01*
X94765098Y-107177331D01*
X94747503Y-107193576D01*
X94381624Y-107471030D01*
X94372033Y-107478302D01*
X94356486Y-107485916D01*
X94319715Y-107517977D01*
X94316337Y-107520539D01*
X94280832Y-107547463D01*
X94280824Y-107547471D01*
X94277580Y-107551650D01*
X94261136Y-107569055D01*
X93915053Y-107870824D01*
X93915052Y-107870825D01*
X93905981Y-107878735D01*
X93890984Y-107887394D01*
X93856482Y-107921894D01*
X93853281Y-107924686D01*
X93853279Y-107924686D01*
X93819705Y-107953963D01*
X93819697Y-107953972D01*
X93816750Y-107958356D01*
X93801531Y-107976845D01*
X93476843Y-108301533D01*
X93468331Y-108310044D01*
X93453965Y-108319704D01*
X93421916Y-108356457D01*
X93418921Y-108359453D01*
X93418907Y-108359469D01*
X93387393Y-108390985D01*
X93387389Y-108390990D01*
X93384744Y-108395571D01*
X93370825Y-108415050D01*
X93069052Y-108761137D01*
X93069053Y-108761138D01*
X93061142Y-108770210D01*
X93047467Y-108780829D01*
X93017996Y-108819691D01*
X93015209Y-108822888D01*
X93015208Y-108822891D01*
X92985915Y-108856486D01*
X92985914Y-108856488D01*
X92983588Y-108861238D01*
X92971030Y-108881624D01*
X92693574Y-109247504D01*
X92693573Y-109247503D01*
X92686297Y-109257097D01*
X92673386Y-109268619D01*
X92646634Y-109309403D01*
X92644076Y-109312778D01*
X92644066Y-109312793D01*
X92617140Y-109348300D01*
X92617139Y-109348302D01*
X92615145Y-109353196D01*
X92604005Y-109374397D01*
X92352164Y-109758357D01*
X92352164Y-109758358D01*
X92345565Y-109768419D01*
X92333463Y-109780801D01*
X92309565Y-109823301D01*
X92307233Y-109826857D01*
X92307233Y-109826859D01*
X92282788Y-109864131D01*
X92282786Y-109864135D01*
X92281131Y-109869152D01*
X92271463Y-109891066D01*
X92046414Y-110291316D01*
X92040516Y-110301805D01*
X92029286Y-110314985D01*
X92008332Y-110359043D01*
X92006252Y-110362743D01*
X91984415Y-110401581D01*
X91984412Y-110401589D01*
X91983103Y-110406708D01*
X91974954Y-110429226D01*
X91777745Y-110843898D01*
X91772574Y-110854769D01*
X91762272Y-110868683D01*
X91744374Y-110914064D01*
X91742547Y-110917908D01*
X91723416Y-110958137D01*
X91723414Y-110958144D01*
X91722457Y-110963340D01*
X91715865Y-110986359D01*
X91547412Y-111413528D01*
X91542998Y-111424722D01*
X91533666Y-111439310D01*
X91518906Y-111485812D01*
X91517352Y-111489755D01*
X91501004Y-111531210D01*
X91500405Y-111536455D01*
X91495398Y-111559881D01*
X91356490Y-111997545D01*
X91352848Y-112009017D01*
X91344534Y-112024208D01*
X91332982Y-112071610D01*
X91331698Y-112075656D01*
X91318221Y-112118122D01*
X91318220Y-112118125D01*
X91317980Y-112123400D01*
X91314583Y-112147109D01*
X91205866Y-112593234D01*
X91205866Y-112593235D01*
X91203328Y-112603652D01*
X91203017Y-112604927D01*
X91195758Y-112620650D01*
X91187468Y-112668724D01*
X91186463Y-112672851D01*
X91186463Y-112672852D01*
X91175915Y-112716139D01*
X91175914Y-112716141D01*
X91176035Y-112721420D01*
X91174264Y-112745310D01*
X91096244Y-113197812D01*
X91094199Y-113209672D01*
X91088031Y-113225853D01*
X91083041Y-113274385D01*
X91082320Y-113278569D01*
X91082319Y-113278575D01*
X91074751Y-113322469D01*
X91074751Y-113322481D01*
X91075231Y-113327741D01*
X91075094Y-113351688D01*
X91028137Y-113808457D01*
X91026906Y-113820432D01*
X91021856Y-113836999D01*
X91020189Y-113885764D01*
X91019755Y-113889989D01*
X91019755Y-113889991D01*
X91015200Y-113934301D01*
X91015200Y-113934302D01*
X91016038Y-113939511D01*
X91017537Y-113963421D01*
X91001637Y-114428866D01*
X91001637Y-114428867D01*
X91001270Y-114439601D01*
X90996639Y-114461666D01*
X90999029Y-114505182D01*
X90998841Y-114510701D01*
X90997542Y-114548763D01*
X90997542Y-114548769D01*
X91000209Y-114560282D01*
X91003220Y-114581457D01*
X91453116Y-122769575D01*
X91437139Y-122837594D01*
X91386925Y-122886176D01*
X91318416Y-122899899D01*
X91285864Y-122892520D01*
X90965384Y-122772656D01*
X90960801Y-122770838D01*
X90067132Y-122395454D01*
X90062625Y-122393454D01*
X89184654Y-121982869D01*
X89180230Y-121980692D01*
X88319246Y-121535511D01*
X88314912Y-121533160D01*
X87472274Y-121054080D01*
X87468037Y-121051558D01*
X86645138Y-120539374D01*
X86641005Y-120536686D01*
X85839129Y-119992199D01*
X85835105Y-119989348D01*
X85221121Y-119535757D01*
X85055498Y-119413400D01*
X85051594Y-119410394D01*
X84295500Y-118803908D01*
X84291726Y-118800755D01*
X83664303Y-118255102D01*
X83560345Y-118164692D01*
X83556699Y-118161392D01*
X82851175Y-117496745D01*
X82851145Y-117496716D01*
X82847662Y-117493302D01*
X82169116Y-116801125D01*
X82165749Y-116797551D01*
X82165735Y-116797536D01*
X81515268Y-116078961D01*
X81512034Y-116075242D01*
X80890643Y-115331364D01*
X80887557Y-115327517D01*
X80787932Y-115198128D01*
X80296215Y-114559504D01*
X80293296Y-114555551D01*
X79732970Y-113764657D01*
X79730207Y-113760588D01*
X79730189Y-113760561D01*
X79201764Y-112948035D01*
X79199158Y-112943849D01*
X78703427Y-112110916D01*
X78700990Y-112106629D01*
X78238787Y-111254681D01*
X78236522Y-111250302D01*
X78092743Y-110958137D01*
X77808511Y-110380565D01*
X77806451Y-110376158D01*
X77413398Y-109490187D01*
X77411488Y-109485641D01*
X77356984Y-109348300D01*
X77053938Y-108584668D01*
X77052231Y-108580103D01*
X76730790Y-107665647D01*
X76729265Y-107661019D01*
X76444414Y-106734443D01*
X76443078Y-106729767D01*
X76257249Y-106026935D01*
X76195315Y-105792692D01*
X76194149Y-105787901D01*
X76175063Y-105702032D01*
X75983830Y-104841684D01*
X75982869Y-104836918D01*
X75810330Y-103883062D01*
X75809553Y-103878216D01*
X75809430Y-103877335D01*
X75675078Y-102918310D01*
X75674498Y-102913466D01*
X75578283Y-101948863D01*
X75577899Y-101944036D01*
X75520111Y-100976414D01*
X75519918Y-100971580D01*
X75500647Y-100002464D01*
X75500647Y-99997534D01*
X75501905Y-99934266D01*
X75519918Y-99028416D01*
X75520111Y-99023586D01*
X75577899Y-98055958D01*
X75578283Y-98051139D01*
X75674498Y-97086527D01*
X75675078Y-97081694D01*
X75809557Y-96121751D01*
X75810330Y-96116936D01*
X75982871Y-95163070D01*
X75983828Y-95158324D01*
X76194151Y-94212086D01*
X76195315Y-94207306D01*
X76271684Y-93918469D01*
X76443082Y-93270217D01*
X76444410Y-93265568D01*
X76729269Y-92338964D01*
X76730784Y-92334366D01*
X77052237Y-91419878D01*
X77053931Y-91415347D01*
X77411495Y-90514340D01*
X77413398Y-90509811D01*
X77491136Y-90334584D01*
X77806459Y-89623821D01*
X77808502Y-89619451D01*
X78236528Y-88749683D01*
X78238787Y-88745317D01*
X78701002Y-87893347D01*
X78703414Y-87889103D01*
X79199167Y-87056134D01*
X79201764Y-87051963D01*
X79730230Y-86239375D01*
X79732959Y-86235358D01*
X80293313Y-85444423D01*
X80296197Y-85440518D01*
X80887576Y-84672456D01*
X80890623Y-84668658D01*
X81512057Y-83924729D01*
X81515246Y-83921062D01*
X82165781Y-83202412D01*
X82169097Y-83198892D01*
X82847687Y-82506671D01*
X82851119Y-82503306D01*
X83556735Y-81838573D01*
X83560317Y-81835330D01*
X84291764Y-81199210D01*
X84295470Y-81196114D01*
X85051627Y-80589577D01*
X85055466Y-80586622D01*
X85835144Y-80010622D01*
X85839089Y-80007826D01*
X86641024Y-79463299D01*
X86645118Y-79460636D01*
X87468053Y-78948430D01*
X87472257Y-78945927D01*
X88314933Y-78466826D01*
X88319237Y-78464492D01*
X89180263Y-78019289D01*
X89184621Y-78017145D01*
X90062661Y-77606527D01*
X90067096Y-77604559D01*
X90960791Y-77229163D01*
X90965349Y-77227354D01*
X91873250Y-76887789D01*
X91877805Y-76886189D01*
X92798503Y-76582981D01*
X92803192Y-76581539D01*
X93735224Y-76315175D01*
X93739894Y-76313940D01*
X94681791Y-76084837D01*
X94686530Y-76083784D01*
X95636757Y-75892315D01*
X95641529Y-75891452D01*
X96598643Y-75737908D01*
X96603481Y-75737231D01*
X97565920Y-75621862D01*
X97570779Y-75621378D01*
X98537013Y-75544367D01*
X98541929Y-75544074D01*
X99510442Y-75505540D01*
X99515372Y-75505442D01*
X100484628Y-75505442D01*
X100489558Y-75505540D01*
G37*
%TD.AperFunction*%
%TD*%
M02*
