%TF.GenerationSoftware,KiCad,Pcbnew,8.0.8*%
%TF.CreationDate,2025-02-15T12:26:12-06:00*%
%TF.ProjectId,internal,696e7465-726e-4616-9c2e-6b696361645f,rev?*%
%TF.SameCoordinates,Original*%
%TF.FileFunction,Legend,Top*%
%TF.FilePolarity,Positive*%
%FSLAX46Y46*%
G04 Gerber Fmt 4.6, Leading zero omitted, Abs format (unit mm)*
G04 Created by KiCad (PCBNEW 8.0.8) date 2025-02-15 12:26:12*
%MOMM*%
%LPD*%
G01*
G04 APERTURE LIST*
%ADD10C,0.100000*%
%ADD11C,0.120000*%
%ADD12C,3.500000*%
%ADD13O,6.200000X5.200000*%
%ADD14C,1.600000*%
%ADD15C,2.000000*%
G04 APERTURE END LIST*
D10*
X105380951Y-147457419D02*
X105380951Y-148171704D01*
X105380951Y-148171704D02*
X105333332Y-148314561D01*
X105333332Y-148314561D02*
X105238094Y-148409800D01*
X105238094Y-148409800D02*
X105095237Y-148457419D01*
X105095237Y-148457419D02*
X104999999Y-148457419D01*
X106333332Y-148457419D02*
X105857142Y-148457419D01*
X105857142Y-148457419D02*
X105857142Y-147457419D01*
X107238094Y-148362180D02*
X107190475Y-148409800D01*
X107190475Y-148409800D02*
X107047618Y-148457419D01*
X107047618Y-148457419D02*
X106952380Y-148457419D01*
X106952380Y-148457419D02*
X106809523Y-148409800D01*
X106809523Y-148409800D02*
X106714285Y-148314561D01*
X106714285Y-148314561D02*
X106666666Y-148219323D01*
X106666666Y-148219323D02*
X106619047Y-148028847D01*
X106619047Y-148028847D02*
X106619047Y-147885990D01*
X106619047Y-147885990D02*
X106666666Y-147695514D01*
X106666666Y-147695514D02*
X106714285Y-147600276D01*
X106714285Y-147600276D02*
X106809523Y-147505038D01*
X106809523Y-147505038D02*
X106952380Y-147457419D01*
X106952380Y-147457419D02*
X107047618Y-147457419D01*
X107047618Y-147457419D02*
X107190475Y-147505038D01*
X107190475Y-147505038D02*
X107238094Y-147552657D01*
X107952380Y-147457419D02*
X107952380Y-148171704D01*
X107952380Y-148171704D02*
X107904761Y-148314561D01*
X107904761Y-148314561D02*
X107809523Y-148409800D01*
X107809523Y-148409800D02*
X107666666Y-148457419D01*
X107666666Y-148457419D02*
X107571428Y-148457419D01*
X108904761Y-148457419D02*
X108428571Y-148457419D01*
X108428571Y-148457419D02*
X108428571Y-147457419D01*
X109809523Y-148362180D02*
X109761904Y-148409800D01*
X109761904Y-148409800D02*
X109619047Y-148457419D01*
X109619047Y-148457419D02*
X109523809Y-148457419D01*
X109523809Y-148457419D02*
X109380952Y-148409800D01*
X109380952Y-148409800D02*
X109285714Y-148314561D01*
X109285714Y-148314561D02*
X109238095Y-148219323D01*
X109238095Y-148219323D02*
X109190476Y-148028847D01*
X109190476Y-148028847D02*
X109190476Y-147885990D01*
X109190476Y-147885990D02*
X109238095Y-147695514D01*
X109238095Y-147695514D02*
X109285714Y-147600276D01*
X109285714Y-147600276D02*
X109380952Y-147505038D01*
X109380952Y-147505038D02*
X109523809Y-147457419D01*
X109523809Y-147457419D02*
X109619047Y-147457419D01*
X109619047Y-147457419D02*
X109761904Y-147505038D01*
X109761904Y-147505038D02*
X109809523Y-147552657D01*
X110523809Y-147457419D02*
X110523809Y-148171704D01*
X110523809Y-148171704D02*
X110476190Y-148314561D01*
X110476190Y-148314561D02*
X110380952Y-148409800D01*
X110380952Y-148409800D02*
X110238095Y-148457419D01*
X110238095Y-148457419D02*
X110142857Y-148457419D01*
X111476190Y-148457419D02*
X111000000Y-148457419D01*
X111000000Y-148457419D02*
X111000000Y-147457419D01*
X112380952Y-148362180D02*
X112333333Y-148409800D01*
X112333333Y-148409800D02*
X112190476Y-148457419D01*
X112190476Y-148457419D02*
X112095238Y-148457419D01*
X112095238Y-148457419D02*
X111952381Y-148409800D01*
X111952381Y-148409800D02*
X111857143Y-148314561D01*
X111857143Y-148314561D02*
X111809524Y-148219323D01*
X111809524Y-148219323D02*
X111761905Y-148028847D01*
X111761905Y-148028847D02*
X111761905Y-147885990D01*
X111761905Y-147885990D02*
X111809524Y-147695514D01*
X111809524Y-147695514D02*
X111857143Y-147600276D01*
X111857143Y-147600276D02*
X111952381Y-147505038D01*
X111952381Y-147505038D02*
X112095238Y-147457419D01*
X112095238Y-147457419D02*
X112190476Y-147457419D01*
X112190476Y-147457419D02*
X112333333Y-147505038D01*
X112333333Y-147505038D02*
X112380952Y-147552657D01*
X113095238Y-147457419D02*
X113095238Y-148171704D01*
X113095238Y-148171704D02*
X113047619Y-148314561D01*
X113047619Y-148314561D02*
X112952381Y-148409800D01*
X112952381Y-148409800D02*
X112809524Y-148457419D01*
X112809524Y-148457419D02*
X112714286Y-148457419D01*
X114047619Y-148457419D02*
X113571429Y-148457419D01*
X113571429Y-148457419D02*
X113571429Y-147457419D01*
X114952381Y-148362180D02*
X114904762Y-148409800D01*
X114904762Y-148409800D02*
X114761905Y-148457419D01*
X114761905Y-148457419D02*
X114666667Y-148457419D01*
X114666667Y-148457419D02*
X114523810Y-148409800D01*
X114523810Y-148409800D02*
X114428572Y-148314561D01*
X114428572Y-148314561D02*
X114380953Y-148219323D01*
X114380953Y-148219323D02*
X114333334Y-148028847D01*
X114333334Y-148028847D02*
X114333334Y-147885990D01*
X114333334Y-147885990D02*
X114380953Y-147695514D01*
X114380953Y-147695514D02*
X114428572Y-147600276D01*
X114428572Y-147600276D02*
X114523810Y-147505038D01*
X114523810Y-147505038D02*
X114666667Y-147457419D01*
X114666667Y-147457419D02*
X114761905Y-147457419D01*
X114761905Y-147457419D02*
X114904762Y-147505038D01*
X114904762Y-147505038D02*
X114952381Y-147552657D01*
D11*
%TO.C,clearance-D12*%
X122713000Y-142134000D02*
G75*
G02*
X120513000Y-142134000I-1100000J0D01*
G01*
X120513000Y-142134000D02*
G75*
G02*
X122713000Y-142134000I1100000J0D01*
G01*
%TO.C,clearance-U1*%
X100600000Y-148000000D02*
G75*
G02*
X98400000Y-148000000I-1100000J0D01*
G01*
X98400000Y-148000000D02*
G75*
G02*
X100600000Y-148000000I1100000J0D01*
G01*
%TO.C,clearance-R5*%
X105093908Y-135215884D02*
G75*
G02*
X102893908Y-135215884I-1100000J0D01*
G01*
X102893908Y-135215884D02*
G75*
G02*
X105093908Y-135215884I1100000J0D01*
G01*
%TO.C,clearance-R1*%
X89600000Y-164784115D02*
G75*
G02*
X87400000Y-164784115I-1100000J0D01*
G01*
X87400000Y-164784115D02*
G75*
G02*
X89600000Y-164784115I1100000J0D01*
G01*
%TO.C,clearance-R7*%
X118719023Y-150000000D02*
G75*
G02*
X116519023Y-150000000I-1100000J0D01*
G01*
X116519023Y-150000000D02*
G75*
G02*
X118719023Y-150000000I1100000J0D01*
G01*
%TO.C,clearance-R8*%
X112600000Y-164784115D02*
G75*
G02*
X110400000Y-164784115I-1100000J0D01*
G01*
X110400000Y-164784115D02*
G75*
G02*
X112600000Y-164784115I1100000J0D01*
G01*
%TO.C,clearance-R4*%
X97106092Y-135215884D02*
G75*
G02*
X94906092Y-135215884I-1100000J0D01*
G01*
X94906092Y-135215884D02*
G75*
G02*
X97106092Y-135215884I1100000J0D01*
G01*
%TO.C,through-i2*%
X96196000Y-152170000D02*
G75*
G02*
X93796000Y-152170000I-1200000J0D01*
G01*
X93796000Y-152170000D02*
G75*
G02*
X96196000Y-152170000I1200000J0D01*
G01*
%TO.C,clearance-R6*%
X112600000Y-135215884D02*
G75*
G02*
X110400000Y-135215884I-1100000J0D01*
G01*
X110400000Y-135215884D02*
G75*
G02*
X112600000Y-135215884I1100000J0D01*
G01*
%TO.C,clearance-D4*%
X78100000Y-150000000D02*
G75*
G02*
X75900000Y-150000000I-1100000J0D01*
G01*
X75900000Y-150000000D02*
G75*
G02*
X78100000Y-150000000I1100000J0D01*
G01*
%TO.C,through-i4*%
X97495038Y-154420000D02*
G75*
G02*
X95095038Y-154420000I-1200000J0D01*
G01*
X95095038Y-154420000D02*
G75*
G02*
X97495038Y-154420000I1200000J0D01*
G01*
%TO.C,clearance-D7*%
X89600000Y-130081000D02*
G75*
G02*
X87400000Y-130081000I-1100000J0D01*
G01*
X87400000Y-130081000D02*
G75*
G02*
X89600000Y-130081000I1100000J0D01*
G01*
%TO.C,through-i5*%
X96196000Y-155170000D02*
G75*
G02*
X93796000Y-155170000I-1200000J0D01*
G01*
X93796000Y-155170000D02*
G75*
G02*
X96196000Y-155170000I1200000J0D01*
G01*
%TO.C,clearance-D13*%
X124100000Y-150000000D02*
G75*
G02*
X121900000Y-150000000I-1100000J0D01*
G01*
X121900000Y-150000000D02*
G75*
G02*
X124100000Y-150000000I1100000J0D01*
G01*
%TO.C,clearance-D1*%
X89600000Y-169919000D02*
G75*
G02*
X87400000Y-169919000I-1100000J0D01*
G01*
X87400000Y-169919000D02*
G75*
G02*
X89600000Y-169919000I1100000J0D01*
G01*
%TO.C,clearance-D5*%
X79487100Y-142134000D02*
G75*
G02*
X77287100Y-142134000I-1100000J0D01*
G01*
X77287100Y-142134000D02*
G75*
G02*
X79487100Y-142134000I1100000J0D01*
G01*
%TO.C,clearance-D9*%
X105094000Y-127349000D02*
G75*
G02*
X102894000Y-127349000I-1100000J0D01*
G01*
X102894000Y-127349000D02*
G75*
G02*
X105094000Y-127349000I1100000J0D01*
G01*
%TO.C,through-i3*%
X97495038Y-152920000D02*
G75*
G02*
X95095038Y-152920000I-1200000J0D01*
G01*
X95095038Y-152920000D02*
G75*
G02*
X97495038Y-152920000I1200000J0D01*
G01*
%TO.C,clearance-D2*%
X83481000Y-164784000D02*
G75*
G02*
X81281000Y-164784000I-1100000J0D01*
G01*
X81281000Y-164784000D02*
G75*
G02*
X83481000Y-164784000I1100000J0D01*
G01*
%TO.C,through-i7*%
X94896961Y-152920000D02*
G75*
G02*
X92496961Y-152920000I-1200000J0D01*
G01*
X92496961Y-152920000D02*
G75*
G02*
X94896961Y-152920000I1200000J0D01*
G01*
%TO.C,clearance-D6*%
X83481000Y-135216000D02*
G75*
G02*
X81281000Y-135216000I-1100000J0D01*
G01*
X81281000Y-135216000D02*
G75*
G02*
X83481000Y-135216000I1100000J0D01*
G01*
%TO.C,clearance-D16*%
X112600000Y-169919000D02*
G75*
G02*
X110400000Y-169919000I-1100000J0D01*
G01*
X110400000Y-169919000D02*
G75*
G02*
X112600000Y-169919000I1100000J0D01*
G01*
%TO.C,clearance-D11*%
X118719000Y-135216000D02*
G75*
G02*
X116519000Y-135216000I-1100000J0D01*
G01*
X116519000Y-135216000D02*
G75*
G02*
X118719000Y-135216000I1100000J0D01*
G01*
%TO.C,through-i1*%
X96196000Y-153670000D02*
G75*
G02*
X93796000Y-153670000I-1200000J0D01*
G01*
X93796000Y-153670000D02*
G75*
G02*
X96196000Y-153670000I1200000J0D01*
G01*
%TO.C,clearance-D10*%
X112600000Y-130081000D02*
G75*
G02*
X110400000Y-130081000I-1100000J0D01*
G01*
X110400000Y-130081000D02*
G75*
G02*
X112600000Y-130081000I1100000J0D01*
G01*
%TO.C,clearance-R2*%
X83480977Y-150000000D02*
G75*
G02*
X81280977Y-150000000I-1100000J0D01*
G01*
X81280977Y-150000000D02*
G75*
G02*
X83480977Y-150000000I1100000J0D01*
G01*
%TO.C,clearance-D15*%
X118719000Y-164784000D02*
G75*
G02*
X116519000Y-164784000I-1100000J0D01*
G01*
X116519000Y-164784000D02*
G75*
G02*
X118719000Y-164784000I1100000J0D01*
G01*
%TO.C,clearance-D3*%
X79487100Y-157866000D02*
G75*
G02*
X77287100Y-157866000I-1100000J0D01*
G01*
X77287100Y-157866000D02*
G75*
G02*
X79487100Y-157866000I1100000J0D01*
G01*
%TO.C,through-i6*%
X94896961Y-154420000D02*
G75*
G02*
X92496961Y-154420000I-1200000J0D01*
G01*
X92496961Y-154420000D02*
G75*
G02*
X94896961Y-154420000I1200000J0D01*
G01*
%TO.C,clearance-D14*%
X122713000Y-157866000D02*
G75*
G02*
X120513000Y-157866000I-1100000J0D01*
G01*
X120513000Y-157866000D02*
G75*
G02*
X122713000Y-157866000I1100000J0D01*
G01*
%TO.C,clearance-D8*%
X97106100Y-127349000D02*
G75*
G02*
X94906100Y-127349000I-1100000J0D01*
G01*
X94906100Y-127349000D02*
G75*
G02*
X97106100Y-127349000I1100000J0D01*
G01*
%TO.C,clearance-R3*%
X89600000Y-135215884D02*
G75*
G02*
X87400000Y-135215884I-1100000J0D01*
G01*
X87400000Y-135215884D02*
G75*
G02*
X89600000Y-135215884I1100000J0D01*
G01*
%TD*%
%LPC*%
D12*
%TO.C,clearance-D12*%
X121613000Y-142134000D03*
%TD*%
D13*
%TO.C,clearance-U1*%
X99500000Y-148000000D03*
%TD*%
D14*
%TO.C,align-ir1*%
X77800000Y-152400000D03*
%TD*%
D12*
%TO.C,clearance-R5*%
X103993908Y-135215884D03*
%TD*%
%TO.C,clearance-R1*%
X88500000Y-164784115D03*
%TD*%
%TO.C,clearance-R7*%
X117619023Y-150000000D03*
%TD*%
%TO.C,clearance-R8*%
X111500000Y-164784115D03*
%TD*%
%TO.C,clearance-R4*%
X96006092Y-135215884D03*
%TD*%
D15*
%TO.C,through-i2*%
X94996000Y-152170000D03*
%TD*%
D12*
%TO.C,clearance-R6*%
X111500000Y-135215884D03*
%TD*%
%TO.C,clearance-D4*%
X77000000Y-150000000D03*
%TD*%
D15*
%TO.C,through-i4*%
X96295038Y-154420000D03*
%TD*%
D12*
%TO.C,clearance-D7*%
X88500000Y-130081000D03*
%TD*%
D15*
%TO.C,through-i5*%
X94996000Y-155170000D03*
%TD*%
D12*
%TO.C,clearance-D13*%
X123000000Y-150000000D03*
%TD*%
D14*
%TO.C,align-io2*%
X122200000Y-152400000D03*
%TD*%
D12*
%TO.C,clearance-D1*%
X88500000Y-169919000D03*
%TD*%
%TO.C,clearance-D5*%
X78387100Y-142134000D03*
%TD*%
%TO.C,clearance-D9*%
X103994000Y-127349000D03*
%TD*%
D15*
%TO.C,through-i3*%
X96295038Y-152920000D03*
%TD*%
D12*
%TO.C,clearance-D2*%
X82381000Y-164784000D03*
%TD*%
D15*
%TO.C,through-i7*%
X93696961Y-152920000D03*
%TD*%
D12*
%TO.C,clearance-D6*%
X82381000Y-135216000D03*
%TD*%
%TO.C,clearance-D16*%
X111500000Y-169919000D03*
%TD*%
%TO.C,clearance-D11*%
X117619000Y-135216000D03*
%TD*%
D15*
%TO.C,through-i1*%
X94996000Y-153670000D03*
%TD*%
D12*
%TO.C,clearance-D10*%
X111500000Y-130081000D03*
%TD*%
%TO.C,clearance-R2*%
X82380977Y-150000000D03*
%TD*%
%TO.C,clearance-D15*%
X117619000Y-164784000D03*
%TD*%
%TO.C,clearance-D3*%
X78387100Y-157866000D03*
%TD*%
D15*
%TO.C,through-i6*%
X93696961Y-154420000D03*
%TD*%
D12*
%TO.C,clearance-D14*%
X121613000Y-157866000D03*
%TD*%
%TO.C,clearance-D8*%
X96006100Y-127349000D03*
%TD*%
D14*
%TO.C,align-io1*%
X77800000Y-147300000D03*
%TD*%
%TO.C,align-ir2*%
X122200000Y-147300000D03*
%TD*%
D12*
%TO.C,clearance-R3*%
X88500000Y-135215884D03*
%TD*%
%LPD*%
M02*
