%TF.GenerationSoftware,KiCad,Pcbnew,8.0.8*%
%TF.CreationDate,2025-02-15T12:26:12-06:00*%
%TF.ProjectId,internal,696e7465-726e-4616-9c2e-6b696361645f,rev?*%
%TF.SameCoordinates,Original*%
%TF.FileFunction,Soldermask,Bot*%
%TF.FilePolarity,Negative*%
%FSLAX46Y46*%
G04 Gerber Fmt 4.6, Leading zero omitted, Abs format (unit mm)*
G04 Created by KiCad (PCBNEW 8.0.8) date 2025-02-15 12:26:12*
%MOMM*%
%LPD*%
G01*
G04 APERTURE LIST*
%ADD10C,3.500000*%
%ADD11O,6.200000X5.200000*%
%ADD12C,1.600000*%
%ADD13C,2.000000*%
%ADD14C,4.000000*%
G04 APERTURE END LIST*
D10*
%TO.C,clearance-D12*%
X121613000Y-142134000D03*
%TD*%
D11*
%TO.C,clearance-U1*%
X99500000Y-148000000D03*
%TD*%
D12*
%TO.C,align-ir1*%
X77800000Y-152400000D03*
%TD*%
D10*
%TO.C,clearance-R5*%
X103993908Y-135215884D03*
%TD*%
%TO.C,clearance-R1*%
X88500000Y-164784115D03*
%TD*%
%TO.C,clearance-R7*%
X117619023Y-150000000D03*
%TD*%
%TO.C,clearance-R8*%
X111500000Y-164784115D03*
%TD*%
%TO.C,clearance-R4*%
X96006092Y-135215884D03*
%TD*%
D13*
%TO.C,through-i2*%
X94996000Y-152170000D03*
%TD*%
D10*
%TO.C,clearance-R6*%
X111500000Y-135215884D03*
%TD*%
%TO.C,clearance-D4*%
X77000000Y-150000000D03*
%TD*%
D13*
%TO.C,through-i4*%
X96295038Y-154420000D03*
%TD*%
D10*
%TO.C,clearance-D7*%
X88500000Y-130081000D03*
%TD*%
D13*
%TO.C,through-i5*%
X94996000Y-155170000D03*
%TD*%
D10*
%TO.C,clearance-D13*%
X123000000Y-150000000D03*
%TD*%
D12*
%TO.C,align-io2*%
X122200000Y-152400000D03*
%TD*%
D10*
%TO.C,clearance-D1*%
X88500000Y-169919000D03*
%TD*%
%TO.C,clearance-D5*%
X78387100Y-142134000D03*
%TD*%
%TO.C,clearance-D9*%
X103994000Y-127349000D03*
%TD*%
D13*
%TO.C,through-i3*%
X96295038Y-152920000D03*
%TD*%
D10*
%TO.C,clearance-D2*%
X82381000Y-164784000D03*
%TD*%
D13*
%TO.C,through-i7*%
X93696961Y-152920000D03*
%TD*%
D10*
%TO.C,clearance-D6*%
X82381000Y-135216000D03*
%TD*%
%TO.C,clearance-D16*%
X111500000Y-169919000D03*
%TD*%
%TO.C,clearance-D11*%
X117619000Y-135216000D03*
%TD*%
D13*
%TO.C,through-i1*%
X94996000Y-153670000D03*
%TD*%
D10*
%TO.C,clearance-D10*%
X111500000Y-130081000D03*
%TD*%
%TO.C,clearance-R2*%
X82380977Y-150000000D03*
%TD*%
%TO.C,clearance-D15*%
X117619000Y-164784000D03*
%TD*%
%TO.C,clearance-D3*%
X78387100Y-157866000D03*
%TD*%
D13*
%TO.C,through-i6*%
X93696961Y-154420000D03*
%TD*%
D10*
%TO.C,clearance-D14*%
X121613000Y-157866000D03*
%TD*%
%TO.C,clearance-D8*%
X96006100Y-127349000D03*
%TD*%
D12*
%TO.C,align-io1*%
X77800000Y-147300000D03*
%TD*%
%TO.C,align-ir2*%
X122200000Y-147300000D03*
%TD*%
D10*
%TO.C,clearance-R3*%
X88500000Y-135215884D03*
%TD*%
D14*
%TO.C,contact-i1*%
X94958000Y-142202000D03*
%TD*%
D13*
%TO.C,stitch2*%
X114948000Y-168110000D03*
%TD*%
%TO.C,stitch2*%
X100038000Y-126454000D03*
%TD*%
%TO.C,stitch2*%
X122822000Y-155156000D03*
%TD*%
%TO.C,stitch2*%
X85306000Y-131788000D03*
%TD*%
%TO.C,stitch2*%
X114694000Y-131788000D03*
%TD*%
%TO.C,stitch2*%
X91910000Y-127978000D03*
%TD*%
%TO.C,stitch2*%
X123076000Y-145758000D03*
%TD*%
%TO.C,stitch2*%
X76924000Y-145758000D03*
%TD*%
%TO.C,stitch2*%
X108090000Y-127978000D03*
%TD*%
%TO.C,stitch2*%
X77178000Y-155156000D03*
%TD*%
%TO.C,stitch2*%
X85052000Y-168110000D03*
%TD*%
M02*
