%TF.GenerationSoftware,KiCad,Pcbnew,9.0.0*%
%TF.CreationDate,2025-02-26T13:30:56-06:00*%
%TF.ProjectId,internal,696e7465-726e-4616-9c2e-6b696361645f,rev?*%
%TF.SameCoordinates,Original*%
%TF.FileFunction,Legend,Bot*%
%TF.FilePolarity,Positive*%
%FSLAX46Y46*%
G04 Gerber Fmt 4.6, Leading zero omitted, Abs format (unit mm)*
G04 Created by KiCad (PCBNEW 9.0.0) date 2025-02-26 13:30:56*
%MOMM*%
%LPD*%
G01*
G04 APERTURE LIST*
%ADD10C,0.120000*%
%ADD11C,3.500000*%
%ADD12O,6.200000X5.200000*%
%ADD13C,1.600000*%
%ADD14C,2.000000*%
%ADD15C,4.000000*%
G04 APERTURE END LIST*
D10*
%TO.C,contact-i1*%
X97208000Y-92202000D02*
G75*
G02*
X92708000Y-92202000I-2250000J0D01*
G01*
X92708000Y-92202000D02*
G75*
G02*
X97208000Y-92202000I2250000J0D01*
G01*
%TO.C,stitch2*%
X116148000Y-118110000D02*
G75*
G02*
X113748000Y-118110000I-1200000J0D01*
G01*
X113748000Y-118110000D02*
G75*
G02*
X116148000Y-118110000I1200000J0D01*
G01*
X101238000Y-76454000D02*
G75*
G02*
X98838000Y-76454000I-1200000J0D01*
G01*
X98838000Y-76454000D02*
G75*
G02*
X101238000Y-76454000I1200000J0D01*
G01*
X124022000Y-105156000D02*
G75*
G02*
X121622000Y-105156000I-1200000J0D01*
G01*
X121622000Y-105156000D02*
G75*
G02*
X124022000Y-105156000I1200000J0D01*
G01*
X86506000Y-81788000D02*
G75*
G02*
X84106000Y-81788000I-1200000J0D01*
G01*
X84106000Y-81788000D02*
G75*
G02*
X86506000Y-81788000I1200000J0D01*
G01*
X115894000Y-81788000D02*
G75*
G02*
X113494000Y-81788000I-1200000J0D01*
G01*
X113494000Y-81788000D02*
G75*
G02*
X115894000Y-81788000I1200000J0D01*
G01*
X93110000Y-77978000D02*
G75*
G02*
X90710000Y-77978000I-1200000J0D01*
G01*
X90710000Y-77978000D02*
G75*
G02*
X93110000Y-77978000I1200000J0D01*
G01*
X124276000Y-95758000D02*
G75*
G02*
X121876000Y-95758000I-1200000J0D01*
G01*
X121876000Y-95758000D02*
G75*
G02*
X124276000Y-95758000I1200000J0D01*
G01*
X78124000Y-95758000D02*
G75*
G02*
X75724000Y-95758000I-1200000J0D01*
G01*
X75724000Y-95758000D02*
G75*
G02*
X78124000Y-95758000I1200000J0D01*
G01*
X109290000Y-77978000D02*
G75*
G02*
X106890000Y-77978000I-1200000J0D01*
G01*
X106890000Y-77978000D02*
G75*
G02*
X109290000Y-77978000I1200000J0D01*
G01*
X78378000Y-105156000D02*
G75*
G02*
X75978000Y-105156000I-1200000J0D01*
G01*
X75978000Y-105156000D02*
G75*
G02*
X78378000Y-105156000I1200000J0D01*
G01*
X86252000Y-118110000D02*
G75*
G02*
X83852000Y-118110000I-1200000J0D01*
G01*
X83852000Y-118110000D02*
G75*
G02*
X86252000Y-118110000I1200000J0D01*
G01*
%TD*%
%LPC*%
D11*
%TO.C,clearance-D12*%
X121613000Y-92134000D03*
%TD*%
D12*
%TO.C,clearance-U1*%
X99500000Y-98000000D03*
%TD*%
D13*
%TO.C,align-ir1*%
X77800000Y-102400000D03*
%TD*%
D11*
%TO.C,clearance-R5*%
X103993908Y-85215884D03*
%TD*%
%TO.C,clearance-R1*%
X88500000Y-114784115D03*
%TD*%
%TO.C,clearance-R7*%
X117619023Y-100000000D03*
%TD*%
%TO.C,clearance-R8*%
X111500000Y-114784115D03*
%TD*%
%TO.C,clearance-R4*%
X96006092Y-85215884D03*
%TD*%
D14*
%TO.C,through-i2*%
X94996000Y-102170000D03*
%TD*%
D11*
%TO.C,clearance-R6*%
X111500000Y-85215884D03*
%TD*%
%TO.C,clearance-D4*%
X77000000Y-100000000D03*
%TD*%
D14*
%TO.C,through-i4*%
X96295038Y-104420000D03*
%TD*%
D11*
%TO.C,clearance-D7*%
X88500000Y-80081000D03*
%TD*%
D14*
%TO.C,through-i5*%
X94996000Y-105170000D03*
%TD*%
D11*
%TO.C,clearance-D13*%
X123000000Y-100000000D03*
%TD*%
D13*
%TO.C,align-io2*%
X122200000Y-102400000D03*
%TD*%
D11*
%TO.C,clearance-D1*%
X88500000Y-119919000D03*
%TD*%
%TO.C,clearance-D5*%
X78387100Y-92134000D03*
%TD*%
%TO.C,clearance-D9*%
X103994000Y-77349000D03*
%TD*%
D14*
%TO.C,through-i3*%
X96295038Y-102920000D03*
%TD*%
D11*
%TO.C,clearance-D2*%
X82381000Y-114784000D03*
%TD*%
D14*
%TO.C,through-i7*%
X93696961Y-102920000D03*
%TD*%
D11*
%TO.C,clearance-D6*%
X82381000Y-85216000D03*
%TD*%
%TO.C,clearance-D16*%
X111500000Y-119919000D03*
%TD*%
%TO.C,clearance-D11*%
X117619000Y-85216000D03*
%TD*%
D14*
%TO.C,through-i1*%
X94996000Y-103670000D03*
%TD*%
D11*
%TO.C,clearance-D10*%
X111500000Y-80081000D03*
%TD*%
%TO.C,clearance-R2*%
X82380977Y-100000000D03*
%TD*%
%TO.C,clearance-D15*%
X117619000Y-114784000D03*
%TD*%
%TO.C,clearance-D3*%
X78387100Y-107866000D03*
%TD*%
D14*
%TO.C,through-i6*%
X93696961Y-104420000D03*
%TD*%
D11*
%TO.C,clearance-D14*%
X121613000Y-107866000D03*
%TD*%
%TO.C,clearance-D8*%
X96006100Y-77349000D03*
%TD*%
D13*
%TO.C,align-io1*%
X77800000Y-97300000D03*
%TD*%
%TO.C,align-ir2*%
X122200000Y-97300000D03*
%TD*%
D11*
%TO.C,clearance-R3*%
X88500000Y-85215884D03*
%TD*%
D15*
%TO.C,contact-i1*%
X94958000Y-92202000D03*
%TD*%
D14*
%TO.C,stitch2*%
X114948000Y-118110000D03*
%TD*%
%TO.C,stitch2*%
X100038000Y-76454000D03*
%TD*%
%TO.C,stitch2*%
X122822000Y-105156000D03*
%TD*%
%TO.C,stitch2*%
X85306000Y-81788000D03*
%TD*%
%TO.C,stitch2*%
X114694000Y-81788000D03*
%TD*%
%TO.C,stitch2*%
X91910000Y-77978000D03*
%TD*%
%TO.C,stitch2*%
X123076000Y-95758000D03*
%TD*%
%TO.C,stitch2*%
X76924000Y-95758000D03*
%TD*%
%TO.C,stitch2*%
X108090000Y-77978000D03*
%TD*%
%TO.C,stitch2*%
X77178000Y-105156000D03*
%TD*%
%TO.C,stitch2*%
X85052000Y-118110000D03*
%TD*%
%LPD*%
M02*
