%TF.GenerationSoftware,KiCad,Pcbnew,8.0.8*%
%TF.CreationDate,2025-02-15T12:26:11-06:00*%
%TF.ProjectId,internal,696e7465-726e-4616-9c2e-6b696361645f,rev?*%
%TF.SameCoordinates,Original*%
%TF.FileFunction,Copper,L1,Top*%
%TF.FilePolarity,Positive*%
%FSLAX46Y46*%
G04 Gerber Fmt 4.6, Leading zero omitted, Abs format (unit mm)*
G04 Created by KiCad (PCBNEW 8.0.8) date 2025-02-15 12:26:11*
%MOMM*%
%LPD*%
G01*
G04 APERTURE LIST*
%TA.AperFunction,ComponentPad*%
%ADD10C,3.500000*%
%TD*%
%TA.AperFunction,ComponentPad*%
%ADD11O,6.200000X5.200000*%
%TD*%
%TA.AperFunction,ComponentPad*%
%ADD12C,1.600000*%
%TD*%
%TA.AperFunction,ComponentPad*%
%ADD13C,2.000000*%
%TD*%
G04 APERTURE END LIST*
D10*
%TO.P,clearance-D12,1*%
%TO.N,GND*%
X121613000Y-142134000D03*
%TD*%
D11*
%TO.P,clearance-U1,1*%
%TO.N,GND*%
X99500000Y-148000000D03*
%TD*%
D12*
%TO.P,align-ir1,1*%
%TO.N,GND*%
X77800000Y-152400000D03*
%TD*%
D10*
%TO.P,clearance-R5,1*%
%TO.N,GND*%
X103993908Y-135215884D03*
%TD*%
%TO.P,clearance-R1,1*%
%TO.N,GND*%
X88500000Y-164784115D03*
%TD*%
%TO.P,clearance-R7,1*%
%TO.N,GND*%
X117619023Y-150000000D03*
%TD*%
%TO.P,clearance-R8,1*%
%TO.N,GND*%
X111500000Y-164784115D03*
%TD*%
%TO.P,clearance-R4,1*%
%TO.N,GND*%
X96006092Y-135215884D03*
%TD*%
D13*
%TO.P,through-i2,1*%
%TO.N,+3V0*%
X94996000Y-152170000D03*
%TD*%
D10*
%TO.P,clearance-R6,1*%
%TO.N,GND*%
X111500000Y-135215884D03*
%TD*%
%TO.P,clearance-D4,1*%
%TO.N,GND*%
X77000000Y-150000000D03*
%TD*%
D13*
%TO.P,through-i4,1*%
%TO.N,+3V0*%
X96295038Y-154420000D03*
%TD*%
D10*
%TO.P,clearance-D7,1*%
%TO.N,GND*%
X88500000Y-130081000D03*
%TD*%
D13*
%TO.P,through-i5,1*%
%TO.N,+3V0*%
X94996000Y-155170000D03*
%TD*%
D10*
%TO.P,clearance-D13,1*%
%TO.N,GND*%
X123000000Y-150000000D03*
%TD*%
D12*
%TO.P,align-io2,1*%
%TO.N,GND*%
X122200000Y-152400000D03*
%TD*%
D10*
%TO.P,clearance-D1,1*%
%TO.N,GND*%
X88500000Y-169919000D03*
%TD*%
%TO.P,clearance-D5,1*%
%TO.N,GND*%
X78387100Y-142134000D03*
%TD*%
%TO.P,clearance-D9,1*%
%TO.N,GND*%
X103994000Y-127349000D03*
%TD*%
D13*
%TO.P,through-i3,1*%
%TO.N,+3V0*%
X96295038Y-152920000D03*
%TD*%
D10*
%TO.P,clearance-D2,1*%
%TO.N,GND*%
X82381000Y-164784000D03*
%TD*%
D13*
%TO.P,through-i7,1*%
%TO.N,+3V0*%
X93696961Y-152920000D03*
%TD*%
D10*
%TO.P,clearance-D6,1*%
%TO.N,GND*%
X82381000Y-135216000D03*
%TD*%
%TO.P,clearance-D16,1*%
%TO.N,GND*%
X111500000Y-169919000D03*
%TD*%
%TO.P,clearance-D11,1*%
%TO.N,GND*%
X117619000Y-135216000D03*
%TD*%
D13*
%TO.P,through-i1,1*%
%TO.N,+3V0*%
X94996000Y-153670000D03*
%TD*%
D10*
%TO.P,clearance-D10,1*%
%TO.N,GND*%
X111500000Y-130081000D03*
%TD*%
%TO.P,clearance-R2,1*%
%TO.N,GND*%
X82380977Y-150000000D03*
%TD*%
%TO.P,clearance-D15,1*%
%TO.N,GND*%
X117619000Y-164784000D03*
%TD*%
%TO.P,clearance-D3,1*%
%TO.N,GND*%
X78387100Y-157866000D03*
%TD*%
D13*
%TO.P,through-i6,1*%
%TO.N,+3V0*%
X93696961Y-154420000D03*
%TD*%
D10*
%TO.P,clearance-D14,1*%
%TO.N,GND*%
X121613000Y-157866000D03*
%TD*%
%TO.P,clearance-D8,1*%
%TO.N,GND*%
X96006100Y-127349000D03*
%TD*%
D12*
%TO.P,align-io1,1*%
%TO.N,GND*%
X77800000Y-147300000D03*
%TD*%
%TO.P,align-ir2,1*%
%TO.N,GND*%
X122200000Y-147300000D03*
%TD*%
D10*
%TO.P,clearance-R3,1*%
%TO.N,GND*%
X88500000Y-135215884D03*
%TD*%
%TA.AperFunction,Conductor*%
%TO.N,GND*%
G36*
X100489558Y-125505540D02*
G01*
X101458068Y-125544074D01*
X101462990Y-125544368D01*
X102429214Y-125621377D01*
X102434083Y-125621863D01*
X103396512Y-125737230D01*
X103401364Y-125737909D01*
X104358442Y-125891446D01*
X104363232Y-125892313D01*
X105313457Y-126083782D01*
X105318217Y-126084840D01*
X106260086Y-126313935D01*
X106264782Y-126315176D01*
X107155647Y-126569776D01*
X107196774Y-126581530D01*
X107201490Y-126582979D01*
X108122170Y-126886180D01*
X108126757Y-126887792D01*
X108810628Y-127143568D01*
X109034645Y-127227353D01*
X109039228Y-127229172D01*
X109932884Y-127604551D01*
X109937355Y-127606536D01*
X110596066Y-127914583D01*
X110815361Y-128017137D01*
X110819785Y-128019314D01*
X111680760Y-128464492D01*
X111685094Y-128466843D01*
X112527742Y-128945928D01*
X112531979Y-128948450D01*
X113354847Y-129460616D01*
X113358980Y-129463304D01*
X114160897Y-130007819D01*
X114164890Y-130010648D01*
X114944486Y-130586587D01*
X114948393Y-130589595D01*
X115704477Y-131196074D01*
X115708261Y-131199235D01*
X116439631Y-131835287D01*
X116443287Y-131838596D01*
X117148822Y-132503253D01*
X117152343Y-132506705D01*
X117830882Y-133198873D01*
X117834262Y-133202462D01*
X118484705Y-133921009D01*
X118487941Y-133924729D01*
X119109355Y-134668634D01*
X119112441Y-134672481D01*
X119703776Y-135440486D01*
X119706706Y-135444452D01*
X120267039Y-136235358D01*
X120269808Y-136239437D01*
X120798234Y-137051963D01*
X120800840Y-137056149D01*
X121296565Y-137889073D01*
X121299002Y-137893359D01*
X121761213Y-138745319D01*
X121763478Y-138749699D01*
X122191473Y-139619404D01*
X122193561Y-139623871D01*
X122586600Y-140509811D01*
X122588510Y-140514357D01*
X122946053Y-141415311D01*
X122947780Y-141419929D01*
X123269201Y-142334329D01*
X123270744Y-142339013D01*
X123555572Y-143265517D01*
X123556926Y-143270257D01*
X123804684Y-144207310D01*
X123805850Y-144212102D01*
X124016161Y-145158281D01*
X124017135Y-145163114D01*
X124189668Y-146116936D01*
X124190449Y-146121805D01*
X124324916Y-147081660D01*
X124325503Y-147086556D01*
X124421711Y-148051091D01*
X124422102Y-148056006D01*
X124479885Y-149023538D01*
X124480081Y-149028465D01*
X124499351Y-149997534D01*
X124499351Y-150002464D01*
X124480081Y-150971533D01*
X124479885Y-150976460D01*
X124422102Y-151943992D01*
X124421711Y-151948907D01*
X124325503Y-152913442D01*
X124324916Y-152918338D01*
X124190449Y-153878193D01*
X124189668Y-153883062D01*
X124017135Y-154836884D01*
X124016161Y-154841717D01*
X123805850Y-155787896D01*
X123804684Y-155792688D01*
X123556926Y-156729741D01*
X123555572Y-156734481D01*
X123270744Y-157660985D01*
X123269201Y-157665669D01*
X122947780Y-158580069D01*
X122946053Y-158584687D01*
X122588510Y-159485641D01*
X122586600Y-159490187D01*
X122193561Y-160376127D01*
X122191473Y-160380594D01*
X121763478Y-161250299D01*
X121761213Y-161254679D01*
X121299002Y-162106639D01*
X121296565Y-162110925D01*
X120800840Y-162943849D01*
X120798234Y-162948035D01*
X120269808Y-163760561D01*
X120267039Y-163764640D01*
X119706706Y-164555546D01*
X119703776Y-164559512D01*
X119112441Y-165327517D01*
X119109355Y-165331364D01*
X118487941Y-166075269D01*
X118484705Y-166078989D01*
X117834262Y-166797536D01*
X117830882Y-166801125D01*
X117152343Y-167493293D01*
X117148822Y-167496745D01*
X116443287Y-168161402D01*
X116439631Y-168164711D01*
X115708261Y-168800763D01*
X115704477Y-168803924D01*
X114948393Y-169410403D01*
X114944486Y-169413411D01*
X114164905Y-169989339D01*
X114160881Y-169992190D01*
X113358980Y-170536694D01*
X113354847Y-170539382D01*
X112531979Y-171051548D01*
X112527742Y-171054070D01*
X111685094Y-171533155D01*
X111680760Y-171535506D01*
X110819785Y-171980684D01*
X110815361Y-171982861D01*
X109937373Y-172393454D01*
X109932866Y-172395454D01*
X109039228Y-172770826D01*
X109034645Y-172772644D01*
X108714134Y-172892519D01*
X108644447Y-172897567D01*
X108583093Y-172864138D01*
X108549553Y-172802845D01*
X108546882Y-172769574D01*
X108564878Y-172442042D01*
X108996779Y-164581452D01*
X108999790Y-164560282D01*
X109002458Y-164548766D01*
X109001157Y-164510696D01*
X109001272Y-164499672D01*
X109003361Y-164461666D01*
X109000936Y-164450115D01*
X108998361Y-164428866D01*
X108982461Y-163963413D01*
X108983961Y-163939513D01*
X108984799Y-163934302D01*
X108980242Y-163889976D01*
X108979665Y-163881541D01*
X108978144Y-163836998D01*
X108976603Y-163831944D01*
X108971861Y-163808457D01*
X108967359Y-163764667D01*
X108924903Y-163351682D01*
X108924769Y-163327730D01*
X108925249Y-163322476D01*
X108917677Y-163278563D01*
X108916525Y-163270177D01*
X108911969Y-163225854D01*
X108911968Y-163225852D01*
X108910087Y-163220917D01*
X108903754Y-163197811D01*
X108860330Y-162945958D01*
X108825734Y-162745309D01*
X108823964Y-162721421D01*
X108824085Y-162716141D01*
X108813531Y-162672835D01*
X108811813Y-162664563D01*
X108811052Y-162660147D01*
X108804242Y-162620650D01*
X108802029Y-162615857D01*
X108794132Y-162593234D01*
X108685416Y-162147115D01*
X108682019Y-162123399D01*
X108681779Y-162118123D01*
X108668300Y-162075656D01*
X108666014Y-162067499D01*
X108655465Y-162024208D01*
X108652932Y-162019581D01*
X108643512Y-161997554D01*
X108504601Y-161559881D01*
X108499594Y-161536451D01*
X108498995Y-161531214D01*
X108498995Y-161531210D01*
X108489829Y-161507968D01*
X108482648Y-161489755D01*
X108479813Y-161481780D01*
X108479813Y-161481779D01*
X108466334Y-161439310D01*
X108463479Y-161434847D01*
X108452585Y-161413522D01*
X108284135Y-160986365D01*
X108277541Y-160963337D01*
X108276584Y-160958140D01*
X108257451Y-160917909D01*
X108254078Y-160910144D01*
X108237726Y-160868680D01*
X108234581Y-160864433D01*
X108222251Y-160843894D01*
X108025045Y-160429230D01*
X108016894Y-160406702D01*
X108015585Y-160401583D01*
X108003784Y-160380595D01*
X107993739Y-160362729D01*
X107989850Y-160355224D01*
X107970713Y-160314985D01*
X107967288Y-160310965D01*
X107953585Y-160291317D01*
X107728533Y-159891060D01*
X107718865Y-159869142D01*
X107717213Y-159864134D01*
X107692764Y-159826859D01*
X107688385Y-159819659D01*
X107666537Y-159780801D01*
X107662844Y-159777023D01*
X107647832Y-159758355D01*
X107471940Y-159490187D01*
X107395992Y-159374395D01*
X107384851Y-159353188D01*
X107382859Y-159348300D01*
X107355933Y-159312793D01*
X107351051Y-159305877D01*
X107326613Y-159268618D01*
X107326612Y-159268617D01*
X107322669Y-159265099D01*
X107306420Y-159247500D01*
X107068041Y-158933150D01*
X107028968Y-158881624D01*
X107016405Y-158861226D01*
X107014085Y-158856488D01*
X107014084Y-158856487D01*
X107014084Y-158856486D01*
X106984799Y-158822900D01*
X106979457Y-158816333D01*
X106952535Y-158780831D01*
X106952531Y-158780827D01*
X106948353Y-158777583D01*
X106930940Y-158761133D01*
X106629176Y-158415055D01*
X106615245Y-158395556D01*
X106612606Y-158390985D01*
X106612606Y-158390984D01*
X106612605Y-158390983D01*
X106612604Y-158390981D01*
X106581102Y-158359480D01*
X106575322Y-158353291D01*
X106546037Y-158319706D01*
X106546036Y-158319705D01*
X106546035Y-158319704D01*
X106541643Y-158316751D01*
X106523153Y-158301531D01*
X106198468Y-157976846D01*
X106183243Y-157958348D01*
X106180297Y-157953966D01*
X106180294Y-157953963D01*
X106146697Y-157924668D01*
X106140524Y-157918902D01*
X106109017Y-157887394D01*
X106109015Y-157887392D01*
X106104433Y-157884747D01*
X106084946Y-157870824D01*
X105738861Y-157569053D01*
X105722410Y-157551638D01*
X105719171Y-157547467D01*
X105719172Y-157547467D01*
X105683671Y-157520546D01*
X105677104Y-157515203D01*
X105643521Y-157485920D01*
X105643519Y-157485919D01*
X105643517Y-157485918D01*
X105643515Y-157485916D01*
X105638760Y-157483587D01*
X105618374Y-157471030D01*
X105252498Y-157193577D01*
X105234899Y-157177328D01*
X105231382Y-157173386D01*
X105194122Y-157148947D01*
X105187207Y-157144066D01*
X105151702Y-157117142D01*
X105151700Y-157117141D01*
X105146804Y-157115145D01*
X105125600Y-157104004D01*
X104741644Y-156852166D01*
X104722975Y-156837154D01*
X104719200Y-156833464D01*
X104719199Y-156833463D01*
X104680370Y-156811630D01*
X104673147Y-156807238D01*
X104635867Y-156782787D01*
X104630841Y-156781128D01*
X104608931Y-156771462D01*
X104208684Y-156546415D01*
X104189034Y-156532711D01*
X104185015Y-156529286D01*
X104144760Y-156510141D01*
X104137253Y-156506251D01*
X104098418Y-156484415D01*
X104098414Y-156484414D01*
X104093300Y-156483106D01*
X104070773Y-156474955D01*
X103656102Y-156277746D01*
X103635567Y-156265419D01*
X103631316Y-156262271D01*
X103631312Y-156262269D01*
X103589861Y-156245923D01*
X103582096Y-156242551D01*
X103541860Y-156223416D01*
X103541861Y-156223416D01*
X103539670Y-156223012D01*
X103536665Y-156222459D01*
X103513640Y-156215865D01*
X103086471Y-156047411D01*
X103065139Y-156036512D01*
X103063371Y-156035381D01*
X103060690Y-156033666D01*
X103018214Y-156020185D01*
X103010238Y-156017350D01*
X102968793Y-156001006D01*
X102968791Y-156001005D01*
X102968790Y-156001005D01*
X102968789Y-156001004D01*
X102968786Y-156001004D01*
X102963544Y-156000405D01*
X102940117Y-155995398D01*
X102869055Y-155972844D01*
X102706591Y-155921280D01*
X102571431Y-155878382D01*
X102513488Y-155839339D01*
X102485851Y-155775168D01*
X102485259Y-155769039D01*
X102485259Y-155769038D01*
X102481519Y-155716754D01*
X102481345Y-155702032D01*
X102482711Y-155673367D01*
X102478197Y-155652621D01*
X102475681Y-155635117D01*
X102474167Y-155613941D01*
X102464783Y-155586829D01*
X102460796Y-155572629D01*
X102455102Y-155546456D01*
X102415955Y-155366499D01*
X102413684Y-155351929D01*
X102410956Y-155323370D01*
X102410956Y-155323366D01*
X102403537Y-155303475D01*
X102398554Y-155286505D01*
X102394042Y-155265760D01*
X102394042Y-155265759D01*
X102380894Y-155240257D01*
X102374926Y-155226768D01*
X102301203Y-155029111D01*
X102296889Y-155015037D01*
X102290121Y-154987138D01*
X102290119Y-154987135D01*
X102290119Y-154987133D01*
X102279946Y-154968503D01*
X102272597Y-154952411D01*
X102265180Y-154932527D01*
X102265180Y-154932526D01*
X102248534Y-154909149D01*
X102240712Y-154896652D01*
X102139610Y-154711497D01*
X102133333Y-154698175D01*
X102122665Y-154671528D01*
X102109943Y-154654535D01*
X102100377Y-154639648D01*
X102090208Y-154621024D01*
X102090205Y-154621019D01*
X102070408Y-154600258D01*
X102060882Y-154588996D01*
X101934461Y-154420117D01*
X101926341Y-154407807D01*
X101912000Y-154382968D01*
X101911996Y-154382963D01*
X101896992Y-154367959D01*
X101885404Y-154354586D01*
X101872682Y-154337590D01*
X101850129Y-154319855D01*
X101839098Y-154310065D01*
X101689933Y-154160899D01*
X101680145Y-154149870D01*
X101662411Y-154127320D01*
X101662408Y-154127317D01*
X101645410Y-154114592D01*
X101632042Y-154103008D01*
X101617036Y-154088002D01*
X101617031Y-154087998D01*
X101592185Y-154073653D01*
X101579876Y-154065534D01*
X101411001Y-153939115D01*
X101399744Y-153929593D01*
X101378979Y-153909794D01*
X101378978Y-153909793D01*
X101378973Y-153909790D01*
X101360343Y-153899617D01*
X101345462Y-153890053D01*
X101328474Y-153877336D01*
X101328470Y-153877333D01*
X101301835Y-153866670D01*
X101288497Y-153860386D01*
X101103342Y-153759284D01*
X101090844Y-153751461D01*
X101067472Y-153734818D01*
X101047584Y-153727400D01*
X101031500Y-153720055D01*
X101012865Y-153709880D01*
X101012859Y-153709878D01*
X100984981Y-153703115D01*
X100970882Y-153698793D01*
X100970879Y-153698792D01*
X100893686Y-153670000D01*
X100773228Y-153625071D01*
X100759743Y-153619105D01*
X100734240Y-153605957D01*
X100713486Y-153601442D01*
X100696522Y-153596461D01*
X100676632Y-153589043D01*
X100676628Y-153589042D01*
X100648071Y-153586315D01*
X100633505Y-153584043D01*
X100427373Y-153539203D01*
X100413176Y-153535218D01*
X100386059Y-153525833D01*
X100364882Y-153524318D01*
X100347375Y-153521801D01*
X100332094Y-153518477D01*
X100326633Y-153517289D01*
X100326632Y-153517289D01*
X100297965Y-153518653D01*
X100283227Y-153518477D01*
X100072814Y-153503429D01*
X100058195Y-153501505D01*
X100041154Y-153498221D01*
X100030019Y-153496075D01*
X100030018Y-153496075D01*
X100030013Y-153496074D01*
X100008841Y-153497588D01*
X99991159Y-153497588D01*
X99969984Y-153496074D01*
X99941800Y-153501505D01*
X99927186Y-153503428D01*
X99716772Y-153518477D01*
X99702032Y-153518653D01*
X99674669Y-153517351D01*
X99673367Y-153517289D01*
X99673366Y-153517289D01*
X99652623Y-153521801D01*
X99635117Y-153524318D01*
X99613941Y-153525833D01*
X99613935Y-153525834D01*
X99586819Y-153535219D01*
X99572622Y-153539204D01*
X99366494Y-153584043D01*
X99351929Y-153586315D01*
X99323366Y-153589043D01*
X99303477Y-153596461D01*
X99286509Y-153601443D01*
X99265763Y-153605956D01*
X99265758Y-153605958D01*
X99240249Y-153619108D01*
X99226768Y-153625072D01*
X99029117Y-153698792D01*
X99015021Y-153703114D01*
X99002164Y-153706233D01*
X98987138Y-153709879D01*
X98968499Y-153720056D01*
X98952419Y-153727399D01*
X98932524Y-153734820D01*
X98909154Y-153751461D01*
X98896659Y-153759282D01*
X98711505Y-153860384D01*
X98698171Y-153866667D01*
X98671525Y-153877335D01*
X98671523Y-153877337D01*
X98654532Y-153890056D01*
X98639656Y-153899617D01*
X98621023Y-153909792D01*
X98621022Y-153909792D01*
X98600259Y-153929590D01*
X98589002Y-153939112D01*
X98420113Y-154065541D01*
X98407805Y-154073659D01*
X98382966Y-154088000D01*
X98382963Y-154088002D01*
X98367954Y-154103011D01*
X98354593Y-154114589D01*
X98337590Y-154127318D01*
X98319856Y-154149869D01*
X98310068Y-154160897D01*
X98160896Y-154310068D01*
X98149871Y-154319853D01*
X98127320Y-154337588D01*
X98127318Y-154337590D01*
X98114592Y-154354589D01*
X98103014Y-154367950D01*
X98088003Y-154382962D01*
X98088002Y-154382962D01*
X98073653Y-154407815D01*
X98065535Y-154420122D01*
X98022940Y-154477022D01*
X97967006Y-154518893D01*
X97897315Y-154523877D01*
X97835992Y-154490392D01*
X97802507Y-154429069D01*
X97800097Y-154412951D01*
X97780147Y-154172186D01*
X97780145Y-154172175D01*
X97719101Y-153931118D01*
X97626520Y-153720056D01*
X97626411Y-153719809D01*
X97617509Y-153650510D01*
X97626412Y-153620190D01*
X97640075Y-153589043D01*
X97719101Y-153408881D01*
X97780146Y-153167821D01*
X97780147Y-153167812D01*
X97800681Y-152920005D01*
X97800681Y-152919994D01*
X97780147Y-152672187D01*
X97780145Y-152672175D01*
X97719101Y-152431118D01*
X97619211Y-152203393D01*
X97483204Y-151995217D01*
X97451150Y-151960397D01*
X97314782Y-151812262D01*
X97118547Y-151659526D01*
X97118545Y-151659525D01*
X97118544Y-151659524D01*
X96899849Y-151541172D01*
X96899840Y-151541169D01*
X96664654Y-151460429D01*
X96419373Y-151419500D01*
X96365136Y-151419500D01*
X96298097Y-151399815D01*
X96261327Y-151363322D01*
X96184164Y-151245215D01*
X96015744Y-151062262D01*
X95819509Y-150909526D01*
X95819507Y-150909525D01*
X95819506Y-150909524D01*
X95600811Y-150791172D01*
X95600802Y-150791169D01*
X95365616Y-150710429D01*
X95120335Y-150669500D01*
X94871665Y-150669500D01*
X94626383Y-150710429D01*
X94391197Y-150791169D01*
X94391188Y-150791172D01*
X94172493Y-150909524D01*
X93976257Y-151062261D01*
X93807836Y-151245215D01*
X93730673Y-151363322D01*
X93677526Y-151408678D01*
X93626864Y-151419500D01*
X93572626Y-151419500D01*
X93327344Y-151460429D01*
X93092158Y-151541169D01*
X93092149Y-151541172D01*
X92873454Y-151659524D01*
X92677218Y-151812261D01*
X92508794Y-151995217D01*
X92372787Y-152203393D01*
X92272897Y-152431118D01*
X92211853Y-152672175D01*
X92211851Y-152672187D01*
X92191318Y-152919994D01*
X92191318Y-152920005D01*
X92211851Y-153167812D01*
X92211853Y-153167824D01*
X92272898Y-153408881D01*
X92365586Y-153620190D01*
X92374489Y-153689490D01*
X92365586Y-153719810D01*
X92272898Y-153931118D01*
X92211853Y-154172175D01*
X92211851Y-154172187D01*
X92191318Y-154419994D01*
X92191318Y-154420005D01*
X92211851Y-154667812D01*
X92211853Y-154667824D01*
X92272897Y-154908881D01*
X92372787Y-155136606D01*
X92508794Y-155344782D01*
X92522136Y-155359275D01*
X92677217Y-155527738D01*
X92873452Y-155680474D01*
X92873454Y-155680475D01*
X93076381Y-155790294D01*
X93092151Y-155798828D01*
X93249765Y-155852937D01*
X93324987Y-155878761D01*
X93327347Y-155879571D01*
X93572626Y-155920500D01*
X93626864Y-155920500D01*
X93693903Y-155940185D01*
X93730672Y-155976677D01*
X93807836Y-156094785D01*
X93976256Y-156277738D01*
X94172491Y-156430474D01*
X94172493Y-156430475D01*
X94355079Y-156529286D01*
X94391190Y-156548828D01*
X94626386Y-156629571D01*
X94871665Y-156670500D01*
X95120184Y-156670500D01*
X95187223Y-156690185D01*
X95232978Y-156742989D01*
X95242922Y-156812147D01*
X95213897Y-156875703D01*
X95188192Y-156898187D01*
X94874393Y-157104007D01*
X94853197Y-157115144D01*
X94848304Y-157117138D01*
X94848296Y-157117142D01*
X94812790Y-157144067D01*
X94805879Y-157148946D01*
X94768619Y-157173385D01*
X94768614Y-157173390D01*
X94765098Y-157177331D01*
X94747503Y-157193576D01*
X94381624Y-157471030D01*
X94361238Y-157483588D01*
X94356490Y-157485913D01*
X94356484Y-157485917D01*
X94322901Y-157515199D01*
X94316337Y-157520539D01*
X94280832Y-157547463D01*
X94280824Y-157547471D01*
X94277580Y-157551650D01*
X94261136Y-157569055D01*
X93915053Y-157870824D01*
X93895570Y-157884745D01*
X93890985Y-157887392D01*
X93890984Y-157887393D01*
X93859468Y-157918908D01*
X93853285Y-157924682D01*
X93819705Y-157953963D01*
X93819697Y-157953972D01*
X93816750Y-157958356D01*
X93801531Y-157976845D01*
X93476844Y-158301532D01*
X93458355Y-158316751D01*
X93453966Y-158319701D01*
X93453966Y-158319702D01*
X93424680Y-158353287D01*
X93418907Y-158359469D01*
X93387393Y-158390985D01*
X93387389Y-158390990D01*
X93384744Y-158395571D01*
X93370825Y-158415050D01*
X93069052Y-158761138D01*
X93051651Y-158777578D01*
X93047475Y-158780820D01*
X93047464Y-158780832D01*
X93020549Y-158816325D01*
X93015208Y-158822891D01*
X92985915Y-158856486D01*
X92985914Y-158856488D01*
X92983588Y-158861238D01*
X92971030Y-158881624D01*
X92693574Y-159247504D01*
X92677335Y-159265094D01*
X92673389Y-159268615D01*
X92673384Y-159268621D01*
X92648947Y-159305878D01*
X92644066Y-159312793D01*
X92617140Y-159348300D01*
X92617139Y-159348302D01*
X92615145Y-159353196D01*
X92604005Y-159374397D01*
X92352164Y-159758357D01*
X92337161Y-159777016D01*
X92333467Y-159780795D01*
X92333461Y-159780803D01*
X92311626Y-159819634D01*
X92307233Y-159826859D01*
X92282788Y-159864131D01*
X92282786Y-159864135D01*
X92281131Y-159869152D01*
X92271463Y-159891066D01*
X92046414Y-160291316D01*
X92032717Y-160310958D01*
X92029286Y-160314984D01*
X92029284Y-160314987D01*
X92010143Y-160355233D01*
X92006252Y-160362743D01*
X91984415Y-160401581D01*
X91984412Y-160401589D01*
X91983103Y-160406708D01*
X91974954Y-160429226D01*
X91777745Y-160843898D01*
X91765424Y-160864425D01*
X91762271Y-160868682D01*
X91762271Y-160868683D01*
X91745917Y-160910151D01*
X91742547Y-160917908D01*
X91723416Y-160958137D01*
X91723414Y-160958144D01*
X91722457Y-160963340D01*
X91715865Y-160986359D01*
X91547412Y-161413528D01*
X91536516Y-161434854D01*
X91533669Y-161439303D01*
X91533663Y-161439317D01*
X91520186Y-161481779D01*
X91517352Y-161489755D01*
X91501004Y-161531210D01*
X91500405Y-161536455D01*
X91495398Y-161559881D01*
X91356490Y-161997545D01*
X91347073Y-162019569D01*
X91344534Y-162024207D01*
X91333981Y-162067509D01*
X91331698Y-162075656D01*
X91318221Y-162118122D01*
X91318220Y-162118125D01*
X91317980Y-162123400D01*
X91314583Y-162147109D01*
X91205866Y-162593234D01*
X91197976Y-162615845D01*
X91195756Y-162620652D01*
X91188184Y-162664568D01*
X91186463Y-162672852D01*
X91175915Y-162716139D01*
X91175914Y-162716141D01*
X91176035Y-162721420D01*
X91174264Y-162745310D01*
X91096244Y-163197812D01*
X91089917Y-163220904D01*
X91088031Y-163225852D01*
X91083472Y-163270191D01*
X91082319Y-163278575D01*
X91074751Y-163322469D01*
X91074751Y-163322481D01*
X91075231Y-163327741D01*
X91075094Y-163351688D01*
X91028136Y-163808464D01*
X91023399Y-163831934D01*
X91021857Y-163836993D01*
X91021856Y-163836996D01*
X91020333Y-163881551D01*
X91019755Y-163889991D01*
X91015200Y-163934301D01*
X91015200Y-163934302D01*
X91016038Y-163939511D01*
X91017537Y-163963421D01*
X91001637Y-164428866D01*
X90999066Y-164450100D01*
X90996638Y-164461665D01*
X90996638Y-164461668D01*
X90998726Y-164499672D01*
X90998841Y-164510701D01*
X90997542Y-164548763D01*
X90997542Y-164548769D01*
X91000209Y-164560282D01*
X91003220Y-164581457D01*
X91453116Y-172769575D01*
X91437139Y-172837594D01*
X91386925Y-172886176D01*
X91318416Y-172899899D01*
X91285864Y-172892520D01*
X90965384Y-172772656D01*
X90960801Y-172770838D01*
X90067132Y-172395454D01*
X90062625Y-172393454D01*
X89184654Y-171982869D01*
X89180230Y-171980692D01*
X88319246Y-171535511D01*
X88314912Y-171533160D01*
X87472274Y-171054080D01*
X87468037Y-171051558D01*
X86645138Y-170539374D01*
X86641005Y-170536686D01*
X85839129Y-169992199D01*
X85835105Y-169989348D01*
X85221121Y-169535757D01*
X85055498Y-169413400D01*
X85051594Y-169410394D01*
X84295500Y-168803908D01*
X84291726Y-168800755D01*
X83664303Y-168255102D01*
X83560345Y-168164692D01*
X83556699Y-168161392D01*
X82851175Y-167496745D01*
X82851145Y-167496716D01*
X82847662Y-167493302D01*
X82169116Y-166801125D01*
X82165749Y-166797551D01*
X82165735Y-166797536D01*
X81515268Y-166078961D01*
X81512034Y-166075242D01*
X80890643Y-165331364D01*
X80887557Y-165327517D01*
X80787932Y-165198128D01*
X80296215Y-164559504D01*
X80293296Y-164555551D01*
X79732970Y-163764657D01*
X79730207Y-163760588D01*
X79730189Y-163760561D01*
X79201764Y-162948035D01*
X79199158Y-162943849D01*
X78703427Y-162110916D01*
X78700990Y-162106629D01*
X78238787Y-161254681D01*
X78236522Y-161250302D01*
X78095303Y-160963340D01*
X77808511Y-160380565D01*
X77806451Y-160376158D01*
X77413398Y-159490187D01*
X77411488Y-159485641D01*
X77342895Y-159312796D01*
X77053938Y-158584668D01*
X77052231Y-158580103D01*
X76730790Y-157665647D01*
X76729265Y-157661019D01*
X76444414Y-156734443D01*
X76443078Y-156729767D01*
X76257249Y-156026935D01*
X76195315Y-155792692D01*
X76194149Y-155787901D01*
X76175063Y-155702032D01*
X75983830Y-154841684D01*
X75982869Y-154836918D01*
X75810330Y-153883062D01*
X75809553Y-153878216D01*
X75809430Y-153877335D01*
X75675078Y-152918310D01*
X75674498Y-152913466D01*
X75578283Y-151948863D01*
X75577899Y-151944036D01*
X75520111Y-150976414D01*
X75519918Y-150971580D01*
X75500647Y-150002464D01*
X75500647Y-149997534D01*
X75501905Y-149934266D01*
X75519918Y-149028416D01*
X75520111Y-149023586D01*
X75577899Y-148055958D01*
X75578283Y-148051139D01*
X75674498Y-147086527D01*
X75675078Y-147081694D01*
X75809557Y-146121751D01*
X75810330Y-146116936D01*
X75982871Y-145163070D01*
X75983828Y-145158324D01*
X76194151Y-144212086D01*
X76195315Y-144207306D01*
X76271684Y-143918469D01*
X76443082Y-143270217D01*
X76444410Y-143265568D01*
X76729269Y-142338964D01*
X76730784Y-142334366D01*
X77052237Y-141419878D01*
X77053931Y-141415347D01*
X77411495Y-140514340D01*
X77413398Y-140509811D01*
X77806459Y-139623821D01*
X77808502Y-139619451D01*
X78236528Y-138749683D01*
X78238787Y-138745317D01*
X78701002Y-137893347D01*
X78703414Y-137889103D01*
X79199167Y-137056134D01*
X79201764Y-137051963D01*
X79730230Y-136239375D01*
X79732959Y-136235358D01*
X80293313Y-135444423D01*
X80296197Y-135440518D01*
X80887576Y-134672456D01*
X80890623Y-134668658D01*
X81512057Y-133924729D01*
X81515246Y-133921062D01*
X82165781Y-133202412D01*
X82169097Y-133198892D01*
X82847687Y-132506671D01*
X82851119Y-132503306D01*
X83556735Y-131838573D01*
X83560317Y-131835330D01*
X84291764Y-131199210D01*
X84295470Y-131196114D01*
X85051627Y-130589577D01*
X85055466Y-130586622D01*
X85835144Y-130010622D01*
X85839089Y-130007826D01*
X86641024Y-129463299D01*
X86645118Y-129460636D01*
X87468053Y-128948430D01*
X87472257Y-128945927D01*
X88314933Y-128466826D01*
X88319237Y-128464492D01*
X89180263Y-128019289D01*
X89184621Y-128017145D01*
X90062661Y-127606527D01*
X90067096Y-127604559D01*
X90960791Y-127229163D01*
X90965349Y-127227354D01*
X91873250Y-126887789D01*
X91877805Y-126886189D01*
X92798503Y-126582981D01*
X92803192Y-126581539D01*
X93735224Y-126315175D01*
X93739894Y-126313940D01*
X94681791Y-126084837D01*
X94686530Y-126083784D01*
X95636757Y-125892315D01*
X95641529Y-125891452D01*
X96598643Y-125737908D01*
X96603481Y-125737231D01*
X97565920Y-125621862D01*
X97570779Y-125621378D01*
X98537013Y-125544367D01*
X98541929Y-125544074D01*
X99510442Y-125505540D01*
X99515372Y-125505442D01*
X100484628Y-125505442D01*
X100489558Y-125505540D01*
G37*
%TD.AperFunction*%
%TD*%
M02*
