%TF.GenerationSoftware,KiCad,Pcbnew,8.0.7*%
%TF.CreationDate,2024-12-05T10:47:10-06:00*%
%TF.ProjectId,internal,696e7465-726e-4616-9c2e-6b696361645f,rev?*%
%TF.SameCoordinates,Original*%
%TF.FileFunction,Drillmap*%
%TF.FilePolarity,Positive*%
%FSLAX45Y45*%
G04 Gerber Fmt 4.5, Leading zero omitted, Abs format (unit mm)*
G04 Created by KiCad (PCBNEW 8.0.7) date 2024-12-05 10:47:10*
%MOMM*%
%LPD*%
G01*
G04 APERTURE LIST*
%ADD10C,0.050000*%
%ADD11C,0.200000*%
%ADD12C,0.100000*%
%ADD13C,0.150000*%
%ADD14C,0.450000*%
G04 APERTURE END LIST*
D10*
X10089730Y-3002014D02*
X10179279Y-3008051D01*
X10268467Y-3018100D01*
X10357114Y-3032141D01*
X10445042Y-3050144D01*
X10532074Y-3072074D01*
X10618034Y-3097887D01*
X10702750Y-3127530D01*
X10786050Y-3160944D01*
X10867768Y-3198062D01*
X10947737Y-3238809D01*
X11025799Y-3283102D01*
X11101794Y-3330853D01*
X11175571Y-3381966D01*
X11246980Y-3436337D01*
X11315877Y-3493857D01*
X11382125Y-3554410D01*
X11445590Y-3617875D01*
X11506143Y-3684122D01*
X11563663Y-3753020D01*
X11618034Y-3824429D01*
X11669146Y-3898206D01*
X11716898Y-3974201D01*
X11761191Y-4052263D01*
X11801938Y-4132232D01*
X11839055Y-4213950D01*
X11872470Y-4297250D01*
X11902113Y-4381966D01*
X11927926Y-4467926D01*
X11949856Y-4554958D01*
X11967859Y-4642886D01*
X11981899Y-4731534D01*
X11991949Y-4820721D01*
X11997986Y-4910270D01*
X12000000Y-5000000D01*
X11997986Y-5089730D01*
X11991949Y-5179279D01*
X11981899Y-5268467D01*
X11967859Y-5357114D01*
X11949856Y-5445042D01*
X11927926Y-5532074D01*
X11902113Y-5618034D01*
X11872470Y-5702750D01*
X11839055Y-5786050D01*
X11801938Y-5867767D01*
X11761191Y-5947737D01*
X11716898Y-6025799D01*
X11669146Y-6101794D01*
X11618034Y-6175570D01*
X11563663Y-6246980D01*
X11506143Y-6315877D01*
X11445590Y-6382125D01*
X11382125Y-6445590D01*
X11315877Y-6506143D01*
X11246980Y-6563663D01*
X11175571Y-6618034D01*
X11101794Y-6669146D01*
X11025799Y-6716898D01*
X10947737Y-6761191D01*
X10867768Y-6801938D01*
X10800000Y-6833000D01*
X10850000Y-6000000D01*
X10848019Y-5941994D01*
X10842083Y-5884258D01*
X10832222Y-5827062D01*
X10818480Y-5770673D01*
X10800922Y-5715352D01*
X10779630Y-5661359D01*
X10754702Y-5608945D01*
X10726257Y-5558354D01*
X10694424Y-5509822D01*
X10659355Y-5463575D01*
X10621211Y-5419830D01*
X10580170Y-5378789D01*
X10536425Y-5340645D01*
X10490178Y-5305576D01*
X10441646Y-5273744D01*
X10391055Y-5245298D01*
X10338641Y-5220370D01*
X10284648Y-5199078D01*
X10229327Y-5181520D01*
X10172938Y-5167779D01*
X10115742Y-5157917D01*
X10050000Y-5150000D01*
X10050000Y-5000000D01*
X10047975Y-4985913D01*
X10042063Y-4972968D01*
X10032743Y-4962213D01*
X10020771Y-4954518D01*
X10007116Y-4950509D01*
X9992884Y-4950509D01*
X9979229Y-4954518D01*
X9967257Y-4962213D01*
X9957937Y-4972968D01*
X9952025Y-4985913D01*
X9950000Y-5000000D01*
X9950000Y-5150000D01*
X9884258Y-5157917D01*
X9827062Y-5167779D01*
X9770673Y-5181520D01*
X9715352Y-5199078D01*
X9661359Y-5220370D01*
X9608945Y-5245298D01*
X9558354Y-5273744D01*
X9509822Y-5305576D01*
X9463575Y-5340645D01*
X9419830Y-5378789D01*
X9378789Y-5419830D01*
X9340645Y-5463575D01*
X9305576Y-5509822D01*
X9273744Y-5558354D01*
X9245298Y-5608945D01*
X9220370Y-5661359D01*
X9199078Y-5715352D01*
X9181520Y-5770673D01*
X9167779Y-5827062D01*
X9157917Y-5884258D01*
X9151982Y-5941994D01*
X9150000Y-6000000D01*
X9200000Y-6833000D01*
X9132233Y-6801938D01*
X9052263Y-6761191D01*
X8974201Y-6716898D01*
X8898206Y-6669146D01*
X8824430Y-6618034D01*
X8753020Y-6563663D01*
X8684123Y-6506143D01*
X8617875Y-6445590D01*
X8554410Y-6382125D01*
X8493857Y-6315877D01*
X8436337Y-6246980D01*
X8381966Y-6175570D01*
X8330853Y-6101794D01*
X8283102Y-6025799D01*
X8238809Y-5947737D01*
X8198062Y-5867767D01*
X8160944Y-5786050D01*
X8127530Y-5702750D01*
X8097887Y-5618034D01*
X8072074Y-5532074D01*
X8050144Y-5445042D01*
X8032141Y-5357114D01*
X8018100Y-5268467D01*
X8008051Y-5179279D01*
X8002014Y-5089730D01*
X8000000Y-5000000D01*
X8002014Y-4910270D01*
X8008051Y-4820721D01*
X8018100Y-4731534D01*
X8032141Y-4642886D01*
X8050144Y-4554958D01*
X8072074Y-4467926D01*
X8097887Y-4381966D01*
X8127530Y-4297250D01*
X8160944Y-4213950D01*
X8198062Y-4132232D01*
X8238809Y-4052263D01*
X8283102Y-3974201D01*
X8330853Y-3898206D01*
X8381966Y-3824429D01*
X8436337Y-3753020D01*
X8493857Y-3684122D01*
X8554410Y-3617875D01*
X8617875Y-3554410D01*
X8684123Y-3493857D01*
X8753020Y-3436337D01*
X8824430Y-3381966D01*
X8898206Y-3330853D01*
X8974201Y-3283102D01*
X9052263Y-3238809D01*
X9132233Y-3198062D01*
X9213950Y-3160944D01*
X9297250Y-3127530D01*
X9381966Y-3097887D01*
X9467926Y-3072074D01*
X9554958Y-3050144D01*
X9642886Y-3032141D01*
X9731534Y-3018100D01*
X9820721Y-3008051D01*
X9910270Y-3002014D01*
X10000000Y-3000000D01*
X10089730Y-3002014D01*
D11*
D12*
X9070096Y-4575000D02*
X9170096Y-4675000D01*
X9170096Y-4575000D02*
X9070096Y-4675000D01*
X9070096Y-4725000D02*
X9170096Y-4825000D01*
X9170096Y-4725000D02*
X9070096Y-4825000D01*
X9200000Y-4500000D02*
X9300000Y-4600000D01*
X9300000Y-4500000D02*
X9200000Y-4600000D01*
X9200000Y-4650000D02*
X9300000Y-4750000D01*
X9300000Y-4650000D02*
X9200000Y-4750000D01*
X9200000Y-4800000D02*
X9300000Y-4900000D01*
X9300000Y-4800000D02*
X9200000Y-4900000D01*
X9325000Y-3375000D02*
X9425000Y-3475000D01*
X9425000Y-3375000D02*
X9325000Y-3475000D01*
X9325000Y-3925000D02*
X9425000Y-4025000D01*
X9425000Y-3925000D02*
X9325000Y-4025000D01*
X9329904Y-4575000D02*
X9429904Y-4675000D01*
X9429904Y-4575000D02*
X9329904Y-4675000D01*
X9329904Y-4725000D02*
X9429904Y-4825000D01*
X9429904Y-4725000D02*
X9329904Y-4825000D01*
X9645000Y-4495000D02*
X9745000Y-4595000D01*
X9745000Y-4495000D02*
X9645000Y-4595000D01*
X9777500Y-4655000D02*
X9877500Y-4755000D01*
X9877500Y-4655000D02*
X9777500Y-4755000D01*
X10075000Y-3375000D02*
X10175000Y-3475000D01*
X10175000Y-3375000D02*
X10075000Y-3475000D01*
X10075000Y-3925000D02*
X10175000Y-4025000D01*
X10175000Y-3925000D02*
X10075000Y-4025000D01*
D13*
X8275000Y-5000000D02*
G75*
G02*
X8125000Y-5000000I-75000J0D01*
G01*
X8125000Y-5000000D02*
G75*
G02*
X8275000Y-5000000I75000J0D01*
G01*
X8516154Y-4100000D02*
G75*
G02*
X8366154Y-4100000I-75000J0D01*
G01*
X8366154Y-4100000D02*
G75*
G02*
X8516154Y-4100000I75000J0D01*
G01*
X8516154Y-5900000D02*
G75*
G02*
X8366154Y-5900000I-75000J0D01*
G01*
X8366154Y-5900000D02*
G75*
G02*
X8516154Y-5900000I75000J0D01*
G01*
X9125000Y-6558846D02*
G75*
G02*
X8975000Y-6558846I-75000J0D01*
G01*
X8975000Y-6558846D02*
G75*
G02*
X9125000Y-6558846I75000J0D01*
G01*
X9175000Y-3441154D02*
G75*
G02*
X9025000Y-3441154I-75000J0D01*
G01*
X9025000Y-3441154D02*
G75*
G02*
X9175000Y-3441154I75000J0D01*
G01*
X10975000Y-3441154D02*
G75*
G02*
X10825000Y-3441154I-75000J0D01*
G01*
X10825000Y-3441154D02*
G75*
G02*
X10975000Y-3441154I75000J0D01*
G01*
X11025000Y-6558846D02*
G75*
G02*
X10875000Y-6558846I-75000J0D01*
G01*
X10875000Y-6558846D02*
G75*
G02*
X11025000Y-6558846I75000J0D01*
G01*
X11633846Y-4100000D02*
G75*
G02*
X11483846Y-4100000I-75000J0D01*
G01*
X11483846Y-4100000D02*
G75*
G02*
X11633846Y-4100000I75000J0D01*
G01*
X11633846Y-5900000D02*
G75*
G02*
X11483846Y-5900000I-75000J0D01*
G01*
X11483846Y-5900000D02*
G75*
G02*
X11633846Y-5900000I75000J0D01*
G01*
X11875000Y-5000000D02*
G75*
G02*
X11725000Y-5000000I-75000J0D01*
G01*
X11725000Y-5000000D02*
G75*
G02*
X11875000Y-5000000I75000J0D01*
G01*
D14*
X10000000Y-4175000D02*
X10000000Y-4625000D01*
X9775000Y-4400000D02*
X10225000Y-4400000D01*
D11*
X8258277Y-7146984D02*
X8258277Y-6946984D01*
X8258277Y-6946984D02*
X8305896Y-6946984D01*
X8305896Y-6946984D02*
X8334467Y-6956508D01*
X8334467Y-6956508D02*
X8353515Y-6975555D01*
X8353515Y-6975555D02*
X8363039Y-6994603D01*
X8363039Y-6994603D02*
X8372562Y-7032698D01*
X8372562Y-7032698D02*
X8372562Y-7061269D01*
X8372562Y-7061269D02*
X8363039Y-7099365D01*
X8363039Y-7099365D02*
X8353515Y-7118412D01*
X8353515Y-7118412D02*
X8334467Y-7137460D01*
X8334467Y-7137460D02*
X8305896Y-7146984D01*
X8305896Y-7146984D02*
X8258277Y-7146984D01*
X8458277Y-7146984D02*
X8458277Y-7013650D01*
X8458277Y-7051746D02*
X8467801Y-7032698D01*
X8467801Y-7032698D02*
X8477324Y-7023174D01*
X8477324Y-7023174D02*
X8496372Y-7013650D01*
X8496372Y-7013650D02*
X8515420Y-7013650D01*
X8582086Y-7146984D02*
X8582086Y-7013650D01*
X8582086Y-6946984D02*
X8572563Y-6956508D01*
X8572563Y-6956508D02*
X8582086Y-6966031D01*
X8582086Y-6966031D02*
X8591610Y-6956508D01*
X8591610Y-6956508D02*
X8582086Y-6946984D01*
X8582086Y-6946984D02*
X8582086Y-6966031D01*
X8705896Y-7146984D02*
X8686848Y-7137460D01*
X8686848Y-7137460D02*
X8677324Y-7118412D01*
X8677324Y-7118412D02*
X8677324Y-6946984D01*
X8810658Y-7146984D02*
X8791610Y-7137460D01*
X8791610Y-7137460D02*
X8782086Y-7118412D01*
X8782086Y-7118412D02*
X8782086Y-6946984D01*
X9039229Y-7146984D02*
X9039229Y-6946984D01*
X9039229Y-6946984D02*
X9105896Y-7089841D01*
X9105896Y-7089841D02*
X9172563Y-6946984D01*
X9172563Y-6946984D02*
X9172563Y-7146984D01*
X9353515Y-7146984D02*
X9353515Y-7042222D01*
X9353515Y-7042222D02*
X9343991Y-7023174D01*
X9343991Y-7023174D02*
X9324944Y-7013650D01*
X9324944Y-7013650D02*
X9286848Y-7013650D01*
X9286848Y-7013650D02*
X9267801Y-7023174D01*
X9353515Y-7137460D02*
X9334467Y-7146984D01*
X9334467Y-7146984D02*
X9286848Y-7146984D01*
X9286848Y-7146984D02*
X9267801Y-7137460D01*
X9267801Y-7137460D02*
X9258277Y-7118412D01*
X9258277Y-7118412D02*
X9258277Y-7099365D01*
X9258277Y-7099365D02*
X9267801Y-7080317D01*
X9267801Y-7080317D02*
X9286848Y-7070793D01*
X9286848Y-7070793D02*
X9334467Y-7070793D01*
X9334467Y-7070793D02*
X9353515Y-7061269D01*
X9448753Y-7013650D02*
X9448753Y-7213650D01*
X9448753Y-7023174D02*
X9467801Y-7013650D01*
X9467801Y-7013650D02*
X9505896Y-7013650D01*
X9505896Y-7013650D02*
X9524944Y-7023174D01*
X9524944Y-7023174D02*
X9534467Y-7032698D01*
X9534467Y-7032698D02*
X9543991Y-7051746D01*
X9543991Y-7051746D02*
X9543991Y-7108888D01*
X9543991Y-7108888D02*
X9534467Y-7127936D01*
X9534467Y-7127936D02*
X9524944Y-7137460D01*
X9524944Y-7137460D02*
X9505896Y-7146984D01*
X9505896Y-7146984D02*
X9467801Y-7146984D01*
X9467801Y-7146984D02*
X9448753Y-7137460D01*
X9629705Y-7127936D02*
X9639229Y-7137460D01*
X9639229Y-7137460D02*
X9629705Y-7146984D01*
X9629705Y-7146984D02*
X9620182Y-7137460D01*
X9620182Y-7137460D02*
X9629705Y-7127936D01*
X9629705Y-7127936D02*
X9629705Y-7146984D01*
X9629705Y-7023174D02*
X9639229Y-7032698D01*
X9639229Y-7032698D02*
X9629705Y-7042222D01*
X9629705Y-7042222D02*
X9620182Y-7032698D01*
X9620182Y-7032698D02*
X9629705Y-7023174D01*
X9629705Y-7023174D02*
X9629705Y-7042222D01*
D12*
X7897500Y-7425500D02*
X7997500Y-7525500D01*
X7997500Y-7425500D02*
X7897500Y-7525500D01*
D11*
X8363039Y-7566984D02*
X8248753Y-7566984D01*
X8305896Y-7566984D02*
X8305896Y-7366984D01*
X8305896Y-7366984D02*
X8286848Y-7395555D01*
X8286848Y-7395555D02*
X8267801Y-7414603D01*
X8267801Y-7414603D02*
X8248753Y-7424127D01*
X8448753Y-7547936D02*
X8458277Y-7557460D01*
X8458277Y-7557460D02*
X8448753Y-7566984D01*
X8448753Y-7566984D02*
X8439229Y-7557460D01*
X8439229Y-7557460D02*
X8448753Y-7547936D01*
X8448753Y-7547936D02*
X8448753Y-7566984D01*
X8582086Y-7366984D02*
X8601134Y-7366984D01*
X8601134Y-7366984D02*
X8620182Y-7376508D01*
X8620182Y-7376508D02*
X8629705Y-7386031D01*
X8629705Y-7386031D02*
X8639229Y-7405079D01*
X8639229Y-7405079D02*
X8648753Y-7443174D01*
X8648753Y-7443174D02*
X8648753Y-7490793D01*
X8648753Y-7490793D02*
X8639229Y-7528888D01*
X8639229Y-7528888D02*
X8629705Y-7547936D01*
X8629705Y-7547936D02*
X8620182Y-7557460D01*
X8620182Y-7557460D02*
X8601134Y-7566984D01*
X8601134Y-7566984D02*
X8582086Y-7566984D01*
X8582086Y-7566984D02*
X8563039Y-7557460D01*
X8563039Y-7557460D02*
X8553515Y-7547936D01*
X8553515Y-7547936D02*
X8543991Y-7528888D01*
X8543991Y-7528888D02*
X8534467Y-7490793D01*
X8534467Y-7490793D02*
X8534467Y-7443174D01*
X8534467Y-7443174D02*
X8543991Y-7405079D01*
X8543991Y-7405079D02*
X8553515Y-7386031D01*
X8553515Y-7386031D02*
X8563039Y-7376508D01*
X8563039Y-7376508D02*
X8582086Y-7366984D01*
X8772563Y-7366984D02*
X8791610Y-7366984D01*
X8791610Y-7366984D02*
X8810658Y-7376508D01*
X8810658Y-7376508D02*
X8820182Y-7386031D01*
X8820182Y-7386031D02*
X8829705Y-7405079D01*
X8829705Y-7405079D02*
X8839229Y-7443174D01*
X8839229Y-7443174D02*
X8839229Y-7490793D01*
X8839229Y-7490793D02*
X8829705Y-7528888D01*
X8829705Y-7528888D02*
X8820182Y-7547936D01*
X8820182Y-7547936D02*
X8810658Y-7557460D01*
X8810658Y-7557460D02*
X8791610Y-7566984D01*
X8791610Y-7566984D02*
X8772563Y-7566984D01*
X8772563Y-7566984D02*
X8753515Y-7557460D01*
X8753515Y-7557460D02*
X8743991Y-7547936D01*
X8743991Y-7547936D02*
X8734467Y-7528888D01*
X8734467Y-7528888D02*
X8724944Y-7490793D01*
X8724944Y-7490793D02*
X8724944Y-7443174D01*
X8724944Y-7443174D02*
X8734467Y-7405079D01*
X8734467Y-7405079D02*
X8743991Y-7386031D01*
X8743991Y-7386031D02*
X8753515Y-7376508D01*
X8753515Y-7376508D02*
X8772563Y-7366984D01*
X8963039Y-7366984D02*
X8982086Y-7366984D01*
X8982086Y-7366984D02*
X9001134Y-7376508D01*
X9001134Y-7376508D02*
X9010658Y-7386031D01*
X9010658Y-7386031D02*
X9020182Y-7405079D01*
X9020182Y-7405079D02*
X9029705Y-7443174D01*
X9029705Y-7443174D02*
X9029705Y-7490793D01*
X9029705Y-7490793D02*
X9020182Y-7528888D01*
X9020182Y-7528888D02*
X9010658Y-7547936D01*
X9010658Y-7547936D02*
X9001134Y-7557460D01*
X9001134Y-7557460D02*
X8982086Y-7566984D01*
X8982086Y-7566984D02*
X8963039Y-7566984D01*
X8963039Y-7566984D02*
X8943991Y-7557460D01*
X8943991Y-7557460D02*
X8934467Y-7547936D01*
X8934467Y-7547936D02*
X8924944Y-7528888D01*
X8924944Y-7528888D02*
X8915420Y-7490793D01*
X8915420Y-7490793D02*
X8915420Y-7443174D01*
X8915420Y-7443174D02*
X8924944Y-7405079D01*
X8924944Y-7405079D02*
X8934467Y-7386031D01*
X8934467Y-7386031D02*
X8943991Y-7376508D01*
X8943991Y-7376508D02*
X8963039Y-7366984D01*
X9115420Y-7566984D02*
X9115420Y-7433650D01*
X9115420Y-7452698D02*
X9124944Y-7443174D01*
X9124944Y-7443174D02*
X9143991Y-7433650D01*
X9143991Y-7433650D02*
X9172563Y-7433650D01*
X9172563Y-7433650D02*
X9191610Y-7443174D01*
X9191610Y-7443174D02*
X9201134Y-7462222D01*
X9201134Y-7462222D02*
X9201134Y-7566984D01*
X9201134Y-7462222D02*
X9210658Y-7443174D01*
X9210658Y-7443174D02*
X9229705Y-7433650D01*
X9229705Y-7433650D02*
X9258277Y-7433650D01*
X9258277Y-7433650D02*
X9277325Y-7443174D01*
X9277325Y-7443174D02*
X9286848Y-7462222D01*
X9286848Y-7462222D02*
X9286848Y-7566984D01*
X9382086Y-7566984D02*
X9382086Y-7433650D01*
X9382086Y-7452698D02*
X9391610Y-7443174D01*
X9391610Y-7443174D02*
X9410658Y-7433650D01*
X9410658Y-7433650D02*
X9439229Y-7433650D01*
X9439229Y-7433650D02*
X9458277Y-7443174D01*
X9458277Y-7443174D02*
X9467801Y-7462222D01*
X9467801Y-7462222D02*
X9467801Y-7566984D01*
X9467801Y-7462222D02*
X9477325Y-7443174D01*
X9477325Y-7443174D02*
X9496372Y-7433650D01*
X9496372Y-7433650D02*
X9524944Y-7433650D01*
X9524944Y-7433650D02*
X9543991Y-7443174D01*
X9543991Y-7443174D02*
X9553515Y-7462222D01*
X9553515Y-7462222D02*
X9553515Y-7566984D01*
X9943991Y-7357460D02*
X9772563Y-7614603D01*
X10201134Y-7366984D02*
X10220182Y-7366984D01*
X10220182Y-7366984D02*
X10239229Y-7376508D01*
X10239229Y-7376508D02*
X10248753Y-7386031D01*
X10248753Y-7386031D02*
X10258277Y-7405079D01*
X10258277Y-7405079D02*
X10267801Y-7443174D01*
X10267801Y-7443174D02*
X10267801Y-7490793D01*
X10267801Y-7490793D02*
X10258277Y-7528888D01*
X10258277Y-7528888D02*
X10248753Y-7547936D01*
X10248753Y-7547936D02*
X10239229Y-7557460D01*
X10239229Y-7557460D02*
X10220182Y-7566984D01*
X10220182Y-7566984D02*
X10201134Y-7566984D01*
X10201134Y-7566984D02*
X10182087Y-7557460D01*
X10182087Y-7557460D02*
X10172563Y-7547936D01*
X10172563Y-7547936D02*
X10163039Y-7528888D01*
X10163039Y-7528888D02*
X10153515Y-7490793D01*
X10153515Y-7490793D02*
X10153515Y-7443174D01*
X10153515Y-7443174D02*
X10163039Y-7405079D01*
X10163039Y-7405079D02*
X10172563Y-7386031D01*
X10172563Y-7386031D02*
X10182087Y-7376508D01*
X10182087Y-7376508D02*
X10201134Y-7366984D01*
X10353515Y-7547936D02*
X10363039Y-7557460D01*
X10363039Y-7557460D02*
X10353515Y-7566984D01*
X10353515Y-7566984D02*
X10343991Y-7557460D01*
X10343991Y-7557460D02*
X10353515Y-7547936D01*
X10353515Y-7547936D02*
X10353515Y-7566984D01*
X10486848Y-7366984D02*
X10505896Y-7366984D01*
X10505896Y-7366984D02*
X10524944Y-7376508D01*
X10524944Y-7376508D02*
X10534468Y-7386031D01*
X10534468Y-7386031D02*
X10543991Y-7405079D01*
X10543991Y-7405079D02*
X10553515Y-7443174D01*
X10553515Y-7443174D02*
X10553515Y-7490793D01*
X10553515Y-7490793D02*
X10543991Y-7528888D01*
X10543991Y-7528888D02*
X10534468Y-7547936D01*
X10534468Y-7547936D02*
X10524944Y-7557460D01*
X10524944Y-7557460D02*
X10505896Y-7566984D01*
X10505896Y-7566984D02*
X10486848Y-7566984D01*
X10486848Y-7566984D02*
X10467801Y-7557460D01*
X10467801Y-7557460D02*
X10458277Y-7547936D01*
X10458277Y-7547936D02*
X10448753Y-7528888D01*
X10448753Y-7528888D02*
X10439229Y-7490793D01*
X10439229Y-7490793D02*
X10439229Y-7443174D01*
X10439229Y-7443174D02*
X10448753Y-7405079D01*
X10448753Y-7405079D02*
X10458277Y-7386031D01*
X10458277Y-7386031D02*
X10467801Y-7376508D01*
X10467801Y-7376508D02*
X10486848Y-7366984D01*
X10620182Y-7366984D02*
X10743991Y-7366984D01*
X10743991Y-7366984D02*
X10677325Y-7443174D01*
X10677325Y-7443174D02*
X10705896Y-7443174D01*
X10705896Y-7443174D02*
X10724944Y-7452698D01*
X10724944Y-7452698D02*
X10734468Y-7462222D01*
X10734468Y-7462222D02*
X10743991Y-7481269D01*
X10743991Y-7481269D02*
X10743991Y-7528888D01*
X10743991Y-7528888D02*
X10734468Y-7547936D01*
X10734468Y-7547936D02*
X10724944Y-7557460D01*
X10724944Y-7557460D02*
X10705896Y-7566984D01*
X10705896Y-7566984D02*
X10648753Y-7566984D01*
X10648753Y-7566984D02*
X10629706Y-7557460D01*
X10629706Y-7557460D02*
X10620182Y-7547936D01*
X10839229Y-7566984D02*
X10877325Y-7566984D01*
X10877325Y-7566984D02*
X10896372Y-7557460D01*
X10896372Y-7557460D02*
X10905896Y-7547936D01*
X10905896Y-7547936D02*
X10924944Y-7519365D01*
X10924944Y-7519365D02*
X10934468Y-7481269D01*
X10934468Y-7481269D02*
X10934468Y-7405079D01*
X10934468Y-7405079D02*
X10924944Y-7386031D01*
X10924944Y-7386031D02*
X10915420Y-7376508D01*
X10915420Y-7376508D02*
X10896372Y-7366984D01*
X10896372Y-7366984D02*
X10858277Y-7366984D01*
X10858277Y-7366984D02*
X10839229Y-7376508D01*
X10839229Y-7376508D02*
X10829706Y-7386031D01*
X10829706Y-7386031D02*
X10820182Y-7405079D01*
X10820182Y-7405079D02*
X10820182Y-7452698D01*
X10820182Y-7452698D02*
X10829706Y-7471746D01*
X10829706Y-7471746D02*
X10839229Y-7481269D01*
X10839229Y-7481269D02*
X10858277Y-7490793D01*
X10858277Y-7490793D02*
X10896372Y-7490793D01*
X10896372Y-7490793D02*
X10915420Y-7481269D01*
X10915420Y-7481269D02*
X10924944Y-7471746D01*
X10924944Y-7471746D02*
X10934468Y-7452698D01*
X11105896Y-7433650D02*
X11105896Y-7566984D01*
X11058277Y-7357460D02*
X11010658Y-7500317D01*
X11010658Y-7500317D02*
X11134468Y-7500317D01*
X11201134Y-7366984D02*
X11201134Y-7405079D01*
X11277325Y-7366984D02*
X11277325Y-7405079D01*
X11572563Y-7643174D02*
X11563039Y-7633650D01*
X11563039Y-7633650D02*
X11543991Y-7605079D01*
X11543991Y-7605079D02*
X11534468Y-7586031D01*
X11534468Y-7586031D02*
X11524944Y-7557460D01*
X11524944Y-7557460D02*
X11515420Y-7509841D01*
X11515420Y-7509841D02*
X11515420Y-7471746D01*
X11515420Y-7471746D02*
X11524944Y-7424127D01*
X11524944Y-7424127D02*
X11534468Y-7395555D01*
X11534468Y-7395555D02*
X11543991Y-7376508D01*
X11543991Y-7376508D02*
X11563039Y-7347936D01*
X11563039Y-7347936D02*
X11572563Y-7338412D01*
X11753515Y-7566984D02*
X11639229Y-7566984D01*
X11696372Y-7566984D02*
X11696372Y-7366984D01*
X11696372Y-7366984D02*
X11677325Y-7395555D01*
X11677325Y-7395555D02*
X11658277Y-7414603D01*
X11658277Y-7414603D02*
X11639229Y-7424127D01*
X11820182Y-7366984D02*
X11943991Y-7366984D01*
X11943991Y-7366984D02*
X11877325Y-7443174D01*
X11877325Y-7443174D02*
X11905896Y-7443174D01*
X11905896Y-7443174D02*
X11924944Y-7452698D01*
X11924944Y-7452698D02*
X11934468Y-7462222D01*
X11934468Y-7462222D02*
X11943991Y-7481269D01*
X11943991Y-7481269D02*
X11943991Y-7528888D01*
X11943991Y-7528888D02*
X11934468Y-7547936D01*
X11934468Y-7547936D02*
X11924944Y-7557460D01*
X11924944Y-7557460D02*
X11905896Y-7566984D01*
X11905896Y-7566984D02*
X11848753Y-7566984D01*
X11848753Y-7566984D02*
X11829706Y-7557460D01*
X11829706Y-7557460D02*
X11820182Y-7547936D01*
X12182087Y-7566984D02*
X12182087Y-7366984D01*
X12267801Y-7566984D02*
X12267801Y-7462222D01*
X12267801Y-7462222D02*
X12258277Y-7443174D01*
X12258277Y-7443174D02*
X12239230Y-7433650D01*
X12239230Y-7433650D02*
X12210658Y-7433650D01*
X12210658Y-7433650D02*
X12191610Y-7443174D01*
X12191610Y-7443174D02*
X12182087Y-7452698D01*
X12391610Y-7566984D02*
X12372563Y-7557460D01*
X12372563Y-7557460D02*
X12363039Y-7547936D01*
X12363039Y-7547936D02*
X12353515Y-7528888D01*
X12353515Y-7528888D02*
X12353515Y-7471746D01*
X12353515Y-7471746D02*
X12363039Y-7452698D01*
X12363039Y-7452698D02*
X12372563Y-7443174D01*
X12372563Y-7443174D02*
X12391610Y-7433650D01*
X12391610Y-7433650D02*
X12420182Y-7433650D01*
X12420182Y-7433650D02*
X12439230Y-7443174D01*
X12439230Y-7443174D02*
X12448753Y-7452698D01*
X12448753Y-7452698D02*
X12458277Y-7471746D01*
X12458277Y-7471746D02*
X12458277Y-7528888D01*
X12458277Y-7528888D02*
X12448753Y-7547936D01*
X12448753Y-7547936D02*
X12439230Y-7557460D01*
X12439230Y-7557460D02*
X12420182Y-7566984D01*
X12420182Y-7566984D02*
X12391610Y-7566984D01*
X12572563Y-7566984D02*
X12553515Y-7557460D01*
X12553515Y-7557460D02*
X12543991Y-7538412D01*
X12543991Y-7538412D02*
X12543991Y-7366984D01*
X12724944Y-7557460D02*
X12705896Y-7566984D01*
X12705896Y-7566984D02*
X12667801Y-7566984D01*
X12667801Y-7566984D02*
X12648753Y-7557460D01*
X12648753Y-7557460D02*
X12639230Y-7538412D01*
X12639230Y-7538412D02*
X12639230Y-7462222D01*
X12639230Y-7462222D02*
X12648753Y-7443174D01*
X12648753Y-7443174D02*
X12667801Y-7433650D01*
X12667801Y-7433650D02*
X12705896Y-7433650D01*
X12705896Y-7433650D02*
X12724944Y-7443174D01*
X12724944Y-7443174D02*
X12734468Y-7462222D01*
X12734468Y-7462222D02*
X12734468Y-7481269D01*
X12734468Y-7481269D02*
X12639230Y-7500317D01*
X12810658Y-7557460D02*
X12829706Y-7566984D01*
X12829706Y-7566984D02*
X12867801Y-7566984D01*
X12867801Y-7566984D02*
X12886849Y-7557460D01*
X12886849Y-7557460D02*
X12896372Y-7538412D01*
X12896372Y-7538412D02*
X12896372Y-7528888D01*
X12896372Y-7528888D02*
X12886849Y-7509841D01*
X12886849Y-7509841D02*
X12867801Y-7500317D01*
X12867801Y-7500317D02*
X12839230Y-7500317D01*
X12839230Y-7500317D02*
X12820182Y-7490793D01*
X12820182Y-7490793D02*
X12810658Y-7471746D01*
X12810658Y-7471746D02*
X12810658Y-7462222D01*
X12810658Y-7462222D02*
X12820182Y-7443174D01*
X12820182Y-7443174D02*
X12839230Y-7433650D01*
X12839230Y-7433650D02*
X12867801Y-7433650D01*
X12867801Y-7433650D02*
X12886849Y-7443174D01*
X12963039Y-7643174D02*
X12972563Y-7633650D01*
X12972563Y-7633650D02*
X12991611Y-7605079D01*
X12991611Y-7605079D02*
X13001134Y-7586031D01*
X13001134Y-7586031D02*
X13010658Y-7557460D01*
X13010658Y-7557460D02*
X13020182Y-7509841D01*
X13020182Y-7509841D02*
X13020182Y-7471746D01*
X13020182Y-7471746D02*
X13010658Y-7424127D01*
X13010658Y-7424127D02*
X13001134Y-7395555D01*
X13001134Y-7395555D02*
X12991611Y-7376508D01*
X12991611Y-7376508D02*
X12972563Y-7347936D01*
X12972563Y-7347936D02*
X12963039Y-7338412D01*
D13*
X7997500Y-7739500D02*
G75*
G02*
X7847500Y-7739500I-75000J0D01*
G01*
X7847500Y-7739500D02*
G75*
G02*
X7997500Y-7739500I75000J0D01*
G01*
D11*
X8363039Y-7830984D02*
X8248753Y-7830984D01*
X8305896Y-7830984D02*
X8305896Y-7630984D01*
X8305896Y-7630984D02*
X8286848Y-7659555D01*
X8286848Y-7659555D02*
X8267801Y-7678603D01*
X8267801Y-7678603D02*
X8248753Y-7688127D01*
X8448753Y-7811936D02*
X8458277Y-7821460D01*
X8458277Y-7821460D02*
X8448753Y-7830984D01*
X8448753Y-7830984D02*
X8439229Y-7821460D01*
X8439229Y-7821460D02*
X8448753Y-7811936D01*
X8448753Y-7811936D02*
X8448753Y-7830984D01*
X8639229Y-7630984D02*
X8543991Y-7630984D01*
X8543991Y-7630984D02*
X8534467Y-7726222D01*
X8534467Y-7726222D02*
X8543991Y-7716698D01*
X8543991Y-7716698D02*
X8563039Y-7707174D01*
X8563039Y-7707174D02*
X8610658Y-7707174D01*
X8610658Y-7707174D02*
X8629705Y-7716698D01*
X8629705Y-7716698D02*
X8639229Y-7726222D01*
X8639229Y-7726222D02*
X8648753Y-7745269D01*
X8648753Y-7745269D02*
X8648753Y-7792888D01*
X8648753Y-7792888D02*
X8639229Y-7811936D01*
X8639229Y-7811936D02*
X8629705Y-7821460D01*
X8629705Y-7821460D02*
X8610658Y-7830984D01*
X8610658Y-7830984D02*
X8563039Y-7830984D01*
X8563039Y-7830984D02*
X8543991Y-7821460D01*
X8543991Y-7821460D02*
X8534467Y-7811936D01*
X8772563Y-7630984D02*
X8791610Y-7630984D01*
X8791610Y-7630984D02*
X8810658Y-7640508D01*
X8810658Y-7640508D02*
X8820182Y-7650031D01*
X8820182Y-7650031D02*
X8829705Y-7669079D01*
X8829705Y-7669079D02*
X8839229Y-7707174D01*
X8839229Y-7707174D02*
X8839229Y-7754793D01*
X8839229Y-7754793D02*
X8829705Y-7792888D01*
X8829705Y-7792888D02*
X8820182Y-7811936D01*
X8820182Y-7811936D02*
X8810658Y-7821460D01*
X8810658Y-7821460D02*
X8791610Y-7830984D01*
X8791610Y-7830984D02*
X8772563Y-7830984D01*
X8772563Y-7830984D02*
X8753515Y-7821460D01*
X8753515Y-7821460D02*
X8743991Y-7811936D01*
X8743991Y-7811936D02*
X8734467Y-7792888D01*
X8734467Y-7792888D02*
X8724944Y-7754793D01*
X8724944Y-7754793D02*
X8724944Y-7707174D01*
X8724944Y-7707174D02*
X8734467Y-7669079D01*
X8734467Y-7669079D02*
X8743991Y-7650031D01*
X8743991Y-7650031D02*
X8753515Y-7640508D01*
X8753515Y-7640508D02*
X8772563Y-7630984D01*
X8963039Y-7630984D02*
X8982086Y-7630984D01*
X8982086Y-7630984D02*
X9001134Y-7640508D01*
X9001134Y-7640508D02*
X9010658Y-7650031D01*
X9010658Y-7650031D02*
X9020182Y-7669079D01*
X9020182Y-7669079D02*
X9029705Y-7707174D01*
X9029705Y-7707174D02*
X9029705Y-7754793D01*
X9029705Y-7754793D02*
X9020182Y-7792888D01*
X9020182Y-7792888D02*
X9010658Y-7811936D01*
X9010658Y-7811936D02*
X9001134Y-7821460D01*
X9001134Y-7821460D02*
X8982086Y-7830984D01*
X8982086Y-7830984D02*
X8963039Y-7830984D01*
X8963039Y-7830984D02*
X8943991Y-7821460D01*
X8943991Y-7821460D02*
X8934467Y-7811936D01*
X8934467Y-7811936D02*
X8924944Y-7792888D01*
X8924944Y-7792888D02*
X8915420Y-7754793D01*
X8915420Y-7754793D02*
X8915420Y-7707174D01*
X8915420Y-7707174D02*
X8924944Y-7669079D01*
X8924944Y-7669079D02*
X8934467Y-7650031D01*
X8934467Y-7650031D02*
X8943991Y-7640508D01*
X8943991Y-7640508D02*
X8963039Y-7630984D01*
X9115420Y-7830984D02*
X9115420Y-7697650D01*
X9115420Y-7716698D02*
X9124944Y-7707174D01*
X9124944Y-7707174D02*
X9143991Y-7697650D01*
X9143991Y-7697650D02*
X9172563Y-7697650D01*
X9172563Y-7697650D02*
X9191610Y-7707174D01*
X9191610Y-7707174D02*
X9201134Y-7726222D01*
X9201134Y-7726222D02*
X9201134Y-7830984D01*
X9201134Y-7726222D02*
X9210658Y-7707174D01*
X9210658Y-7707174D02*
X9229705Y-7697650D01*
X9229705Y-7697650D02*
X9258277Y-7697650D01*
X9258277Y-7697650D02*
X9277325Y-7707174D01*
X9277325Y-7707174D02*
X9286848Y-7726222D01*
X9286848Y-7726222D02*
X9286848Y-7830984D01*
X9382086Y-7830984D02*
X9382086Y-7697650D01*
X9382086Y-7716698D02*
X9391610Y-7707174D01*
X9391610Y-7707174D02*
X9410658Y-7697650D01*
X9410658Y-7697650D02*
X9439229Y-7697650D01*
X9439229Y-7697650D02*
X9458277Y-7707174D01*
X9458277Y-7707174D02*
X9467801Y-7726222D01*
X9467801Y-7726222D02*
X9467801Y-7830984D01*
X9467801Y-7726222D02*
X9477325Y-7707174D01*
X9477325Y-7707174D02*
X9496372Y-7697650D01*
X9496372Y-7697650D02*
X9524944Y-7697650D01*
X9524944Y-7697650D02*
X9543991Y-7707174D01*
X9543991Y-7707174D02*
X9553515Y-7726222D01*
X9553515Y-7726222D02*
X9553515Y-7830984D01*
X9943991Y-7621460D02*
X9772563Y-7878603D01*
X10201134Y-7630984D02*
X10220182Y-7630984D01*
X10220182Y-7630984D02*
X10239229Y-7640508D01*
X10239229Y-7640508D02*
X10248753Y-7650031D01*
X10248753Y-7650031D02*
X10258277Y-7669079D01*
X10258277Y-7669079D02*
X10267801Y-7707174D01*
X10267801Y-7707174D02*
X10267801Y-7754793D01*
X10267801Y-7754793D02*
X10258277Y-7792888D01*
X10258277Y-7792888D02*
X10248753Y-7811936D01*
X10248753Y-7811936D02*
X10239229Y-7821460D01*
X10239229Y-7821460D02*
X10220182Y-7830984D01*
X10220182Y-7830984D02*
X10201134Y-7830984D01*
X10201134Y-7830984D02*
X10182087Y-7821460D01*
X10182087Y-7821460D02*
X10172563Y-7811936D01*
X10172563Y-7811936D02*
X10163039Y-7792888D01*
X10163039Y-7792888D02*
X10153515Y-7754793D01*
X10153515Y-7754793D02*
X10153515Y-7707174D01*
X10153515Y-7707174D02*
X10163039Y-7669079D01*
X10163039Y-7669079D02*
X10172563Y-7650031D01*
X10172563Y-7650031D02*
X10182087Y-7640508D01*
X10182087Y-7640508D02*
X10201134Y-7630984D01*
X10353515Y-7811936D02*
X10363039Y-7821460D01*
X10363039Y-7821460D02*
X10353515Y-7830984D01*
X10353515Y-7830984D02*
X10343991Y-7821460D01*
X10343991Y-7821460D02*
X10353515Y-7811936D01*
X10353515Y-7811936D02*
X10353515Y-7830984D01*
X10486848Y-7630984D02*
X10505896Y-7630984D01*
X10505896Y-7630984D02*
X10524944Y-7640508D01*
X10524944Y-7640508D02*
X10534468Y-7650031D01*
X10534468Y-7650031D02*
X10543991Y-7669079D01*
X10543991Y-7669079D02*
X10553515Y-7707174D01*
X10553515Y-7707174D02*
X10553515Y-7754793D01*
X10553515Y-7754793D02*
X10543991Y-7792888D01*
X10543991Y-7792888D02*
X10534468Y-7811936D01*
X10534468Y-7811936D02*
X10524944Y-7821460D01*
X10524944Y-7821460D02*
X10505896Y-7830984D01*
X10505896Y-7830984D02*
X10486848Y-7830984D01*
X10486848Y-7830984D02*
X10467801Y-7821460D01*
X10467801Y-7821460D02*
X10458277Y-7811936D01*
X10458277Y-7811936D02*
X10448753Y-7792888D01*
X10448753Y-7792888D02*
X10439229Y-7754793D01*
X10439229Y-7754793D02*
X10439229Y-7707174D01*
X10439229Y-7707174D02*
X10448753Y-7669079D01*
X10448753Y-7669079D02*
X10458277Y-7650031D01*
X10458277Y-7650031D02*
X10467801Y-7640508D01*
X10467801Y-7640508D02*
X10486848Y-7630984D01*
X10734468Y-7630984D02*
X10639229Y-7630984D01*
X10639229Y-7630984D02*
X10629706Y-7726222D01*
X10629706Y-7726222D02*
X10639229Y-7716698D01*
X10639229Y-7716698D02*
X10658277Y-7707174D01*
X10658277Y-7707174D02*
X10705896Y-7707174D01*
X10705896Y-7707174D02*
X10724944Y-7716698D01*
X10724944Y-7716698D02*
X10734468Y-7726222D01*
X10734468Y-7726222D02*
X10743991Y-7745269D01*
X10743991Y-7745269D02*
X10743991Y-7792888D01*
X10743991Y-7792888D02*
X10734468Y-7811936D01*
X10734468Y-7811936D02*
X10724944Y-7821460D01*
X10724944Y-7821460D02*
X10705896Y-7830984D01*
X10705896Y-7830984D02*
X10658277Y-7830984D01*
X10658277Y-7830984D02*
X10639229Y-7821460D01*
X10639229Y-7821460D02*
X10629706Y-7811936D01*
X10839229Y-7830984D02*
X10877325Y-7830984D01*
X10877325Y-7830984D02*
X10896372Y-7821460D01*
X10896372Y-7821460D02*
X10905896Y-7811936D01*
X10905896Y-7811936D02*
X10924944Y-7783365D01*
X10924944Y-7783365D02*
X10934468Y-7745269D01*
X10934468Y-7745269D02*
X10934468Y-7669079D01*
X10934468Y-7669079D02*
X10924944Y-7650031D01*
X10924944Y-7650031D02*
X10915420Y-7640508D01*
X10915420Y-7640508D02*
X10896372Y-7630984D01*
X10896372Y-7630984D02*
X10858277Y-7630984D01*
X10858277Y-7630984D02*
X10839229Y-7640508D01*
X10839229Y-7640508D02*
X10829706Y-7650031D01*
X10829706Y-7650031D02*
X10820182Y-7669079D01*
X10820182Y-7669079D02*
X10820182Y-7716698D01*
X10820182Y-7716698D02*
X10829706Y-7735746D01*
X10829706Y-7735746D02*
X10839229Y-7745269D01*
X10839229Y-7745269D02*
X10858277Y-7754793D01*
X10858277Y-7754793D02*
X10896372Y-7754793D01*
X10896372Y-7754793D02*
X10915420Y-7745269D01*
X10915420Y-7745269D02*
X10924944Y-7735746D01*
X10924944Y-7735746D02*
X10934468Y-7716698D01*
X11124944Y-7830984D02*
X11010658Y-7830984D01*
X11067801Y-7830984D02*
X11067801Y-7630984D01*
X11067801Y-7630984D02*
X11048753Y-7659555D01*
X11048753Y-7659555D02*
X11029706Y-7678603D01*
X11029706Y-7678603D02*
X11010658Y-7688127D01*
X11201134Y-7630984D02*
X11201134Y-7669079D01*
X11277325Y-7630984D02*
X11277325Y-7669079D01*
X11572563Y-7907174D02*
X11563039Y-7897650D01*
X11563039Y-7897650D02*
X11543991Y-7869079D01*
X11543991Y-7869079D02*
X11534468Y-7850031D01*
X11534468Y-7850031D02*
X11524944Y-7821460D01*
X11524944Y-7821460D02*
X11515420Y-7773841D01*
X11515420Y-7773841D02*
X11515420Y-7735746D01*
X11515420Y-7735746D02*
X11524944Y-7688127D01*
X11524944Y-7688127D02*
X11534468Y-7659555D01*
X11534468Y-7659555D02*
X11543991Y-7640508D01*
X11543991Y-7640508D02*
X11563039Y-7611936D01*
X11563039Y-7611936D02*
X11572563Y-7602412D01*
X11753515Y-7830984D02*
X11639229Y-7830984D01*
X11696372Y-7830984D02*
X11696372Y-7630984D01*
X11696372Y-7630984D02*
X11677325Y-7659555D01*
X11677325Y-7659555D02*
X11658277Y-7678603D01*
X11658277Y-7678603D02*
X11639229Y-7688127D01*
X11877325Y-7630984D02*
X11896372Y-7630984D01*
X11896372Y-7630984D02*
X11915420Y-7640508D01*
X11915420Y-7640508D02*
X11924944Y-7650031D01*
X11924944Y-7650031D02*
X11934468Y-7669079D01*
X11934468Y-7669079D02*
X11943991Y-7707174D01*
X11943991Y-7707174D02*
X11943991Y-7754793D01*
X11943991Y-7754793D02*
X11934468Y-7792888D01*
X11934468Y-7792888D02*
X11924944Y-7811936D01*
X11924944Y-7811936D02*
X11915420Y-7821460D01*
X11915420Y-7821460D02*
X11896372Y-7830984D01*
X11896372Y-7830984D02*
X11877325Y-7830984D01*
X11877325Y-7830984D02*
X11858277Y-7821460D01*
X11858277Y-7821460D02*
X11848753Y-7811936D01*
X11848753Y-7811936D02*
X11839229Y-7792888D01*
X11839229Y-7792888D02*
X11829706Y-7754793D01*
X11829706Y-7754793D02*
X11829706Y-7707174D01*
X11829706Y-7707174D02*
X11839229Y-7669079D01*
X11839229Y-7669079D02*
X11848753Y-7650031D01*
X11848753Y-7650031D02*
X11858277Y-7640508D01*
X11858277Y-7640508D02*
X11877325Y-7630984D01*
X12182087Y-7830984D02*
X12182087Y-7630984D01*
X12267801Y-7830984D02*
X12267801Y-7726222D01*
X12267801Y-7726222D02*
X12258277Y-7707174D01*
X12258277Y-7707174D02*
X12239230Y-7697650D01*
X12239230Y-7697650D02*
X12210658Y-7697650D01*
X12210658Y-7697650D02*
X12191610Y-7707174D01*
X12191610Y-7707174D02*
X12182087Y-7716698D01*
X12391610Y-7830984D02*
X12372563Y-7821460D01*
X12372563Y-7821460D02*
X12363039Y-7811936D01*
X12363039Y-7811936D02*
X12353515Y-7792888D01*
X12353515Y-7792888D02*
X12353515Y-7735746D01*
X12353515Y-7735746D02*
X12363039Y-7716698D01*
X12363039Y-7716698D02*
X12372563Y-7707174D01*
X12372563Y-7707174D02*
X12391610Y-7697650D01*
X12391610Y-7697650D02*
X12420182Y-7697650D01*
X12420182Y-7697650D02*
X12439230Y-7707174D01*
X12439230Y-7707174D02*
X12448753Y-7716698D01*
X12448753Y-7716698D02*
X12458277Y-7735746D01*
X12458277Y-7735746D02*
X12458277Y-7792888D01*
X12458277Y-7792888D02*
X12448753Y-7811936D01*
X12448753Y-7811936D02*
X12439230Y-7821460D01*
X12439230Y-7821460D02*
X12420182Y-7830984D01*
X12420182Y-7830984D02*
X12391610Y-7830984D01*
X12572563Y-7830984D02*
X12553515Y-7821460D01*
X12553515Y-7821460D02*
X12543991Y-7802412D01*
X12543991Y-7802412D02*
X12543991Y-7630984D01*
X12724944Y-7821460D02*
X12705896Y-7830984D01*
X12705896Y-7830984D02*
X12667801Y-7830984D01*
X12667801Y-7830984D02*
X12648753Y-7821460D01*
X12648753Y-7821460D02*
X12639230Y-7802412D01*
X12639230Y-7802412D02*
X12639230Y-7726222D01*
X12639230Y-7726222D02*
X12648753Y-7707174D01*
X12648753Y-7707174D02*
X12667801Y-7697650D01*
X12667801Y-7697650D02*
X12705896Y-7697650D01*
X12705896Y-7697650D02*
X12724944Y-7707174D01*
X12724944Y-7707174D02*
X12734468Y-7726222D01*
X12734468Y-7726222D02*
X12734468Y-7745269D01*
X12734468Y-7745269D02*
X12639230Y-7764317D01*
X12810658Y-7821460D02*
X12829706Y-7830984D01*
X12829706Y-7830984D02*
X12867801Y-7830984D01*
X12867801Y-7830984D02*
X12886849Y-7821460D01*
X12886849Y-7821460D02*
X12896372Y-7802412D01*
X12896372Y-7802412D02*
X12896372Y-7792888D01*
X12896372Y-7792888D02*
X12886849Y-7773841D01*
X12886849Y-7773841D02*
X12867801Y-7764317D01*
X12867801Y-7764317D02*
X12839230Y-7764317D01*
X12839230Y-7764317D02*
X12820182Y-7754793D01*
X12820182Y-7754793D02*
X12810658Y-7735746D01*
X12810658Y-7735746D02*
X12810658Y-7726222D01*
X12810658Y-7726222D02*
X12820182Y-7707174D01*
X12820182Y-7707174D02*
X12839230Y-7697650D01*
X12839230Y-7697650D02*
X12867801Y-7697650D01*
X12867801Y-7697650D02*
X12886849Y-7707174D01*
X12963039Y-7907174D02*
X12972563Y-7897650D01*
X12972563Y-7897650D02*
X12991611Y-7869079D01*
X12991611Y-7869079D02*
X13001134Y-7850031D01*
X13001134Y-7850031D02*
X13010658Y-7821460D01*
X13010658Y-7821460D02*
X13020182Y-7773841D01*
X13020182Y-7773841D02*
X13020182Y-7735746D01*
X13020182Y-7735746D02*
X13010658Y-7688127D01*
X13010658Y-7688127D02*
X13001134Y-7659555D01*
X13001134Y-7659555D02*
X12991611Y-7640508D01*
X12991611Y-7640508D02*
X12972563Y-7611936D01*
X12972563Y-7611936D02*
X12963039Y-7602412D01*
X7897500Y-7909500D02*
X7897500Y-8109500D01*
X7797500Y-8009500D02*
X7997500Y-8009500D01*
X8343991Y-7967650D02*
X8343991Y-8100984D01*
X8296372Y-7891460D02*
X8248753Y-8034317D01*
X8248753Y-8034317D02*
X8372562Y-8034317D01*
X8448753Y-8081936D02*
X8458277Y-8091460D01*
X8458277Y-8091460D02*
X8448753Y-8100984D01*
X8448753Y-8100984D02*
X8439229Y-8091460D01*
X8439229Y-8091460D02*
X8448753Y-8081936D01*
X8448753Y-8081936D02*
X8448753Y-8100984D01*
X8639229Y-7900984D02*
X8543991Y-7900984D01*
X8543991Y-7900984D02*
X8534467Y-7996222D01*
X8534467Y-7996222D02*
X8543991Y-7986698D01*
X8543991Y-7986698D02*
X8563039Y-7977174D01*
X8563039Y-7977174D02*
X8610658Y-7977174D01*
X8610658Y-7977174D02*
X8629705Y-7986698D01*
X8629705Y-7986698D02*
X8639229Y-7996222D01*
X8639229Y-7996222D02*
X8648753Y-8015269D01*
X8648753Y-8015269D02*
X8648753Y-8062888D01*
X8648753Y-8062888D02*
X8639229Y-8081936D01*
X8639229Y-8081936D02*
X8629705Y-8091460D01*
X8629705Y-8091460D02*
X8610658Y-8100984D01*
X8610658Y-8100984D02*
X8563039Y-8100984D01*
X8563039Y-8100984D02*
X8543991Y-8091460D01*
X8543991Y-8091460D02*
X8534467Y-8081936D01*
X8772563Y-7900984D02*
X8791610Y-7900984D01*
X8791610Y-7900984D02*
X8810658Y-7910508D01*
X8810658Y-7910508D02*
X8820182Y-7920031D01*
X8820182Y-7920031D02*
X8829705Y-7939079D01*
X8829705Y-7939079D02*
X8839229Y-7977174D01*
X8839229Y-7977174D02*
X8839229Y-8024793D01*
X8839229Y-8024793D02*
X8829705Y-8062888D01*
X8829705Y-8062888D02*
X8820182Y-8081936D01*
X8820182Y-8081936D02*
X8810658Y-8091460D01*
X8810658Y-8091460D02*
X8791610Y-8100984D01*
X8791610Y-8100984D02*
X8772563Y-8100984D01*
X8772563Y-8100984D02*
X8753515Y-8091460D01*
X8753515Y-8091460D02*
X8743991Y-8081936D01*
X8743991Y-8081936D02*
X8734467Y-8062888D01*
X8734467Y-8062888D02*
X8724944Y-8024793D01*
X8724944Y-8024793D02*
X8724944Y-7977174D01*
X8724944Y-7977174D02*
X8734467Y-7939079D01*
X8734467Y-7939079D02*
X8743991Y-7920031D01*
X8743991Y-7920031D02*
X8753515Y-7910508D01*
X8753515Y-7910508D02*
X8772563Y-7900984D01*
X8963039Y-7900984D02*
X8982086Y-7900984D01*
X8982086Y-7900984D02*
X9001134Y-7910508D01*
X9001134Y-7910508D02*
X9010658Y-7920031D01*
X9010658Y-7920031D02*
X9020182Y-7939079D01*
X9020182Y-7939079D02*
X9029705Y-7977174D01*
X9029705Y-7977174D02*
X9029705Y-8024793D01*
X9029705Y-8024793D02*
X9020182Y-8062888D01*
X9020182Y-8062888D02*
X9010658Y-8081936D01*
X9010658Y-8081936D02*
X9001134Y-8091460D01*
X9001134Y-8091460D02*
X8982086Y-8100984D01*
X8982086Y-8100984D02*
X8963039Y-8100984D01*
X8963039Y-8100984D02*
X8943991Y-8091460D01*
X8943991Y-8091460D02*
X8934467Y-8081936D01*
X8934467Y-8081936D02*
X8924944Y-8062888D01*
X8924944Y-8062888D02*
X8915420Y-8024793D01*
X8915420Y-8024793D02*
X8915420Y-7977174D01*
X8915420Y-7977174D02*
X8924944Y-7939079D01*
X8924944Y-7939079D02*
X8934467Y-7920031D01*
X8934467Y-7920031D02*
X8943991Y-7910508D01*
X8943991Y-7910508D02*
X8963039Y-7900984D01*
X9115420Y-8100984D02*
X9115420Y-7967650D01*
X9115420Y-7986698D02*
X9124944Y-7977174D01*
X9124944Y-7977174D02*
X9143991Y-7967650D01*
X9143991Y-7967650D02*
X9172563Y-7967650D01*
X9172563Y-7967650D02*
X9191610Y-7977174D01*
X9191610Y-7977174D02*
X9201134Y-7996222D01*
X9201134Y-7996222D02*
X9201134Y-8100984D01*
X9201134Y-7996222D02*
X9210658Y-7977174D01*
X9210658Y-7977174D02*
X9229705Y-7967650D01*
X9229705Y-7967650D02*
X9258277Y-7967650D01*
X9258277Y-7967650D02*
X9277325Y-7977174D01*
X9277325Y-7977174D02*
X9286848Y-7996222D01*
X9286848Y-7996222D02*
X9286848Y-8100984D01*
X9382086Y-8100984D02*
X9382086Y-7967650D01*
X9382086Y-7986698D02*
X9391610Y-7977174D01*
X9391610Y-7977174D02*
X9410658Y-7967650D01*
X9410658Y-7967650D02*
X9439229Y-7967650D01*
X9439229Y-7967650D02*
X9458277Y-7977174D01*
X9458277Y-7977174D02*
X9467801Y-7996222D01*
X9467801Y-7996222D02*
X9467801Y-8100984D01*
X9467801Y-7996222D02*
X9477325Y-7977174D01*
X9477325Y-7977174D02*
X9496372Y-7967650D01*
X9496372Y-7967650D02*
X9524944Y-7967650D01*
X9524944Y-7967650D02*
X9543991Y-7977174D01*
X9543991Y-7977174D02*
X9553515Y-7996222D01*
X9553515Y-7996222D02*
X9553515Y-8100984D01*
X9943991Y-7891460D02*
X9772563Y-8148603D01*
X10201134Y-7900984D02*
X10220182Y-7900984D01*
X10220182Y-7900984D02*
X10239229Y-7910508D01*
X10239229Y-7910508D02*
X10248753Y-7920031D01*
X10248753Y-7920031D02*
X10258277Y-7939079D01*
X10258277Y-7939079D02*
X10267801Y-7977174D01*
X10267801Y-7977174D02*
X10267801Y-8024793D01*
X10267801Y-8024793D02*
X10258277Y-8062888D01*
X10258277Y-8062888D02*
X10248753Y-8081936D01*
X10248753Y-8081936D02*
X10239229Y-8091460D01*
X10239229Y-8091460D02*
X10220182Y-8100984D01*
X10220182Y-8100984D02*
X10201134Y-8100984D01*
X10201134Y-8100984D02*
X10182087Y-8091460D01*
X10182087Y-8091460D02*
X10172563Y-8081936D01*
X10172563Y-8081936D02*
X10163039Y-8062888D01*
X10163039Y-8062888D02*
X10153515Y-8024793D01*
X10153515Y-8024793D02*
X10153515Y-7977174D01*
X10153515Y-7977174D02*
X10163039Y-7939079D01*
X10163039Y-7939079D02*
X10172563Y-7920031D01*
X10172563Y-7920031D02*
X10182087Y-7910508D01*
X10182087Y-7910508D02*
X10201134Y-7900984D01*
X10353515Y-8081936D02*
X10363039Y-8091460D01*
X10363039Y-8091460D02*
X10353515Y-8100984D01*
X10353515Y-8100984D02*
X10343991Y-8091460D01*
X10343991Y-8091460D02*
X10353515Y-8081936D01*
X10353515Y-8081936D02*
X10353515Y-8100984D01*
X10553515Y-8100984D02*
X10439229Y-8100984D01*
X10496372Y-8100984D02*
X10496372Y-7900984D01*
X10496372Y-7900984D02*
X10477325Y-7929555D01*
X10477325Y-7929555D02*
X10458277Y-7948603D01*
X10458277Y-7948603D02*
X10439229Y-7958127D01*
X10620182Y-7900984D02*
X10753515Y-7900984D01*
X10753515Y-7900984D02*
X10667801Y-8100984D01*
X10810658Y-7900984D02*
X10943991Y-7900984D01*
X10943991Y-7900984D02*
X10858277Y-8100984D01*
X11010658Y-7920031D02*
X11020182Y-7910508D01*
X11020182Y-7910508D02*
X11039229Y-7900984D01*
X11039229Y-7900984D02*
X11086849Y-7900984D01*
X11086849Y-7900984D02*
X11105896Y-7910508D01*
X11105896Y-7910508D02*
X11115420Y-7920031D01*
X11115420Y-7920031D02*
X11124944Y-7939079D01*
X11124944Y-7939079D02*
X11124944Y-7958127D01*
X11124944Y-7958127D02*
X11115420Y-7986698D01*
X11115420Y-7986698D02*
X11001134Y-8100984D01*
X11001134Y-8100984D02*
X11124944Y-8100984D01*
X11201134Y-7900984D02*
X11201134Y-7939079D01*
X11277325Y-7900984D02*
X11277325Y-7939079D01*
X11572563Y-8177174D02*
X11563039Y-8167650D01*
X11563039Y-8167650D02*
X11543991Y-8139079D01*
X11543991Y-8139079D02*
X11534468Y-8120031D01*
X11534468Y-8120031D02*
X11524944Y-8091460D01*
X11524944Y-8091460D02*
X11515420Y-8043841D01*
X11515420Y-8043841D02*
X11515420Y-8005746D01*
X11515420Y-8005746D02*
X11524944Y-7958127D01*
X11524944Y-7958127D02*
X11534468Y-7929555D01*
X11534468Y-7929555D02*
X11543991Y-7910508D01*
X11543991Y-7910508D02*
X11563039Y-7881936D01*
X11563039Y-7881936D02*
X11572563Y-7872412D01*
X11753515Y-8100984D02*
X11639229Y-8100984D01*
X11696372Y-8100984D02*
X11696372Y-7900984D01*
X11696372Y-7900984D02*
X11677325Y-7929555D01*
X11677325Y-7929555D02*
X11658277Y-7948603D01*
X11658277Y-7948603D02*
X11639229Y-7958127D01*
X11991610Y-8100984D02*
X11991610Y-7900984D01*
X12077325Y-8100984D02*
X12077325Y-7996222D01*
X12077325Y-7996222D02*
X12067801Y-7977174D01*
X12067801Y-7977174D02*
X12048753Y-7967650D01*
X12048753Y-7967650D02*
X12020182Y-7967650D01*
X12020182Y-7967650D02*
X12001134Y-7977174D01*
X12001134Y-7977174D02*
X11991610Y-7986698D01*
X12201134Y-8100984D02*
X12182087Y-8091460D01*
X12182087Y-8091460D02*
X12172563Y-8081936D01*
X12172563Y-8081936D02*
X12163039Y-8062888D01*
X12163039Y-8062888D02*
X12163039Y-8005746D01*
X12163039Y-8005746D02*
X12172563Y-7986698D01*
X12172563Y-7986698D02*
X12182087Y-7977174D01*
X12182087Y-7977174D02*
X12201134Y-7967650D01*
X12201134Y-7967650D02*
X12229706Y-7967650D01*
X12229706Y-7967650D02*
X12248753Y-7977174D01*
X12248753Y-7977174D02*
X12258277Y-7986698D01*
X12258277Y-7986698D02*
X12267801Y-8005746D01*
X12267801Y-8005746D02*
X12267801Y-8062888D01*
X12267801Y-8062888D02*
X12258277Y-8081936D01*
X12258277Y-8081936D02*
X12248753Y-8091460D01*
X12248753Y-8091460D02*
X12229706Y-8100984D01*
X12229706Y-8100984D02*
X12201134Y-8100984D01*
X12382087Y-8100984D02*
X12363039Y-8091460D01*
X12363039Y-8091460D02*
X12353515Y-8072412D01*
X12353515Y-8072412D02*
X12353515Y-7900984D01*
X12534468Y-8091460D02*
X12515420Y-8100984D01*
X12515420Y-8100984D02*
X12477325Y-8100984D01*
X12477325Y-8100984D02*
X12458277Y-8091460D01*
X12458277Y-8091460D02*
X12448753Y-8072412D01*
X12448753Y-8072412D02*
X12448753Y-7996222D01*
X12448753Y-7996222D02*
X12458277Y-7977174D01*
X12458277Y-7977174D02*
X12477325Y-7967650D01*
X12477325Y-7967650D02*
X12515420Y-7967650D01*
X12515420Y-7967650D02*
X12534468Y-7977174D01*
X12534468Y-7977174D02*
X12543991Y-7996222D01*
X12543991Y-7996222D02*
X12543991Y-8015269D01*
X12543991Y-8015269D02*
X12448753Y-8034317D01*
X12610658Y-8177174D02*
X12620182Y-8167650D01*
X12620182Y-8167650D02*
X12639230Y-8139079D01*
X12639230Y-8139079D02*
X12648753Y-8120031D01*
X12648753Y-8120031D02*
X12658277Y-8091460D01*
X12658277Y-8091460D02*
X12667801Y-8043841D01*
X12667801Y-8043841D02*
X12667801Y-8005746D01*
X12667801Y-8005746D02*
X12658277Y-7958127D01*
X12658277Y-7958127D02*
X12648753Y-7929555D01*
X12648753Y-7929555D02*
X12639230Y-7910508D01*
X12639230Y-7910508D02*
X12620182Y-7881936D01*
X12620182Y-7881936D02*
X12610658Y-7872412D01*
M02*
