%TF.GenerationSoftware,KiCad,Pcbnew,8.0.7*%
%TF.CreationDate,2024-12-04T22:18:42-06:00*%
%TF.ProjectId,b4,62342e6b-6963-4616-945f-706362585858,rev?*%
%TF.SameCoordinates,Original*%
%TF.FileFunction,Copper,L2,Bot*%
%TF.FilePolarity,Positive*%
%FSLAX46Y46*%
G04 Gerber Fmt 4.6, Leading zero omitted, Abs format (unit mm)*
G04 Created by KiCad (PCBNEW 8.0.7) date 2024-12-04 22:18:42*
%MOMM*%
%LPD*%
G01*
G04 APERTURE LIST*
%TA.AperFunction,ComponentPad*%
%ADD10C,0.600000*%
%TD*%
%TA.AperFunction,SMDPad,CuDef*%
%ADD11C,4.000000*%
%TD*%
%TA.AperFunction,SMDPad,CuDef*%
%ADD12C,10.000000*%
%TD*%
%TA.AperFunction,Conductor*%
%ADD13C,3.000000*%
%TD*%
G04 APERTURE END LIST*
D10*
%TO.P,T51,1*%
%TO.N,GND*%
X133978530Y-40750000D03*
%TD*%
%TO.P,T43,1*%
%TO.N,GND*%
X166021469Y-40750000D03*
%TD*%
%TO.P,T50,1*%
%TO.N,GND*%
X131500000Y-50000000D03*
%TD*%
%TO.P,T48,1*%
%TO.N,GND*%
X140500000Y-66021469D03*
%TD*%
%TO.P,T44,1*%
%TO.N,GND*%
X168500000Y-50000000D03*
%TD*%
%TO.P,T45,1*%
%TO.N,GND*%
X166021469Y-59250000D03*
%TD*%
%TO.P,T46,1*%
%TO.N,GND*%
X159500000Y-66021469D03*
%TD*%
%TO.P,T52,1*%
%TO.N,GND*%
X140750000Y-33978530D03*
%TD*%
%TO.P,T49,1*%
%TO.N,GND*%
X133978530Y-59250000D03*
%TD*%
%TO.P,T42,1*%
%TO.N,GND*%
X159250000Y-33978530D03*
%TD*%
D11*
%TO.P,REF\u002A\u002A,1*%
%TO.N,+3V0*%
X142500000Y-47000000D03*
%TD*%
D12*
%TO.P,+,1,1*%
%TO.N,+3V0*%
X150000000Y-57000000D03*
%TD*%
D11*
%TO.P,B2,1,1*%
%TO.N,+3V0*%
X150000000Y-57000000D03*
%TD*%
D13*
%TO.N,+3V0*%
X142500000Y-49500000D02*
X150000000Y-57000000D01*
X142500000Y-47000000D02*
X142500000Y-49500000D01*
%TD*%
%TA.AperFunction,Conductor*%
%TO.N,GND*%
G36*
X150872098Y-30520073D02*
G01*
X150877594Y-30520320D01*
X151745187Y-30578814D01*
X151750651Y-30579306D01*
X152614743Y-30676666D01*
X152620207Y-30677406D01*
X153479039Y-30813432D01*
X153484454Y-30814414D01*
X154336342Y-30988839D01*
X154341762Y-30990077D01*
X155184878Y-31202524D01*
X155190242Y-31204004D01*
X156023020Y-31454075D01*
X156028288Y-31455787D01*
X156849026Y-31742977D01*
X156854235Y-31744932D01*
X157661206Y-32068631D01*
X157666323Y-32070818D01*
X157713875Y-32092417D01*
X158457990Y-32430410D01*
X158462965Y-32432806D01*
X158696552Y-32551824D01*
X159237725Y-32827565D01*
X159242625Y-32830202D01*
X159998856Y-33259303D01*
X160003633Y-33262157D01*
X160739867Y-33724763D01*
X160744511Y-33727829D01*
X161459232Y-34222989D01*
X161463734Y-34226260D01*
X162155513Y-34752982D01*
X162159864Y-34756451D01*
X162827343Y-35313702D01*
X162831533Y-35317363D01*
X163473328Y-35903990D01*
X163477350Y-35907836D01*
X164092163Y-36522649D01*
X164096009Y-36526671D01*
X164682636Y-37168466D01*
X164686297Y-37172656D01*
X165243548Y-37840135D01*
X165247017Y-37844486D01*
X165773739Y-38536265D01*
X165777010Y-38540767D01*
X166272170Y-39255488D01*
X166275236Y-39260132D01*
X166737842Y-39996366D01*
X166740696Y-40001143D01*
X167169797Y-40757374D01*
X167172434Y-40762274D01*
X167567184Y-41537015D01*
X167569598Y-41542029D01*
X167929181Y-42333676D01*
X167931368Y-42338793D01*
X168255067Y-43145764D01*
X168257022Y-43150973D01*
X168544212Y-43971711D01*
X168545932Y-43977004D01*
X168795995Y-44809757D01*
X168797475Y-44815121D01*
X169009922Y-45658237D01*
X169011161Y-45663662D01*
X169185579Y-46515515D01*
X169186572Y-46520990D01*
X169322589Y-47379767D01*
X169323336Y-47385281D01*
X169420689Y-48249309D01*
X169421188Y-48254852D01*
X169479677Y-49122373D01*
X169479927Y-49127932D01*
X169499437Y-49997218D01*
X169499437Y-50002782D01*
X169479927Y-50872067D01*
X169479677Y-50877626D01*
X169421188Y-51745147D01*
X169420689Y-51750690D01*
X169323336Y-52614718D01*
X169322589Y-52620232D01*
X169186572Y-53479009D01*
X169185579Y-53484484D01*
X169011161Y-54336337D01*
X169009922Y-54341762D01*
X168797475Y-55184878D01*
X168795995Y-55190242D01*
X168545932Y-56022995D01*
X168544212Y-56028288D01*
X168257022Y-56849026D01*
X168255067Y-56854235D01*
X167931368Y-57661206D01*
X167929181Y-57666323D01*
X167569598Y-58457970D01*
X167567184Y-58462984D01*
X167172434Y-59237725D01*
X167169797Y-59242625D01*
X166740696Y-59998856D01*
X166737842Y-60003633D01*
X166275236Y-60739867D01*
X166272170Y-60744511D01*
X165777010Y-61459232D01*
X165773739Y-61463734D01*
X165247017Y-62155513D01*
X165243548Y-62159864D01*
X164686297Y-62827343D01*
X164682636Y-62831533D01*
X164096009Y-63473328D01*
X164092163Y-63477350D01*
X163477350Y-64092163D01*
X163473328Y-64096009D01*
X162831533Y-64682636D01*
X162827343Y-64686297D01*
X162159864Y-65243548D01*
X162155513Y-65247017D01*
X161463734Y-65773739D01*
X161459232Y-65777010D01*
X160744511Y-66272170D01*
X160739867Y-66275236D01*
X160003633Y-66737842D01*
X159998856Y-66740696D01*
X159242625Y-67169797D01*
X159237725Y-67172434D01*
X158462984Y-67567184D01*
X158457970Y-67569598D01*
X157666323Y-67929181D01*
X157661206Y-67931368D01*
X156854235Y-68255067D01*
X156849026Y-68257022D01*
X156028288Y-68544212D01*
X156022995Y-68545932D01*
X155190242Y-68795995D01*
X155184878Y-68797475D01*
X154341762Y-69009922D01*
X154336337Y-69011161D01*
X153484484Y-69185579D01*
X153479009Y-69186572D01*
X152620232Y-69322589D01*
X152614718Y-69323336D01*
X151750690Y-69420689D01*
X151745147Y-69421188D01*
X150877626Y-69479677D01*
X150872067Y-69479927D01*
X150002782Y-69499437D01*
X149997218Y-69499437D01*
X149127932Y-69479927D01*
X149122373Y-69479677D01*
X148254852Y-69421188D01*
X148249309Y-69420689D01*
X147385281Y-69323336D01*
X147379767Y-69322589D01*
X146520990Y-69186572D01*
X146515515Y-69185579D01*
X145663662Y-69011161D01*
X145658237Y-69009922D01*
X144815121Y-68797475D01*
X144809757Y-68795995D01*
X143977004Y-68545932D01*
X143971711Y-68544212D01*
X143150973Y-68257022D01*
X143145764Y-68255067D01*
X142338793Y-67931368D01*
X142333676Y-67929181D01*
X141542029Y-67569598D01*
X141537015Y-67567184D01*
X140762274Y-67172434D01*
X140757374Y-67169797D01*
X140001143Y-66740696D01*
X139996366Y-66737842D01*
X139260132Y-66275236D01*
X139255488Y-66272170D01*
X138540767Y-65777010D01*
X138536265Y-65773739D01*
X137844486Y-65247017D01*
X137840135Y-65243548D01*
X137172656Y-64686297D01*
X137168466Y-64682636D01*
X136526671Y-64096009D01*
X136522649Y-64092163D01*
X135907836Y-63477350D01*
X135903990Y-63473328D01*
X135317363Y-62831533D01*
X135313702Y-62827343D01*
X134756451Y-62159864D01*
X134752982Y-62155513D01*
X134717153Y-62108457D01*
X134570588Y-61915963D01*
X134226260Y-61463734D01*
X134222989Y-61459232D01*
X133727829Y-60744511D01*
X133724763Y-60739867D01*
X133262157Y-60003633D01*
X133259303Y-59998856D01*
X132830202Y-59242625D01*
X132827565Y-59237725D01*
X132766950Y-59118762D01*
X132432806Y-58462965D01*
X132430410Y-58457990D01*
X132070818Y-57666323D01*
X132068631Y-57661206D01*
X131744932Y-56854235D01*
X131742977Y-56849026D01*
X131455787Y-56028288D01*
X131454075Y-56023020D01*
X131204004Y-55190242D01*
X131202524Y-55184878D01*
X130990077Y-54341762D01*
X130988838Y-54336337D01*
X130840197Y-53610376D01*
X130814414Y-53484454D01*
X130813432Y-53479039D01*
X130677406Y-52620207D01*
X130676666Y-52614743D01*
X130579306Y-51750651D01*
X130578814Y-51745187D01*
X130520320Y-50877594D01*
X130520073Y-50872098D01*
X130500562Y-50002762D01*
X130500562Y-49997218D01*
X130520073Y-49127899D01*
X130520320Y-49122407D01*
X130578814Y-48254808D01*
X130579306Y-48249352D01*
X130676667Y-47385250D01*
X130677405Y-47379798D01*
X130737560Y-46999994D01*
X139994556Y-46999994D01*
X139994556Y-47000005D01*
X140014310Y-47314004D01*
X140014311Y-47314011D01*
X140073270Y-47623083D01*
X140170497Y-47922316D01*
X140170499Y-47922321D01*
X140304460Y-48207002D01*
X140304462Y-48207005D01*
X140304463Y-48207007D01*
X140473053Y-48472663D01*
X140473055Y-48472665D01*
X140473065Y-48472681D01*
X140475348Y-48475823D01*
X140473877Y-48476891D01*
X140498597Y-48534333D01*
X140499500Y-48549274D01*
X140499500Y-49631127D01*
X140516615Y-49761118D01*
X140516615Y-49761119D01*
X140533728Y-49891112D01*
X140562905Y-50000000D01*
X140601602Y-50144419D01*
X140701951Y-50386685D01*
X140701958Y-50386700D01*
X140833073Y-50613798D01*
X140833076Y-50613803D01*
X140902388Y-50704131D01*
X140992715Y-50821849D01*
X140992721Y-50821856D01*
X144902388Y-54731522D01*
X144935873Y-54792845D01*
X144930889Y-54862537D01*
X144929765Y-54865437D01*
X144809027Y-55165904D01*
X144809025Y-55165909D01*
X144672186Y-55612736D01*
X144672184Y-55612744D01*
X144573730Y-56069573D01*
X144514370Y-56533117D01*
X144494539Y-56999993D01*
X144494539Y-57000006D01*
X144514370Y-57466882D01*
X144573730Y-57930426D01*
X144672184Y-58387255D01*
X144672186Y-58387263D01*
X144809025Y-58834090D01*
X144809027Y-58834095D01*
X144983262Y-59267695D01*
X144983266Y-59267706D01*
X145193645Y-59684967D01*
X145193655Y-59684985D01*
X145438672Y-60082919D01*
X145438675Y-60082923D01*
X145716557Y-60458645D01*
X145716563Y-60458653D01*
X146025297Y-60809440D01*
X146025310Y-60809453D01*
X146362677Y-61132794D01*
X146362681Y-61132797D01*
X146726270Y-61426375D01*
X147113447Y-61688060D01*
X147294768Y-61789352D01*
X147521411Y-61915963D01*
X147521433Y-61915974D01*
X147947247Y-62108455D01*
X147947252Y-62108457D01*
X148092749Y-62159864D01*
X148387876Y-62264139D01*
X148840113Y-62381892D01*
X149300708Y-62460869D01*
X149444850Y-62473137D01*
X149766323Y-62500499D01*
X149766340Y-62500499D01*
X149766342Y-62500500D01*
X149766343Y-62500500D01*
X150233657Y-62500500D01*
X150233658Y-62500500D01*
X150233659Y-62500499D01*
X150233676Y-62500499D01*
X150510812Y-62476910D01*
X150699292Y-62460869D01*
X151159887Y-62381892D01*
X151612124Y-62264139D01*
X152052747Y-62108457D01*
X152052752Y-62108455D01*
X152478566Y-61915974D01*
X152478568Y-61915972D01*
X152478579Y-61915968D01*
X152886553Y-61688060D01*
X153273730Y-61426375D01*
X153637319Y-61132797D01*
X153974701Y-60809442D01*
X154152296Y-60607655D01*
X154283436Y-60458653D01*
X154283442Y-60458645D01*
X154283446Y-60458641D01*
X154561328Y-60082919D01*
X154806345Y-59684985D01*
X155016733Y-59267706D01*
X155190975Y-58834088D01*
X155327816Y-58387255D01*
X155426270Y-57930427D01*
X155485628Y-57466896D01*
X155500876Y-57107949D01*
X155505461Y-57000006D01*
X155505461Y-56999993D01*
X155485629Y-56533117D01*
X155485628Y-56533111D01*
X155485628Y-56533104D01*
X155426270Y-56069573D01*
X155327816Y-55612745D01*
X155190975Y-55165912D01*
X155016733Y-54732294D01*
X155016733Y-54732293D01*
X154806354Y-54315032D01*
X154806343Y-54315012D01*
X154561328Y-53917081D01*
X154283446Y-53541359D01*
X154283442Y-53541354D01*
X154283436Y-53541346D01*
X153974702Y-53190559D01*
X153974689Y-53190546D01*
X153637322Y-52867205D01*
X153447561Y-52713984D01*
X153273730Y-52573625D01*
X152886553Y-52311940D01*
X152875835Y-52305953D01*
X152478588Y-52084036D01*
X152478566Y-52084025D01*
X152052752Y-51891544D01*
X152052747Y-51891542D01*
X151612119Y-51735859D01*
X151159885Y-51618107D01*
X150699302Y-51539132D01*
X150699276Y-51539129D01*
X150233676Y-51499500D01*
X150233658Y-51499500D01*
X149766342Y-51499500D01*
X149766323Y-51499500D01*
X149300723Y-51539129D01*
X149300697Y-51539132D01*
X148840114Y-51618107D01*
X148387880Y-51735859D01*
X147947246Y-51891545D01*
X147869341Y-51926761D01*
X147800145Y-51936438D01*
X147736701Y-51907168D01*
X147730584Y-51901450D01*
X144536819Y-48707685D01*
X144503334Y-48646362D01*
X144500500Y-48620004D01*
X144500500Y-48549274D01*
X144520185Y-48482235D01*
X144524797Y-48475928D01*
X144524652Y-48475823D01*
X144526934Y-48472681D01*
X144526940Y-48472671D01*
X144526947Y-48472663D01*
X144695537Y-48207007D01*
X144829503Y-47922315D01*
X144926731Y-47623079D01*
X144985688Y-47314015D01*
X145005444Y-47000000D01*
X144985688Y-46685985D01*
X144926731Y-46376921D01*
X144829503Y-46077685D01*
X144695537Y-45792993D01*
X144611742Y-45660953D01*
X144526948Y-45527338D01*
X144526945Y-45527334D01*
X144326393Y-45284909D01*
X144326391Y-45284907D01*
X144097031Y-45069523D01*
X144097021Y-45069515D01*
X143842495Y-44884591D01*
X143842488Y-44884586D01*
X143842484Y-44884584D01*
X143566766Y-44733006D01*
X143566763Y-44733004D01*
X143566758Y-44733002D01*
X143566757Y-44733001D01*
X143274228Y-44617181D01*
X143274225Y-44617180D01*
X142969476Y-44538934D01*
X142969463Y-44538932D01*
X142657329Y-44499500D01*
X142657318Y-44499500D01*
X142342682Y-44499500D01*
X142342670Y-44499500D01*
X142030536Y-44538932D01*
X142030523Y-44538934D01*
X141725774Y-44617180D01*
X141725771Y-44617181D01*
X141433242Y-44733001D01*
X141433241Y-44733002D01*
X141157516Y-44884584D01*
X141157504Y-44884591D01*
X140902978Y-45069515D01*
X140902968Y-45069523D01*
X140673608Y-45284907D01*
X140673606Y-45284909D01*
X140473054Y-45527334D01*
X140473051Y-45527338D01*
X140304464Y-45792990D01*
X140304461Y-45792996D01*
X140170499Y-46077678D01*
X140170497Y-46077683D01*
X140073270Y-46376916D01*
X140014311Y-46685988D01*
X140014310Y-46685995D01*
X139994556Y-46999994D01*
X130737560Y-46999994D01*
X130813433Y-46520952D01*
X130814413Y-46515553D01*
X130988841Y-45663648D01*
X130990077Y-45658237D01*
X131084149Y-45284906D01*
X131202525Y-44815114D01*
X131204004Y-44809757D01*
X131227051Y-44733006D01*
X131454079Y-43976966D01*
X131455787Y-43971711D01*
X131742977Y-43150973D01*
X131744932Y-43145764D01*
X131846704Y-42892051D01*
X132068632Y-42338789D01*
X132070818Y-42333676D01*
X132200480Y-42048216D01*
X132430418Y-41541992D01*
X132432797Y-41537051D01*
X132827572Y-40762259D01*
X132830202Y-40757374D01*
X133027953Y-40408866D01*
X133259317Y-40001119D01*
X133262142Y-39996390D01*
X133724776Y-39260111D01*
X133727815Y-39255508D01*
X134222994Y-38540759D01*
X134226260Y-38536265D01*
X134562669Y-38094437D01*
X134753001Y-37844461D01*
X134756431Y-37840159D01*
X135313726Y-37172628D01*
X135317339Y-37168493D01*
X135904011Y-36526648D01*
X135907814Y-36522671D01*
X136522671Y-35907814D01*
X136526648Y-35904011D01*
X137168493Y-35317339D01*
X137172628Y-35313726D01*
X137840159Y-34756431D01*
X137844461Y-34753001D01*
X138536272Y-34226254D01*
X138540767Y-34222989D01*
X138673476Y-34131048D01*
X139255508Y-33727815D01*
X139260111Y-33724776D01*
X139996390Y-33262142D01*
X140001119Y-33259317D01*
X140757388Y-32830194D01*
X140762259Y-32827572D01*
X141537051Y-32432797D01*
X141541992Y-32430418D01*
X142333679Y-32070816D01*
X142338793Y-32068631D01*
X143145764Y-31744932D01*
X143150973Y-31742977D01*
X143971711Y-31455787D01*
X143976966Y-31454079D01*
X144809763Y-31204002D01*
X144815114Y-31202525D01*
X145658252Y-30990073D01*
X145663648Y-30988841D01*
X146515553Y-30814413D01*
X146520952Y-30813433D01*
X147379798Y-30677405D01*
X147385250Y-30676667D01*
X148249352Y-30579306D01*
X148254808Y-30578814D01*
X149122407Y-30520320D01*
X149127899Y-30520073D01*
X149997238Y-30500562D01*
X150002762Y-30500562D01*
X150872098Y-30520073D01*
G37*
%TD.AperFunction*%
%TD*%
M02*
