M48
; DRILL file {KiCad 9.0.0} date 2025-02-27T10:20:10-0600
; FORMAT={-:-/ absolute / metric / decimal}
; #@! TF.CreationDate,2025-02-27T10:20:10-06:00
; #@! TF.GenerationSoftware,Kicad,Pcbnew,9.0.0
; #@! TF.FileFunction,NonPlated,1,2,NPTH
FMAT,2
METRIC
; #@! TA.AperFunction,NonPlated,NPTH,ComponentDrill
T1C0.300
; #@! TA.AperFunction,NonPlated,NPTH,ComponentDrill
T2C1.152
; #@! TA.AperFunction,NonPlated,NPTH,ComponentDrill
T3C2.000
%
G90
G05
T1
X25.005Y-49.509
X25.005Y-50.0
X25.005Y-50.491
X25.005Y-101.509
X25.005Y-102.0
X25.005Y-102.491
X25.024Y-49.019
X25.024Y-50.981
X25.024Y-101.019
X25.024Y-102.981
X25.043Y-48.528
X25.043Y-51.472
X25.043Y-100.528
X25.043Y-103.472
X25.082Y-48.039
X25.082Y-51.961
X25.082Y-100.039
X25.082Y-103.961
X48.039Y-74.918
X48.039Y-77.082
X48.528Y-74.957
X48.528Y-77.043
X49.019Y-77.024
X49.019Y-74.976
X49.509Y-74.995
X49.509Y-77.005
X50.0Y-74.995
X50.0Y-77.005
X50.491Y-74.995
X50.491Y-77.005
X50.981Y-74.976
X50.981Y-77.024
X51.472Y-74.957
X51.472Y-77.043
X51.961Y-77.082
X51.961Y-74.918
X74.918Y-48.039
X74.918Y-51.961
X74.918Y-100.039
X74.918Y-103.961
X74.957Y-48.528
X74.957Y-51.472
X74.957Y-100.528
X74.957Y-103.472
X74.976Y-49.019
X74.976Y-101.019
X74.976Y-50.981
X74.976Y-102.981
X74.995Y-49.509
X74.995Y-50.0
X74.995Y-50.491
X74.995Y-101.509
X74.995Y-102.0
X74.995Y-102.491
X77.005Y-49.509
X77.005Y-50.0
X77.005Y-50.491
X77.005Y-101.509
X77.005Y-102.0
X77.005Y-102.491
X77.024Y-49.019
X77.024Y-50.981
X77.024Y-101.019
X77.024Y-102.981
X77.043Y-48.528
X77.043Y-51.472
X77.043Y-100.528
X77.043Y-103.472
X77.082Y-48.039
X77.082Y-51.961
X77.082Y-100.039
X77.082Y-103.961
X100.039Y-74.918
X100.039Y-77.082
X100.528Y-74.957
X100.528Y-77.043
X101.019Y-77.024
X101.019Y-74.976
X101.509Y-74.995
X101.509Y-77.005
X102.0Y-74.995
X102.0Y-77.005
X102.491Y-74.995
X102.491Y-77.005
X102.981Y-74.976
X102.981Y-77.024
X103.472Y-74.957
X103.472Y-77.043
X103.961Y-77.082
X103.961Y-74.918
X126.918Y-48.039
X126.918Y-51.961
X126.918Y-100.039
X126.918Y-103.961
X126.957Y-48.528
X126.957Y-51.472
X126.957Y-100.528
X126.957Y-103.472
X126.976Y-49.019
X126.976Y-101.019
X126.976Y-50.981
X126.976Y-102.981
X126.995Y-49.509
X126.995Y-50.0
X126.995Y-50.491
X126.995Y-101.509
X126.995Y-102.0
X126.995Y-102.491
T2
X20.0Y-27.0
X20.0Y-76.0
X132.0Y-76.0
X132.0Y-125.0
T3
X20.5Y-31.0
X20.5Y-121.0
X131.5Y-31.0
X131.5Y-121.0
M30
