%TF.GenerationSoftware,KiCad,Pcbnew,9.0.0*%
%TF.CreationDate,2025-02-27T10:20:03-06:00*%
%TF.ProjectId,reverse-panel,72657665-7273-4652-9d70-616e656c2e6b,rev?*%
%TF.SameCoordinates,Original*%
%TF.FileFunction,Legend,Bot*%
%TF.FilePolarity,Positive*%
%FSLAX46Y46*%
G04 Gerber Fmt 4.6, Leading zero omitted, Abs format (unit mm)*
G04 Created by KiCad (PCBNEW 9.0.0) date 2025-02-27 10:20:03*
%MOMM*%
%LPD*%
G01*
G04 APERTURE LIST*
%ADD10C,0.000000*%
%ADD11C,0.100000*%
%ADD12C,0.300000*%
%ADD13C,0.150000*%
%ADD14C,0.120000*%
%ADD15C,2.000000*%
%ADD16C,1.152000*%
%ADD17C,0.300000*%
%ADD18C,1.600000*%
%ADD19R,1.000000X1.000000*%
%ADD20O,1.000000X1.000000*%
%ADD21O,1.200000X4.200000*%
G04 APERTURE END LIST*
D10*
G36*
X47604167Y-68516666D02*
G01*
X47075000Y-68516666D01*
X46545833Y-68516666D01*
X46016667Y-68516666D01*
X45487500Y-68516666D01*
X44958334Y-68516666D01*
X44958334Y-67987500D01*
X45487500Y-67987500D01*
X46016667Y-67987500D01*
X46545833Y-67987500D01*
X47075000Y-67987500D01*
X47604167Y-67987500D01*
X47604167Y-68516666D01*
G37*
G36*
X50250000Y-118929166D02*
G01*
X50779166Y-118929166D01*
X50779166Y-119458333D01*
X50250000Y-119458333D01*
X49720833Y-119458333D01*
X49720833Y-118929166D01*
X49191667Y-118929166D01*
X49191667Y-118400000D01*
X49720833Y-118400000D01*
X50250000Y-118400000D01*
X50250000Y-118929166D01*
G37*
G36*
X51308333Y-70104166D02*
G01*
X50779166Y-70104166D01*
X50779166Y-69575000D01*
X51308333Y-69575000D01*
X51308333Y-70104166D01*
G37*
G36*
X102250000Y-114166667D02*
G01*
X102779166Y-114166667D01*
X102779166Y-114695833D01*
X102250000Y-114695833D01*
X102250000Y-115225000D01*
X101720833Y-115225000D01*
X101720833Y-114695833D01*
X101191667Y-114695833D01*
X101191667Y-114166667D01*
X101720833Y-114166667D01*
X101720833Y-113637500D01*
X102250000Y-113637500D01*
X102250000Y-114166667D01*
G37*
G36*
X50779166Y-60050000D02*
G01*
X50250000Y-60050000D01*
X50250000Y-59520834D01*
X50779166Y-59520834D01*
X50779166Y-60050000D01*
G37*
G36*
X49720833Y-116812500D02*
G01*
X50250000Y-116812500D01*
X50250000Y-117341667D01*
X49720833Y-117341667D01*
X49720833Y-117870833D01*
X49191667Y-117870833D01*
X49191667Y-117341667D01*
X48662500Y-117341667D01*
X48662500Y-116812500D01*
X49191667Y-116812500D01*
X49191667Y-116283333D01*
X49720833Y-116283333D01*
X49720833Y-116812500D01*
G37*
G36*
X44958334Y-67987500D02*
G01*
X44429167Y-67987500D01*
X44429167Y-67458333D01*
X44958334Y-67458333D01*
X44958334Y-67987500D01*
G37*
G36*
X101720833Y-67987500D02*
G01*
X101191667Y-67987500D01*
X101191667Y-67458333D01*
X101720833Y-67458333D01*
X101720833Y-67987500D01*
G37*
G36*
X105954166Y-71691666D02*
G01*
X105425000Y-71691666D01*
X105425000Y-71162500D01*
X105954166Y-71162500D01*
X105954166Y-71691666D01*
G37*
G36*
X46016667Y-119458333D02*
G01*
X45487500Y-119458333D01*
X45487500Y-118929166D01*
X46016667Y-118929166D01*
X46016667Y-119458333D01*
G37*
G36*
X102779166Y-70633333D02*
G01*
X102250000Y-70633333D01*
X102250000Y-70104166D01*
X102779166Y-70104166D01*
X102779166Y-70633333D01*
G37*
G36*
X101191667Y-115225000D02*
G01*
X100662500Y-115225000D01*
X100662500Y-114695833D01*
X101191667Y-114695833D01*
X101191667Y-115225000D01*
G37*
G36*
X99075000Y-69575000D02*
G01*
X99075000Y-70104166D01*
X99075000Y-70633333D01*
X99075000Y-71162500D01*
X99075000Y-71691666D01*
X99075000Y-72220833D01*
X99075000Y-72750000D01*
X98545833Y-72750000D01*
X98016667Y-72750000D01*
X97487500Y-72750000D01*
X96958334Y-72750000D01*
X96429167Y-72750000D01*
X95900000Y-72750000D01*
X95370834Y-72750000D01*
X95370834Y-72220833D01*
X95370834Y-71691666D01*
X95370834Y-71162500D01*
X95370834Y-70633333D01*
X95900000Y-70633333D01*
X95900000Y-71162500D01*
X95900000Y-71691666D01*
X95900000Y-72220833D01*
X96429167Y-72220833D01*
X96958334Y-72220833D01*
X97487500Y-72220833D01*
X98016667Y-72220833D01*
X98545833Y-72220833D01*
X98545833Y-71691666D01*
X98545833Y-71162500D01*
X98545833Y-70633333D01*
X98545833Y-70104166D01*
X98545833Y-69575000D01*
X98016667Y-69575000D01*
X97487500Y-69575000D01*
X96958334Y-69575000D01*
X96429167Y-69575000D01*
X95900000Y-69575000D01*
X95900000Y-70104166D01*
X95900000Y-70633333D01*
X95370834Y-70633333D01*
X95370834Y-70104166D01*
X95370834Y-69575000D01*
X95370834Y-69045833D01*
X95900000Y-69045833D01*
X96429167Y-69045833D01*
X96958334Y-69045833D01*
X97487500Y-69045833D01*
X98016667Y-69045833D01*
X98545833Y-69045833D01*
X99075000Y-69045833D01*
X99075000Y-69575000D01*
G37*
G36*
X99075000Y-60050000D02*
G01*
X99075000Y-60579167D01*
X99075000Y-61108334D01*
X99075000Y-61637500D01*
X99075000Y-62166667D01*
X99075000Y-62695833D01*
X99075000Y-63225000D01*
X98545833Y-63225000D01*
X98016667Y-63225000D01*
X97487500Y-63225000D01*
X96958334Y-63225000D01*
X96429167Y-63225000D01*
X95900000Y-63225000D01*
X95370834Y-63225000D01*
X95370834Y-62695833D01*
X95370834Y-62166667D01*
X95370834Y-61637500D01*
X95370834Y-61108334D01*
X95900000Y-61108334D01*
X95900000Y-61637500D01*
X95900000Y-62166667D01*
X95900000Y-62695833D01*
X96429167Y-62695833D01*
X96958334Y-62695833D01*
X97487500Y-62695833D01*
X98016667Y-62695833D01*
X98545833Y-62695833D01*
X98545833Y-62166667D01*
X98545833Y-61637500D01*
X98545833Y-61108334D01*
X98545833Y-60579167D01*
X98545833Y-60050000D01*
X98016667Y-60050000D01*
X97487500Y-60050000D01*
X96958334Y-60050000D01*
X96429167Y-60050000D01*
X95900000Y-60050000D01*
X95900000Y-60579167D01*
X95900000Y-61108334D01*
X95370834Y-61108334D01*
X95370834Y-60579167D01*
X95370834Y-60050000D01*
X95370834Y-59520834D01*
X95900000Y-59520834D01*
X96429167Y-59520834D01*
X96958334Y-59520834D01*
X97487500Y-59520834D01*
X98016667Y-59520834D01*
X98545833Y-59520834D01*
X99075000Y-59520834D01*
X99075000Y-60050000D01*
G37*
G36*
X49720833Y-60050000D02*
G01*
X50250000Y-60050000D01*
X50250000Y-60579167D01*
X49720833Y-60579167D01*
X49720833Y-61108334D01*
X49191667Y-61108334D01*
X48662500Y-61108334D01*
X48662500Y-61637500D01*
X49191667Y-61637500D01*
X49191667Y-62166667D01*
X48662500Y-62166667D01*
X48662500Y-62695833D01*
X48133333Y-62695833D01*
X48133333Y-63225000D01*
X47604167Y-63225000D01*
X47604167Y-62695833D01*
X47604167Y-62166667D01*
X48133333Y-62166667D01*
X48133333Y-61637500D01*
X47604167Y-61637500D01*
X47604167Y-61108334D01*
X48133333Y-61108334D01*
X48133333Y-60579167D01*
X48662500Y-60579167D01*
X49191667Y-60579167D01*
X49191667Y-60050000D01*
X49191667Y-59520834D01*
X49720833Y-59520834D01*
X49720833Y-60050000D01*
G37*
G36*
X108600000Y-60050000D02*
G01*
X108600000Y-60579167D01*
X108600000Y-61108334D01*
X108600000Y-61637500D01*
X108600000Y-62166667D01*
X108600000Y-62695833D01*
X108600000Y-63225000D01*
X108070833Y-63225000D01*
X107541666Y-63225000D01*
X107012500Y-63225000D01*
X106483333Y-63225000D01*
X105954166Y-63225000D01*
X105425000Y-63225000D01*
X104895833Y-63225000D01*
X104895833Y-62695833D01*
X104895833Y-62166667D01*
X104895833Y-61637500D01*
X104895833Y-61108334D01*
X105425000Y-61108334D01*
X105425000Y-61637500D01*
X105425000Y-62166667D01*
X105425000Y-62695833D01*
X105954166Y-62695833D01*
X106483333Y-62695833D01*
X107012500Y-62695833D01*
X107541666Y-62695833D01*
X108070833Y-62695833D01*
X108070833Y-62166667D01*
X108070833Y-61637500D01*
X108070833Y-61108334D01*
X108070833Y-60579167D01*
X108070833Y-60050000D01*
X107541666Y-60050000D01*
X107012500Y-60050000D01*
X106483333Y-60050000D01*
X105954166Y-60050000D01*
X105425000Y-60050000D01*
X105425000Y-60579167D01*
X105425000Y-61108334D01*
X104895833Y-61108334D01*
X104895833Y-60579167D01*
X104895833Y-60050000D01*
X104895833Y-59520834D01*
X105425000Y-59520834D01*
X105954166Y-59520834D01*
X106483333Y-59520834D01*
X107012500Y-59520834D01*
X107541666Y-59520834D01*
X108070833Y-59520834D01*
X108600000Y-59520834D01*
X108600000Y-60050000D01*
G37*
G36*
X103308333Y-63225000D02*
G01*
X103308333Y-63754167D01*
X103837500Y-63754167D01*
X103837500Y-64283333D01*
X103308333Y-64283333D01*
X102779166Y-64283333D01*
X102779166Y-63754167D01*
X102779166Y-63225000D01*
X102779166Y-62695833D01*
X103308333Y-62695833D01*
X103308333Y-63225000D01*
G37*
G36*
X48662500Y-112050000D02*
G01*
X48133333Y-112050000D01*
X48133333Y-111520834D01*
X48662500Y-111520834D01*
X48662500Y-112050000D01*
G37*
G36*
X102779166Y-65870833D02*
G01*
X102779166Y-66400000D01*
X102250000Y-66400000D01*
X102250000Y-65870833D01*
X102250000Y-65341667D01*
X102779166Y-65341667D01*
X102779166Y-65870833D01*
G37*
G36*
X100662500Y-115754167D02*
G01*
X100662500Y-116283333D01*
X100133333Y-116283333D01*
X99604167Y-116283333D01*
X99075000Y-116283333D01*
X98545833Y-116283333D01*
X98545833Y-115754167D01*
X99075000Y-115754167D01*
X99604167Y-115754167D01*
X100133333Y-115754167D01*
X100133333Y-115225000D01*
X100662500Y-115225000D01*
X100662500Y-115754167D01*
G37*
G36*
X100662500Y-63754167D02*
G01*
X100662500Y-64283333D01*
X100133333Y-64283333D01*
X99604167Y-64283333D01*
X99075000Y-64283333D01*
X98545833Y-64283333D01*
X98545833Y-63754167D01*
X99075000Y-63754167D01*
X99604167Y-63754167D01*
X100133333Y-63754167D01*
X100133333Y-63225000D01*
X100662500Y-63225000D01*
X100662500Y-63754167D01*
G37*
G36*
X100662500Y-60050000D02*
G01*
X100133333Y-60050000D01*
X100133333Y-59520834D01*
X100662500Y-59520834D01*
X100662500Y-60050000D01*
G37*
G36*
X103308333Y-122104166D02*
G01*
X102779166Y-122104166D01*
X102779166Y-121575000D01*
X103308333Y-121575000D01*
X103308333Y-122104166D01*
G37*
G36*
X102250000Y-66929166D02*
G01*
X102779166Y-66929166D01*
X102779166Y-67458333D01*
X102250000Y-67458333D01*
X101720833Y-67458333D01*
X101720833Y-66929166D01*
X101191667Y-66929166D01*
X101191667Y-66400000D01*
X101720833Y-66400000D01*
X102250000Y-66400000D01*
X102250000Y-66929166D01*
G37*
G36*
X47075000Y-67458333D02*
G01*
X46545833Y-67458333D01*
X46545833Y-66929166D01*
X47075000Y-66929166D01*
X47075000Y-67458333D01*
G37*
G36*
X51308333Y-115225000D02*
G01*
X51308333Y-115754167D01*
X51837500Y-115754167D01*
X51837500Y-116283333D01*
X51308333Y-116283333D01*
X50779166Y-116283333D01*
X50779166Y-115754167D01*
X50779166Y-115225000D01*
X50779166Y-114695833D01*
X51308333Y-114695833D01*
X51308333Y-115225000D01*
G37*
G36*
X102250000Y-118929166D02*
G01*
X102779166Y-118929166D01*
X102779166Y-119458333D01*
X102250000Y-119458333D01*
X101720833Y-119458333D01*
X101720833Y-118929166D01*
X101191667Y-118929166D01*
X101191667Y-118400000D01*
X101720833Y-118400000D01*
X102250000Y-118400000D01*
X102250000Y-118929166D01*
G37*
G36*
X44429167Y-117870833D02*
G01*
X43900000Y-117870833D01*
X43900000Y-117341667D01*
X44429167Y-117341667D01*
X44429167Y-117870833D01*
G37*
G36*
X49720833Y-63754167D02*
G01*
X49191667Y-63754167D01*
X49191667Y-63225000D01*
X49720833Y-63225000D01*
X49720833Y-63754167D01*
G37*
G36*
X103308333Y-72220833D02*
G01*
X102779166Y-72220833D01*
X102779166Y-71691666D01*
X103308333Y-71691666D01*
X103308333Y-72220833D01*
G37*
G36*
X56070833Y-64283333D02*
G01*
X56070833Y-64812500D01*
X56600000Y-64812500D01*
X56600000Y-65341667D01*
X56600000Y-65870833D01*
X56070833Y-65870833D01*
X55541666Y-65870833D01*
X55541666Y-65341667D01*
X55541666Y-64812500D01*
X55541666Y-64283333D01*
X55541666Y-63754167D01*
X56070833Y-63754167D01*
X56070833Y-64283333D01*
G37*
G36*
X49191667Y-67458333D02*
G01*
X48662500Y-67458333D01*
X48133333Y-67458333D01*
X48133333Y-66929166D01*
X48662500Y-66929166D01*
X49191667Y-66929166D01*
X49191667Y-67458333D01*
G37*
G36*
X50779166Y-112050000D02*
G01*
X50250000Y-112050000D01*
X50250000Y-111520834D01*
X50779166Y-111520834D01*
X50779166Y-112050000D01*
G37*
G36*
X108600000Y-69575000D02*
G01*
X108070833Y-69575000D01*
X108070833Y-70104166D01*
X107541666Y-70104166D01*
X107541666Y-69575000D01*
X107541666Y-69045833D01*
X108070833Y-69045833D01*
X108600000Y-69045833D01*
X108600000Y-69575000D01*
G37*
G36*
X49720833Y-119987500D02*
G01*
X49191667Y-119987500D01*
X49191667Y-119458333D01*
X49720833Y-119458333D01*
X49720833Y-119987500D01*
G37*
G36*
X103837500Y-119458333D02*
G01*
X104366666Y-119458333D01*
X104366666Y-118929166D01*
X104895833Y-118929166D01*
X104895833Y-119458333D01*
X104895833Y-119987500D01*
X105425000Y-119987500D01*
X105954166Y-119987500D01*
X106483333Y-119987500D01*
X106483333Y-120516666D01*
X106483333Y-121045833D01*
X106483333Y-121575000D01*
X106483333Y-122104166D01*
X107012500Y-122104166D01*
X107541666Y-122104166D01*
X107541666Y-122633333D01*
X108070833Y-122633333D01*
X108070833Y-122104166D01*
X108600000Y-122104166D01*
X108600000Y-122633333D01*
X108600000Y-123162500D01*
X108600000Y-123691666D01*
X108600000Y-124220833D01*
X108600000Y-124750000D01*
X108070833Y-124750000D01*
X107541666Y-124750000D01*
X107012500Y-124750000D01*
X106483333Y-124750000D01*
X105954166Y-124750000D01*
X105425000Y-124750000D01*
X104895833Y-124750000D01*
X104366666Y-124750000D01*
X104366666Y-124220833D01*
X103837500Y-124220833D01*
X103837500Y-123691666D01*
X104366666Y-123691666D01*
X104895833Y-123691666D01*
X105425000Y-123691666D01*
X105425000Y-124220833D01*
X105954166Y-124220833D01*
X107012500Y-124220833D01*
X107541666Y-124220833D01*
X108070833Y-124220833D01*
X108070833Y-123691666D01*
X108070833Y-123162500D01*
X107541666Y-123162500D01*
X107541666Y-123691666D01*
X107012500Y-123691666D01*
X107012500Y-124220833D01*
X105954166Y-124220833D01*
X105954166Y-123691666D01*
X106483333Y-123691666D01*
X106483333Y-123162500D01*
X105954166Y-123162500D01*
X105954166Y-122633333D01*
X107012500Y-122633333D01*
X107012500Y-123162500D01*
X107541666Y-123162500D01*
X107541666Y-122633333D01*
X107012500Y-122633333D01*
X105954166Y-122633333D01*
X105425000Y-122633333D01*
X105425000Y-123162500D01*
X104895833Y-123162500D01*
X104366666Y-123162500D01*
X104366666Y-122633333D01*
X103837500Y-122633333D01*
X103308333Y-122633333D01*
X103308333Y-122104166D01*
X103837500Y-122104166D01*
X103837500Y-121575000D01*
X104366666Y-121575000D01*
X104366666Y-122104166D01*
X104895833Y-122104166D01*
X105425000Y-122104166D01*
X105954166Y-122104166D01*
X105954166Y-121575000D01*
X105954166Y-121045833D01*
X105954166Y-120516666D01*
X105425000Y-120516666D01*
X104895833Y-120516666D01*
X104366666Y-120516666D01*
X104366666Y-121045833D01*
X104366666Y-121575000D01*
X103837500Y-121575000D01*
X103837500Y-121045833D01*
X103837500Y-120516666D01*
X103308333Y-120516666D01*
X102779166Y-120516666D01*
X102250000Y-120516666D01*
X102250000Y-119987500D01*
X102779166Y-119987500D01*
X102779166Y-119458333D01*
X103308333Y-119458333D01*
X103308333Y-118929166D01*
X103837500Y-118929166D01*
X103837500Y-119458333D01*
G37*
G36*
X100662500Y-120516666D02*
G01*
X101191667Y-120516666D01*
X101720833Y-120516666D01*
X101720833Y-121045833D01*
X102250000Y-121045833D01*
X102779166Y-121045833D01*
X102779166Y-121575000D01*
X102250000Y-121575000D01*
X102250000Y-122104166D01*
X101720833Y-122104166D01*
X101191667Y-122104166D01*
X101191667Y-122633333D01*
X101720833Y-122633333D01*
X101720833Y-123162500D01*
X101191667Y-123162500D01*
X100662500Y-123162500D01*
X100662500Y-123691666D01*
X100662500Y-124220833D01*
X100133333Y-124220833D01*
X100133333Y-124750000D01*
X99604167Y-124750000D01*
X99604167Y-124220833D01*
X99604167Y-123691666D01*
X99604167Y-123162500D01*
X99604167Y-122633333D01*
X99604167Y-122104166D01*
X100133333Y-122104166D01*
X100133333Y-122633333D01*
X100662500Y-122633333D01*
X100662500Y-122104166D01*
X100662500Y-121575000D01*
X100662500Y-121045833D01*
X100133333Y-121045833D01*
X100133333Y-121575000D01*
X99604167Y-121575000D01*
X99604167Y-121045833D01*
X99604167Y-120516666D01*
X100133333Y-120516666D01*
X100133333Y-119987500D01*
X100662500Y-119987500D01*
X100662500Y-120516666D01*
G37*
G36*
X104366666Y-60050000D02*
G01*
X103837500Y-60050000D01*
X103837500Y-59520834D01*
X104366666Y-59520834D01*
X104366666Y-60050000D01*
G37*
G36*
X47604167Y-120516666D02*
G01*
X47075000Y-120516666D01*
X46545833Y-120516666D01*
X46016667Y-120516666D01*
X45487500Y-120516666D01*
X44958334Y-120516666D01*
X44958334Y-119987500D01*
X45487500Y-119987500D01*
X46016667Y-119987500D01*
X46545833Y-119987500D01*
X47075000Y-119987500D01*
X47604167Y-119987500D01*
X47604167Y-120516666D01*
G37*
G36*
X99075000Y-67458333D02*
G01*
X98545833Y-67458333D01*
X98545833Y-66929166D01*
X99075000Y-66929166D01*
X99075000Y-67458333D01*
G37*
G36*
X51308333Y-122104166D02*
G01*
X50779166Y-122104166D01*
X50779166Y-121575000D01*
X51308333Y-121575000D01*
X51308333Y-122104166D01*
G37*
G36*
X105425000Y-121575000D02*
G01*
X104895833Y-121575000D01*
X104895833Y-121045833D01*
X105425000Y-121045833D01*
X105425000Y-121575000D01*
G37*
G36*
X51308333Y-123162500D02*
G01*
X50779166Y-123162500D01*
X50779166Y-122633333D01*
X51308333Y-122633333D01*
X51308333Y-123162500D01*
G37*
G36*
X44429167Y-65870833D02*
G01*
X43900000Y-65870833D01*
X43900000Y-65341667D01*
X44429167Y-65341667D01*
X44429167Y-65870833D01*
G37*
G36*
X102779166Y-123691666D02*
G01*
X102250000Y-123691666D01*
X102250000Y-123162500D01*
X102779166Y-123162500D01*
X102779166Y-123691666D01*
G37*
G36*
X107541666Y-113108334D02*
G01*
X107541666Y-113637500D01*
X107541666Y-114166667D01*
X107012500Y-114166667D01*
X106483333Y-114166667D01*
X105954166Y-114166667D01*
X105954166Y-113637500D01*
X105954166Y-113108334D01*
X105954166Y-112579167D01*
X106483333Y-112579167D01*
X107012500Y-112579167D01*
X107541666Y-112579167D01*
X107541666Y-113108334D01*
G37*
G36*
X51837500Y-119458333D02*
G01*
X52366666Y-119458333D01*
X52366666Y-118929166D01*
X52895833Y-118929166D01*
X52895833Y-119458333D01*
X52895833Y-119987500D01*
X53425000Y-119987500D01*
X53954166Y-119987500D01*
X54483333Y-119987500D01*
X54483333Y-120516666D01*
X54483333Y-121045833D01*
X54483333Y-121575000D01*
X54483333Y-122104166D01*
X55012500Y-122104166D01*
X55541666Y-122104166D01*
X55541666Y-122633333D01*
X56070833Y-122633333D01*
X56070833Y-122104166D01*
X56600000Y-122104166D01*
X56600000Y-122633333D01*
X56600000Y-123162500D01*
X56600000Y-123691666D01*
X56600000Y-124220833D01*
X56600000Y-124750000D01*
X56070833Y-124750000D01*
X55541666Y-124750000D01*
X55012500Y-124750000D01*
X54483333Y-124750000D01*
X53954166Y-124750000D01*
X53425000Y-124750000D01*
X52895833Y-124750000D01*
X52366666Y-124750000D01*
X52366666Y-124220833D01*
X51837500Y-124220833D01*
X51837500Y-123691666D01*
X52366666Y-123691666D01*
X52895833Y-123691666D01*
X53425000Y-123691666D01*
X53425000Y-124220833D01*
X53954166Y-124220833D01*
X55012500Y-124220833D01*
X55541666Y-124220833D01*
X56070833Y-124220833D01*
X56070833Y-123691666D01*
X56070833Y-123162500D01*
X55541666Y-123162500D01*
X55541666Y-123691666D01*
X55012500Y-123691666D01*
X55012500Y-124220833D01*
X53954166Y-124220833D01*
X53954166Y-123691666D01*
X54483333Y-123691666D01*
X54483333Y-123162500D01*
X53954166Y-123162500D01*
X53954166Y-122633333D01*
X55012500Y-122633333D01*
X55012500Y-123162500D01*
X55541666Y-123162500D01*
X55541666Y-122633333D01*
X55012500Y-122633333D01*
X53954166Y-122633333D01*
X53425000Y-122633333D01*
X53425000Y-123162500D01*
X52895833Y-123162500D01*
X52366666Y-123162500D01*
X52366666Y-122633333D01*
X51837500Y-122633333D01*
X51308333Y-122633333D01*
X51308333Y-122104166D01*
X51837500Y-122104166D01*
X51837500Y-121575000D01*
X52366666Y-121575000D01*
X52366666Y-122104166D01*
X52895833Y-122104166D01*
X53425000Y-122104166D01*
X53954166Y-122104166D01*
X53954166Y-121575000D01*
X53954166Y-121045833D01*
X53954166Y-120516666D01*
X53425000Y-120516666D01*
X52895833Y-120516666D01*
X52366666Y-120516666D01*
X52366666Y-121045833D01*
X52366666Y-121575000D01*
X51837500Y-121575000D01*
X51837500Y-121045833D01*
X51837500Y-120516666D01*
X51308333Y-120516666D01*
X50779166Y-120516666D01*
X50250000Y-120516666D01*
X50250000Y-119987500D01*
X50779166Y-119987500D01*
X50779166Y-119458333D01*
X51308333Y-119458333D01*
X51308333Y-118929166D01*
X51837500Y-118929166D01*
X51837500Y-119458333D01*
G37*
G36*
X47075000Y-60050000D02*
G01*
X47075000Y-60579167D01*
X47075000Y-61108334D01*
X47075000Y-61637500D01*
X47075000Y-62166667D01*
X47075000Y-62695833D01*
X47075000Y-63225000D01*
X46545833Y-63225000D01*
X46016667Y-63225000D01*
X45487500Y-63225000D01*
X44958334Y-63225000D01*
X44429167Y-63225000D01*
X43900000Y-63225000D01*
X43370834Y-63225000D01*
X43370834Y-62695833D01*
X43370834Y-62166667D01*
X43370834Y-61637500D01*
X43370834Y-61108334D01*
X43900000Y-61108334D01*
X43900000Y-61637500D01*
X43900000Y-62166667D01*
X43900000Y-62695833D01*
X44429167Y-62695833D01*
X44958334Y-62695833D01*
X45487500Y-62695833D01*
X46016667Y-62695833D01*
X46545833Y-62695833D01*
X46545833Y-62166667D01*
X46545833Y-61637500D01*
X46545833Y-61108334D01*
X46545833Y-60579167D01*
X46545833Y-60050000D01*
X46016667Y-60050000D01*
X45487500Y-60050000D01*
X44958334Y-60050000D01*
X44429167Y-60050000D01*
X43900000Y-60050000D01*
X43900000Y-60579167D01*
X43900000Y-61108334D01*
X43370834Y-61108334D01*
X43370834Y-60579167D01*
X43370834Y-60050000D01*
X43370834Y-59520834D01*
X43900000Y-59520834D01*
X44429167Y-59520834D01*
X44958334Y-59520834D01*
X45487500Y-59520834D01*
X46016667Y-59520834D01*
X46545833Y-59520834D01*
X47075000Y-59520834D01*
X47075000Y-60050000D01*
G37*
G36*
X104366666Y-118929166D02*
G01*
X103837500Y-118929166D01*
X103837500Y-118400000D01*
X104366666Y-118400000D01*
X104366666Y-118929166D01*
G37*
G36*
X105954166Y-116283333D02*
G01*
X105954166Y-116812500D01*
X106483333Y-116812500D01*
X107012500Y-116812500D01*
X107012500Y-117341667D01*
X106483333Y-117341667D01*
X106483333Y-117870833D01*
X107012500Y-117870833D01*
X107541666Y-117870833D01*
X107541666Y-118400000D01*
X107541666Y-118929166D01*
X107012500Y-118929166D01*
X107012500Y-119458333D01*
X106483333Y-119458333D01*
X105954166Y-119458333D01*
X105425000Y-119458333D01*
X105425000Y-118929166D01*
X105425000Y-118400000D01*
X105954166Y-118400000D01*
X105954166Y-118929166D01*
X106483333Y-118929166D01*
X106483333Y-118400000D01*
X105954166Y-118400000D01*
X105954166Y-117870833D01*
X105425000Y-117870833D01*
X105425000Y-118400000D01*
X104895833Y-118400000D01*
X104895833Y-117870833D01*
X104366666Y-117870833D01*
X103837500Y-117870833D01*
X103837500Y-118400000D01*
X103308333Y-118400000D01*
X103308333Y-117870833D01*
X103308333Y-117341667D01*
X103308333Y-116812500D01*
X103837500Y-116812500D01*
X103837500Y-116283333D01*
X104366666Y-116283333D01*
X104366666Y-116812500D01*
X104895833Y-116812500D01*
X104895833Y-117341667D01*
X105425000Y-117341667D01*
X105425000Y-116812500D01*
X105425000Y-116283333D01*
X105425000Y-115754167D01*
X105954166Y-115754167D01*
X105954166Y-116283333D01*
G37*
G36*
X49720833Y-64812500D02*
G01*
X50250000Y-64812500D01*
X50250000Y-65341667D01*
X49720833Y-65341667D01*
X49720833Y-65870833D01*
X49191667Y-65870833D01*
X49191667Y-65341667D01*
X48662500Y-65341667D01*
X48662500Y-64812500D01*
X49191667Y-64812500D01*
X49191667Y-64283333D01*
X49720833Y-64283333D01*
X49720833Y-64812500D01*
G37*
G36*
X51837500Y-60579167D02*
G01*
X52366666Y-60579167D01*
X52366666Y-61108334D01*
X52366666Y-61637500D01*
X52366666Y-62166667D01*
X52366666Y-62695833D01*
X52366666Y-63225000D01*
X51837500Y-63225000D01*
X51837500Y-62695833D01*
X51308333Y-62695833D01*
X51308333Y-62166667D01*
X51837500Y-62166667D01*
X51837500Y-61637500D01*
X51308333Y-61637500D01*
X50779166Y-61637500D01*
X50250000Y-61637500D01*
X50250000Y-61108334D01*
X50779166Y-61108334D01*
X50779166Y-60579167D01*
X51308333Y-60579167D01*
X51308333Y-60050000D01*
X51837500Y-60050000D01*
X51837500Y-60579167D01*
G37*
G36*
X101720833Y-64812500D02*
G01*
X102250000Y-64812500D01*
X102250000Y-65341667D01*
X101720833Y-65341667D01*
X101720833Y-65870833D01*
X101191667Y-65870833D01*
X101191667Y-65341667D01*
X100662500Y-65341667D01*
X100662500Y-64812500D01*
X101191667Y-64812500D01*
X101191667Y-64283333D01*
X101720833Y-64283333D01*
X101720833Y-64812500D01*
G37*
G36*
X100133333Y-119987500D02*
G01*
X99604167Y-119987500D01*
X99604167Y-119458333D01*
X100133333Y-119458333D01*
X100133333Y-119987500D01*
G37*
G36*
X46016667Y-64283333D02*
G01*
X46545833Y-64283333D01*
X46545833Y-64812500D01*
X46016667Y-64812500D01*
X46016667Y-65341667D01*
X46545833Y-65341667D01*
X46545833Y-65870833D01*
X47075000Y-65870833D01*
X47075000Y-66400000D01*
X46545833Y-66400000D01*
X46545833Y-66929166D01*
X46016667Y-66929166D01*
X46016667Y-66400000D01*
X45487500Y-66400000D01*
X45487500Y-66929166D01*
X44958334Y-66929166D01*
X44429167Y-66929166D01*
X43900000Y-66929166D01*
X43900000Y-67458333D01*
X43900000Y-67987500D01*
X43900000Y-68516666D01*
X43370834Y-68516666D01*
X43370834Y-67987500D01*
X43370834Y-67458333D01*
X43370834Y-66929166D01*
X43370834Y-66400000D01*
X43370834Y-65870833D01*
X43900000Y-65870833D01*
X43900000Y-66400000D01*
X44429167Y-66400000D01*
X44429167Y-65870833D01*
X44958334Y-65870833D01*
X44958334Y-66400000D01*
X45487500Y-66400000D01*
X45487500Y-65870833D01*
X45487500Y-65341667D01*
X44958334Y-65341667D01*
X44958334Y-64812500D01*
X44429167Y-64812500D01*
X43900000Y-64812500D01*
X43900000Y-65341667D01*
X43370834Y-65341667D01*
X43370834Y-64812500D01*
X43370834Y-64283333D01*
X43370834Y-63754167D01*
X43900000Y-63754167D01*
X44429167Y-63754167D01*
X44958334Y-63754167D01*
X45487500Y-63754167D01*
X46016667Y-63754167D01*
X46016667Y-64283333D01*
G37*
G36*
X50779166Y-65870833D02*
G01*
X50779166Y-66400000D01*
X50250000Y-66400000D01*
X50250000Y-65870833D01*
X50250000Y-65341667D01*
X50779166Y-65341667D01*
X50779166Y-65870833D01*
G37*
G36*
X48662500Y-60050000D02*
G01*
X48133333Y-60050000D01*
X48133333Y-59520834D01*
X48662500Y-59520834D01*
X48662500Y-60050000D01*
G37*
G36*
X47075000Y-119458333D02*
G01*
X46545833Y-119458333D01*
X46545833Y-118929166D01*
X47075000Y-118929166D01*
X47075000Y-119458333D01*
G37*
G36*
X56600000Y-60050000D02*
G01*
X56600000Y-60579167D01*
X56600000Y-61108334D01*
X56600000Y-61637500D01*
X56600000Y-62166667D01*
X56600000Y-62695833D01*
X56600000Y-63225000D01*
X56070833Y-63225000D01*
X55541666Y-63225000D01*
X55012500Y-63225000D01*
X54483333Y-63225000D01*
X53954166Y-63225000D01*
X53425000Y-63225000D01*
X52895833Y-63225000D01*
X52895833Y-62695833D01*
X52895833Y-62166667D01*
X52895833Y-61637500D01*
X52895833Y-61108334D01*
X53425000Y-61108334D01*
X53425000Y-61637500D01*
X53425000Y-62166667D01*
X53425000Y-62695833D01*
X53954166Y-62695833D01*
X54483333Y-62695833D01*
X55012500Y-62695833D01*
X55541666Y-62695833D01*
X56070833Y-62695833D01*
X56070833Y-62166667D01*
X56070833Y-61637500D01*
X56070833Y-61108334D01*
X56070833Y-60579167D01*
X56070833Y-60050000D01*
X55541666Y-60050000D01*
X55012500Y-60050000D01*
X54483333Y-60050000D01*
X53954166Y-60050000D01*
X53425000Y-60050000D01*
X53425000Y-60579167D01*
X53425000Y-61108334D01*
X52895833Y-61108334D01*
X52895833Y-60579167D01*
X52895833Y-60050000D01*
X52895833Y-59520834D01*
X53425000Y-59520834D01*
X53954166Y-59520834D01*
X54483333Y-59520834D01*
X55012500Y-59520834D01*
X55541666Y-59520834D01*
X56070833Y-59520834D01*
X56600000Y-59520834D01*
X56600000Y-60050000D01*
G37*
G36*
X107012500Y-64283333D02*
G01*
X106483333Y-64283333D01*
X106483333Y-63754167D01*
X107012500Y-63754167D01*
X107012500Y-64283333D01*
G37*
G36*
X101720833Y-112050000D02*
G01*
X102250000Y-112050000D01*
X102250000Y-112579167D01*
X101720833Y-112579167D01*
X101720833Y-113108334D01*
X101191667Y-113108334D01*
X100662500Y-113108334D01*
X100662500Y-113637500D01*
X101191667Y-113637500D01*
X101191667Y-114166667D01*
X100662500Y-114166667D01*
X100662500Y-114695833D01*
X100133333Y-114695833D01*
X100133333Y-115225000D01*
X99604167Y-115225000D01*
X99604167Y-114695833D01*
X99604167Y-114166667D01*
X100133333Y-114166667D01*
X100133333Y-113637500D01*
X99604167Y-113637500D01*
X99604167Y-113108334D01*
X100133333Y-113108334D01*
X100133333Y-112579167D01*
X100662500Y-112579167D01*
X101191667Y-112579167D01*
X101191667Y-112050000D01*
X101191667Y-111520834D01*
X101720833Y-111520834D01*
X101720833Y-112050000D01*
G37*
G36*
X108600000Y-112050000D02*
G01*
X108600000Y-112579167D01*
X108600000Y-113108334D01*
X108600000Y-113637500D01*
X108600000Y-114166667D01*
X108600000Y-114695833D01*
X108600000Y-115225000D01*
X108070833Y-115225000D01*
X107541666Y-115225000D01*
X107012500Y-115225000D01*
X106483333Y-115225000D01*
X105954166Y-115225000D01*
X105425000Y-115225000D01*
X104895833Y-115225000D01*
X104895833Y-114695833D01*
X104895833Y-114166667D01*
X104895833Y-113637500D01*
X104895833Y-113108334D01*
X105425000Y-113108334D01*
X105425000Y-113637500D01*
X105425000Y-114166667D01*
X105425000Y-114695833D01*
X105954166Y-114695833D01*
X106483333Y-114695833D01*
X107012500Y-114695833D01*
X107541666Y-114695833D01*
X108070833Y-114695833D01*
X108070833Y-114166667D01*
X108070833Y-113637500D01*
X108070833Y-113108334D01*
X108070833Y-112579167D01*
X108070833Y-112050000D01*
X107541666Y-112050000D01*
X107012500Y-112050000D01*
X106483333Y-112050000D01*
X105954166Y-112050000D01*
X105425000Y-112050000D01*
X105425000Y-112579167D01*
X105425000Y-113108334D01*
X104895833Y-113108334D01*
X104895833Y-112579167D01*
X104895833Y-112050000D01*
X104895833Y-111520834D01*
X105425000Y-111520834D01*
X105954166Y-111520834D01*
X106483333Y-111520834D01*
X107012500Y-111520834D01*
X107541666Y-111520834D01*
X108070833Y-111520834D01*
X108600000Y-111520834D01*
X108600000Y-112050000D01*
G37*
G36*
X96429167Y-65870833D02*
G01*
X95900000Y-65870833D01*
X95900000Y-65341667D01*
X96429167Y-65341667D01*
X96429167Y-65870833D01*
G37*
G36*
X48662500Y-115754167D02*
G01*
X48662500Y-116283333D01*
X48133333Y-116283333D01*
X47604167Y-116283333D01*
X47075000Y-116283333D01*
X46545833Y-116283333D01*
X46545833Y-115754167D01*
X47075000Y-115754167D01*
X47604167Y-115754167D01*
X48133333Y-115754167D01*
X48133333Y-115225000D01*
X48662500Y-115225000D01*
X48662500Y-115754167D01*
G37*
G36*
X48662500Y-68516666D02*
G01*
X49191667Y-68516666D01*
X49720833Y-68516666D01*
X49720833Y-69045833D01*
X50250000Y-69045833D01*
X50779166Y-69045833D01*
X50779166Y-69575000D01*
X50250000Y-69575000D01*
X50250000Y-70104166D01*
X49720833Y-70104166D01*
X49191667Y-70104166D01*
X49191667Y-70633333D01*
X49720833Y-70633333D01*
X49720833Y-71162500D01*
X49191667Y-71162500D01*
X48662500Y-71162500D01*
X48662500Y-71691666D01*
X48662500Y-72220833D01*
X48133333Y-72220833D01*
X48133333Y-72750000D01*
X47604167Y-72750000D01*
X47604167Y-72220833D01*
X47604167Y-71691666D01*
X47604167Y-71162500D01*
X47604167Y-70633333D01*
X47604167Y-70104166D01*
X48133333Y-70104166D01*
X48133333Y-70633333D01*
X48662500Y-70633333D01*
X48662500Y-70104166D01*
X48662500Y-69575000D01*
X48662500Y-69045833D01*
X48133333Y-69045833D01*
X48133333Y-69575000D01*
X47604167Y-69575000D01*
X47604167Y-69045833D01*
X47604167Y-68516666D01*
X48133333Y-68516666D01*
X48133333Y-67987500D01*
X48662500Y-67987500D01*
X48662500Y-68516666D01*
G37*
G36*
X103308333Y-115225000D02*
G01*
X103308333Y-115754167D01*
X103837500Y-115754167D01*
X103837500Y-116283333D01*
X103308333Y-116283333D01*
X102779166Y-116283333D01*
X102779166Y-115754167D01*
X102779166Y-115225000D01*
X102779166Y-114695833D01*
X103308333Y-114695833D01*
X103308333Y-115225000D01*
G37*
G36*
X108070833Y-64283333D02*
G01*
X108070833Y-64812500D01*
X108600000Y-64812500D01*
X108600000Y-65341667D01*
X108600000Y-65870833D01*
X108070833Y-65870833D01*
X107541666Y-65870833D01*
X107541666Y-65341667D01*
X107541666Y-64812500D01*
X107541666Y-64283333D01*
X107541666Y-63754167D01*
X108070833Y-63754167D01*
X108070833Y-64283333D01*
G37*
G36*
X101720833Y-63754167D02*
G01*
X101191667Y-63754167D01*
X101191667Y-63225000D01*
X101720833Y-63225000D01*
X101720833Y-63754167D01*
G37*
G36*
X50250000Y-72220833D02*
G01*
X49720833Y-72220833D01*
X49191667Y-72220833D01*
X49191667Y-71691666D01*
X49720833Y-71691666D01*
X50250000Y-71691666D01*
X50250000Y-72220833D01*
G37*
G36*
X98016667Y-64283333D02*
G01*
X98545833Y-64283333D01*
X98545833Y-64812500D01*
X98016667Y-64812500D01*
X98016667Y-65341667D01*
X98545833Y-65341667D01*
X98545833Y-65870833D01*
X99075000Y-65870833D01*
X99075000Y-66400000D01*
X98545833Y-66400000D01*
X98545833Y-66929166D01*
X98016667Y-66929166D01*
X98016667Y-66400000D01*
X97487500Y-66400000D01*
X97487500Y-66929166D01*
X96958334Y-66929166D01*
X96429167Y-66929166D01*
X95900000Y-66929166D01*
X95900000Y-67458333D01*
X95900000Y-67987500D01*
X95900000Y-68516666D01*
X95370834Y-68516666D01*
X95370834Y-67987500D01*
X95370834Y-67458333D01*
X95370834Y-66929166D01*
X95370834Y-66400000D01*
X95370834Y-65870833D01*
X95900000Y-65870833D01*
X95900000Y-66400000D01*
X96429167Y-66400000D01*
X96429167Y-65870833D01*
X96958334Y-65870833D01*
X96958334Y-66400000D01*
X97487500Y-66400000D01*
X97487500Y-65870833D01*
X97487500Y-65341667D01*
X96958334Y-65341667D01*
X96958334Y-64812500D01*
X96429167Y-64812500D01*
X95900000Y-64812500D01*
X95900000Y-65341667D01*
X95370834Y-65341667D01*
X95370834Y-64812500D01*
X95370834Y-64283333D01*
X95370834Y-63754167D01*
X95900000Y-63754167D01*
X96429167Y-63754167D01*
X96958334Y-63754167D01*
X97487500Y-63754167D01*
X98016667Y-63754167D01*
X98016667Y-64283333D01*
G37*
G36*
X96429167Y-117870833D02*
G01*
X95900000Y-117870833D01*
X95900000Y-117341667D01*
X96429167Y-117341667D01*
X96429167Y-117870833D01*
G37*
G36*
X99075000Y-119458333D02*
G01*
X98545833Y-119458333D01*
X98545833Y-118929166D01*
X99075000Y-118929166D01*
X99075000Y-119458333D01*
G37*
G36*
X49191667Y-115225000D02*
G01*
X48662500Y-115225000D01*
X48662500Y-114695833D01*
X49191667Y-114695833D01*
X49191667Y-115225000D01*
G37*
G36*
X102250000Y-72220833D02*
G01*
X101720833Y-72220833D01*
X101191667Y-72220833D01*
X101191667Y-71691666D01*
X101720833Y-71691666D01*
X102250000Y-71691666D01*
X102250000Y-72220833D01*
G37*
G36*
X50779166Y-71691666D02*
G01*
X50250000Y-71691666D01*
X50250000Y-71162500D01*
X50779166Y-71162500D01*
X50779166Y-71691666D01*
G37*
G36*
X56600000Y-112050000D02*
G01*
X56600000Y-112579167D01*
X56600000Y-113108334D01*
X56600000Y-113637500D01*
X56600000Y-114166667D01*
X56600000Y-114695833D01*
X56600000Y-115225000D01*
X56070833Y-115225000D01*
X55541666Y-115225000D01*
X55012500Y-115225000D01*
X54483333Y-115225000D01*
X53954166Y-115225000D01*
X53425000Y-115225000D01*
X52895833Y-115225000D01*
X52895833Y-114695833D01*
X52895833Y-114166667D01*
X52895833Y-113637500D01*
X52895833Y-113108334D01*
X53425000Y-113108334D01*
X53425000Y-113637500D01*
X53425000Y-114166667D01*
X53425000Y-114695833D01*
X53954166Y-114695833D01*
X54483333Y-114695833D01*
X55012500Y-114695833D01*
X55541666Y-114695833D01*
X56070833Y-114695833D01*
X56070833Y-114166667D01*
X56070833Y-113637500D01*
X56070833Y-113108334D01*
X56070833Y-112579167D01*
X56070833Y-112050000D01*
X55541666Y-112050000D01*
X55012500Y-112050000D01*
X54483333Y-112050000D01*
X53954166Y-112050000D01*
X53425000Y-112050000D01*
X53425000Y-112579167D01*
X53425000Y-113108334D01*
X52895833Y-113108334D01*
X52895833Y-112579167D01*
X52895833Y-112050000D01*
X52895833Y-111520834D01*
X53425000Y-111520834D01*
X53954166Y-111520834D01*
X54483333Y-111520834D01*
X55012500Y-111520834D01*
X55541666Y-111520834D01*
X56070833Y-111520834D01*
X56600000Y-111520834D01*
X56600000Y-112050000D01*
G37*
G36*
X47075000Y-112050000D02*
G01*
X47075000Y-112579167D01*
X47075000Y-113108334D01*
X47075000Y-113637500D01*
X47075000Y-114166667D01*
X47075000Y-114695833D01*
X47075000Y-115225000D01*
X46545833Y-115225000D01*
X46016667Y-115225000D01*
X45487500Y-115225000D01*
X44958334Y-115225000D01*
X44429167Y-115225000D01*
X43900000Y-115225000D01*
X43370834Y-115225000D01*
X43370834Y-114695833D01*
X43370834Y-114166667D01*
X43370834Y-113637500D01*
X43370834Y-113108334D01*
X43900000Y-113108334D01*
X43900000Y-113637500D01*
X43900000Y-114166667D01*
X43900000Y-114695833D01*
X44429167Y-114695833D01*
X44958334Y-114695833D01*
X45487500Y-114695833D01*
X46016667Y-114695833D01*
X46545833Y-114695833D01*
X46545833Y-114166667D01*
X46545833Y-113637500D01*
X46545833Y-113108334D01*
X46545833Y-112579167D01*
X46545833Y-112050000D01*
X46016667Y-112050000D01*
X45487500Y-112050000D01*
X44958334Y-112050000D01*
X44429167Y-112050000D01*
X43900000Y-112050000D01*
X43900000Y-112579167D01*
X43900000Y-113108334D01*
X43370834Y-113108334D01*
X43370834Y-112579167D01*
X43370834Y-112050000D01*
X43370834Y-111520834D01*
X43900000Y-111520834D01*
X44429167Y-111520834D01*
X44958334Y-111520834D01*
X45487500Y-111520834D01*
X46016667Y-111520834D01*
X46545833Y-111520834D01*
X47075000Y-111520834D01*
X47075000Y-112050000D01*
G37*
G36*
X56600000Y-67458333D02*
G01*
X56070833Y-67458333D01*
X56070833Y-67987500D01*
X56600000Y-67987500D01*
X56600000Y-68516666D01*
X56070833Y-68516666D01*
X55541666Y-68516666D01*
X55012500Y-68516666D01*
X55012500Y-67987500D01*
X55541666Y-67987500D01*
X55541666Y-67458333D01*
X55541666Y-66929166D01*
X56070833Y-66929166D01*
X56600000Y-66929166D01*
X56600000Y-67458333D01*
G37*
G36*
X48133333Y-60579167D02*
G01*
X47604167Y-60579167D01*
X47604167Y-60050000D01*
X48133333Y-60050000D01*
X48133333Y-60579167D01*
G37*
G36*
X102779166Y-72750000D02*
G01*
X102250000Y-72750000D01*
X102250000Y-72220833D01*
X102779166Y-72220833D01*
X102779166Y-72750000D01*
G37*
G36*
X99604167Y-120516666D02*
G01*
X99075000Y-120516666D01*
X98545833Y-120516666D01*
X98016667Y-120516666D01*
X97487500Y-120516666D01*
X96958334Y-120516666D01*
X96958334Y-119987500D01*
X97487500Y-119987500D01*
X98016667Y-119987500D01*
X98545833Y-119987500D01*
X99075000Y-119987500D01*
X99604167Y-119987500D01*
X99604167Y-120516666D01*
G37*
G36*
X101720833Y-60050000D02*
G01*
X102250000Y-60050000D01*
X102250000Y-60579167D01*
X101720833Y-60579167D01*
X101720833Y-61108334D01*
X101191667Y-61108334D01*
X100662500Y-61108334D01*
X100662500Y-61637500D01*
X101191667Y-61637500D01*
X101191667Y-62166667D01*
X100662500Y-62166667D01*
X100662500Y-62695833D01*
X100133333Y-62695833D01*
X100133333Y-63225000D01*
X99604167Y-63225000D01*
X99604167Y-62695833D01*
X99604167Y-62166667D01*
X100133333Y-62166667D01*
X100133333Y-61637500D01*
X99604167Y-61637500D01*
X99604167Y-61108334D01*
X100133333Y-61108334D01*
X100133333Y-60579167D01*
X100662500Y-60579167D01*
X101191667Y-60579167D01*
X101191667Y-60050000D01*
X101191667Y-59520834D01*
X101720833Y-59520834D01*
X101720833Y-60050000D01*
G37*
G36*
X104366666Y-66929166D02*
G01*
X103837500Y-66929166D01*
X103837500Y-66400000D01*
X104366666Y-66400000D01*
X104366666Y-66929166D01*
G37*
G36*
X56600000Y-69575000D02*
G01*
X56070833Y-69575000D01*
X56070833Y-70104166D01*
X55541666Y-70104166D01*
X55541666Y-69575000D01*
X55541666Y-69045833D01*
X56070833Y-69045833D01*
X56600000Y-69045833D01*
X56600000Y-69575000D01*
G37*
G36*
X100662500Y-112050000D02*
G01*
X100133333Y-112050000D01*
X100133333Y-111520834D01*
X100662500Y-111520834D01*
X100662500Y-112050000D01*
G37*
G36*
X107541666Y-61108334D02*
G01*
X107541666Y-61637500D01*
X107541666Y-62166667D01*
X107012500Y-62166667D01*
X106483333Y-62166667D01*
X105954166Y-62166667D01*
X105954166Y-61637500D01*
X105954166Y-61108334D01*
X105954166Y-60579167D01*
X106483333Y-60579167D01*
X107012500Y-60579167D01*
X107541666Y-60579167D01*
X107541666Y-61108334D01*
G37*
G36*
X55541666Y-61108334D02*
G01*
X55541666Y-61637500D01*
X55541666Y-62166667D01*
X55012500Y-62166667D01*
X54483333Y-62166667D01*
X53954166Y-62166667D01*
X53954166Y-61637500D01*
X53954166Y-61108334D01*
X53954166Y-60579167D01*
X54483333Y-60579167D01*
X55012500Y-60579167D01*
X55541666Y-60579167D01*
X55541666Y-61108334D01*
G37*
G36*
X52366666Y-112050000D02*
G01*
X51837500Y-112050000D01*
X51837500Y-111520834D01*
X52366666Y-111520834D01*
X52366666Y-112050000D01*
G37*
G36*
X52366666Y-60050000D02*
G01*
X51837500Y-60050000D01*
X51837500Y-59520834D01*
X52366666Y-59520834D01*
X52366666Y-60050000D01*
G37*
G36*
X104366666Y-112050000D02*
G01*
X103837500Y-112050000D01*
X103837500Y-111520834D01*
X104366666Y-111520834D01*
X104366666Y-112050000D01*
G37*
G36*
X50779166Y-123691666D02*
G01*
X50250000Y-123691666D01*
X50250000Y-123162500D01*
X50779166Y-123162500D01*
X50779166Y-123691666D01*
G37*
G36*
X104895833Y-116283333D02*
G01*
X104366666Y-116283333D01*
X104366666Y-115754167D01*
X104895833Y-115754167D01*
X104895833Y-116283333D01*
G37*
G36*
X51837500Y-112579167D02*
G01*
X52366666Y-112579167D01*
X52366666Y-113108334D01*
X52366666Y-113637500D01*
X52366666Y-114166667D01*
X52366666Y-114695833D01*
X52366666Y-115225000D01*
X51837500Y-115225000D01*
X51837500Y-114695833D01*
X51308333Y-114695833D01*
X51308333Y-114166667D01*
X51837500Y-114166667D01*
X51837500Y-113637500D01*
X51308333Y-113637500D01*
X50779166Y-113637500D01*
X50250000Y-113637500D01*
X50250000Y-113108334D01*
X50779166Y-113108334D01*
X50779166Y-112579167D01*
X51308333Y-112579167D01*
X51308333Y-112050000D01*
X51837500Y-112050000D01*
X51837500Y-112579167D01*
G37*
G36*
X50779166Y-117870833D02*
G01*
X50779166Y-118400000D01*
X50250000Y-118400000D01*
X50250000Y-117870833D01*
X50250000Y-117341667D01*
X50779166Y-117341667D01*
X50779166Y-117870833D01*
G37*
G36*
X103308333Y-124220833D02*
G01*
X102779166Y-124220833D01*
X102779166Y-123691666D01*
X103308333Y-123691666D01*
X103308333Y-124220833D01*
G37*
G36*
X99604167Y-68516666D02*
G01*
X99075000Y-68516666D01*
X98545833Y-68516666D01*
X98016667Y-68516666D01*
X97487500Y-68516666D01*
X96958334Y-68516666D01*
X96958334Y-67987500D01*
X97487500Y-67987500D01*
X98016667Y-67987500D01*
X98545833Y-67987500D01*
X99075000Y-67987500D01*
X99604167Y-67987500D01*
X99604167Y-68516666D01*
G37*
G36*
X49191667Y-63225000D02*
G01*
X48662500Y-63225000D01*
X48662500Y-62695833D01*
X49191667Y-62695833D01*
X49191667Y-63225000D01*
G37*
G36*
X104895833Y-64283333D02*
G01*
X104366666Y-64283333D01*
X104366666Y-63754167D01*
X104895833Y-63754167D01*
X104895833Y-64283333D01*
G37*
G36*
X55012500Y-64283333D02*
G01*
X54483333Y-64283333D01*
X54483333Y-63754167D01*
X55012500Y-63754167D01*
X55012500Y-64283333D01*
G37*
G36*
X108070833Y-116283333D02*
G01*
X108070833Y-116812500D01*
X108600000Y-116812500D01*
X108600000Y-117341667D01*
X108600000Y-117870833D01*
X108070833Y-117870833D01*
X107541666Y-117870833D01*
X107541666Y-117341667D01*
X107541666Y-116812500D01*
X107541666Y-116283333D01*
X107541666Y-115754167D01*
X108070833Y-115754167D01*
X108070833Y-116283333D01*
G37*
G36*
X100662500Y-68516666D02*
G01*
X101191667Y-68516666D01*
X101720833Y-68516666D01*
X101720833Y-69045833D01*
X102250000Y-69045833D01*
X102779166Y-69045833D01*
X102779166Y-69575000D01*
X102250000Y-69575000D01*
X102250000Y-70104166D01*
X101720833Y-70104166D01*
X101191667Y-70104166D01*
X101191667Y-70633333D01*
X101720833Y-70633333D01*
X101720833Y-71162500D01*
X101191667Y-71162500D01*
X100662500Y-71162500D01*
X100662500Y-71691666D01*
X100662500Y-72220833D01*
X100133333Y-72220833D01*
X100133333Y-72750000D01*
X99604167Y-72750000D01*
X99604167Y-72220833D01*
X99604167Y-71691666D01*
X99604167Y-71162500D01*
X99604167Y-70633333D01*
X99604167Y-70104166D01*
X100133333Y-70104166D01*
X100133333Y-70633333D01*
X100662500Y-70633333D01*
X100662500Y-70104166D01*
X100662500Y-69575000D01*
X100662500Y-69045833D01*
X100133333Y-69045833D01*
X100133333Y-69575000D01*
X99604167Y-69575000D01*
X99604167Y-69045833D01*
X99604167Y-68516666D01*
X100133333Y-68516666D01*
X100133333Y-67987500D01*
X100662500Y-67987500D01*
X100662500Y-68516666D01*
G37*
G36*
X56070833Y-116283333D02*
G01*
X56070833Y-116812500D01*
X56600000Y-116812500D01*
X56600000Y-117341667D01*
X56600000Y-117870833D01*
X56070833Y-117870833D01*
X55541666Y-117870833D01*
X55541666Y-117341667D01*
X55541666Y-116812500D01*
X55541666Y-116283333D01*
X55541666Y-115754167D01*
X56070833Y-115754167D01*
X56070833Y-116283333D01*
G37*
G36*
X48662500Y-120516666D02*
G01*
X49191667Y-120516666D01*
X49720833Y-120516666D01*
X49720833Y-121045833D01*
X50250000Y-121045833D01*
X50779166Y-121045833D01*
X50779166Y-121575000D01*
X50250000Y-121575000D01*
X50250000Y-122104166D01*
X49720833Y-122104166D01*
X49191667Y-122104166D01*
X49191667Y-122633333D01*
X49720833Y-122633333D01*
X49720833Y-123162500D01*
X49191667Y-123162500D01*
X48662500Y-123162500D01*
X48662500Y-123691666D01*
X48662500Y-124220833D01*
X48133333Y-124220833D01*
X48133333Y-124750000D01*
X47604167Y-124750000D01*
X47604167Y-124220833D01*
X47604167Y-123691666D01*
X47604167Y-123162500D01*
X47604167Y-122633333D01*
X47604167Y-122104166D01*
X48133333Y-122104166D01*
X48133333Y-122633333D01*
X48662500Y-122633333D01*
X48662500Y-122104166D01*
X48662500Y-121575000D01*
X48662500Y-121045833D01*
X48133333Y-121045833D01*
X48133333Y-121575000D01*
X47604167Y-121575000D01*
X47604167Y-121045833D01*
X47604167Y-120516666D01*
X48133333Y-120516666D01*
X48133333Y-119987500D01*
X48662500Y-119987500D01*
X48662500Y-120516666D01*
G37*
G36*
X101191667Y-119458333D02*
G01*
X100662500Y-119458333D01*
X100133333Y-119458333D01*
X100133333Y-118929166D01*
X100662500Y-118929166D01*
X101191667Y-118929166D01*
X101191667Y-119458333D01*
G37*
G36*
X99075000Y-65341667D02*
G01*
X98545833Y-65341667D01*
X98545833Y-64812500D01*
X99075000Y-64812500D01*
X99075000Y-65341667D01*
G37*
G36*
X102779166Y-112050000D02*
G01*
X102250000Y-112050000D01*
X102250000Y-111520834D01*
X102779166Y-111520834D01*
X102779166Y-112050000D01*
G37*
G36*
X50250000Y-62166667D02*
G01*
X50779166Y-62166667D01*
X50779166Y-62695833D01*
X50250000Y-62695833D01*
X50250000Y-63225000D01*
X49720833Y-63225000D01*
X49720833Y-62695833D01*
X49191667Y-62695833D01*
X49191667Y-62166667D01*
X49720833Y-62166667D01*
X49720833Y-61637500D01*
X50250000Y-61637500D01*
X50250000Y-62166667D01*
G37*
G36*
X44958334Y-119987500D02*
G01*
X44429167Y-119987500D01*
X44429167Y-119458333D01*
X44958334Y-119458333D01*
X44958334Y-119987500D01*
G37*
G36*
X101191667Y-67458333D02*
G01*
X100662500Y-67458333D01*
X100133333Y-67458333D01*
X100133333Y-66929166D01*
X100662500Y-66929166D01*
X101191667Y-66929166D01*
X101191667Y-67458333D01*
G37*
G36*
X105954166Y-123691666D02*
G01*
X105425000Y-123691666D01*
X105425000Y-123162500D01*
X105954166Y-123162500D01*
X105954166Y-123691666D01*
G37*
G36*
X50250000Y-124220833D02*
G01*
X49720833Y-124220833D01*
X49191667Y-124220833D01*
X49191667Y-123691666D01*
X49720833Y-123691666D01*
X50250000Y-123691666D01*
X50250000Y-124220833D01*
G37*
G36*
X46016667Y-70633333D02*
G01*
X46016667Y-71162500D01*
X46016667Y-71691666D01*
X45487500Y-71691666D01*
X44958334Y-71691666D01*
X44429167Y-71691666D01*
X44429167Y-71162500D01*
X44429167Y-70633333D01*
X44429167Y-70104166D01*
X44958334Y-70104166D01*
X45487500Y-70104166D01*
X46016667Y-70104166D01*
X46016667Y-70633333D01*
G37*
G36*
X46016667Y-113108334D02*
G01*
X46016667Y-113637500D01*
X46016667Y-114166667D01*
X45487500Y-114166667D01*
X44958334Y-114166667D01*
X44429167Y-114166667D01*
X44429167Y-113637500D01*
X44429167Y-113108334D01*
X44429167Y-112579167D01*
X44958334Y-112579167D01*
X45487500Y-112579167D01*
X46016667Y-112579167D01*
X46016667Y-113108334D01*
G37*
G36*
X98016667Y-119458333D02*
G01*
X97487500Y-119458333D01*
X97487500Y-118929166D01*
X98016667Y-118929166D01*
X98016667Y-119458333D01*
G37*
G36*
X46016667Y-122633333D02*
G01*
X46016667Y-123162500D01*
X46016667Y-123691666D01*
X45487500Y-123691666D01*
X44958334Y-123691666D01*
X44429167Y-123691666D01*
X44429167Y-123162500D01*
X44429167Y-122633333D01*
X44429167Y-122104166D01*
X44958334Y-122104166D01*
X45487500Y-122104166D01*
X46016667Y-122104166D01*
X46016667Y-122633333D01*
G37*
G36*
X47075000Y-69575000D02*
G01*
X47075000Y-70104166D01*
X47075000Y-70633333D01*
X47075000Y-71162500D01*
X47075000Y-71691666D01*
X47075000Y-72220833D01*
X47075000Y-72750000D01*
X46545833Y-72750000D01*
X46016667Y-72750000D01*
X45487500Y-72750000D01*
X44958334Y-72750000D01*
X44429167Y-72750000D01*
X43900000Y-72750000D01*
X43370834Y-72750000D01*
X43370834Y-72220833D01*
X43370834Y-71691666D01*
X43370834Y-71162500D01*
X43370834Y-70633333D01*
X43900000Y-70633333D01*
X43900000Y-71162500D01*
X43900000Y-71691666D01*
X43900000Y-72220833D01*
X44429167Y-72220833D01*
X44958334Y-72220833D01*
X45487500Y-72220833D01*
X46016667Y-72220833D01*
X46545833Y-72220833D01*
X46545833Y-71691666D01*
X46545833Y-71162500D01*
X46545833Y-70633333D01*
X46545833Y-70104166D01*
X46545833Y-69575000D01*
X46016667Y-69575000D01*
X45487500Y-69575000D01*
X44958334Y-69575000D01*
X44429167Y-69575000D01*
X43900000Y-69575000D01*
X43900000Y-70104166D01*
X43900000Y-70633333D01*
X43370834Y-70633333D01*
X43370834Y-70104166D01*
X43370834Y-69575000D01*
X43370834Y-69045833D01*
X43900000Y-69045833D01*
X44429167Y-69045833D01*
X44958334Y-69045833D01*
X45487500Y-69045833D01*
X46016667Y-69045833D01*
X46545833Y-69045833D01*
X47075000Y-69045833D01*
X47075000Y-69575000D01*
G37*
G36*
X101720833Y-116812500D02*
G01*
X102250000Y-116812500D01*
X102250000Y-117341667D01*
X101720833Y-117341667D01*
X101720833Y-117870833D01*
X101191667Y-117870833D01*
X101191667Y-117341667D01*
X100662500Y-117341667D01*
X100662500Y-116812500D01*
X101191667Y-116812500D01*
X101191667Y-116283333D01*
X101720833Y-116283333D01*
X101720833Y-116812500D01*
G37*
G36*
X48133333Y-119987500D02*
G01*
X47604167Y-119987500D01*
X47604167Y-119458333D01*
X48133333Y-119458333D01*
X48133333Y-119987500D01*
G37*
G36*
X53954166Y-116283333D02*
G01*
X53954166Y-116812500D01*
X54483333Y-116812500D01*
X55012500Y-116812500D01*
X55012500Y-117341667D01*
X54483333Y-117341667D01*
X54483333Y-117870833D01*
X55012500Y-117870833D01*
X55541666Y-117870833D01*
X55541666Y-118400000D01*
X55541666Y-118929166D01*
X55012500Y-118929166D01*
X55012500Y-119458333D01*
X54483333Y-119458333D01*
X53954166Y-119458333D01*
X53425000Y-119458333D01*
X53425000Y-118929166D01*
X53425000Y-118400000D01*
X53954166Y-118400000D01*
X53954166Y-118929166D01*
X54483333Y-118929166D01*
X54483333Y-118400000D01*
X53954166Y-118400000D01*
X53954166Y-117870833D01*
X53425000Y-117870833D01*
X53425000Y-118400000D01*
X52895833Y-118400000D01*
X52895833Y-117870833D01*
X52366666Y-117870833D01*
X51837500Y-117870833D01*
X51837500Y-118400000D01*
X51308333Y-118400000D01*
X51308333Y-117870833D01*
X51308333Y-117341667D01*
X51308333Y-116812500D01*
X51837500Y-116812500D01*
X51837500Y-116283333D01*
X52366666Y-116283333D01*
X52366666Y-116812500D01*
X52895833Y-116812500D01*
X52895833Y-117341667D01*
X53425000Y-117341667D01*
X53425000Y-116812500D01*
X53425000Y-116283333D01*
X53425000Y-115754167D01*
X53954166Y-115754167D01*
X53954166Y-116283333D01*
G37*
G36*
X50779166Y-70633333D02*
G01*
X50250000Y-70633333D01*
X50250000Y-70104166D01*
X50779166Y-70104166D01*
X50779166Y-70633333D01*
G37*
G36*
X98016667Y-116283333D02*
G01*
X98545833Y-116283333D01*
X98545833Y-116812500D01*
X98016667Y-116812500D01*
X98016667Y-117341667D01*
X98545833Y-117341667D01*
X98545833Y-117870833D01*
X99075000Y-117870833D01*
X99075000Y-118400000D01*
X98545833Y-118400000D01*
X98545833Y-118929166D01*
X98016667Y-118929166D01*
X98016667Y-118400000D01*
X97487500Y-118400000D01*
X97487500Y-118929166D01*
X96958334Y-118929166D01*
X96429167Y-118929166D01*
X95900000Y-118929166D01*
X95900000Y-119458333D01*
X95900000Y-119987500D01*
X95900000Y-120516666D01*
X95370834Y-120516666D01*
X95370834Y-119987500D01*
X95370834Y-119458333D01*
X95370834Y-118929166D01*
X95370834Y-118400000D01*
X95370834Y-117870833D01*
X95900000Y-117870833D01*
X95900000Y-118400000D01*
X96429167Y-118400000D01*
X96429167Y-117870833D01*
X96958334Y-117870833D01*
X96958334Y-118400000D01*
X97487500Y-118400000D01*
X97487500Y-117870833D01*
X97487500Y-117341667D01*
X96958334Y-117341667D01*
X96958334Y-116812500D01*
X96429167Y-116812500D01*
X95900000Y-116812500D01*
X95900000Y-117341667D01*
X95370834Y-117341667D01*
X95370834Y-116812500D01*
X95370834Y-116283333D01*
X95370834Y-115754167D01*
X95900000Y-115754167D01*
X96429167Y-115754167D01*
X96958334Y-115754167D01*
X97487500Y-115754167D01*
X98016667Y-115754167D01*
X98016667Y-116283333D01*
G37*
G36*
X103837500Y-60579167D02*
G01*
X104366666Y-60579167D01*
X104366666Y-61108334D01*
X104366666Y-61637500D01*
X104366666Y-62166667D01*
X104366666Y-62695833D01*
X104366666Y-63225000D01*
X103837500Y-63225000D01*
X103837500Y-62695833D01*
X103308333Y-62695833D01*
X103308333Y-62166667D01*
X103837500Y-62166667D01*
X103837500Y-61637500D01*
X103308333Y-61637500D01*
X102779166Y-61637500D01*
X102250000Y-61637500D01*
X102250000Y-61108334D01*
X102779166Y-61108334D01*
X102779166Y-60579167D01*
X103308333Y-60579167D01*
X103308333Y-60050000D01*
X103837500Y-60050000D01*
X103837500Y-60579167D01*
G37*
G36*
X103308333Y-71162500D02*
G01*
X102779166Y-71162500D01*
X102779166Y-70633333D01*
X103308333Y-70633333D01*
X103308333Y-71162500D01*
G37*
G36*
X98016667Y-67458333D02*
G01*
X97487500Y-67458333D01*
X97487500Y-66929166D01*
X98016667Y-66929166D01*
X98016667Y-67458333D01*
G37*
G36*
X108600000Y-67458333D02*
G01*
X108070833Y-67458333D01*
X108070833Y-67987500D01*
X108600000Y-67987500D01*
X108600000Y-68516666D01*
X108070833Y-68516666D01*
X107541666Y-68516666D01*
X107012500Y-68516666D01*
X107012500Y-67987500D01*
X107541666Y-67987500D01*
X107541666Y-67458333D01*
X107541666Y-66929166D01*
X108070833Y-66929166D01*
X108600000Y-66929166D01*
X108600000Y-67458333D01*
G37*
G36*
X49720833Y-115754167D02*
G01*
X49191667Y-115754167D01*
X49191667Y-115225000D01*
X49720833Y-115225000D01*
X49720833Y-115754167D01*
G37*
G36*
X48133333Y-112579167D02*
G01*
X47604167Y-112579167D01*
X47604167Y-112050000D01*
X48133333Y-112050000D01*
X48133333Y-112579167D01*
G37*
G36*
X47075000Y-121575000D02*
G01*
X47075000Y-122104166D01*
X47075000Y-122633333D01*
X47075000Y-123162500D01*
X47075000Y-123691666D01*
X47075000Y-124220833D01*
X47075000Y-124750000D01*
X46545833Y-124750000D01*
X46016667Y-124750000D01*
X45487500Y-124750000D01*
X44958334Y-124750000D01*
X44429167Y-124750000D01*
X43900000Y-124750000D01*
X43370834Y-124750000D01*
X43370834Y-124220833D01*
X43370834Y-123691666D01*
X43370834Y-123162500D01*
X43370834Y-122633333D01*
X43900000Y-122633333D01*
X43900000Y-123162500D01*
X43900000Y-123691666D01*
X43900000Y-124220833D01*
X44429167Y-124220833D01*
X44958334Y-124220833D01*
X45487500Y-124220833D01*
X46016667Y-124220833D01*
X46545833Y-124220833D01*
X46545833Y-123691666D01*
X46545833Y-123162500D01*
X46545833Y-122633333D01*
X46545833Y-122104166D01*
X46545833Y-121575000D01*
X46016667Y-121575000D01*
X45487500Y-121575000D01*
X44958334Y-121575000D01*
X44429167Y-121575000D01*
X43900000Y-121575000D01*
X43900000Y-122104166D01*
X43900000Y-122633333D01*
X43370834Y-122633333D01*
X43370834Y-122104166D01*
X43370834Y-121575000D01*
X43370834Y-121045833D01*
X43900000Y-121045833D01*
X44429167Y-121045833D01*
X44958334Y-121045833D01*
X45487500Y-121045833D01*
X46016667Y-121045833D01*
X46545833Y-121045833D01*
X47075000Y-121045833D01*
X47075000Y-121575000D01*
G37*
G36*
X101720833Y-119987500D02*
G01*
X101191667Y-119987500D01*
X101191667Y-119458333D01*
X101720833Y-119458333D01*
X101720833Y-119987500D01*
G37*
G36*
X100133333Y-60579167D02*
G01*
X99604167Y-60579167D01*
X99604167Y-60050000D01*
X100133333Y-60050000D01*
X100133333Y-60579167D01*
G37*
G36*
X51308333Y-72220833D02*
G01*
X50779166Y-72220833D01*
X50779166Y-71691666D01*
X51308333Y-71691666D01*
X51308333Y-72220833D01*
G37*
G36*
X53425000Y-69575000D02*
G01*
X52895833Y-69575000D01*
X52895833Y-69045833D01*
X53425000Y-69045833D01*
X53425000Y-69575000D01*
G37*
G36*
X46016667Y-67458333D02*
G01*
X45487500Y-67458333D01*
X45487500Y-66929166D01*
X46016667Y-66929166D01*
X46016667Y-67458333D01*
G37*
G36*
X51837500Y-67458333D02*
G01*
X52366666Y-67458333D01*
X52366666Y-66929166D01*
X52895833Y-66929166D01*
X52895833Y-67458333D01*
X52895833Y-67987500D01*
X53425000Y-67987500D01*
X53954166Y-67987500D01*
X54483333Y-67987500D01*
X54483333Y-68516666D01*
X54483333Y-69045833D01*
X54483333Y-69575000D01*
X54483333Y-70104166D01*
X55012500Y-70104166D01*
X55541666Y-70104166D01*
X55541666Y-70633333D01*
X56070833Y-70633333D01*
X56070833Y-70104166D01*
X56600000Y-70104166D01*
X56600000Y-70633333D01*
X56600000Y-71162500D01*
X56600000Y-71691666D01*
X56600000Y-72220833D01*
X56600000Y-72750000D01*
X56070833Y-72750000D01*
X55541666Y-72750000D01*
X55012500Y-72750000D01*
X54483333Y-72750000D01*
X53954166Y-72750000D01*
X53425000Y-72750000D01*
X52895833Y-72750000D01*
X52366666Y-72750000D01*
X52366666Y-72220833D01*
X51837500Y-72220833D01*
X51837500Y-71691666D01*
X52366666Y-71691666D01*
X52895833Y-71691666D01*
X53425000Y-71691666D01*
X53425000Y-72220833D01*
X53954166Y-72220833D01*
X55012500Y-72220833D01*
X55541666Y-72220833D01*
X56070833Y-72220833D01*
X56070833Y-71691666D01*
X56070833Y-71162500D01*
X55541666Y-71162500D01*
X55541666Y-71691666D01*
X55012500Y-71691666D01*
X55012500Y-72220833D01*
X53954166Y-72220833D01*
X53954166Y-71691666D01*
X54483333Y-71691666D01*
X54483333Y-71162500D01*
X53954166Y-71162500D01*
X53954166Y-70633333D01*
X55012500Y-70633333D01*
X55012500Y-71162500D01*
X55541666Y-71162500D01*
X55541666Y-70633333D01*
X55012500Y-70633333D01*
X53954166Y-70633333D01*
X53425000Y-70633333D01*
X53425000Y-71162500D01*
X52895833Y-71162500D01*
X52366666Y-71162500D01*
X52366666Y-70633333D01*
X51837500Y-70633333D01*
X51308333Y-70633333D01*
X51308333Y-70104166D01*
X51837500Y-70104166D01*
X51837500Y-69575000D01*
X52366666Y-69575000D01*
X52366666Y-70104166D01*
X52895833Y-70104166D01*
X53425000Y-70104166D01*
X53954166Y-70104166D01*
X53954166Y-69575000D01*
X53954166Y-69045833D01*
X53954166Y-68516666D01*
X53425000Y-68516666D01*
X52895833Y-68516666D01*
X52366666Y-68516666D01*
X52366666Y-69045833D01*
X52366666Y-69575000D01*
X51837500Y-69575000D01*
X51837500Y-69045833D01*
X51837500Y-68516666D01*
X51308333Y-68516666D01*
X50779166Y-68516666D01*
X50250000Y-68516666D01*
X50250000Y-67987500D01*
X50779166Y-67987500D01*
X50779166Y-67458333D01*
X51308333Y-67458333D01*
X51308333Y-66929166D01*
X51837500Y-66929166D01*
X51837500Y-67458333D01*
G37*
G36*
X99075000Y-112050000D02*
G01*
X99075000Y-112579167D01*
X99075000Y-113108334D01*
X99075000Y-113637500D01*
X99075000Y-114166667D01*
X99075000Y-114695833D01*
X99075000Y-115225000D01*
X98545833Y-115225000D01*
X98016667Y-115225000D01*
X97487500Y-115225000D01*
X96958334Y-115225000D01*
X96429167Y-115225000D01*
X95900000Y-115225000D01*
X95370834Y-115225000D01*
X95370834Y-114695833D01*
X95370834Y-114166667D01*
X95370834Y-113637500D01*
X95370834Y-113108334D01*
X95900000Y-113108334D01*
X95900000Y-113637500D01*
X95900000Y-114166667D01*
X95900000Y-114695833D01*
X96429167Y-114695833D01*
X96958334Y-114695833D01*
X97487500Y-114695833D01*
X98016667Y-114695833D01*
X98545833Y-114695833D01*
X98545833Y-114166667D01*
X98545833Y-113637500D01*
X98545833Y-113108334D01*
X98545833Y-112579167D01*
X98545833Y-112050000D01*
X98016667Y-112050000D01*
X97487500Y-112050000D01*
X96958334Y-112050000D01*
X96429167Y-112050000D01*
X95900000Y-112050000D01*
X95900000Y-112579167D01*
X95900000Y-113108334D01*
X95370834Y-113108334D01*
X95370834Y-112579167D01*
X95370834Y-112050000D01*
X95370834Y-111520834D01*
X95900000Y-111520834D01*
X96429167Y-111520834D01*
X96958334Y-111520834D01*
X97487500Y-111520834D01*
X98016667Y-111520834D01*
X98545833Y-111520834D01*
X99075000Y-111520834D01*
X99075000Y-112050000D01*
G37*
G36*
X107012500Y-116283333D02*
G01*
X106483333Y-116283333D01*
X106483333Y-115754167D01*
X107012500Y-115754167D01*
X107012500Y-116283333D01*
G37*
G36*
X99075000Y-117341667D02*
G01*
X98545833Y-117341667D01*
X98545833Y-116812500D01*
X99075000Y-116812500D01*
X99075000Y-117341667D01*
G37*
G36*
X102779166Y-124750000D02*
G01*
X102250000Y-124750000D01*
X102250000Y-124220833D01*
X102779166Y-124220833D01*
X102779166Y-124750000D01*
G37*
G36*
X96958334Y-67987500D02*
G01*
X96429167Y-67987500D01*
X96429167Y-67458333D01*
X96958334Y-67458333D01*
X96958334Y-67987500D01*
G37*
G36*
X53425000Y-121575000D02*
G01*
X52895833Y-121575000D01*
X52895833Y-121045833D01*
X53425000Y-121045833D01*
X53425000Y-121575000D01*
G37*
G36*
X55541666Y-113108334D02*
G01*
X55541666Y-113637500D01*
X55541666Y-114166667D01*
X55012500Y-114166667D01*
X54483333Y-114166667D01*
X53954166Y-114166667D01*
X53954166Y-113637500D01*
X53954166Y-113108334D01*
X53954166Y-112579167D01*
X54483333Y-112579167D01*
X55012500Y-112579167D01*
X55541666Y-112579167D01*
X55541666Y-113108334D01*
G37*
G36*
X108600000Y-119458333D02*
G01*
X108070833Y-119458333D01*
X108070833Y-119987500D01*
X108600000Y-119987500D01*
X108600000Y-120516666D01*
X108070833Y-120516666D01*
X107541666Y-120516666D01*
X107012500Y-120516666D01*
X107012500Y-119987500D01*
X107541666Y-119987500D01*
X107541666Y-119458333D01*
X107541666Y-118929166D01*
X108070833Y-118929166D01*
X108600000Y-118929166D01*
X108600000Y-119458333D01*
G37*
G36*
X48133333Y-67987500D02*
G01*
X47604167Y-67987500D01*
X47604167Y-67458333D01*
X48133333Y-67458333D01*
X48133333Y-67987500D01*
G37*
G36*
X105425000Y-69575000D02*
G01*
X104895833Y-69575000D01*
X104895833Y-69045833D01*
X105425000Y-69045833D01*
X105425000Y-69575000D01*
G37*
G36*
X50779166Y-122633333D02*
G01*
X50250000Y-122633333D01*
X50250000Y-122104166D01*
X50779166Y-122104166D01*
X50779166Y-122633333D01*
G37*
G36*
X50250000Y-114166667D02*
G01*
X50779166Y-114166667D01*
X50779166Y-114695833D01*
X50250000Y-114695833D01*
X50250000Y-115225000D01*
X49720833Y-115225000D01*
X49720833Y-114695833D01*
X49191667Y-114695833D01*
X49191667Y-114166667D01*
X49720833Y-114166667D01*
X49720833Y-113637500D01*
X50250000Y-113637500D01*
X50250000Y-114166667D01*
G37*
G36*
X48662500Y-63754167D02*
G01*
X48662500Y-64283333D01*
X48133333Y-64283333D01*
X47604167Y-64283333D01*
X47075000Y-64283333D01*
X46545833Y-64283333D01*
X46545833Y-63754167D01*
X47075000Y-63754167D01*
X47604167Y-63754167D01*
X48133333Y-63754167D01*
X48133333Y-63225000D01*
X48662500Y-63225000D01*
X48662500Y-63754167D01*
G37*
G36*
X48133333Y-117341667D02*
G01*
X48133333Y-117870833D01*
X48662500Y-117870833D01*
X49191667Y-117870833D01*
X49191667Y-118400000D01*
X48662500Y-118400000D01*
X48133333Y-118400000D01*
X48133333Y-118929166D01*
X47604167Y-118929166D01*
X47604167Y-118400000D01*
X47604167Y-117870833D01*
X47604167Y-117341667D01*
X47604167Y-116812500D01*
X48133333Y-116812500D01*
X48133333Y-117341667D01*
G37*
G36*
X51308333Y-63225000D02*
G01*
X51308333Y-63754167D01*
X51837500Y-63754167D01*
X51837500Y-64283333D01*
X51308333Y-64283333D01*
X50779166Y-64283333D01*
X50779166Y-63754167D01*
X50779166Y-63225000D01*
X50779166Y-62695833D01*
X51308333Y-62695833D01*
X51308333Y-63225000D01*
G37*
G36*
X100133333Y-65341667D02*
G01*
X100133333Y-65870833D01*
X100662500Y-65870833D01*
X101191667Y-65870833D01*
X101191667Y-66400000D01*
X100662500Y-66400000D01*
X100133333Y-66400000D01*
X100133333Y-66929166D01*
X99604167Y-66929166D01*
X99604167Y-66400000D01*
X99604167Y-65870833D01*
X99604167Y-65341667D01*
X99604167Y-64812500D01*
X100133333Y-64812500D01*
X100133333Y-65341667D01*
G37*
G36*
X56600000Y-121575000D02*
G01*
X56070833Y-121575000D01*
X56070833Y-122104166D01*
X55541666Y-122104166D01*
X55541666Y-121575000D01*
X55541666Y-121045833D01*
X56070833Y-121045833D01*
X56600000Y-121045833D01*
X56600000Y-121575000D01*
G37*
G36*
X50779166Y-72750000D02*
G01*
X50250000Y-72750000D01*
X50250000Y-72220833D01*
X50779166Y-72220833D01*
X50779166Y-72750000D01*
G37*
G36*
X46016667Y-116283333D02*
G01*
X46545833Y-116283333D01*
X46545833Y-116812500D01*
X46016667Y-116812500D01*
X46016667Y-117341667D01*
X46545833Y-117341667D01*
X46545833Y-117870833D01*
X47075000Y-117870833D01*
X47075000Y-118400000D01*
X46545833Y-118400000D01*
X46545833Y-118929166D01*
X46016667Y-118929166D01*
X46016667Y-118400000D01*
X45487500Y-118400000D01*
X45487500Y-118929166D01*
X44958334Y-118929166D01*
X44429167Y-118929166D01*
X43900000Y-118929166D01*
X43900000Y-119458333D01*
X43900000Y-119987500D01*
X43900000Y-120516666D01*
X43370834Y-120516666D01*
X43370834Y-119987500D01*
X43370834Y-119458333D01*
X43370834Y-118929166D01*
X43370834Y-118400000D01*
X43370834Y-117870833D01*
X43900000Y-117870833D01*
X43900000Y-118400000D01*
X44429167Y-118400000D01*
X44429167Y-117870833D01*
X44958334Y-117870833D01*
X44958334Y-118400000D01*
X45487500Y-118400000D01*
X45487500Y-117870833D01*
X45487500Y-117341667D01*
X44958334Y-117341667D01*
X44958334Y-116812500D01*
X44429167Y-116812500D01*
X43900000Y-116812500D01*
X43900000Y-117341667D01*
X43370834Y-117341667D01*
X43370834Y-116812500D01*
X43370834Y-116283333D01*
X43370834Y-115754167D01*
X43900000Y-115754167D01*
X44429167Y-115754167D01*
X44958334Y-115754167D01*
X45487500Y-115754167D01*
X46016667Y-115754167D01*
X46016667Y-116283333D01*
G37*
G36*
X100133333Y-112579167D02*
G01*
X99604167Y-112579167D01*
X99604167Y-112050000D01*
X100133333Y-112050000D01*
X100133333Y-112579167D01*
G37*
G36*
X52895833Y-64283333D02*
G01*
X52366666Y-64283333D01*
X52366666Y-63754167D01*
X52895833Y-63754167D01*
X52895833Y-64283333D01*
G37*
G36*
X98016667Y-113108334D02*
G01*
X98016667Y-113637500D01*
X98016667Y-114166667D01*
X97487500Y-114166667D01*
X96958334Y-114166667D01*
X96429167Y-114166667D01*
X96429167Y-113637500D01*
X96429167Y-113108334D01*
X96429167Y-112579167D01*
X96958334Y-112579167D01*
X97487500Y-112579167D01*
X98016667Y-112579167D01*
X98016667Y-113108334D01*
G37*
G36*
X49191667Y-119458333D02*
G01*
X48662500Y-119458333D01*
X48133333Y-119458333D01*
X48133333Y-118929166D01*
X48662500Y-118929166D01*
X49191667Y-118929166D01*
X49191667Y-119458333D01*
G37*
G36*
X55012500Y-116283333D02*
G01*
X54483333Y-116283333D01*
X54483333Y-115754167D01*
X55012500Y-115754167D01*
X55012500Y-116283333D01*
G37*
G36*
X102250000Y-62166667D02*
G01*
X102779166Y-62166667D01*
X102779166Y-62695833D01*
X102250000Y-62695833D01*
X102250000Y-63225000D01*
X101720833Y-63225000D01*
X101720833Y-62695833D01*
X101191667Y-62695833D01*
X101191667Y-62166667D01*
X101720833Y-62166667D01*
X101720833Y-61637500D01*
X102250000Y-61637500D01*
X102250000Y-62166667D01*
G37*
G36*
X48133333Y-65341667D02*
G01*
X48133333Y-65870833D01*
X48662500Y-65870833D01*
X49191667Y-65870833D01*
X49191667Y-66400000D01*
X48662500Y-66400000D01*
X48133333Y-66400000D01*
X48133333Y-66929166D01*
X47604167Y-66929166D01*
X47604167Y-66400000D01*
X47604167Y-65870833D01*
X47604167Y-65341667D01*
X47604167Y-64812500D01*
X48133333Y-64812500D01*
X48133333Y-65341667D01*
G37*
G36*
X99075000Y-121575000D02*
G01*
X99075000Y-122104166D01*
X99075000Y-122633333D01*
X99075000Y-123162500D01*
X99075000Y-123691666D01*
X99075000Y-124220833D01*
X99075000Y-124750000D01*
X98545833Y-124750000D01*
X98016667Y-124750000D01*
X97487500Y-124750000D01*
X96958334Y-124750000D01*
X96429167Y-124750000D01*
X95900000Y-124750000D01*
X95370834Y-124750000D01*
X95370834Y-124220833D01*
X95370834Y-123691666D01*
X95370834Y-123162500D01*
X95370834Y-122633333D01*
X95900000Y-122633333D01*
X95900000Y-123162500D01*
X95900000Y-123691666D01*
X95900000Y-124220833D01*
X96429167Y-124220833D01*
X96958334Y-124220833D01*
X97487500Y-124220833D01*
X98016667Y-124220833D01*
X98545833Y-124220833D01*
X98545833Y-123691666D01*
X98545833Y-123162500D01*
X98545833Y-122633333D01*
X98545833Y-122104166D01*
X98545833Y-121575000D01*
X98016667Y-121575000D01*
X97487500Y-121575000D01*
X96958334Y-121575000D01*
X96429167Y-121575000D01*
X95900000Y-121575000D01*
X95900000Y-122104166D01*
X95900000Y-122633333D01*
X95370834Y-122633333D01*
X95370834Y-122104166D01*
X95370834Y-121575000D01*
X95370834Y-121045833D01*
X95900000Y-121045833D01*
X96429167Y-121045833D01*
X96958334Y-121045833D01*
X97487500Y-121045833D01*
X98016667Y-121045833D01*
X98545833Y-121045833D01*
X99075000Y-121045833D01*
X99075000Y-121575000D01*
G37*
G36*
X51308333Y-124220833D02*
G01*
X50779166Y-124220833D01*
X50779166Y-123691666D01*
X51308333Y-123691666D01*
X51308333Y-124220833D01*
G37*
G36*
X47075000Y-117341667D02*
G01*
X46545833Y-117341667D01*
X46545833Y-116812500D01*
X47075000Y-116812500D01*
X47075000Y-117341667D01*
G37*
G36*
X102779166Y-60050000D02*
G01*
X102250000Y-60050000D01*
X102250000Y-59520834D01*
X102779166Y-59520834D01*
X102779166Y-60050000D01*
G37*
G36*
X101720833Y-115754167D02*
G01*
X101191667Y-115754167D01*
X101191667Y-115225000D01*
X101720833Y-115225000D01*
X101720833Y-115754167D01*
G37*
G36*
X102779166Y-122633333D02*
G01*
X102250000Y-122633333D01*
X102250000Y-122104166D01*
X102779166Y-122104166D01*
X102779166Y-122633333D01*
G37*
G36*
X98016667Y-122633333D02*
G01*
X98016667Y-123162500D01*
X98016667Y-123691666D01*
X97487500Y-123691666D01*
X96958334Y-123691666D01*
X96429167Y-123691666D01*
X96429167Y-123162500D01*
X96429167Y-122633333D01*
X96429167Y-122104166D01*
X96958334Y-122104166D01*
X97487500Y-122104166D01*
X98016667Y-122104166D01*
X98016667Y-122633333D01*
G37*
G36*
X50250000Y-66929166D02*
G01*
X50779166Y-66929166D01*
X50779166Y-67458333D01*
X50250000Y-67458333D01*
X49720833Y-67458333D01*
X49720833Y-66929166D01*
X49191667Y-66929166D01*
X49191667Y-66400000D01*
X49720833Y-66400000D01*
X50250000Y-66400000D01*
X50250000Y-66929166D01*
G37*
G36*
X52366666Y-118929166D02*
G01*
X51837500Y-118929166D01*
X51837500Y-118400000D01*
X52366666Y-118400000D01*
X52366666Y-118929166D01*
G37*
G36*
X47075000Y-65341667D02*
G01*
X46545833Y-65341667D01*
X46545833Y-64812500D01*
X47075000Y-64812500D01*
X47075000Y-65341667D01*
G37*
G36*
X103308333Y-123162500D02*
G01*
X102779166Y-123162500D01*
X102779166Y-122633333D01*
X103308333Y-122633333D01*
X103308333Y-123162500D01*
G37*
G36*
X102250000Y-124220833D02*
G01*
X101720833Y-124220833D01*
X101191667Y-124220833D01*
X101191667Y-123691666D01*
X101720833Y-123691666D01*
X102250000Y-123691666D01*
X102250000Y-124220833D01*
G37*
G36*
X96958334Y-119987500D02*
G01*
X96429167Y-119987500D01*
X96429167Y-119458333D01*
X96958334Y-119458333D01*
X96958334Y-119987500D01*
G37*
G36*
X52366666Y-66929166D02*
G01*
X51837500Y-66929166D01*
X51837500Y-66400000D01*
X52366666Y-66400000D01*
X52366666Y-66929166D01*
G37*
G36*
X49720833Y-67987500D02*
G01*
X49191667Y-67987500D01*
X49191667Y-67458333D01*
X49720833Y-67458333D01*
X49720833Y-67987500D01*
G37*
G36*
X101191667Y-63225000D02*
G01*
X100662500Y-63225000D01*
X100662500Y-62695833D01*
X101191667Y-62695833D01*
X101191667Y-63225000D01*
G37*
G36*
X98016667Y-61108334D02*
G01*
X98016667Y-61637500D01*
X98016667Y-62166667D01*
X97487500Y-62166667D01*
X96958334Y-62166667D01*
X96429167Y-62166667D01*
X96429167Y-61637500D01*
X96429167Y-61108334D01*
X96429167Y-60579167D01*
X96958334Y-60579167D01*
X97487500Y-60579167D01*
X98016667Y-60579167D01*
X98016667Y-61108334D01*
G37*
G36*
X103308333Y-70104166D02*
G01*
X102779166Y-70104166D01*
X102779166Y-69575000D01*
X103308333Y-69575000D01*
X103308333Y-70104166D01*
G37*
G36*
X56600000Y-119458333D02*
G01*
X56070833Y-119458333D01*
X56070833Y-119987500D01*
X56600000Y-119987500D01*
X56600000Y-120516666D01*
X56070833Y-120516666D01*
X55541666Y-120516666D01*
X55012500Y-120516666D01*
X55012500Y-119987500D01*
X55541666Y-119987500D01*
X55541666Y-119458333D01*
X55541666Y-118929166D01*
X56070833Y-118929166D01*
X56600000Y-118929166D01*
X56600000Y-119458333D01*
G37*
G36*
X102779166Y-71691666D02*
G01*
X102250000Y-71691666D01*
X102250000Y-71162500D01*
X102779166Y-71162500D01*
X102779166Y-71691666D01*
G37*
G36*
X103837500Y-67458333D02*
G01*
X104366666Y-67458333D01*
X104366666Y-66929166D01*
X104895833Y-66929166D01*
X104895833Y-67458333D01*
X104895833Y-67987500D01*
X105425000Y-67987500D01*
X105954166Y-67987500D01*
X106483333Y-67987500D01*
X106483333Y-68516666D01*
X106483333Y-69045833D01*
X106483333Y-69575000D01*
X106483333Y-70104166D01*
X107012500Y-70104166D01*
X107541666Y-70104166D01*
X107541666Y-70633333D01*
X108070833Y-70633333D01*
X108070833Y-70104166D01*
X108600000Y-70104166D01*
X108600000Y-70633333D01*
X108600000Y-71162500D01*
X108600000Y-71691666D01*
X108600000Y-72220833D01*
X108600000Y-72750000D01*
X108070833Y-72750000D01*
X107541666Y-72750000D01*
X107012500Y-72750000D01*
X106483333Y-72750000D01*
X105954166Y-72750000D01*
X105425000Y-72750000D01*
X104895833Y-72750000D01*
X104366666Y-72750000D01*
X104366666Y-72220833D01*
X103837500Y-72220833D01*
X103837500Y-71691666D01*
X104366666Y-71691666D01*
X104895833Y-71691666D01*
X105425000Y-71691666D01*
X105425000Y-72220833D01*
X105954166Y-72220833D01*
X107012500Y-72220833D01*
X107541666Y-72220833D01*
X108070833Y-72220833D01*
X108070833Y-71691666D01*
X108070833Y-71162500D01*
X107541666Y-71162500D01*
X107541666Y-71691666D01*
X107012500Y-71691666D01*
X107012500Y-72220833D01*
X105954166Y-72220833D01*
X105954166Y-71691666D01*
X106483333Y-71691666D01*
X106483333Y-71162500D01*
X105954166Y-71162500D01*
X105954166Y-70633333D01*
X107012500Y-70633333D01*
X107012500Y-71162500D01*
X107541666Y-71162500D01*
X107541666Y-70633333D01*
X107012500Y-70633333D01*
X105954166Y-70633333D01*
X105425000Y-70633333D01*
X105425000Y-71162500D01*
X104895833Y-71162500D01*
X104366666Y-71162500D01*
X104366666Y-70633333D01*
X103837500Y-70633333D01*
X103308333Y-70633333D01*
X103308333Y-70104166D01*
X103837500Y-70104166D01*
X103837500Y-69575000D01*
X104366666Y-69575000D01*
X104366666Y-70104166D01*
X104895833Y-70104166D01*
X105425000Y-70104166D01*
X105954166Y-70104166D01*
X105954166Y-69575000D01*
X105954166Y-69045833D01*
X105954166Y-68516666D01*
X105425000Y-68516666D01*
X104895833Y-68516666D01*
X104366666Y-68516666D01*
X104366666Y-69045833D01*
X104366666Y-69575000D01*
X103837500Y-69575000D01*
X103837500Y-69045833D01*
X103837500Y-68516666D01*
X103308333Y-68516666D01*
X102779166Y-68516666D01*
X102250000Y-68516666D01*
X102250000Y-67987500D01*
X102779166Y-67987500D01*
X102779166Y-67458333D01*
X103308333Y-67458333D01*
X103308333Y-66929166D01*
X103837500Y-66929166D01*
X103837500Y-67458333D01*
G37*
G36*
X103837500Y-112579167D02*
G01*
X104366666Y-112579167D01*
X104366666Y-113108334D01*
X104366666Y-113637500D01*
X104366666Y-114166667D01*
X104366666Y-114695833D01*
X104366666Y-115225000D01*
X103837500Y-115225000D01*
X103837500Y-114695833D01*
X103308333Y-114695833D01*
X103308333Y-114166667D01*
X103837500Y-114166667D01*
X103837500Y-113637500D01*
X103308333Y-113637500D01*
X102779166Y-113637500D01*
X102250000Y-113637500D01*
X102250000Y-113108334D01*
X102779166Y-113108334D01*
X102779166Y-112579167D01*
X103308333Y-112579167D01*
X103308333Y-112050000D01*
X103837500Y-112050000D01*
X103837500Y-112579167D01*
G37*
G36*
X98016667Y-70633333D02*
G01*
X98016667Y-71162500D01*
X98016667Y-71691666D01*
X97487500Y-71691666D01*
X96958334Y-71691666D01*
X96429167Y-71691666D01*
X96429167Y-71162500D01*
X96429167Y-70633333D01*
X96429167Y-70104166D01*
X96958334Y-70104166D01*
X97487500Y-70104166D01*
X98016667Y-70104166D01*
X98016667Y-70633333D01*
G37*
G36*
X53954166Y-71691666D02*
G01*
X53425000Y-71691666D01*
X53425000Y-71162500D01*
X53954166Y-71162500D01*
X53954166Y-71691666D01*
G37*
G36*
X53954166Y-123691666D02*
G01*
X53425000Y-123691666D01*
X53425000Y-123162500D01*
X53954166Y-123162500D01*
X53954166Y-123691666D01*
G37*
G36*
X52895833Y-116283333D02*
G01*
X52366666Y-116283333D01*
X52366666Y-115754167D01*
X52895833Y-115754167D01*
X52895833Y-116283333D01*
G37*
G36*
X100133333Y-117341667D02*
G01*
X100133333Y-117870833D01*
X100662500Y-117870833D01*
X101191667Y-117870833D01*
X101191667Y-118400000D01*
X100662500Y-118400000D01*
X100133333Y-118400000D01*
X100133333Y-118929166D01*
X99604167Y-118929166D01*
X99604167Y-118400000D01*
X99604167Y-117870833D01*
X99604167Y-117341667D01*
X99604167Y-116812500D01*
X100133333Y-116812500D01*
X100133333Y-117341667D01*
G37*
G36*
X53954166Y-64283333D02*
G01*
X53954166Y-64812500D01*
X54483333Y-64812500D01*
X55012500Y-64812500D01*
X55012500Y-65341667D01*
X54483333Y-65341667D01*
X54483333Y-65870833D01*
X55012500Y-65870833D01*
X55541666Y-65870833D01*
X55541666Y-66400000D01*
X55541666Y-66929166D01*
X55012500Y-66929166D01*
X55012500Y-67458333D01*
X54483333Y-67458333D01*
X53954166Y-67458333D01*
X53425000Y-67458333D01*
X53425000Y-66929166D01*
X53425000Y-66400000D01*
X53954166Y-66400000D01*
X53954166Y-66929166D01*
X54483333Y-66929166D01*
X54483333Y-66400000D01*
X53954166Y-66400000D01*
X53954166Y-65870833D01*
X53425000Y-65870833D01*
X53425000Y-66400000D01*
X52895833Y-66400000D01*
X52895833Y-65870833D01*
X52366666Y-65870833D01*
X51837500Y-65870833D01*
X51837500Y-66400000D01*
X51308333Y-66400000D01*
X51308333Y-65870833D01*
X51308333Y-65341667D01*
X51308333Y-64812500D01*
X51837500Y-64812500D01*
X51837500Y-64283333D01*
X52366666Y-64283333D01*
X52366666Y-64812500D01*
X52895833Y-64812500D01*
X52895833Y-65341667D01*
X53425000Y-65341667D01*
X53425000Y-64812500D01*
X53425000Y-64283333D01*
X53425000Y-63754167D01*
X53954166Y-63754167D01*
X53954166Y-64283333D01*
G37*
G36*
X50779166Y-124750000D02*
G01*
X50250000Y-124750000D01*
X50250000Y-124220833D01*
X50779166Y-124220833D01*
X50779166Y-124750000D01*
G37*
G36*
X102779166Y-117870833D02*
G01*
X102779166Y-118400000D01*
X102250000Y-118400000D01*
X102250000Y-117870833D01*
X102250000Y-117341667D01*
X102779166Y-117341667D01*
X102779166Y-117870833D01*
G37*
G36*
X46016667Y-61108334D02*
G01*
X46016667Y-61637500D01*
X46016667Y-62166667D01*
X45487500Y-62166667D01*
X44958334Y-62166667D01*
X44429167Y-62166667D01*
X44429167Y-61637500D01*
X44429167Y-61108334D01*
X44429167Y-60579167D01*
X44958334Y-60579167D01*
X45487500Y-60579167D01*
X46016667Y-60579167D01*
X46016667Y-61108334D01*
G37*
G36*
X108600000Y-121575000D02*
G01*
X108070833Y-121575000D01*
X108070833Y-122104166D01*
X107541666Y-122104166D01*
X107541666Y-121575000D01*
X107541666Y-121045833D01*
X108070833Y-121045833D01*
X108600000Y-121045833D01*
X108600000Y-121575000D01*
G37*
G36*
X49720833Y-112050000D02*
G01*
X50250000Y-112050000D01*
X50250000Y-112579167D01*
X49720833Y-112579167D01*
X49720833Y-113108334D01*
X49191667Y-113108334D01*
X48662500Y-113108334D01*
X48662500Y-113637500D01*
X49191667Y-113637500D01*
X49191667Y-114166667D01*
X48662500Y-114166667D01*
X48662500Y-114695833D01*
X48133333Y-114695833D01*
X48133333Y-115225000D01*
X47604167Y-115225000D01*
X47604167Y-114695833D01*
X47604167Y-114166667D01*
X48133333Y-114166667D01*
X48133333Y-113637500D01*
X47604167Y-113637500D01*
X47604167Y-113108334D01*
X48133333Y-113108334D01*
X48133333Y-112579167D01*
X48662500Y-112579167D01*
X49191667Y-112579167D01*
X49191667Y-112050000D01*
X49191667Y-111520834D01*
X49720833Y-111520834D01*
X49720833Y-112050000D01*
G37*
G36*
X100133333Y-67987500D02*
G01*
X99604167Y-67987500D01*
X99604167Y-67458333D01*
X100133333Y-67458333D01*
X100133333Y-67987500D01*
G37*
G36*
X51308333Y-71162500D02*
G01*
X50779166Y-71162500D01*
X50779166Y-70633333D01*
X51308333Y-70633333D01*
X51308333Y-71162500D01*
G37*
G36*
X105954166Y-64283333D02*
G01*
X105954166Y-64812500D01*
X106483333Y-64812500D01*
X107012500Y-64812500D01*
X107012500Y-65341667D01*
X106483333Y-65341667D01*
X106483333Y-65870833D01*
X107012500Y-65870833D01*
X107541666Y-65870833D01*
X107541666Y-66400000D01*
X107541666Y-66929166D01*
X107012500Y-66929166D01*
X107012500Y-67458333D01*
X106483333Y-67458333D01*
X105954166Y-67458333D01*
X105425000Y-67458333D01*
X105425000Y-66929166D01*
X105425000Y-66400000D01*
X105954166Y-66400000D01*
X105954166Y-66929166D01*
X106483333Y-66929166D01*
X106483333Y-66400000D01*
X105954166Y-66400000D01*
X105954166Y-65870833D01*
X105425000Y-65870833D01*
X105425000Y-66400000D01*
X104895833Y-66400000D01*
X104895833Y-65870833D01*
X104366666Y-65870833D01*
X103837500Y-65870833D01*
X103837500Y-66400000D01*
X103308333Y-66400000D01*
X103308333Y-65870833D01*
X103308333Y-65341667D01*
X103308333Y-64812500D01*
X103837500Y-64812500D01*
X103837500Y-64283333D01*
X104366666Y-64283333D01*
X104366666Y-64812500D01*
X104895833Y-64812500D01*
X104895833Y-65341667D01*
X105425000Y-65341667D01*
X105425000Y-64812500D01*
X105425000Y-64283333D01*
X105425000Y-63754167D01*
X105954166Y-63754167D01*
X105954166Y-64283333D01*
G37*
D11*
X100051353Y-73332419D02*
X99432306Y-73332419D01*
X99432306Y-73332419D02*
X99765639Y-73713371D01*
X99765639Y-73713371D02*
X99622782Y-73713371D01*
X99622782Y-73713371D02*
X99527544Y-73760990D01*
X99527544Y-73760990D02*
X99479925Y-73808609D01*
X99479925Y-73808609D02*
X99432306Y-73903847D01*
X99432306Y-73903847D02*
X99432306Y-74141942D01*
X99432306Y-74141942D02*
X99479925Y-74237180D01*
X99479925Y-74237180D02*
X99527544Y-74284800D01*
X99527544Y-74284800D02*
X99622782Y-74332419D01*
X99622782Y-74332419D02*
X99908496Y-74332419D01*
X99908496Y-74332419D02*
X100003734Y-74284800D01*
X100003734Y-74284800D02*
X100051353Y-74237180D01*
X99146591Y-73332419D02*
X98813258Y-74332419D01*
X98813258Y-74332419D02*
X98479925Y-73332419D01*
X100051353Y-125332419D02*
X99432306Y-125332419D01*
X99432306Y-125332419D02*
X99765639Y-125713371D01*
X99765639Y-125713371D02*
X99622782Y-125713371D01*
X99622782Y-125713371D02*
X99527544Y-125760990D01*
X99527544Y-125760990D02*
X99479925Y-125808609D01*
X99479925Y-125808609D02*
X99432306Y-125903847D01*
X99432306Y-125903847D02*
X99432306Y-126141942D01*
X99432306Y-126141942D02*
X99479925Y-126237180D01*
X99479925Y-126237180D02*
X99527544Y-126284800D01*
X99527544Y-126284800D02*
X99622782Y-126332419D01*
X99622782Y-126332419D02*
X99908496Y-126332419D01*
X99908496Y-126332419D02*
X100003734Y-126284800D01*
X100003734Y-126284800D02*
X100051353Y-126237180D01*
X99146591Y-125332419D02*
X98813258Y-126332419D01*
X98813258Y-126332419D02*
X98479925Y-125332419D01*
D12*
X120323716Y-89541923D02*
X120323716Y-90837161D01*
X120323716Y-90837161D02*
X120399906Y-90989542D01*
X120399906Y-90989542D02*
X120476097Y-91065733D01*
X120476097Y-91065733D02*
X120628478Y-91141923D01*
X120628478Y-91141923D02*
X120857049Y-91141923D01*
X120857049Y-91141923D02*
X121009430Y-91065733D01*
X120323716Y-90532400D02*
X120476097Y-90608590D01*
X120476097Y-90608590D02*
X120780859Y-90608590D01*
X120780859Y-90608590D02*
X120933240Y-90532400D01*
X120933240Y-90532400D02*
X121009430Y-90456209D01*
X121009430Y-90456209D02*
X121085621Y-90303828D01*
X121085621Y-90303828D02*
X121085621Y-89846685D01*
X121085621Y-89846685D02*
X121009430Y-89694304D01*
X121009430Y-89694304D02*
X120933240Y-89618114D01*
X120933240Y-89618114D02*
X120780859Y-89541923D01*
X120780859Y-89541923D02*
X120476097Y-89541923D01*
X120476097Y-89541923D02*
X120323716Y-89618114D01*
X119561811Y-90608590D02*
X119561811Y-89541923D01*
X119561811Y-89008590D02*
X119638002Y-89084780D01*
X119638002Y-89084780D02*
X119561811Y-89160971D01*
X119561811Y-89160971D02*
X119485621Y-89084780D01*
X119485621Y-89084780D02*
X119561811Y-89008590D01*
X119561811Y-89008590D02*
X119561811Y-89160971D01*
X119028478Y-89541923D02*
X118418954Y-89541923D01*
X118799906Y-89008590D02*
X118799906Y-90380019D01*
X118799906Y-90380019D02*
X118723716Y-90532400D01*
X118723716Y-90532400D02*
X118571335Y-90608590D01*
X118571335Y-90608590D02*
X118418954Y-90608590D01*
X117885620Y-90608590D02*
X117885620Y-89008590D01*
X117199906Y-90608590D02*
X117199906Y-89770495D01*
X117199906Y-89770495D02*
X117276096Y-89618114D01*
X117276096Y-89618114D02*
X117428477Y-89541923D01*
X117428477Y-89541923D02*
X117657049Y-89541923D01*
X117657049Y-89541923D02*
X117809430Y-89618114D01*
X117809430Y-89618114D02*
X117885620Y-89694304D01*
X115752287Y-89541923D02*
X115752287Y-90608590D01*
X116438001Y-89541923D02*
X116438001Y-90380019D01*
X116438001Y-90380019D02*
X116361811Y-90532400D01*
X116361811Y-90532400D02*
X116209430Y-90608590D01*
X116209430Y-90608590D02*
X115980858Y-90608590D01*
X115980858Y-90608590D02*
X115828477Y-90532400D01*
X115828477Y-90532400D02*
X115752287Y-90456209D01*
X114990382Y-90608590D02*
X114990382Y-89008590D01*
X114990382Y-89618114D02*
X114838001Y-89541923D01*
X114838001Y-89541923D02*
X114533239Y-89541923D01*
X114533239Y-89541923D02*
X114380858Y-89618114D01*
X114380858Y-89618114D02*
X114304668Y-89694304D01*
X114304668Y-89694304D02*
X114228477Y-89846685D01*
X114228477Y-89846685D02*
X114228477Y-90303828D01*
X114228477Y-90303828D02*
X114304668Y-90456209D01*
X114304668Y-90456209D02*
X114380858Y-90532400D01*
X114380858Y-90532400D02*
X114533239Y-90608590D01*
X114533239Y-90608590D02*
X114838001Y-90608590D01*
X114838001Y-90608590D02*
X114990382Y-90532400D01*
X113542763Y-90456209D02*
X113466573Y-90532400D01*
X113466573Y-90532400D02*
X113542763Y-90608590D01*
X113542763Y-90608590D02*
X113618954Y-90532400D01*
X113618954Y-90532400D02*
X113542763Y-90456209D01*
X113542763Y-90456209D02*
X113542763Y-90608590D01*
X112095144Y-90532400D02*
X112247525Y-90608590D01*
X112247525Y-90608590D02*
X112552287Y-90608590D01*
X112552287Y-90608590D02*
X112704668Y-90532400D01*
X112704668Y-90532400D02*
X112780858Y-90456209D01*
X112780858Y-90456209D02*
X112857049Y-90303828D01*
X112857049Y-90303828D02*
X112857049Y-89846685D01*
X112857049Y-89846685D02*
X112780858Y-89694304D01*
X112780858Y-89694304D02*
X112704668Y-89618114D01*
X112704668Y-89618114D02*
X112552287Y-89541923D01*
X112552287Y-89541923D02*
X112247525Y-89541923D01*
X112247525Y-89541923D02*
X112095144Y-89618114D01*
X111180858Y-90608590D02*
X111333239Y-90532400D01*
X111333239Y-90532400D02*
X111409429Y-90456209D01*
X111409429Y-90456209D02*
X111485620Y-90303828D01*
X111485620Y-90303828D02*
X111485620Y-89846685D01*
X111485620Y-89846685D02*
X111409429Y-89694304D01*
X111409429Y-89694304D02*
X111333239Y-89618114D01*
X111333239Y-89618114D02*
X111180858Y-89541923D01*
X111180858Y-89541923D02*
X110952286Y-89541923D01*
X110952286Y-89541923D02*
X110799905Y-89618114D01*
X110799905Y-89618114D02*
X110723715Y-89694304D01*
X110723715Y-89694304D02*
X110647524Y-89846685D01*
X110647524Y-89846685D02*
X110647524Y-90303828D01*
X110647524Y-90303828D02*
X110723715Y-90456209D01*
X110723715Y-90456209D02*
X110799905Y-90532400D01*
X110799905Y-90532400D02*
X110952286Y-90608590D01*
X110952286Y-90608590D02*
X111180858Y-90608590D01*
X109961810Y-90608590D02*
X109961810Y-89541923D01*
X109961810Y-89694304D02*
X109885620Y-89618114D01*
X109885620Y-89618114D02*
X109733239Y-89541923D01*
X109733239Y-89541923D02*
X109504667Y-89541923D01*
X109504667Y-89541923D02*
X109352286Y-89618114D01*
X109352286Y-89618114D02*
X109276096Y-89770495D01*
X109276096Y-89770495D02*
X109276096Y-90608590D01*
X109276096Y-89770495D02*
X109199905Y-89618114D01*
X109199905Y-89618114D02*
X109047524Y-89541923D01*
X109047524Y-89541923D02*
X108818953Y-89541923D01*
X108818953Y-89541923D02*
X108666572Y-89618114D01*
X108666572Y-89618114D02*
X108590382Y-89770495D01*
X108590382Y-89770495D02*
X108590382Y-90608590D01*
X106685620Y-88932400D02*
X108057049Y-90989542D01*
X105542763Y-90532400D02*
X105695144Y-90608590D01*
X105695144Y-90608590D02*
X105999906Y-90608590D01*
X105999906Y-90608590D02*
X106152287Y-90532400D01*
X106152287Y-90532400D02*
X106228478Y-90380019D01*
X106228478Y-90380019D02*
X106228478Y-89770495D01*
X106228478Y-89770495D02*
X106152287Y-89618114D01*
X106152287Y-89618114D02*
X105999906Y-89541923D01*
X105999906Y-89541923D02*
X105695144Y-89541923D01*
X105695144Y-89541923D02*
X105542763Y-89618114D01*
X105542763Y-89618114D02*
X105466573Y-89770495D01*
X105466573Y-89770495D02*
X105466573Y-89922876D01*
X105466573Y-89922876D02*
X106228478Y-90075257D01*
X104095144Y-89541923D02*
X104095144Y-90608590D01*
X104780858Y-89541923D02*
X104780858Y-90380019D01*
X104780858Y-90380019D02*
X104704668Y-90532400D01*
X104704668Y-90532400D02*
X104552287Y-90608590D01*
X104552287Y-90608590D02*
X104323715Y-90608590D01*
X104323715Y-90608590D02*
X104171334Y-90532400D01*
X104171334Y-90532400D02*
X104095144Y-90456209D01*
X103561811Y-89541923D02*
X102952287Y-89541923D01*
X103333239Y-89008590D02*
X103333239Y-90380019D01*
X103333239Y-90380019D02*
X103257049Y-90532400D01*
X103257049Y-90532400D02*
X103104668Y-90608590D01*
X103104668Y-90608590D02*
X102952287Y-90608590D01*
X101809429Y-90532400D02*
X101961810Y-90608590D01*
X101961810Y-90608590D02*
X102266572Y-90608590D01*
X102266572Y-90608590D02*
X102418953Y-90532400D01*
X102418953Y-90532400D02*
X102495144Y-90380019D01*
X102495144Y-90380019D02*
X102495144Y-89770495D01*
X102495144Y-89770495D02*
X102418953Y-89618114D01*
X102418953Y-89618114D02*
X102266572Y-89541923D01*
X102266572Y-89541923D02*
X101961810Y-89541923D01*
X101961810Y-89541923D02*
X101809429Y-89618114D01*
X101809429Y-89618114D02*
X101733239Y-89770495D01*
X101733239Y-89770495D02*
X101733239Y-89922876D01*
X101733239Y-89922876D02*
X102495144Y-90075257D01*
X100361810Y-90532400D02*
X100514191Y-90608590D01*
X100514191Y-90608590D02*
X100818953Y-90608590D01*
X100818953Y-90608590D02*
X100971334Y-90532400D01*
X100971334Y-90532400D02*
X101047524Y-90456209D01*
X101047524Y-90456209D02*
X101123715Y-90303828D01*
X101123715Y-90303828D02*
X101123715Y-89846685D01*
X101123715Y-89846685D02*
X101047524Y-89694304D01*
X101047524Y-89694304D02*
X100971334Y-89618114D01*
X100971334Y-89618114D02*
X100818953Y-89541923D01*
X100818953Y-89541923D02*
X100514191Y-89541923D01*
X100514191Y-89541923D02*
X100361810Y-89618114D01*
X99904667Y-89541923D02*
X99295143Y-89541923D01*
X99676095Y-89008590D02*
X99676095Y-90380019D01*
X99676095Y-90380019D02*
X99599905Y-90532400D01*
X99599905Y-90532400D02*
X99447524Y-90608590D01*
X99447524Y-90608590D02*
X99295143Y-90608590D01*
X98761809Y-90608590D02*
X98761809Y-89541923D01*
X98761809Y-89008590D02*
X98838000Y-89084780D01*
X98838000Y-89084780D02*
X98761809Y-89160971D01*
X98761809Y-89160971D02*
X98685619Y-89084780D01*
X98685619Y-89084780D02*
X98761809Y-89008590D01*
X98761809Y-89008590D02*
X98761809Y-89160971D01*
X97314190Y-90532400D02*
X97466571Y-90608590D01*
X97466571Y-90608590D02*
X97771333Y-90608590D01*
X97771333Y-90608590D02*
X97923714Y-90532400D01*
X97923714Y-90532400D02*
X97999904Y-90456209D01*
X97999904Y-90456209D02*
X98076095Y-90303828D01*
X98076095Y-90303828D02*
X98076095Y-89846685D01*
X98076095Y-89846685D02*
X97999904Y-89694304D01*
X97999904Y-89694304D02*
X97923714Y-89618114D01*
X97923714Y-89618114D02*
X97771333Y-89541923D01*
X97771333Y-89541923D02*
X97466571Y-89541923D01*
X97466571Y-89541923D02*
X97314190Y-89618114D01*
X95942761Y-89008590D02*
X96247523Y-89008590D01*
X96247523Y-89008590D02*
X96399904Y-89084780D01*
X96399904Y-89084780D02*
X96476094Y-89160971D01*
X96476094Y-89160971D02*
X96628475Y-89389542D01*
X96628475Y-89389542D02*
X96704666Y-89694304D01*
X96704666Y-89694304D02*
X96704666Y-90303828D01*
X96704666Y-90303828D02*
X96628475Y-90456209D01*
X96628475Y-90456209D02*
X96552285Y-90532400D01*
X96552285Y-90532400D02*
X96399904Y-90608590D01*
X96399904Y-90608590D02*
X96095142Y-90608590D01*
X96095142Y-90608590D02*
X95942761Y-90532400D01*
X95942761Y-90532400D02*
X95866570Y-90456209D01*
X95866570Y-90456209D02*
X95790380Y-90303828D01*
X95790380Y-90303828D02*
X95790380Y-89922876D01*
X95790380Y-89922876D02*
X95866570Y-89770495D01*
X95866570Y-89770495D02*
X95942761Y-89694304D01*
X95942761Y-89694304D02*
X96095142Y-89618114D01*
X96095142Y-89618114D02*
X96399904Y-89618114D01*
X96399904Y-89618114D02*
X96552285Y-89694304D01*
X96552285Y-89694304D02*
X96628475Y-89770495D01*
X96628475Y-89770495D02*
X96704666Y-89922876D01*
X95257046Y-89008590D02*
X94266570Y-89008590D01*
X94266570Y-89008590D02*
X94799903Y-89618114D01*
X94799903Y-89618114D02*
X94571332Y-89618114D01*
X94571332Y-89618114D02*
X94418951Y-89694304D01*
X94418951Y-89694304D02*
X94342760Y-89770495D01*
X94342760Y-89770495D02*
X94266570Y-89922876D01*
X94266570Y-89922876D02*
X94266570Y-90303828D01*
X94266570Y-90303828D02*
X94342760Y-90456209D01*
X94342760Y-90456209D02*
X94418951Y-90532400D01*
X94418951Y-90532400D02*
X94571332Y-90608590D01*
X94571332Y-90608590D02*
X95028475Y-90608590D01*
X95028475Y-90608590D02*
X95180856Y-90532400D01*
X95180856Y-90532400D02*
X95257046Y-90456209D01*
X93733236Y-89008590D02*
X92742760Y-89008590D01*
X92742760Y-89008590D02*
X93276093Y-89618114D01*
X93276093Y-89618114D02*
X93047522Y-89618114D01*
X93047522Y-89618114D02*
X92895141Y-89694304D01*
X92895141Y-89694304D02*
X92818950Y-89770495D01*
X92818950Y-89770495D02*
X92742760Y-89922876D01*
X92742760Y-89922876D02*
X92742760Y-90303828D01*
X92742760Y-90303828D02*
X92818950Y-90456209D01*
X92818950Y-90456209D02*
X92895141Y-90532400D01*
X92895141Y-90532400D02*
X93047522Y-90608590D01*
X93047522Y-90608590D02*
X93504665Y-90608590D01*
X93504665Y-90608590D02*
X93657046Y-90532400D01*
X93657046Y-90532400D02*
X93733236Y-90456209D01*
X92209426Y-89008590D02*
X91142759Y-89008590D01*
X91142759Y-89008590D02*
X91828474Y-90608590D01*
X89390378Y-88932400D02*
X90761807Y-90989542D01*
X88171331Y-90532400D02*
X88323712Y-90608590D01*
X88323712Y-90608590D02*
X88628474Y-90608590D01*
X88628474Y-90608590D02*
X88780855Y-90532400D01*
X88780855Y-90532400D02*
X88857045Y-90456209D01*
X88857045Y-90456209D02*
X88933236Y-90303828D01*
X88933236Y-90303828D02*
X88933236Y-89846685D01*
X88933236Y-89846685D02*
X88857045Y-89694304D01*
X88857045Y-89694304D02*
X88780855Y-89618114D01*
X88780855Y-89618114D02*
X88628474Y-89541923D01*
X88628474Y-89541923D02*
X88323712Y-89541923D01*
X88323712Y-89541923D02*
X88171331Y-89618114D01*
X87257045Y-90608590D02*
X87409426Y-90532400D01*
X87409426Y-90532400D02*
X87485616Y-90456209D01*
X87485616Y-90456209D02*
X87561807Y-90303828D01*
X87561807Y-90303828D02*
X87561807Y-89846685D01*
X87561807Y-89846685D02*
X87485616Y-89694304D01*
X87485616Y-89694304D02*
X87409426Y-89618114D01*
X87409426Y-89618114D02*
X87257045Y-89541923D01*
X87257045Y-89541923D02*
X87028473Y-89541923D01*
X87028473Y-89541923D02*
X86876092Y-89618114D01*
X86876092Y-89618114D02*
X86799902Y-89694304D01*
X86799902Y-89694304D02*
X86723711Y-89846685D01*
X86723711Y-89846685D02*
X86723711Y-90303828D01*
X86723711Y-90303828D02*
X86799902Y-90456209D01*
X86799902Y-90456209D02*
X86876092Y-90532400D01*
X86876092Y-90532400D02*
X87028473Y-90608590D01*
X87028473Y-90608590D02*
X87257045Y-90608590D01*
X86037997Y-90608590D02*
X86037997Y-89541923D01*
X86037997Y-89008590D02*
X86114188Y-89084780D01*
X86114188Y-89084780D02*
X86037997Y-89160971D01*
X86037997Y-89160971D02*
X85961807Y-89084780D01*
X85961807Y-89084780D02*
X86037997Y-89008590D01*
X86037997Y-89008590D02*
X86037997Y-89160971D01*
X85276092Y-89541923D02*
X85276092Y-90608590D01*
X85276092Y-89694304D02*
X85199902Y-89618114D01*
X85199902Y-89618114D02*
X85047521Y-89541923D01*
X85047521Y-89541923D02*
X84818949Y-89541923D01*
X84818949Y-89541923D02*
X84666568Y-89618114D01*
X84666568Y-89618114D02*
X84590378Y-89770495D01*
X84590378Y-89770495D02*
X84590378Y-90608590D01*
X82990378Y-90608590D02*
X83904664Y-90608590D01*
X83447521Y-90608590D02*
X83447521Y-89008590D01*
X83447521Y-89008590D02*
X83599902Y-89237161D01*
X83599902Y-89237161D02*
X83752283Y-89389542D01*
X83752283Y-89389542D02*
X83904664Y-89465733D01*
D11*
X48051353Y-73332419D02*
X47432306Y-73332419D01*
X47432306Y-73332419D02*
X47765639Y-73713371D01*
X47765639Y-73713371D02*
X47622782Y-73713371D01*
X47622782Y-73713371D02*
X47527544Y-73760990D01*
X47527544Y-73760990D02*
X47479925Y-73808609D01*
X47479925Y-73808609D02*
X47432306Y-73903847D01*
X47432306Y-73903847D02*
X47432306Y-74141942D01*
X47432306Y-74141942D02*
X47479925Y-74237180D01*
X47479925Y-74237180D02*
X47527544Y-74284800D01*
X47527544Y-74284800D02*
X47622782Y-74332419D01*
X47622782Y-74332419D02*
X47908496Y-74332419D01*
X47908496Y-74332419D02*
X48003734Y-74284800D01*
X48003734Y-74284800D02*
X48051353Y-74237180D01*
X47146591Y-73332419D02*
X46813258Y-74332419D01*
X46813258Y-74332419D02*
X46479925Y-73332419D01*
X48051353Y-125332419D02*
X47432306Y-125332419D01*
X47432306Y-125332419D02*
X47765639Y-125713371D01*
X47765639Y-125713371D02*
X47622782Y-125713371D01*
X47622782Y-125713371D02*
X47527544Y-125760990D01*
X47527544Y-125760990D02*
X47479925Y-125808609D01*
X47479925Y-125808609D02*
X47432306Y-125903847D01*
X47432306Y-125903847D02*
X47432306Y-126141942D01*
X47432306Y-126141942D02*
X47479925Y-126237180D01*
X47479925Y-126237180D02*
X47527544Y-126284800D01*
X47527544Y-126284800D02*
X47622782Y-126332419D01*
X47622782Y-126332419D02*
X47908496Y-126332419D01*
X47908496Y-126332419D02*
X48003734Y-126284800D01*
X48003734Y-126284800D02*
X48051353Y-126237180D01*
X47146591Y-125332419D02*
X46813258Y-126332419D01*
X46813258Y-126332419D02*
X46479925Y-125332419D01*
D12*
X120323716Y-37541923D02*
X120323716Y-38837161D01*
X120323716Y-38837161D02*
X120399906Y-38989542D01*
X120399906Y-38989542D02*
X120476097Y-39065733D01*
X120476097Y-39065733D02*
X120628478Y-39141923D01*
X120628478Y-39141923D02*
X120857049Y-39141923D01*
X120857049Y-39141923D02*
X121009430Y-39065733D01*
X120323716Y-38532400D02*
X120476097Y-38608590D01*
X120476097Y-38608590D02*
X120780859Y-38608590D01*
X120780859Y-38608590D02*
X120933240Y-38532400D01*
X120933240Y-38532400D02*
X121009430Y-38456209D01*
X121009430Y-38456209D02*
X121085621Y-38303828D01*
X121085621Y-38303828D02*
X121085621Y-37846685D01*
X121085621Y-37846685D02*
X121009430Y-37694304D01*
X121009430Y-37694304D02*
X120933240Y-37618114D01*
X120933240Y-37618114D02*
X120780859Y-37541923D01*
X120780859Y-37541923D02*
X120476097Y-37541923D01*
X120476097Y-37541923D02*
X120323716Y-37618114D01*
X119561811Y-38608590D02*
X119561811Y-37541923D01*
X119561811Y-37008590D02*
X119638002Y-37084780D01*
X119638002Y-37084780D02*
X119561811Y-37160971D01*
X119561811Y-37160971D02*
X119485621Y-37084780D01*
X119485621Y-37084780D02*
X119561811Y-37008590D01*
X119561811Y-37008590D02*
X119561811Y-37160971D01*
X119028478Y-37541923D02*
X118418954Y-37541923D01*
X118799906Y-37008590D02*
X118799906Y-38380019D01*
X118799906Y-38380019D02*
X118723716Y-38532400D01*
X118723716Y-38532400D02*
X118571335Y-38608590D01*
X118571335Y-38608590D02*
X118418954Y-38608590D01*
X117885620Y-38608590D02*
X117885620Y-37008590D01*
X117199906Y-38608590D02*
X117199906Y-37770495D01*
X117199906Y-37770495D02*
X117276096Y-37618114D01*
X117276096Y-37618114D02*
X117428477Y-37541923D01*
X117428477Y-37541923D02*
X117657049Y-37541923D01*
X117657049Y-37541923D02*
X117809430Y-37618114D01*
X117809430Y-37618114D02*
X117885620Y-37694304D01*
X115752287Y-37541923D02*
X115752287Y-38608590D01*
X116438001Y-37541923D02*
X116438001Y-38380019D01*
X116438001Y-38380019D02*
X116361811Y-38532400D01*
X116361811Y-38532400D02*
X116209430Y-38608590D01*
X116209430Y-38608590D02*
X115980858Y-38608590D01*
X115980858Y-38608590D02*
X115828477Y-38532400D01*
X115828477Y-38532400D02*
X115752287Y-38456209D01*
X114990382Y-38608590D02*
X114990382Y-37008590D01*
X114990382Y-37618114D02*
X114838001Y-37541923D01*
X114838001Y-37541923D02*
X114533239Y-37541923D01*
X114533239Y-37541923D02*
X114380858Y-37618114D01*
X114380858Y-37618114D02*
X114304668Y-37694304D01*
X114304668Y-37694304D02*
X114228477Y-37846685D01*
X114228477Y-37846685D02*
X114228477Y-38303828D01*
X114228477Y-38303828D02*
X114304668Y-38456209D01*
X114304668Y-38456209D02*
X114380858Y-38532400D01*
X114380858Y-38532400D02*
X114533239Y-38608590D01*
X114533239Y-38608590D02*
X114838001Y-38608590D01*
X114838001Y-38608590D02*
X114990382Y-38532400D01*
X113542763Y-38456209D02*
X113466573Y-38532400D01*
X113466573Y-38532400D02*
X113542763Y-38608590D01*
X113542763Y-38608590D02*
X113618954Y-38532400D01*
X113618954Y-38532400D02*
X113542763Y-38456209D01*
X113542763Y-38456209D02*
X113542763Y-38608590D01*
X112095144Y-38532400D02*
X112247525Y-38608590D01*
X112247525Y-38608590D02*
X112552287Y-38608590D01*
X112552287Y-38608590D02*
X112704668Y-38532400D01*
X112704668Y-38532400D02*
X112780858Y-38456209D01*
X112780858Y-38456209D02*
X112857049Y-38303828D01*
X112857049Y-38303828D02*
X112857049Y-37846685D01*
X112857049Y-37846685D02*
X112780858Y-37694304D01*
X112780858Y-37694304D02*
X112704668Y-37618114D01*
X112704668Y-37618114D02*
X112552287Y-37541923D01*
X112552287Y-37541923D02*
X112247525Y-37541923D01*
X112247525Y-37541923D02*
X112095144Y-37618114D01*
X111180858Y-38608590D02*
X111333239Y-38532400D01*
X111333239Y-38532400D02*
X111409429Y-38456209D01*
X111409429Y-38456209D02*
X111485620Y-38303828D01*
X111485620Y-38303828D02*
X111485620Y-37846685D01*
X111485620Y-37846685D02*
X111409429Y-37694304D01*
X111409429Y-37694304D02*
X111333239Y-37618114D01*
X111333239Y-37618114D02*
X111180858Y-37541923D01*
X111180858Y-37541923D02*
X110952286Y-37541923D01*
X110952286Y-37541923D02*
X110799905Y-37618114D01*
X110799905Y-37618114D02*
X110723715Y-37694304D01*
X110723715Y-37694304D02*
X110647524Y-37846685D01*
X110647524Y-37846685D02*
X110647524Y-38303828D01*
X110647524Y-38303828D02*
X110723715Y-38456209D01*
X110723715Y-38456209D02*
X110799905Y-38532400D01*
X110799905Y-38532400D02*
X110952286Y-38608590D01*
X110952286Y-38608590D02*
X111180858Y-38608590D01*
X109961810Y-38608590D02*
X109961810Y-37541923D01*
X109961810Y-37694304D02*
X109885620Y-37618114D01*
X109885620Y-37618114D02*
X109733239Y-37541923D01*
X109733239Y-37541923D02*
X109504667Y-37541923D01*
X109504667Y-37541923D02*
X109352286Y-37618114D01*
X109352286Y-37618114D02*
X109276096Y-37770495D01*
X109276096Y-37770495D02*
X109276096Y-38608590D01*
X109276096Y-37770495D02*
X109199905Y-37618114D01*
X109199905Y-37618114D02*
X109047524Y-37541923D01*
X109047524Y-37541923D02*
X108818953Y-37541923D01*
X108818953Y-37541923D02*
X108666572Y-37618114D01*
X108666572Y-37618114D02*
X108590382Y-37770495D01*
X108590382Y-37770495D02*
X108590382Y-38608590D01*
X106685620Y-36932400D02*
X108057049Y-38989542D01*
X105542763Y-38532400D02*
X105695144Y-38608590D01*
X105695144Y-38608590D02*
X105999906Y-38608590D01*
X105999906Y-38608590D02*
X106152287Y-38532400D01*
X106152287Y-38532400D02*
X106228478Y-38380019D01*
X106228478Y-38380019D02*
X106228478Y-37770495D01*
X106228478Y-37770495D02*
X106152287Y-37618114D01*
X106152287Y-37618114D02*
X105999906Y-37541923D01*
X105999906Y-37541923D02*
X105695144Y-37541923D01*
X105695144Y-37541923D02*
X105542763Y-37618114D01*
X105542763Y-37618114D02*
X105466573Y-37770495D01*
X105466573Y-37770495D02*
X105466573Y-37922876D01*
X105466573Y-37922876D02*
X106228478Y-38075257D01*
X104095144Y-37541923D02*
X104095144Y-38608590D01*
X104780858Y-37541923D02*
X104780858Y-38380019D01*
X104780858Y-38380019D02*
X104704668Y-38532400D01*
X104704668Y-38532400D02*
X104552287Y-38608590D01*
X104552287Y-38608590D02*
X104323715Y-38608590D01*
X104323715Y-38608590D02*
X104171334Y-38532400D01*
X104171334Y-38532400D02*
X104095144Y-38456209D01*
X103561811Y-37541923D02*
X102952287Y-37541923D01*
X103333239Y-37008590D02*
X103333239Y-38380019D01*
X103333239Y-38380019D02*
X103257049Y-38532400D01*
X103257049Y-38532400D02*
X103104668Y-38608590D01*
X103104668Y-38608590D02*
X102952287Y-38608590D01*
X101809429Y-38532400D02*
X101961810Y-38608590D01*
X101961810Y-38608590D02*
X102266572Y-38608590D01*
X102266572Y-38608590D02*
X102418953Y-38532400D01*
X102418953Y-38532400D02*
X102495144Y-38380019D01*
X102495144Y-38380019D02*
X102495144Y-37770495D01*
X102495144Y-37770495D02*
X102418953Y-37618114D01*
X102418953Y-37618114D02*
X102266572Y-37541923D01*
X102266572Y-37541923D02*
X101961810Y-37541923D01*
X101961810Y-37541923D02*
X101809429Y-37618114D01*
X101809429Y-37618114D02*
X101733239Y-37770495D01*
X101733239Y-37770495D02*
X101733239Y-37922876D01*
X101733239Y-37922876D02*
X102495144Y-38075257D01*
X100361810Y-38532400D02*
X100514191Y-38608590D01*
X100514191Y-38608590D02*
X100818953Y-38608590D01*
X100818953Y-38608590D02*
X100971334Y-38532400D01*
X100971334Y-38532400D02*
X101047524Y-38456209D01*
X101047524Y-38456209D02*
X101123715Y-38303828D01*
X101123715Y-38303828D02*
X101123715Y-37846685D01*
X101123715Y-37846685D02*
X101047524Y-37694304D01*
X101047524Y-37694304D02*
X100971334Y-37618114D01*
X100971334Y-37618114D02*
X100818953Y-37541923D01*
X100818953Y-37541923D02*
X100514191Y-37541923D01*
X100514191Y-37541923D02*
X100361810Y-37618114D01*
X99904667Y-37541923D02*
X99295143Y-37541923D01*
X99676095Y-37008590D02*
X99676095Y-38380019D01*
X99676095Y-38380019D02*
X99599905Y-38532400D01*
X99599905Y-38532400D02*
X99447524Y-38608590D01*
X99447524Y-38608590D02*
X99295143Y-38608590D01*
X98761809Y-38608590D02*
X98761809Y-37541923D01*
X98761809Y-37008590D02*
X98838000Y-37084780D01*
X98838000Y-37084780D02*
X98761809Y-37160971D01*
X98761809Y-37160971D02*
X98685619Y-37084780D01*
X98685619Y-37084780D02*
X98761809Y-37008590D01*
X98761809Y-37008590D02*
X98761809Y-37160971D01*
X97314190Y-38532400D02*
X97466571Y-38608590D01*
X97466571Y-38608590D02*
X97771333Y-38608590D01*
X97771333Y-38608590D02*
X97923714Y-38532400D01*
X97923714Y-38532400D02*
X97999904Y-38456209D01*
X97999904Y-38456209D02*
X98076095Y-38303828D01*
X98076095Y-38303828D02*
X98076095Y-37846685D01*
X98076095Y-37846685D02*
X97999904Y-37694304D01*
X97999904Y-37694304D02*
X97923714Y-37618114D01*
X97923714Y-37618114D02*
X97771333Y-37541923D01*
X97771333Y-37541923D02*
X97466571Y-37541923D01*
X97466571Y-37541923D02*
X97314190Y-37618114D01*
X95942761Y-37008590D02*
X96247523Y-37008590D01*
X96247523Y-37008590D02*
X96399904Y-37084780D01*
X96399904Y-37084780D02*
X96476094Y-37160971D01*
X96476094Y-37160971D02*
X96628475Y-37389542D01*
X96628475Y-37389542D02*
X96704666Y-37694304D01*
X96704666Y-37694304D02*
X96704666Y-38303828D01*
X96704666Y-38303828D02*
X96628475Y-38456209D01*
X96628475Y-38456209D02*
X96552285Y-38532400D01*
X96552285Y-38532400D02*
X96399904Y-38608590D01*
X96399904Y-38608590D02*
X96095142Y-38608590D01*
X96095142Y-38608590D02*
X95942761Y-38532400D01*
X95942761Y-38532400D02*
X95866570Y-38456209D01*
X95866570Y-38456209D02*
X95790380Y-38303828D01*
X95790380Y-38303828D02*
X95790380Y-37922876D01*
X95790380Y-37922876D02*
X95866570Y-37770495D01*
X95866570Y-37770495D02*
X95942761Y-37694304D01*
X95942761Y-37694304D02*
X96095142Y-37618114D01*
X96095142Y-37618114D02*
X96399904Y-37618114D01*
X96399904Y-37618114D02*
X96552285Y-37694304D01*
X96552285Y-37694304D02*
X96628475Y-37770495D01*
X96628475Y-37770495D02*
X96704666Y-37922876D01*
X95257046Y-37008590D02*
X94266570Y-37008590D01*
X94266570Y-37008590D02*
X94799903Y-37618114D01*
X94799903Y-37618114D02*
X94571332Y-37618114D01*
X94571332Y-37618114D02*
X94418951Y-37694304D01*
X94418951Y-37694304D02*
X94342760Y-37770495D01*
X94342760Y-37770495D02*
X94266570Y-37922876D01*
X94266570Y-37922876D02*
X94266570Y-38303828D01*
X94266570Y-38303828D02*
X94342760Y-38456209D01*
X94342760Y-38456209D02*
X94418951Y-38532400D01*
X94418951Y-38532400D02*
X94571332Y-38608590D01*
X94571332Y-38608590D02*
X95028475Y-38608590D01*
X95028475Y-38608590D02*
X95180856Y-38532400D01*
X95180856Y-38532400D02*
X95257046Y-38456209D01*
X93733236Y-37008590D02*
X92742760Y-37008590D01*
X92742760Y-37008590D02*
X93276093Y-37618114D01*
X93276093Y-37618114D02*
X93047522Y-37618114D01*
X93047522Y-37618114D02*
X92895141Y-37694304D01*
X92895141Y-37694304D02*
X92818950Y-37770495D01*
X92818950Y-37770495D02*
X92742760Y-37922876D01*
X92742760Y-37922876D02*
X92742760Y-38303828D01*
X92742760Y-38303828D02*
X92818950Y-38456209D01*
X92818950Y-38456209D02*
X92895141Y-38532400D01*
X92895141Y-38532400D02*
X93047522Y-38608590D01*
X93047522Y-38608590D02*
X93504665Y-38608590D01*
X93504665Y-38608590D02*
X93657046Y-38532400D01*
X93657046Y-38532400D02*
X93733236Y-38456209D01*
X92209426Y-37008590D02*
X91142759Y-37008590D01*
X91142759Y-37008590D02*
X91828474Y-38608590D01*
X89390378Y-36932400D02*
X90761807Y-38989542D01*
X88171331Y-38532400D02*
X88323712Y-38608590D01*
X88323712Y-38608590D02*
X88628474Y-38608590D01*
X88628474Y-38608590D02*
X88780855Y-38532400D01*
X88780855Y-38532400D02*
X88857045Y-38456209D01*
X88857045Y-38456209D02*
X88933236Y-38303828D01*
X88933236Y-38303828D02*
X88933236Y-37846685D01*
X88933236Y-37846685D02*
X88857045Y-37694304D01*
X88857045Y-37694304D02*
X88780855Y-37618114D01*
X88780855Y-37618114D02*
X88628474Y-37541923D01*
X88628474Y-37541923D02*
X88323712Y-37541923D01*
X88323712Y-37541923D02*
X88171331Y-37618114D01*
X87257045Y-38608590D02*
X87409426Y-38532400D01*
X87409426Y-38532400D02*
X87485616Y-38456209D01*
X87485616Y-38456209D02*
X87561807Y-38303828D01*
X87561807Y-38303828D02*
X87561807Y-37846685D01*
X87561807Y-37846685D02*
X87485616Y-37694304D01*
X87485616Y-37694304D02*
X87409426Y-37618114D01*
X87409426Y-37618114D02*
X87257045Y-37541923D01*
X87257045Y-37541923D02*
X87028473Y-37541923D01*
X87028473Y-37541923D02*
X86876092Y-37618114D01*
X86876092Y-37618114D02*
X86799902Y-37694304D01*
X86799902Y-37694304D02*
X86723711Y-37846685D01*
X86723711Y-37846685D02*
X86723711Y-38303828D01*
X86723711Y-38303828D02*
X86799902Y-38456209D01*
X86799902Y-38456209D02*
X86876092Y-38532400D01*
X86876092Y-38532400D02*
X87028473Y-38608590D01*
X87028473Y-38608590D02*
X87257045Y-38608590D01*
X86037997Y-38608590D02*
X86037997Y-37541923D01*
X86037997Y-37008590D02*
X86114188Y-37084780D01*
X86114188Y-37084780D02*
X86037997Y-37160971D01*
X86037997Y-37160971D02*
X85961807Y-37084780D01*
X85961807Y-37084780D02*
X86037997Y-37008590D01*
X86037997Y-37008590D02*
X86037997Y-37160971D01*
X85276092Y-37541923D02*
X85276092Y-38608590D01*
X85276092Y-37694304D02*
X85199902Y-37618114D01*
X85199902Y-37618114D02*
X85047521Y-37541923D01*
X85047521Y-37541923D02*
X84818949Y-37541923D01*
X84818949Y-37541923D02*
X84666568Y-37618114D01*
X84666568Y-37618114D02*
X84590378Y-37770495D01*
X84590378Y-37770495D02*
X84590378Y-38608590D01*
X82990378Y-38608590D02*
X83904664Y-38608590D01*
X83447521Y-38608590D02*
X83447521Y-37008590D01*
X83447521Y-37008590D02*
X83599902Y-37237161D01*
X83599902Y-37237161D02*
X83752283Y-37389542D01*
X83752283Y-37389542D02*
X83904664Y-37465733D01*
D11*
X54607734Y-126284800D02*
X54464877Y-126332419D01*
X54464877Y-126332419D02*
X54226782Y-126332419D01*
X54226782Y-126332419D02*
X54131544Y-126284800D01*
X54131544Y-126284800D02*
X54083925Y-126237180D01*
X54083925Y-126237180D02*
X54036306Y-126141942D01*
X54036306Y-126141942D02*
X54036306Y-126046704D01*
X54036306Y-126046704D02*
X54083925Y-125951466D01*
X54083925Y-125951466D02*
X54131544Y-125903847D01*
X54131544Y-125903847D02*
X54226782Y-125856228D01*
X54226782Y-125856228D02*
X54417258Y-125808609D01*
X54417258Y-125808609D02*
X54512496Y-125760990D01*
X54512496Y-125760990D02*
X54560115Y-125713371D01*
X54560115Y-125713371D02*
X54607734Y-125618133D01*
X54607734Y-125618133D02*
X54607734Y-125522895D01*
X54607734Y-125522895D02*
X54560115Y-125427657D01*
X54560115Y-125427657D02*
X54512496Y-125380038D01*
X54512496Y-125380038D02*
X54417258Y-125332419D01*
X54417258Y-125332419D02*
X54179163Y-125332419D01*
X54179163Y-125332419D02*
X54036306Y-125380038D01*
X53702972Y-125332419D02*
X53464877Y-126332419D01*
X53464877Y-126332419D02*
X53274401Y-125618133D01*
X53274401Y-125618133D02*
X53083925Y-126332419D01*
X53083925Y-126332419D02*
X52845830Y-125332419D01*
X52464877Y-126332419D02*
X52464877Y-125332419D01*
X52464877Y-125332419D02*
X52226782Y-125332419D01*
X52226782Y-125332419D02*
X52083925Y-125380038D01*
X52083925Y-125380038D02*
X51988687Y-125475276D01*
X51988687Y-125475276D02*
X51941068Y-125570514D01*
X51941068Y-125570514D02*
X51893449Y-125760990D01*
X51893449Y-125760990D02*
X51893449Y-125903847D01*
X51893449Y-125903847D02*
X51941068Y-126094323D01*
X51941068Y-126094323D02*
X51988687Y-126189561D01*
X51988687Y-126189561D02*
X52083925Y-126284800D01*
X52083925Y-126284800D02*
X52226782Y-126332419D01*
X52226782Y-126332419D02*
X52464877Y-126332419D01*
D12*
X68323716Y-37541923D02*
X68323716Y-38837161D01*
X68323716Y-38837161D02*
X68399906Y-38989542D01*
X68399906Y-38989542D02*
X68476097Y-39065733D01*
X68476097Y-39065733D02*
X68628478Y-39141923D01*
X68628478Y-39141923D02*
X68857049Y-39141923D01*
X68857049Y-39141923D02*
X69009430Y-39065733D01*
X68323716Y-38532400D02*
X68476097Y-38608590D01*
X68476097Y-38608590D02*
X68780859Y-38608590D01*
X68780859Y-38608590D02*
X68933240Y-38532400D01*
X68933240Y-38532400D02*
X69009430Y-38456209D01*
X69009430Y-38456209D02*
X69085621Y-38303828D01*
X69085621Y-38303828D02*
X69085621Y-37846685D01*
X69085621Y-37846685D02*
X69009430Y-37694304D01*
X69009430Y-37694304D02*
X68933240Y-37618114D01*
X68933240Y-37618114D02*
X68780859Y-37541923D01*
X68780859Y-37541923D02*
X68476097Y-37541923D01*
X68476097Y-37541923D02*
X68323716Y-37618114D01*
X67561811Y-38608590D02*
X67561811Y-37541923D01*
X67561811Y-37008590D02*
X67638002Y-37084780D01*
X67638002Y-37084780D02*
X67561811Y-37160971D01*
X67561811Y-37160971D02*
X67485621Y-37084780D01*
X67485621Y-37084780D02*
X67561811Y-37008590D01*
X67561811Y-37008590D02*
X67561811Y-37160971D01*
X67028478Y-37541923D02*
X66418954Y-37541923D01*
X66799906Y-37008590D02*
X66799906Y-38380019D01*
X66799906Y-38380019D02*
X66723716Y-38532400D01*
X66723716Y-38532400D02*
X66571335Y-38608590D01*
X66571335Y-38608590D02*
X66418954Y-38608590D01*
X65885620Y-38608590D02*
X65885620Y-37008590D01*
X65199906Y-38608590D02*
X65199906Y-37770495D01*
X65199906Y-37770495D02*
X65276096Y-37618114D01*
X65276096Y-37618114D02*
X65428477Y-37541923D01*
X65428477Y-37541923D02*
X65657049Y-37541923D01*
X65657049Y-37541923D02*
X65809430Y-37618114D01*
X65809430Y-37618114D02*
X65885620Y-37694304D01*
X63752287Y-37541923D02*
X63752287Y-38608590D01*
X64438001Y-37541923D02*
X64438001Y-38380019D01*
X64438001Y-38380019D02*
X64361811Y-38532400D01*
X64361811Y-38532400D02*
X64209430Y-38608590D01*
X64209430Y-38608590D02*
X63980858Y-38608590D01*
X63980858Y-38608590D02*
X63828477Y-38532400D01*
X63828477Y-38532400D02*
X63752287Y-38456209D01*
X62990382Y-38608590D02*
X62990382Y-37008590D01*
X62990382Y-37618114D02*
X62838001Y-37541923D01*
X62838001Y-37541923D02*
X62533239Y-37541923D01*
X62533239Y-37541923D02*
X62380858Y-37618114D01*
X62380858Y-37618114D02*
X62304668Y-37694304D01*
X62304668Y-37694304D02*
X62228477Y-37846685D01*
X62228477Y-37846685D02*
X62228477Y-38303828D01*
X62228477Y-38303828D02*
X62304668Y-38456209D01*
X62304668Y-38456209D02*
X62380858Y-38532400D01*
X62380858Y-38532400D02*
X62533239Y-38608590D01*
X62533239Y-38608590D02*
X62838001Y-38608590D01*
X62838001Y-38608590D02*
X62990382Y-38532400D01*
X61542763Y-38456209D02*
X61466573Y-38532400D01*
X61466573Y-38532400D02*
X61542763Y-38608590D01*
X61542763Y-38608590D02*
X61618954Y-38532400D01*
X61618954Y-38532400D02*
X61542763Y-38456209D01*
X61542763Y-38456209D02*
X61542763Y-38608590D01*
X60095144Y-38532400D02*
X60247525Y-38608590D01*
X60247525Y-38608590D02*
X60552287Y-38608590D01*
X60552287Y-38608590D02*
X60704668Y-38532400D01*
X60704668Y-38532400D02*
X60780858Y-38456209D01*
X60780858Y-38456209D02*
X60857049Y-38303828D01*
X60857049Y-38303828D02*
X60857049Y-37846685D01*
X60857049Y-37846685D02*
X60780858Y-37694304D01*
X60780858Y-37694304D02*
X60704668Y-37618114D01*
X60704668Y-37618114D02*
X60552287Y-37541923D01*
X60552287Y-37541923D02*
X60247525Y-37541923D01*
X60247525Y-37541923D02*
X60095144Y-37618114D01*
X59180858Y-38608590D02*
X59333239Y-38532400D01*
X59333239Y-38532400D02*
X59409429Y-38456209D01*
X59409429Y-38456209D02*
X59485620Y-38303828D01*
X59485620Y-38303828D02*
X59485620Y-37846685D01*
X59485620Y-37846685D02*
X59409429Y-37694304D01*
X59409429Y-37694304D02*
X59333239Y-37618114D01*
X59333239Y-37618114D02*
X59180858Y-37541923D01*
X59180858Y-37541923D02*
X58952286Y-37541923D01*
X58952286Y-37541923D02*
X58799905Y-37618114D01*
X58799905Y-37618114D02*
X58723715Y-37694304D01*
X58723715Y-37694304D02*
X58647524Y-37846685D01*
X58647524Y-37846685D02*
X58647524Y-38303828D01*
X58647524Y-38303828D02*
X58723715Y-38456209D01*
X58723715Y-38456209D02*
X58799905Y-38532400D01*
X58799905Y-38532400D02*
X58952286Y-38608590D01*
X58952286Y-38608590D02*
X59180858Y-38608590D01*
X57961810Y-38608590D02*
X57961810Y-37541923D01*
X57961810Y-37694304D02*
X57885620Y-37618114D01*
X57885620Y-37618114D02*
X57733239Y-37541923D01*
X57733239Y-37541923D02*
X57504667Y-37541923D01*
X57504667Y-37541923D02*
X57352286Y-37618114D01*
X57352286Y-37618114D02*
X57276096Y-37770495D01*
X57276096Y-37770495D02*
X57276096Y-38608590D01*
X57276096Y-37770495D02*
X57199905Y-37618114D01*
X57199905Y-37618114D02*
X57047524Y-37541923D01*
X57047524Y-37541923D02*
X56818953Y-37541923D01*
X56818953Y-37541923D02*
X56666572Y-37618114D01*
X56666572Y-37618114D02*
X56590382Y-37770495D01*
X56590382Y-37770495D02*
X56590382Y-38608590D01*
X54685620Y-36932400D02*
X56057049Y-38989542D01*
X53542763Y-38532400D02*
X53695144Y-38608590D01*
X53695144Y-38608590D02*
X53999906Y-38608590D01*
X53999906Y-38608590D02*
X54152287Y-38532400D01*
X54152287Y-38532400D02*
X54228478Y-38380019D01*
X54228478Y-38380019D02*
X54228478Y-37770495D01*
X54228478Y-37770495D02*
X54152287Y-37618114D01*
X54152287Y-37618114D02*
X53999906Y-37541923D01*
X53999906Y-37541923D02*
X53695144Y-37541923D01*
X53695144Y-37541923D02*
X53542763Y-37618114D01*
X53542763Y-37618114D02*
X53466573Y-37770495D01*
X53466573Y-37770495D02*
X53466573Y-37922876D01*
X53466573Y-37922876D02*
X54228478Y-38075257D01*
X52095144Y-37541923D02*
X52095144Y-38608590D01*
X52780858Y-37541923D02*
X52780858Y-38380019D01*
X52780858Y-38380019D02*
X52704668Y-38532400D01*
X52704668Y-38532400D02*
X52552287Y-38608590D01*
X52552287Y-38608590D02*
X52323715Y-38608590D01*
X52323715Y-38608590D02*
X52171334Y-38532400D01*
X52171334Y-38532400D02*
X52095144Y-38456209D01*
X51561811Y-37541923D02*
X50952287Y-37541923D01*
X51333239Y-37008590D02*
X51333239Y-38380019D01*
X51333239Y-38380019D02*
X51257049Y-38532400D01*
X51257049Y-38532400D02*
X51104668Y-38608590D01*
X51104668Y-38608590D02*
X50952287Y-38608590D01*
X49809429Y-38532400D02*
X49961810Y-38608590D01*
X49961810Y-38608590D02*
X50266572Y-38608590D01*
X50266572Y-38608590D02*
X50418953Y-38532400D01*
X50418953Y-38532400D02*
X50495144Y-38380019D01*
X50495144Y-38380019D02*
X50495144Y-37770495D01*
X50495144Y-37770495D02*
X50418953Y-37618114D01*
X50418953Y-37618114D02*
X50266572Y-37541923D01*
X50266572Y-37541923D02*
X49961810Y-37541923D01*
X49961810Y-37541923D02*
X49809429Y-37618114D01*
X49809429Y-37618114D02*
X49733239Y-37770495D01*
X49733239Y-37770495D02*
X49733239Y-37922876D01*
X49733239Y-37922876D02*
X50495144Y-38075257D01*
X48361810Y-38532400D02*
X48514191Y-38608590D01*
X48514191Y-38608590D02*
X48818953Y-38608590D01*
X48818953Y-38608590D02*
X48971334Y-38532400D01*
X48971334Y-38532400D02*
X49047524Y-38456209D01*
X49047524Y-38456209D02*
X49123715Y-38303828D01*
X49123715Y-38303828D02*
X49123715Y-37846685D01*
X49123715Y-37846685D02*
X49047524Y-37694304D01*
X49047524Y-37694304D02*
X48971334Y-37618114D01*
X48971334Y-37618114D02*
X48818953Y-37541923D01*
X48818953Y-37541923D02*
X48514191Y-37541923D01*
X48514191Y-37541923D02*
X48361810Y-37618114D01*
X47904667Y-37541923D02*
X47295143Y-37541923D01*
X47676095Y-37008590D02*
X47676095Y-38380019D01*
X47676095Y-38380019D02*
X47599905Y-38532400D01*
X47599905Y-38532400D02*
X47447524Y-38608590D01*
X47447524Y-38608590D02*
X47295143Y-38608590D01*
X46761809Y-38608590D02*
X46761809Y-37541923D01*
X46761809Y-37008590D02*
X46838000Y-37084780D01*
X46838000Y-37084780D02*
X46761809Y-37160971D01*
X46761809Y-37160971D02*
X46685619Y-37084780D01*
X46685619Y-37084780D02*
X46761809Y-37008590D01*
X46761809Y-37008590D02*
X46761809Y-37160971D01*
X45314190Y-38532400D02*
X45466571Y-38608590D01*
X45466571Y-38608590D02*
X45771333Y-38608590D01*
X45771333Y-38608590D02*
X45923714Y-38532400D01*
X45923714Y-38532400D02*
X45999904Y-38456209D01*
X45999904Y-38456209D02*
X46076095Y-38303828D01*
X46076095Y-38303828D02*
X46076095Y-37846685D01*
X46076095Y-37846685D02*
X45999904Y-37694304D01*
X45999904Y-37694304D02*
X45923714Y-37618114D01*
X45923714Y-37618114D02*
X45771333Y-37541923D01*
X45771333Y-37541923D02*
X45466571Y-37541923D01*
X45466571Y-37541923D02*
X45314190Y-37618114D01*
X43942761Y-37008590D02*
X44247523Y-37008590D01*
X44247523Y-37008590D02*
X44399904Y-37084780D01*
X44399904Y-37084780D02*
X44476094Y-37160971D01*
X44476094Y-37160971D02*
X44628475Y-37389542D01*
X44628475Y-37389542D02*
X44704666Y-37694304D01*
X44704666Y-37694304D02*
X44704666Y-38303828D01*
X44704666Y-38303828D02*
X44628475Y-38456209D01*
X44628475Y-38456209D02*
X44552285Y-38532400D01*
X44552285Y-38532400D02*
X44399904Y-38608590D01*
X44399904Y-38608590D02*
X44095142Y-38608590D01*
X44095142Y-38608590D02*
X43942761Y-38532400D01*
X43942761Y-38532400D02*
X43866570Y-38456209D01*
X43866570Y-38456209D02*
X43790380Y-38303828D01*
X43790380Y-38303828D02*
X43790380Y-37922876D01*
X43790380Y-37922876D02*
X43866570Y-37770495D01*
X43866570Y-37770495D02*
X43942761Y-37694304D01*
X43942761Y-37694304D02*
X44095142Y-37618114D01*
X44095142Y-37618114D02*
X44399904Y-37618114D01*
X44399904Y-37618114D02*
X44552285Y-37694304D01*
X44552285Y-37694304D02*
X44628475Y-37770495D01*
X44628475Y-37770495D02*
X44704666Y-37922876D01*
X43257046Y-37008590D02*
X42266570Y-37008590D01*
X42266570Y-37008590D02*
X42799903Y-37618114D01*
X42799903Y-37618114D02*
X42571332Y-37618114D01*
X42571332Y-37618114D02*
X42418951Y-37694304D01*
X42418951Y-37694304D02*
X42342760Y-37770495D01*
X42342760Y-37770495D02*
X42266570Y-37922876D01*
X42266570Y-37922876D02*
X42266570Y-38303828D01*
X42266570Y-38303828D02*
X42342760Y-38456209D01*
X42342760Y-38456209D02*
X42418951Y-38532400D01*
X42418951Y-38532400D02*
X42571332Y-38608590D01*
X42571332Y-38608590D02*
X43028475Y-38608590D01*
X43028475Y-38608590D02*
X43180856Y-38532400D01*
X43180856Y-38532400D02*
X43257046Y-38456209D01*
X41733236Y-37008590D02*
X40742760Y-37008590D01*
X40742760Y-37008590D02*
X41276093Y-37618114D01*
X41276093Y-37618114D02*
X41047522Y-37618114D01*
X41047522Y-37618114D02*
X40895141Y-37694304D01*
X40895141Y-37694304D02*
X40818950Y-37770495D01*
X40818950Y-37770495D02*
X40742760Y-37922876D01*
X40742760Y-37922876D02*
X40742760Y-38303828D01*
X40742760Y-38303828D02*
X40818950Y-38456209D01*
X40818950Y-38456209D02*
X40895141Y-38532400D01*
X40895141Y-38532400D02*
X41047522Y-38608590D01*
X41047522Y-38608590D02*
X41504665Y-38608590D01*
X41504665Y-38608590D02*
X41657046Y-38532400D01*
X41657046Y-38532400D02*
X41733236Y-38456209D01*
X40209426Y-37008590D02*
X39142759Y-37008590D01*
X39142759Y-37008590D02*
X39828474Y-38608590D01*
X37390378Y-36932400D02*
X38761807Y-38989542D01*
X36171331Y-38532400D02*
X36323712Y-38608590D01*
X36323712Y-38608590D02*
X36628474Y-38608590D01*
X36628474Y-38608590D02*
X36780855Y-38532400D01*
X36780855Y-38532400D02*
X36857045Y-38456209D01*
X36857045Y-38456209D02*
X36933236Y-38303828D01*
X36933236Y-38303828D02*
X36933236Y-37846685D01*
X36933236Y-37846685D02*
X36857045Y-37694304D01*
X36857045Y-37694304D02*
X36780855Y-37618114D01*
X36780855Y-37618114D02*
X36628474Y-37541923D01*
X36628474Y-37541923D02*
X36323712Y-37541923D01*
X36323712Y-37541923D02*
X36171331Y-37618114D01*
X35257045Y-38608590D02*
X35409426Y-38532400D01*
X35409426Y-38532400D02*
X35485616Y-38456209D01*
X35485616Y-38456209D02*
X35561807Y-38303828D01*
X35561807Y-38303828D02*
X35561807Y-37846685D01*
X35561807Y-37846685D02*
X35485616Y-37694304D01*
X35485616Y-37694304D02*
X35409426Y-37618114D01*
X35409426Y-37618114D02*
X35257045Y-37541923D01*
X35257045Y-37541923D02*
X35028473Y-37541923D01*
X35028473Y-37541923D02*
X34876092Y-37618114D01*
X34876092Y-37618114D02*
X34799902Y-37694304D01*
X34799902Y-37694304D02*
X34723711Y-37846685D01*
X34723711Y-37846685D02*
X34723711Y-38303828D01*
X34723711Y-38303828D02*
X34799902Y-38456209D01*
X34799902Y-38456209D02*
X34876092Y-38532400D01*
X34876092Y-38532400D02*
X35028473Y-38608590D01*
X35028473Y-38608590D02*
X35257045Y-38608590D01*
X34037997Y-38608590D02*
X34037997Y-37541923D01*
X34037997Y-37008590D02*
X34114188Y-37084780D01*
X34114188Y-37084780D02*
X34037997Y-37160971D01*
X34037997Y-37160971D02*
X33961807Y-37084780D01*
X33961807Y-37084780D02*
X34037997Y-37008590D01*
X34037997Y-37008590D02*
X34037997Y-37160971D01*
X33276092Y-37541923D02*
X33276092Y-38608590D01*
X33276092Y-37694304D02*
X33199902Y-37618114D01*
X33199902Y-37618114D02*
X33047521Y-37541923D01*
X33047521Y-37541923D02*
X32818949Y-37541923D01*
X32818949Y-37541923D02*
X32666568Y-37618114D01*
X32666568Y-37618114D02*
X32590378Y-37770495D01*
X32590378Y-37770495D02*
X32590378Y-38608590D01*
X30990378Y-38608590D02*
X31904664Y-38608590D01*
X31447521Y-38608590D02*
X31447521Y-37008590D01*
X31447521Y-37008590D02*
X31599902Y-37237161D01*
X31599902Y-37237161D02*
X31752283Y-37389542D01*
X31752283Y-37389542D02*
X31904664Y-37465733D01*
D11*
X106607734Y-74284800D02*
X106464877Y-74332419D01*
X106464877Y-74332419D02*
X106226782Y-74332419D01*
X106226782Y-74332419D02*
X106131544Y-74284800D01*
X106131544Y-74284800D02*
X106083925Y-74237180D01*
X106083925Y-74237180D02*
X106036306Y-74141942D01*
X106036306Y-74141942D02*
X106036306Y-74046704D01*
X106036306Y-74046704D02*
X106083925Y-73951466D01*
X106083925Y-73951466D02*
X106131544Y-73903847D01*
X106131544Y-73903847D02*
X106226782Y-73856228D01*
X106226782Y-73856228D02*
X106417258Y-73808609D01*
X106417258Y-73808609D02*
X106512496Y-73760990D01*
X106512496Y-73760990D02*
X106560115Y-73713371D01*
X106560115Y-73713371D02*
X106607734Y-73618133D01*
X106607734Y-73618133D02*
X106607734Y-73522895D01*
X106607734Y-73522895D02*
X106560115Y-73427657D01*
X106560115Y-73427657D02*
X106512496Y-73380038D01*
X106512496Y-73380038D02*
X106417258Y-73332419D01*
X106417258Y-73332419D02*
X106179163Y-73332419D01*
X106179163Y-73332419D02*
X106036306Y-73380038D01*
X105702972Y-73332419D02*
X105464877Y-74332419D01*
X105464877Y-74332419D02*
X105274401Y-73618133D01*
X105274401Y-73618133D02*
X105083925Y-74332419D01*
X105083925Y-74332419D02*
X104845830Y-73332419D01*
X104464877Y-74332419D02*
X104464877Y-73332419D01*
X104464877Y-73332419D02*
X104226782Y-73332419D01*
X104226782Y-73332419D02*
X104083925Y-73380038D01*
X104083925Y-73380038D02*
X103988687Y-73475276D01*
X103988687Y-73475276D02*
X103941068Y-73570514D01*
X103941068Y-73570514D02*
X103893449Y-73760990D01*
X103893449Y-73760990D02*
X103893449Y-73903847D01*
X103893449Y-73903847D02*
X103941068Y-74094323D01*
X103941068Y-74094323D02*
X103988687Y-74189561D01*
X103988687Y-74189561D02*
X104083925Y-74284800D01*
X104083925Y-74284800D02*
X104226782Y-74332419D01*
X104226782Y-74332419D02*
X104464877Y-74332419D01*
D12*
X68323716Y-89541923D02*
X68323716Y-90837161D01*
X68323716Y-90837161D02*
X68399906Y-90989542D01*
X68399906Y-90989542D02*
X68476097Y-91065733D01*
X68476097Y-91065733D02*
X68628478Y-91141923D01*
X68628478Y-91141923D02*
X68857049Y-91141923D01*
X68857049Y-91141923D02*
X69009430Y-91065733D01*
X68323716Y-90532400D02*
X68476097Y-90608590D01*
X68476097Y-90608590D02*
X68780859Y-90608590D01*
X68780859Y-90608590D02*
X68933240Y-90532400D01*
X68933240Y-90532400D02*
X69009430Y-90456209D01*
X69009430Y-90456209D02*
X69085621Y-90303828D01*
X69085621Y-90303828D02*
X69085621Y-89846685D01*
X69085621Y-89846685D02*
X69009430Y-89694304D01*
X69009430Y-89694304D02*
X68933240Y-89618114D01*
X68933240Y-89618114D02*
X68780859Y-89541923D01*
X68780859Y-89541923D02*
X68476097Y-89541923D01*
X68476097Y-89541923D02*
X68323716Y-89618114D01*
X67561811Y-90608590D02*
X67561811Y-89541923D01*
X67561811Y-89008590D02*
X67638002Y-89084780D01*
X67638002Y-89084780D02*
X67561811Y-89160971D01*
X67561811Y-89160971D02*
X67485621Y-89084780D01*
X67485621Y-89084780D02*
X67561811Y-89008590D01*
X67561811Y-89008590D02*
X67561811Y-89160971D01*
X67028478Y-89541923D02*
X66418954Y-89541923D01*
X66799906Y-89008590D02*
X66799906Y-90380019D01*
X66799906Y-90380019D02*
X66723716Y-90532400D01*
X66723716Y-90532400D02*
X66571335Y-90608590D01*
X66571335Y-90608590D02*
X66418954Y-90608590D01*
X65885620Y-90608590D02*
X65885620Y-89008590D01*
X65199906Y-90608590D02*
X65199906Y-89770495D01*
X65199906Y-89770495D02*
X65276096Y-89618114D01*
X65276096Y-89618114D02*
X65428477Y-89541923D01*
X65428477Y-89541923D02*
X65657049Y-89541923D01*
X65657049Y-89541923D02*
X65809430Y-89618114D01*
X65809430Y-89618114D02*
X65885620Y-89694304D01*
X63752287Y-89541923D02*
X63752287Y-90608590D01*
X64438001Y-89541923D02*
X64438001Y-90380019D01*
X64438001Y-90380019D02*
X64361811Y-90532400D01*
X64361811Y-90532400D02*
X64209430Y-90608590D01*
X64209430Y-90608590D02*
X63980858Y-90608590D01*
X63980858Y-90608590D02*
X63828477Y-90532400D01*
X63828477Y-90532400D02*
X63752287Y-90456209D01*
X62990382Y-90608590D02*
X62990382Y-89008590D01*
X62990382Y-89618114D02*
X62838001Y-89541923D01*
X62838001Y-89541923D02*
X62533239Y-89541923D01*
X62533239Y-89541923D02*
X62380858Y-89618114D01*
X62380858Y-89618114D02*
X62304668Y-89694304D01*
X62304668Y-89694304D02*
X62228477Y-89846685D01*
X62228477Y-89846685D02*
X62228477Y-90303828D01*
X62228477Y-90303828D02*
X62304668Y-90456209D01*
X62304668Y-90456209D02*
X62380858Y-90532400D01*
X62380858Y-90532400D02*
X62533239Y-90608590D01*
X62533239Y-90608590D02*
X62838001Y-90608590D01*
X62838001Y-90608590D02*
X62990382Y-90532400D01*
X61542763Y-90456209D02*
X61466573Y-90532400D01*
X61466573Y-90532400D02*
X61542763Y-90608590D01*
X61542763Y-90608590D02*
X61618954Y-90532400D01*
X61618954Y-90532400D02*
X61542763Y-90456209D01*
X61542763Y-90456209D02*
X61542763Y-90608590D01*
X60095144Y-90532400D02*
X60247525Y-90608590D01*
X60247525Y-90608590D02*
X60552287Y-90608590D01*
X60552287Y-90608590D02*
X60704668Y-90532400D01*
X60704668Y-90532400D02*
X60780858Y-90456209D01*
X60780858Y-90456209D02*
X60857049Y-90303828D01*
X60857049Y-90303828D02*
X60857049Y-89846685D01*
X60857049Y-89846685D02*
X60780858Y-89694304D01*
X60780858Y-89694304D02*
X60704668Y-89618114D01*
X60704668Y-89618114D02*
X60552287Y-89541923D01*
X60552287Y-89541923D02*
X60247525Y-89541923D01*
X60247525Y-89541923D02*
X60095144Y-89618114D01*
X59180858Y-90608590D02*
X59333239Y-90532400D01*
X59333239Y-90532400D02*
X59409429Y-90456209D01*
X59409429Y-90456209D02*
X59485620Y-90303828D01*
X59485620Y-90303828D02*
X59485620Y-89846685D01*
X59485620Y-89846685D02*
X59409429Y-89694304D01*
X59409429Y-89694304D02*
X59333239Y-89618114D01*
X59333239Y-89618114D02*
X59180858Y-89541923D01*
X59180858Y-89541923D02*
X58952286Y-89541923D01*
X58952286Y-89541923D02*
X58799905Y-89618114D01*
X58799905Y-89618114D02*
X58723715Y-89694304D01*
X58723715Y-89694304D02*
X58647524Y-89846685D01*
X58647524Y-89846685D02*
X58647524Y-90303828D01*
X58647524Y-90303828D02*
X58723715Y-90456209D01*
X58723715Y-90456209D02*
X58799905Y-90532400D01*
X58799905Y-90532400D02*
X58952286Y-90608590D01*
X58952286Y-90608590D02*
X59180858Y-90608590D01*
X57961810Y-90608590D02*
X57961810Y-89541923D01*
X57961810Y-89694304D02*
X57885620Y-89618114D01*
X57885620Y-89618114D02*
X57733239Y-89541923D01*
X57733239Y-89541923D02*
X57504667Y-89541923D01*
X57504667Y-89541923D02*
X57352286Y-89618114D01*
X57352286Y-89618114D02*
X57276096Y-89770495D01*
X57276096Y-89770495D02*
X57276096Y-90608590D01*
X57276096Y-89770495D02*
X57199905Y-89618114D01*
X57199905Y-89618114D02*
X57047524Y-89541923D01*
X57047524Y-89541923D02*
X56818953Y-89541923D01*
X56818953Y-89541923D02*
X56666572Y-89618114D01*
X56666572Y-89618114D02*
X56590382Y-89770495D01*
X56590382Y-89770495D02*
X56590382Y-90608590D01*
X54685620Y-88932400D02*
X56057049Y-90989542D01*
X53542763Y-90532400D02*
X53695144Y-90608590D01*
X53695144Y-90608590D02*
X53999906Y-90608590D01*
X53999906Y-90608590D02*
X54152287Y-90532400D01*
X54152287Y-90532400D02*
X54228478Y-90380019D01*
X54228478Y-90380019D02*
X54228478Y-89770495D01*
X54228478Y-89770495D02*
X54152287Y-89618114D01*
X54152287Y-89618114D02*
X53999906Y-89541923D01*
X53999906Y-89541923D02*
X53695144Y-89541923D01*
X53695144Y-89541923D02*
X53542763Y-89618114D01*
X53542763Y-89618114D02*
X53466573Y-89770495D01*
X53466573Y-89770495D02*
X53466573Y-89922876D01*
X53466573Y-89922876D02*
X54228478Y-90075257D01*
X52095144Y-89541923D02*
X52095144Y-90608590D01*
X52780858Y-89541923D02*
X52780858Y-90380019D01*
X52780858Y-90380019D02*
X52704668Y-90532400D01*
X52704668Y-90532400D02*
X52552287Y-90608590D01*
X52552287Y-90608590D02*
X52323715Y-90608590D01*
X52323715Y-90608590D02*
X52171334Y-90532400D01*
X52171334Y-90532400D02*
X52095144Y-90456209D01*
X51561811Y-89541923D02*
X50952287Y-89541923D01*
X51333239Y-89008590D02*
X51333239Y-90380019D01*
X51333239Y-90380019D02*
X51257049Y-90532400D01*
X51257049Y-90532400D02*
X51104668Y-90608590D01*
X51104668Y-90608590D02*
X50952287Y-90608590D01*
X49809429Y-90532400D02*
X49961810Y-90608590D01*
X49961810Y-90608590D02*
X50266572Y-90608590D01*
X50266572Y-90608590D02*
X50418953Y-90532400D01*
X50418953Y-90532400D02*
X50495144Y-90380019D01*
X50495144Y-90380019D02*
X50495144Y-89770495D01*
X50495144Y-89770495D02*
X50418953Y-89618114D01*
X50418953Y-89618114D02*
X50266572Y-89541923D01*
X50266572Y-89541923D02*
X49961810Y-89541923D01*
X49961810Y-89541923D02*
X49809429Y-89618114D01*
X49809429Y-89618114D02*
X49733239Y-89770495D01*
X49733239Y-89770495D02*
X49733239Y-89922876D01*
X49733239Y-89922876D02*
X50495144Y-90075257D01*
X48361810Y-90532400D02*
X48514191Y-90608590D01*
X48514191Y-90608590D02*
X48818953Y-90608590D01*
X48818953Y-90608590D02*
X48971334Y-90532400D01*
X48971334Y-90532400D02*
X49047524Y-90456209D01*
X49047524Y-90456209D02*
X49123715Y-90303828D01*
X49123715Y-90303828D02*
X49123715Y-89846685D01*
X49123715Y-89846685D02*
X49047524Y-89694304D01*
X49047524Y-89694304D02*
X48971334Y-89618114D01*
X48971334Y-89618114D02*
X48818953Y-89541923D01*
X48818953Y-89541923D02*
X48514191Y-89541923D01*
X48514191Y-89541923D02*
X48361810Y-89618114D01*
X47904667Y-89541923D02*
X47295143Y-89541923D01*
X47676095Y-89008590D02*
X47676095Y-90380019D01*
X47676095Y-90380019D02*
X47599905Y-90532400D01*
X47599905Y-90532400D02*
X47447524Y-90608590D01*
X47447524Y-90608590D02*
X47295143Y-90608590D01*
X46761809Y-90608590D02*
X46761809Y-89541923D01*
X46761809Y-89008590D02*
X46838000Y-89084780D01*
X46838000Y-89084780D02*
X46761809Y-89160971D01*
X46761809Y-89160971D02*
X46685619Y-89084780D01*
X46685619Y-89084780D02*
X46761809Y-89008590D01*
X46761809Y-89008590D02*
X46761809Y-89160971D01*
X45314190Y-90532400D02*
X45466571Y-90608590D01*
X45466571Y-90608590D02*
X45771333Y-90608590D01*
X45771333Y-90608590D02*
X45923714Y-90532400D01*
X45923714Y-90532400D02*
X45999904Y-90456209D01*
X45999904Y-90456209D02*
X46076095Y-90303828D01*
X46076095Y-90303828D02*
X46076095Y-89846685D01*
X46076095Y-89846685D02*
X45999904Y-89694304D01*
X45999904Y-89694304D02*
X45923714Y-89618114D01*
X45923714Y-89618114D02*
X45771333Y-89541923D01*
X45771333Y-89541923D02*
X45466571Y-89541923D01*
X45466571Y-89541923D02*
X45314190Y-89618114D01*
X43942761Y-89008590D02*
X44247523Y-89008590D01*
X44247523Y-89008590D02*
X44399904Y-89084780D01*
X44399904Y-89084780D02*
X44476094Y-89160971D01*
X44476094Y-89160971D02*
X44628475Y-89389542D01*
X44628475Y-89389542D02*
X44704666Y-89694304D01*
X44704666Y-89694304D02*
X44704666Y-90303828D01*
X44704666Y-90303828D02*
X44628475Y-90456209D01*
X44628475Y-90456209D02*
X44552285Y-90532400D01*
X44552285Y-90532400D02*
X44399904Y-90608590D01*
X44399904Y-90608590D02*
X44095142Y-90608590D01*
X44095142Y-90608590D02*
X43942761Y-90532400D01*
X43942761Y-90532400D02*
X43866570Y-90456209D01*
X43866570Y-90456209D02*
X43790380Y-90303828D01*
X43790380Y-90303828D02*
X43790380Y-89922876D01*
X43790380Y-89922876D02*
X43866570Y-89770495D01*
X43866570Y-89770495D02*
X43942761Y-89694304D01*
X43942761Y-89694304D02*
X44095142Y-89618114D01*
X44095142Y-89618114D02*
X44399904Y-89618114D01*
X44399904Y-89618114D02*
X44552285Y-89694304D01*
X44552285Y-89694304D02*
X44628475Y-89770495D01*
X44628475Y-89770495D02*
X44704666Y-89922876D01*
X43257046Y-89008590D02*
X42266570Y-89008590D01*
X42266570Y-89008590D02*
X42799903Y-89618114D01*
X42799903Y-89618114D02*
X42571332Y-89618114D01*
X42571332Y-89618114D02*
X42418951Y-89694304D01*
X42418951Y-89694304D02*
X42342760Y-89770495D01*
X42342760Y-89770495D02*
X42266570Y-89922876D01*
X42266570Y-89922876D02*
X42266570Y-90303828D01*
X42266570Y-90303828D02*
X42342760Y-90456209D01*
X42342760Y-90456209D02*
X42418951Y-90532400D01*
X42418951Y-90532400D02*
X42571332Y-90608590D01*
X42571332Y-90608590D02*
X43028475Y-90608590D01*
X43028475Y-90608590D02*
X43180856Y-90532400D01*
X43180856Y-90532400D02*
X43257046Y-90456209D01*
X41733236Y-89008590D02*
X40742760Y-89008590D01*
X40742760Y-89008590D02*
X41276093Y-89618114D01*
X41276093Y-89618114D02*
X41047522Y-89618114D01*
X41047522Y-89618114D02*
X40895141Y-89694304D01*
X40895141Y-89694304D02*
X40818950Y-89770495D01*
X40818950Y-89770495D02*
X40742760Y-89922876D01*
X40742760Y-89922876D02*
X40742760Y-90303828D01*
X40742760Y-90303828D02*
X40818950Y-90456209D01*
X40818950Y-90456209D02*
X40895141Y-90532400D01*
X40895141Y-90532400D02*
X41047522Y-90608590D01*
X41047522Y-90608590D02*
X41504665Y-90608590D01*
X41504665Y-90608590D02*
X41657046Y-90532400D01*
X41657046Y-90532400D02*
X41733236Y-90456209D01*
X40209426Y-89008590D02*
X39142759Y-89008590D01*
X39142759Y-89008590D02*
X39828474Y-90608590D01*
X37390378Y-88932400D02*
X38761807Y-90989542D01*
X36171331Y-90532400D02*
X36323712Y-90608590D01*
X36323712Y-90608590D02*
X36628474Y-90608590D01*
X36628474Y-90608590D02*
X36780855Y-90532400D01*
X36780855Y-90532400D02*
X36857045Y-90456209D01*
X36857045Y-90456209D02*
X36933236Y-90303828D01*
X36933236Y-90303828D02*
X36933236Y-89846685D01*
X36933236Y-89846685D02*
X36857045Y-89694304D01*
X36857045Y-89694304D02*
X36780855Y-89618114D01*
X36780855Y-89618114D02*
X36628474Y-89541923D01*
X36628474Y-89541923D02*
X36323712Y-89541923D01*
X36323712Y-89541923D02*
X36171331Y-89618114D01*
X35257045Y-90608590D02*
X35409426Y-90532400D01*
X35409426Y-90532400D02*
X35485616Y-90456209D01*
X35485616Y-90456209D02*
X35561807Y-90303828D01*
X35561807Y-90303828D02*
X35561807Y-89846685D01*
X35561807Y-89846685D02*
X35485616Y-89694304D01*
X35485616Y-89694304D02*
X35409426Y-89618114D01*
X35409426Y-89618114D02*
X35257045Y-89541923D01*
X35257045Y-89541923D02*
X35028473Y-89541923D01*
X35028473Y-89541923D02*
X34876092Y-89618114D01*
X34876092Y-89618114D02*
X34799902Y-89694304D01*
X34799902Y-89694304D02*
X34723711Y-89846685D01*
X34723711Y-89846685D02*
X34723711Y-90303828D01*
X34723711Y-90303828D02*
X34799902Y-90456209D01*
X34799902Y-90456209D02*
X34876092Y-90532400D01*
X34876092Y-90532400D02*
X35028473Y-90608590D01*
X35028473Y-90608590D02*
X35257045Y-90608590D01*
X34037997Y-90608590D02*
X34037997Y-89541923D01*
X34037997Y-89008590D02*
X34114188Y-89084780D01*
X34114188Y-89084780D02*
X34037997Y-89160971D01*
X34037997Y-89160971D02*
X33961807Y-89084780D01*
X33961807Y-89084780D02*
X34037997Y-89008590D01*
X34037997Y-89008590D02*
X34037997Y-89160971D01*
X33276092Y-89541923D02*
X33276092Y-90608590D01*
X33276092Y-89694304D02*
X33199902Y-89618114D01*
X33199902Y-89618114D02*
X33047521Y-89541923D01*
X33047521Y-89541923D02*
X32818949Y-89541923D01*
X32818949Y-89541923D02*
X32666568Y-89618114D01*
X32666568Y-89618114D02*
X32590378Y-89770495D01*
X32590378Y-89770495D02*
X32590378Y-90608590D01*
X30990378Y-90608590D02*
X31904664Y-90608590D01*
X31447521Y-90608590D02*
X31447521Y-89008590D01*
X31447521Y-89008590D02*
X31599902Y-89237161D01*
X31599902Y-89237161D02*
X31752283Y-89389542D01*
X31752283Y-89389542D02*
X31904664Y-89465733D01*
D11*
X54607734Y-74284800D02*
X54464877Y-74332419D01*
X54464877Y-74332419D02*
X54226782Y-74332419D01*
X54226782Y-74332419D02*
X54131544Y-74284800D01*
X54131544Y-74284800D02*
X54083925Y-74237180D01*
X54083925Y-74237180D02*
X54036306Y-74141942D01*
X54036306Y-74141942D02*
X54036306Y-74046704D01*
X54036306Y-74046704D02*
X54083925Y-73951466D01*
X54083925Y-73951466D02*
X54131544Y-73903847D01*
X54131544Y-73903847D02*
X54226782Y-73856228D01*
X54226782Y-73856228D02*
X54417258Y-73808609D01*
X54417258Y-73808609D02*
X54512496Y-73760990D01*
X54512496Y-73760990D02*
X54560115Y-73713371D01*
X54560115Y-73713371D02*
X54607734Y-73618133D01*
X54607734Y-73618133D02*
X54607734Y-73522895D01*
X54607734Y-73522895D02*
X54560115Y-73427657D01*
X54560115Y-73427657D02*
X54512496Y-73380038D01*
X54512496Y-73380038D02*
X54417258Y-73332419D01*
X54417258Y-73332419D02*
X54179163Y-73332419D01*
X54179163Y-73332419D02*
X54036306Y-73380038D01*
X53702972Y-73332419D02*
X53464877Y-74332419D01*
X53464877Y-74332419D02*
X53274401Y-73618133D01*
X53274401Y-73618133D02*
X53083925Y-74332419D01*
X53083925Y-74332419D02*
X52845830Y-73332419D01*
X52464877Y-74332419D02*
X52464877Y-73332419D01*
X52464877Y-73332419D02*
X52226782Y-73332419D01*
X52226782Y-73332419D02*
X52083925Y-73380038D01*
X52083925Y-73380038D02*
X51988687Y-73475276D01*
X51988687Y-73475276D02*
X51941068Y-73570514D01*
X51941068Y-73570514D02*
X51893449Y-73760990D01*
X51893449Y-73760990D02*
X51893449Y-73903847D01*
X51893449Y-73903847D02*
X51941068Y-74094323D01*
X51941068Y-74094323D02*
X51988687Y-74189561D01*
X51988687Y-74189561D02*
X52083925Y-74284800D01*
X52083925Y-74284800D02*
X52226782Y-74332419D01*
X52226782Y-74332419D02*
X52464877Y-74332419D01*
X106607734Y-126284800D02*
X106464877Y-126332419D01*
X106464877Y-126332419D02*
X106226782Y-126332419D01*
X106226782Y-126332419D02*
X106131544Y-126284800D01*
X106131544Y-126284800D02*
X106083925Y-126237180D01*
X106083925Y-126237180D02*
X106036306Y-126141942D01*
X106036306Y-126141942D02*
X106036306Y-126046704D01*
X106036306Y-126046704D02*
X106083925Y-125951466D01*
X106083925Y-125951466D02*
X106131544Y-125903847D01*
X106131544Y-125903847D02*
X106226782Y-125856228D01*
X106226782Y-125856228D02*
X106417258Y-125808609D01*
X106417258Y-125808609D02*
X106512496Y-125760990D01*
X106512496Y-125760990D02*
X106560115Y-125713371D01*
X106560115Y-125713371D02*
X106607734Y-125618133D01*
X106607734Y-125618133D02*
X106607734Y-125522895D01*
X106607734Y-125522895D02*
X106560115Y-125427657D01*
X106560115Y-125427657D02*
X106512496Y-125380038D01*
X106512496Y-125380038D02*
X106417258Y-125332419D01*
X106417258Y-125332419D02*
X106179163Y-125332419D01*
X106179163Y-125332419D02*
X106036306Y-125380038D01*
X105702972Y-125332419D02*
X105464877Y-126332419D01*
X105464877Y-126332419D02*
X105274401Y-125618133D01*
X105274401Y-125618133D02*
X105083925Y-126332419D01*
X105083925Y-126332419D02*
X104845830Y-125332419D01*
X104464877Y-126332419D02*
X104464877Y-125332419D01*
X104464877Y-125332419D02*
X104226782Y-125332419D01*
X104226782Y-125332419D02*
X104083925Y-125380038D01*
X104083925Y-125380038D02*
X103988687Y-125475276D01*
X103988687Y-125475276D02*
X103941068Y-125570514D01*
X103941068Y-125570514D02*
X103893449Y-125760990D01*
X103893449Y-125760990D02*
X103893449Y-125903847D01*
X103893449Y-125903847D02*
X103941068Y-126094323D01*
X103941068Y-126094323D02*
X103988687Y-126189561D01*
X103988687Y-126189561D02*
X104083925Y-126284800D01*
X104083925Y-126284800D02*
X104226782Y-126332419D01*
X104226782Y-126332419D02*
X104464877Y-126332419D01*
D13*
X117761904Y-47509200D02*
X117619047Y-47556819D01*
X117619047Y-47556819D02*
X117380952Y-47556819D01*
X117380952Y-47556819D02*
X117285714Y-47509200D01*
X117285714Y-47509200D02*
X117238095Y-47461580D01*
X117238095Y-47461580D02*
X117190476Y-47366342D01*
X117190476Y-47366342D02*
X117190476Y-47271104D01*
X117190476Y-47271104D02*
X117238095Y-47175866D01*
X117238095Y-47175866D02*
X117285714Y-47128247D01*
X117285714Y-47128247D02*
X117380952Y-47080628D01*
X117380952Y-47080628D02*
X117571428Y-47033009D01*
X117571428Y-47033009D02*
X117666666Y-46985390D01*
X117666666Y-46985390D02*
X117714285Y-46937771D01*
X117714285Y-46937771D02*
X117761904Y-46842533D01*
X117761904Y-46842533D02*
X117761904Y-46747295D01*
X117761904Y-46747295D02*
X117714285Y-46652057D01*
X117714285Y-46652057D02*
X117666666Y-46604438D01*
X117666666Y-46604438D02*
X117571428Y-46556819D01*
X117571428Y-46556819D02*
X117333333Y-46556819D01*
X117333333Y-46556819D02*
X117190476Y-46604438D01*
X116238095Y-47556819D02*
X116809523Y-47556819D01*
X116523809Y-47556819D02*
X116523809Y-46556819D01*
X116523809Y-46556819D02*
X116619047Y-46699676D01*
X116619047Y-46699676D02*
X116714285Y-46794914D01*
X116714285Y-46794914D02*
X116809523Y-46842533D01*
X35761904Y-99509200D02*
X35619047Y-99556819D01*
X35619047Y-99556819D02*
X35380952Y-99556819D01*
X35380952Y-99556819D02*
X35285714Y-99509200D01*
X35285714Y-99509200D02*
X35238095Y-99461580D01*
X35238095Y-99461580D02*
X35190476Y-99366342D01*
X35190476Y-99366342D02*
X35190476Y-99271104D01*
X35190476Y-99271104D02*
X35238095Y-99175866D01*
X35238095Y-99175866D02*
X35285714Y-99128247D01*
X35285714Y-99128247D02*
X35380952Y-99080628D01*
X35380952Y-99080628D02*
X35571428Y-99033009D01*
X35571428Y-99033009D02*
X35666666Y-98985390D01*
X35666666Y-98985390D02*
X35714285Y-98937771D01*
X35714285Y-98937771D02*
X35761904Y-98842533D01*
X35761904Y-98842533D02*
X35761904Y-98747295D01*
X35761904Y-98747295D02*
X35714285Y-98652057D01*
X35714285Y-98652057D02*
X35666666Y-98604438D01*
X35666666Y-98604438D02*
X35571428Y-98556819D01*
X35571428Y-98556819D02*
X35333333Y-98556819D01*
X35333333Y-98556819D02*
X35190476Y-98604438D01*
X34809523Y-98652057D02*
X34761904Y-98604438D01*
X34761904Y-98604438D02*
X34666666Y-98556819D01*
X34666666Y-98556819D02*
X34428571Y-98556819D01*
X34428571Y-98556819D02*
X34333333Y-98604438D01*
X34333333Y-98604438D02*
X34285714Y-98652057D01*
X34285714Y-98652057D02*
X34238095Y-98747295D01*
X34238095Y-98747295D02*
X34238095Y-98842533D01*
X34238095Y-98842533D02*
X34285714Y-98985390D01*
X34285714Y-98985390D02*
X34857142Y-99556819D01*
X34857142Y-99556819D02*
X34238095Y-99556819D01*
X65761904Y-47509200D02*
X65619047Y-47556819D01*
X65619047Y-47556819D02*
X65380952Y-47556819D01*
X65380952Y-47556819D02*
X65285714Y-47509200D01*
X65285714Y-47509200D02*
X65238095Y-47461580D01*
X65238095Y-47461580D02*
X65190476Y-47366342D01*
X65190476Y-47366342D02*
X65190476Y-47271104D01*
X65190476Y-47271104D02*
X65238095Y-47175866D01*
X65238095Y-47175866D02*
X65285714Y-47128247D01*
X65285714Y-47128247D02*
X65380952Y-47080628D01*
X65380952Y-47080628D02*
X65571428Y-47033009D01*
X65571428Y-47033009D02*
X65666666Y-46985390D01*
X65666666Y-46985390D02*
X65714285Y-46937771D01*
X65714285Y-46937771D02*
X65761904Y-46842533D01*
X65761904Y-46842533D02*
X65761904Y-46747295D01*
X65761904Y-46747295D02*
X65714285Y-46652057D01*
X65714285Y-46652057D02*
X65666666Y-46604438D01*
X65666666Y-46604438D02*
X65571428Y-46556819D01*
X65571428Y-46556819D02*
X65333333Y-46556819D01*
X65333333Y-46556819D02*
X65190476Y-46604438D01*
X64238095Y-47556819D02*
X64809523Y-47556819D01*
X64523809Y-47556819D02*
X64523809Y-46556819D01*
X64523809Y-46556819D02*
X64619047Y-46699676D01*
X64619047Y-46699676D02*
X64714285Y-46794914D01*
X64714285Y-46794914D02*
X64809523Y-46842533D01*
X35761904Y-47509200D02*
X35619047Y-47556819D01*
X35619047Y-47556819D02*
X35380952Y-47556819D01*
X35380952Y-47556819D02*
X35285714Y-47509200D01*
X35285714Y-47509200D02*
X35238095Y-47461580D01*
X35238095Y-47461580D02*
X35190476Y-47366342D01*
X35190476Y-47366342D02*
X35190476Y-47271104D01*
X35190476Y-47271104D02*
X35238095Y-47175866D01*
X35238095Y-47175866D02*
X35285714Y-47128247D01*
X35285714Y-47128247D02*
X35380952Y-47080628D01*
X35380952Y-47080628D02*
X35571428Y-47033009D01*
X35571428Y-47033009D02*
X35666666Y-46985390D01*
X35666666Y-46985390D02*
X35714285Y-46937771D01*
X35714285Y-46937771D02*
X35761904Y-46842533D01*
X35761904Y-46842533D02*
X35761904Y-46747295D01*
X35761904Y-46747295D02*
X35714285Y-46652057D01*
X35714285Y-46652057D02*
X35666666Y-46604438D01*
X35666666Y-46604438D02*
X35571428Y-46556819D01*
X35571428Y-46556819D02*
X35333333Y-46556819D01*
X35333333Y-46556819D02*
X35190476Y-46604438D01*
X34809523Y-46652057D02*
X34761904Y-46604438D01*
X34761904Y-46604438D02*
X34666666Y-46556819D01*
X34666666Y-46556819D02*
X34428571Y-46556819D01*
X34428571Y-46556819D02*
X34333333Y-46604438D01*
X34333333Y-46604438D02*
X34285714Y-46652057D01*
X34285714Y-46652057D02*
X34238095Y-46747295D01*
X34238095Y-46747295D02*
X34238095Y-46842533D01*
X34238095Y-46842533D02*
X34285714Y-46985390D01*
X34285714Y-46985390D02*
X34857142Y-47556819D01*
X34857142Y-47556819D02*
X34238095Y-47556819D01*
X87761904Y-47509200D02*
X87619047Y-47556819D01*
X87619047Y-47556819D02*
X87380952Y-47556819D01*
X87380952Y-47556819D02*
X87285714Y-47509200D01*
X87285714Y-47509200D02*
X87238095Y-47461580D01*
X87238095Y-47461580D02*
X87190476Y-47366342D01*
X87190476Y-47366342D02*
X87190476Y-47271104D01*
X87190476Y-47271104D02*
X87238095Y-47175866D01*
X87238095Y-47175866D02*
X87285714Y-47128247D01*
X87285714Y-47128247D02*
X87380952Y-47080628D01*
X87380952Y-47080628D02*
X87571428Y-47033009D01*
X87571428Y-47033009D02*
X87666666Y-46985390D01*
X87666666Y-46985390D02*
X87714285Y-46937771D01*
X87714285Y-46937771D02*
X87761904Y-46842533D01*
X87761904Y-46842533D02*
X87761904Y-46747295D01*
X87761904Y-46747295D02*
X87714285Y-46652057D01*
X87714285Y-46652057D02*
X87666666Y-46604438D01*
X87666666Y-46604438D02*
X87571428Y-46556819D01*
X87571428Y-46556819D02*
X87333333Y-46556819D01*
X87333333Y-46556819D02*
X87190476Y-46604438D01*
X86809523Y-46652057D02*
X86761904Y-46604438D01*
X86761904Y-46604438D02*
X86666666Y-46556819D01*
X86666666Y-46556819D02*
X86428571Y-46556819D01*
X86428571Y-46556819D02*
X86333333Y-46604438D01*
X86333333Y-46604438D02*
X86285714Y-46652057D01*
X86285714Y-46652057D02*
X86238095Y-46747295D01*
X86238095Y-46747295D02*
X86238095Y-46842533D01*
X86238095Y-46842533D02*
X86285714Y-46985390D01*
X86285714Y-46985390D02*
X86857142Y-47556819D01*
X86857142Y-47556819D02*
X86238095Y-47556819D01*
X117761904Y-99509200D02*
X117619047Y-99556819D01*
X117619047Y-99556819D02*
X117380952Y-99556819D01*
X117380952Y-99556819D02*
X117285714Y-99509200D01*
X117285714Y-99509200D02*
X117238095Y-99461580D01*
X117238095Y-99461580D02*
X117190476Y-99366342D01*
X117190476Y-99366342D02*
X117190476Y-99271104D01*
X117190476Y-99271104D02*
X117238095Y-99175866D01*
X117238095Y-99175866D02*
X117285714Y-99128247D01*
X117285714Y-99128247D02*
X117380952Y-99080628D01*
X117380952Y-99080628D02*
X117571428Y-99033009D01*
X117571428Y-99033009D02*
X117666666Y-98985390D01*
X117666666Y-98985390D02*
X117714285Y-98937771D01*
X117714285Y-98937771D02*
X117761904Y-98842533D01*
X117761904Y-98842533D02*
X117761904Y-98747295D01*
X117761904Y-98747295D02*
X117714285Y-98652057D01*
X117714285Y-98652057D02*
X117666666Y-98604438D01*
X117666666Y-98604438D02*
X117571428Y-98556819D01*
X117571428Y-98556819D02*
X117333333Y-98556819D01*
X117333333Y-98556819D02*
X117190476Y-98604438D01*
X116238095Y-99556819D02*
X116809523Y-99556819D01*
X116523809Y-99556819D02*
X116523809Y-98556819D01*
X116523809Y-98556819D02*
X116619047Y-98699676D01*
X116619047Y-98699676D02*
X116714285Y-98794914D01*
X116714285Y-98794914D02*
X116809523Y-98842533D01*
X65761904Y-99509200D02*
X65619047Y-99556819D01*
X65619047Y-99556819D02*
X65380952Y-99556819D01*
X65380952Y-99556819D02*
X65285714Y-99509200D01*
X65285714Y-99509200D02*
X65238095Y-99461580D01*
X65238095Y-99461580D02*
X65190476Y-99366342D01*
X65190476Y-99366342D02*
X65190476Y-99271104D01*
X65190476Y-99271104D02*
X65238095Y-99175866D01*
X65238095Y-99175866D02*
X65285714Y-99128247D01*
X65285714Y-99128247D02*
X65380952Y-99080628D01*
X65380952Y-99080628D02*
X65571428Y-99033009D01*
X65571428Y-99033009D02*
X65666666Y-98985390D01*
X65666666Y-98985390D02*
X65714285Y-98937771D01*
X65714285Y-98937771D02*
X65761904Y-98842533D01*
X65761904Y-98842533D02*
X65761904Y-98747295D01*
X65761904Y-98747295D02*
X65714285Y-98652057D01*
X65714285Y-98652057D02*
X65666666Y-98604438D01*
X65666666Y-98604438D02*
X65571428Y-98556819D01*
X65571428Y-98556819D02*
X65333333Y-98556819D01*
X65333333Y-98556819D02*
X65190476Y-98604438D01*
X64238095Y-99556819D02*
X64809523Y-99556819D01*
X64523809Y-99556819D02*
X64523809Y-98556819D01*
X64523809Y-98556819D02*
X64619047Y-98699676D01*
X64619047Y-98699676D02*
X64714285Y-98794914D01*
X64714285Y-98794914D02*
X64809523Y-98842533D01*
X87761904Y-99509200D02*
X87619047Y-99556819D01*
X87619047Y-99556819D02*
X87380952Y-99556819D01*
X87380952Y-99556819D02*
X87285714Y-99509200D01*
X87285714Y-99509200D02*
X87238095Y-99461580D01*
X87238095Y-99461580D02*
X87190476Y-99366342D01*
X87190476Y-99366342D02*
X87190476Y-99271104D01*
X87190476Y-99271104D02*
X87238095Y-99175866D01*
X87238095Y-99175866D02*
X87285714Y-99128247D01*
X87285714Y-99128247D02*
X87380952Y-99080628D01*
X87380952Y-99080628D02*
X87571428Y-99033009D01*
X87571428Y-99033009D02*
X87666666Y-98985390D01*
X87666666Y-98985390D02*
X87714285Y-98937771D01*
X87714285Y-98937771D02*
X87761904Y-98842533D01*
X87761904Y-98842533D02*
X87761904Y-98747295D01*
X87761904Y-98747295D02*
X87714285Y-98652057D01*
X87714285Y-98652057D02*
X87666666Y-98604438D01*
X87666666Y-98604438D02*
X87571428Y-98556819D01*
X87571428Y-98556819D02*
X87333333Y-98556819D01*
X87333333Y-98556819D02*
X87190476Y-98604438D01*
X86809523Y-98652057D02*
X86761904Y-98604438D01*
X86761904Y-98604438D02*
X86666666Y-98556819D01*
X86666666Y-98556819D02*
X86428571Y-98556819D01*
X86428571Y-98556819D02*
X86333333Y-98604438D01*
X86333333Y-98604438D02*
X86285714Y-98652057D01*
X86285714Y-98652057D02*
X86238095Y-98747295D01*
X86238095Y-98747295D02*
X86238095Y-98842533D01*
X86238095Y-98842533D02*
X86285714Y-98985390D01*
X86285714Y-98985390D02*
X86857142Y-99556819D01*
X86857142Y-99556819D02*
X86238095Y-99556819D01*
D14*
%TO.C,S1*%
X119250000Y-50000000D02*
G75*
G02*
X114750000Y-50000000I-2250000J0D01*
G01*
X114750000Y-50000000D02*
G75*
G02*
X119250000Y-50000000I2250000J0D01*
G01*
%TO.C,S2*%
X37250000Y-102000000D02*
G75*
G02*
X32750000Y-102000000I-2250000J0D01*
G01*
X32750000Y-102000000D02*
G75*
G02*
X37250000Y-102000000I2250000J0D01*
G01*
%TO.C,S1*%
X67250000Y-50000000D02*
G75*
G02*
X62750000Y-50000000I-2250000J0D01*
G01*
X62750000Y-50000000D02*
G75*
G02*
X67250000Y-50000000I2250000J0D01*
G01*
%TO.C,S2*%
X37250000Y-50000000D02*
G75*
G02*
X32750000Y-50000000I-2250000J0D01*
G01*
X32750000Y-50000000D02*
G75*
G02*
X37250000Y-50000000I2250000J0D01*
G01*
X89250000Y-50000000D02*
G75*
G02*
X84750000Y-50000000I-2250000J0D01*
G01*
X84750000Y-50000000D02*
G75*
G02*
X89250000Y-50000000I2250000J0D01*
G01*
%TO.C,S1*%
X119250000Y-102000000D02*
G75*
G02*
X114750000Y-102000000I-2250000J0D01*
G01*
X114750000Y-102000000D02*
G75*
G02*
X119250000Y-102000000I2250000J0D01*
G01*
X67250000Y-102000000D02*
G75*
G02*
X62750000Y-102000000I-2250000J0D01*
G01*
X62750000Y-102000000D02*
G75*
G02*
X67250000Y-102000000I2250000J0D01*
G01*
%TO.C,S2*%
X89250000Y-102000000D02*
G75*
G02*
X84750000Y-102000000I-2250000J0D01*
G01*
X84750000Y-102000000D02*
G75*
G02*
X89250000Y-102000000I2250000J0D01*
G01*
%TD*%
%LPC*%
D15*
%TO.C,*%
X20500000Y-31000000D03*
%TD*%
%TO.C,*%
X20500000Y-121000000D03*
%TD*%
%TO.C,*%
X131500000Y-121000000D03*
%TD*%
%TO.C,*%
X131500000Y-31000000D03*
%TD*%
D16*
%TO.C,*%
X132000000Y-76000000D03*
%TD*%
%TO.C,*%
X20000000Y-76000000D03*
%TD*%
%TO.C,*%
X132000000Y-125000000D03*
%TD*%
%TO.C,*%
X20000000Y-27000000D03*
%TD*%
D15*
%TO.C,stitch1*%
X78924000Y-97758000D03*
%TD*%
D17*
%TO.C,*%
X77043360Y-51471770D03*
%TD*%
D15*
%TO.C,stitch1*%
X26924000Y-45758000D03*
%TD*%
%TO.C,stitch1*%
X64948000Y-120110000D03*
%TD*%
D17*
%TO.C,*%
X126918129Y-103961100D03*
%TD*%
%TO.C,*%
X74918129Y-51961100D03*
%TD*%
%TO.C,*%
X74995181Y-50490842D03*
%TD*%
D15*
%TO.C,stitch1*%
X41910000Y-27978000D03*
%TD*%
D17*
%TO.C,*%
X49509158Y-74995181D03*
%TD*%
%TO.C,*%
X25043360Y-51471770D03*
%TD*%
%TO.C,*%
X126995181Y-102490842D03*
%TD*%
%TO.C,*%
X100528230Y-77043360D03*
%TD*%
%TO.C,*%
X77043360Y-103471770D03*
%TD*%
%TO.C,*%
X74918129Y-48038901D03*
%TD*%
D15*
%TO.C,stitch1*%
X26924000Y-97758000D03*
%TD*%
D17*
%TO.C,*%
X77024090Y-102981319D03*
%TD*%
%TO.C,*%
X102490842Y-77004819D03*
%TD*%
%TO.C,*%
X74995181Y-49509158D03*
%TD*%
D15*
%TO.C,through-r3*%
X98257038Y-93452000D03*
%TD*%
D18*
%TO.C,align-r1*%
X27800000Y-104400000D03*
%TD*%
D17*
%TO.C,*%
X77004819Y-101509158D03*
%TD*%
%TO.C,*%
X126975911Y-102981293D03*
%TD*%
D19*
%TO.C,J1*%
X48725000Y-73000000D03*
D20*
X49995001Y-73000000D03*
X51265000Y-73000000D03*
%TD*%
D17*
%TO.C,*%
X103471770Y-77043360D03*
%TD*%
%TO.C,*%
X25004819Y-50000000D03*
%TD*%
%TO.C,*%
X77004819Y-50000000D03*
%TD*%
%TO.C,*%
X50490842Y-77004819D03*
%TD*%
D15*
%TO.C,stitch1*%
X27178000Y-55156000D03*
%TD*%
D17*
%TO.C,*%
X51471770Y-77043360D03*
%TD*%
%TO.C,*%
X74956640Y-100528230D03*
%TD*%
%TO.C,*%
X74918129Y-103961100D03*
%TD*%
%TO.C,*%
X51471770Y-74956640D03*
%TD*%
D15*
%TO.C,stitch1*%
X73076000Y-97758000D03*
%TD*%
%TO.C,stitch1*%
X35306000Y-83788000D03*
%TD*%
D17*
%TO.C,*%
X25004819Y-101509158D03*
%TD*%
D15*
%TO.C,through-r5*%
X96958000Y-43702000D03*
%TD*%
D17*
%TO.C,*%
X49509158Y-77004819D03*
%TD*%
D15*
%TO.C,stitch1*%
X41910000Y-79978000D03*
%TD*%
D17*
%TO.C,*%
X74975911Y-50981293D03*
%TD*%
D15*
%TO.C,through-r3*%
X98257038Y-41452000D03*
%TD*%
D18*
%TO.C,align-r2*%
X72200000Y-99300000D03*
%TD*%
D17*
%TO.C,*%
X126995181Y-101509158D03*
%TD*%
%TO.C,*%
X74975910Y-101018694D03*
%TD*%
%TO.C,*%
X126995181Y-49509158D03*
%TD*%
%TO.C,*%
X77043360Y-48528230D03*
%TD*%
%TO.C,*%
X74975910Y-49018694D03*
%TD*%
D15*
%TO.C,stitch1*%
X87052000Y-68110000D03*
%TD*%
%TO.C,through-r1*%
X44958000Y-42202000D03*
%TD*%
%TO.C,through-r7*%
X95658961Y-93452000D03*
%TD*%
D21*
%TO.C,battery-eject1*%
X102000000Y-57000000D03*
%TD*%
D15*
%TO.C,stitch1*%
X72822000Y-107156000D03*
%TD*%
D17*
%TO.C,*%
X50000000Y-74995181D03*
%TD*%
D15*
%TO.C,stitch1*%
X35306000Y-31788000D03*
%TD*%
%TO.C,through-r1*%
X96958000Y-42202000D03*
%TD*%
D17*
%TO.C,*%
X77024090Y-50981319D03*
%TD*%
%TO.C,*%
X51961099Y-77081871D03*
%TD*%
D15*
%TO.C,stitch1*%
X125076000Y-45758000D03*
%TD*%
%TO.C,stitch1*%
X58090000Y-79978000D03*
%TD*%
D18*
%TO.C,align-r1*%
X79800000Y-52400000D03*
%TD*%
D17*
%TO.C,*%
X74956640Y-103471770D03*
%TD*%
D15*
%TO.C,stitch1*%
X124822000Y-107156000D03*
%TD*%
D17*
%TO.C,*%
X126975910Y-101018694D03*
%TD*%
%TO.C,*%
X77081871Y-103961100D03*
%TD*%
%TO.C,*%
X25004819Y-102490842D03*
%TD*%
D15*
%TO.C,stitch1*%
X35052000Y-68110000D03*
%TD*%
D17*
%TO.C,*%
X25081871Y-51961100D03*
%TD*%
D15*
%TO.C,stitch1*%
X87306000Y-31788000D03*
%TD*%
%TO.C,stitch1*%
X64948000Y-68110000D03*
%TD*%
%TO.C,stitch1*%
X73076000Y-45758000D03*
%TD*%
%TO.C,through-r2*%
X44958000Y-92702000D03*
%TD*%
%TO.C,through-r4*%
X98257038Y-94952000D03*
%TD*%
D18*
%TO.C,align-r1*%
X27800000Y-52400000D03*
%TD*%
D17*
%TO.C,*%
X25004819Y-50490842D03*
%TD*%
%TO.C,*%
X48528230Y-77043360D03*
%TD*%
%TO.C,*%
X126918129Y-51961100D03*
%TD*%
%TO.C,*%
X74995181Y-50000000D03*
%TD*%
%TO.C,*%
X48038901Y-74918129D03*
%TD*%
%TO.C,*%
X50000000Y-77004819D03*
%TD*%
D15*
%TO.C,stitch1*%
X110090000Y-27978000D03*
%TD*%
D17*
%TO.C,*%
X126975911Y-50981293D03*
%TD*%
%TO.C,*%
X77081871Y-48038900D03*
%TD*%
%TO.C,*%
X77024090Y-49018681D03*
%TD*%
%TO.C,*%
X101018681Y-77024090D03*
%TD*%
D15*
%TO.C,through-r6*%
X43658961Y-42952000D03*
%TD*%
D17*
%TO.C,*%
X77004819Y-102000000D03*
%TD*%
%TO.C,*%
X51961100Y-74918129D03*
%TD*%
D15*
%TO.C,stitch1*%
X93910000Y-27978000D03*
%TD*%
%TO.C,stitch1*%
X102038000Y-26454000D03*
%TD*%
%TO.C,through-r5*%
X44958000Y-95702000D03*
%TD*%
%TO.C,stitch1*%
X79178000Y-107156000D03*
%TD*%
D17*
%TO.C,*%
X74975911Y-102981293D03*
%TD*%
D18*
%TO.C,align-r1*%
X79800000Y-104400000D03*
%TD*%
D17*
%TO.C,*%
X25081871Y-103961100D03*
%TD*%
D15*
%TO.C,stitch1*%
X50038000Y-78454000D03*
%TD*%
%TO.C,through-r4*%
X46257038Y-42952000D03*
%TD*%
%TO.C,stitch1*%
X35052000Y-120110000D03*
%TD*%
%TO.C,through-r4*%
X46257038Y-94952000D03*
%TD*%
%TO.C,stitch1*%
X27178000Y-107156000D03*
%TD*%
D17*
%TO.C,*%
X77024090Y-101018681D03*
%TD*%
%TO.C,*%
X25043360Y-48528230D03*
%TD*%
D21*
%TO.C,battery-eject1*%
X50000000Y-109000000D03*
%TD*%
D17*
%TO.C,*%
X25043360Y-103471770D03*
%TD*%
D15*
%TO.C,through-r7*%
X95658961Y-41452000D03*
%TD*%
D17*
%TO.C,*%
X25024090Y-102981319D03*
%TD*%
D15*
%TO.C,stitch1*%
X116694000Y-83788000D03*
%TD*%
D18*
%TO.C,align-r2*%
X124200000Y-99300000D03*
%TD*%
D17*
%TO.C,*%
X77081871Y-100038900D03*
%TD*%
%TO.C,*%
X25004819Y-102000000D03*
%TD*%
%TO.C,*%
X50981319Y-77024090D03*
%TD*%
D18*
%TO.C,align-r2*%
X72200000Y-47300000D03*
%TD*%
D17*
%TO.C,*%
X50981293Y-74975911D03*
%TD*%
%TO.C,*%
X25043360Y-100528230D03*
%TD*%
D15*
%TO.C,through-r5*%
X96958000Y-95702000D03*
%TD*%
%TO.C,stitch1*%
X124822000Y-55156000D03*
%TD*%
%TO.C,through-r6*%
X95658961Y-42952000D03*
%TD*%
D17*
%TO.C,*%
X74995181Y-102490842D03*
%TD*%
%TO.C,*%
X25024090Y-101018681D03*
%TD*%
%TO.C,*%
X100038901Y-77081871D03*
%TD*%
%TO.C,*%
X126918129Y-48038901D03*
%TD*%
%TO.C,*%
X50490842Y-74995181D03*
%TD*%
D15*
%TO.C,through-r2*%
X44958000Y-40702000D03*
%TD*%
D17*
%TO.C,*%
X102981319Y-77024090D03*
%TD*%
D15*
%TO.C,through-r4*%
X98257038Y-42952000D03*
%TD*%
%TO.C,stitch1*%
X125076000Y-97758000D03*
%TD*%
D17*
%TO.C,*%
X102981293Y-74975911D03*
%TD*%
%TO.C,*%
X77004819Y-102490842D03*
%TD*%
%TO.C,*%
X126995181Y-50000000D03*
%TD*%
%TO.C,*%
X77004819Y-49509158D03*
%TD*%
%TO.C,*%
X100528230Y-74956640D03*
%TD*%
%TO.C,*%
X126956640Y-51471770D03*
%TD*%
D15*
%TO.C,through-r7*%
X43658961Y-41452000D03*
%TD*%
%TO.C,through-r3*%
X46257038Y-41452000D03*
%TD*%
%TO.C,stitch1*%
X79178000Y-55156000D03*
%TD*%
D17*
%TO.C,*%
X25081871Y-48038900D03*
%TD*%
D15*
%TO.C,stitch1*%
X93910000Y-79978000D03*
%TD*%
D19*
%TO.C,J1*%
X100725000Y-73000000D03*
D20*
X101995001Y-73000000D03*
X103265000Y-73000000D03*
%TD*%
D15*
%TO.C,through-r7*%
X43658961Y-93452000D03*
%TD*%
%TO.C,stitch1*%
X110090000Y-79978000D03*
%TD*%
%TO.C,through-r6*%
X43658961Y-94952000D03*
%TD*%
%TO.C,stitch1*%
X78924000Y-45758000D03*
%TD*%
D17*
%TO.C,*%
X48038901Y-77081871D03*
%TD*%
D15*
%TO.C,through-r2*%
X96958000Y-92702000D03*
%TD*%
D17*
%TO.C,*%
X126956640Y-48528230D03*
%TD*%
D15*
%TO.C,through-r5*%
X44958000Y-43702000D03*
%TD*%
D17*
%TO.C,*%
X74956640Y-51471770D03*
%TD*%
D19*
%TO.C,J1*%
X48725000Y-125000000D03*
D20*
X49995001Y-125000000D03*
X51265000Y-125000000D03*
%TD*%
D15*
%TO.C,stitch1*%
X102038000Y-78454000D03*
%TD*%
D17*
%TO.C,*%
X103961099Y-77081871D03*
%TD*%
%TO.C,*%
X126956640Y-103471770D03*
%TD*%
D15*
%TO.C,stitch1*%
X116694000Y-31788000D03*
%TD*%
D21*
%TO.C,battery-eject1*%
X102000000Y-109000000D03*
%TD*%
%TO.C,battery-eject1*%
X50000000Y-57000000D03*
%TD*%
D17*
%TO.C,*%
X74995181Y-102000000D03*
%TD*%
D15*
%TO.C,stitch1*%
X87052000Y-120110000D03*
%TD*%
D17*
%TO.C,*%
X102490842Y-74995181D03*
%TD*%
D19*
%TO.C,J1*%
X100725000Y-125000000D03*
D20*
X101995001Y-125000000D03*
X103265000Y-125000000D03*
%TD*%
D17*
%TO.C,*%
X74918129Y-100038901D03*
%TD*%
%TO.C,*%
X25004819Y-49509158D03*
%TD*%
%TO.C,*%
X101018694Y-74975911D03*
%TD*%
D15*
%TO.C,stitch1*%
X64694000Y-31788000D03*
%TD*%
%TO.C,stitch1*%
X116948000Y-68110000D03*
%TD*%
D17*
%TO.C,*%
X100038901Y-74918129D03*
%TD*%
%TO.C,*%
X102000000Y-77004819D03*
%TD*%
D15*
%TO.C,through-r2*%
X96958000Y-40702000D03*
%TD*%
D17*
%TO.C,*%
X48528230Y-74956640D03*
%TD*%
%TO.C,*%
X103471770Y-74956640D03*
%TD*%
D15*
%TO.C,stitch1*%
X87306000Y-83788000D03*
%TD*%
D17*
%TO.C,*%
X101509158Y-74995181D03*
%TD*%
D15*
%TO.C,through-r1*%
X96958000Y-94202000D03*
%TD*%
D17*
%TO.C,*%
X102000000Y-74995181D03*
%TD*%
%TO.C,*%
X77043360Y-100528230D03*
%TD*%
%TO.C,*%
X101509158Y-77004819D03*
%TD*%
%TO.C,*%
X126995181Y-102000000D03*
%TD*%
D15*
%TO.C,stitch1*%
X64694000Y-83788000D03*
%TD*%
D17*
%TO.C,*%
X49018694Y-74975911D03*
%TD*%
%TO.C,*%
X74995181Y-101509158D03*
%TD*%
%TO.C,*%
X103961100Y-74918129D03*
%TD*%
%TO.C,*%
X74956640Y-48528230D03*
%TD*%
%TO.C,*%
X126995181Y-50490842D03*
%TD*%
%TO.C,*%
X126918129Y-100038901D03*
%TD*%
D18*
%TO.C,align-r2*%
X124200000Y-47300000D03*
%TD*%
D17*
%TO.C,*%
X25024090Y-49018681D03*
%TD*%
%TO.C,*%
X77004819Y-50490842D03*
%TD*%
D15*
%TO.C,through-r1*%
X44958000Y-94202000D03*
%TD*%
%TO.C,through-r6*%
X95658961Y-94952000D03*
%TD*%
%TO.C,stitch1*%
X72822000Y-55156000D03*
%TD*%
D17*
%TO.C,*%
X25081871Y-100038900D03*
%TD*%
D15*
%TO.C,stitch1*%
X58090000Y-27978000D03*
%TD*%
%TO.C,through-r3*%
X46257038Y-93452000D03*
%TD*%
%TO.C,stitch1*%
X50038000Y-26454000D03*
%TD*%
D17*
%TO.C,*%
X126956640Y-100528230D03*
%TD*%
%TO.C,*%
X25024090Y-50981319D03*
%TD*%
%TO.C,*%
X49018681Y-77024090D03*
%TD*%
%TO.C,*%
X126975910Y-49018694D03*
%TD*%
%TO.C,*%
X77081871Y-51961100D03*
%TD*%
D15*
%TO.C,stitch1*%
X116948000Y-120110000D03*
%TD*%
%LPD*%
M02*
