M48
; DRILL file {KiCad 9.0.0} date 2025-02-27T10:20:10-0600
; FORMAT={-:-/ absolute / metric / decimal}
; #@! TF.CreationDate,2025-02-27T10:20:10-06:00
; #@! TF.GenerationSoftware,Kicad,Pcbnew,9.0.0
; #@! TF.FileFunction,Plated,1,2,PTH
FMAT,2
METRIC
; #@! TA.AperFunction,Plated,PTH,ViaDrill
T1C0.300
; #@! TA.AperFunction,Plated,PTH,ComponentDrill
T2C0.650
; #@! TA.AperFunction,Plated,PTH,ComponentDrill
T3C1.000
%
G90
G05
T1
X27.178Y-48.552
X27.178Y-100.552
X27.323Y-51.263
X27.323Y-103.263
X28.082Y-43.385
X28.082Y-95.385
X28.3Y-56.385
X28.3Y-108.385
X28.606Y-40.776
X28.606Y-92.776
X29.188Y-59.454
X29.188Y-111.454
X29.2Y-42.825
X29.2Y-50.83
X29.2Y-94.825
X29.2Y-102.83
X31.436Y-63.906
X31.436Y-115.906
X31.436Y-36.094
X31.436Y-88.094
X32.069Y-35.598
X32.069Y-87.598
X32.693Y-65.156
X32.693Y-117.156
X33.349Y-34.1
X33.349Y-86.1
X33.355Y-65.965
X33.355Y-117.965
X37.338Y-30.772
X37.338Y-82.772
X37.396Y-69.261
X37.396Y-121.261
X37.48Y-65.965
X37.48Y-117.965
X38.08Y-69.676
X38.08Y-121.676
X38.748Y-68.57
X38.748Y-120.57
X38.862Y-65.824
X38.862Y-117.824
X38.92Y-29.839
X38.92Y-81.839
X39.362Y-31.16
X39.362Y-83.16
X39.37Y-34.794
X39.37Y-86.794
X39.639Y-29.239
X39.639Y-81.239
X39.878Y-70.65
X39.878Y-122.65
X39.925Y-36.127
X39.925Y-88.127
X41.0Y-45.25
X41.0Y-97.25
X41.66Y-36.177
X41.66Y-88.177
X41.762Y-63.494
X41.762Y-115.494
X41.822Y-68.027
X41.822Y-120.027
X42.055Y-60.381
X42.055Y-112.381
X42.083Y-40.071
X42.083Y-92.071
X42.15Y-44.7
X42.15Y-45.8
X42.15Y-49.45
X42.15Y-51.17
X42.15Y-96.7
X42.15Y-97.8
X42.15Y-101.45
X42.15Y-103.17
X43.434Y-44.7
X43.434Y-45.8
X43.434Y-96.7
X43.434Y-97.8
X43.622Y-67.184
X43.622Y-119.184
X43.712Y-64.07
X43.712Y-116.07
X43.933Y-49.323
X43.933Y-101.323
X44.204Y-34.286
X44.204Y-86.286
X44.617Y-27.497
X44.617Y-79.497
X44.712Y-48.252
X44.712Y-48.852
X44.712Y-100.252
X44.712Y-100.852
X44.77Y-51.17
X44.77Y-103.17
X44.958Y-39.154
X44.958Y-91.154
X45.212Y-47.952
X45.212Y-48.552
X45.212Y-49.152
X45.212Y-99.952
X45.212Y-100.552
X45.212Y-101.152
X45.447Y-35.645
X45.447Y-87.645
X45.528Y-27.434
X45.528Y-79.434
X45.683Y-53.923
X45.683Y-105.923
X45.702Y-34.021
X45.702Y-86.021
X45.712Y-48.252
X45.712Y-48.852
X45.712Y-100.252
X45.712Y-100.852
X45.72Y-56.68
X45.72Y-108.68
X45.89Y-28.164
X45.89Y-80.164
X46.548Y-57.9
X46.548Y-109.9
X46.736Y-45.8
X46.736Y-51.17
X46.736Y-97.8
X46.736Y-103.17
X46.998Y-54.094
X46.998Y-54.694
X46.998Y-106.094
X46.998Y-106.694
X47.007Y-47.57
X47.007Y-99.57
X47.244Y-35.344
X47.244Y-87.344
X47.249Y-52.731
X47.249Y-104.731
X47.28Y-27.204
X47.28Y-79.204
X47.498Y-53.794
X47.498Y-54.394
X47.498Y-54.994
X47.498Y-73.952
X47.498Y-105.794
X47.498Y-106.394
X47.498Y-106.994
X47.498Y-125.952
X47.725Y-49.993
X47.725Y-101.993
X47.998Y-54.094
X47.998Y-54.694
X47.998Y-106.094
X47.998Y-106.694
X48.107Y-44.702
X48.107Y-96.702
X48.306Y-47.721
X48.306Y-99.721
X48.424Y-72.01
X48.424Y-124.01
X48.514Y-38.646
X48.514Y-53.378
X48.514Y-58.966
X48.514Y-90.646
X48.514Y-105.378
X48.514Y-110.966
X48.522Y-55.926
X48.522Y-107.926
X48.539Y-51.371
X48.539Y-103.371
X48.726Y-45.382
X48.726Y-97.382
X49.25Y-48.0
X49.25Y-100.0
X50.02Y-46.071
X50.02Y-98.071
X50.038Y-38.392
X50.038Y-90.392
X50.292Y-50.88
X50.292Y-102.88
X50.75Y-48.0
X50.75Y-100.0
X51.118Y-44.889
X51.118Y-96.889
X51.308Y-58.966
X51.308Y-110.966
X51.4Y-50.33
X51.4Y-102.33
X51.45Y-52.108
X51.45Y-71.92
X51.45Y-104.108
X51.45Y-123.92
X51.694Y-48.279
X51.694Y-100.279
X52.268Y-44.318
X52.268Y-96.318
X52.324Y-72.936
X52.324Y-124.936
X52.334Y-42.456
X52.334Y-94.456
X52.357Y-47.125
X52.357Y-99.125
X52.578Y-53.378
X52.578Y-105.378
X52.727Y-27.161
X52.727Y-79.161
X52.832Y-40.932
X52.832Y-92.932
X52.884Y-41.694
X52.884Y-93.694
X53.594Y-50.584
X53.594Y-102.584
X53.974Y-48.872
X53.974Y-100.872
X54.227Y-33.949
X54.227Y-85.949
X54.3Y-28.383
X54.3Y-80.383
X54.356Y-40.424
X54.356Y-92.424
X54.429Y-44.868
X54.429Y-96.868
X54.447Y-35.666
X54.447Y-87.666
X54.472Y-27.434
X54.472Y-79.434
X54.59Y-42.308
X54.59Y-94.308
X54.61Y-43.768
X54.61Y-95.768
X54.822Y-55.41
X54.822Y-107.41
X54.839Y-59.117
X54.839Y-111.117
X55.294Y-27.323
X55.294Y-79.323
X55.372Y-53.378
X55.372Y-105.378
X55.88Y-34.286
X55.88Y-86.286
X55.922Y-54.14
X55.922Y-106.14
X56.043Y-58.549
X56.043Y-110.549
X57.658Y-43.726
X57.658Y-44.868
X57.658Y-50.584
X57.658Y-95.726
X57.658Y-96.868
X57.658Y-102.584
X57.85Y-48.872
X57.85Y-100.872
X58.032Y-60.522
X58.032Y-112.522
X58.301Y-38.527
X58.301Y-90.527
X60.349Y-70.485
X60.349Y-122.485
X60.391Y-29.239
X60.391Y-81.239
X60.714Y-31.068
X60.714Y-83.068
X60.96Y-34.15
X60.96Y-86.15
X61.08Y-29.839
X61.08Y-81.839
X61.262Y-68.56
X61.262Y-120.56
X61.32Y-65.78
X61.32Y-117.78
X61.92Y-69.676
X61.92Y-121.676
X62.52Y-69.112
X62.52Y-121.112
X62.563Y-30.801
X62.563Y-82.801
X62.576Y-65.916
X62.576Y-117.916
X66.554Y-65.916
X66.554Y-117.916
X66.802Y-34.1
X66.802Y-86.1
X67.296Y-65.145
X67.296Y-117.145
X67.931Y-35.6
X67.931Y-87.6
X68.564Y-36.094
X68.564Y-88.094
X68.581Y-63.921
X68.581Y-115.921
X70.785Y-59.434
X70.785Y-111.434
X70.8Y-42.964
X70.8Y-94.964
X71.14Y-50.517
X71.14Y-102.517
X71.208Y-40.59
X71.208Y-92.59
X72.12Y-51.824
X72.12Y-103.824
X72.154Y-56.701
X72.154Y-108.701
X72.243Y-43.266
X72.243Y-95.266
X72.944Y-51.28
X72.944Y-103.28
X73.092Y-48.72
X73.092Y-100.72
X79.178Y-48.552
X79.178Y-100.552
X79.323Y-51.263
X79.323Y-103.263
X80.082Y-43.385
X80.082Y-95.385
X80.3Y-56.385
X80.3Y-108.385
X80.606Y-40.776
X80.606Y-92.776
X81.188Y-59.454
X81.188Y-111.454
X81.2Y-42.825
X81.2Y-50.83
X81.2Y-94.825
X81.2Y-102.83
X83.436Y-63.906
X83.436Y-115.906
X83.436Y-36.094
X83.436Y-88.094
X84.069Y-35.598
X84.069Y-87.598
X84.693Y-65.156
X84.693Y-117.156
X85.349Y-34.1
X85.349Y-86.1
X85.355Y-65.965
X85.355Y-117.965
X89.338Y-30.772
X89.338Y-82.772
X89.396Y-69.261
X89.396Y-121.261
X89.48Y-65.965
X89.48Y-117.965
X90.08Y-69.676
X90.08Y-121.676
X90.748Y-68.57
X90.748Y-120.57
X90.862Y-65.824
X90.862Y-117.824
X90.92Y-29.839
X90.92Y-81.839
X91.362Y-31.16
X91.362Y-83.16
X91.37Y-34.794
X91.37Y-86.794
X91.639Y-29.239
X91.639Y-81.239
X91.878Y-70.65
X91.878Y-122.65
X91.925Y-36.127
X91.925Y-88.127
X93.0Y-45.25
X93.0Y-97.25
X93.66Y-36.177
X93.66Y-88.177
X93.762Y-63.494
X93.762Y-115.494
X93.822Y-68.027
X93.822Y-120.027
X94.055Y-60.381
X94.055Y-112.381
X94.083Y-40.071
X94.083Y-92.071
X94.15Y-44.7
X94.15Y-45.8
X94.15Y-49.45
X94.15Y-51.17
X94.15Y-96.7
X94.15Y-97.8
X94.15Y-101.45
X94.15Y-103.17
X95.434Y-44.7
X95.434Y-45.8
X95.434Y-96.7
X95.434Y-97.8
X95.622Y-67.184
X95.622Y-119.184
X95.712Y-64.07
X95.712Y-116.07
X95.933Y-49.323
X95.933Y-101.323
X96.204Y-34.286
X96.204Y-86.286
X96.617Y-27.497
X96.617Y-79.497
X96.712Y-48.252
X96.712Y-48.852
X96.712Y-100.252
X96.712Y-100.852
X96.77Y-51.17
X96.77Y-103.17
X96.958Y-39.154
X96.958Y-91.154
X97.212Y-47.952
X97.212Y-48.552
X97.212Y-49.152
X97.212Y-99.952
X97.212Y-100.552
X97.212Y-101.152
X97.447Y-35.645
X97.447Y-87.645
X97.528Y-27.434
X97.528Y-79.434
X97.683Y-53.923
X97.683Y-105.923
X97.702Y-34.021
X97.702Y-86.021
X97.712Y-48.252
X97.712Y-48.852
X97.712Y-100.252
X97.712Y-100.852
X97.72Y-56.68
X97.72Y-108.68
X97.89Y-28.164
X97.89Y-80.164
X98.548Y-57.9
X98.548Y-109.9
X98.736Y-45.8
X98.736Y-51.17
X98.736Y-97.8
X98.736Y-103.17
X98.998Y-54.094
X98.998Y-54.694
X98.998Y-106.094
X98.998Y-106.694
X99.007Y-47.57
X99.007Y-99.57
X99.244Y-35.344
X99.244Y-87.344
X99.249Y-52.731
X99.249Y-104.731
X99.28Y-27.204
X99.28Y-79.204
X99.498Y-53.794
X99.498Y-54.394
X99.498Y-54.994
X99.498Y-73.952
X99.498Y-105.794
X99.498Y-106.394
X99.498Y-106.994
X99.498Y-125.952
X99.725Y-49.993
X99.725Y-101.993
X99.998Y-54.094
X99.998Y-54.694
X99.998Y-106.094
X99.998Y-106.694
X100.107Y-44.702
X100.107Y-96.702
X100.306Y-47.721
X100.306Y-99.721
X100.424Y-72.01
X100.424Y-124.01
X100.514Y-38.646
X100.514Y-53.378
X100.514Y-58.966
X100.514Y-90.646
X100.514Y-105.378
X100.514Y-110.966
X100.522Y-55.926
X100.522Y-107.926
X100.539Y-51.371
X100.539Y-103.371
X100.726Y-45.382
X100.726Y-97.382
X101.25Y-48.0
X101.25Y-100.0
X102.02Y-46.071
X102.02Y-98.071
X102.038Y-38.392
X102.038Y-90.392
X102.292Y-50.88
X102.292Y-102.88
X102.75Y-48.0
X102.75Y-100.0
X103.118Y-44.889
X103.118Y-96.889
X103.308Y-58.966
X103.308Y-110.966
X103.4Y-50.33
X103.4Y-102.33
X103.45Y-52.108
X103.45Y-71.92
X103.45Y-104.108
X103.45Y-123.92
X103.694Y-48.279
X103.694Y-100.279
X104.268Y-44.318
X104.268Y-96.318
X104.324Y-72.936
X104.324Y-124.936
X104.334Y-42.456
X104.334Y-94.456
X104.357Y-47.125
X104.357Y-99.125
X104.578Y-53.378
X104.578Y-105.378
X104.727Y-27.161
X104.727Y-79.161
X104.832Y-40.932
X104.832Y-92.932
X104.884Y-41.694
X104.884Y-93.694
X105.594Y-50.584
X105.594Y-102.584
X105.974Y-48.872
X105.974Y-100.872
X106.227Y-33.949
X106.227Y-85.949
X106.3Y-28.383
X106.3Y-80.383
X106.356Y-40.424
X106.356Y-92.424
X106.429Y-44.868
X106.429Y-96.868
X106.447Y-35.666
X106.447Y-87.666
X106.472Y-27.434
X106.472Y-79.434
X106.59Y-42.308
X106.59Y-94.308
X106.61Y-43.768
X106.61Y-95.768
X106.822Y-55.41
X106.822Y-107.41
X106.839Y-59.117
X106.839Y-111.117
X107.294Y-27.323
X107.294Y-79.323
X107.372Y-53.378
X107.372Y-105.378
X107.88Y-34.286
X107.88Y-86.286
X107.922Y-54.14
X107.922Y-106.14
X108.043Y-58.549
X108.043Y-110.549
X109.658Y-43.726
X109.658Y-44.868
X109.658Y-50.584
X109.658Y-95.726
X109.658Y-96.868
X109.658Y-102.584
X109.85Y-48.872
X109.85Y-100.872
X110.032Y-60.522
X110.032Y-112.522
X110.301Y-38.527
X110.301Y-90.527
X112.349Y-70.485
X112.349Y-122.485
X112.391Y-29.239
X112.391Y-81.239
X112.714Y-31.068
X112.714Y-83.068
X112.96Y-34.15
X112.96Y-86.15
X113.08Y-29.839
X113.08Y-81.839
X113.262Y-68.56
X113.262Y-120.56
X113.32Y-65.78
X113.32Y-117.78
X113.92Y-69.676
X113.92Y-121.676
X114.52Y-69.112
X114.52Y-121.112
X114.563Y-30.801
X114.563Y-82.801
X114.576Y-65.916
X114.576Y-117.916
X118.554Y-65.916
X118.554Y-117.916
X118.802Y-34.1
X118.802Y-86.1
X119.296Y-65.145
X119.296Y-117.145
X119.931Y-35.6
X119.931Y-87.6
X120.564Y-36.094
X120.564Y-88.094
X120.581Y-63.921
X120.581Y-115.921
X122.785Y-59.434
X122.785Y-111.434
X122.8Y-42.964
X122.8Y-94.964
X123.14Y-50.517
X123.14Y-102.517
X123.208Y-40.59
X123.208Y-92.59
X124.12Y-51.824
X124.12Y-103.824
X124.154Y-56.701
X124.154Y-108.701
X124.243Y-43.266
X124.243Y-95.266
X124.944Y-51.28
X124.944Y-103.28
X125.092Y-48.72
X125.092Y-100.72
T2
X48.725Y-73.0
X48.725Y-125.0
X49.995Y-73.0
X49.995Y-125.0
X51.265Y-73.0
X51.265Y-125.0
X100.725Y-73.0
X100.725Y-125.0
X101.995Y-73.0
X101.995Y-125.0
X103.265Y-73.0
X103.265Y-125.0
T3
X26.924Y-45.758
X26.924Y-97.758
X27.178Y-55.156
X27.178Y-107.156
X27.8Y-52.4
X27.8Y-104.4
X35.052Y-68.11
X35.052Y-120.11
X35.306Y-31.788
X35.306Y-83.788
X41.91Y-27.978
X41.91Y-79.978
X43.659Y-41.452
X43.659Y-42.952
X43.659Y-93.452
X43.659Y-94.952
X44.958Y-40.702
X44.958Y-42.202
X44.958Y-43.702
X44.958Y-92.702
X44.958Y-94.202
X44.958Y-95.702
X46.257Y-41.452
X46.257Y-42.952
X46.257Y-93.452
X46.257Y-94.952
X50.038Y-26.454
X50.038Y-78.454
X58.09Y-27.978
X58.09Y-79.978
X64.694Y-31.788
X64.694Y-83.788
X64.948Y-68.11
X64.948Y-120.11
X72.2Y-47.3
X72.2Y-99.3
X72.822Y-55.156
X72.822Y-107.156
X73.076Y-45.758
X73.076Y-97.758
X78.924Y-45.758
X78.924Y-97.758
X79.178Y-55.156
X79.178Y-107.156
X79.8Y-52.4
X79.8Y-104.4
X87.052Y-68.11
X87.052Y-120.11
X87.306Y-31.788
X87.306Y-83.788
X93.91Y-27.978
X93.91Y-79.978
X95.659Y-41.452
X95.659Y-42.952
X95.659Y-93.452
X95.659Y-94.952
X96.958Y-40.702
X96.958Y-42.202
X96.958Y-43.702
X96.958Y-92.702
X96.958Y-94.202
X96.958Y-95.702
X98.257Y-41.452
X98.257Y-42.952
X98.257Y-93.452
X98.257Y-94.952
X102.038Y-26.454
X102.038Y-78.454
X110.09Y-27.978
X110.09Y-79.978
X116.694Y-31.788
X116.694Y-83.788
X116.948Y-68.11
X116.948Y-120.11
X124.2Y-47.3
X124.2Y-99.3
X124.822Y-55.156
X124.822Y-107.156
X125.076Y-45.758
X125.076Y-97.758
T3
X50.0Y-55.5G85X50.0Y-58.5
G05
X50.0Y-107.5G85X50.0Y-110.5
G05
X102.0Y-55.5G85X102.0Y-58.5
G05
X102.0Y-107.5G85X102.0Y-110.5
G05
M30
