%TF.GenerationSoftware,KiCad,Pcbnew,9.0.0*%
%TF.CreationDate,2025-02-27T10:20:03-06:00*%
%TF.ProjectId,reverse-panel,72657665-7273-4652-9d70-616e656c2e6b,rev?*%
%TF.SameCoordinates,Original*%
%TF.FileFunction,Soldermask,Bot*%
%TF.FilePolarity,Negative*%
%FSLAX46Y46*%
G04 Gerber Fmt 4.6, Leading zero omitted, Abs format (unit mm)*
G04 Created by KiCad (PCBNEW 9.0.0) date 2025-02-27 10:20:03*
%MOMM*%
%LPD*%
G01*
G04 APERTURE LIST*
%ADD10C,2.000000*%
%ADD11C,1.152000*%
%ADD12C,0.300000*%
%ADD13C,1.600000*%
%ADD14R,1.000000X1.000000*%
%ADD15O,1.000000X1.000000*%
%ADD16O,1.200000X4.200000*%
G04 APERTURE END LIST*
D10*
%TO.C,*%
X20500000Y-31000000D03*
%TD*%
%TO.C,*%
X20500000Y-121000000D03*
%TD*%
%TO.C,*%
X131500000Y-121000000D03*
%TD*%
%TO.C,*%
X131500000Y-31000000D03*
%TD*%
D11*
%TO.C,*%
X132000000Y-76000000D03*
%TD*%
%TO.C,*%
X20000000Y-76000000D03*
%TD*%
%TO.C,*%
X132000000Y-125000000D03*
%TD*%
%TO.C,*%
X20000000Y-27000000D03*
%TD*%
D10*
%TO.C,stitch1*%
X78924000Y-97758000D03*
%TD*%
D12*
%TO.C,*%
X77043360Y-51471770D03*
%TD*%
D10*
%TO.C,stitch1*%
X26924000Y-45758000D03*
%TD*%
%TO.C,stitch1*%
X64948000Y-120110000D03*
%TD*%
D12*
%TO.C,*%
X126918129Y-103961100D03*
%TD*%
%TO.C,*%
X74918129Y-51961100D03*
%TD*%
%TO.C,*%
X74995181Y-50490842D03*
%TD*%
D10*
%TO.C,stitch1*%
X41910000Y-27978000D03*
%TD*%
D12*
%TO.C,*%
X49509158Y-74995181D03*
%TD*%
%TO.C,*%
X25043360Y-51471770D03*
%TD*%
%TO.C,*%
X126995181Y-102490842D03*
%TD*%
%TO.C,*%
X100528230Y-77043360D03*
%TD*%
%TO.C,*%
X77043360Y-103471770D03*
%TD*%
%TO.C,*%
X74918129Y-48038901D03*
%TD*%
D10*
%TO.C,stitch1*%
X26924000Y-97758000D03*
%TD*%
D12*
%TO.C,*%
X77024090Y-102981319D03*
%TD*%
%TO.C,*%
X102490842Y-77004819D03*
%TD*%
%TO.C,*%
X74995181Y-49509158D03*
%TD*%
D10*
%TO.C,through-r3*%
X98257038Y-93452000D03*
%TD*%
D13*
%TO.C,align-r1*%
X27800000Y-104400000D03*
%TD*%
D12*
%TO.C,*%
X77004819Y-101509158D03*
%TD*%
%TO.C,*%
X126975911Y-102981293D03*
%TD*%
D14*
%TO.C,J1*%
X48725000Y-73000000D03*
D15*
X49995001Y-73000000D03*
X51265000Y-73000000D03*
%TD*%
D12*
%TO.C,*%
X103471770Y-77043360D03*
%TD*%
%TO.C,*%
X25004819Y-50000000D03*
%TD*%
%TO.C,*%
X77004819Y-50000000D03*
%TD*%
%TO.C,*%
X50490842Y-77004819D03*
%TD*%
D10*
%TO.C,stitch1*%
X27178000Y-55156000D03*
%TD*%
D12*
%TO.C,*%
X51471770Y-77043360D03*
%TD*%
%TO.C,*%
X74956640Y-100528230D03*
%TD*%
%TO.C,*%
X74918129Y-103961100D03*
%TD*%
%TO.C,*%
X51471770Y-74956640D03*
%TD*%
D10*
%TO.C,stitch1*%
X73076000Y-97758000D03*
%TD*%
%TO.C,stitch1*%
X35306000Y-83788000D03*
%TD*%
D12*
%TO.C,*%
X25004819Y-101509158D03*
%TD*%
D10*
%TO.C,through-r5*%
X96958000Y-43702000D03*
%TD*%
D12*
%TO.C,*%
X49509158Y-77004819D03*
%TD*%
D10*
%TO.C,stitch1*%
X41910000Y-79978000D03*
%TD*%
D12*
%TO.C,*%
X74975911Y-50981293D03*
%TD*%
D10*
%TO.C,through-r3*%
X98257038Y-41452000D03*
%TD*%
D13*
%TO.C,align-r2*%
X72200000Y-99300000D03*
%TD*%
D12*
%TO.C,*%
X126995181Y-101509158D03*
%TD*%
%TO.C,*%
X74975910Y-101018694D03*
%TD*%
%TO.C,*%
X126995181Y-49509158D03*
%TD*%
%TO.C,*%
X77043360Y-48528230D03*
%TD*%
%TO.C,*%
X74975910Y-49018694D03*
%TD*%
D10*
%TO.C,stitch1*%
X87052000Y-68110000D03*
%TD*%
%TO.C,through-r1*%
X44958000Y-42202000D03*
%TD*%
%TO.C,through-r7*%
X95658961Y-93452000D03*
%TD*%
D16*
%TO.C,battery-eject1*%
X102000000Y-57000000D03*
%TD*%
D10*
%TO.C,stitch1*%
X72822000Y-107156000D03*
%TD*%
D12*
%TO.C,*%
X50000000Y-74995181D03*
%TD*%
D10*
%TO.C,stitch1*%
X35306000Y-31788000D03*
%TD*%
%TO.C,through-r1*%
X96958000Y-42202000D03*
%TD*%
D12*
%TO.C,*%
X77024090Y-50981319D03*
%TD*%
%TO.C,*%
X51961099Y-77081871D03*
%TD*%
D10*
%TO.C,stitch1*%
X125076000Y-45758000D03*
%TD*%
%TO.C,stitch1*%
X58090000Y-79978000D03*
%TD*%
D13*
%TO.C,align-r1*%
X79800000Y-52400000D03*
%TD*%
D12*
%TO.C,*%
X74956640Y-103471770D03*
%TD*%
D10*
%TO.C,stitch1*%
X124822000Y-107156000D03*
%TD*%
D12*
%TO.C,*%
X126975910Y-101018694D03*
%TD*%
%TO.C,*%
X77081871Y-103961100D03*
%TD*%
%TO.C,*%
X25004819Y-102490842D03*
%TD*%
D10*
%TO.C,stitch1*%
X35052000Y-68110000D03*
%TD*%
D12*
%TO.C,*%
X25081871Y-51961100D03*
%TD*%
D10*
%TO.C,stitch1*%
X87306000Y-31788000D03*
%TD*%
%TO.C,stitch1*%
X64948000Y-68110000D03*
%TD*%
%TO.C,stitch1*%
X73076000Y-45758000D03*
%TD*%
%TO.C,through-r2*%
X44958000Y-92702000D03*
%TD*%
%TO.C,through-r4*%
X98257038Y-94952000D03*
%TD*%
D13*
%TO.C,align-r1*%
X27800000Y-52400000D03*
%TD*%
D12*
%TO.C,*%
X25004819Y-50490842D03*
%TD*%
%TO.C,*%
X48528230Y-77043360D03*
%TD*%
%TO.C,*%
X126918129Y-51961100D03*
%TD*%
%TO.C,*%
X74995181Y-50000000D03*
%TD*%
%TO.C,*%
X48038901Y-74918129D03*
%TD*%
%TO.C,*%
X50000000Y-77004819D03*
%TD*%
D10*
%TO.C,stitch1*%
X110090000Y-27978000D03*
%TD*%
D12*
%TO.C,*%
X126975911Y-50981293D03*
%TD*%
%TO.C,*%
X77081871Y-48038900D03*
%TD*%
%TO.C,*%
X77024090Y-49018681D03*
%TD*%
%TO.C,*%
X101018681Y-77024090D03*
%TD*%
D10*
%TO.C,through-r6*%
X43658961Y-42952000D03*
%TD*%
D12*
%TO.C,*%
X77004819Y-102000000D03*
%TD*%
%TO.C,*%
X51961100Y-74918129D03*
%TD*%
D10*
%TO.C,stitch1*%
X93910000Y-27978000D03*
%TD*%
%TO.C,stitch1*%
X102038000Y-26454000D03*
%TD*%
%TO.C,through-r5*%
X44958000Y-95702000D03*
%TD*%
%TO.C,stitch1*%
X79178000Y-107156000D03*
%TD*%
D12*
%TO.C,*%
X74975911Y-102981293D03*
%TD*%
D13*
%TO.C,align-r1*%
X79800000Y-104400000D03*
%TD*%
D12*
%TO.C,*%
X25081871Y-103961100D03*
%TD*%
D10*
%TO.C,stitch1*%
X50038000Y-78454000D03*
%TD*%
%TO.C,through-r4*%
X46257038Y-42952000D03*
%TD*%
%TO.C,stitch1*%
X35052000Y-120110000D03*
%TD*%
%TO.C,through-r4*%
X46257038Y-94952000D03*
%TD*%
%TO.C,stitch1*%
X27178000Y-107156000D03*
%TD*%
D12*
%TO.C,*%
X77024090Y-101018681D03*
%TD*%
%TO.C,*%
X25043360Y-48528230D03*
%TD*%
D16*
%TO.C,battery-eject1*%
X50000000Y-109000000D03*
%TD*%
D12*
%TO.C,*%
X25043360Y-103471770D03*
%TD*%
D10*
%TO.C,through-r7*%
X95658961Y-41452000D03*
%TD*%
D12*
%TO.C,*%
X25024090Y-102981319D03*
%TD*%
D10*
%TO.C,stitch1*%
X116694000Y-83788000D03*
%TD*%
D13*
%TO.C,align-r2*%
X124200000Y-99300000D03*
%TD*%
D12*
%TO.C,*%
X77081871Y-100038900D03*
%TD*%
%TO.C,*%
X25004819Y-102000000D03*
%TD*%
%TO.C,*%
X50981319Y-77024090D03*
%TD*%
D13*
%TO.C,align-r2*%
X72200000Y-47300000D03*
%TD*%
D12*
%TO.C,*%
X50981293Y-74975911D03*
%TD*%
%TO.C,*%
X25043360Y-100528230D03*
%TD*%
D10*
%TO.C,through-r5*%
X96958000Y-95702000D03*
%TD*%
%TO.C,stitch1*%
X124822000Y-55156000D03*
%TD*%
%TO.C,through-r6*%
X95658961Y-42952000D03*
%TD*%
D12*
%TO.C,*%
X74995181Y-102490842D03*
%TD*%
%TO.C,*%
X25024090Y-101018681D03*
%TD*%
%TO.C,*%
X100038901Y-77081871D03*
%TD*%
%TO.C,*%
X126918129Y-48038901D03*
%TD*%
%TO.C,*%
X50490842Y-74995181D03*
%TD*%
D10*
%TO.C,through-r2*%
X44958000Y-40702000D03*
%TD*%
D12*
%TO.C,*%
X102981319Y-77024090D03*
%TD*%
D10*
%TO.C,through-r4*%
X98257038Y-42952000D03*
%TD*%
%TO.C,stitch1*%
X125076000Y-97758000D03*
%TD*%
D12*
%TO.C,*%
X102981293Y-74975911D03*
%TD*%
%TO.C,*%
X77004819Y-102490842D03*
%TD*%
%TO.C,*%
X126995181Y-50000000D03*
%TD*%
%TO.C,*%
X77004819Y-49509158D03*
%TD*%
%TO.C,*%
X100528230Y-74956640D03*
%TD*%
%TO.C,*%
X126956640Y-51471770D03*
%TD*%
D10*
%TO.C,through-r7*%
X43658961Y-41452000D03*
%TD*%
%TO.C,through-r3*%
X46257038Y-41452000D03*
%TD*%
%TO.C,stitch1*%
X79178000Y-55156000D03*
%TD*%
D12*
%TO.C,*%
X25081871Y-48038900D03*
%TD*%
D10*
%TO.C,stitch1*%
X93910000Y-79978000D03*
%TD*%
D14*
%TO.C,J1*%
X100725000Y-73000000D03*
D15*
X101995001Y-73000000D03*
X103265000Y-73000000D03*
%TD*%
D10*
%TO.C,through-r7*%
X43658961Y-93452000D03*
%TD*%
%TO.C,stitch1*%
X110090000Y-79978000D03*
%TD*%
%TO.C,through-r6*%
X43658961Y-94952000D03*
%TD*%
%TO.C,stitch1*%
X78924000Y-45758000D03*
%TD*%
D12*
%TO.C,*%
X48038901Y-77081871D03*
%TD*%
D10*
%TO.C,through-r2*%
X96958000Y-92702000D03*
%TD*%
D12*
%TO.C,*%
X126956640Y-48528230D03*
%TD*%
D10*
%TO.C,through-r5*%
X44958000Y-43702000D03*
%TD*%
D12*
%TO.C,*%
X74956640Y-51471770D03*
%TD*%
D14*
%TO.C,J1*%
X48725000Y-125000000D03*
D15*
X49995001Y-125000000D03*
X51265000Y-125000000D03*
%TD*%
D10*
%TO.C,stitch1*%
X102038000Y-78454000D03*
%TD*%
D12*
%TO.C,*%
X103961099Y-77081871D03*
%TD*%
%TO.C,*%
X126956640Y-103471770D03*
%TD*%
D10*
%TO.C,stitch1*%
X116694000Y-31788000D03*
%TD*%
D16*
%TO.C,battery-eject1*%
X102000000Y-109000000D03*
%TD*%
%TO.C,battery-eject1*%
X50000000Y-57000000D03*
%TD*%
D12*
%TO.C,*%
X74995181Y-102000000D03*
%TD*%
D10*
%TO.C,stitch1*%
X87052000Y-120110000D03*
%TD*%
D12*
%TO.C,*%
X102490842Y-74995181D03*
%TD*%
D14*
%TO.C,J1*%
X100725000Y-125000000D03*
D15*
X101995001Y-125000000D03*
X103265000Y-125000000D03*
%TD*%
D12*
%TO.C,*%
X74918129Y-100038901D03*
%TD*%
%TO.C,*%
X25004819Y-49509158D03*
%TD*%
%TO.C,*%
X101018694Y-74975911D03*
%TD*%
D10*
%TO.C,stitch1*%
X64694000Y-31788000D03*
%TD*%
%TO.C,stitch1*%
X116948000Y-68110000D03*
%TD*%
D12*
%TO.C,*%
X100038901Y-74918129D03*
%TD*%
%TO.C,*%
X102000000Y-77004819D03*
%TD*%
D10*
%TO.C,through-r2*%
X96958000Y-40702000D03*
%TD*%
D12*
%TO.C,*%
X48528230Y-74956640D03*
%TD*%
%TO.C,*%
X103471770Y-74956640D03*
%TD*%
D10*
%TO.C,stitch1*%
X87306000Y-83788000D03*
%TD*%
D12*
%TO.C,*%
X101509158Y-74995181D03*
%TD*%
D10*
%TO.C,through-r1*%
X96958000Y-94202000D03*
%TD*%
D12*
%TO.C,*%
X102000000Y-74995181D03*
%TD*%
%TO.C,*%
X77043360Y-100528230D03*
%TD*%
%TO.C,*%
X101509158Y-77004819D03*
%TD*%
%TO.C,*%
X126995181Y-102000000D03*
%TD*%
D10*
%TO.C,stitch1*%
X64694000Y-83788000D03*
%TD*%
D12*
%TO.C,*%
X49018694Y-74975911D03*
%TD*%
%TO.C,*%
X74995181Y-101509158D03*
%TD*%
%TO.C,*%
X103961100Y-74918129D03*
%TD*%
%TO.C,*%
X74956640Y-48528230D03*
%TD*%
%TO.C,*%
X126995181Y-50490842D03*
%TD*%
%TO.C,*%
X126918129Y-100038901D03*
%TD*%
D13*
%TO.C,align-r2*%
X124200000Y-47300000D03*
%TD*%
D12*
%TO.C,*%
X25024090Y-49018681D03*
%TD*%
%TO.C,*%
X77004819Y-50490842D03*
%TD*%
D10*
%TO.C,through-r1*%
X44958000Y-94202000D03*
%TD*%
%TO.C,through-r6*%
X95658961Y-94952000D03*
%TD*%
%TO.C,stitch1*%
X72822000Y-55156000D03*
%TD*%
D12*
%TO.C,*%
X25081871Y-100038900D03*
%TD*%
D10*
%TO.C,stitch1*%
X58090000Y-27978000D03*
%TD*%
%TO.C,through-r3*%
X46257038Y-93452000D03*
%TD*%
%TO.C,stitch1*%
X50038000Y-26454000D03*
%TD*%
D12*
%TO.C,*%
X126956640Y-100528230D03*
%TD*%
%TO.C,*%
X25024090Y-50981319D03*
%TD*%
%TO.C,*%
X49018681Y-77024090D03*
%TD*%
%TO.C,*%
X126975910Y-49018694D03*
%TD*%
%TO.C,*%
X77081871Y-51961100D03*
%TD*%
D10*
%TO.C,stitch1*%
X116948000Y-120110000D03*
%TD*%
M02*
