%TF.GenerationSoftware,KiCad,Pcbnew,9.0.0*%
%TF.CreationDate,2025-02-27T10:20:10-06:00*%
%TF.ProjectId,reverse-panel,72657665-7273-4652-9d70-616e656c2e6b,rev?*%
%TF.SameCoordinates,Original*%
%TF.FileFunction,Drillmap*%
%TF.FilePolarity,Positive*%
%FSLAX45Y45*%
G04 Gerber Fmt 4.5, Leading zero omitted, Abs format (unit mm)*
G04 Created by KiCad (PCBNEW 9.0.0) date 2025-02-27 10:20:10*
%MOMM*%
%LPD*%
G01*
G04 APERTURE LIST*
%ADD10C,0.100000*%
%ADD11C,0.200000*%
%ADD12C,0.115200*%
G04 APERTURE END LIST*
D10*
X6660631Y-6868771D02*
X6732718Y-6802134D01*
X2366670Y-9999779D02*
X2382788Y-10005016D01*
X9975336Y-7688207D02*
X9988207Y-7675336D01*
X9568771Y-2581002D02*
X9474288Y-2607649D01*
X3735857Y-2843164D02*
X3652154Y-2894457D01*
X2513016Y-5274788D02*
X2507779Y-5258670D01*
X5911176Y-2671963D02*
X5819075Y-2637985D01*
X8539369Y-8331229D02*
X8467282Y-8397866D01*
X1800000Y-2500000D02*
X2300000Y-2500000D01*
X9664227Y-7441915D02*
X9760509Y-7461066D01*
X3006698Y-11708890D02*
X3067474Y-11785983D01*
X2302984Y-9925212D02*
X2308221Y-9941330D01*
X5819075Y-7362015D02*
X5911176Y-7328037D01*
X5535773Y-12641915D02*
X5631229Y-12618998D01*
X9988207Y-7524664D02*
X9975336Y-7511793D01*
X6178492Y-7204803D02*
X6264143Y-7156836D01*
X11464143Y-12356836D02*
X11547846Y-12305543D01*
X3339369Y-3131229D02*
X3267282Y-3197866D01*
X12356836Y-11464143D02*
X12404803Y-11378492D01*
X12892112Y-9942856D02*
X12897349Y-9926739D01*
X5439491Y-7461066D02*
X5535773Y-7441915D01*
X5184358Y-7590899D02*
X5184358Y-7609101D01*
X6508890Y-6993302D02*
X6585983Y-6932526D01*
X8148996Y-11629470D02*
X8206698Y-11708890D01*
X11019075Y-12562015D02*
X11111176Y-12528037D01*
X8397866Y-6732718D02*
X8467282Y-6802134D01*
X2515667Y-10491526D02*
X2513016Y-10474788D01*
X9021508Y-7204803D02*
X9108977Y-7249371D01*
X3652154Y-7105543D02*
X3735857Y-7156836D01*
X12721860Y-5217876D02*
X12709876Y-5229860D01*
X7837985Y-5819075D02*
X7871963Y-5911176D01*
X6178492Y-7995197D02*
X6091023Y-7950629D01*
X9998906Y-7660610D02*
X10007170Y-7644391D01*
X8852154Y-12305543D02*
X8935857Y-12356836D01*
X9944391Y-7707170D02*
X9960610Y-7698906D01*
X4950916Y-2500482D02*
X4852823Y-2504336D01*
X10542531Y-12676423D02*
X10639491Y-12661066D01*
X12884085Y-5243570D02*
X12874124Y-5229860D01*
X7712795Y-4727080D02*
X7715642Y-4709101D01*
X3067474Y-11785983D02*
X3131229Y-11860631D01*
X8331229Y-3339369D02*
X8267474Y-3414017D01*
X9380925Y-7837985D02*
X9288824Y-7871963D01*
X2433212Y-10394984D02*
X2416474Y-10392333D01*
X12449371Y-9108977D02*
X12404803Y-9021508D01*
X7484358Y-4708474D02*
X7476423Y-4657469D01*
X7707170Y-5255609D02*
X7698906Y-5239390D01*
X4744391Y-7492830D02*
X4727080Y-7487205D01*
X7871963Y-11111176D02*
X7909530Y-11201872D01*
X2416474Y-5192333D02*
X2399526Y-5192333D01*
X7590899Y-10384358D02*
X7572920Y-10387205D01*
X9927080Y-7712795D02*
X9944391Y-7707170D01*
X2382788Y-4805016D02*
X2399526Y-4807667D01*
X12874457Y-10431386D02*
X12862473Y-10419403D01*
X4775336Y-7688207D02*
X4788207Y-7675336D01*
X3908977Y-7249371D02*
X3998128Y-7290470D01*
X12709876Y-5229860D02*
X12699915Y-5243570D01*
X7660610Y-10401094D02*
X7644391Y-10392830D01*
X10831229Y-7418998D02*
X10925712Y-7392351D01*
X4180925Y-7837985D02*
X4088824Y-7871963D01*
X12884418Y-9957956D02*
X12892112Y-9942856D01*
X7688207Y-10424664D02*
X7675336Y-10411793D01*
X2637985Y-9380925D02*
X2607649Y-9474288D01*
X4760610Y-7501094D02*
X4744391Y-7492830D01*
X2558085Y-4464227D02*
X2538934Y-4560509D01*
X7418998Y-4368771D02*
X7392351Y-4274288D01*
X12684666Y-9910000D02*
X12687317Y-9926739D01*
X7950629Y-6091023D02*
X7995197Y-6178492D01*
X12356836Y-8935857D02*
X12305543Y-8852154D01*
X5439491Y-7738934D02*
X5342531Y-7723577D01*
X2302984Y-5274788D02*
X2300333Y-5291526D01*
X12132526Y-8614017D02*
X12068771Y-8539369D01*
X10735773Y-7758085D02*
X10639491Y-7738934D01*
X2315915Y-5243570D02*
X2308221Y-5258670D01*
X11464143Y-8043164D02*
X11378492Y-7995197D01*
X6429470Y-2948996D02*
X6347846Y-2894457D01*
X12002134Y-8467282D02*
X11932718Y-8397866D01*
X2351570Y-5207915D02*
X2337860Y-5217876D01*
X8935857Y-12356836D02*
X9021508Y-12404803D01*
X5631229Y-7781002D02*
X5535773Y-7758085D01*
X12767121Y-10006542D02*
X12783859Y-10009194D01*
X12676423Y-5342531D02*
X12684333Y-5291526D01*
X2433212Y-4805016D02*
X2449330Y-4799779D01*
X12305543Y-8852154D02*
X12251004Y-8770530D01*
X10639491Y-2538934D02*
X10542531Y-2523577D01*
X2843164Y-8935857D02*
X2795197Y-9021508D01*
X7590899Y-4815642D02*
X7609101Y-4815642D01*
X2337860Y-9982124D02*
X2351570Y-9992085D01*
X10015642Y-7609101D02*
X10015642Y-7590899D01*
X12490470Y-9198128D02*
X12449371Y-9108977D01*
X12002134Y-6732718D02*
X12068771Y-6660631D01*
X5192830Y-7644391D02*
X5201094Y-7660610D01*
X2308221Y-5258670D02*
X2302984Y-5274788D01*
X7105543Y-8852154D02*
X7051004Y-8770530D01*
X6347846Y-12305543D02*
X6429470Y-12251004D01*
X7328037Y-5911176D02*
X7362015Y-5819075D01*
X2671963Y-11111176D02*
X2709530Y-11201872D01*
X6001872Y-12490470D02*
X6091023Y-12449371D01*
X2302984Y-10474788D02*
X2300333Y-10491526D01*
X7807649Y-9474288D02*
X7781002Y-9568771D01*
X9954957Y-2512038D02*
X9857469Y-2523577D01*
X12132526Y-3414017D02*
X12068771Y-3339369D01*
X7707170Y-9944391D02*
X7712795Y-9927080D01*
X11464143Y-2843164D02*
X11378492Y-2795197D01*
X10542531Y-2523577D02*
X10445043Y-2512038D01*
X12618998Y-5631229D02*
X12641915Y-5535773D01*
X7644391Y-4807170D02*
X7660610Y-4798906D01*
X2449330Y-5200221D02*
X2433212Y-5194984D01*
X7105543Y-6347846D02*
X7156836Y-6264143D01*
X2325876Y-10429860D02*
X2315915Y-10443570D01*
X4368771Y-7418998D02*
X4464227Y-7441915D01*
X2894457Y-3652154D02*
X2843164Y-3735857D01*
X7950629Y-11291023D02*
X7995197Y-11378492D01*
X12490470Y-11201872D02*
X12528037Y-11111176D01*
X9760509Y-7738934D02*
X9664227Y-7758085D01*
X2607649Y-9474288D02*
X2581002Y-9568771D01*
X12002134Y-11932718D02*
X12068771Y-11860631D01*
X5224664Y-7511793D02*
X5211793Y-7524664D01*
X8043164Y-6264143D02*
X8094457Y-6347846D01*
X12751003Y-10001305D02*
X12767121Y-10006542D01*
X8043164Y-11464143D02*
X8094457Y-11547846D01*
X3197866Y-8467282D02*
X3131229Y-8539369D01*
X7249371Y-11291023D02*
X7290470Y-11201872D01*
X11860631Y-3131229D02*
X11785983Y-3067474D01*
X2449330Y-4799779D02*
X2464430Y-4792085D01*
X11201872Y-2709530D02*
X11111176Y-2671963D01*
X12676423Y-4657469D02*
X12661066Y-4560509D01*
X7461066Y-10639491D02*
X7476423Y-10542531D01*
X8539369Y-12068771D02*
X8614017Y-12132526D01*
X7688207Y-4775336D02*
X7698906Y-4760610D01*
X2538934Y-5439491D02*
X2558085Y-5535773D01*
X2523577Y-4657469D02*
X2515667Y-4708474D01*
X9998906Y-7539390D02*
X9988207Y-7524664D01*
X7501094Y-5239390D02*
X7492830Y-5255609D01*
X8691110Y-12193302D02*
X8770530Y-12251004D01*
X8539369Y-6868771D02*
X8614017Y-6932526D01*
X6802134Y-8467282D02*
X6732718Y-8397866D01*
X12490470Y-3998128D02*
X12449371Y-3908977D01*
X4727080Y-7487205D02*
X4709101Y-7484358D01*
X5911176Y-7871963D02*
X5819075Y-7837985D01*
X2523577Y-9857469D02*
X2515667Y-9908474D01*
X3067474Y-8614017D02*
X3006698Y-8691110D01*
X7871963Y-9288824D02*
X7837985Y-9380925D01*
X7871963Y-5911176D02*
X7909530Y-6001872D01*
X12404803Y-6178492D02*
X12449371Y-6091023D01*
X2337860Y-5217876D02*
X2325876Y-5229860D01*
X12783859Y-10009194D02*
X12800806Y-10009194D01*
X6347846Y-8094457D02*
X6264143Y-8043164D01*
X5631229Y-2581002D02*
X5535773Y-2558085D01*
X7392351Y-10925712D02*
X7418998Y-10831229D01*
X2843164Y-6264143D02*
X2894457Y-6347846D01*
X7524664Y-4788207D02*
X7539390Y-4798906D01*
X7492830Y-10455609D02*
X7487205Y-10472920D01*
X2449330Y-10400221D02*
X2433212Y-10394984D01*
X7511793Y-9975336D02*
X7524664Y-9988207D01*
X7501094Y-4760610D02*
X7511793Y-4775336D01*
X2325876Y-5229860D02*
X2315915Y-5243570D01*
X7441915Y-4464227D02*
X7418998Y-4368771D01*
X12862140Y-4782124D02*
X12874124Y-4770140D01*
X7501094Y-10439390D02*
X7492830Y-10455609D01*
X2558085Y-9664227D02*
X2538934Y-9760509D01*
X12699915Y-4756430D02*
X12709876Y-4770140D01*
X5631229Y-12618998D02*
X5725712Y-12592351D01*
X3821508Y-2795197D02*
X3735857Y-2843164D01*
X7484358Y-9908474D02*
X7476423Y-9857469D01*
X5535773Y-2558085D02*
X5439491Y-2538934D01*
X12891779Y-4741330D02*
X12897016Y-4725212D01*
X7511793Y-5224664D02*
X7501094Y-5239390D01*
X12661066Y-10639491D02*
X12676423Y-10542531D01*
X8539369Y-3131229D02*
X8467282Y-3197866D01*
X9909101Y-7715642D02*
X9927080Y-7712795D01*
X7675336Y-4788207D02*
X7688207Y-4775336D01*
X2581002Y-9568771D02*
X2558085Y-9664227D01*
X12800806Y-10393859D02*
X12783859Y-10393859D01*
X3267282Y-8397866D02*
X3197866Y-8467282D01*
X6508890Y-3006698D02*
X6429470Y-2948996D01*
X12592351Y-4274288D02*
X12562015Y-4180925D01*
X12676423Y-9857469D02*
X12661066Y-9760509D01*
X12899667Y-5291526D02*
X12897016Y-5274788D01*
X7715642Y-10490899D02*
X7712795Y-10472920D01*
X3414017Y-8267474D02*
X3339369Y-8331229D01*
X8614017Y-3067474D02*
X8539369Y-3131229D01*
X7328037Y-9288824D02*
X7290470Y-9198128D01*
X3570530Y-7051004D02*
X3652154Y-7105543D01*
X12449371Y-3908977D02*
X12404803Y-3821508D01*
X10384358Y-7590899D02*
X10384358Y-7609101D01*
X5147177Y-12695664D02*
X5245043Y-12687962D01*
X7539390Y-10401094D02*
X7524664Y-10411793D01*
X10401094Y-7539390D02*
X10392830Y-7555609D01*
X12766788Y-4805016D02*
X12783526Y-4807667D01*
X7698906Y-10439390D02*
X7688207Y-10424664D01*
X8094457Y-3652154D02*
X8043164Y-3735857D01*
X2581002Y-5631229D02*
X2607649Y-5725712D01*
X3998128Y-7290470D02*
X4088824Y-7328037D01*
X5184358Y-7609101D02*
X5187205Y-7627080D01*
X10542531Y-7476423D02*
X10639491Y-7461066D01*
X8852154Y-2894457D02*
X8770530Y-2948996D01*
X2558085Y-10735773D02*
X2581002Y-10831229D01*
X5342531Y-7723577D02*
X5290899Y-7715642D01*
X12766788Y-5194984D02*
X12750670Y-5200221D01*
X11629470Y-7051004D02*
X11708890Y-6993302D01*
X12562015Y-9380925D02*
X12528037Y-9288824D01*
X6802134Y-3267282D02*
X6732718Y-3197866D01*
X8206698Y-6508890D02*
X8267474Y-6585983D01*
X5049084Y-2500482D02*
X4950916Y-2500482D01*
X12404803Y-9021508D02*
X12356836Y-8935857D01*
X7627080Y-10387205D02*
X7609101Y-10384358D01*
X2558085Y-5535773D02*
X2581002Y-5631229D01*
X4812795Y-7572920D02*
X4807170Y-7555609D01*
X10925712Y-7807649D02*
X10831229Y-7781002D01*
X7688207Y-5224664D02*
X7675336Y-5211793D01*
X12193302Y-3491110D02*
X12132526Y-3414017D01*
X7909530Y-11201872D02*
X7950629Y-11291023D01*
X4657469Y-7476423D02*
X4709101Y-7484358D01*
X7738934Y-10639491D02*
X7758085Y-10735773D01*
X12900000Y-2500000D02*
X12900000Y-4708474D01*
X9664227Y-12641915D02*
X9760509Y-12661066D01*
X7715642Y-5290899D02*
X7712795Y-5272920D01*
X7712795Y-9927080D02*
X7715642Y-9909101D01*
X10392830Y-7644391D02*
X10401094Y-7660610D01*
X11932718Y-8397866D02*
X11860631Y-8331229D01*
X6932526Y-11785983D02*
X6993302Y-11708890D01*
X5290899Y-7484358D02*
X5342531Y-7476423D01*
X7660610Y-5201094D02*
X7644391Y-5192830D01*
X12002134Y-3267282D02*
X11932718Y-3197866D01*
X2433212Y-10005016D02*
X2449330Y-9999779D01*
X12699915Y-5243570D02*
X12692221Y-5258670D01*
X10012795Y-7627080D02*
X10015642Y-7609101D01*
X2399526Y-5192333D02*
X2382788Y-5194984D01*
X12884418Y-10445097D02*
X12874457Y-10431386D01*
X12710209Y-9971667D02*
X12722192Y-9983650D01*
X7555609Y-4807170D02*
X7572920Y-4812795D01*
X3735857Y-12356836D02*
X3821508Y-12404803D01*
X7807649Y-5725712D02*
X7837985Y-5819075D01*
X8467282Y-3197866D02*
X8397866Y-3267282D01*
X10424664Y-7511793D02*
X10411793Y-7524664D01*
X12750670Y-4799779D02*
X12766788Y-4805016D01*
X12251004Y-6429470D02*
X12305543Y-6347846D01*
X2843164Y-11464143D02*
X2894457Y-11547846D01*
X9108977Y-2750629D02*
X9021508Y-2795197D01*
X9288824Y-2671963D02*
X9198128Y-2709530D01*
X2500085Y-10443570D02*
X2490124Y-10429860D01*
X2366670Y-5200221D02*
X2351570Y-5207915D01*
X5342531Y-2523577D02*
X5245043Y-2512038D01*
X2523577Y-5342531D02*
X2538934Y-5439491D01*
X3491110Y-12193302D02*
X3570530Y-12251004D01*
X7156836Y-6264143D02*
X7204803Y-6178492D01*
X12897349Y-10476314D02*
X12892112Y-10460197D01*
X7441915Y-9664227D02*
X7418998Y-9568771D01*
X10490899Y-7484358D02*
X10472920Y-7487205D01*
X10472920Y-7712795D02*
X10490899Y-7715642D01*
X7362015Y-4180925D02*
X7328037Y-4088824D01*
X9108977Y-12449371D02*
X9198128Y-12490470D01*
X12641915Y-5535773D02*
X12661066Y-5439491D01*
X4744391Y-7707170D02*
X4760610Y-7698906D01*
X6868771Y-6660631D02*
X6932526Y-6585983D01*
X12897016Y-5274788D02*
X12891779Y-5258670D01*
X7572920Y-4812795D02*
X7590899Y-4815642D01*
X2795197Y-6178492D02*
X2843164Y-6264143D01*
X4088824Y-7328037D02*
X4180925Y-7362015D01*
X12800474Y-4807667D02*
X12817212Y-4805016D01*
X12068771Y-8539369D02*
X12002134Y-8467282D01*
X7524664Y-9988207D02*
X7539390Y-9998906D01*
X2416474Y-4807667D02*
X2433212Y-4805016D01*
X12692554Y-9942856D02*
X12700248Y-9957956D01*
X3652154Y-8094457D02*
X3570530Y-8148996D01*
X7105543Y-3652154D02*
X7051004Y-3570530D01*
X2366670Y-10400221D02*
X2351570Y-10407915D01*
X9568771Y-12618998D02*
X9664227Y-12641915D01*
X12684333Y-4708474D02*
X12676423Y-4657469D01*
X7461066Y-4560509D02*
X7441915Y-4464227D01*
X11291023Y-7249371D02*
X11378492Y-7204803D01*
X12692221Y-4741330D02*
X12699915Y-4756430D01*
X10150916Y-12699518D02*
X10249084Y-12699518D01*
X5192830Y-7555609D02*
X5187205Y-7572920D01*
X9857469Y-7476423D02*
X9909101Y-7484358D01*
X7995197Y-11378492D02*
X8043164Y-11464143D01*
X4088824Y-7871963D02*
X3998128Y-7909530D01*
X10831229Y-12618998D02*
X10925712Y-12592351D01*
X7995197Y-6178492D02*
X8043164Y-6264143D01*
X7723577Y-5342531D02*
X7738934Y-5439491D01*
X5272920Y-7712795D02*
X5290899Y-7715642D01*
X7627080Y-5187205D02*
X7609101Y-5184358D01*
X7644391Y-10392830D02*
X7627080Y-10387205D01*
X11464143Y-7156836D02*
X11547846Y-7105543D01*
X11785983Y-12132526D02*
X11860631Y-12068771D01*
X12661066Y-4560509D02*
X12641915Y-4464227D01*
X3652154Y-2894457D02*
X3570530Y-2948996D01*
X7715642Y-10493053D02*
X7723577Y-10542531D01*
X7555609Y-10392830D02*
X7539390Y-10401094D01*
X12449371Y-6091023D02*
X12490470Y-6001872D01*
X12700248Y-10445097D02*
X12692554Y-10460197D01*
X4464227Y-7441915D02*
X4560509Y-7461066D01*
X9944391Y-7492830D02*
X9927080Y-7487205D01*
X7204803Y-6178492D02*
X7249371Y-6091023D01*
X5239390Y-7501094D02*
X5224664Y-7511793D01*
X2478140Y-5217876D02*
X2464430Y-5207915D01*
X7290470Y-9198128D02*
X7249371Y-9108977D01*
X3652154Y-12305543D02*
X3735857Y-12356836D01*
X10411793Y-7675336D02*
X10424664Y-7688207D01*
X5049084Y-12699518D02*
X5147177Y-12695664D01*
X7476423Y-4657469D02*
X7461066Y-4560509D01*
X11708890Y-6993302D02*
X11785983Y-6932526D01*
X7738934Y-4560509D02*
X7723577Y-4657469D01*
X10455609Y-7492830D02*
X10439390Y-7501094D01*
X11547846Y-8094457D02*
X11464143Y-8043164D01*
X12193302Y-11708890D02*
X12251004Y-11629470D01*
X2449330Y-9999779D02*
X2464430Y-9992085D01*
X8852154Y-8094457D02*
X8770530Y-8148996D01*
X7609101Y-4815642D02*
X7627080Y-4812795D01*
X7909530Y-6001872D02*
X7950629Y-6091023D01*
X9108977Y-7249371D02*
X9198128Y-7290470D01*
X8397866Y-11932718D02*
X8467282Y-12002134D01*
X12900000Y-10493053D02*
X12897349Y-10476314D01*
X12833330Y-5200221D02*
X12817212Y-5194984D01*
X6264143Y-8043164D02*
X6178492Y-7995197D01*
X10639491Y-12661066D02*
X10735773Y-12641915D01*
X7572920Y-10012795D02*
X7590899Y-10015642D01*
X6660631Y-12068771D02*
X6732718Y-12002134D01*
X8094457Y-8852154D02*
X8043164Y-8935857D01*
X6001872Y-2709530D02*
X5911176Y-2671963D01*
X11111176Y-7871963D02*
X11019075Y-7837985D01*
X7738934Y-9760509D02*
X7723577Y-9857469D01*
X7539390Y-4798906D02*
X7555609Y-4807170D01*
X7712795Y-5272920D02*
X7707170Y-5255609D01*
X7204803Y-3821508D02*
X7156836Y-3735857D01*
X4368771Y-2581002D02*
X4274288Y-2607649D01*
X2581002Y-10831229D02*
X2607649Y-10925712D01*
X12735570Y-5207915D02*
X12721860Y-5217876D01*
X4852823Y-2504336D02*
X4754957Y-2512038D01*
X5211793Y-7675336D02*
X5224664Y-7688207D01*
X12528037Y-11111176D02*
X12562015Y-11019075D01*
X9021508Y-2795197D02*
X8935857Y-2843164D01*
X6091023Y-2750629D02*
X6001872Y-2709530D01*
X7758085Y-5535773D02*
X7781002Y-5631229D01*
X2325876Y-4770140D02*
X2337860Y-4782124D01*
X7487205Y-5272920D02*
X7484358Y-5290899D01*
X2351570Y-10407915D02*
X2337860Y-10417876D01*
X3414017Y-12132526D02*
X3491110Y-12193302D01*
X6091023Y-7950629D02*
X6001872Y-7909530D01*
X11860631Y-12068771D02*
X11932718Y-12002134D01*
X12251004Y-8770530D02*
X12193302Y-8691110D01*
X8614017Y-8267474D02*
X8539369Y-8331229D01*
X6585983Y-6932526D02*
X6660631Y-6868771D01*
X11111176Y-12528037D02*
X11201872Y-12490470D01*
X5819075Y-2637985D02*
X5725712Y-2607649D01*
X9474288Y-2607649D02*
X9380925Y-2637985D01*
X7461066Y-5439491D02*
X7476423Y-5342531D01*
X2315915Y-9956430D02*
X2325876Y-9970140D01*
X8331229Y-8539369D02*
X8267474Y-8614017D01*
X3267282Y-6802134D02*
X3339369Y-6868771D01*
X10439390Y-7698906D02*
X10455609Y-7707170D01*
X8852154Y-7105543D02*
X8935857Y-7156836D01*
X3821508Y-7995197D02*
X3735857Y-8043164D01*
X7698906Y-4760610D02*
X7707170Y-4744391D01*
X8770530Y-2948996D02*
X8691110Y-3006698D01*
X2416474Y-10007667D02*
X2433212Y-10005016D01*
X11291023Y-12449371D02*
X11378492Y-12404803D01*
X12562015Y-4180925D02*
X12528037Y-4088824D01*
X8148996Y-6429470D02*
X8206698Y-6508890D01*
X4950916Y-12699518D02*
X5049084Y-12699518D01*
X6347846Y-2894457D02*
X6264143Y-2843164D01*
X4812795Y-7627080D02*
X4815642Y-7609101D01*
X8770530Y-7051004D02*
X8852154Y-7105543D01*
X7871963Y-4088824D02*
X7837985Y-4180925D01*
X11201872Y-12490470D02*
X11291023Y-12449371D01*
X7698906Y-9960610D02*
X7707170Y-9944391D01*
X12686984Y-4725212D02*
X12692221Y-4741330D01*
X4754957Y-12687962D02*
X4852823Y-12695664D01*
X8397866Y-8467282D02*
X8331229Y-8539369D01*
X11019075Y-2637985D02*
X10925712Y-2607649D01*
X2894457Y-6347846D02*
X2948996Y-6429470D01*
X11785983Y-3067474D02*
X11708890Y-3006698D01*
X9568771Y-7418998D02*
X9664227Y-7441915D01*
X12528037Y-4088824D02*
X12490470Y-3998128D01*
X2490124Y-5229860D02*
X2478140Y-5217876D01*
X3908977Y-2750629D02*
X3821508Y-2795197D01*
X2490124Y-4770140D02*
X2500085Y-4756430D01*
X12641915Y-4464227D02*
X12618998Y-4368771D01*
X9288824Y-7328037D02*
X9380925Y-7362015D01*
X10455609Y-7707170D02*
X10472920Y-7712795D01*
X12356836Y-3735857D02*
X12305543Y-3652154D01*
X4560509Y-12661066D02*
X4657469Y-12676423D01*
X12833330Y-4799779D02*
X12848430Y-4792085D01*
X12817212Y-4805016D02*
X12833330Y-4799779D01*
X12892112Y-10460197D02*
X12884418Y-10445097D01*
X10012795Y-7572920D02*
X10007170Y-7555609D01*
X6660631Y-3131229D02*
X6585983Y-3067474D01*
X7249371Y-6091023D02*
X7290470Y-6001872D01*
X12528037Y-9288824D02*
X12490470Y-9198128D01*
X2300000Y-5291526D02*
X2300000Y-9908474D01*
X12783526Y-4807667D02*
X12800474Y-4807667D01*
X2894457Y-11547846D02*
X2948996Y-11629470D01*
X3131229Y-3339369D02*
X3067474Y-3414017D01*
X2507779Y-4741330D02*
X2513016Y-4725212D01*
X11201872Y-7290470D02*
X11291023Y-7249371D01*
X4368771Y-12618998D02*
X4464227Y-12641915D01*
X4088824Y-2671963D02*
X3998128Y-2709530D01*
X7051004Y-3570530D02*
X6993302Y-3491110D01*
X4727080Y-7712795D02*
X4744391Y-7707170D01*
X6932526Y-3414017D02*
X6868771Y-3339369D01*
X12722192Y-10419403D02*
X12710209Y-10431386D01*
X2337860Y-4782124D02*
X2351570Y-4792085D01*
X7461066Y-9760509D02*
X7441915Y-9664227D01*
X10401094Y-7660610D02*
X10411793Y-7675336D01*
X7572920Y-10387205D02*
X7555609Y-10392830D01*
X2300000Y-2500000D02*
X2300000Y-4708474D01*
X4657469Y-7723577D02*
X4560509Y-7738934D01*
X2382788Y-10005016D02*
X2399526Y-10007667D01*
X4368771Y-7781002D02*
X4274288Y-7807649D01*
X12618998Y-10831229D02*
X12641915Y-10735773D01*
X4815642Y-7609101D02*
X4815642Y-7590899D01*
X2750629Y-11291023D02*
X2795197Y-11378492D01*
X6264143Y-12356836D02*
X6347846Y-12305543D01*
X6732718Y-3197866D02*
X6660631Y-3131229D01*
X3998128Y-7909530D02*
X3908977Y-7950629D01*
X5224664Y-7688207D02*
X5239390Y-7698906D01*
X11860631Y-8331229D02*
X11785983Y-8267474D01*
X12722192Y-9983650D02*
X12735903Y-9993612D01*
X2948996Y-6429470D02*
X3006698Y-6508890D01*
X7555609Y-5192830D02*
X7539390Y-5201094D01*
X12751003Y-10401747D02*
X12735903Y-10409441D01*
X12848763Y-9993612D02*
X12862473Y-9983650D01*
X6993302Y-11708890D02*
X7051004Y-11629470D01*
X8691110Y-6993302D02*
X8770530Y-7051004D01*
X5187205Y-7627080D02*
X5192830Y-7644391D01*
X4560509Y-2538934D02*
X4464227Y-2558085D01*
X7487205Y-4727080D02*
X7492830Y-4744391D01*
X12251004Y-3570530D02*
X12193302Y-3491110D01*
X12709876Y-4770140D02*
X12721860Y-4782124D01*
X9664227Y-2558085D02*
X9568771Y-2581002D01*
X7362015Y-5819075D02*
X7392351Y-5725712D01*
X13400000Y-2500000D02*
X13400000Y-12700000D01*
X7051004Y-11629470D02*
X7105543Y-11547846D01*
X6264143Y-7156836D02*
X6347846Y-7105543D01*
X2507779Y-5258670D02*
X2500085Y-5243570D01*
X7715642Y-5291526D02*
X7723577Y-5342531D01*
X3131229Y-6660631D02*
X3197866Y-6732718D01*
X5239390Y-7698906D02*
X5255609Y-7707170D01*
X12862473Y-10419403D02*
X12848763Y-10409441D01*
X5439491Y-2538934D02*
X5342531Y-2523577D01*
X2325876Y-9970140D02*
X2337860Y-9982124D01*
X6347846Y-7105543D02*
X6429470Y-7051004D01*
X12068771Y-11860631D02*
X12132526Y-11785983D01*
X2478140Y-10417876D02*
X2464430Y-10407915D01*
X8267474Y-3414017D02*
X8206698Y-3491110D01*
X3339369Y-8331229D02*
X3267282Y-8397866D01*
X7392351Y-5725712D02*
X7418998Y-5631229D01*
X7476423Y-10542531D02*
X7484358Y-10493053D01*
X7590899Y-5184358D02*
X7572920Y-5187205D01*
X4709101Y-7715642D02*
X4727080Y-7712795D01*
X2490124Y-9970140D02*
X2500085Y-9956430D01*
X2607649Y-4274288D02*
X2581002Y-4368771D01*
X6429470Y-7051004D02*
X6508890Y-6993302D01*
X4560509Y-7461066D02*
X4657469Y-7476423D01*
X5535773Y-7758085D02*
X5439491Y-7738934D01*
X12735903Y-9993612D02*
X12751003Y-10001305D01*
X3339369Y-6868771D02*
X3414017Y-6932526D01*
X8691110Y-3006698D02*
X8614017Y-3067474D01*
X10831229Y-2581002D02*
X10735773Y-2558085D01*
X6585983Y-8267474D02*
X6508890Y-8206698D01*
X2490124Y-10429860D02*
X2478140Y-10417876D01*
X2750629Y-6091023D02*
X2795197Y-6178492D01*
X7644391Y-5192830D02*
X7627080Y-5187205D01*
X6585983Y-12132526D02*
X6660631Y-12068771D01*
X7204803Y-11378492D02*
X7249371Y-11291023D01*
X10007170Y-7555609D02*
X9998906Y-7539390D01*
X10347177Y-2504336D02*
X10249084Y-2500482D01*
X9198128Y-7909530D02*
X9108977Y-7950629D01*
X11629470Y-12251004D02*
X11708890Y-12193302D01*
X12661066Y-5439491D02*
X12676423Y-5342531D01*
X2433212Y-5194984D02*
X2416474Y-5192333D01*
X8267474Y-8614017D02*
X8206698Y-8691110D01*
X9474288Y-7392351D02*
X9568771Y-7418998D01*
X4754957Y-2512038D02*
X4657469Y-2523577D01*
X7995197Y-9021508D02*
X7950629Y-9108977D01*
X3131229Y-11860631D02*
X3197866Y-11932718D01*
X11547846Y-12305543D02*
X11629470Y-12251004D01*
X12884085Y-4756430D02*
X12891779Y-4741330D01*
X7051004Y-8770530D02*
X6993302Y-8691110D01*
X2500085Y-5243570D02*
X2490124Y-5229860D01*
X6001872Y-7909530D02*
X5911176Y-7871963D01*
X11378492Y-7204803D02*
X11464143Y-7156836D01*
X6868771Y-11860631D02*
X6932526Y-11785983D01*
X7539390Y-9998906D02*
X7555609Y-10007170D01*
X7524664Y-10411793D02*
X7511793Y-10424664D01*
X7572920Y-5187205D02*
X7555609Y-5192830D01*
X4657469Y-12676423D02*
X4754957Y-12687962D01*
X11860631Y-6868771D02*
X11932718Y-6802134D01*
X2507779Y-9941330D02*
X2513016Y-9925212D01*
X7609101Y-10384358D02*
X7590899Y-10384358D01*
X2399526Y-10007667D02*
X2416474Y-10007667D01*
X2351570Y-4792085D02*
X2366670Y-4799779D01*
X12528037Y-5911176D02*
X12562015Y-5819075D01*
X9198128Y-12490470D02*
X9288824Y-12528037D01*
X11708890Y-8206698D02*
X11629470Y-8148996D01*
X5819075Y-7837985D02*
X5725712Y-7807649D01*
X12592351Y-10925712D02*
X12618998Y-10831229D01*
X2795197Y-3821508D02*
X2750629Y-3908977D01*
X7487205Y-10472920D02*
X7484358Y-10490899D01*
X9474288Y-12592351D02*
X9568771Y-12618998D01*
X10735773Y-12641915D02*
X10831229Y-12618998D01*
X10472920Y-7487205D02*
X10455609Y-7492830D01*
X6264143Y-2843164D02*
X6178492Y-2795197D01*
X4807170Y-7644391D02*
X4812795Y-7627080D01*
X4180925Y-2637985D02*
X4088824Y-2671963D01*
X8267474Y-6585983D02*
X8331229Y-6660631D01*
X12404803Y-11378492D02*
X12449371Y-11291023D01*
X3821508Y-12404803D02*
X3908977Y-12449371D01*
X7609101Y-5184358D02*
X7590899Y-5184358D01*
X7492830Y-5255609D02*
X7487205Y-5272920D01*
X7156836Y-11464143D02*
X7204803Y-11378492D01*
X10392830Y-7555609D02*
X10387205Y-7572920D01*
X9198128Y-7290470D02*
X9288824Y-7328037D01*
X4815642Y-7590899D02*
X4812795Y-7572920D01*
X10445043Y-12687962D02*
X10542531Y-12676423D01*
X8935857Y-2843164D02*
X8852154Y-2894457D01*
X5245043Y-12687962D02*
X5342531Y-12676423D01*
X11291023Y-2750629D02*
X11201872Y-2709530D01*
X2750629Y-9108977D02*
X2709530Y-9198128D01*
X6091023Y-7249371D02*
X6178492Y-7204803D01*
X7492830Y-4744391D02*
X7501094Y-4760610D01*
X12684333Y-9908474D02*
X12676423Y-9857469D01*
X10052823Y-2504336D02*
X9954957Y-2512038D01*
X7290470Y-6001872D02*
X7328037Y-5911176D01*
X2300000Y-12700000D02*
X1800000Y-12700000D01*
X6585983Y-3067474D02*
X6508890Y-3006698D01*
X12900000Y-2500000D02*
X13400000Y-2500000D01*
X3006698Y-8691110D02*
X2948996Y-8770530D01*
X2948996Y-8770530D02*
X2894457Y-8852154D01*
X5187205Y-7572920D02*
X5184358Y-7590899D01*
X12700248Y-9957956D02*
X12710209Y-9971667D01*
X5290899Y-7484358D02*
X5272920Y-7487205D01*
X10439390Y-7501094D02*
X10424664Y-7511793D01*
X2637985Y-5819075D02*
X2671963Y-5911176D01*
X10015642Y-7590899D02*
X10012795Y-7572920D01*
X8467282Y-6802134D02*
X8539369Y-6868771D01*
X12900000Y-5291526D02*
X12900000Y-9908474D01*
X8094457Y-11547846D02*
X8148996Y-11629470D01*
X12193302Y-6508890D02*
X12251004Y-6429470D01*
X7511793Y-10424664D02*
X7501094Y-10439390D01*
X2843164Y-3735857D02*
X2795197Y-3821508D01*
X9954957Y-12687962D02*
X10052823Y-12695664D01*
X9380925Y-7362015D02*
X9474288Y-7392351D01*
X7723577Y-9857469D02*
X7715642Y-9908474D01*
X4560509Y-7738934D02*
X4464227Y-7758085D01*
X11932718Y-6802134D02*
X12002134Y-6732718D01*
X5911176Y-7328037D02*
X6001872Y-7290470D01*
X12750670Y-5200221D02*
X12735570Y-5207915D01*
X6732718Y-12002134D02*
X6802134Y-11932718D01*
X12783859Y-10393859D02*
X12767121Y-10396510D01*
X9108977Y-7950629D02*
X9021508Y-7995197D01*
X7712795Y-10472920D02*
X7707170Y-10455609D01*
X7688207Y-9975336D02*
X7698906Y-9960610D01*
X2478140Y-4782124D02*
X2490124Y-4770140D01*
X10490899Y-7484358D02*
X10542531Y-7476423D01*
X9288824Y-12528037D02*
X9380925Y-12562015D01*
X7392351Y-9474288D02*
X7362015Y-9380925D01*
X12562015Y-11019075D02*
X12592351Y-10925712D01*
X2515667Y-10493053D02*
X2523577Y-10542531D01*
X12767121Y-10396510D02*
X12751003Y-10401747D01*
X11378492Y-7995197D02*
X11291023Y-7950629D01*
X12692554Y-10460197D02*
X12687317Y-10476314D01*
X12687317Y-10476314D02*
X12684666Y-10493053D01*
X3197866Y-3267282D02*
X3131229Y-3339369D01*
X9988207Y-7675336D02*
X9998906Y-7660610D01*
X2709530Y-6001872D02*
X2750629Y-6091023D01*
X11708890Y-3006698D02*
X11629470Y-2948996D01*
X11378492Y-12404803D02*
X11464143Y-12356836D01*
X8770530Y-12251004D02*
X8852154Y-12305543D01*
X12356836Y-6264143D02*
X12404803Y-6178492D01*
X6429470Y-8148996D02*
X6347846Y-8094457D01*
X8043164Y-3735857D02*
X7995197Y-3821508D01*
X12592351Y-9474288D02*
X12562015Y-9380925D01*
X7555609Y-10007170D02*
X7572920Y-10012795D01*
X3197866Y-6732718D02*
X3267282Y-6802134D01*
X10925712Y-7392351D02*
X11019075Y-7362015D01*
X6868771Y-8539369D02*
X6802134Y-8467282D01*
X3414017Y-3067474D02*
X3339369Y-3131229D01*
X3006698Y-3491110D02*
X2948996Y-3570530D01*
X12833663Y-10401747D02*
X12817545Y-10396510D01*
X2464430Y-9992085D02*
X2478140Y-9982124D01*
X2300000Y-10491526D02*
X2300000Y-12700000D01*
X7644391Y-10007170D02*
X7660610Y-9998906D01*
X6660631Y-8331229D02*
X6585983Y-8267474D01*
X10411793Y-7524664D02*
X10401094Y-7539390D01*
X7418998Y-9568771D02*
X7392351Y-9474288D01*
X8094457Y-6347846D02*
X8148996Y-6429470D01*
X7758085Y-9664227D02*
X7738934Y-9760509D01*
X2507779Y-10458670D02*
X2500085Y-10443570D01*
X12862473Y-9983650D02*
X12874457Y-9971667D01*
X2538934Y-9760509D02*
X2523577Y-9857469D01*
X8935857Y-8043164D02*
X8852154Y-8094457D01*
X12721860Y-4782124D02*
X12735570Y-4792085D01*
X6993302Y-3491110D02*
X6932526Y-3414017D01*
X12592351Y-5725712D02*
X12618998Y-5631229D01*
X4657469Y-2523577D02*
X4560509Y-2538934D01*
X7627080Y-4812795D02*
X7644391Y-4807170D01*
X7707170Y-10455609D02*
X7698906Y-10439390D01*
X7781002Y-10831229D02*
X7807649Y-10925712D01*
X5725712Y-2607649D02*
X5631229Y-2581002D01*
X2671963Y-5911176D02*
X2709530Y-6001872D01*
X7476423Y-5342531D02*
X7484358Y-5291526D01*
X2607649Y-5725712D02*
X2637985Y-5819075D01*
X9960610Y-7698906D02*
X9975336Y-7688207D01*
X3491110Y-6993302D02*
X3570530Y-7051004D01*
X7675336Y-10411793D02*
X7660610Y-10401094D01*
X3998128Y-2709530D02*
X3908977Y-2750629D01*
X10925712Y-12592351D02*
X11019075Y-12562015D01*
X7539390Y-5201094D02*
X7524664Y-5211793D01*
X5342531Y-12676423D02*
X5439491Y-12661066D01*
X4788207Y-7524664D02*
X4775336Y-7511793D01*
X3735857Y-7156836D02*
X3821508Y-7204803D01*
X10249084Y-12699518D02*
X10347177Y-12695664D01*
X7492830Y-9944391D02*
X7501094Y-9960610D01*
X10925712Y-2607649D02*
X10831229Y-2581002D01*
X12449371Y-11291023D02*
X12490470Y-11201872D01*
X7758085Y-4464227D02*
X7738934Y-4560509D01*
X12641915Y-10735773D02*
X12661066Y-10639491D01*
X11291023Y-7950629D02*
X11201872Y-7909530D01*
X6932526Y-6585983D02*
X6993302Y-6508890D01*
X2795197Y-11378492D02*
X2843164Y-11464143D01*
X11629470Y-2948996D02*
X11547846Y-2894457D01*
X9857469Y-7723577D02*
X9760509Y-7738934D01*
X7249371Y-9108977D02*
X7204803Y-9021508D01*
X5725712Y-12592351D02*
X5819075Y-12562015D01*
X8148996Y-3570530D02*
X8094457Y-3652154D01*
X8267474Y-11785983D02*
X8331229Y-11860631D01*
X9927080Y-7487205D02*
X9909101Y-7484358D01*
X7781002Y-9568771D02*
X7758085Y-9664227D01*
X6802134Y-11932718D02*
X6868771Y-11860631D01*
X2500085Y-9956430D02*
X2507779Y-9941330D01*
X11111176Y-2671963D02*
X11019075Y-2637985D01*
X12687317Y-9926739D02*
X12692554Y-9942856D01*
X7484358Y-4709101D02*
X7487205Y-4727080D01*
X12676423Y-10542531D02*
X12684333Y-10493053D01*
X6802134Y-6732718D02*
X6868771Y-6660631D01*
X5535773Y-7441915D02*
X5631229Y-7418998D01*
X2315915Y-10443570D02*
X2308221Y-10458670D01*
X1800000Y-12700000D02*
X1800000Y-2500000D01*
X2671963Y-9288824D02*
X2637985Y-9380925D01*
X3908977Y-7950629D02*
X3821508Y-7995197D01*
X7995197Y-3821508D02*
X7950629Y-3908977D01*
X7484358Y-9909101D02*
X7487205Y-9927080D01*
X2308221Y-10458670D02*
X2302984Y-10474788D01*
X9760509Y-7461066D02*
X9857469Y-7476423D01*
X3998128Y-12490470D02*
X4088824Y-12528037D01*
X6508890Y-12193302D02*
X6585983Y-12132526D01*
X3197866Y-11932718D02*
X3267282Y-12002134D01*
X9760509Y-12661066D02*
X9857469Y-12676423D01*
X12251004Y-11629470D02*
X12305543Y-11547846D01*
X4274288Y-7392351D02*
X4368771Y-7418998D01*
X7807649Y-4274288D02*
X7781002Y-4368771D01*
X2500085Y-4756430D02*
X2507779Y-4741330D01*
X6868771Y-3339369D02*
X6802134Y-3267282D01*
X3570530Y-12251004D02*
X3652154Y-12305543D01*
X5211793Y-7524664D02*
X5201094Y-7539390D01*
X7328037Y-4088824D02*
X7290470Y-3998128D01*
X10424664Y-7688207D02*
X10439390Y-7698906D01*
X8614017Y-6932526D02*
X8691110Y-6993302D01*
X7290470Y-11201872D02*
X7328037Y-11111176D01*
X13400000Y-12700000D02*
X12900000Y-12700000D01*
X9021508Y-12404803D02*
X9108977Y-12449371D01*
X7105543Y-11547846D02*
X7156836Y-11464143D01*
X12068771Y-6660631D02*
X12132526Y-6585983D01*
X8467282Y-12002134D02*
X8539369Y-12068771D01*
X7156836Y-3735857D02*
X7105543Y-3652154D01*
X2515667Y-5291526D02*
X2513016Y-5274788D01*
X5272920Y-7487205D02*
X5255609Y-7492830D01*
X12800806Y-10009194D02*
X12817545Y-10006542D01*
X5631229Y-7418998D02*
X5725712Y-7392351D01*
X7698906Y-5239390D02*
X7688207Y-5224664D01*
X11932718Y-12002134D02*
X12002134Y-11932718D01*
X12900000Y-10491526D02*
X12900000Y-12700000D01*
X12641915Y-9664227D02*
X12618998Y-9568771D01*
X10735773Y-2558085D02*
X10639491Y-2538934D01*
X8397866Y-3267282D02*
X8331229Y-3339369D01*
X4464227Y-12641915D02*
X4560509Y-12661066D01*
X2637985Y-4180925D02*
X2607649Y-4274288D01*
X4807170Y-7555609D02*
X4798906Y-7539390D01*
X2515667Y-5291526D02*
X2523577Y-5342531D01*
X7590899Y-10015642D02*
X7609101Y-10015642D01*
X8206698Y-8691110D02*
X8148996Y-8770530D01*
X7362015Y-11019075D02*
X7392351Y-10925712D01*
X3067474Y-3414017D02*
X3006698Y-3491110D01*
X12874124Y-5229860D02*
X12862140Y-5217876D01*
X10007170Y-7644391D02*
X10012795Y-7627080D01*
X9198128Y-2709530D02*
X9108977Y-2750629D01*
X7362015Y-9380925D02*
X7328037Y-9288824D01*
X12305543Y-11547846D02*
X12356836Y-11464143D01*
X3570530Y-8148996D02*
X3491110Y-8206698D01*
X12735570Y-4792085D02*
X12750670Y-4799779D01*
X9909101Y-7715642D02*
X9857469Y-7723577D01*
X5819075Y-12562015D02*
X5911176Y-12528037D01*
X7524664Y-5211793D02*
X7511793Y-5224664D01*
X4760610Y-7698906D02*
X4775336Y-7688207D01*
X10387205Y-7627080D02*
X10392830Y-7644391D01*
X7418998Y-5631229D02*
X7441915Y-5535773D01*
X6429470Y-12251004D02*
X6508890Y-12193302D01*
X2709530Y-11201872D02*
X2750629Y-11291023D01*
X2302984Y-4725212D02*
X2308221Y-4741330D01*
X2399526Y-4807667D02*
X2416474Y-4807667D01*
X7950629Y-9108977D02*
X7909530Y-9198128D01*
X2538934Y-4560509D02*
X2523577Y-4657469D01*
X7476423Y-9857469D02*
X7461066Y-9760509D01*
X12132526Y-6585983D02*
X12193302Y-6508890D01*
X7441915Y-10735773D02*
X7461066Y-10639491D01*
X12874124Y-4770140D02*
X12884085Y-4756430D01*
X4180925Y-7362015D02*
X4274288Y-7392351D01*
X8148996Y-8770530D02*
X8094457Y-8852154D01*
X7609101Y-10015642D02*
X7627080Y-10012795D01*
X12661066Y-9760509D02*
X12641915Y-9664227D01*
X12684333Y-4708474D02*
X12686984Y-4725212D01*
X10249084Y-2500482D02*
X10150916Y-2500482D01*
X6993302Y-8691110D02*
X6932526Y-8614017D01*
X8043164Y-8935857D02*
X7995197Y-9021508D01*
X9380925Y-12562015D02*
X9474288Y-12592351D01*
X3414017Y-6932526D02*
X3491110Y-6993302D01*
X9021508Y-7995197D02*
X8935857Y-8043164D01*
X2894457Y-8852154D02*
X2843164Y-8935857D01*
X2513016Y-9925212D02*
X2515667Y-9908474D01*
X12618998Y-9568771D02*
X12592351Y-9474288D01*
X7501094Y-9960610D02*
X7511793Y-9975336D01*
X8206698Y-3491110D02*
X8148996Y-3570530D01*
X6508890Y-8206698D02*
X6429470Y-8148996D01*
X9857469Y-2523577D02*
X9760509Y-2538934D01*
X12800474Y-5192333D02*
X12783526Y-5192333D01*
X7328037Y-11111176D02*
X7362015Y-11019075D01*
X5245043Y-2512038D02*
X5147177Y-2504336D01*
X2513016Y-10474788D02*
X2507779Y-10458670D01*
X4815642Y-7590899D02*
X4815642Y-7590899D01*
X7249371Y-3908977D02*
X7204803Y-3821508D01*
X2416474Y-10392333D02*
X2399526Y-10392333D01*
X9474288Y-7807649D02*
X9380925Y-7837985D01*
X12817545Y-10006542D02*
X12833663Y-10001305D01*
X6001872Y-7290470D02*
X6091023Y-7249371D01*
X11378492Y-2795197D02*
X11291023Y-2750629D01*
X7204803Y-9021508D02*
X7156836Y-8935857D01*
X7723577Y-4657469D02*
X7715642Y-4708474D01*
X7418998Y-10831229D02*
X7441915Y-10735773D01*
X3339369Y-12068771D02*
X3414017Y-12132526D01*
X7627080Y-10012795D02*
X7644391Y-10007170D01*
X6178492Y-12404803D02*
X6264143Y-12356836D01*
X11547846Y-7105543D02*
X11629470Y-7051004D01*
X11629470Y-8148996D02*
X11547846Y-8094457D01*
X2464430Y-4792085D02*
X2478140Y-4782124D01*
X12692221Y-5258670D02*
X12686984Y-5274788D01*
X12618998Y-4368771D02*
X12592351Y-4274288D01*
X9288824Y-7871963D02*
X9198128Y-7909530D01*
X7675336Y-9988207D02*
X7688207Y-9975336D01*
X11785983Y-6932526D02*
X11860631Y-6868771D01*
X11019075Y-7837985D02*
X10925712Y-7807649D01*
X11785983Y-8267474D02*
X11708890Y-8206698D01*
X12783526Y-5192333D02*
X12766788Y-5194984D01*
X12874457Y-9971667D02*
X12884418Y-9957956D01*
X10639491Y-7461066D02*
X10735773Y-7441915D01*
X2315915Y-4756430D02*
X2325876Y-4770140D01*
X9664227Y-7758085D02*
X9568771Y-7781002D01*
X9960610Y-7501094D02*
X9944391Y-7492830D01*
X3491110Y-3006698D02*
X3414017Y-3067474D01*
X12305543Y-3652154D02*
X12251004Y-3570530D01*
X6732718Y-6802134D02*
X6802134Y-6732718D01*
X12686984Y-5274788D02*
X12684333Y-5291526D01*
X12817545Y-10396510D02*
X12800806Y-10393859D01*
X3267282Y-3197866D02*
X3197866Y-3267282D01*
X12848763Y-10409441D02*
X12833663Y-10401747D01*
X12862140Y-5217876D02*
X12848430Y-5207915D01*
X12891779Y-5258670D02*
X12884085Y-5243570D01*
X10015642Y-7590899D02*
X10015642Y-7590899D01*
X3006698Y-6508890D02*
X3067474Y-6585983D01*
X7781002Y-5631229D02*
X7807649Y-5725712D01*
X2478140Y-9982124D02*
X2490124Y-9970140D01*
X7051004Y-6429470D02*
X7105543Y-6347846D01*
X7723577Y-10542531D02*
X7738934Y-10639491D01*
X8206698Y-11708890D02*
X8267474Y-11785983D01*
X12193302Y-8691110D02*
X12132526Y-8614017D01*
X2513016Y-4725212D02*
X2515667Y-4708474D01*
X5201094Y-7539390D02*
X5192830Y-7555609D01*
X5439491Y-12661066D02*
X5535773Y-12641915D01*
X11111176Y-7328037D02*
X11201872Y-7290470D01*
X3570530Y-2948996D02*
X3491110Y-3006698D01*
X7807649Y-10925712D02*
X7837985Y-11019075D01*
X5911176Y-12528037D02*
X6001872Y-12490470D01*
X7707170Y-4744391D02*
X7712795Y-4727080D01*
X9380925Y-2637985D02*
X9288824Y-2671963D01*
X9568771Y-7781002D02*
X9474288Y-7807649D01*
X2709530Y-3998128D02*
X2671963Y-4088824D01*
X9760509Y-2538934D02*
X9664227Y-2558085D01*
X4088824Y-12528037D02*
X4180925Y-12562015D01*
X8935857Y-7156836D02*
X9021508Y-7204803D01*
X7738934Y-5439491D02*
X7758085Y-5535773D01*
X11932718Y-3197866D02*
X11860631Y-3131229D01*
X7511793Y-4775336D02*
X7524664Y-4788207D01*
X2382788Y-5194984D02*
X2366670Y-5200221D01*
X4775336Y-7511793D02*
X4760610Y-7501094D01*
X3067474Y-6585983D02*
X3131229Y-6660631D01*
X7675336Y-5211793D02*
X7660610Y-5201094D01*
X7392351Y-4274288D02*
X7362015Y-4180925D01*
X4274288Y-12592351D02*
X4368771Y-12618998D01*
X3735857Y-8043164D02*
X3652154Y-8094457D01*
X7290470Y-3998128D02*
X7249371Y-3908977D01*
X10639491Y-7738934D02*
X10542531Y-7723577D01*
X2308221Y-9941330D02*
X2315915Y-9956430D01*
X7660610Y-9998906D02*
X7675336Y-9988207D01*
X10445043Y-2512038D02*
X10347177Y-2504336D01*
X7950629Y-3908977D02*
X7909530Y-3998128D01*
X8691110Y-8206698D02*
X8614017Y-8267474D01*
X12848430Y-5207915D02*
X12833330Y-5200221D01*
X4798906Y-7539390D02*
X4788207Y-7524664D01*
X2464430Y-5207915D02*
X2449330Y-5200221D01*
X7909530Y-9198128D02*
X7871963Y-9288824D01*
X10347177Y-12695664D02*
X10445043Y-12687962D01*
X2300333Y-4708474D02*
X2302984Y-4725212D01*
X10542531Y-7723577D02*
X10490899Y-7715642D01*
X10052823Y-12695664D02*
X10150916Y-12699518D01*
X9975336Y-7511793D02*
X9960610Y-7501094D01*
X3908977Y-12449371D02*
X3998128Y-12490470D01*
X12068771Y-3339369D02*
X12002134Y-3267282D01*
X5201094Y-7660610D02*
X5211793Y-7675336D01*
X12735903Y-10409441D02*
X12722192Y-10419403D01*
X7837985Y-11019075D02*
X7871963Y-11111176D01*
X7758085Y-10735773D02*
X7781002Y-10831229D01*
X7156836Y-8935857D02*
X7105543Y-8852154D01*
X11201872Y-7909530D02*
X11111176Y-7871963D01*
X4852823Y-12695664D02*
X4950916Y-12699518D01*
X7660610Y-4798906D02*
X7675336Y-4788207D01*
X2948996Y-3570530D02*
X2894457Y-3652154D01*
X12848430Y-4792085D02*
X12862140Y-4782124D01*
X4798906Y-7660610D02*
X4807170Y-7644391D01*
X7837985Y-9380925D02*
X7807649Y-9474288D01*
X10387205Y-7572920D02*
X10384358Y-7590899D01*
X5725712Y-7807649D02*
X5631229Y-7781002D01*
X2637985Y-11019075D02*
X2671963Y-11111176D01*
X2399526Y-10392333D02*
X2382788Y-10394984D01*
X6732718Y-8397866D02*
X6660631Y-8331229D01*
X7487205Y-9927080D02*
X7492830Y-9944391D01*
X4274288Y-7807649D02*
X4180925Y-7837985D01*
X6091023Y-12449371D02*
X6178492Y-12404803D01*
X2581002Y-4368771D02*
X2558085Y-4464227D01*
X3267282Y-12002134D02*
X3339369Y-12068771D01*
X2351570Y-9992085D02*
X2366670Y-9999779D01*
X12833663Y-10001305D02*
X12848763Y-9993612D01*
X9857469Y-12676423D02*
X9954957Y-12687962D01*
X5725712Y-7392351D02*
X5819075Y-7362015D01*
X12305543Y-6347846D02*
X12356836Y-6264143D01*
X6993302Y-6508890D02*
X7051004Y-6429470D01*
X11708890Y-12193302D02*
X11785983Y-12132526D01*
X2464430Y-10407915D02*
X2449330Y-10400221D01*
X2366670Y-4799779D02*
X2382788Y-4805016D01*
X10384358Y-7609101D02*
X10387205Y-7627080D01*
X2308221Y-4741330D02*
X2315915Y-4756430D01*
X8770530Y-8148996D02*
X8691110Y-8206698D01*
X4464227Y-2558085D02*
X4368771Y-2581002D01*
X4180925Y-12562015D02*
X4274288Y-12592351D01*
X4788207Y-7675336D02*
X4798906Y-7660610D01*
X4709101Y-7715642D02*
X4657469Y-7723577D01*
X7441915Y-5535773D02*
X7461066Y-5439491D01*
X2337860Y-10417876D02*
X2325876Y-10429860D01*
X5255609Y-7707170D02*
X5272920Y-7712795D01*
X12710209Y-10431386D02*
X12700248Y-10445097D01*
X2709530Y-9198128D02*
X2671963Y-9288824D01*
X2300333Y-9908474D02*
X2302984Y-9925212D01*
X2538934Y-10639491D02*
X2558085Y-10735773D01*
X12490470Y-6001872D02*
X12528037Y-5911176D01*
X12562015Y-5819075D02*
X12592351Y-5725712D01*
X7837985Y-4180925D02*
X7807649Y-4274288D01*
X11019075Y-7362015D02*
X11111176Y-7328037D01*
X3821508Y-7204803D02*
X3908977Y-7249371D01*
X6932526Y-8614017D02*
X6868771Y-8539369D01*
X7781002Y-4368771D02*
X7758085Y-4464227D01*
X10735773Y-7441915D02*
X10831229Y-7418998D01*
X4274288Y-2607649D02*
X4180925Y-2637985D01*
X2948996Y-11629470D02*
X3006698Y-11708890D01*
X4464227Y-7758085D02*
X4368771Y-7781002D01*
X8467282Y-8397866D02*
X8397866Y-8467282D01*
X7909530Y-3998128D02*
X7871963Y-4088824D01*
X2607649Y-10925712D02*
X2637985Y-11019075D01*
X12897349Y-9926739D02*
X12900000Y-9910000D01*
X5342531Y-7476423D02*
X5439491Y-7461066D01*
X3131229Y-8539369D02*
X3067474Y-8614017D01*
X12817212Y-5194984D02*
X12800474Y-5192333D01*
X2671963Y-4088824D02*
X2637985Y-4180925D01*
X5255609Y-7492830D02*
X5239390Y-7501094D01*
X2523577Y-10542531D02*
X2538934Y-10639491D01*
X12404803Y-3821508D02*
X12356836Y-3735857D01*
X2382788Y-10394984D02*
X2366670Y-10400221D01*
X6178492Y-2795197D02*
X6091023Y-2750629D01*
X8331229Y-6660631D02*
X8397866Y-6732718D01*
X8331229Y-11860631D02*
X8397866Y-11932718D01*
X11547846Y-2894457D02*
X11464143Y-2843164D01*
X5147177Y-2504336D02*
X5049084Y-2500482D01*
X2795197Y-9021508D02*
X2750629Y-9108977D01*
X10150916Y-2500482D02*
X10052823Y-2504336D01*
X8614017Y-12132526D02*
X8691110Y-12193302D01*
X12132526Y-11785983D02*
X12193302Y-11708890D01*
X2750629Y-3908977D02*
X2709530Y-3998128D01*
X12897016Y-4725212D02*
X12899667Y-4708474D01*
X3491110Y-8206698D02*
X3414017Y-8267474D01*
X10831229Y-7781002D02*
X10735773Y-7758085D01*
D11*
D10*
X2485482Y-4935916D02*
X2515482Y-4965916D01*
X2515482Y-4935916D02*
X2485482Y-4965916D01*
X2485482Y-4985000D02*
X2515482Y-5015000D01*
X2515482Y-4985000D02*
X2485482Y-5015000D01*
X2485482Y-5034084D02*
X2515482Y-5064084D01*
X2515482Y-5034084D02*
X2485482Y-5064084D01*
X2485482Y-10135916D02*
X2515482Y-10165916D01*
X2515482Y-10135916D02*
X2485482Y-10165916D01*
X2485482Y-10185000D02*
X2515482Y-10215000D01*
X2515482Y-10185000D02*
X2485482Y-10215000D01*
X2485482Y-10234084D02*
X2515482Y-10264084D01*
X2515482Y-10234084D02*
X2485482Y-10264084D01*
X2487409Y-4886868D02*
X2517409Y-4916868D01*
X2517409Y-4886868D02*
X2487409Y-4916868D01*
X2487409Y-5083132D02*
X2517409Y-5113132D01*
X2517409Y-5083132D02*
X2487409Y-5113132D01*
X2487409Y-10086868D02*
X2517409Y-10116868D01*
X2517409Y-10086868D02*
X2487409Y-10116868D01*
X2487409Y-10283132D02*
X2517409Y-10313132D01*
X2517409Y-10283132D02*
X2487409Y-10313132D01*
X2489336Y-4837823D02*
X2519336Y-4867823D01*
X2519336Y-4837823D02*
X2489336Y-4867823D01*
X2489336Y-5132177D02*
X2519336Y-5162177D01*
X2519336Y-5132177D02*
X2489336Y-5162177D01*
X2489336Y-10037823D02*
X2519336Y-10067823D01*
X2519336Y-10037823D02*
X2489336Y-10067823D01*
X2489336Y-10332177D02*
X2519336Y-10362177D01*
X2519336Y-10332177D02*
X2489336Y-10362177D01*
X2493187Y-4788890D02*
X2523187Y-4818890D01*
X2523187Y-4788890D02*
X2493187Y-4818890D01*
X2493187Y-5181110D02*
X2523187Y-5211110D01*
X2523187Y-5181110D02*
X2493187Y-5211110D01*
X2493187Y-9988890D02*
X2523187Y-10018890D01*
X2523187Y-9988890D02*
X2493187Y-10018890D01*
X2493187Y-10381110D02*
X2523187Y-10411110D01*
X2523187Y-10381110D02*
X2493187Y-10411110D01*
X4788890Y-7476813D02*
X4818890Y-7506813D01*
X4818890Y-7476813D02*
X4788890Y-7506813D01*
X4788890Y-7693187D02*
X4818890Y-7723187D01*
X4818890Y-7693187D02*
X4788890Y-7723187D01*
X4837823Y-7480664D02*
X4867823Y-7510664D01*
X4867823Y-7480664D02*
X4837823Y-7510664D01*
X4837823Y-7689336D02*
X4867823Y-7719336D01*
X4867823Y-7689336D02*
X4837823Y-7719336D01*
X4886868Y-7687409D02*
X4916868Y-7717409D01*
X4916868Y-7687409D02*
X4886868Y-7717409D01*
X4886869Y-7482591D02*
X4916869Y-7512591D01*
X4916869Y-7482591D02*
X4886869Y-7512591D01*
X4935916Y-7484518D02*
X4965916Y-7514518D01*
X4965916Y-7484518D02*
X4935916Y-7514518D01*
X4935916Y-7685482D02*
X4965916Y-7715482D01*
X4965916Y-7685482D02*
X4935916Y-7715482D01*
X4985000Y-7484518D02*
X5015000Y-7514518D01*
X5015000Y-7484518D02*
X4985000Y-7514518D01*
X4985000Y-7685482D02*
X5015000Y-7715482D01*
X5015000Y-7685482D02*
X4985000Y-7715482D01*
X5034084Y-7484518D02*
X5064084Y-7514518D01*
X5064084Y-7484518D02*
X5034084Y-7514518D01*
X5034084Y-7685482D02*
X5064084Y-7715482D01*
X5064084Y-7685482D02*
X5034084Y-7715482D01*
X5083129Y-7482591D02*
X5113129Y-7512591D01*
X5113129Y-7482591D02*
X5083129Y-7512591D01*
X5083132Y-7687409D02*
X5113132Y-7717409D01*
X5113132Y-7687409D02*
X5083132Y-7717409D01*
X5132177Y-7480664D02*
X5162177Y-7510664D01*
X5162177Y-7480664D02*
X5132177Y-7510664D01*
X5132177Y-7689336D02*
X5162177Y-7719336D01*
X5162177Y-7689336D02*
X5132177Y-7719336D01*
X5181110Y-7693187D02*
X5211110Y-7723187D01*
X5211110Y-7693187D02*
X5181110Y-7723187D01*
X5181110Y-7476813D02*
X5211110Y-7506813D01*
X5211110Y-7476813D02*
X5181110Y-7506813D01*
X7476813Y-4788890D02*
X7506813Y-4818890D01*
X7506813Y-4788890D02*
X7476813Y-4818890D01*
X7476813Y-5181110D02*
X7506813Y-5211110D01*
X7506813Y-5181110D02*
X7476813Y-5211110D01*
X7476813Y-9988890D02*
X7506813Y-10018890D01*
X7506813Y-9988890D02*
X7476813Y-10018890D01*
X7476813Y-10381110D02*
X7506813Y-10411110D01*
X7506813Y-10381110D02*
X7476813Y-10411110D01*
X7480664Y-4837823D02*
X7510664Y-4867823D01*
X7510664Y-4837823D02*
X7480664Y-4867823D01*
X7480664Y-5132177D02*
X7510664Y-5162177D01*
X7510664Y-5132177D02*
X7480664Y-5162177D01*
X7480664Y-10037823D02*
X7510664Y-10067823D01*
X7510664Y-10037823D02*
X7480664Y-10067823D01*
X7480664Y-10332177D02*
X7510664Y-10362177D01*
X7510664Y-10332177D02*
X7480664Y-10362177D01*
X7482591Y-4886869D02*
X7512591Y-4916869D01*
X7512591Y-4886869D02*
X7482591Y-4916869D01*
X7482591Y-10086869D02*
X7512591Y-10116869D01*
X7512591Y-10086869D02*
X7482591Y-10116869D01*
X7482591Y-5083129D02*
X7512591Y-5113129D01*
X7512591Y-5083129D02*
X7482591Y-5113129D01*
X7482591Y-10283129D02*
X7512591Y-10313129D01*
X7512591Y-10283129D02*
X7482591Y-10313129D01*
X7484518Y-4935916D02*
X7514518Y-4965916D01*
X7514518Y-4935916D02*
X7484518Y-4965916D01*
X7484518Y-4985000D02*
X7514518Y-5015000D01*
X7514518Y-4985000D02*
X7484518Y-5015000D01*
X7484518Y-5034084D02*
X7514518Y-5064084D01*
X7514518Y-5034084D02*
X7484518Y-5064084D01*
X7484518Y-10135916D02*
X7514518Y-10165916D01*
X7514518Y-10135916D02*
X7484518Y-10165916D01*
X7484518Y-10185000D02*
X7514518Y-10215000D01*
X7514518Y-10185000D02*
X7484518Y-10215000D01*
X7484518Y-10234084D02*
X7514518Y-10264084D01*
X7514518Y-10234084D02*
X7484518Y-10264084D01*
X7685482Y-4935916D02*
X7715482Y-4965916D01*
X7715482Y-4935916D02*
X7685482Y-4965916D01*
X7685482Y-4985000D02*
X7715482Y-5015000D01*
X7715482Y-4985000D02*
X7685482Y-5015000D01*
X7685482Y-5034084D02*
X7715482Y-5064084D01*
X7715482Y-5034084D02*
X7685482Y-5064084D01*
X7685482Y-10135916D02*
X7715482Y-10165916D01*
X7715482Y-10135916D02*
X7685482Y-10165916D01*
X7685482Y-10185000D02*
X7715482Y-10215000D01*
X7715482Y-10185000D02*
X7685482Y-10215000D01*
X7685482Y-10234084D02*
X7715482Y-10264084D01*
X7715482Y-10234084D02*
X7685482Y-10264084D01*
X7687409Y-4886868D02*
X7717409Y-4916868D01*
X7717409Y-4886868D02*
X7687409Y-4916868D01*
X7687409Y-5083132D02*
X7717409Y-5113132D01*
X7717409Y-5083132D02*
X7687409Y-5113132D01*
X7687409Y-10086868D02*
X7717409Y-10116868D01*
X7717409Y-10086868D02*
X7687409Y-10116868D01*
X7687409Y-10283132D02*
X7717409Y-10313132D01*
X7717409Y-10283132D02*
X7687409Y-10313132D01*
X7689336Y-4837823D02*
X7719336Y-4867823D01*
X7719336Y-4837823D02*
X7689336Y-4867823D01*
X7689336Y-5132177D02*
X7719336Y-5162177D01*
X7719336Y-5132177D02*
X7689336Y-5162177D01*
X7689336Y-10037823D02*
X7719336Y-10067823D01*
X7719336Y-10037823D02*
X7689336Y-10067823D01*
X7689336Y-10332177D02*
X7719336Y-10362177D01*
X7719336Y-10332177D02*
X7689336Y-10362177D01*
X7693187Y-4788890D02*
X7723187Y-4818890D01*
X7723187Y-4788890D02*
X7693187Y-4818890D01*
X7693187Y-5181110D02*
X7723187Y-5211110D01*
X7723187Y-5181110D02*
X7693187Y-5211110D01*
X7693187Y-9988890D02*
X7723187Y-10018890D01*
X7723187Y-9988890D02*
X7693187Y-10018890D01*
X7693187Y-10381110D02*
X7723187Y-10411110D01*
X7723187Y-10381110D02*
X7693187Y-10411110D01*
X9988890Y-7476813D02*
X10018890Y-7506813D01*
X10018890Y-7476813D02*
X9988890Y-7506813D01*
X9988890Y-7693187D02*
X10018890Y-7723187D01*
X10018890Y-7693187D02*
X9988890Y-7723187D01*
X10037823Y-7480664D02*
X10067823Y-7510664D01*
X10067823Y-7480664D02*
X10037823Y-7510664D01*
X10037823Y-7689336D02*
X10067823Y-7719336D01*
X10067823Y-7689336D02*
X10037823Y-7719336D01*
X10086868Y-7687409D02*
X10116868Y-7717409D01*
X10116868Y-7687409D02*
X10086868Y-7717409D01*
X10086869Y-7482591D02*
X10116869Y-7512591D01*
X10116869Y-7482591D02*
X10086869Y-7512591D01*
X10135916Y-7484518D02*
X10165916Y-7514518D01*
X10165916Y-7484518D02*
X10135916Y-7514518D01*
X10135916Y-7685482D02*
X10165916Y-7715482D01*
X10165916Y-7685482D02*
X10135916Y-7715482D01*
X10185000Y-7484518D02*
X10215000Y-7514518D01*
X10215000Y-7484518D02*
X10185000Y-7514518D01*
X10185000Y-7685482D02*
X10215000Y-7715482D01*
X10215000Y-7685482D02*
X10185000Y-7715482D01*
X10234084Y-7484518D02*
X10264084Y-7514518D01*
X10264084Y-7484518D02*
X10234084Y-7514518D01*
X10234084Y-7685482D02*
X10264084Y-7715482D01*
X10264084Y-7685482D02*
X10234084Y-7715482D01*
X10283129Y-7482591D02*
X10313129Y-7512591D01*
X10313129Y-7482591D02*
X10283129Y-7512591D01*
X10283132Y-7687409D02*
X10313132Y-7717409D01*
X10313132Y-7687409D02*
X10283132Y-7717409D01*
X10332177Y-7480664D02*
X10362177Y-7510664D01*
X10362177Y-7480664D02*
X10332177Y-7510664D01*
X10332177Y-7689336D02*
X10362177Y-7719336D01*
X10362177Y-7689336D02*
X10332177Y-7719336D01*
X10381110Y-7693187D02*
X10411110Y-7723187D01*
X10411110Y-7693187D02*
X10381110Y-7723187D01*
X10381110Y-7476813D02*
X10411110Y-7506813D01*
X10411110Y-7476813D02*
X10381110Y-7506813D01*
X12676813Y-4788890D02*
X12706813Y-4818890D01*
X12706813Y-4788890D02*
X12676813Y-4818890D01*
X12676813Y-5181110D02*
X12706813Y-5211110D01*
X12706813Y-5181110D02*
X12676813Y-5211110D01*
X12676813Y-9988890D02*
X12706813Y-10018890D01*
X12706813Y-9988890D02*
X12676813Y-10018890D01*
X12676813Y-10381110D02*
X12706813Y-10411110D01*
X12706813Y-10381110D02*
X12676813Y-10411110D01*
X12680664Y-4837823D02*
X12710664Y-4867823D01*
X12710664Y-4837823D02*
X12680664Y-4867823D01*
X12680664Y-5132177D02*
X12710664Y-5162177D01*
X12710664Y-5132177D02*
X12680664Y-5162177D01*
X12680664Y-10037823D02*
X12710664Y-10067823D01*
X12710664Y-10037823D02*
X12680664Y-10067823D01*
X12680664Y-10332177D02*
X12710664Y-10362177D01*
X12710664Y-10332177D02*
X12680664Y-10362177D01*
X12682591Y-4886869D02*
X12712591Y-4916869D01*
X12712591Y-4886869D02*
X12682591Y-4916869D01*
X12682591Y-10086869D02*
X12712591Y-10116869D01*
X12712591Y-10086869D02*
X12682591Y-10116869D01*
X12682591Y-5083129D02*
X12712591Y-5113129D01*
X12712591Y-5083129D02*
X12682591Y-5113129D01*
X12682591Y-10283129D02*
X12712591Y-10313129D01*
X12712591Y-10283129D02*
X12682591Y-10313129D01*
X12684518Y-4935916D02*
X12714518Y-4965916D01*
X12714518Y-4935916D02*
X12684518Y-4965916D01*
X12684518Y-4985000D02*
X12714518Y-5015000D01*
X12714518Y-4985000D02*
X12684518Y-5015000D01*
X12684518Y-5034084D02*
X12714518Y-5064084D01*
X12714518Y-5034084D02*
X12684518Y-5064084D01*
X12684518Y-10135916D02*
X12714518Y-10165916D01*
X12714518Y-10135916D02*
X12684518Y-10165916D01*
X12684518Y-10185000D02*
X12714518Y-10215000D01*
X12714518Y-10185000D02*
X12684518Y-10215000D01*
X12684518Y-10234084D02*
X12714518Y-10264084D01*
X12714518Y-10234084D02*
X12684518Y-10264084D01*
D12*
X2057600Y-2700000D02*
G75*
G02*
X1942400Y-2700000I-57600J0D01*
G01*
X1942400Y-2700000D02*
G75*
G02*
X2057600Y-2700000I57600J0D01*
G01*
X2057600Y-7600000D02*
G75*
G02*
X1942400Y-7600000I-57600J0D01*
G01*
X1942400Y-7600000D02*
G75*
G02*
X2057600Y-7600000I57600J0D01*
G01*
X13257600Y-7600000D02*
G75*
G02*
X13142400Y-7600000I-57600J0D01*
G01*
X13142400Y-7600000D02*
G75*
G02*
X13257600Y-7600000I57600J0D01*
G01*
X13257600Y-12500000D02*
G75*
G02*
X13142400Y-12500000I-57600J0D01*
G01*
X13142400Y-12500000D02*
G75*
G02*
X13257600Y-12500000I57600J0D01*
G01*
D11*
X2050000Y-3000000D02*
X2050000Y-3200000D01*
X1950000Y-3100000D02*
X2150000Y-3100000D01*
X2050000Y-12000000D02*
X2050000Y-12200000D01*
X1950000Y-12100000D02*
X2150000Y-12100000D01*
X13150000Y-3000000D02*
X13150000Y-3200000D01*
X13050000Y-3100000D02*
X13250000Y-3100000D01*
X13150000Y-12000000D02*
X13150000Y-12200000D01*
X13050000Y-12100000D02*
X13250000Y-12100000D01*
X2055777Y-13016484D02*
X2055777Y-12816484D01*
X2055777Y-12816484D02*
X2103396Y-12816484D01*
X2103396Y-12816484D02*
X2131967Y-12826008D01*
X2131967Y-12826008D02*
X2151015Y-12845055D01*
X2151015Y-12845055D02*
X2160539Y-12864103D01*
X2160539Y-12864103D02*
X2170063Y-12902198D01*
X2170063Y-12902198D02*
X2170063Y-12930769D01*
X2170063Y-12930769D02*
X2160539Y-12968865D01*
X2160539Y-12968865D02*
X2151015Y-12987912D01*
X2151015Y-12987912D02*
X2131967Y-13006960D01*
X2131967Y-13006960D02*
X2103396Y-13016484D01*
X2103396Y-13016484D02*
X2055777Y-13016484D01*
X2255777Y-13016484D02*
X2255777Y-12883150D01*
X2255777Y-12921246D02*
X2265301Y-12902198D01*
X2265301Y-12902198D02*
X2274824Y-12892674D01*
X2274824Y-12892674D02*
X2293872Y-12883150D01*
X2293872Y-12883150D02*
X2312920Y-12883150D01*
X2379586Y-13016484D02*
X2379586Y-12883150D01*
X2379586Y-12816484D02*
X2370063Y-12826008D01*
X2370063Y-12826008D02*
X2379586Y-12835531D01*
X2379586Y-12835531D02*
X2389110Y-12826008D01*
X2389110Y-12826008D02*
X2379586Y-12816484D01*
X2379586Y-12816484D02*
X2379586Y-12835531D01*
X2503396Y-13016484D02*
X2484348Y-13006960D01*
X2484348Y-13006960D02*
X2474824Y-12987912D01*
X2474824Y-12987912D02*
X2474824Y-12816484D01*
X2608158Y-13016484D02*
X2589110Y-13006960D01*
X2589110Y-13006960D02*
X2579586Y-12987912D01*
X2579586Y-12987912D02*
X2579586Y-12816484D01*
X2836729Y-13016484D02*
X2836729Y-12816484D01*
X2836729Y-12816484D02*
X2903396Y-12959341D01*
X2903396Y-12959341D02*
X2970062Y-12816484D01*
X2970062Y-12816484D02*
X2970062Y-13016484D01*
X3151015Y-13016484D02*
X3151015Y-12911722D01*
X3151015Y-12911722D02*
X3141491Y-12892674D01*
X3141491Y-12892674D02*
X3122443Y-12883150D01*
X3122443Y-12883150D02*
X3084348Y-12883150D01*
X3084348Y-12883150D02*
X3065301Y-12892674D01*
X3151015Y-13006960D02*
X3131967Y-13016484D01*
X3131967Y-13016484D02*
X3084348Y-13016484D01*
X3084348Y-13016484D02*
X3065301Y-13006960D01*
X3065301Y-13006960D02*
X3055777Y-12987912D01*
X3055777Y-12987912D02*
X3055777Y-12968865D01*
X3055777Y-12968865D02*
X3065301Y-12949817D01*
X3065301Y-12949817D02*
X3084348Y-12940293D01*
X3084348Y-12940293D02*
X3131967Y-12940293D01*
X3131967Y-12940293D02*
X3151015Y-12930769D01*
X3246253Y-12883150D02*
X3246253Y-13083150D01*
X3246253Y-12892674D02*
X3265301Y-12883150D01*
X3265301Y-12883150D02*
X3303396Y-12883150D01*
X3303396Y-12883150D02*
X3322443Y-12892674D01*
X3322443Y-12892674D02*
X3331967Y-12902198D01*
X3331967Y-12902198D02*
X3341491Y-12921246D01*
X3341491Y-12921246D02*
X3341491Y-12978388D01*
X3341491Y-12978388D02*
X3331967Y-12997436D01*
X3331967Y-12997436D02*
X3322443Y-13006960D01*
X3322443Y-13006960D02*
X3303396Y-13016484D01*
X3303396Y-13016484D02*
X3265301Y-13016484D01*
X3265301Y-13016484D02*
X3246253Y-13006960D01*
X3427205Y-12997436D02*
X3436729Y-13006960D01*
X3436729Y-13006960D02*
X3427205Y-13016484D01*
X3427205Y-13016484D02*
X3417682Y-13006960D01*
X3417682Y-13006960D02*
X3427205Y-12997436D01*
X3427205Y-12997436D02*
X3427205Y-13016484D01*
X3427205Y-12892674D02*
X3436729Y-12902198D01*
X3436729Y-12902198D02*
X3427205Y-12911722D01*
X3427205Y-12911722D02*
X3417682Y-12902198D01*
X3417682Y-12902198D02*
X3427205Y-12892674D01*
X3427205Y-12892674D02*
X3427205Y-12911722D01*
D10*
X1765000Y-13330000D02*
X1795000Y-13360000D01*
X1795000Y-13330000D02*
X1765000Y-13360000D01*
D11*
X2093872Y-13236484D02*
X2112920Y-13236484D01*
X2112920Y-13236484D02*
X2131967Y-13246008D01*
X2131967Y-13246008D02*
X2141491Y-13255531D01*
X2141491Y-13255531D02*
X2151015Y-13274579D01*
X2151015Y-13274579D02*
X2160539Y-13312674D01*
X2160539Y-13312674D02*
X2160539Y-13360293D01*
X2160539Y-13360293D02*
X2151015Y-13398388D01*
X2151015Y-13398388D02*
X2141491Y-13417436D01*
X2141491Y-13417436D02*
X2131967Y-13426960D01*
X2131967Y-13426960D02*
X2112920Y-13436484D01*
X2112920Y-13436484D02*
X2093872Y-13436484D01*
X2093872Y-13436484D02*
X2074824Y-13426960D01*
X2074824Y-13426960D02*
X2065301Y-13417436D01*
X2065301Y-13417436D02*
X2055777Y-13398388D01*
X2055777Y-13398388D02*
X2046253Y-13360293D01*
X2046253Y-13360293D02*
X2046253Y-13312674D01*
X2046253Y-13312674D02*
X2055777Y-13274579D01*
X2055777Y-13274579D02*
X2065301Y-13255531D01*
X2065301Y-13255531D02*
X2074824Y-13246008D01*
X2074824Y-13246008D02*
X2093872Y-13236484D01*
X2246253Y-13417436D02*
X2255777Y-13426960D01*
X2255777Y-13426960D02*
X2246253Y-13436484D01*
X2246253Y-13436484D02*
X2236729Y-13426960D01*
X2236729Y-13426960D02*
X2246253Y-13417436D01*
X2246253Y-13417436D02*
X2246253Y-13436484D01*
X2322444Y-13236484D02*
X2446253Y-13236484D01*
X2446253Y-13236484D02*
X2379586Y-13312674D01*
X2379586Y-13312674D02*
X2408158Y-13312674D01*
X2408158Y-13312674D02*
X2427205Y-13322198D01*
X2427205Y-13322198D02*
X2436729Y-13331722D01*
X2436729Y-13331722D02*
X2446253Y-13350769D01*
X2446253Y-13350769D02*
X2446253Y-13398388D01*
X2446253Y-13398388D02*
X2436729Y-13417436D01*
X2436729Y-13417436D02*
X2427205Y-13426960D01*
X2427205Y-13426960D02*
X2408158Y-13436484D01*
X2408158Y-13436484D02*
X2351015Y-13436484D01*
X2351015Y-13436484D02*
X2331967Y-13426960D01*
X2331967Y-13426960D02*
X2322444Y-13417436D01*
X2570063Y-13236484D02*
X2589110Y-13236484D01*
X2589110Y-13236484D02*
X2608158Y-13246008D01*
X2608158Y-13246008D02*
X2617682Y-13255531D01*
X2617682Y-13255531D02*
X2627205Y-13274579D01*
X2627205Y-13274579D02*
X2636729Y-13312674D01*
X2636729Y-13312674D02*
X2636729Y-13360293D01*
X2636729Y-13360293D02*
X2627205Y-13398388D01*
X2627205Y-13398388D02*
X2617682Y-13417436D01*
X2617682Y-13417436D02*
X2608158Y-13426960D01*
X2608158Y-13426960D02*
X2589110Y-13436484D01*
X2589110Y-13436484D02*
X2570063Y-13436484D01*
X2570063Y-13436484D02*
X2551015Y-13426960D01*
X2551015Y-13426960D02*
X2541491Y-13417436D01*
X2541491Y-13417436D02*
X2531967Y-13398388D01*
X2531967Y-13398388D02*
X2522444Y-13360293D01*
X2522444Y-13360293D02*
X2522444Y-13312674D01*
X2522444Y-13312674D02*
X2531967Y-13274579D01*
X2531967Y-13274579D02*
X2541491Y-13255531D01*
X2541491Y-13255531D02*
X2551015Y-13246008D01*
X2551015Y-13246008D02*
X2570063Y-13236484D01*
X2760539Y-13236484D02*
X2779586Y-13236484D01*
X2779586Y-13236484D02*
X2798634Y-13246008D01*
X2798634Y-13246008D02*
X2808158Y-13255531D01*
X2808158Y-13255531D02*
X2817682Y-13274579D01*
X2817682Y-13274579D02*
X2827205Y-13312674D01*
X2827205Y-13312674D02*
X2827205Y-13360293D01*
X2827205Y-13360293D02*
X2817682Y-13398388D01*
X2817682Y-13398388D02*
X2808158Y-13417436D01*
X2808158Y-13417436D02*
X2798634Y-13426960D01*
X2798634Y-13426960D02*
X2779586Y-13436484D01*
X2779586Y-13436484D02*
X2760539Y-13436484D01*
X2760539Y-13436484D02*
X2741491Y-13426960D01*
X2741491Y-13426960D02*
X2731967Y-13417436D01*
X2731967Y-13417436D02*
X2722444Y-13398388D01*
X2722444Y-13398388D02*
X2712920Y-13360293D01*
X2712920Y-13360293D02*
X2712920Y-13312674D01*
X2712920Y-13312674D02*
X2722444Y-13274579D01*
X2722444Y-13274579D02*
X2731967Y-13255531D01*
X2731967Y-13255531D02*
X2741491Y-13246008D01*
X2741491Y-13246008D02*
X2760539Y-13236484D01*
X2912920Y-13436484D02*
X2912920Y-13303150D01*
X2912920Y-13322198D02*
X2922443Y-13312674D01*
X2922443Y-13312674D02*
X2941491Y-13303150D01*
X2941491Y-13303150D02*
X2970063Y-13303150D01*
X2970063Y-13303150D02*
X2989110Y-13312674D01*
X2989110Y-13312674D02*
X2998634Y-13331722D01*
X2998634Y-13331722D02*
X2998634Y-13436484D01*
X2998634Y-13331722D02*
X3008158Y-13312674D01*
X3008158Y-13312674D02*
X3027205Y-13303150D01*
X3027205Y-13303150D02*
X3055777Y-13303150D01*
X3055777Y-13303150D02*
X3074824Y-13312674D01*
X3074824Y-13312674D02*
X3084348Y-13331722D01*
X3084348Y-13331722D02*
X3084348Y-13436484D01*
X3179586Y-13436484D02*
X3179586Y-13303150D01*
X3179586Y-13322198D02*
X3189110Y-13312674D01*
X3189110Y-13312674D02*
X3208158Y-13303150D01*
X3208158Y-13303150D02*
X3236729Y-13303150D01*
X3236729Y-13303150D02*
X3255777Y-13312674D01*
X3255777Y-13312674D02*
X3265301Y-13331722D01*
X3265301Y-13331722D02*
X3265301Y-13436484D01*
X3265301Y-13331722D02*
X3274824Y-13312674D01*
X3274824Y-13312674D02*
X3293872Y-13303150D01*
X3293872Y-13303150D02*
X3322443Y-13303150D01*
X3322443Y-13303150D02*
X3341491Y-13312674D01*
X3341491Y-13312674D02*
X3351015Y-13331722D01*
X3351015Y-13331722D02*
X3351015Y-13436484D01*
X3741491Y-13226960D02*
X3570063Y-13484103D01*
X3998634Y-13236484D02*
X4017682Y-13236484D01*
X4017682Y-13236484D02*
X4036729Y-13246008D01*
X4036729Y-13246008D02*
X4046253Y-13255531D01*
X4046253Y-13255531D02*
X4055777Y-13274579D01*
X4055777Y-13274579D02*
X4065301Y-13312674D01*
X4065301Y-13312674D02*
X4065301Y-13360293D01*
X4065301Y-13360293D02*
X4055777Y-13398388D01*
X4055777Y-13398388D02*
X4046253Y-13417436D01*
X4046253Y-13417436D02*
X4036729Y-13426960D01*
X4036729Y-13426960D02*
X4017682Y-13436484D01*
X4017682Y-13436484D02*
X3998634Y-13436484D01*
X3998634Y-13436484D02*
X3979586Y-13426960D01*
X3979586Y-13426960D02*
X3970063Y-13417436D01*
X3970063Y-13417436D02*
X3960539Y-13398388D01*
X3960539Y-13398388D02*
X3951015Y-13360293D01*
X3951015Y-13360293D02*
X3951015Y-13312674D01*
X3951015Y-13312674D02*
X3960539Y-13274579D01*
X3960539Y-13274579D02*
X3970063Y-13255531D01*
X3970063Y-13255531D02*
X3979586Y-13246008D01*
X3979586Y-13246008D02*
X3998634Y-13236484D01*
X4151015Y-13417436D02*
X4160539Y-13426960D01*
X4160539Y-13426960D02*
X4151015Y-13436484D01*
X4151015Y-13436484D02*
X4141491Y-13426960D01*
X4141491Y-13426960D02*
X4151015Y-13417436D01*
X4151015Y-13417436D02*
X4151015Y-13436484D01*
X4284348Y-13236484D02*
X4303396Y-13236484D01*
X4303396Y-13236484D02*
X4322444Y-13246008D01*
X4322444Y-13246008D02*
X4331968Y-13255531D01*
X4331968Y-13255531D02*
X4341491Y-13274579D01*
X4341491Y-13274579D02*
X4351015Y-13312674D01*
X4351015Y-13312674D02*
X4351015Y-13360293D01*
X4351015Y-13360293D02*
X4341491Y-13398388D01*
X4341491Y-13398388D02*
X4331968Y-13417436D01*
X4331968Y-13417436D02*
X4322444Y-13426960D01*
X4322444Y-13426960D02*
X4303396Y-13436484D01*
X4303396Y-13436484D02*
X4284348Y-13436484D01*
X4284348Y-13436484D02*
X4265301Y-13426960D01*
X4265301Y-13426960D02*
X4255777Y-13417436D01*
X4255777Y-13417436D02*
X4246253Y-13398388D01*
X4246253Y-13398388D02*
X4236729Y-13360293D01*
X4236729Y-13360293D02*
X4236729Y-13312674D01*
X4236729Y-13312674D02*
X4246253Y-13274579D01*
X4246253Y-13274579D02*
X4255777Y-13255531D01*
X4255777Y-13255531D02*
X4265301Y-13246008D01*
X4265301Y-13246008D02*
X4284348Y-13236484D01*
X4541491Y-13436484D02*
X4427206Y-13436484D01*
X4484348Y-13436484D02*
X4484348Y-13236484D01*
X4484348Y-13236484D02*
X4465301Y-13265055D01*
X4465301Y-13265055D02*
X4446253Y-13284103D01*
X4446253Y-13284103D02*
X4427206Y-13293627D01*
X4731968Y-13436484D02*
X4617682Y-13436484D01*
X4674825Y-13436484D02*
X4674825Y-13236484D01*
X4674825Y-13236484D02*
X4655777Y-13265055D01*
X4655777Y-13265055D02*
X4636729Y-13284103D01*
X4636729Y-13284103D02*
X4617682Y-13293627D01*
X4846253Y-13322198D02*
X4827206Y-13312674D01*
X4827206Y-13312674D02*
X4817682Y-13303150D01*
X4817682Y-13303150D02*
X4808158Y-13284103D01*
X4808158Y-13284103D02*
X4808158Y-13274579D01*
X4808158Y-13274579D02*
X4817682Y-13255531D01*
X4817682Y-13255531D02*
X4827206Y-13246008D01*
X4827206Y-13246008D02*
X4846253Y-13236484D01*
X4846253Y-13236484D02*
X4884349Y-13236484D01*
X4884349Y-13236484D02*
X4903396Y-13246008D01*
X4903396Y-13246008D02*
X4912920Y-13255531D01*
X4912920Y-13255531D02*
X4922444Y-13274579D01*
X4922444Y-13274579D02*
X4922444Y-13284103D01*
X4922444Y-13284103D02*
X4912920Y-13303150D01*
X4912920Y-13303150D02*
X4903396Y-13312674D01*
X4903396Y-13312674D02*
X4884349Y-13322198D01*
X4884349Y-13322198D02*
X4846253Y-13322198D01*
X4846253Y-13322198D02*
X4827206Y-13331722D01*
X4827206Y-13331722D02*
X4817682Y-13341246D01*
X4817682Y-13341246D02*
X4808158Y-13360293D01*
X4808158Y-13360293D02*
X4808158Y-13398388D01*
X4808158Y-13398388D02*
X4817682Y-13417436D01*
X4817682Y-13417436D02*
X4827206Y-13426960D01*
X4827206Y-13426960D02*
X4846253Y-13436484D01*
X4846253Y-13436484D02*
X4884349Y-13436484D01*
X4884349Y-13436484D02*
X4903396Y-13426960D01*
X4903396Y-13426960D02*
X4912920Y-13417436D01*
X4912920Y-13417436D02*
X4922444Y-13398388D01*
X4922444Y-13398388D02*
X4922444Y-13360293D01*
X4922444Y-13360293D02*
X4912920Y-13341246D01*
X4912920Y-13341246D02*
X4903396Y-13331722D01*
X4903396Y-13331722D02*
X4884349Y-13322198D01*
X4998634Y-13236484D02*
X4998634Y-13274579D01*
X5074825Y-13236484D02*
X5074825Y-13274579D01*
X5370063Y-13512674D02*
X5360539Y-13503150D01*
X5360539Y-13503150D02*
X5341491Y-13474579D01*
X5341491Y-13474579D02*
X5331968Y-13455531D01*
X5331968Y-13455531D02*
X5322444Y-13426960D01*
X5322444Y-13426960D02*
X5312920Y-13379341D01*
X5312920Y-13379341D02*
X5312920Y-13341246D01*
X5312920Y-13341246D02*
X5322444Y-13293627D01*
X5322444Y-13293627D02*
X5331968Y-13265055D01*
X5331968Y-13265055D02*
X5341491Y-13246008D01*
X5341491Y-13246008D02*
X5360539Y-13217436D01*
X5360539Y-13217436D02*
X5370063Y-13207912D01*
X5551015Y-13436484D02*
X5436730Y-13436484D01*
X5493872Y-13436484D02*
X5493872Y-13236484D01*
X5493872Y-13236484D02*
X5474825Y-13265055D01*
X5474825Y-13265055D02*
X5455777Y-13284103D01*
X5455777Y-13284103D02*
X5436730Y-13293627D01*
X5674825Y-13236484D02*
X5693872Y-13236484D01*
X5693872Y-13236484D02*
X5712920Y-13246008D01*
X5712920Y-13246008D02*
X5722444Y-13255531D01*
X5722444Y-13255531D02*
X5731968Y-13274579D01*
X5731968Y-13274579D02*
X5741491Y-13312674D01*
X5741491Y-13312674D02*
X5741491Y-13360293D01*
X5741491Y-13360293D02*
X5731968Y-13398388D01*
X5731968Y-13398388D02*
X5722444Y-13417436D01*
X5722444Y-13417436D02*
X5712920Y-13426960D01*
X5712920Y-13426960D02*
X5693872Y-13436484D01*
X5693872Y-13436484D02*
X5674825Y-13436484D01*
X5674825Y-13436484D02*
X5655777Y-13426960D01*
X5655777Y-13426960D02*
X5646253Y-13417436D01*
X5646253Y-13417436D02*
X5636729Y-13398388D01*
X5636729Y-13398388D02*
X5627206Y-13360293D01*
X5627206Y-13360293D02*
X5627206Y-13312674D01*
X5627206Y-13312674D02*
X5636729Y-13274579D01*
X5636729Y-13274579D02*
X5646253Y-13255531D01*
X5646253Y-13255531D02*
X5655777Y-13246008D01*
X5655777Y-13246008D02*
X5674825Y-13236484D01*
X5855777Y-13322198D02*
X5836729Y-13312674D01*
X5836729Y-13312674D02*
X5827206Y-13303150D01*
X5827206Y-13303150D02*
X5817682Y-13284103D01*
X5817682Y-13284103D02*
X5817682Y-13274579D01*
X5817682Y-13274579D02*
X5827206Y-13255531D01*
X5827206Y-13255531D02*
X5836729Y-13246008D01*
X5836729Y-13246008D02*
X5855777Y-13236484D01*
X5855777Y-13236484D02*
X5893872Y-13236484D01*
X5893872Y-13236484D02*
X5912920Y-13246008D01*
X5912920Y-13246008D02*
X5922444Y-13255531D01*
X5922444Y-13255531D02*
X5931968Y-13274579D01*
X5931968Y-13274579D02*
X5931968Y-13284103D01*
X5931968Y-13284103D02*
X5922444Y-13303150D01*
X5922444Y-13303150D02*
X5912920Y-13312674D01*
X5912920Y-13312674D02*
X5893872Y-13322198D01*
X5893872Y-13322198D02*
X5855777Y-13322198D01*
X5855777Y-13322198D02*
X5836729Y-13331722D01*
X5836729Y-13331722D02*
X5827206Y-13341246D01*
X5827206Y-13341246D02*
X5817682Y-13360293D01*
X5817682Y-13360293D02*
X5817682Y-13398388D01*
X5817682Y-13398388D02*
X5827206Y-13417436D01*
X5827206Y-13417436D02*
X5836729Y-13426960D01*
X5836729Y-13426960D02*
X5855777Y-13436484D01*
X5855777Y-13436484D02*
X5893872Y-13436484D01*
X5893872Y-13436484D02*
X5912920Y-13426960D01*
X5912920Y-13426960D02*
X5922444Y-13417436D01*
X5922444Y-13417436D02*
X5931968Y-13398388D01*
X5931968Y-13398388D02*
X5931968Y-13360293D01*
X5931968Y-13360293D02*
X5922444Y-13341246D01*
X5922444Y-13341246D02*
X5912920Y-13331722D01*
X5912920Y-13331722D02*
X5893872Y-13322198D01*
X6170063Y-13436484D02*
X6170063Y-13236484D01*
X6255777Y-13436484D02*
X6255777Y-13331722D01*
X6255777Y-13331722D02*
X6246253Y-13312674D01*
X6246253Y-13312674D02*
X6227206Y-13303150D01*
X6227206Y-13303150D02*
X6198634Y-13303150D01*
X6198634Y-13303150D02*
X6179587Y-13312674D01*
X6179587Y-13312674D02*
X6170063Y-13322198D01*
X6379587Y-13436484D02*
X6360539Y-13426960D01*
X6360539Y-13426960D02*
X6351015Y-13417436D01*
X6351015Y-13417436D02*
X6341491Y-13398388D01*
X6341491Y-13398388D02*
X6341491Y-13341246D01*
X6341491Y-13341246D02*
X6351015Y-13322198D01*
X6351015Y-13322198D02*
X6360539Y-13312674D01*
X6360539Y-13312674D02*
X6379587Y-13303150D01*
X6379587Y-13303150D02*
X6408158Y-13303150D01*
X6408158Y-13303150D02*
X6427206Y-13312674D01*
X6427206Y-13312674D02*
X6436730Y-13322198D01*
X6436730Y-13322198D02*
X6446253Y-13341246D01*
X6446253Y-13341246D02*
X6446253Y-13398388D01*
X6446253Y-13398388D02*
X6436730Y-13417436D01*
X6436730Y-13417436D02*
X6427206Y-13426960D01*
X6427206Y-13426960D02*
X6408158Y-13436484D01*
X6408158Y-13436484D02*
X6379587Y-13436484D01*
X6560539Y-13436484D02*
X6541491Y-13426960D01*
X6541491Y-13426960D02*
X6531968Y-13407912D01*
X6531968Y-13407912D02*
X6531968Y-13236484D01*
X6712920Y-13426960D02*
X6693872Y-13436484D01*
X6693872Y-13436484D02*
X6655777Y-13436484D01*
X6655777Y-13436484D02*
X6636730Y-13426960D01*
X6636730Y-13426960D02*
X6627206Y-13407912D01*
X6627206Y-13407912D02*
X6627206Y-13331722D01*
X6627206Y-13331722D02*
X6636730Y-13312674D01*
X6636730Y-13312674D02*
X6655777Y-13303150D01*
X6655777Y-13303150D02*
X6693872Y-13303150D01*
X6693872Y-13303150D02*
X6712920Y-13312674D01*
X6712920Y-13312674D02*
X6722444Y-13331722D01*
X6722444Y-13331722D02*
X6722444Y-13350769D01*
X6722444Y-13350769D02*
X6627206Y-13369817D01*
X6798634Y-13426960D02*
X6817682Y-13436484D01*
X6817682Y-13436484D02*
X6855777Y-13436484D01*
X6855777Y-13436484D02*
X6874825Y-13426960D01*
X6874825Y-13426960D02*
X6884349Y-13407912D01*
X6884349Y-13407912D02*
X6884349Y-13398388D01*
X6884349Y-13398388D02*
X6874825Y-13379341D01*
X6874825Y-13379341D02*
X6855777Y-13369817D01*
X6855777Y-13369817D02*
X6827206Y-13369817D01*
X6827206Y-13369817D02*
X6808158Y-13360293D01*
X6808158Y-13360293D02*
X6798634Y-13341246D01*
X6798634Y-13341246D02*
X6798634Y-13331722D01*
X6798634Y-13331722D02*
X6808158Y-13312674D01*
X6808158Y-13312674D02*
X6827206Y-13303150D01*
X6827206Y-13303150D02*
X6855777Y-13303150D01*
X6855777Y-13303150D02*
X6874825Y-13312674D01*
X6951015Y-13512674D02*
X6960539Y-13503150D01*
X6960539Y-13503150D02*
X6979587Y-13474579D01*
X6979587Y-13474579D02*
X6989111Y-13455531D01*
X6989111Y-13455531D02*
X6998634Y-13426960D01*
X6998634Y-13426960D02*
X7008158Y-13379341D01*
X7008158Y-13379341D02*
X7008158Y-13341246D01*
X7008158Y-13341246D02*
X6998634Y-13293627D01*
X6998634Y-13293627D02*
X6989111Y-13265055D01*
X6989111Y-13265055D02*
X6979587Y-13246008D01*
X6979587Y-13246008D02*
X6960539Y-13217436D01*
X6960539Y-13217436D02*
X6951015Y-13207912D01*
X7312920Y-13512674D02*
X7303396Y-13503150D01*
X7303396Y-13503150D02*
X7284349Y-13474579D01*
X7284349Y-13474579D02*
X7274825Y-13455531D01*
X7274825Y-13455531D02*
X7265301Y-13426960D01*
X7265301Y-13426960D02*
X7255777Y-13379341D01*
X7255777Y-13379341D02*
X7255777Y-13341246D01*
X7255777Y-13341246D02*
X7265301Y-13293627D01*
X7265301Y-13293627D02*
X7274825Y-13265055D01*
X7274825Y-13265055D02*
X7284349Y-13246008D01*
X7284349Y-13246008D02*
X7303396Y-13217436D01*
X7303396Y-13217436D02*
X7312920Y-13207912D01*
X7389111Y-13303150D02*
X7389111Y-13436484D01*
X7389111Y-13322198D02*
X7398634Y-13312674D01*
X7398634Y-13312674D02*
X7417682Y-13303150D01*
X7417682Y-13303150D02*
X7446253Y-13303150D01*
X7446253Y-13303150D02*
X7465301Y-13312674D01*
X7465301Y-13312674D02*
X7474825Y-13331722D01*
X7474825Y-13331722D02*
X7474825Y-13436484D01*
X7598634Y-13436484D02*
X7579587Y-13426960D01*
X7579587Y-13426960D02*
X7570063Y-13417436D01*
X7570063Y-13417436D02*
X7560539Y-13398388D01*
X7560539Y-13398388D02*
X7560539Y-13341246D01*
X7560539Y-13341246D02*
X7570063Y-13322198D01*
X7570063Y-13322198D02*
X7579587Y-13312674D01*
X7579587Y-13312674D02*
X7598634Y-13303150D01*
X7598634Y-13303150D02*
X7627206Y-13303150D01*
X7627206Y-13303150D02*
X7646253Y-13312674D01*
X7646253Y-13312674D02*
X7655777Y-13322198D01*
X7655777Y-13322198D02*
X7665301Y-13341246D01*
X7665301Y-13341246D02*
X7665301Y-13398388D01*
X7665301Y-13398388D02*
X7655777Y-13417436D01*
X7655777Y-13417436D02*
X7646253Y-13426960D01*
X7646253Y-13426960D02*
X7627206Y-13436484D01*
X7627206Y-13436484D02*
X7598634Y-13436484D01*
X7722444Y-13303150D02*
X7798634Y-13303150D01*
X7751015Y-13236484D02*
X7751015Y-13407912D01*
X7751015Y-13407912D02*
X7760539Y-13426960D01*
X7760539Y-13426960D02*
X7779587Y-13436484D01*
X7779587Y-13436484D02*
X7798634Y-13436484D01*
X8017682Y-13303150D02*
X8017682Y-13503150D01*
X8017682Y-13312674D02*
X8036730Y-13303150D01*
X8036730Y-13303150D02*
X8074825Y-13303150D01*
X8074825Y-13303150D02*
X8093873Y-13312674D01*
X8093873Y-13312674D02*
X8103396Y-13322198D01*
X8103396Y-13322198D02*
X8112920Y-13341246D01*
X8112920Y-13341246D02*
X8112920Y-13398388D01*
X8112920Y-13398388D02*
X8103396Y-13417436D01*
X8103396Y-13417436D02*
X8093873Y-13426960D01*
X8093873Y-13426960D02*
X8074825Y-13436484D01*
X8074825Y-13436484D02*
X8036730Y-13436484D01*
X8036730Y-13436484D02*
X8017682Y-13426960D01*
X8227206Y-13436484D02*
X8208158Y-13426960D01*
X8208158Y-13426960D02*
X8198634Y-13407912D01*
X8198634Y-13407912D02*
X8198634Y-13236484D01*
X8389111Y-13436484D02*
X8389111Y-13331722D01*
X8389111Y-13331722D02*
X8379587Y-13312674D01*
X8379587Y-13312674D02*
X8360539Y-13303150D01*
X8360539Y-13303150D02*
X8322444Y-13303150D01*
X8322444Y-13303150D02*
X8303396Y-13312674D01*
X8389111Y-13426960D02*
X8370063Y-13436484D01*
X8370063Y-13436484D02*
X8322444Y-13436484D01*
X8322444Y-13436484D02*
X8303396Y-13426960D01*
X8303396Y-13426960D02*
X8293873Y-13407912D01*
X8293873Y-13407912D02*
X8293873Y-13388865D01*
X8293873Y-13388865D02*
X8303396Y-13369817D01*
X8303396Y-13369817D02*
X8322444Y-13360293D01*
X8322444Y-13360293D02*
X8370063Y-13360293D01*
X8370063Y-13360293D02*
X8389111Y-13350769D01*
X8455777Y-13303150D02*
X8531968Y-13303150D01*
X8484349Y-13236484D02*
X8484349Y-13407912D01*
X8484349Y-13407912D02*
X8493873Y-13426960D01*
X8493873Y-13426960D02*
X8512920Y-13436484D01*
X8512920Y-13436484D02*
X8531968Y-13436484D01*
X8674825Y-13426960D02*
X8655777Y-13436484D01*
X8655777Y-13436484D02*
X8617682Y-13436484D01*
X8617682Y-13436484D02*
X8598635Y-13426960D01*
X8598635Y-13426960D02*
X8589111Y-13407912D01*
X8589111Y-13407912D02*
X8589111Y-13331722D01*
X8589111Y-13331722D02*
X8598635Y-13312674D01*
X8598635Y-13312674D02*
X8617682Y-13303150D01*
X8617682Y-13303150D02*
X8655777Y-13303150D01*
X8655777Y-13303150D02*
X8674825Y-13312674D01*
X8674825Y-13312674D02*
X8684349Y-13331722D01*
X8684349Y-13331722D02*
X8684349Y-13350769D01*
X8684349Y-13350769D02*
X8589111Y-13369817D01*
X8855777Y-13436484D02*
X8855777Y-13236484D01*
X8855777Y-13426960D02*
X8836730Y-13436484D01*
X8836730Y-13436484D02*
X8798635Y-13436484D01*
X8798635Y-13436484D02*
X8779587Y-13426960D01*
X8779587Y-13426960D02*
X8770063Y-13417436D01*
X8770063Y-13417436D02*
X8760539Y-13398388D01*
X8760539Y-13398388D02*
X8760539Y-13341246D01*
X8760539Y-13341246D02*
X8770063Y-13322198D01*
X8770063Y-13322198D02*
X8779587Y-13312674D01*
X8779587Y-13312674D02*
X8798635Y-13303150D01*
X8798635Y-13303150D02*
X8836730Y-13303150D01*
X8836730Y-13303150D02*
X8855777Y-13312674D01*
X8931968Y-13512674D02*
X8941492Y-13503150D01*
X8941492Y-13503150D02*
X8960539Y-13474579D01*
X8960539Y-13474579D02*
X8970063Y-13455531D01*
X8970063Y-13455531D02*
X8979587Y-13426960D01*
X8979587Y-13426960D02*
X8989111Y-13379341D01*
X8989111Y-13379341D02*
X8989111Y-13341246D01*
X8989111Y-13341246D02*
X8979587Y-13293627D01*
X8979587Y-13293627D02*
X8970063Y-13265055D01*
X8970063Y-13265055D02*
X8960539Y-13246008D01*
X8960539Y-13246008D02*
X8941492Y-13217436D01*
X8941492Y-13217436D02*
X8931968Y-13207912D01*
D12*
X1795000Y-13609000D02*
G75*
G02*
X1679800Y-13609000I-57600J0D01*
G01*
X1679800Y-13609000D02*
G75*
G02*
X1795000Y-13609000I57600J0D01*
G01*
D11*
X2160539Y-13700484D02*
X2046253Y-13700484D01*
X2103396Y-13700484D02*
X2103396Y-13500484D01*
X2103396Y-13500484D02*
X2084348Y-13529055D01*
X2084348Y-13529055D02*
X2065301Y-13548103D01*
X2065301Y-13548103D02*
X2046253Y-13557627D01*
X2246253Y-13681436D02*
X2255777Y-13690960D01*
X2255777Y-13690960D02*
X2246253Y-13700484D01*
X2246253Y-13700484D02*
X2236729Y-13690960D01*
X2236729Y-13690960D02*
X2246253Y-13681436D01*
X2246253Y-13681436D02*
X2246253Y-13700484D01*
X2446253Y-13700484D02*
X2331967Y-13700484D01*
X2389110Y-13700484D02*
X2389110Y-13500484D01*
X2389110Y-13500484D02*
X2370063Y-13529055D01*
X2370063Y-13529055D02*
X2351015Y-13548103D01*
X2351015Y-13548103D02*
X2331967Y-13557627D01*
X2627205Y-13500484D02*
X2531967Y-13500484D01*
X2531967Y-13500484D02*
X2522444Y-13595722D01*
X2522444Y-13595722D02*
X2531967Y-13586198D01*
X2531967Y-13586198D02*
X2551015Y-13576674D01*
X2551015Y-13576674D02*
X2598634Y-13576674D01*
X2598634Y-13576674D02*
X2617682Y-13586198D01*
X2617682Y-13586198D02*
X2627205Y-13595722D01*
X2627205Y-13595722D02*
X2636729Y-13614769D01*
X2636729Y-13614769D02*
X2636729Y-13662388D01*
X2636729Y-13662388D02*
X2627205Y-13681436D01*
X2627205Y-13681436D02*
X2617682Y-13690960D01*
X2617682Y-13690960D02*
X2598634Y-13700484D01*
X2598634Y-13700484D02*
X2551015Y-13700484D01*
X2551015Y-13700484D02*
X2531967Y-13690960D01*
X2531967Y-13690960D02*
X2522444Y-13681436D01*
X2712920Y-13519531D02*
X2722444Y-13510008D01*
X2722444Y-13510008D02*
X2741491Y-13500484D01*
X2741491Y-13500484D02*
X2789110Y-13500484D01*
X2789110Y-13500484D02*
X2808158Y-13510008D01*
X2808158Y-13510008D02*
X2817682Y-13519531D01*
X2817682Y-13519531D02*
X2827205Y-13538579D01*
X2827205Y-13538579D02*
X2827205Y-13557627D01*
X2827205Y-13557627D02*
X2817682Y-13586198D01*
X2817682Y-13586198D02*
X2703396Y-13700484D01*
X2703396Y-13700484D02*
X2827205Y-13700484D01*
X2912920Y-13700484D02*
X2912920Y-13567150D01*
X2912920Y-13586198D02*
X2922443Y-13576674D01*
X2922443Y-13576674D02*
X2941491Y-13567150D01*
X2941491Y-13567150D02*
X2970063Y-13567150D01*
X2970063Y-13567150D02*
X2989110Y-13576674D01*
X2989110Y-13576674D02*
X2998634Y-13595722D01*
X2998634Y-13595722D02*
X2998634Y-13700484D01*
X2998634Y-13595722D02*
X3008158Y-13576674D01*
X3008158Y-13576674D02*
X3027205Y-13567150D01*
X3027205Y-13567150D02*
X3055777Y-13567150D01*
X3055777Y-13567150D02*
X3074824Y-13576674D01*
X3074824Y-13576674D02*
X3084348Y-13595722D01*
X3084348Y-13595722D02*
X3084348Y-13700484D01*
X3179586Y-13700484D02*
X3179586Y-13567150D01*
X3179586Y-13586198D02*
X3189110Y-13576674D01*
X3189110Y-13576674D02*
X3208158Y-13567150D01*
X3208158Y-13567150D02*
X3236729Y-13567150D01*
X3236729Y-13567150D02*
X3255777Y-13576674D01*
X3255777Y-13576674D02*
X3265301Y-13595722D01*
X3265301Y-13595722D02*
X3265301Y-13700484D01*
X3265301Y-13595722D02*
X3274824Y-13576674D01*
X3274824Y-13576674D02*
X3293872Y-13567150D01*
X3293872Y-13567150D02*
X3322443Y-13567150D01*
X3322443Y-13567150D02*
X3341491Y-13576674D01*
X3341491Y-13576674D02*
X3351015Y-13595722D01*
X3351015Y-13595722D02*
X3351015Y-13700484D01*
X3741491Y-13490960D02*
X3570063Y-13748103D01*
X3998634Y-13500484D02*
X4017682Y-13500484D01*
X4017682Y-13500484D02*
X4036729Y-13510008D01*
X4036729Y-13510008D02*
X4046253Y-13519531D01*
X4046253Y-13519531D02*
X4055777Y-13538579D01*
X4055777Y-13538579D02*
X4065301Y-13576674D01*
X4065301Y-13576674D02*
X4065301Y-13624293D01*
X4065301Y-13624293D02*
X4055777Y-13662388D01*
X4055777Y-13662388D02*
X4046253Y-13681436D01*
X4046253Y-13681436D02*
X4036729Y-13690960D01*
X4036729Y-13690960D02*
X4017682Y-13700484D01*
X4017682Y-13700484D02*
X3998634Y-13700484D01*
X3998634Y-13700484D02*
X3979586Y-13690960D01*
X3979586Y-13690960D02*
X3970063Y-13681436D01*
X3970063Y-13681436D02*
X3960539Y-13662388D01*
X3960539Y-13662388D02*
X3951015Y-13624293D01*
X3951015Y-13624293D02*
X3951015Y-13576674D01*
X3951015Y-13576674D02*
X3960539Y-13538579D01*
X3960539Y-13538579D02*
X3970063Y-13519531D01*
X3970063Y-13519531D02*
X3979586Y-13510008D01*
X3979586Y-13510008D02*
X3998634Y-13500484D01*
X4151015Y-13681436D02*
X4160539Y-13690960D01*
X4160539Y-13690960D02*
X4151015Y-13700484D01*
X4151015Y-13700484D02*
X4141491Y-13690960D01*
X4141491Y-13690960D02*
X4151015Y-13681436D01*
X4151015Y-13681436D02*
X4151015Y-13700484D01*
X4284348Y-13500484D02*
X4303396Y-13500484D01*
X4303396Y-13500484D02*
X4322444Y-13510008D01*
X4322444Y-13510008D02*
X4331968Y-13519531D01*
X4331968Y-13519531D02*
X4341491Y-13538579D01*
X4341491Y-13538579D02*
X4351015Y-13576674D01*
X4351015Y-13576674D02*
X4351015Y-13624293D01*
X4351015Y-13624293D02*
X4341491Y-13662388D01*
X4341491Y-13662388D02*
X4331968Y-13681436D01*
X4331968Y-13681436D02*
X4322444Y-13690960D01*
X4322444Y-13690960D02*
X4303396Y-13700484D01*
X4303396Y-13700484D02*
X4284348Y-13700484D01*
X4284348Y-13700484D02*
X4265301Y-13690960D01*
X4265301Y-13690960D02*
X4255777Y-13681436D01*
X4255777Y-13681436D02*
X4246253Y-13662388D01*
X4246253Y-13662388D02*
X4236729Y-13624293D01*
X4236729Y-13624293D02*
X4236729Y-13576674D01*
X4236729Y-13576674D02*
X4246253Y-13538579D01*
X4246253Y-13538579D02*
X4255777Y-13519531D01*
X4255777Y-13519531D02*
X4265301Y-13510008D01*
X4265301Y-13510008D02*
X4284348Y-13500484D01*
X4522444Y-13567150D02*
X4522444Y-13700484D01*
X4474825Y-13490960D02*
X4427206Y-13633817D01*
X4427206Y-13633817D02*
X4551015Y-13633817D01*
X4722444Y-13500484D02*
X4627206Y-13500484D01*
X4627206Y-13500484D02*
X4617682Y-13595722D01*
X4617682Y-13595722D02*
X4627206Y-13586198D01*
X4627206Y-13586198D02*
X4646253Y-13576674D01*
X4646253Y-13576674D02*
X4693872Y-13576674D01*
X4693872Y-13576674D02*
X4712920Y-13586198D01*
X4712920Y-13586198D02*
X4722444Y-13595722D01*
X4722444Y-13595722D02*
X4731968Y-13614769D01*
X4731968Y-13614769D02*
X4731968Y-13662388D01*
X4731968Y-13662388D02*
X4722444Y-13681436D01*
X4722444Y-13681436D02*
X4712920Y-13690960D01*
X4712920Y-13690960D02*
X4693872Y-13700484D01*
X4693872Y-13700484D02*
X4646253Y-13700484D01*
X4646253Y-13700484D02*
X4627206Y-13690960D01*
X4627206Y-13690960D02*
X4617682Y-13681436D01*
X4903396Y-13567150D02*
X4903396Y-13700484D01*
X4855777Y-13490960D02*
X4808158Y-13633817D01*
X4808158Y-13633817D02*
X4931968Y-13633817D01*
X4998634Y-13500484D02*
X4998634Y-13538579D01*
X5074825Y-13500484D02*
X5074825Y-13538579D01*
X5370063Y-13776674D02*
X5360539Y-13767150D01*
X5360539Y-13767150D02*
X5341491Y-13738579D01*
X5341491Y-13738579D02*
X5331968Y-13719531D01*
X5331968Y-13719531D02*
X5322444Y-13690960D01*
X5322444Y-13690960D02*
X5312920Y-13643341D01*
X5312920Y-13643341D02*
X5312920Y-13605246D01*
X5312920Y-13605246D02*
X5322444Y-13557627D01*
X5322444Y-13557627D02*
X5331968Y-13529055D01*
X5331968Y-13529055D02*
X5341491Y-13510008D01*
X5341491Y-13510008D02*
X5360539Y-13481436D01*
X5360539Y-13481436D02*
X5370063Y-13471912D01*
X5531968Y-13567150D02*
X5531968Y-13700484D01*
X5484349Y-13490960D02*
X5436730Y-13633817D01*
X5436730Y-13633817D02*
X5560539Y-13633817D01*
X5789110Y-13700484D02*
X5789110Y-13500484D01*
X5874825Y-13700484D02*
X5874825Y-13595722D01*
X5874825Y-13595722D02*
X5865301Y-13576674D01*
X5865301Y-13576674D02*
X5846253Y-13567150D01*
X5846253Y-13567150D02*
X5817682Y-13567150D01*
X5817682Y-13567150D02*
X5798634Y-13576674D01*
X5798634Y-13576674D02*
X5789110Y-13586198D01*
X5998634Y-13700484D02*
X5979587Y-13690960D01*
X5979587Y-13690960D02*
X5970063Y-13681436D01*
X5970063Y-13681436D02*
X5960539Y-13662388D01*
X5960539Y-13662388D02*
X5960539Y-13605246D01*
X5960539Y-13605246D02*
X5970063Y-13586198D01*
X5970063Y-13586198D02*
X5979587Y-13576674D01*
X5979587Y-13576674D02*
X5998634Y-13567150D01*
X5998634Y-13567150D02*
X6027206Y-13567150D01*
X6027206Y-13567150D02*
X6046253Y-13576674D01*
X6046253Y-13576674D02*
X6055777Y-13586198D01*
X6055777Y-13586198D02*
X6065301Y-13605246D01*
X6065301Y-13605246D02*
X6065301Y-13662388D01*
X6065301Y-13662388D02*
X6055777Y-13681436D01*
X6055777Y-13681436D02*
X6046253Y-13690960D01*
X6046253Y-13690960D02*
X6027206Y-13700484D01*
X6027206Y-13700484D02*
X5998634Y-13700484D01*
X6179587Y-13700484D02*
X6160539Y-13690960D01*
X6160539Y-13690960D02*
X6151015Y-13671912D01*
X6151015Y-13671912D02*
X6151015Y-13500484D01*
X6331968Y-13690960D02*
X6312920Y-13700484D01*
X6312920Y-13700484D02*
X6274825Y-13700484D01*
X6274825Y-13700484D02*
X6255777Y-13690960D01*
X6255777Y-13690960D02*
X6246253Y-13671912D01*
X6246253Y-13671912D02*
X6246253Y-13595722D01*
X6246253Y-13595722D02*
X6255777Y-13576674D01*
X6255777Y-13576674D02*
X6274825Y-13567150D01*
X6274825Y-13567150D02*
X6312920Y-13567150D01*
X6312920Y-13567150D02*
X6331968Y-13576674D01*
X6331968Y-13576674D02*
X6341491Y-13595722D01*
X6341491Y-13595722D02*
X6341491Y-13614769D01*
X6341491Y-13614769D02*
X6246253Y-13633817D01*
X6417682Y-13690960D02*
X6436730Y-13700484D01*
X6436730Y-13700484D02*
X6474825Y-13700484D01*
X6474825Y-13700484D02*
X6493872Y-13690960D01*
X6493872Y-13690960D02*
X6503396Y-13671912D01*
X6503396Y-13671912D02*
X6503396Y-13662388D01*
X6503396Y-13662388D02*
X6493872Y-13643341D01*
X6493872Y-13643341D02*
X6474825Y-13633817D01*
X6474825Y-13633817D02*
X6446253Y-13633817D01*
X6446253Y-13633817D02*
X6427206Y-13624293D01*
X6427206Y-13624293D02*
X6417682Y-13605246D01*
X6417682Y-13605246D02*
X6417682Y-13595722D01*
X6417682Y-13595722D02*
X6427206Y-13576674D01*
X6427206Y-13576674D02*
X6446253Y-13567150D01*
X6446253Y-13567150D02*
X6474825Y-13567150D01*
X6474825Y-13567150D02*
X6493872Y-13576674D01*
X6570063Y-13776674D02*
X6579587Y-13767150D01*
X6579587Y-13767150D02*
X6598634Y-13738579D01*
X6598634Y-13738579D02*
X6608158Y-13719531D01*
X6608158Y-13719531D02*
X6617682Y-13690960D01*
X6617682Y-13690960D02*
X6627206Y-13643341D01*
X6627206Y-13643341D02*
X6627206Y-13605246D01*
X6627206Y-13605246D02*
X6617682Y-13557627D01*
X6617682Y-13557627D02*
X6608158Y-13529055D01*
X6608158Y-13529055D02*
X6598634Y-13510008D01*
X6598634Y-13510008D02*
X6579587Y-13481436D01*
X6579587Y-13481436D02*
X6570063Y-13471912D01*
X6931968Y-13776674D02*
X6922444Y-13767150D01*
X6922444Y-13767150D02*
X6903396Y-13738579D01*
X6903396Y-13738579D02*
X6893872Y-13719531D01*
X6893872Y-13719531D02*
X6884349Y-13690960D01*
X6884349Y-13690960D02*
X6874825Y-13643341D01*
X6874825Y-13643341D02*
X6874825Y-13605246D01*
X6874825Y-13605246D02*
X6884349Y-13557627D01*
X6884349Y-13557627D02*
X6893872Y-13529055D01*
X6893872Y-13529055D02*
X6903396Y-13510008D01*
X6903396Y-13510008D02*
X6922444Y-13481436D01*
X6922444Y-13481436D02*
X6931968Y-13471912D01*
X7008158Y-13567150D02*
X7008158Y-13700484D01*
X7008158Y-13586198D02*
X7017682Y-13576674D01*
X7017682Y-13576674D02*
X7036730Y-13567150D01*
X7036730Y-13567150D02*
X7065301Y-13567150D01*
X7065301Y-13567150D02*
X7084349Y-13576674D01*
X7084349Y-13576674D02*
X7093872Y-13595722D01*
X7093872Y-13595722D02*
X7093872Y-13700484D01*
X7217682Y-13700484D02*
X7198634Y-13690960D01*
X7198634Y-13690960D02*
X7189111Y-13681436D01*
X7189111Y-13681436D02*
X7179587Y-13662388D01*
X7179587Y-13662388D02*
X7179587Y-13605246D01*
X7179587Y-13605246D02*
X7189111Y-13586198D01*
X7189111Y-13586198D02*
X7198634Y-13576674D01*
X7198634Y-13576674D02*
X7217682Y-13567150D01*
X7217682Y-13567150D02*
X7246253Y-13567150D01*
X7246253Y-13567150D02*
X7265301Y-13576674D01*
X7265301Y-13576674D02*
X7274825Y-13586198D01*
X7274825Y-13586198D02*
X7284349Y-13605246D01*
X7284349Y-13605246D02*
X7284349Y-13662388D01*
X7284349Y-13662388D02*
X7274825Y-13681436D01*
X7274825Y-13681436D02*
X7265301Y-13690960D01*
X7265301Y-13690960D02*
X7246253Y-13700484D01*
X7246253Y-13700484D02*
X7217682Y-13700484D01*
X7341492Y-13567150D02*
X7417682Y-13567150D01*
X7370063Y-13500484D02*
X7370063Y-13671912D01*
X7370063Y-13671912D02*
X7379587Y-13690960D01*
X7379587Y-13690960D02*
X7398634Y-13700484D01*
X7398634Y-13700484D02*
X7417682Y-13700484D01*
X7636730Y-13567150D02*
X7636730Y-13767150D01*
X7636730Y-13576674D02*
X7655777Y-13567150D01*
X7655777Y-13567150D02*
X7693873Y-13567150D01*
X7693873Y-13567150D02*
X7712920Y-13576674D01*
X7712920Y-13576674D02*
X7722444Y-13586198D01*
X7722444Y-13586198D02*
X7731968Y-13605246D01*
X7731968Y-13605246D02*
X7731968Y-13662388D01*
X7731968Y-13662388D02*
X7722444Y-13681436D01*
X7722444Y-13681436D02*
X7712920Y-13690960D01*
X7712920Y-13690960D02*
X7693873Y-13700484D01*
X7693873Y-13700484D02*
X7655777Y-13700484D01*
X7655777Y-13700484D02*
X7636730Y-13690960D01*
X7846253Y-13700484D02*
X7827206Y-13690960D01*
X7827206Y-13690960D02*
X7817682Y-13671912D01*
X7817682Y-13671912D02*
X7817682Y-13500484D01*
X8008158Y-13700484D02*
X8008158Y-13595722D01*
X8008158Y-13595722D02*
X7998634Y-13576674D01*
X7998634Y-13576674D02*
X7979587Y-13567150D01*
X7979587Y-13567150D02*
X7941492Y-13567150D01*
X7941492Y-13567150D02*
X7922444Y-13576674D01*
X8008158Y-13690960D02*
X7989111Y-13700484D01*
X7989111Y-13700484D02*
X7941492Y-13700484D01*
X7941492Y-13700484D02*
X7922444Y-13690960D01*
X7922444Y-13690960D02*
X7912920Y-13671912D01*
X7912920Y-13671912D02*
X7912920Y-13652865D01*
X7912920Y-13652865D02*
X7922444Y-13633817D01*
X7922444Y-13633817D02*
X7941492Y-13624293D01*
X7941492Y-13624293D02*
X7989111Y-13624293D01*
X7989111Y-13624293D02*
X8008158Y-13614769D01*
X8074825Y-13567150D02*
X8151015Y-13567150D01*
X8103396Y-13500484D02*
X8103396Y-13671912D01*
X8103396Y-13671912D02*
X8112920Y-13690960D01*
X8112920Y-13690960D02*
X8131968Y-13700484D01*
X8131968Y-13700484D02*
X8151015Y-13700484D01*
X8293873Y-13690960D02*
X8274825Y-13700484D01*
X8274825Y-13700484D02*
X8236730Y-13700484D01*
X8236730Y-13700484D02*
X8217682Y-13690960D01*
X8217682Y-13690960D02*
X8208158Y-13671912D01*
X8208158Y-13671912D02*
X8208158Y-13595722D01*
X8208158Y-13595722D02*
X8217682Y-13576674D01*
X8217682Y-13576674D02*
X8236730Y-13567150D01*
X8236730Y-13567150D02*
X8274825Y-13567150D01*
X8274825Y-13567150D02*
X8293873Y-13576674D01*
X8293873Y-13576674D02*
X8303396Y-13595722D01*
X8303396Y-13595722D02*
X8303396Y-13614769D01*
X8303396Y-13614769D02*
X8208158Y-13633817D01*
X8474825Y-13700484D02*
X8474825Y-13500484D01*
X8474825Y-13690960D02*
X8455777Y-13700484D01*
X8455777Y-13700484D02*
X8417682Y-13700484D01*
X8417682Y-13700484D02*
X8398635Y-13690960D01*
X8398635Y-13690960D02*
X8389111Y-13681436D01*
X8389111Y-13681436D02*
X8379587Y-13662388D01*
X8379587Y-13662388D02*
X8379587Y-13605246D01*
X8379587Y-13605246D02*
X8389111Y-13586198D01*
X8389111Y-13586198D02*
X8398635Y-13576674D01*
X8398635Y-13576674D02*
X8417682Y-13567150D01*
X8417682Y-13567150D02*
X8455777Y-13567150D01*
X8455777Y-13567150D02*
X8474825Y-13576674D01*
X8551016Y-13776674D02*
X8560539Y-13767150D01*
X8560539Y-13767150D02*
X8579587Y-13738579D01*
X8579587Y-13738579D02*
X8589111Y-13719531D01*
X8589111Y-13719531D02*
X8598635Y-13690960D01*
X8598635Y-13690960D02*
X8608158Y-13643341D01*
X8608158Y-13643341D02*
X8608158Y-13605246D01*
X8608158Y-13605246D02*
X8598635Y-13557627D01*
X8598635Y-13557627D02*
X8589111Y-13529055D01*
X8589111Y-13529055D02*
X8579587Y-13510008D01*
X8579587Y-13510008D02*
X8560539Y-13481436D01*
X8560539Y-13481436D02*
X8551016Y-13471912D01*
X1695000Y-13773000D02*
X1695000Y-13973000D01*
X1595000Y-13873000D02*
X1795000Y-13873000D01*
X2046253Y-13783531D02*
X2055777Y-13774008D01*
X2055777Y-13774008D02*
X2074824Y-13764484D01*
X2074824Y-13764484D02*
X2122444Y-13764484D01*
X2122444Y-13764484D02*
X2141491Y-13774008D01*
X2141491Y-13774008D02*
X2151015Y-13783531D01*
X2151015Y-13783531D02*
X2160539Y-13802579D01*
X2160539Y-13802579D02*
X2160539Y-13821627D01*
X2160539Y-13821627D02*
X2151015Y-13850198D01*
X2151015Y-13850198D02*
X2036729Y-13964484D01*
X2036729Y-13964484D02*
X2160539Y-13964484D01*
X2246253Y-13945436D02*
X2255777Y-13954960D01*
X2255777Y-13954960D02*
X2246253Y-13964484D01*
X2246253Y-13964484D02*
X2236729Y-13954960D01*
X2236729Y-13954960D02*
X2246253Y-13945436D01*
X2246253Y-13945436D02*
X2246253Y-13964484D01*
X2379586Y-13764484D02*
X2398634Y-13764484D01*
X2398634Y-13764484D02*
X2417682Y-13774008D01*
X2417682Y-13774008D02*
X2427205Y-13783531D01*
X2427205Y-13783531D02*
X2436729Y-13802579D01*
X2436729Y-13802579D02*
X2446253Y-13840674D01*
X2446253Y-13840674D02*
X2446253Y-13888293D01*
X2446253Y-13888293D02*
X2436729Y-13926388D01*
X2436729Y-13926388D02*
X2427205Y-13945436D01*
X2427205Y-13945436D02*
X2417682Y-13954960D01*
X2417682Y-13954960D02*
X2398634Y-13964484D01*
X2398634Y-13964484D02*
X2379586Y-13964484D01*
X2379586Y-13964484D02*
X2360539Y-13954960D01*
X2360539Y-13954960D02*
X2351015Y-13945436D01*
X2351015Y-13945436D02*
X2341491Y-13926388D01*
X2341491Y-13926388D02*
X2331967Y-13888293D01*
X2331967Y-13888293D02*
X2331967Y-13840674D01*
X2331967Y-13840674D02*
X2341491Y-13802579D01*
X2341491Y-13802579D02*
X2351015Y-13783531D01*
X2351015Y-13783531D02*
X2360539Y-13774008D01*
X2360539Y-13774008D02*
X2379586Y-13764484D01*
X2570063Y-13764484D02*
X2589110Y-13764484D01*
X2589110Y-13764484D02*
X2608158Y-13774008D01*
X2608158Y-13774008D02*
X2617682Y-13783531D01*
X2617682Y-13783531D02*
X2627205Y-13802579D01*
X2627205Y-13802579D02*
X2636729Y-13840674D01*
X2636729Y-13840674D02*
X2636729Y-13888293D01*
X2636729Y-13888293D02*
X2627205Y-13926388D01*
X2627205Y-13926388D02*
X2617682Y-13945436D01*
X2617682Y-13945436D02*
X2608158Y-13954960D01*
X2608158Y-13954960D02*
X2589110Y-13964484D01*
X2589110Y-13964484D02*
X2570063Y-13964484D01*
X2570063Y-13964484D02*
X2551015Y-13954960D01*
X2551015Y-13954960D02*
X2541491Y-13945436D01*
X2541491Y-13945436D02*
X2531967Y-13926388D01*
X2531967Y-13926388D02*
X2522444Y-13888293D01*
X2522444Y-13888293D02*
X2522444Y-13840674D01*
X2522444Y-13840674D02*
X2531967Y-13802579D01*
X2531967Y-13802579D02*
X2541491Y-13783531D01*
X2541491Y-13783531D02*
X2551015Y-13774008D01*
X2551015Y-13774008D02*
X2570063Y-13764484D01*
X2760539Y-13764484D02*
X2779586Y-13764484D01*
X2779586Y-13764484D02*
X2798634Y-13774008D01*
X2798634Y-13774008D02*
X2808158Y-13783531D01*
X2808158Y-13783531D02*
X2817682Y-13802579D01*
X2817682Y-13802579D02*
X2827205Y-13840674D01*
X2827205Y-13840674D02*
X2827205Y-13888293D01*
X2827205Y-13888293D02*
X2817682Y-13926388D01*
X2817682Y-13926388D02*
X2808158Y-13945436D01*
X2808158Y-13945436D02*
X2798634Y-13954960D01*
X2798634Y-13954960D02*
X2779586Y-13964484D01*
X2779586Y-13964484D02*
X2760539Y-13964484D01*
X2760539Y-13964484D02*
X2741491Y-13954960D01*
X2741491Y-13954960D02*
X2731967Y-13945436D01*
X2731967Y-13945436D02*
X2722444Y-13926388D01*
X2722444Y-13926388D02*
X2712920Y-13888293D01*
X2712920Y-13888293D02*
X2712920Y-13840674D01*
X2712920Y-13840674D02*
X2722444Y-13802579D01*
X2722444Y-13802579D02*
X2731967Y-13783531D01*
X2731967Y-13783531D02*
X2741491Y-13774008D01*
X2741491Y-13774008D02*
X2760539Y-13764484D01*
X2912920Y-13964484D02*
X2912920Y-13831150D01*
X2912920Y-13850198D02*
X2922443Y-13840674D01*
X2922443Y-13840674D02*
X2941491Y-13831150D01*
X2941491Y-13831150D02*
X2970063Y-13831150D01*
X2970063Y-13831150D02*
X2989110Y-13840674D01*
X2989110Y-13840674D02*
X2998634Y-13859722D01*
X2998634Y-13859722D02*
X2998634Y-13964484D01*
X2998634Y-13859722D02*
X3008158Y-13840674D01*
X3008158Y-13840674D02*
X3027205Y-13831150D01*
X3027205Y-13831150D02*
X3055777Y-13831150D01*
X3055777Y-13831150D02*
X3074824Y-13840674D01*
X3074824Y-13840674D02*
X3084348Y-13859722D01*
X3084348Y-13859722D02*
X3084348Y-13964484D01*
X3179586Y-13964484D02*
X3179586Y-13831150D01*
X3179586Y-13850198D02*
X3189110Y-13840674D01*
X3189110Y-13840674D02*
X3208158Y-13831150D01*
X3208158Y-13831150D02*
X3236729Y-13831150D01*
X3236729Y-13831150D02*
X3255777Y-13840674D01*
X3255777Y-13840674D02*
X3265301Y-13859722D01*
X3265301Y-13859722D02*
X3265301Y-13964484D01*
X3265301Y-13859722D02*
X3274824Y-13840674D01*
X3274824Y-13840674D02*
X3293872Y-13831150D01*
X3293872Y-13831150D02*
X3322443Y-13831150D01*
X3322443Y-13831150D02*
X3341491Y-13840674D01*
X3341491Y-13840674D02*
X3351015Y-13859722D01*
X3351015Y-13859722D02*
X3351015Y-13964484D01*
X3741491Y-13754960D02*
X3570063Y-14012103D01*
X3998634Y-13764484D02*
X4017682Y-13764484D01*
X4017682Y-13764484D02*
X4036729Y-13774008D01*
X4036729Y-13774008D02*
X4046253Y-13783531D01*
X4046253Y-13783531D02*
X4055777Y-13802579D01*
X4055777Y-13802579D02*
X4065301Y-13840674D01*
X4065301Y-13840674D02*
X4065301Y-13888293D01*
X4065301Y-13888293D02*
X4055777Y-13926388D01*
X4055777Y-13926388D02*
X4046253Y-13945436D01*
X4046253Y-13945436D02*
X4036729Y-13954960D01*
X4036729Y-13954960D02*
X4017682Y-13964484D01*
X4017682Y-13964484D02*
X3998634Y-13964484D01*
X3998634Y-13964484D02*
X3979586Y-13954960D01*
X3979586Y-13954960D02*
X3970063Y-13945436D01*
X3970063Y-13945436D02*
X3960539Y-13926388D01*
X3960539Y-13926388D02*
X3951015Y-13888293D01*
X3951015Y-13888293D02*
X3951015Y-13840674D01*
X3951015Y-13840674D02*
X3960539Y-13802579D01*
X3960539Y-13802579D02*
X3970063Y-13783531D01*
X3970063Y-13783531D02*
X3979586Y-13774008D01*
X3979586Y-13774008D02*
X3998634Y-13764484D01*
X4151015Y-13945436D02*
X4160539Y-13954960D01*
X4160539Y-13954960D02*
X4151015Y-13964484D01*
X4151015Y-13964484D02*
X4141491Y-13954960D01*
X4141491Y-13954960D02*
X4151015Y-13945436D01*
X4151015Y-13945436D02*
X4151015Y-13964484D01*
X4284348Y-13764484D02*
X4303396Y-13764484D01*
X4303396Y-13764484D02*
X4322444Y-13774008D01*
X4322444Y-13774008D02*
X4331968Y-13783531D01*
X4331968Y-13783531D02*
X4341491Y-13802579D01*
X4341491Y-13802579D02*
X4351015Y-13840674D01*
X4351015Y-13840674D02*
X4351015Y-13888293D01*
X4351015Y-13888293D02*
X4341491Y-13926388D01*
X4341491Y-13926388D02*
X4331968Y-13945436D01*
X4331968Y-13945436D02*
X4322444Y-13954960D01*
X4322444Y-13954960D02*
X4303396Y-13964484D01*
X4303396Y-13964484D02*
X4284348Y-13964484D01*
X4284348Y-13964484D02*
X4265301Y-13954960D01*
X4265301Y-13954960D02*
X4255777Y-13945436D01*
X4255777Y-13945436D02*
X4246253Y-13926388D01*
X4246253Y-13926388D02*
X4236729Y-13888293D01*
X4236729Y-13888293D02*
X4236729Y-13840674D01*
X4236729Y-13840674D02*
X4246253Y-13802579D01*
X4246253Y-13802579D02*
X4255777Y-13783531D01*
X4255777Y-13783531D02*
X4265301Y-13774008D01*
X4265301Y-13774008D02*
X4284348Y-13764484D01*
X4417682Y-13764484D02*
X4551015Y-13764484D01*
X4551015Y-13764484D02*
X4465301Y-13964484D01*
X4655777Y-13850198D02*
X4636729Y-13840674D01*
X4636729Y-13840674D02*
X4627206Y-13831150D01*
X4627206Y-13831150D02*
X4617682Y-13812103D01*
X4617682Y-13812103D02*
X4617682Y-13802579D01*
X4617682Y-13802579D02*
X4627206Y-13783531D01*
X4627206Y-13783531D02*
X4636729Y-13774008D01*
X4636729Y-13774008D02*
X4655777Y-13764484D01*
X4655777Y-13764484D02*
X4693872Y-13764484D01*
X4693872Y-13764484D02*
X4712920Y-13774008D01*
X4712920Y-13774008D02*
X4722444Y-13783531D01*
X4722444Y-13783531D02*
X4731968Y-13802579D01*
X4731968Y-13802579D02*
X4731968Y-13812103D01*
X4731968Y-13812103D02*
X4722444Y-13831150D01*
X4722444Y-13831150D02*
X4712920Y-13840674D01*
X4712920Y-13840674D02*
X4693872Y-13850198D01*
X4693872Y-13850198D02*
X4655777Y-13850198D01*
X4655777Y-13850198D02*
X4636729Y-13859722D01*
X4636729Y-13859722D02*
X4627206Y-13869246D01*
X4627206Y-13869246D02*
X4617682Y-13888293D01*
X4617682Y-13888293D02*
X4617682Y-13926388D01*
X4617682Y-13926388D02*
X4627206Y-13945436D01*
X4627206Y-13945436D02*
X4636729Y-13954960D01*
X4636729Y-13954960D02*
X4655777Y-13964484D01*
X4655777Y-13964484D02*
X4693872Y-13964484D01*
X4693872Y-13964484D02*
X4712920Y-13954960D01*
X4712920Y-13954960D02*
X4722444Y-13945436D01*
X4722444Y-13945436D02*
X4731968Y-13926388D01*
X4731968Y-13926388D02*
X4731968Y-13888293D01*
X4731968Y-13888293D02*
X4722444Y-13869246D01*
X4722444Y-13869246D02*
X4712920Y-13859722D01*
X4712920Y-13859722D02*
X4693872Y-13850198D01*
X4798634Y-13764484D02*
X4931968Y-13764484D01*
X4931968Y-13764484D02*
X4846253Y-13964484D01*
X4998634Y-13764484D02*
X4998634Y-13802579D01*
X5074825Y-13764484D02*
X5074825Y-13802579D01*
X5370063Y-14040674D02*
X5360539Y-14031150D01*
X5360539Y-14031150D02*
X5341491Y-14002579D01*
X5341491Y-14002579D02*
X5331968Y-13983531D01*
X5331968Y-13983531D02*
X5322444Y-13954960D01*
X5322444Y-13954960D02*
X5312920Y-13907341D01*
X5312920Y-13907341D02*
X5312920Y-13869246D01*
X5312920Y-13869246D02*
X5322444Y-13821627D01*
X5322444Y-13821627D02*
X5331968Y-13793055D01*
X5331968Y-13793055D02*
X5341491Y-13774008D01*
X5341491Y-13774008D02*
X5360539Y-13745436D01*
X5360539Y-13745436D02*
X5370063Y-13735912D01*
X5531968Y-13831150D02*
X5531968Y-13964484D01*
X5484349Y-13754960D02*
X5436730Y-13897817D01*
X5436730Y-13897817D02*
X5560539Y-13897817D01*
X5789110Y-13964484D02*
X5789110Y-13764484D01*
X5874825Y-13964484D02*
X5874825Y-13859722D01*
X5874825Y-13859722D02*
X5865301Y-13840674D01*
X5865301Y-13840674D02*
X5846253Y-13831150D01*
X5846253Y-13831150D02*
X5817682Y-13831150D01*
X5817682Y-13831150D02*
X5798634Y-13840674D01*
X5798634Y-13840674D02*
X5789110Y-13850198D01*
X5998634Y-13964484D02*
X5979587Y-13954960D01*
X5979587Y-13954960D02*
X5970063Y-13945436D01*
X5970063Y-13945436D02*
X5960539Y-13926388D01*
X5960539Y-13926388D02*
X5960539Y-13869246D01*
X5960539Y-13869246D02*
X5970063Y-13850198D01*
X5970063Y-13850198D02*
X5979587Y-13840674D01*
X5979587Y-13840674D02*
X5998634Y-13831150D01*
X5998634Y-13831150D02*
X6027206Y-13831150D01*
X6027206Y-13831150D02*
X6046253Y-13840674D01*
X6046253Y-13840674D02*
X6055777Y-13850198D01*
X6055777Y-13850198D02*
X6065301Y-13869246D01*
X6065301Y-13869246D02*
X6065301Y-13926388D01*
X6065301Y-13926388D02*
X6055777Y-13945436D01*
X6055777Y-13945436D02*
X6046253Y-13954960D01*
X6046253Y-13954960D02*
X6027206Y-13964484D01*
X6027206Y-13964484D02*
X5998634Y-13964484D01*
X6179587Y-13964484D02*
X6160539Y-13954960D01*
X6160539Y-13954960D02*
X6151015Y-13935912D01*
X6151015Y-13935912D02*
X6151015Y-13764484D01*
X6331968Y-13954960D02*
X6312920Y-13964484D01*
X6312920Y-13964484D02*
X6274825Y-13964484D01*
X6274825Y-13964484D02*
X6255777Y-13954960D01*
X6255777Y-13954960D02*
X6246253Y-13935912D01*
X6246253Y-13935912D02*
X6246253Y-13859722D01*
X6246253Y-13859722D02*
X6255777Y-13840674D01*
X6255777Y-13840674D02*
X6274825Y-13831150D01*
X6274825Y-13831150D02*
X6312920Y-13831150D01*
X6312920Y-13831150D02*
X6331968Y-13840674D01*
X6331968Y-13840674D02*
X6341491Y-13859722D01*
X6341491Y-13859722D02*
X6341491Y-13878769D01*
X6341491Y-13878769D02*
X6246253Y-13897817D01*
X6417682Y-13954960D02*
X6436730Y-13964484D01*
X6436730Y-13964484D02*
X6474825Y-13964484D01*
X6474825Y-13964484D02*
X6493872Y-13954960D01*
X6493872Y-13954960D02*
X6503396Y-13935912D01*
X6503396Y-13935912D02*
X6503396Y-13926388D01*
X6503396Y-13926388D02*
X6493872Y-13907341D01*
X6493872Y-13907341D02*
X6474825Y-13897817D01*
X6474825Y-13897817D02*
X6446253Y-13897817D01*
X6446253Y-13897817D02*
X6427206Y-13888293D01*
X6427206Y-13888293D02*
X6417682Y-13869246D01*
X6417682Y-13869246D02*
X6417682Y-13859722D01*
X6417682Y-13859722D02*
X6427206Y-13840674D01*
X6427206Y-13840674D02*
X6446253Y-13831150D01*
X6446253Y-13831150D02*
X6474825Y-13831150D01*
X6474825Y-13831150D02*
X6493872Y-13840674D01*
X6570063Y-14040674D02*
X6579587Y-14031150D01*
X6579587Y-14031150D02*
X6598634Y-14002579D01*
X6598634Y-14002579D02*
X6608158Y-13983531D01*
X6608158Y-13983531D02*
X6617682Y-13954960D01*
X6617682Y-13954960D02*
X6627206Y-13907341D01*
X6627206Y-13907341D02*
X6627206Y-13869246D01*
X6627206Y-13869246D02*
X6617682Y-13821627D01*
X6617682Y-13821627D02*
X6608158Y-13793055D01*
X6608158Y-13793055D02*
X6598634Y-13774008D01*
X6598634Y-13774008D02*
X6579587Y-13745436D01*
X6579587Y-13745436D02*
X6570063Y-13735912D01*
X6931968Y-14040674D02*
X6922444Y-14031150D01*
X6922444Y-14031150D02*
X6903396Y-14002579D01*
X6903396Y-14002579D02*
X6893872Y-13983531D01*
X6893872Y-13983531D02*
X6884349Y-13954960D01*
X6884349Y-13954960D02*
X6874825Y-13907341D01*
X6874825Y-13907341D02*
X6874825Y-13869246D01*
X6874825Y-13869246D02*
X6884349Y-13821627D01*
X6884349Y-13821627D02*
X6893872Y-13793055D01*
X6893872Y-13793055D02*
X6903396Y-13774008D01*
X6903396Y-13774008D02*
X6922444Y-13745436D01*
X6922444Y-13745436D02*
X6931968Y-13735912D01*
X7008158Y-13831150D02*
X7008158Y-13964484D01*
X7008158Y-13850198D02*
X7017682Y-13840674D01*
X7017682Y-13840674D02*
X7036730Y-13831150D01*
X7036730Y-13831150D02*
X7065301Y-13831150D01*
X7065301Y-13831150D02*
X7084349Y-13840674D01*
X7084349Y-13840674D02*
X7093872Y-13859722D01*
X7093872Y-13859722D02*
X7093872Y-13964484D01*
X7217682Y-13964484D02*
X7198634Y-13954960D01*
X7198634Y-13954960D02*
X7189111Y-13945436D01*
X7189111Y-13945436D02*
X7179587Y-13926388D01*
X7179587Y-13926388D02*
X7179587Y-13869246D01*
X7179587Y-13869246D02*
X7189111Y-13850198D01*
X7189111Y-13850198D02*
X7198634Y-13840674D01*
X7198634Y-13840674D02*
X7217682Y-13831150D01*
X7217682Y-13831150D02*
X7246253Y-13831150D01*
X7246253Y-13831150D02*
X7265301Y-13840674D01*
X7265301Y-13840674D02*
X7274825Y-13850198D01*
X7274825Y-13850198D02*
X7284349Y-13869246D01*
X7284349Y-13869246D02*
X7284349Y-13926388D01*
X7284349Y-13926388D02*
X7274825Y-13945436D01*
X7274825Y-13945436D02*
X7265301Y-13954960D01*
X7265301Y-13954960D02*
X7246253Y-13964484D01*
X7246253Y-13964484D02*
X7217682Y-13964484D01*
X7341492Y-13831150D02*
X7417682Y-13831150D01*
X7370063Y-13764484D02*
X7370063Y-13935912D01*
X7370063Y-13935912D02*
X7379587Y-13954960D01*
X7379587Y-13954960D02*
X7398634Y-13964484D01*
X7398634Y-13964484D02*
X7417682Y-13964484D01*
X7636730Y-13831150D02*
X7636730Y-14031150D01*
X7636730Y-13840674D02*
X7655777Y-13831150D01*
X7655777Y-13831150D02*
X7693873Y-13831150D01*
X7693873Y-13831150D02*
X7712920Y-13840674D01*
X7712920Y-13840674D02*
X7722444Y-13850198D01*
X7722444Y-13850198D02*
X7731968Y-13869246D01*
X7731968Y-13869246D02*
X7731968Y-13926388D01*
X7731968Y-13926388D02*
X7722444Y-13945436D01*
X7722444Y-13945436D02*
X7712920Y-13954960D01*
X7712920Y-13954960D02*
X7693873Y-13964484D01*
X7693873Y-13964484D02*
X7655777Y-13964484D01*
X7655777Y-13964484D02*
X7636730Y-13954960D01*
X7846253Y-13964484D02*
X7827206Y-13954960D01*
X7827206Y-13954960D02*
X7817682Y-13935912D01*
X7817682Y-13935912D02*
X7817682Y-13764484D01*
X8008158Y-13964484D02*
X8008158Y-13859722D01*
X8008158Y-13859722D02*
X7998634Y-13840674D01*
X7998634Y-13840674D02*
X7979587Y-13831150D01*
X7979587Y-13831150D02*
X7941492Y-13831150D01*
X7941492Y-13831150D02*
X7922444Y-13840674D01*
X8008158Y-13954960D02*
X7989111Y-13964484D01*
X7989111Y-13964484D02*
X7941492Y-13964484D01*
X7941492Y-13964484D02*
X7922444Y-13954960D01*
X7922444Y-13954960D02*
X7912920Y-13935912D01*
X7912920Y-13935912D02*
X7912920Y-13916865D01*
X7912920Y-13916865D02*
X7922444Y-13897817D01*
X7922444Y-13897817D02*
X7941492Y-13888293D01*
X7941492Y-13888293D02*
X7989111Y-13888293D01*
X7989111Y-13888293D02*
X8008158Y-13878769D01*
X8074825Y-13831150D02*
X8151015Y-13831150D01*
X8103396Y-13764484D02*
X8103396Y-13935912D01*
X8103396Y-13935912D02*
X8112920Y-13954960D01*
X8112920Y-13954960D02*
X8131968Y-13964484D01*
X8131968Y-13964484D02*
X8151015Y-13964484D01*
X8293873Y-13954960D02*
X8274825Y-13964484D01*
X8274825Y-13964484D02*
X8236730Y-13964484D01*
X8236730Y-13964484D02*
X8217682Y-13954960D01*
X8217682Y-13954960D02*
X8208158Y-13935912D01*
X8208158Y-13935912D02*
X8208158Y-13859722D01*
X8208158Y-13859722D02*
X8217682Y-13840674D01*
X8217682Y-13840674D02*
X8236730Y-13831150D01*
X8236730Y-13831150D02*
X8274825Y-13831150D01*
X8274825Y-13831150D02*
X8293873Y-13840674D01*
X8293873Y-13840674D02*
X8303396Y-13859722D01*
X8303396Y-13859722D02*
X8303396Y-13878769D01*
X8303396Y-13878769D02*
X8208158Y-13897817D01*
X8474825Y-13964484D02*
X8474825Y-13764484D01*
X8474825Y-13954960D02*
X8455777Y-13964484D01*
X8455777Y-13964484D02*
X8417682Y-13964484D01*
X8417682Y-13964484D02*
X8398635Y-13954960D01*
X8398635Y-13954960D02*
X8389111Y-13945436D01*
X8389111Y-13945436D02*
X8379587Y-13926388D01*
X8379587Y-13926388D02*
X8379587Y-13869246D01*
X8379587Y-13869246D02*
X8389111Y-13850198D01*
X8389111Y-13850198D02*
X8398635Y-13840674D01*
X8398635Y-13840674D02*
X8417682Y-13831150D01*
X8417682Y-13831150D02*
X8455777Y-13831150D01*
X8455777Y-13831150D02*
X8474825Y-13840674D01*
X8551016Y-14040674D02*
X8560539Y-14031150D01*
X8560539Y-14031150D02*
X8579587Y-14002579D01*
X8579587Y-14002579D02*
X8589111Y-13983531D01*
X8589111Y-13983531D02*
X8598635Y-13954960D01*
X8598635Y-13954960D02*
X8608158Y-13907341D01*
X8608158Y-13907341D02*
X8608158Y-13869246D01*
X8608158Y-13869246D02*
X8598635Y-13821627D01*
X8598635Y-13821627D02*
X8589111Y-13793055D01*
X8589111Y-13793055D02*
X8579587Y-13774008D01*
X8579587Y-13774008D02*
X8560539Y-13745436D01*
X8560539Y-13745436D02*
X8551016Y-13735912D01*
M02*
