M48
; DRILL file {KiCad 9.0.0} date 2025-02-26T16:04:52-0600
; FORMAT={-:-/ absolute / metric / decimal}
; #@! TF.CreationDate,2025-02-26T16:04:52-06:00
; #@! TF.GenerationSoftware,Kicad,Pcbnew,9.0.0
; #@! TF.FileFunction,NonPlated,1,2,NPTH
FMAT,2
METRIC
; #@! TA.AperFunction,NonPlated,NPTH,ComponentDrill
T1C0.250
%
G90
G05
T1
X62.902Y-148.734
X62.902Y-149.234
X62.902Y-149.734
X62.902Y-150.234
X62.902Y-150.734
X62.902Y-151.234
X62.902Y-151.734
X62.902Y-152.234
X62.902Y-152.734
X62.902Y-153.234
X65.094Y-148.76
X65.094Y-149.26
X65.094Y-149.76
X65.094Y-150.26
X65.094Y-150.76
X65.094Y-151.26
X65.094Y-151.76
X65.094Y-152.26
X65.094Y-152.76
X65.094Y-153.26
M30
