%TF.GenerationSoftware,KiCad,Pcbnew,8.0.8*%
%TF.CreationDate,2025-02-15T12:19:35-06:00*%
%TF.ProjectId,SAO-CR1616,53414f2d-4352-4313-9631-362e6b696361,rev?*%
%TF.SameCoordinates,Original*%
%TF.FileFunction,Profile,NP*%
%FSLAX46Y46*%
G04 Gerber Fmt 4.6, Leading zero omitted, Abs format (unit mm)*
G04 Created by KiCad (PCBNEW 8.0.8) date 2025-02-15 12:19:35*
%MOMM*%
%LPD*%
G01*
G04 APERTURE LIST*
%TA.AperFunction,Profile*%
%ADD10C,0.100000*%
%TD*%
G04 APERTURE END LIST*
D10*
X150836228Y-142043825D02*
X151389185Y-142121538D01*
X151935375Y-142237634D01*
X152472136Y-142391548D01*
X152996853Y-142582529D01*
X153506969Y-142809648D01*
X154000000Y-143071797D01*
X154473543Y-143367699D01*
X154925292Y-143695914D01*
X155353045Y-144054841D01*
X155754718Y-144442733D01*
X156128356Y-144857699D01*
X156472136Y-145297718D01*
X156784385Y-145760646D01*
X157063581Y-146244227D01*
X157308364Y-146746107D01*
X157517541Y-147263839D01*
X157690094Y-147794901D01*
X157825181Y-148336706D01*
X157922145Y-148886615D01*
X157980512Y-149441948D01*
X158000000Y-150000000D01*
X158000000Y-170500000D01*
X157980785Y-170695090D01*
X157923880Y-170882683D01*
X157831470Y-171055570D01*
X157707107Y-171207107D01*
X157555570Y-171331470D01*
X157382683Y-171423880D01*
X157195090Y-171480785D01*
X157000000Y-171500000D01*
X143000000Y-171500000D01*
X142804910Y-171480785D01*
X142617317Y-171423880D01*
X142444430Y-171331470D01*
X142292893Y-171207107D01*
X142168530Y-171055570D01*
X142076120Y-170882683D01*
X142019215Y-170695090D01*
X142000000Y-170500000D01*
X142000000Y-150000000D01*
X142019488Y-149441948D01*
X142077855Y-148886615D01*
X142174819Y-148336706D01*
X142309906Y-147794901D01*
X142482459Y-147263839D01*
X142691636Y-146746107D01*
X142936419Y-146244227D01*
X143215615Y-145760646D01*
X143527864Y-145297718D01*
X143871644Y-144857699D01*
X144245282Y-144442733D01*
X144646955Y-144054841D01*
X145074708Y-143695914D01*
X145526457Y-143367699D01*
X146000000Y-143071797D01*
X146493031Y-142809648D01*
X147003147Y-142582529D01*
X147527864Y-142391548D01*
X148064625Y-142237634D01*
X148610815Y-142121538D01*
X149163772Y-142043825D01*
X149720804Y-142004873D01*
X150279196Y-142004873D01*
X150836228Y-142043825D01*
M02*
