%TF.GenerationSoftware,KiCad,Pcbnew,9.0.0*%
%TF.CreationDate,2025-02-26T14:31:02-06:00*%
%TF.ProjectId,SAO-CR1616,53414f2d-4352-4313-9631-362e6b696361,rev?*%
%TF.SameCoordinates,Original*%
%TF.FileFunction,Legend,Bot*%
%TF.FilePolarity,Positive*%
%FSLAX46Y46*%
G04 Gerber Fmt 4.6, Leading zero omitted, Abs format (unit mm)*
G04 Created by KiCad (PCBNEW 9.0.0) date 2025-02-26 14:31:02*
%MOMM*%
%LPD*%
G01*
G04 APERTURE LIST*
G04 Aperture macros list*
%AMRoundRect*
0 Rectangle with rounded corners*
0 $1 Rounding radius*
0 $2 $3 $4 $5 $6 $7 $8 $9 X,Y pos of 4 corners*
0 Add a 4 corners polygon primitive as box body*
4,1,4,$2,$3,$4,$5,$6,$7,$8,$9,$2,$3,0*
0 Add four circle primitives for the rounded corners*
1,1,$1+$1,$2,$3*
1,1,$1+$1,$4,$5*
1,1,$1+$1,$6,$7*
1,1,$1+$1,$8,$9*
0 Add four rect primitives between the rounded corners*
20,1,$1+$1,$2,$3,$4,$5,0*
20,1,$1+$1,$4,$5,$6,$7,0*
20,1,$1+$1,$6,$7,$8,$9,0*
20,1,$1+$1,$8,$9,$2,$3,0*%
G04 Aperture macros list end*
%ADD10C,0.150000*%
%ADD11C,0.120000*%
%ADD12C,0.250000*%
%ADD13RoundRect,0.250000X-0.600000X0.600000X-0.600000X-0.600000X0.600000X-0.600000X0.600000X0.600000X0*%
%ADD14C,1.700000*%
%ADD15RoundRect,0.250000X-0.475000X0.337500X-0.475000X-0.337500X0.475000X-0.337500X0.475000X0.337500X0*%
%ADD16RoundRect,0.250000X-0.337500X-0.475000X0.337500X-0.475000X0.337500X0.475000X-0.337500X0.475000X0*%
%ADD17R,2.000000X5.000000*%
%ADD18O,2.000000X5.000000*%
%ADD19RoundRect,0.250000X0.337500X0.475000X-0.337500X0.475000X-0.337500X-0.475000X0.337500X-0.475000X0*%
%ADD20C,15.000000*%
%ADD21C,4.000000*%
G04 APERTURE END LIST*
D10*
X43674761Y-149931009D02*
X43531904Y-149978628D01*
X43531904Y-149978628D02*
X43484285Y-150026247D01*
X43484285Y-150026247D02*
X43436666Y-150121485D01*
X43436666Y-150121485D02*
X43436666Y-150264342D01*
X43436666Y-150264342D02*
X43484285Y-150359580D01*
X43484285Y-150359580D02*
X43531904Y-150407200D01*
X43531904Y-150407200D02*
X43627142Y-150454819D01*
X43627142Y-150454819D02*
X44008094Y-150454819D01*
X44008094Y-150454819D02*
X44008094Y-149454819D01*
X44008094Y-149454819D02*
X43674761Y-149454819D01*
X43674761Y-149454819D02*
X43579523Y-149502438D01*
X43579523Y-149502438D02*
X43531904Y-149550057D01*
X43531904Y-149550057D02*
X43484285Y-149645295D01*
X43484285Y-149645295D02*
X43484285Y-149740533D01*
X43484285Y-149740533D02*
X43531904Y-149835771D01*
X43531904Y-149835771D02*
X43579523Y-149883390D01*
X43579523Y-149883390D02*
X43674761Y-149931009D01*
X43674761Y-149931009D02*
X44008094Y-149931009D01*
X42436666Y-150359580D02*
X42484285Y-150407200D01*
X42484285Y-150407200D02*
X42627142Y-150454819D01*
X42627142Y-150454819D02*
X42722380Y-150454819D01*
X42722380Y-150454819D02*
X42865237Y-150407200D01*
X42865237Y-150407200D02*
X42960475Y-150311961D01*
X42960475Y-150311961D02*
X43008094Y-150216723D01*
X43008094Y-150216723D02*
X43055713Y-150026247D01*
X43055713Y-150026247D02*
X43055713Y-149883390D01*
X43055713Y-149883390D02*
X43008094Y-149692914D01*
X43008094Y-149692914D02*
X42960475Y-149597676D01*
X42960475Y-149597676D02*
X42865237Y-149502438D01*
X42865237Y-149502438D02*
X42722380Y-149454819D01*
X42722380Y-149454819D02*
X42627142Y-149454819D01*
X42627142Y-149454819D02*
X42484285Y-149502438D01*
X42484285Y-149502438D02*
X42436666Y-149550057D01*
X42103332Y-149454819D02*
X41436666Y-149454819D01*
X41436666Y-149454819D02*
X41865237Y-150454819D01*
X41634761Y-151931009D02*
X41491904Y-151978628D01*
X41491904Y-151978628D02*
X41444285Y-152026247D01*
X41444285Y-152026247D02*
X41396666Y-152121485D01*
X41396666Y-152121485D02*
X41396666Y-152264342D01*
X41396666Y-152264342D02*
X41444285Y-152359580D01*
X41444285Y-152359580D02*
X41491904Y-152407200D01*
X41491904Y-152407200D02*
X41587142Y-152454819D01*
X41587142Y-152454819D02*
X41968094Y-152454819D01*
X41968094Y-152454819D02*
X41968094Y-151454819D01*
X41968094Y-151454819D02*
X41634761Y-151454819D01*
X41634761Y-151454819D02*
X41539523Y-151502438D01*
X41539523Y-151502438D02*
X41491904Y-151550057D01*
X41491904Y-151550057D02*
X41444285Y-151645295D01*
X41444285Y-151645295D02*
X41444285Y-151740533D01*
X41444285Y-151740533D02*
X41491904Y-151835771D01*
X41491904Y-151835771D02*
X41539523Y-151883390D01*
X41539523Y-151883390D02*
X41634761Y-151931009D01*
X41634761Y-151931009D02*
X41968094Y-151931009D01*
X40396666Y-152359580D02*
X40444285Y-152407200D01*
X40444285Y-152407200D02*
X40587142Y-152454819D01*
X40587142Y-152454819D02*
X40682380Y-152454819D01*
X40682380Y-152454819D02*
X40825237Y-152407200D01*
X40825237Y-152407200D02*
X40920475Y-152311961D01*
X40920475Y-152311961D02*
X40968094Y-152216723D01*
X40968094Y-152216723D02*
X41015713Y-152026247D01*
X41015713Y-152026247D02*
X41015713Y-151883390D01*
X41015713Y-151883390D02*
X40968094Y-151692914D01*
X40968094Y-151692914D02*
X40920475Y-151597676D01*
X40920475Y-151597676D02*
X40825237Y-151502438D01*
X40825237Y-151502438D02*
X40682380Y-151454819D01*
X40682380Y-151454819D02*
X40587142Y-151454819D01*
X40587142Y-151454819D02*
X40444285Y-151502438D01*
X40444285Y-151502438D02*
X40396666Y-151550057D01*
X39539523Y-151454819D02*
X39729999Y-151454819D01*
X39729999Y-151454819D02*
X39825237Y-151502438D01*
X39825237Y-151502438D02*
X39872856Y-151550057D01*
X39872856Y-151550057D02*
X39968094Y-151692914D01*
X39968094Y-151692914D02*
X40015713Y-151883390D01*
X40015713Y-151883390D02*
X40015713Y-152264342D01*
X40015713Y-152264342D02*
X39968094Y-152359580D01*
X39968094Y-152359580D02*
X39920475Y-152407200D01*
X39920475Y-152407200D02*
X39825237Y-152454819D01*
X39825237Y-152454819D02*
X39634761Y-152454819D01*
X39634761Y-152454819D02*
X39539523Y-152407200D01*
X39539523Y-152407200D02*
X39491904Y-152359580D01*
X39491904Y-152359580D02*
X39444285Y-152264342D01*
X39444285Y-152264342D02*
X39444285Y-152026247D01*
X39444285Y-152026247D02*
X39491904Y-151931009D01*
X39491904Y-151931009D02*
X39539523Y-151883390D01*
X39539523Y-151883390D02*
X39634761Y-151835771D01*
X39634761Y-151835771D02*
X39825237Y-151835771D01*
X39825237Y-151835771D02*
X39920475Y-151883390D01*
X39920475Y-151883390D02*
X39968094Y-151931009D01*
X39968094Y-151931009D02*
X40015713Y-152026247D01*
X47404761Y-153931009D02*
X47261904Y-153978628D01*
X47261904Y-153978628D02*
X47214285Y-154026247D01*
X47214285Y-154026247D02*
X47166666Y-154121485D01*
X47166666Y-154121485D02*
X47166666Y-154264342D01*
X47166666Y-154264342D02*
X47214285Y-154359580D01*
X47214285Y-154359580D02*
X47261904Y-154407200D01*
X47261904Y-154407200D02*
X47357142Y-154454819D01*
X47357142Y-154454819D02*
X47738094Y-154454819D01*
X47738094Y-154454819D02*
X47738094Y-153454819D01*
X47738094Y-153454819D02*
X47404761Y-153454819D01*
X47404761Y-153454819D02*
X47309523Y-153502438D01*
X47309523Y-153502438D02*
X47261904Y-153550057D01*
X47261904Y-153550057D02*
X47214285Y-153645295D01*
X47214285Y-153645295D02*
X47214285Y-153740533D01*
X47214285Y-153740533D02*
X47261904Y-153835771D01*
X47261904Y-153835771D02*
X47309523Y-153883390D01*
X47309523Y-153883390D02*
X47404761Y-153931009D01*
X47404761Y-153931009D02*
X47738094Y-153931009D01*
X46166666Y-154359580D02*
X46214285Y-154407200D01*
X46214285Y-154407200D02*
X46357142Y-154454819D01*
X46357142Y-154454819D02*
X46452380Y-154454819D01*
X46452380Y-154454819D02*
X46595237Y-154407200D01*
X46595237Y-154407200D02*
X46690475Y-154311961D01*
X46690475Y-154311961D02*
X46738094Y-154216723D01*
X46738094Y-154216723D02*
X46785713Y-154026247D01*
X46785713Y-154026247D02*
X46785713Y-153883390D01*
X46785713Y-153883390D02*
X46738094Y-153692914D01*
X46738094Y-153692914D02*
X46690475Y-153597676D01*
X46690475Y-153597676D02*
X46595237Y-153502438D01*
X46595237Y-153502438D02*
X46452380Y-153454819D01*
X46452380Y-153454819D02*
X46357142Y-153454819D01*
X46357142Y-153454819D02*
X46214285Y-153502438D01*
X46214285Y-153502438D02*
X46166666Y-153550057D01*
X45261904Y-153454819D02*
X45738094Y-153454819D01*
X45738094Y-153454819D02*
X45785713Y-153931009D01*
X45785713Y-153931009D02*
X45738094Y-153883390D01*
X45738094Y-153883390D02*
X45642856Y-153835771D01*
X45642856Y-153835771D02*
X45404761Y-153835771D01*
X45404761Y-153835771D02*
X45309523Y-153883390D01*
X45309523Y-153883390D02*
X45261904Y-153931009D01*
X45261904Y-153931009D02*
X45214285Y-154026247D01*
X45214285Y-154026247D02*
X45214285Y-154264342D01*
X45214285Y-154264342D02*
X45261904Y-154359580D01*
X45261904Y-154359580D02*
X45309523Y-154407200D01*
X45309523Y-154407200D02*
X45404761Y-154454819D01*
X45404761Y-154454819D02*
X45642856Y-154454819D01*
X45642856Y-154454819D02*
X45738094Y-154407200D01*
X45738094Y-154407200D02*
X45785713Y-154359580D01*
X41634761Y-147931009D02*
X41491904Y-147978628D01*
X41491904Y-147978628D02*
X41444285Y-148026247D01*
X41444285Y-148026247D02*
X41396666Y-148121485D01*
X41396666Y-148121485D02*
X41396666Y-148264342D01*
X41396666Y-148264342D02*
X41444285Y-148359580D01*
X41444285Y-148359580D02*
X41491904Y-148407200D01*
X41491904Y-148407200D02*
X41587142Y-148454819D01*
X41587142Y-148454819D02*
X41968094Y-148454819D01*
X41968094Y-148454819D02*
X41968094Y-147454819D01*
X41968094Y-147454819D02*
X41634761Y-147454819D01*
X41634761Y-147454819D02*
X41539523Y-147502438D01*
X41539523Y-147502438D02*
X41491904Y-147550057D01*
X41491904Y-147550057D02*
X41444285Y-147645295D01*
X41444285Y-147645295D02*
X41444285Y-147740533D01*
X41444285Y-147740533D02*
X41491904Y-147835771D01*
X41491904Y-147835771D02*
X41539523Y-147883390D01*
X41539523Y-147883390D02*
X41634761Y-147931009D01*
X41634761Y-147931009D02*
X41968094Y-147931009D01*
X40396666Y-148359580D02*
X40444285Y-148407200D01*
X40444285Y-148407200D02*
X40587142Y-148454819D01*
X40587142Y-148454819D02*
X40682380Y-148454819D01*
X40682380Y-148454819D02*
X40825237Y-148407200D01*
X40825237Y-148407200D02*
X40920475Y-148311961D01*
X40920475Y-148311961D02*
X40968094Y-148216723D01*
X40968094Y-148216723D02*
X41015713Y-148026247D01*
X41015713Y-148026247D02*
X41015713Y-147883390D01*
X41015713Y-147883390D02*
X40968094Y-147692914D01*
X40968094Y-147692914D02*
X40920475Y-147597676D01*
X40920475Y-147597676D02*
X40825237Y-147502438D01*
X40825237Y-147502438D02*
X40682380Y-147454819D01*
X40682380Y-147454819D02*
X40587142Y-147454819D01*
X40587142Y-147454819D02*
X40444285Y-147502438D01*
X40444285Y-147502438D02*
X40396666Y-147550057D01*
X39444285Y-148454819D02*
X40015713Y-148454819D01*
X39729999Y-148454819D02*
X39729999Y-147454819D01*
X39729999Y-147454819D02*
X39825237Y-147597676D01*
X39825237Y-147597676D02*
X39920475Y-147692914D01*
X39920475Y-147692914D02*
X40015713Y-147740533D01*
X66909926Y-156373558D02*
X67624211Y-156373558D01*
X67624211Y-156373558D02*
X67767068Y-156325939D01*
X67767068Y-156325939D02*
X67862307Y-156230701D01*
X67862307Y-156230701D02*
X67909926Y-156087844D01*
X67909926Y-156087844D02*
X67909926Y-155992606D01*
X67005164Y-156802130D02*
X66957545Y-156849749D01*
X66957545Y-156849749D02*
X66909926Y-156944987D01*
X66909926Y-156944987D02*
X66909926Y-157183082D01*
X66909926Y-157183082D02*
X66957545Y-157278320D01*
X66957545Y-157278320D02*
X67005164Y-157325939D01*
X67005164Y-157325939D02*
X67100402Y-157373558D01*
X67100402Y-157373558D02*
X67195640Y-157373558D01*
X67195640Y-157373558D02*
X67338497Y-157325939D01*
X67338497Y-157325939D02*
X67909926Y-156754511D01*
X67909926Y-156754511D02*
X67909926Y-157373558D01*
X47404761Y-145931009D02*
X47261904Y-145978628D01*
X47261904Y-145978628D02*
X47214285Y-146026247D01*
X47214285Y-146026247D02*
X47166666Y-146121485D01*
X47166666Y-146121485D02*
X47166666Y-146264342D01*
X47166666Y-146264342D02*
X47214285Y-146359580D01*
X47214285Y-146359580D02*
X47261904Y-146407200D01*
X47261904Y-146407200D02*
X47357142Y-146454819D01*
X47357142Y-146454819D02*
X47738094Y-146454819D01*
X47738094Y-146454819D02*
X47738094Y-145454819D01*
X47738094Y-145454819D02*
X47404761Y-145454819D01*
X47404761Y-145454819D02*
X47309523Y-145502438D01*
X47309523Y-145502438D02*
X47261904Y-145550057D01*
X47261904Y-145550057D02*
X47214285Y-145645295D01*
X47214285Y-145645295D02*
X47214285Y-145740533D01*
X47214285Y-145740533D02*
X47261904Y-145835771D01*
X47261904Y-145835771D02*
X47309523Y-145883390D01*
X47309523Y-145883390D02*
X47404761Y-145931009D01*
X47404761Y-145931009D02*
X47738094Y-145931009D01*
X46166666Y-146359580D02*
X46214285Y-146407200D01*
X46214285Y-146407200D02*
X46357142Y-146454819D01*
X46357142Y-146454819D02*
X46452380Y-146454819D01*
X46452380Y-146454819D02*
X46595237Y-146407200D01*
X46595237Y-146407200D02*
X46690475Y-146311961D01*
X46690475Y-146311961D02*
X46738094Y-146216723D01*
X46738094Y-146216723D02*
X46785713Y-146026247D01*
X46785713Y-146026247D02*
X46785713Y-145883390D01*
X46785713Y-145883390D02*
X46738094Y-145692914D01*
X46738094Y-145692914D02*
X46690475Y-145597676D01*
X46690475Y-145597676D02*
X46595237Y-145502438D01*
X46595237Y-145502438D02*
X46452380Y-145454819D01*
X46452380Y-145454819D02*
X46357142Y-145454819D01*
X46357142Y-145454819D02*
X46214285Y-145502438D01*
X46214285Y-145502438D02*
X46166666Y-145550057D01*
X45785713Y-145550057D02*
X45738094Y-145502438D01*
X45738094Y-145502438D02*
X45642856Y-145454819D01*
X45642856Y-145454819D02*
X45404761Y-145454819D01*
X45404761Y-145454819D02*
X45309523Y-145502438D01*
X45309523Y-145502438D02*
X45261904Y-145550057D01*
X45261904Y-145550057D02*
X45214285Y-145645295D01*
X45214285Y-145645295D02*
X45214285Y-145740533D01*
X45214285Y-145740533D02*
X45261904Y-145883390D01*
X45261904Y-145883390D02*
X45833332Y-146454819D01*
X45833332Y-146454819D02*
X45214285Y-146454819D01*
X73389867Y-137369902D02*
X73247010Y-137417521D01*
X73247010Y-137417521D02*
X73199391Y-137465140D01*
X73199391Y-137465140D02*
X73151772Y-137560378D01*
X73151772Y-137560378D02*
X73151772Y-137703235D01*
X73151772Y-137703235D02*
X73199391Y-137798473D01*
X73199391Y-137798473D02*
X73247010Y-137846093D01*
X73247010Y-137846093D02*
X73342248Y-137893712D01*
X73342248Y-137893712D02*
X73723200Y-137893712D01*
X73723200Y-137893712D02*
X73723200Y-136893712D01*
X73723200Y-136893712D02*
X73389867Y-136893712D01*
X73389867Y-136893712D02*
X73294629Y-136941331D01*
X73294629Y-136941331D02*
X73247010Y-136988950D01*
X73247010Y-136988950D02*
X73199391Y-137084188D01*
X73199391Y-137084188D02*
X73199391Y-137179426D01*
X73199391Y-137179426D02*
X73247010Y-137274664D01*
X73247010Y-137274664D02*
X73294629Y-137322283D01*
X73294629Y-137322283D02*
X73389867Y-137369902D01*
X73389867Y-137369902D02*
X73723200Y-137369902D01*
X72818438Y-136893712D02*
X72199391Y-136893712D01*
X72199391Y-136893712D02*
X72532724Y-137274664D01*
X72532724Y-137274664D02*
X72389867Y-137274664D01*
X72389867Y-137274664D02*
X72294629Y-137322283D01*
X72294629Y-137322283D02*
X72247010Y-137369902D01*
X72247010Y-137369902D02*
X72199391Y-137465140D01*
X72199391Y-137465140D02*
X72199391Y-137703235D01*
X72199391Y-137703235D02*
X72247010Y-137798473D01*
X72247010Y-137798473D02*
X72294629Y-137846093D01*
X72294629Y-137846093D02*
X72389867Y-137893712D01*
X72389867Y-137893712D02*
X72675581Y-137893712D01*
X72675581Y-137893712D02*
X72770819Y-137846093D01*
X72770819Y-137846093D02*
X72818438Y-137798473D01*
X60174761Y-147931009D02*
X60031904Y-147978628D01*
X60031904Y-147978628D02*
X59984285Y-148026247D01*
X59984285Y-148026247D02*
X59936666Y-148121485D01*
X59936666Y-148121485D02*
X59936666Y-148264342D01*
X59936666Y-148264342D02*
X59984285Y-148359580D01*
X59984285Y-148359580D02*
X60031904Y-148407200D01*
X60031904Y-148407200D02*
X60127142Y-148454819D01*
X60127142Y-148454819D02*
X60508094Y-148454819D01*
X60508094Y-148454819D02*
X60508094Y-147454819D01*
X60508094Y-147454819D02*
X60174761Y-147454819D01*
X60174761Y-147454819D02*
X60079523Y-147502438D01*
X60079523Y-147502438D02*
X60031904Y-147550057D01*
X60031904Y-147550057D02*
X59984285Y-147645295D01*
X59984285Y-147645295D02*
X59984285Y-147740533D01*
X59984285Y-147740533D02*
X60031904Y-147835771D01*
X60031904Y-147835771D02*
X60079523Y-147883390D01*
X60079523Y-147883390D02*
X60174761Y-147931009D01*
X60174761Y-147931009D02*
X60508094Y-147931009D01*
X58936666Y-148359580D02*
X58984285Y-148407200D01*
X58984285Y-148407200D02*
X59127142Y-148454819D01*
X59127142Y-148454819D02*
X59222380Y-148454819D01*
X59222380Y-148454819D02*
X59365237Y-148407200D01*
X59365237Y-148407200D02*
X59460475Y-148311961D01*
X59460475Y-148311961D02*
X59508094Y-148216723D01*
X59508094Y-148216723D02*
X59555713Y-148026247D01*
X59555713Y-148026247D02*
X59555713Y-147883390D01*
X59555713Y-147883390D02*
X59508094Y-147692914D01*
X59508094Y-147692914D02*
X59460475Y-147597676D01*
X59460475Y-147597676D02*
X59365237Y-147502438D01*
X59365237Y-147502438D02*
X59222380Y-147454819D01*
X59222380Y-147454819D02*
X59127142Y-147454819D01*
X59127142Y-147454819D02*
X58984285Y-147502438D01*
X58984285Y-147502438D02*
X58936666Y-147550057D01*
X58603332Y-147454819D02*
X57984285Y-147454819D01*
X57984285Y-147454819D02*
X58317618Y-147835771D01*
X58317618Y-147835771D02*
X58174761Y-147835771D01*
X58174761Y-147835771D02*
X58079523Y-147883390D01*
X58079523Y-147883390D02*
X58031904Y-147931009D01*
X58031904Y-147931009D02*
X57984285Y-148026247D01*
X57984285Y-148026247D02*
X57984285Y-148264342D01*
X57984285Y-148264342D02*
X58031904Y-148359580D01*
X58031904Y-148359580D02*
X58079523Y-148407200D01*
X58079523Y-148407200D02*
X58174761Y-148454819D01*
X58174761Y-148454819D02*
X58460475Y-148454819D01*
X58460475Y-148454819D02*
X58555713Y-148407200D01*
X58555713Y-148407200D02*
X58603332Y-148359580D01*
X60174761Y-151931009D02*
X60031904Y-151978628D01*
X60031904Y-151978628D02*
X59984285Y-152026247D01*
X59984285Y-152026247D02*
X59936666Y-152121485D01*
X59936666Y-152121485D02*
X59936666Y-152264342D01*
X59936666Y-152264342D02*
X59984285Y-152359580D01*
X59984285Y-152359580D02*
X60031904Y-152407200D01*
X60031904Y-152407200D02*
X60127142Y-152454819D01*
X60127142Y-152454819D02*
X60508094Y-152454819D01*
X60508094Y-152454819D02*
X60508094Y-151454819D01*
X60508094Y-151454819D02*
X60174761Y-151454819D01*
X60174761Y-151454819D02*
X60079523Y-151502438D01*
X60079523Y-151502438D02*
X60031904Y-151550057D01*
X60031904Y-151550057D02*
X59984285Y-151645295D01*
X59984285Y-151645295D02*
X59984285Y-151740533D01*
X59984285Y-151740533D02*
X60031904Y-151835771D01*
X60031904Y-151835771D02*
X60079523Y-151883390D01*
X60079523Y-151883390D02*
X60174761Y-151931009D01*
X60174761Y-151931009D02*
X60508094Y-151931009D01*
X58936666Y-152359580D02*
X58984285Y-152407200D01*
X58984285Y-152407200D02*
X59127142Y-152454819D01*
X59127142Y-152454819D02*
X59222380Y-152454819D01*
X59222380Y-152454819D02*
X59365237Y-152407200D01*
X59365237Y-152407200D02*
X59460475Y-152311961D01*
X59460475Y-152311961D02*
X59508094Y-152216723D01*
X59508094Y-152216723D02*
X59555713Y-152026247D01*
X59555713Y-152026247D02*
X59555713Y-151883390D01*
X59555713Y-151883390D02*
X59508094Y-151692914D01*
X59508094Y-151692914D02*
X59460475Y-151597676D01*
X59460475Y-151597676D02*
X59365237Y-151502438D01*
X59365237Y-151502438D02*
X59222380Y-151454819D01*
X59222380Y-151454819D02*
X59127142Y-151454819D01*
X59127142Y-151454819D02*
X58984285Y-151502438D01*
X58984285Y-151502438D02*
X58936666Y-151550057D01*
X58079523Y-151788152D02*
X58079523Y-152454819D01*
X58317618Y-151407200D02*
X58555713Y-152121485D01*
X58555713Y-152121485D02*
X57936666Y-152121485D01*
D11*
%TO.C,BC7*%
X44535000Y-149738747D02*
X44535000Y-150261253D01*
X46005000Y-149738747D02*
X46005000Y-150261253D01*
%TO.C,BC6*%
X40468747Y-153265000D02*
X40991253Y-153265000D01*
X40468747Y-154735000D02*
X40991253Y-154735000D01*
%TO.C,P5*%
X47390000Y-156670000D02*
X47390000Y-158000000D01*
X48720000Y-156670000D02*
X47390000Y-156670000D01*
X49990001Y-156670000D02*
X49990001Y-159330000D01*
X49990001Y-156670000D02*
X52590000Y-156670000D01*
X49990001Y-159330000D02*
X52590000Y-159330000D01*
X52590000Y-156670000D02*
X52590000Y-159330000D01*
%TO.C,BC5*%
X49738747Y-153265000D02*
X50261253Y-153265000D01*
X49738747Y-154735000D02*
X50261253Y-154735000D01*
%TO.C,BC1*%
X40991253Y-145265000D02*
X40468747Y-145265000D01*
X40991253Y-146735000D02*
X40468747Y-146735000D01*
%TO.C,P4*%
X56755000Y-156670000D02*
X56755000Y-158000000D01*
X58085000Y-156670000D02*
X56755000Y-156670000D01*
X59355001Y-156670000D02*
X59355001Y-159330000D01*
X59355001Y-156670000D02*
X61955000Y-156670000D01*
X59355001Y-159330000D02*
X61955000Y-159330000D01*
X61955000Y-156670000D02*
X61955000Y-159330000D01*
%TO.C,J2*%
X80745107Y-161266892D02*
X65245107Y-161266892D01*
X80745107Y-152146892D02*
X80745107Y-161266892D01*
X79445107Y-159956892D02*
X66545107Y-159956892D01*
X79445107Y-153456893D02*
X79445107Y-159956892D01*
X75045108Y-153456892D02*
X79445107Y-153456893D01*
X75045108Y-153456892D02*
X75045108Y-153456892D01*
X75045107Y-152146892D02*
X75045108Y-153456892D01*
X70955107Y-150756892D02*
X69955107Y-150756892D01*
X70945107Y-153456892D02*
X70945107Y-152146892D01*
X70455107Y-151756892D02*
X70955107Y-150756892D01*
X69955107Y-150756892D02*
X70455107Y-151756892D01*
X66545107Y-159956892D02*
X66545107Y-153456892D01*
X66545107Y-153456892D02*
X70945107Y-153456892D01*
X65245107Y-161266892D02*
X65245107Y-152146892D01*
X65245107Y-152146892D02*
X80745107Y-152146892D01*
%TO.C,P1*%
X38035000Y-143330000D02*
X38035000Y-140670000D01*
X40634999Y-140670000D02*
X38035000Y-140670000D01*
X40634999Y-143330000D02*
X38035000Y-143330000D01*
X40634999Y-143330000D02*
X40634999Y-140670000D01*
X41905000Y-143330000D02*
X43235000Y-143330000D01*
X43235000Y-143330000D02*
X43235000Y-142000000D01*
%TO.C,P3*%
X56765000Y-143330000D02*
X56765000Y-140670000D01*
X59364999Y-140670000D02*
X56765000Y-140670000D01*
X59364999Y-143330000D02*
X56765000Y-143330000D01*
X59364999Y-143330000D02*
X59364999Y-140670000D01*
X60635000Y-143330000D02*
X61965000Y-143330000D01*
X61965000Y-143330000D02*
X61965000Y-142000000D01*
%TO.C,BC2*%
X50261253Y-145265000D02*
X49738747Y-145265000D01*
X50261253Y-146735000D02*
X49738747Y-146735000D01*
%TO.C,P2*%
X47400000Y-143330000D02*
X47400000Y-140670000D01*
X49999999Y-140670000D02*
X47400000Y-140670000D01*
X49999999Y-143330000D02*
X47400000Y-143330000D01*
X49999999Y-143330000D02*
X49999999Y-140670000D01*
X51270000Y-143330000D02*
X52600000Y-143330000D01*
X52600000Y-143330000D02*
X52600000Y-142000000D01*
%TO.C,B3*%
X75235106Y-140336892D02*
G75*
G02*
X70735106Y-140336892I-2250000J0D01*
G01*
X70735106Y-140336892D02*
G75*
G02*
X75235106Y-140336892I2250000J0D01*
G01*
%TO.C,BC3*%
X59531253Y-145265000D02*
X59008747Y-145265000D01*
X59531253Y-146735000D02*
X59008747Y-146735000D01*
%TO.C,P6*%
X38025000Y-156670000D02*
X38025000Y-158000000D01*
X39355000Y-156670000D02*
X38025000Y-156670000D01*
X40625001Y-156670000D02*
X40625001Y-159330000D01*
X40625001Y-156670000D02*
X43225000Y-156670000D01*
X40625001Y-159330000D02*
X43225000Y-159330000D01*
X43225000Y-156670000D02*
X43225000Y-159330000D01*
%TO.C,BC4*%
X59008747Y-153265000D02*
X59531253Y-153265000D01*
X59008747Y-154735000D02*
X59531253Y-154735000D01*
%TD*%
%LPC*%
D12*
%TO.C,*%
X62902000Y-148734000D03*
%TD*%
%TO.C,*%
X62902000Y-152734000D03*
%TD*%
%TO.C,*%
X62902000Y-153234000D03*
%TD*%
%TO.C,*%
X62902000Y-150234000D03*
%TD*%
%TO.C,*%
X62902000Y-149734000D03*
%TD*%
%TO.C,*%
X62902000Y-152234000D03*
%TD*%
%TO.C,*%
X62902000Y-151234000D03*
%TD*%
%TO.C,*%
X62902000Y-150734000D03*
%TD*%
%TO.C,*%
X62902000Y-151734000D03*
%TD*%
%TO.C,*%
X62902000Y-149234000D03*
%TD*%
%TO.C,*%
X65094000Y-153260000D03*
%TD*%
%TO.C,*%
X65094000Y-152760000D03*
%TD*%
%TO.C,*%
X65094000Y-152260000D03*
%TD*%
%TO.C,*%
X65094000Y-151760000D03*
%TD*%
%TO.C,*%
X65094000Y-151260000D03*
%TD*%
%TO.C,*%
X65094000Y-150760000D03*
%TD*%
%TO.C,*%
X65094000Y-150260000D03*
%TD*%
%TO.C,*%
X65094000Y-149760000D03*
%TD*%
%TO.C,*%
X65094000Y-149260000D03*
%TD*%
%TO.C,*%
X65094000Y-148760000D03*
%TD*%
D13*
%TO.C,J3*%
X52540000Y-148730000D03*
D14*
X52540000Y-151270000D03*
X50000000Y-148730000D03*
X50000000Y-151270000D03*
X47460001Y-148730000D03*
X47460000Y-151270000D03*
%TD*%
D15*
%TO.C,BC7*%
X45270000Y-148962500D03*
X45270000Y-151037500D03*
%TD*%
D16*
%TO.C,BC6*%
X39692500Y-154000000D03*
X41767500Y-154000000D03*
%TD*%
D17*
%TO.C,P5*%
X48720000Y-158000000D03*
D18*
X51260000Y-158000000D03*
%TD*%
D16*
%TO.C,BC5*%
X48962500Y-154000000D03*
X51037500Y-154000000D03*
%TD*%
D19*
%TO.C,BC1*%
X41767500Y-146000000D03*
X39692500Y-146000000D03*
%TD*%
D17*
%TO.C,P4*%
X58085000Y-158000000D03*
D18*
X60625000Y-158000000D03*
%TD*%
D20*
%TO.C,SAO-P2*%
X72845106Y-140336892D03*
%TD*%
D14*
%TO.C,J2*%
X75535107Y-157976892D03*
X75535106Y-155436892D03*
X72995107Y-157976892D03*
X72995107Y-155436892D03*
X70455107Y-157976892D03*
D13*
X70455107Y-155436892D03*
%TD*%
D17*
%TO.C,P1*%
X41905000Y-142000000D03*
D18*
X39365000Y-142000000D03*
%TD*%
D17*
%TO.C,P3*%
X60635000Y-142000000D03*
D18*
X58095000Y-142000000D03*
%TD*%
D19*
%TO.C,BC2*%
X51037500Y-146000000D03*
X48962500Y-146000000D03*
%TD*%
D17*
%TO.C,P2*%
X51270000Y-142000000D03*
D18*
X48730000Y-142000000D03*
%TD*%
D21*
%TO.C,B3*%
X72985106Y-140336892D03*
%TD*%
D19*
%TO.C,BC3*%
X60307500Y-146000000D03*
X58232500Y-146000000D03*
%TD*%
D17*
%TO.C,P6*%
X39355000Y-158000000D03*
D18*
X41895000Y-158000000D03*
%TD*%
D16*
%TO.C,BC4*%
X58232500Y-154000000D03*
X60307500Y-154000000D03*
%TD*%
%LPD*%
M02*
