%TF.GenerationSoftware,KiCad,Pcbnew,9.0.0*%
%TF.CreationDate,2025-02-26T16:04:52-06:00*%
%TF.ProjectId,SAO-CR1616,53414f2d-4352-4313-9631-362e6b696361,rev?*%
%TF.SameCoordinates,Original*%
%TF.FileFunction,Drillmap*%
%TF.FilePolarity,Positive*%
%FSLAX45Y45*%
G04 Gerber Fmt 4.5, Leading zero omitted, Abs format (unit mm)*
G04 Created by KiCad (PCBNEW 9.0.0) date 2025-02-26 16:04:52*
%MOMM*%
%LPD*%
G01*
G04 APERTURE LIST*
%ADD10C,0.100000*%
%ADD11C,0.200000*%
G04 APERTURE END LIST*
D10*
X6598511Y-16183689D02*
X7998511Y-16183689D01*
X7873982Y-13477962D02*
X7833815Y-13439173D01*
X6231869Y-16150368D02*
X6250368Y-16131869D01*
X3720625Y-16088458D02*
X3733706Y-16111114D01*
X3788886Y-13833706D02*
X3768131Y-13849632D01*
X3860982Y-13803843D02*
X3835712Y-13810614D01*
X6620072Y-13609754D02*
X6592153Y-13658112D01*
X3703843Y-13960982D02*
X3700000Y-13986919D01*
X6475981Y-14862967D02*
X6462222Y-14876725D01*
X3700000Y-13986919D02*
X3700000Y-16013081D01*
X8081658Y-16139246D02*
X8090899Y-16121957D01*
X7545724Y-13272844D02*
X7492048Y-13257452D01*
X6408984Y-14898777D02*
X6389527Y-14898777D01*
X6763206Y-13439173D02*
X6723039Y-13477962D01*
X3749632Y-16131869D02*
X3768131Y-16150368D01*
X8098511Y-14033689D02*
X8096562Y-13977884D01*
X6164288Y-16189386D02*
X6188458Y-16179374D01*
X3835712Y-13810614D02*
X3811542Y-13820625D01*
X6542954Y-16166836D02*
X6560242Y-16176077D01*
X6289386Y-16064288D02*
X6296157Y-16039018D01*
X6408984Y-15301222D02*
X6428068Y-15305018D01*
X3720625Y-13911542D02*
X3710614Y-13935712D01*
X6113081Y-13800000D02*
X3886919Y-13800000D01*
X6188458Y-13820625D02*
X6164288Y-13810614D01*
X6428068Y-14894981D02*
X6408984Y-14898777D01*
X8090899Y-16121957D02*
X8096589Y-16103198D01*
X6498511Y-16083689D02*
X6500432Y-16103198D01*
X7745865Y-13370459D02*
X7698511Y-13340869D01*
X6851156Y-13370459D02*
X6805982Y-13403281D01*
X6336288Y-14876725D02*
X6322530Y-14862967D01*
X6322530Y-15337033D02*
X6336288Y-15323274D01*
X6279374Y-13911542D02*
X6266294Y-13888886D01*
X8067520Y-13813179D02*
X8050265Y-13760073D01*
X6515364Y-16139246D02*
X6527800Y-16154400D01*
X6475981Y-15337033D02*
X6486791Y-15353211D01*
X8054068Y-16166836D02*
X8069221Y-16154400D01*
X6898511Y-13340869D02*
X6851156Y-13370459D01*
X7104973Y-13257452D02*
X7051297Y-13272844D01*
X3700000Y-16013081D02*
X3703843Y-16039018D01*
X3733706Y-13888886D02*
X3720625Y-13911542D01*
X8004869Y-13658112D02*
X7976949Y-13609754D01*
X6304274Y-15371188D02*
X6311720Y-15353211D01*
X6164288Y-13810614D02*
X6139018Y-13803843D01*
X6527800Y-16154400D02*
X6542954Y-16166836D01*
X6352467Y-14887535D02*
X6336288Y-14876725D01*
X6723039Y-13477962D02*
X6685675Y-13519459D01*
X6211114Y-13833706D02*
X6188458Y-13820625D01*
X6266294Y-13888886D02*
X6250368Y-13868131D01*
X6389527Y-15301222D02*
X6408984Y-15301222D01*
X6506123Y-16121958D02*
X6515364Y-16139246D01*
X6211114Y-16166294D02*
X6231869Y-16150368D01*
X7214888Y-13238072D02*
X7159592Y-13245843D01*
X6113081Y-16200000D02*
X6139018Y-16196157D01*
X7911346Y-13519459D02*
X7873982Y-13477962D01*
X6389527Y-14898777D02*
X6370443Y-14894981D01*
X6428068Y-15305018D02*
X6446044Y-15312465D01*
X6279374Y-16088458D02*
X6289386Y-16064288D01*
X6266294Y-16111114D02*
X6279374Y-16088458D01*
X6322530Y-14862967D02*
X6311720Y-14846789D01*
X6685675Y-13519459D02*
X6651297Y-13563461D01*
X3886919Y-13800000D02*
X3860982Y-13803843D01*
X3835712Y-16189386D02*
X3860982Y-16196157D01*
X7382134Y-13238072D02*
X7326430Y-13234176D01*
X3710614Y-13935712D02*
X3703843Y-13960982D01*
X7945724Y-13563461D02*
X7911346Y-13519459D01*
X3811542Y-13820625D02*
X3788886Y-13833706D01*
X6300000Y-14809729D02*
X6300000Y-13986919D01*
X8090725Y-13922351D02*
X8081029Y-13867360D01*
X6546757Y-13760073D02*
X6529501Y-13813179D01*
X3768131Y-16150368D02*
X3788886Y-16166294D01*
X8098511Y-16083689D02*
X8098511Y-14033689D01*
X8081029Y-13867360D02*
X8067520Y-13813179D01*
X6498511Y-15390271D02*
X6498511Y-16083689D01*
X6486791Y-14846789D02*
X6475981Y-14862967D01*
X6506296Y-13922351D02*
X6500459Y-13977884D01*
X6500459Y-13977884D02*
X6498511Y-14033689D01*
X8096589Y-16103198D02*
X8098511Y-16083689D01*
X8096562Y-13977884D02*
X8090725Y-13922351D01*
X8029347Y-13708300D02*
X8004869Y-13658112D01*
X6592153Y-13658112D02*
X6567674Y-13708300D01*
X6805982Y-13403281D02*
X6763206Y-13439173D01*
X3860982Y-16196157D02*
X3886919Y-16200000D01*
X6498511Y-14809729D02*
X6494237Y-14828812D01*
X6998825Y-13291942D02*
X6947814Y-13314654D01*
X6231869Y-13849632D02*
X6211114Y-13833706D01*
X6567674Y-13708300D02*
X6546757Y-13760073D01*
X8050265Y-13760073D02*
X8029347Y-13708300D01*
X6188458Y-16179374D02*
X6211114Y-16166294D01*
X6494237Y-14828812D02*
X6486791Y-14846789D01*
X8018020Y-16181768D02*
X8036779Y-16176077D01*
X6515992Y-13867360D02*
X6506296Y-13922351D01*
X6300000Y-16013081D02*
X6300000Y-15390271D01*
X8036779Y-16176077D02*
X8054068Y-16166836D01*
X6462222Y-14876725D02*
X6446044Y-14887535D01*
X3811542Y-16179374D02*
X3835712Y-16189386D01*
X7270591Y-13234176D02*
X7214888Y-13238072D01*
X6352467Y-15312465D02*
X6370443Y-15305018D01*
X3733706Y-16111114D02*
X3749632Y-16131869D01*
X6311720Y-15353211D02*
X6322530Y-15337033D01*
X6370443Y-15305018D02*
X6389527Y-15301222D01*
X6500432Y-16103198D02*
X6506123Y-16121958D01*
X6462222Y-15323274D02*
X6475981Y-15337033D01*
X7598196Y-13291942D02*
X7545724Y-13272844D01*
X6289386Y-13935712D02*
X6279374Y-13911542D01*
X6300000Y-13986919D02*
X6296157Y-13960982D01*
X6498511Y-14033689D02*
X6498511Y-14809729D01*
X6139018Y-13803843D02*
X6113081Y-13800000D01*
X3788886Y-16166294D02*
X3811542Y-16179374D01*
X7437429Y-13245843D02*
X7382134Y-13238072D01*
X7791040Y-13403281D02*
X7745865Y-13370459D01*
X6296157Y-16039018D02*
X6300000Y-16013081D01*
X7326430Y-13234176D02*
X7270591Y-13234176D01*
X6304274Y-14828812D02*
X6300000Y-14809729D01*
X7833815Y-13439173D02*
X7791040Y-13403281D01*
X3749632Y-13868131D02*
X3733706Y-13888886D01*
X6370443Y-14894981D02*
X6352467Y-14887535D01*
X7159592Y-13245843D02*
X7104973Y-13257452D01*
X6250368Y-13868131D02*
X6231869Y-13849632D01*
X3886919Y-16200000D02*
X6113081Y-16200000D01*
X6250368Y-16131869D02*
X6266294Y-16111114D01*
X6336288Y-15323274D02*
X6352467Y-15312465D01*
X3703843Y-16039018D02*
X3710614Y-16064288D01*
X7492048Y-13257452D02*
X7437429Y-13245843D01*
X7698511Y-13340869D02*
X7649208Y-13314654D01*
X6651297Y-13563461D02*
X6620072Y-13609754D01*
X6446044Y-14887535D02*
X6428068Y-14894981D01*
X6947814Y-13314654D02*
X6898511Y-13340869D01*
X6560242Y-16176077D02*
X6579002Y-16181768D01*
X6579002Y-16181768D02*
X6598511Y-16183689D01*
X8069221Y-16154400D02*
X8081658Y-16139246D01*
X7649208Y-13314654D02*
X7598196Y-13291942D01*
X6494237Y-15371188D02*
X6498511Y-15390271D01*
X7051297Y-13272844D02*
X6998825Y-13291942D01*
X3710614Y-16064288D02*
X3720625Y-16088458D01*
X6296157Y-13960982D02*
X6289386Y-13935712D01*
X6139018Y-16196157D02*
X6164288Y-16189386D01*
X6529501Y-13813179D02*
X6515992Y-13867360D01*
X6486791Y-15353211D02*
X6494237Y-15371188D01*
X7976949Y-13609754D02*
X7945724Y-13563461D01*
X6446044Y-15312465D02*
X6462222Y-15323274D01*
X6300000Y-15390271D02*
X6304274Y-15371188D01*
X7998511Y-16183689D02*
X8018020Y-16181768D01*
X3768131Y-13849632D02*
X3749632Y-13868131D01*
X6311720Y-14846789D02*
X6304274Y-14828812D01*
D11*
D10*
X6583711Y-14487289D02*
X6613711Y-14517289D01*
X6613711Y-14487289D02*
X6583711Y-14517289D01*
X6583711Y-16087489D02*
X6613711Y-16117489D01*
X6613711Y-16087489D02*
X6583711Y-16117489D01*
X6891897Y-15267930D02*
X6921897Y-15297930D01*
X6921897Y-15267930D02*
X6891897Y-15297930D01*
X7145280Y-14990659D02*
X7175280Y-15020659D01*
X7175280Y-14990659D02*
X7145280Y-15020659D01*
X7149911Y-14804955D02*
X7179911Y-14834955D01*
X7179911Y-14804955D02*
X7149911Y-14834955D01*
X7175511Y-15376289D02*
X7205511Y-15406289D01*
X7205511Y-15376289D02*
X7175511Y-15406289D01*
X7429540Y-15099941D02*
X7459540Y-15129941D01*
X7459540Y-15099941D02*
X7429540Y-15129941D01*
X7439911Y-14801258D02*
X7469911Y-14831258D01*
X7469911Y-14801258D02*
X7439911Y-14831258D01*
X7980711Y-16087489D02*
X8010711Y-16117489D01*
X8010711Y-16087489D02*
X7980711Y-16117489D01*
X8008511Y-14360289D02*
X8038511Y-14390289D01*
X8038511Y-14360289D02*
X8008511Y-14390289D01*
X3965500Y-15800000D02*
G75*
G02*
X3905500Y-15800000I-30000J0D01*
G01*
X3905500Y-15800000D02*
G75*
G02*
X3965500Y-15800000I30000J0D01*
G01*
X3966500Y-14200000D02*
G75*
G02*
X3906500Y-14200000I-30000J0D01*
G01*
X3906500Y-14200000D02*
G75*
G02*
X3966500Y-14200000I30000J0D01*
G01*
X4219500Y-15800000D02*
G75*
G02*
X4159500Y-15800000I-30000J0D01*
G01*
X4159500Y-15800000D02*
G75*
G02*
X4219500Y-15800000I30000J0D01*
G01*
X4220500Y-14200000D02*
G75*
G02*
X4160500Y-14200000I-30000J0D01*
G01*
X4160500Y-14200000D02*
G75*
G02*
X4220500Y-14200000I30000J0D01*
G01*
X4902000Y-15800000D02*
G75*
G02*
X4842000Y-15800000I-30000J0D01*
G01*
X4842000Y-15800000D02*
G75*
G02*
X4902000Y-15800000I30000J0D01*
G01*
X4903000Y-14200000D02*
G75*
G02*
X4843000Y-14200000I-30000J0D01*
G01*
X4843000Y-14200000D02*
G75*
G02*
X4903000Y-14200000I30000J0D01*
G01*
X5156000Y-15800000D02*
G75*
G02*
X5096000Y-15800000I-30000J0D01*
G01*
X5096000Y-15800000D02*
G75*
G02*
X5156000Y-15800000I30000J0D01*
G01*
X5157000Y-14200000D02*
G75*
G02*
X5097000Y-14200000I-30000J0D01*
G01*
X5097000Y-14200000D02*
G75*
G02*
X5157000Y-14200000I30000J0D01*
G01*
X5838500Y-15800000D02*
G75*
G02*
X5778500Y-15800000I-30000J0D01*
G01*
X5778500Y-15800000D02*
G75*
G02*
X5838500Y-15800000I30000J0D01*
G01*
X5839500Y-14200000D02*
G75*
G02*
X5779500Y-14200000I-30000J0D01*
G01*
X5779500Y-14200000D02*
G75*
G02*
X5839500Y-14200000I30000J0D01*
G01*
X6092500Y-15800000D02*
G75*
G02*
X6032500Y-15800000I-30000J0D01*
G01*
X6032500Y-15800000D02*
G75*
G02*
X6092500Y-15800000I30000J0D01*
G01*
X6093500Y-14200000D02*
G75*
G02*
X6033500Y-14200000I-30000J0D01*
G01*
X6033500Y-14200000D02*
G75*
G02*
X6093500Y-14200000I30000J0D01*
G01*
X4746000Y-15077000D02*
X4746000Y-15177000D01*
X4696000Y-15127000D02*
X4796000Y-15127000D01*
X4746000Y-14823000D02*
X4746000Y-14923000D01*
X4696000Y-14873000D02*
X4796000Y-14873000D01*
X5000000Y-14823000D02*
X5000000Y-14923000D01*
X4950000Y-14873000D02*
X5050000Y-14873000D01*
X5000000Y-15077000D02*
X5000000Y-15177000D01*
X4950000Y-15127000D02*
X5050000Y-15127000D01*
X5254000Y-14823000D02*
X5254000Y-14923000D01*
X5204000Y-14873000D02*
X5304000Y-14873000D01*
X5254000Y-15077000D02*
X5254000Y-15177000D01*
X5204000Y-15127000D02*
X5304000Y-15127000D01*
X7045511Y-15493689D02*
X7045511Y-15593689D01*
X6995511Y-15543689D02*
X7095511Y-15543689D01*
X7045511Y-15747689D02*
X7045511Y-15847689D01*
X6995511Y-15797689D02*
X7095511Y-15797689D01*
X7299511Y-15493689D02*
X7299511Y-15593689D01*
X7249511Y-15543689D02*
X7349511Y-15543689D01*
X7299511Y-15747689D02*
X7299511Y-15847689D01*
X7249511Y-15797689D02*
X7349511Y-15797689D01*
X7553511Y-15493689D02*
X7553511Y-15593689D01*
X7503511Y-15543689D02*
X7603511Y-15543689D01*
X7553511Y-15747689D02*
X7553511Y-15847689D01*
X7503511Y-15797689D02*
X7603511Y-15797689D01*
D11*
X3955777Y-16516484D02*
X3955777Y-16316484D01*
X3955777Y-16316484D02*
X4003396Y-16316484D01*
X4003396Y-16316484D02*
X4031967Y-16326008D01*
X4031967Y-16326008D02*
X4051015Y-16345055D01*
X4051015Y-16345055D02*
X4060539Y-16364103D01*
X4060539Y-16364103D02*
X4070062Y-16402198D01*
X4070062Y-16402198D02*
X4070062Y-16430769D01*
X4070062Y-16430769D02*
X4060539Y-16468865D01*
X4060539Y-16468865D02*
X4051015Y-16487912D01*
X4051015Y-16487912D02*
X4031967Y-16506960D01*
X4031967Y-16506960D02*
X4003396Y-16516484D01*
X4003396Y-16516484D02*
X3955777Y-16516484D01*
X4155777Y-16516484D02*
X4155777Y-16383150D01*
X4155777Y-16421246D02*
X4165301Y-16402198D01*
X4165301Y-16402198D02*
X4174824Y-16392674D01*
X4174824Y-16392674D02*
X4193872Y-16383150D01*
X4193872Y-16383150D02*
X4212920Y-16383150D01*
X4279586Y-16516484D02*
X4279586Y-16383150D01*
X4279586Y-16316484D02*
X4270063Y-16326008D01*
X4270063Y-16326008D02*
X4279586Y-16335531D01*
X4279586Y-16335531D02*
X4289110Y-16326008D01*
X4289110Y-16326008D02*
X4279586Y-16316484D01*
X4279586Y-16316484D02*
X4279586Y-16335531D01*
X4403396Y-16516484D02*
X4384348Y-16506960D01*
X4384348Y-16506960D02*
X4374824Y-16487912D01*
X4374824Y-16487912D02*
X4374824Y-16316484D01*
X4508158Y-16516484D02*
X4489110Y-16506960D01*
X4489110Y-16506960D02*
X4479586Y-16487912D01*
X4479586Y-16487912D02*
X4479586Y-16316484D01*
X4736729Y-16516484D02*
X4736729Y-16316484D01*
X4736729Y-16316484D02*
X4803396Y-16459341D01*
X4803396Y-16459341D02*
X4870063Y-16316484D01*
X4870063Y-16316484D02*
X4870063Y-16516484D01*
X5051015Y-16516484D02*
X5051015Y-16411722D01*
X5051015Y-16411722D02*
X5041491Y-16392674D01*
X5041491Y-16392674D02*
X5022444Y-16383150D01*
X5022444Y-16383150D02*
X4984348Y-16383150D01*
X4984348Y-16383150D02*
X4965301Y-16392674D01*
X5051015Y-16506960D02*
X5031967Y-16516484D01*
X5031967Y-16516484D02*
X4984348Y-16516484D01*
X4984348Y-16516484D02*
X4965301Y-16506960D01*
X4965301Y-16506960D02*
X4955777Y-16487912D01*
X4955777Y-16487912D02*
X4955777Y-16468865D01*
X4955777Y-16468865D02*
X4965301Y-16449817D01*
X4965301Y-16449817D02*
X4984348Y-16440293D01*
X4984348Y-16440293D02*
X5031967Y-16440293D01*
X5031967Y-16440293D02*
X5051015Y-16430769D01*
X5146253Y-16383150D02*
X5146253Y-16583150D01*
X5146253Y-16392674D02*
X5165301Y-16383150D01*
X5165301Y-16383150D02*
X5203396Y-16383150D01*
X5203396Y-16383150D02*
X5222444Y-16392674D01*
X5222444Y-16392674D02*
X5231967Y-16402198D01*
X5231967Y-16402198D02*
X5241491Y-16421246D01*
X5241491Y-16421246D02*
X5241491Y-16478388D01*
X5241491Y-16478388D02*
X5231967Y-16497436D01*
X5231967Y-16497436D02*
X5222444Y-16506960D01*
X5222444Y-16506960D02*
X5203396Y-16516484D01*
X5203396Y-16516484D02*
X5165301Y-16516484D01*
X5165301Y-16516484D02*
X5146253Y-16506960D01*
X5327205Y-16497436D02*
X5336729Y-16506960D01*
X5336729Y-16506960D02*
X5327205Y-16516484D01*
X5327205Y-16516484D02*
X5317682Y-16506960D01*
X5317682Y-16506960D02*
X5327205Y-16497436D01*
X5327205Y-16497436D02*
X5327205Y-16516484D01*
X5327205Y-16392674D02*
X5336729Y-16402198D01*
X5336729Y-16402198D02*
X5327205Y-16411722D01*
X5327205Y-16411722D02*
X5317682Y-16402198D01*
X5317682Y-16402198D02*
X5327205Y-16392674D01*
X5327205Y-16392674D02*
X5327205Y-16411722D01*
D10*
X3665000Y-16830000D02*
X3695000Y-16860000D01*
X3695000Y-16830000D02*
X3665000Y-16860000D01*
D11*
X3993872Y-16736484D02*
X4012920Y-16736484D01*
X4012920Y-16736484D02*
X4031967Y-16746008D01*
X4031967Y-16746008D02*
X4041491Y-16755531D01*
X4041491Y-16755531D02*
X4051015Y-16774579D01*
X4051015Y-16774579D02*
X4060539Y-16812674D01*
X4060539Y-16812674D02*
X4060539Y-16860293D01*
X4060539Y-16860293D02*
X4051015Y-16898389D01*
X4051015Y-16898389D02*
X4041491Y-16917436D01*
X4041491Y-16917436D02*
X4031967Y-16926960D01*
X4031967Y-16926960D02*
X4012920Y-16936484D01*
X4012920Y-16936484D02*
X3993872Y-16936484D01*
X3993872Y-16936484D02*
X3974824Y-16926960D01*
X3974824Y-16926960D02*
X3965301Y-16917436D01*
X3965301Y-16917436D02*
X3955777Y-16898389D01*
X3955777Y-16898389D02*
X3946253Y-16860293D01*
X3946253Y-16860293D02*
X3946253Y-16812674D01*
X3946253Y-16812674D02*
X3955777Y-16774579D01*
X3955777Y-16774579D02*
X3965301Y-16755531D01*
X3965301Y-16755531D02*
X3974824Y-16746008D01*
X3974824Y-16746008D02*
X3993872Y-16736484D01*
X4146253Y-16917436D02*
X4155777Y-16926960D01*
X4155777Y-16926960D02*
X4146253Y-16936484D01*
X4146253Y-16936484D02*
X4136729Y-16926960D01*
X4136729Y-16926960D02*
X4146253Y-16917436D01*
X4146253Y-16917436D02*
X4146253Y-16936484D01*
X4222444Y-16736484D02*
X4346253Y-16736484D01*
X4346253Y-16736484D02*
X4279586Y-16812674D01*
X4279586Y-16812674D02*
X4308158Y-16812674D01*
X4308158Y-16812674D02*
X4327205Y-16822198D01*
X4327205Y-16822198D02*
X4336729Y-16831722D01*
X4336729Y-16831722D02*
X4346253Y-16850770D01*
X4346253Y-16850770D02*
X4346253Y-16898389D01*
X4346253Y-16898389D02*
X4336729Y-16917436D01*
X4336729Y-16917436D02*
X4327205Y-16926960D01*
X4327205Y-16926960D02*
X4308158Y-16936484D01*
X4308158Y-16936484D02*
X4251015Y-16936484D01*
X4251015Y-16936484D02*
X4231967Y-16926960D01*
X4231967Y-16926960D02*
X4222444Y-16917436D01*
X4470063Y-16736484D02*
X4489110Y-16736484D01*
X4489110Y-16736484D02*
X4508158Y-16746008D01*
X4508158Y-16746008D02*
X4517682Y-16755531D01*
X4517682Y-16755531D02*
X4527205Y-16774579D01*
X4527205Y-16774579D02*
X4536729Y-16812674D01*
X4536729Y-16812674D02*
X4536729Y-16860293D01*
X4536729Y-16860293D02*
X4527205Y-16898389D01*
X4527205Y-16898389D02*
X4517682Y-16917436D01*
X4517682Y-16917436D02*
X4508158Y-16926960D01*
X4508158Y-16926960D02*
X4489110Y-16936484D01*
X4489110Y-16936484D02*
X4470063Y-16936484D01*
X4470063Y-16936484D02*
X4451015Y-16926960D01*
X4451015Y-16926960D02*
X4441491Y-16917436D01*
X4441491Y-16917436D02*
X4431967Y-16898389D01*
X4431967Y-16898389D02*
X4422444Y-16860293D01*
X4422444Y-16860293D02*
X4422444Y-16812674D01*
X4422444Y-16812674D02*
X4431967Y-16774579D01*
X4431967Y-16774579D02*
X4441491Y-16755531D01*
X4441491Y-16755531D02*
X4451015Y-16746008D01*
X4451015Y-16746008D02*
X4470063Y-16736484D01*
X4660539Y-16736484D02*
X4679586Y-16736484D01*
X4679586Y-16736484D02*
X4698634Y-16746008D01*
X4698634Y-16746008D02*
X4708158Y-16755531D01*
X4708158Y-16755531D02*
X4717682Y-16774579D01*
X4717682Y-16774579D02*
X4727205Y-16812674D01*
X4727205Y-16812674D02*
X4727205Y-16860293D01*
X4727205Y-16860293D02*
X4717682Y-16898389D01*
X4717682Y-16898389D02*
X4708158Y-16917436D01*
X4708158Y-16917436D02*
X4698634Y-16926960D01*
X4698634Y-16926960D02*
X4679586Y-16936484D01*
X4679586Y-16936484D02*
X4660539Y-16936484D01*
X4660539Y-16936484D02*
X4641491Y-16926960D01*
X4641491Y-16926960D02*
X4631967Y-16917436D01*
X4631967Y-16917436D02*
X4622444Y-16898389D01*
X4622444Y-16898389D02*
X4612920Y-16860293D01*
X4612920Y-16860293D02*
X4612920Y-16812674D01*
X4612920Y-16812674D02*
X4622444Y-16774579D01*
X4622444Y-16774579D02*
X4631967Y-16755531D01*
X4631967Y-16755531D02*
X4641491Y-16746008D01*
X4641491Y-16746008D02*
X4660539Y-16736484D01*
X4812920Y-16936484D02*
X4812920Y-16803150D01*
X4812920Y-16822198D02*
X4822444Y-16812674D01*
X4822444Y-16812674D02*
X4841491Y-16803150D01*
X4841491Y-16803150D02*
X4870063Y-16803150D01*
X4870063Y-16803150D02*
X4889110Y-16812674D01*
X4889110Y-16812674D02*
X4898634Y-16831722D01*
X4898634Y-16831722D02*
X4898634Y-16936484D01*
X4898634Y-16831722D02*
X4908158Y-16812674D01*
X4908158Y-16812674D02*
X4927205Y-16803150D01*
X4927205Y-16803150D02*
X4955777Y-16803150D01*
X4955777Y-16803150D02*
X4974825Y-16812674D01*
X4974825Y-16812674D02*
X4984348Y-16831722D01*
X4984348Y-16831722D02*
X4984348Y-16936484D01*
X5079586Y-16936484D02*
X5079586Y-16803150D01*
X5079586Y-16822198D02*
X5089110Y-16812674D01*
X5089110Y-16812674D02*
X5108158Y-16803150D01*
X5108158Y-16803150D02*
X5136729Y-16803150D01*
X5136729Y-16803150D02*
X5155777Y-16812674D01*
X5155777Y-16812674D02*
X5165301Y-16831722D01*
X5165301Y-16831722D02*
X5165301Y-16936484D01*
X5165301Y-16831722D02*
X5174825Y-16812674D01*
X5174825Y-16812674D02*
X5193872Y-16803150D01*
X5193872Y-16803150D02*
X5222444Y-16803150D01*
X5222444Y-16803150D02*
X5241491Y-16812674D01*
X5241491Y-16812674D02*
X5251015Y-16831722D01*
X5251015Y-16831722D02*
X5251015Y-16936484D01*
X5641491Y-16726960D02*
X5470063Y-16984103D01*
X5898634Y-16736484D02*
X5917682Y-16736484D01*
X5917682Y-16736484D02*
X5936729Y-16746008D01*
X5936729Y-16746008D02*
X5946253Y-16755531D01*
X5946253Y-16755531D02*
X5955777Y-16774579D01*
X5955777Y-16774579D02*
X5965301Y-16812674D01*
X5965301Y-16812674D02*
X5965301Y-16860293D01*
X5965301Y-16860293D02*
X5955777Y-16898389D01*
X5955777Y-16898389D02*
X5946253Y-16917436D01*
X5946253Y-16917436D02*
X5936729Y-16926960D01*
X5936729Y-16926960D02*
X5917682Y-16936484D01*
X5917682Y-16936484D02*
X5898634Y-16936484D01*
X5898634Y-16936484D02*
X5879586Y-16926960D01*
X5879586Y-16926960D02*
X5870063Y-16917436D01*
X5870063Y-16917436D02*
X5860539Y-16898389D01*
X5860539Y-16898389D02*
X5851015Y-16860293D01*
X5851015Y-16860293D02*
X5851015Y-16812674D01*
X5851015Y-16812674D02*
X5860539Y-16774579D01*
X5860539Y-16774579D02*
X5870063Y-16755531D01*
X5870063Y-16755531D02*
X5879586Y-16746008D01*
X5879586Y-16746008D02*
X5898634Y-16736484D01*
X6051015Y-16917436D02*
X6060539Y-16926960D01*
X6060539Y-16926960D02*
X6051015Y-16936484D01*
X6051015Y-16936484D02*
X6041491Y-16926960D01*
X6041491Y-16926960D02*
X6051015Y-16917436D01*
X6051015Y-16917436D02*
X6051015Y-16936484D01*
X6184348Y-16736484D02*
X6203396Y-16736484D01*
X6203396Y-16736484D02*
X6222444Y-16746008D01*
X6222444Y-16746008D02*
X6231967Y-16755531D01*
X6231967Y-16755531D02*
X6241491Y-16774579D01*
X6241491Y-16774579D02*
X6251015Y-16812674D01*
X6251015Y-16812674D02*
X6251015Y-16860293D01*
X6251015Y-16860293D02*
X6241491Y-16898389D01*
X6241491Y-16898389D02*
X6231967Y-16917436D01*
X6231967Y-16917436D02*
X6222444Y-16926960D01*
X6222444Y-16926960D02*
X6203396Y-16936484D01*
X6203396Y-16936484D02*
X6184348Y-16936484D01*
X6184348Y-16936484D02*
X6165301Y-16926960D01*
X6165301Y-16926960D02*
X6155777Y-16917436D01*
X6155777Y-16917436D02*
X6146253Y-16898389D01*
X6146253Y-16898389D02*
X6136729Y-16860293D01*
X6136729Y-16860293D02*
X6136729Y-16812674D01*
X6136729Y-16812674D02*
X6146253Y-16774579D01*
X6146253Y-16774579D02*
X6155777Y-16755531D01*
X6155777Y-16755531D02*
X6165301Y-16746008D01*
X6165301Y-16746008D02*
X6184348Y-16736484D01*
X6441491Y-16936484D02*
X6327206Y-16936484D01*
X6384348Y-16936484D02*
X6384348Y-16736484D01*
X6384348Y-16736484D02*
X6365301Y-16765055D01*
X6365301Y-16765055D02*
X6346253Y-16784103D01*
X6346253Y-16784103D02*
X6327206Y-16793627D01*
X6631967Y-16936484D02*
X6517682Y-16936484D01*
X6574825Y-16936484D02*
X6574825Y-16736484D01*
X6574825Y-16736484D02*
X6555777Y-16765055D01*
X6555777Y-16765055D02*
X6536729Y-16784103D01*
X6536729Y-16784103D02*
X6517682Y-16793627D01*
X6746253Y-16822198D02*
X6727206Y-16812674D01*
X6727206Y-16812674D02*
X6717682Y-16803150D01*
X6717682Y-16803150D02*
X6708158Y-16784103D01*
X6708158Y-16784103D02*
X6708158Y-16774579D01*
X6708158Y-16774579D02*
X6717682Y-16755531D01*
X6717682Y-16755531D02*
X6727206Y-16746008D01*
X6727206Y-16746008D02*
X6746253Y-16736484D01*
X6746253Y-16736484D02*
X6784348Y-16736484D01*
X6784348Y-16736484D02*
X6803396Y-16746008D01*
X6803396Y-16746008D02*
X6812920Y-16755531D01*
X6812920Y-16755531D02*
X6822444Y-16774579D01*
X6822444Y-16774579D02*
X6822444Y-16784103D01*
X6822444Y-16784103D02*
X6812920Y-16803150D01*
X6812920Y-16803150D02*
X6803396Y-16812674D01*
X6803396Y-16812674D02*
X6784348Y-16822198D01*
X6784348Y-16822198D02*
X6746253Y-16822198D01*
X6746253Y-16822198D02*
X6727206Y-16831722D01*
X6727206Y-16831722D02*
X6717682Y-16841246D01*
X6717682Y-16841246D02*
X6708158Y-16860293D01*
X6708158Y-16860293D02*
X6708158Y-16898389D01*
X6708158Y-16898389D02*
X6717682Y-16917436D01*
X6717682Y-16917436D02*
X6727206Y-16926960D01*
X6727206Y-16926960D02*
X6746253Y-16936484D01*
X6746253Y-16936484D02*
X6784348Y-16936484D01*
X6784348Y-16936484D02*
X6803396Y-16926960D01*
X6803396Y-16926960D02*
X6812920Y-16917436D01*
X6812920Y-16917436D02*
X6822444Y-16898389D01*
X6822444Y-16898389D02*
X6822444Y-16860293D01*
X6822444Y-16860293D02*
X6812920Y-16841246D01*
X6812920Y-16841246D02*
X6803396Y-16831722D01*
X6803396Y-16831722D02*
X6784348Y-16822198D01*
X6898634Y-16736484D02*
X6898634Y-16774579D01*
X6974825Y-16736484D02*
X6974825Y-16774579D01*
X7270063Y-17012674D02*
X7260539Y-17003150D01*
X7260539Y-17003150D02*
X7241491Y-16974579D01*
X7241491Y-16974579D02*
X7231968Y-16955531D01*
X7231968Y-16955531D02*
X7222444Y-16926960D01*
X7222444Y-16926960D02*
X7212920Y-16879341D01*
X7212920Y-16879341D02*
X7212920Y-16841246D01*
X7212920Y-16841246D02*
X7222444Y-16793627D01*
X7222444Y-16793627D02*
X7231968Y-16765055D01*
X7231968Y-16765055D02*
X7241491Y-16746008D01*
X7241491Y-16746008D02*
X7260539Y-16717436D01*
X7260539Y-16717436D02*
X7270063Y-16707912D01*
X7451015Y-16936484D02*
X7336729Y-16936484D01*
X7393872Y-16936484D02*
X7393872Y-16736484D01*
X7393872Y-16736484D02*
X7374825Y-16765055D01*
X7374825Y-16765055D02*
X7355777Y-16784103D01*
X7355777Y-16784103D02*
X7336729Y-16793627D01*
X7574825Y-16736484D02*
X7593872Y-16736484D01*
X7593872Y-16736484D02*
X7612920Y-16746008D01*
X7612920Y-16746008D02*
X7622444Y-16755531D01*
X7622444Y-16755531D02*
X7631968Y-16774579D01*
X7631968Y-16774579D02*
X7641491Y-16812674D01*
X7641491Y-16812674D02*
X7641491Y-16860293D01*
X7641491Y-16860293D02*
X7631968Y-16898389D01*
X7631968Y-16898389D02*
X7622444Y-16917436D01*
X7622444Y-16917436D02*
X7612920Y-16926960D01*
X7612920Y-16926960D02*
X7593872Y-16936484D01*
X7593872Y-16936484D02*
X7574825Y-16936484D01*
X7574825Y-16936484D02*
X7555777Y-16926960D01*
X7555777Y-16926960D02*
X7546253Y-16917436D01*
X7546253Y-16917436D02*
X7536729Y-16898389D01*
X7536729Y-16898389D02*
X7527206Y-16860293D01*
X7527206Y-16860293D02*
X7527206Y-16812674D01*
X7527206Y-16812674D02*
X7536729Y-16774579D01*
X7536729Y-16774579D02*
X7546253Y-16755531D01*
X7546253Y-16755531D02*
X7555777Y-16746008D01*
X7555777Y-16746008D02*
X7574825Y-16736484D01*
X7879587Y-16936484D02*
X7879587Y-16736484D01*
X7965301Y-16936484D02*
X7965301Y-16831722D01*
X7965301Y-16831722D02*
X7955777Y-16812674D01*
X7955777Y-16812674D02*
X7936730Y-16803150D01*
X7936730Y-16803150D02*
X7908158Y-16803150D01*
X7908158Y-16803150D02*
X7889110Y-16812674D01*
X7889110Y-16812674D02*
X7879587Y-16822198D01*
X8089110Y-16936484D02*
X8070063Y-16926960D01*
X8070063Y-16926960D02*
X8060539Y-16917436D01*
X8060539Y-16917436D02*
X8051015Y-16898389D01*
X8051015Y-16898389D02*
X8051015Y-16841246D01*
X8051015Y-16841246D02*
X8060539Y-16822198D01*
X8060539Y-16822198D02*
X8070063Y-16812674D01*
X8070063Y-16812674D02*
X8089110Y-16803150D01*
X8089110Y-16803150D02*
X8117682Y-16803150D01*
X8117682Y-16803150D02*
X8136730Y-16812674D01*
X8136730Y-16812674D02*
X8146253Y-16822198D01*
X8146253Y-16822198D02*
X8155777Y-16841246D01*
X8155777Y-16841246D02*
X8155777Y-16898389D01*
X8155777Y-16898389D02*
X8146253Y-16917436D01*
X8146253Y-16917436D02*
X8136730Y-16926960D01*
X8136730Y-16926960D02*
X8117682Y-16936484D01*
X8117682Y-16936484D02*
X8089110Y-16936484D01*
X8270063Y-16936484D02*
X8251015Y-16926960D01*
X8251015Y-16926960D02*
X8241491Y-16907912D01*
X8241491Y-16907912D02*
X8241491Y-16736484D01*
X8422444Y-16926960D02*
X8403396Y-16936484D01*
X8403396Y-16936484D02*
X8365301Y-16936484D01*
X8365301Y-16936484D02*
X8346253Y-16926960D01*
X8346253Y-16926960D02*
X8336730Y-16907912D01*
X8336730Y-16907912D02*
X8336730Y-16831722D01*
X8336730Y-16831722D02*
X8346253Y-16812674D01*
X8346253Y-16812674D02*
X8365301Y-16803150D01*
X8365301Y-16803150D02*
X8403396Y-16803150D01*
X8403396Y-16803150D02*
X8422444Y-16812674D01*
X8422444Y-16812674D02*
X8431968Y-16831722D01*
X8431968Y-16831722D02*
X8431968Y-16850770D01*
X8431968Y-16850770D02*
X8336730Y-16869817D01*
X8508158Y-16926960D02*
X8527206Y-16936484D01*
X8527206Y-16936484D02*
X8565301Y-16936484D01*
X8565301Y-16936484D02*
X8584349Y-16926960D01*
X8584349Y-16926960D02*
X8593873Y-16907912D01*
X8593873Y-16907912D02*
X8593873Y-16898389D01*
X8593873Y-16898389D02*
X8584349Y-16879341D01*
X8584349Y-16879341D02*
X8565301Y-16869817D01*
X8565301Y-16869817D02*
X8536730Y-16869817D01*
X8536730Y-16869817D02*
X8517682Y-16860293D01*
X8517682Y-16860293D02*
X8508158Y-16841246D01*
X8508158Y-16841246D02*
X8508158Y-16831722D01*
X8508158Y-16831722D02*
X8517682Y-16812674D01*
X8517682Y-16812674D02*
X8536730Y-16803150D01*
X8536730Y-16803150D02*
X8565301Y-16803150D01*
X8565301Y-16803150D02*
X8584349Y-16812674D01*
X8660539Y-17012674D02*
X8670063Y-17003150D01*
X8670063Y-17003150D02*
X8689111Y-16974579D01*
X8689111Y-16974579D02*
X8698634Y-16955531D01*
X8698634Y-16955531D02*
X8708158Y-16926960D01*
X8708158Y-16926960D02*
X8717682Y-16879341D01*
X8717682Y-16879341D02*
X8717682Y-16841246D01*
X8717682Y-16841246D02*
X8708158Y-16793627D01*
X8708158Y-16793627D02*
X8698634Y-16765055D01*
X8698634Y-16765055D02*
X8689111Y-16746008D01*
X8689111Y-16746008D02*
X8670063Y-16717436D01*
X8670063Y-16717436D02*
X8660539Y-16707912D01*
D10*
X3695000Y-17109000D02*
G75*
G02*
X3635000Y-17109000I-30000J0D01*
G01*
X3635000Y-17109000D02*
G75*
G02*
X3695000Y-17109000I30000J0D01*
G01*
D11*
X3993872Y-17000484D02*
X4012920Y-17000484D01*
X4012920Y-17000484D02*
X4031967Y-17010008D01*
X4031967Y-17010008D02*
X4041491Y-17019531D01*
X4041491Y-17019531D02*
X4051015Y-17038579D01*
X4051015Y-17038579D02*
X4060539Y-17076674D01*
X4060539Y-17076674D02*
X4060539Y-17124293D01*
X4060539Y-17124293D02*
X4051015Y-17162389D01*
X4051015Y-17162389D02*
X4041491Y-17181436D01*
X4041491Y-17181436D02*
X4031967Y-17190960D01*
X4031967Y-17190960D02*
X4012920Y-17200484D01*
X4012920Y-17200484D02*
X3993872Y-17200484D01*
X3993872Y-17200484D02*
X3974824Y-17190960D01*
X3974824Y-17190960D02*
X3965301Y-17181436D01*
X3965301Y-17181436D02*
X3955777Y-17162389D01*
X3955777Y-17162389D02*
X3946253Y-17124293D01*
X3946253Y-17124293D02*
X3946253Y-17076674D01*
X3946253Y-17076674D02*
X3955777Y-17038579D01*
X3955777Y-17038579D02*
X3965301Y-17019531D01*
X3965301Y-17019531D02*
X3974824Y-17010008D01*
X3974824Y-17010008D02*
X3993872Y-17000484D01*
X4146253Y-17181436D02*
X4155777Y-17190960D01*
X4155777Y-17190960D02*
X4146253Y-17200484D01*
X4146253Y-17200484D02*
X4136729Y-17190960D01*
X4136729Y-17190960D02*
X4146253Y-17181436D01*
X4146253Y-17181436D02*
X4146253Y-17200484D01*
X4327205Y-17000484D02*
X4289110Y-17000484D01*
X4289110Y-17000484D02*
X4270063Y-17010008D01*
X4270063Y-17010008D02*
X4260539Y-17019531D01*
X4260539Y-17019531D02*
X4241491Y-17048103D01*
X4241491Y-17048103D02*
X4231967Y-17086198D01*
X4231967Y-17086198D02*
X4231967Y-17162389D01*
X4231967Y-17162389D02*
X4241491Y-17181436D01*
X4241491Y-17181436D02*
X4251015Y-17190960D01*
X4251015Y-17190960D02*
X4270063Y-17200484D01*
X4270063Y-17200484D02*
X4308158Y-17200484D01*
X4308158Y-17200484D02*
X4327205Y-17190960D01*
X4327205Y-17190960D02*
X4336729Y-17181436D01*
X4336729Y-17181436D02*
X4346253Y-17162389D01*
X4346253Y-17162389D02*
X4346253Y-17114770D01*
X4346253Y-17114770D02*
X4336729Y-17095722D01*
X4336729Y-17095722D02*
X4327205Y-17086198D01*
X4327205Y-17086198D02*
X4308158Y-17076674D01*
X4308158Y-17076674D02*
X4270063Y-17076674D01*
X4270063Y-17076674D02*
X4251015Y-17086198D01*
X4251015Y-17086198D02*
X4241491Y-17095722D01*
X4241491Y-17095722D02*
X4231967Y-17114770D01*
X4470063Y-17000484D02*
X4489110Y-17000484D01*
X4489110Y-17000484D02*
X4508158Y-17010008D01*
X4508158Y-17010008D02*
X4517682Y-17019531D01*
X4517682Y-17019531D02*
X4527205Y-17038579D01*
X4527205Y-17038579D02*
X4536729Y-17076674D01*
X4536729Y-17076674D02*
X4536729Y-17124293D01*
X4536729Y-17124293D02*
X4527205Y-17162389D01*
X4527205Y-17162389D02*
X4517682Y-17181436D01*
X4517682Y-17181436D02*
X4508158Y-17190960D01*
X4508158Y-17190960D02*
X4489110Y-17200484D01*
X4489110Y-17200484D02*
X4470063Y-17200484D01*
X4470063Y-17200484D02*
X4451015Y-17190960D01*
X4451015Y-17190960D02*
X4441491Y-17181436D01*
X4441491Y-17181436D02*
X4431967Y-17162389D01*
X4431967Y-17162389D02*
X4422444Y-17124293D01*
X4422444Y-17124293D02*
X4422444Y-17076674D01*
X4422444Y-17076674D02*
X4431967Y-17038579D01*
X4431967Y-17038579D02*
X4441491Y-17019531D01*
X4441491Y-17019531D02*
X4451015Y-17010008D01*
X4451015Y-17010008D02*
X4470063Y-17000484D01*
X4660539Y-17000484D02*
X4679586Y-17000484D01*
X4679586Y-17000484D02*
X4698634Y-17010008D01*
X4698634Y-17010008D02*
X4708158Y-17019531D01*
X4708158Y-17019531D02*
X4717682Y-17038579D01*
X4717682Y-17038579D02*
X4727205Y-17076674D01*
X4727205Y-17076674D02*
X4727205Y-17124293D01*
X4727205Y-17124293D02*
X4717682Y-17162389D01*
X4717682Y-17162389D02*
X4708158Y-17181436D01*
X4708158Y-17181436D02*
X4698634Y-17190960D01*
X4698634Y-17190960D02*
X4679586Y-17200484D01*
X4679586Y-17200484D02*
X4660539Y-17200484D01*
X4660539Y-17200484D02*
X4641491Y-17190960D01*
X4641491Y-17190960D02*
X4631967Y-17181436D01*
X4631967Y-17181436D02*
X4622444Y-17162389D01*
X4622444Y-17162389D02*
X4612920Y-17124293D01*
X4612920Y-17124293D02*
X4612920Y-17076674D01*
X4612920Y-17076674D02*
X4622444Y-17038579D01*
X4622444Y-17038579D02*
X4631967Y-17019531D01*
X4631967Y-17019531D02*
X4641491Y-17010008D01*
X4641491Y-17010008D02*
X4660539Y-17000484D01*
X4812920Y-17200484D02*
X4812920Y-17067150D01*
X4812920Y-17086198D02*
X4822444Y-17076674D01*
X4822444Y-17076674D02*
X4841491Y-17067150D01*
X4841491Y-17067150D02*
X4870063Y-17067150D01*
X4870063Y-17067150D02*
X4889110Y-17076674D01*
X4889110Y-17076674D02*
X4898634Y-17095722D01*
X4898634Y-17095722D02*
X4898634Y-17200484D01*
X4898634Y-17095722D02*
X4908158Y-17076674D01*
X4908158Y-17076674D02*
X4927205Y-17067150D01*
X4927205Y-17067150D02*
X4955777Y-17067150D01*
X4955777Y-17067150D02*
X4974825Y-17076674D01*
X4974825Y-17076674D02*
X4984348Y-17095722D01*
X4984348Y-17095722D02*
X4984348Y-17200484D01*
X5079586Y-17200484D02*
X5079586Y-17067150D01*
X5079586Y-17086198D02*
X5089110Y-17076674D01*
X5089110Y-17076674D02*
X5108158Y-17067150D01*
X5108158Y-17067150D02*
X5136729Y-17067150D01*
X5136729Y-17067150D02*
X5155777Y-17076674D01*
X5155777Y-17076674D02*
X5165301Y-17095722D01*
X5165301Y-17095722D02*
X5165301Y-17200484D01*
X5165301Y-17095722D02*
X5174825Y-17076674D01*
X5174825Y-17076674D02*
X5193872Y-17067150D01*
X5193872Y-17067150D02*
X5222444Y-17067150D01*
X5222444Y-17067150D02*
X5241491Y-17076674D01*
X5241491Y-17076674D02*
X5251015Y-17095722D01*
X5251015Y-17095722D02*
X5251015Y-17200484D01*
X5641491Y-16990960D02*
X5470063Y-17248103D01*
X5898634Y-17000484D02*
X5917682Y-17000484D01*
X5917682Y-17000484D02*
X5936729Y-17010008D01*
X5936729Y-17010008D02*
X5946253Y-17019531D01*
X5946253Y-17019531D02*
X5955777Y-17038579D01*
X5955777Y-17038579D02*
X5965301Y-17076674D01*
X5965301Y-17076674D02*
X5965301Y-17124293D01*
X5965301Y-17124293D02*
X5955777Y-17162389D01*
X5955777Y-17162389D02*
X5946253Y-17181436D01*
X5946253Y-17181436D02*
X5936729Y-17190960D01*
X5936729Y-17190960D02*
X5917682Y-17200484D01*
X5917682Y-17200484D02*
X5898634Y-17200484D01*
X5898634Y-17200484D02*
X5879586Y-17190960D01*
X5879586Y-17190960D02*
X5870063Y-17181436D01*
X5870063Y-17181436D02*
X5860539Y-17162389D01*
X5860539Y-17162389D02*
X5851015Y-17124293D01*
X5851015Y-17124293D02*
X5851015Y-17076674D01*
X5851015Y-17076674D02*
X5860539Y-17038579D01*
X5860539Y-17038579D02*
X5870063Y-17019531D01*
X5870063Y-17019531D02*
X5879586Y-17010008D01*
X5879586Y-17010008D02*
X5898634Y-17000484D01*
X6051015Y-17181436D02*
X6060539Y-17190960D01*
X6060539Y-17190960D02*
X6051015Y-17200484D01*
X6051015Y-17200484D02*
X6041491Y-17190960D01*
X6041491Y-17190960D02*
X6051015Y-17181436D01*
X6051015Y-17181436D02*
X6051015Y-17200484D01*
X6184348Y-17000484D02*
X6203396Y-17000484D01*
X6203396Y-17000484D02*
X6222444Y-17010008D01*
X6222444Y-17010008D02*
X6231967Y-17019531D01*
X6231967Y-17019531D02*
X6241491Y-17038579D01*
X6241491Y-17038579D02*
X6251015Y-17076674D01*
X6251015Y-17076674D02*
X6251015Y-17124293D01*
X6251015Y-17124293D02*
X6241491Y-17162389D01*
X6241491Y-17162389D02*
X6231967Y-17181436D01*
X6231967Y-17181436D02*
X6222444Y-17190960D01*
X6222444Y-17190960D02*
X6203396Y-17200484D01*
X6203396Y-17200484D02*
X6184348Y-17200484D01*
X6184348Y-17200484D02*
X6165301Y-17190960D01*
X6165301Y-17190960D02*
X6155777Y-17181436D01*
X6155777Y-17181436D02*
X6146253Y-17162389D01*
X6146253Y-17162389D02*
X6136729Y-17124293D01*
X6136729Y-17124293D02*
X6136729Y-17076674D01*
X6136729Y-17076674D02*
X6146253Y-17038579D01*
X6146253Y-17038579D02*
X6155777Y-17019531D01*
X6155777Y-17019531D02*
X6165301Y-17010008D01*
X6165301Y-17010008D02*
X6184348Y-17000484D01*
X6327206Y-17019531D02*
X6336729Y-17010008D01*
X6336729Y-17010008D02*
X6355777Y-17000484D01*
X6355777Y-17000484D02*
X6403396Y-17000484D01*
X6403396Y-17000484D02*
X6422444Y-17010008D01*
X6422444Y-17010008D02*
X6431967Y-17019531D01*
X6431967Y-17019531D02*
X6441491Y-17038579D01*
X6441491Y-17038579D02*
X6441491Y-17057627D01*
X6441491Y-17057627D02*
X6431967Y-17086198D01*
X6431967Y-17086198D02*
X6317682Y-17200484D01*
X6317682Y-17200484D02*
X6441491Y-17200484D01*
X6508158Y-17000484D02*
X6631967Y-17000484D01*
X6631967Y-17000484D02*
X6565301Y-17076674D01*
X6565301Y-17076674D02*
X6593872Y-17076674D01*
X6593872Y-17076674D02*
X6612920Y-17086198D01*
X6612920Y-17086198D02*
X6622444Y-17095722D01*
X6622444Y-17095722D02*
X6631967Y-17114770D01*
X6631967Y-17114770D02*
X6631967Y-17162389D01*
X6631967Y-17162389D02*
X6622444Y-17181436D01*
X6622444Y-17181436D02*
X6612920Y-17190960D01*
X6612920Y-17190960D02*
X6593872Y-17200484D01*
X6593872Y-17200484D02*
X6536729Y-17200484D01*
X6536729Y-17200484D02*
X6517682Y-17190960D01*
X6517682Y-17190960D02*
X6508158Y-17181436D01*
X6803396Y-17000484D02*
X6765301Y-17000484D01*
X6765301Y-17000484D02*
X6746253Y-17010008D01*
X6746253Y-17010008D02*
X6736729Y-17019531D01*
X6736729Y-17019531D02*
X6717682Y-17048103D01*
X6717682Y-17048103D02*
X6708158Y-17086198D01*
X6708158Y-17086198D02*
X6708158Y-17162389D01*
X6708158Y-17162389D02*
X6717682Y-17181436D01*
X6717682Y-17181436D02*
X6727206Y-17190960D01*
X6727206Y-17190960D02*
X6746253Y-17200484D01*
X6746253Y-17200484D02*
X6784348Y-17200484D01*
X6784348Y-17200484D02*
X6803396Y-17190960D01*
X6803396Y-17190960D02*
X6812920Y-17181436D01*
X6812920Y-17181436D02*
X6822444Y-17162389D01*
X6822444Y-17162389D02*
X6822444Y-17114770D01*
X6822444Y-17114770D02*
X6812920Y-17095722D01*
X6812920Y-17095722D02*
X6803396Y-17086198D01*
X6803396Y-17086198D02*
X6784348Y-17076674D01*
X6784348Y-17076674D02*
X6746253Y-17076674D01*
X6746253Y-17076674D02*
X6727206Y-17086198D01*
X6727206Y-17086198D02*
X6717682Y-17095722D01*
X6717682Y-17095722D02*
X6708158Y-17114770D01*
X6898634Y-17000484D02*
X6898634Y-17038579D01*
X6974825Y-17000484D02*
X6974825Y-17038579D01*
X7270063Y-17276674D02*
X7260539Y-17267150D01*
X7260539Y-17267150D02*
X7241491Y-17238579D01*
X7241491Y-17238579D02*
X7231968Y-17219531D01*
X7231968Y-17219531D02*
X7222444Y-17190960D01*
X7222444Y-17190960D02*
X7212920Y-17143341D01*
X7212920Y-17143341D02*
X7212920Y-17105246D01*
X7212920Y-17105246D02*
X7222444Y-17057627D01*
X7222444Y-17057627D02*
X7231968Y-17029055D01*
X7231968Y-17029055D02*
X7241491Y-17010008D01*
X7241491Y-17010008D02*
X7260539Y-16981436D01*
X7260539Y-16981436D02*
X7270063Y-16971912D01*
X7451015Y-17200484D02*
X7336729Y-17200484D01*
X7393872Y-17200484D02*
X7393872Y-17000484D01*
X7393872Y-17000484D02*
X7374825Y-17029055D01*
X7374825Y-17029055D02*
X7355777Y-17048103D01*
X7355777Y-17048103D02*
X7336729Y-17057627D01*
X7527206Y-17019531D02*
X7536729Y-17010008D01*
X7536729Y-17010008D02*
X7555777Y-17000484D01*
X7555777Y-17000484D02*
X7603396Y-17000484D01*
X7603396Y-17000484D02*
X7622444Y-17010008D01*
X7622444Y-17010008D02*
X7631968Y-17019531D01*
X7631968Y-17019531D02*
X7641491Y-17038579D01*
X7641491Y-17038579D02*
X7641491Y-17057627D01*
X7641491Y-17057627D02*
X7631968Y-17086198D01*
X7631968Y-17086198D02*
X7517682Y-17200484D01*
X7517682Y-17200484D02*
X7641491Y-17200484D01*
X7879587Y-17200484D02*
X7879587Y-17000484D01*
X7965301Y-17200484D02*
X7965301Y-17095722D01*
X7965301Y-17095722D02*
X7955777Y-17076674D01*
X7955777Y-17076674D02*
X7936730Y-17067150D01*
X7936730Y-17067150D02*
X7908158Y-17067150D01*
X7908158Y-17067150D02*
X7889110Y-17076674D01*
X7889110Y-17076674D02*
X7879587Y-17086198D01*
X8089110Y-17200484D02*
X8070063Y-17190960D01*
X8070063Y-17190960D02*
X8060539Y-17181436D01*
X8060539Y-17181436D02*
X8051015Y-17162389D01*
X8051015Y-17162389D02*
X8051015Y-17105246D01*
X8051015Y-17105246D02*
X8060539Y-17086198D01*
X8060539Y-17086198D02*
X8070063Y-17076674D01*
X8070063Y-17076674D02*
X8089110Y-17067150D01*
X8089110Y-17067150D02*
X8117682Y-17067150D01*
X8117682Y-17067150D02*
X8136730Y-17076674D01*
X8136730Y-17076674D02*
X8146253Y-17086198D01*
X8146253Y-17086198D02*
X8155777Y-17105246D01*
X8155777Y-17105246D02*
X8155777Y-17162389D01*
X8155777Y-17162389D02*
X8146253Y-17181436D01*
X8146253Y-17181436D02*
X8136730Y-17190960D01*
X8136730Y-17190960D02*
X8117682Y-17200484D01*
X8117682Y-17200484D02*
X8089110Y-17200484D01*
X8270063Y-17200484D02*
X8251015Y-17190960D01*
X8251015Y-17190960D02*
X8241491Y-17171912D01*
X8241491Y-17171912D02*
X8241491Y-17000484D01*
X8422444Y-17190960D02*
X8403396Y-17200484D01*
X8403396Y-17200484D02*
X8365301Y-17200484D01*
X8365301Y-17200484D02*
X8346253Y-17190960D01*
X8346253Y-17190960D02*
X8336730Y-17171912D01*
X8336730Y-17171912D02*
X8336730Y-17095722D01*
X8336730Y-17095722D02*
X8346253Y-17076674D01*
X8346253Y-17076674D02*
X8365301Y-17067150D01*
X8365301Y-17067150D02*
X8403396Y-17067150D01*
X8403396Y-17067150D02*
X8422444Y-17076674D01*
X8422444Y-17076674D02*
X8431968Y-17095722D01*
X8431968Y-17095722D02*
X8431968Y-17114770D01*
X8431968Y-17114770D02*
X8336730Y-17133817D01*
X8508158Y-17190960D02*
X8527206Y-17200484D01*
X8527206Y-17200484D02*
X8565301Y-17200484D01*
X8565301Y-17200484D02*
X8584349Y-17190960D01*
X8584349Y-17190960D02*
X8593873Y-17171912D01*
X8593873Y-17171912D02*
X8593873Y-17162389D01*
X8593873Y-17162389D02*
X8584349Y-17143341D01*
X8584349Y-17143341D02*
X8565301Y-17133817D01*
X8565301Y-17133817D02*
X8536730Y-17133817D01*
X8536730Y-17133817D02*
X8517682Y-17124293D01*
X8517682Y-17124293D02*
X8508158Y-17105246D01*
X8508158Y-17105246D02*
X8508158Y-17095722D01*
X8508158Y-17095722D02*
X8517682Y-17076674D01*
X8517682Y-17076674D02*
X8536730Y-17067150D01*
X8536730Y-17067150D02*
X8565301Y-17067150D01*
X8565301Y-17067150D02*
X8584349Y-17076674D01*
X8660539Y-17276674D02*
X8670063Y-17267150D01*
X8670063Y-17267150D02*
X8689111Y-17238579D01*
X8689111Y-17238579D02*
X8698634Y-17219531D01*
X8698634Y-17219531D02*
X8708158Y-17190960D01*
X8708158Y-17190960D02*
X8717682Y-17143341D01*
X8717682Y-17143341D02*
X8717682Y-17105246D01*
X8717682Y-17105246D02*
X8708158Y-17057627D01*
X8708158Y-17057627D02*
X8698634Y-17029055D01*
X8698634Y-17029055D02*
X8689111Y-17010008D01*
X8689111Y-17010008D02*
X8670063Y-16981436D01*
X8670063Y-16981436D02*
X8660539Y-16971912D01*
D10*
X3645000Y-17323000D02*
X3645000Y-17423000D01*
X3595000Y-17373000D02*
X3695000Y-17373000D01*
D11*
X4060539Y-17464484D02*
X3946253Y-17464484D01*
X4003396Y-17464484D02*
X4003396Y-17264484D01*
X4003396Y-17264484D02*
X3984348Y-17293055D01*
X3984348Y-17293055D02*
X3965301Y-17312103D01*
X3965301Y-17312103D02*
X3946253Y-17321627D01*
X4146253Y-17445436D02*
X4155777Y-17454960D01*
X4155777Y-17454960D02*
X4146253Y-17464484D01*
X4146253Y-17464484D02*
X4136729Y-17454960D01*
X4136729Y-17454960D02*
X4146253Y-17445436D01*
X4146253Y-17445436D02*
X4146253Y-17464484D01*
X4279586Y-17264484D02*
X4298634Y-17264484D01*
X4298634Y-17264484D02*
X4317682Y-17274008D01*
X4317682Y-17274008D02*
X4327205Y-17283531D01*
X4327205Y-17283531D02*
X4336729Y-17302579D01*
X4336729Y-17302579D02*
X4346253Y-17340674D01*
X4346253Y-17340674D02*
X4346253Y-17388293D01*
X4346253Y-17388293D02*
X4336729Y-17426389D01*
X4336729Y-17426389D02*
X4327205Y-17445436D01*
X4327205Y-17445436D02*
X4317682Y-17454960D01*
X4317682Y-17454960D02*
X4298634Y-17464484D01*
X4298634Y-17464484D02*
X4279586Y-17464484D01*
X4279586Y-17464484D02*
X4260539Y-17454960D01*
X4260539Y-17454960D02*
X4251015Y-17445436D01*
X4251015Y-17445436D02*
X4241491Y-17426389D01*
X4241491Y-17426389D02*
X4231967Y-17388293D01*
X4231967Y-17388293D02*
X4231967Y-17340674D01*
X4231967Y-17340674D02*
X4241491Y-17302579D01*
X4241491Y-17302579D02*
X4251015Y-17283531D01*
X4251015Y-17283531D02*
X4260539Y-17274008D01*
X4260539Y-17274008D02*
X4279586Y-17264484D01*
X4470063Y-17264484D02*
X4489110Y-17264484D01*
X4489110Y-17264484D02*
X4508158Y-17274008D01*
X4508158Y-17274008D02*
X4517682Y-17283531D01*
X4517682Y-17283531D02*
X4527205Y-17302579D01*
X4527205Y-17302579D02*
X4536729Y-17340674D01*
X4536729Y-17340674D02*
X4536729Y-17388293D01*
X4536729Y-17388293D02*
X4527205Y-17426389D01*
X4527205Y-17426389D02*
X4517682Y-17445436D01*
X4517682Y-17445436D02*
X4508158Y-17454960D01*
X4508158Y-17454960D02*
X4489110Y-17464484D01*
X4489110Y-17464484D02*
X4470063Y-17464484D01*
X4470063Y-17464484D02*
X4451015Y-17454960D01*
X4451015Y-17454960D02*
X4441491Y-17445436D01*
X4441491Y-17445436D02*
X4431967Y-17426389D01*
X4431967Y-17426389D02*
X4422444Y-17388293D01*
X4422444Y-17388293D02*
X4422444Y-17340674D01*
X4422444Y-17340674D02*
X4431967Y-17302579D01*
X4431967Y-17302579D02*
X4441491Y-17283531D01*
X4441491Y-17283531D02*
X4451015Y-17274008D01*
X4451015Y-17274008D02*
X4470063Y-17264484D01*
X4660539Y-17264484D02*
X4679586Y-17264484D01*
X4679586Y-17264484D02*
X4698634Y-17274008D01*
X4698634Y-17274008D02*
X4708158Y-17283531D01*
X4708158Y-17283531D02*
X4717682Y-17302579D01*
X4717682Y-17302579D02*
X4727205Y-17340674D01*
X4727205Y-17340674D02*
X4727205Y-17388293D01*
X4727205Y-17388293D02*
X4717682Y-17426389D01*
X4717682Y-17426389D02*
X4708158Y-17445436D01*
X4708158Y-17445436D02*
X4698634Y-17454960D01*
X4698634Y-17454960D02*
X4679586Y-17464484D01*
X4679586Y-17464484D02*
X4660539Y-17464484D01*
X4660539Y-17464484D02*
X4641491Y-17454960D01*
X4641491Y-17454960D02*
X4631967Y-17445436D01*
X4631967Y-17445436D02*
X4622444Y-17426389D01*
X4622444Y-17426389D02*
X4612920Y-17388293D01*
X4612920Y-17388293D02*
X4612920Y-17340674D01*
X4612920Y-17340674D02*
X4622444Y-17302579D01*
X4622444Y-17302579D02*
X4631967Y-17283531D01*
X4631967Y-17283531D02*
X4641491Y-17274008D01*
X4641491Y-17274008D02*
X4660539Y-17264484D01*
X4812920Y-17464484D02*
X4812920Y-17331150D01*
X4812920Y-17350198D02*
X4822444Y-17340674D01*
X4822444Y-17340674D02*
X4841491Y-17331150D01*
X4841491Y-17331150D02*
X4870063Y-17331150D01*
X4870063Y-17331150D02*
X4889110Y-17340674D01*
X4889110Y-17340674D02*
X4898634Y-17359722D01*
X4898634Y-17359722D02*
X4898634Y-17464484D01*
X4898634Y-17359722D02*
X4908158Y-17340674D01*
X4908158Y-17340674D02*
X4927205Y-17331150D01*
X4927205Y-17331150D02*
X4955777Y-17331150D01*
X4955777Y-17331150D02*
X4974825Y-17340674D01*
X4974825Y-17340674D02*
X4984348Y-17359722D01*
X4984348Y-17359722D02*
X4984348Y-17464484D01*
X5079586Y-17464484D02*
X5079586Y-17331150D01*
X5079586Y-17350198D02*
X5089110Y-17340674D01*
X5089110Y-17340674D02*
X5108158Y-17331150D01*
X5108158Y-17331150D02*
X5136729Y-17331150D01*
X5136729Y-17331150D02*
X5155777Y-17340674D01*
X5155777Y-17340674D02*
X5165301Y-17359722D01*
X5165301Y-17359722D02*
X5165301Y-17464484D01*
X5165301Y-17359722D02*
X5174825Y-17340674D01*
X5174825Y-17340674D02*
X5193872Y-17331150D01*
X5193872Y-17331150D02*
X5222444Y-17331150D01*
X5222444Y-17331150D02*
X5241491Y-17340674D01*
X5241491Y-17340674D02*
X5251015Y-17359722D01*
X5251015Y-17359722D02*
X5251015Y-17464484D01*
X5641491Y-17254960D02*
X5470063Y-17512103D01*
X5898634Y-17264484D02*
X5917682Y-17264484D01*
X5917682Y-17264484D02*
X5936729Y-17274008D01*
X5936729Y-17274008D02*
X5946253Y-17283531D01*
X5946253Y-17283531D02*
X5955777Y-17302579D01*
X5955777Y-17302579D02*
X5965301Y-17340674D01*
X5965301Y-17340674D02*
X5965301Y-17388293D01*
X5965301Y-17388293D02*
X5955777Y-17426389D01*
X5955777Y-17426389D02*
X5946253Y-17445436D01*
X5946253Y-17445436D02*
X5936729Y-17454960D01*
X5936729Y-17454960D02*
X5917682Y-17464484D01*
X5917682Y-17464484D02*
X5898634Y-17464484D01*
X5898634Y-17464484D02*
X5879586Y-17454960D01*
X5879586Y-17454960D02*
X5870063Y-17445436D01*
X5870063Y-17445436D02*
X5860539Y-17426389D01*
X5860539Y-17426389D02*
X5851015Y-17388293D01*
X5851015Y-17388293D02*
X5851015Y-17340674D01*
X5851015Y-17340674D02*
X5860539Y-17302579D01*
X5860539Y-17302579D02*
X5870063Y-17283531D01*
X5870063Y-17283531D02*
X5879586Y-17274008D01*
X5879586Y-17274008D02*
X5898634Y-17264484D01*
X6051015Y-17445436D02*
X6060539Y-17454960D01*
X6060539Y-17454960D02*
X6051015Y-17464484D01*
X6051015Y-17464484D02*
X6041491Y-17454960D01*
X6041491Y-17454960D02*
X6051015Y-17445436D01*
X6051015Y-17445436D02*
X6051015Y-17464484D01*
X6184348Y-17264484D02*
X6203396Y-17264484D01*
X6203396Y-17264484D02*
X6222444Y-17274008D01*
X6222444Y-17274008D02*
X6231967Y-17283531D01*
X6231967Y-17283531D02*
X6241491Y-17302579D01*
X6241491Y-17302579D02*
X6251015Y-17340674D01*
X6251015Y-17340674D02*
X6251015Y-17388293D01*
X6251015Y-17388293D02*
X6241491Y-17426389D01*
X6241491Y-17426389D02*
X6231967Y-17445436D01*
X6231967Y-17445436D02*
X6222444Y-17454960D01*
X6222444Y-17454960D02*
X6203396Y-17464484D01*
X6203396Y-17464484D02*
X6184348Y-17464484D01*
X6184348Y-17464484D02*
X6165301Y-17454960D01*
X6165301Y-17454960D02*
X6155777Y-17445436D01*
X6155777Y-17445436D02*
X6146253Y-17426389D01*
X6146253Y-17426389D02*
X6136729Y-17388293D01*
X6136729Y-17388293D02*
X6136729Y-17340674D01*
X6136729Y-17340674D02*
X6146253Y-17302579D01*
X6146253Y-17302579D02*
X6155777Y-17283531D01*
X6155777Y-17283531D02*
X6165301Y-17274008D01*
X6165301Y-17274008D02*
X6184348Y-17264484D01*
X6317682Y-17264484D02*
X6441491Y-17264484D01*
X6441491Y-17264484D02*
X6374825Y-17340674D01*
X6374825Y-17340674D02*
X6403396Y-17340674D01*
X6403396Y-17340674D02*
X6422444Y-17350198D01*
X6422444Y-17350198D02*
X6431967Y-17359722D01*
X6431967Y-17359722D02*
X6441491Y-17378770D01*
X6441491Y-17378770D02*
X6441491Y-17426389D01*
X6441491Y-17426389D02*
X6431967Y-17445436D01*
X6431967Y-17445436D02*
X6422444Y-17454960D01*
X6422444Y-17454960D02*
X6403396Y-17464484D01*
X6403396Y-17464484D02*
X6346253Y-17464484D01*
X6346253Y-17464484D02*
X6327206Y-17454960D01*
X6327206Y-17454960D02*
X6317682Y-17445436D01*
X6536729Y-17464484D02*
X6574825Y-17464484D01*
X6574825Y-17464484D02*
X6593872Y-17454960D01*
X6593872Y-17454960D02*
X6603396Y-17445436D01*
X6603396Y-17445436D02*
X6622444Y-17416865D01*
X6622444Y-17416865D02*
X6631967Y-17378770D01*
X6631967Y-17378770D02*
X6631967Y-17302579D01*
X6631967Y-17302579D02*
X6622444Y-17283531D01*
X6622444Y-17283531D02*
X6612920Y-17274008D01*
X6612920Y-17274008D02*
X6593872Y-17264484D01*
X6593872Y-17264484D02*
X6555777Y-17264484D01*
X6555777Y-17264484D02*
X6536729Y-17274008D01*
X6536729Y-17274008D02*
X6527206Y-17283531D01*
X6527206Y-17283531D02*
X6517682Y-17302579D01*
X6517682Y-17302579D02*
X6517682Y-17350198D01*
X6517682Y-17350198D02*
X6527206Y-17369246D01*
X6527206Y-17369246D02*
X6536729Y-17378770D01*
X6536729Y-17378770D02*
X6555777Y-17388293D01*
X6555777Y-17388293D02*
X6593872Y-17388293D01*
X6593872Y-17388293D02*
X6612920Y-17378770D01*
X6612920Y-17378770D02*
X6622444Y-17369246D01*
X6622444Y-17369246D02*
X6631967Y-17350198D01*
X6803396Y-17331150D02*
X6803396Y-17464484D01*
X6755777Y-17254960D02*
X6708158Y-17397817D01*
X6708158Y-17397817D02*
X6831967Y-17397817D01*
X6898634Y-17264484D02*
X6898634Y-17302579D01*
X6974825Y-17264484D02*
X6974825Y-17302579D01*
X7270063Y-17540674D02*
X7260539Y-17531150D01*
X7260539Y-17531150D02*
X7241491Y-17502579D01*
X7241491Y-17502579D02*
X7231968Y-17483531D01*
X7231968Y-17483531D02*
X7222444Y-17454960D01*
X7222444Y-17454960D02*
X7212920Y-17407341D01*
X7212920Y-17407341D02*
X7212920Y-17369246D01*
X7212920Y-17369246D02*
X7222444Y-17321627D01*
X7222444Y-17321627D02*
X7231968Y-17293055D01*
X7231968Y-17293055D02*
X7241491Y-17274008D01*
X7241491Y-17274008D02*
X7260539Y-17245436D01*
X7260539Y-17245436D02*
X7270063Y-17235912D01*
X7451015Y-17464484D02*
X7336729Y-17464484D01*
X7393872Y-17464484D02*
X7393872Y-17264484D01*
X7393872Y-17264484D02*
X7374825Y-17293055D01*
X7374825Y-17293055D02*
X7355777Y-17312103D01*
X7355777Y-17312103D02*
X7336729Y-17321627D01*
X7527206Y-17283531D02*
X7536729Y-17274008D01*
X7536729Y-17274008D02*
X7555777Y-17264484D01*
X7555777Y-17264484D02*
X7603396Y-17264484D01*
X7603396Y-17264484D02*
X7622444Y-17274008D01*
X7622444Y-17274008D02*
X7631968Y-17283531D01*
X7631968Y-17283531D02*
X7641491Y-17302579D01*
X7641491Y-17302579D02*
X7641491Y-17321627D01*
X7641491Y-17321627D02*
X7631968Y-17350198D01*
X7631968Y-17350198D02*
X7517682Y-17464484D01*
X7517682Y-17464484D02*
X7641491Y-17464484D01*
X7879587Y-17464484D02*
X7879587Y-17264484D01*
X7965301Y-17464484D02*
X7965301Y-17359722D01*
X7965301Y-17359722D02*
X7955777Y-17340674D01*
X7955777Y-17340674D02*
X7936730Y-17331150D01*
X7936730Y-17331150D02*
X7908158Y-17331150D01*
X7908158Y-17331150D02*
X7889110Y-17340674D01*
X7889110Y-17340674D02*
X7879587Y-17350198D01*
X8089110Y-17464484D02*
X8070063Y-17454960D01*
X8070063Y-17454960D02*
X8060539Y-17445436D01*
X8060539Y-17445436D02*
X8051015Y-17426389D01*
X8051015Y-17426389D02*
X8051015Y-17369246D01*
X8051015Y-17369246D02*
X8060539Y-17350198D01*
X8060539Y-17350198D02*
X8070063Y-17340674D01*
X8070063Y-17340674D02*
X8089110Y-17331150D01*
X8089110Y-17331150D02*
X8117682Y-17331150D01*
X8117682Y-17331150D02*
X8136730Y-17340674D01*
X8136730Y-17340674D02*
X8146253Y-17350198D01*
X8146253Y-17350198D02*
X8155777Y-17369246D01*
X8155777Y-17369246D02*
X8155777Y-17426389D01*
X8155777Y-17426389D02*
X8146253Y-17445436D01*
X8146253Y-17445436D02*
X8136730Y-17454960D01*
X8136730Y-17454960D02*
X8117682Y-17464484D01*
X8117682Y-17464484D02*
X8089110Y-17464484D01*
X8270063Y-17464484D02*
X8251015Y-17454960D01*
X8251015Y-17454960D02*
X8241491Y-17435912D01*
X8241491Y-17435912D02*
X8241491Y-17264484D01*
X8422444Y-17454960D02*
X8403396Y-17464484D01*
X8403396Y-17464484D02*
X8365301Y-17464484D01*
X8365301Y-17464484D02*
X8346253Y-17454960D01*
X8346253Y-17454960D02*
X8336730Y-17435912D01*
X8336730Y-17435912D02*
X8336730Y-17359722D01*
X8336730Y-17359722D02*
X8346253Y-17340674D01*
X8346253Y-17340674D02*
X8365301Y-17331150D01*
X8365301Y-17331150D02*
X8403396Y-17331150D01*
X8403396Y-17331150D02*
X8422444Y-17340674D01*
X8422444Y-17340674D02*
X8431968Y-17359722D01*
X8431968Y-17359722D02*
X8431968Y-17378770D01*
X8431968Y-17378770D02*
X8336730Y-17397817D01*
X8508158Y-17454960D02*
X8527206Y-17464484D01*
X8527206Y-17464484D02*
X8565301Y-17464484D01*
X8565301Y-17464484D02*
X8584349Y-17454960D01*
X8584349Y-17454960D02*
X8593873Y-17435912D01*
X8593873Y-17435912D02*
X8593873Y-17426389D01*
X8593873Y-17426389D02*
X8584349Y-17407341D01*
X8584349Y-17407341D02*
X8565301Y-17397817D01*
X8565301Y-17397817D02*
X8536730Y-17397817D01*
X8536730Y-17397817D02*
X8517682Y-17388293D01*
X8517682Y-17388293D02*
X8508158Y-17369246D01*
X8508158Y-17369246D02*
X8508158Y-17359722D01*
X8508158Y-17359722D02*
X8517682Y-17340674D01*
X8517682Y-17340674D02*
X8536730Y-17331150D01*
X8536730Y-17331150D02*
X8565301Y-17331150D01*
X8565301Y-17331150D02*
X8584349Y-17340674D01*
X8660539Y-17540674D02*
X8670063Y-17531150D01*
X8670063Y-17531150D02*
X8689111Y-17502579D01*
X8689111Y-17502579D02*
X8698634Y-17483531D01*
X8698634Y-17483531D02*
X8708158Y-17454960D01*
X8708158Y-17454960D02*
X8717682Y-17407341D01*
X8717682Y-17407341D02*
X8717682Y-17369246D01*
X8717682Y-17369246D02*
X8708158Y-17321627D01*
X8708158Y-17321627D02*
X8698634Y-17293055D01*
X8698634Y-17293055D02*
X8689111Y-17274008D01*
X8689111Y-17274008D02*
X8670063Y-17245436D01*
X8670063Y-17245436D02*
X8660539Y-17235912D01*
M02*
