%TF.GenerationSoftware,KiCad,Pcbnew,9.0.0*%
%TF.CreationDate,2025-02-27T10:50:11-06:00*%
%TF.ProjectId,SAO-CR1616,53414f2d-4352-4313-9631-362e6b696361,rev?*%
%TF.SameCoordinates,Original*%
%TF.FileFunction,Soldermask,Bot*%
%TF.FilePolarity,Negative*%
%FSLAX46Y46*%
G04 Gerber Fmt 4.6, Leading zero omitted, Abs format (unit mm)*
G04 Created by KiCad (PCBNEW 9.0.0) date 2025-02-27 10:50:11*
%MOMM*%
%LPD*%
G01*
G04 APERTURE LIST*
G04 Aperture macros list*
%AMRoundRect*
0 Rectangle with rounded corners*
0 $1 Rounding radius*
0 $2 $3 $4 $5 $6 $7 $8 $9 X,Y pos of 4 corners*
0 Add a 4 corners polygon primitive as box body*
4,1,4,$2,$3,$4,$5,$6,$7,$8,$9,$2,$3,0*
0 Add four circle primitives for the rounded corners*
1,1,$1+$1,$2,$3*
1,1,$1+$1,$4,$5*
1,1,$1+$1,$6,$7*
1,1,$1+$1,$8,$9*
0 Add four rect primitives between the rounded corners*
20,1,$1+$1,$2,$3,$4,$5,0*
20,1,$1+$1,$4,$5,$6,$7,0*
20,1,$1+$1,$6,$7,$8,$9,0*
20,1,$1+$1,$8,$9,$2,$3,0*%
G04 Aperture macros list end*
%ADD10C,0.300000*%
%ADD11RoundRect,0.250000X-0.600000X0.600000X-0.600000X-0.600000X0.600000X-0.600000X0.600000X0.600000X0*%
%ADD12C,1.700000*%
%ADD13RoundRect,0.250000X-0.475000X0.337500X-0.475000X-0.337500X0.475000X-0.337500X0.475000X0.337500X0*%
%ADD14RoundRect,0.250000X-0.337500X-0.475000X0.337500X-0.475000X0.337500X0.475000X-0.337500X0.475000X0*%
%ADD15R,2.000000X5.000000*%
%ADD16O,2.000000X5.000000*%
%ADD17RoundRect,0.250000X0.337500X0.475000X-0.337500X0.475000X-0.337500X-0.475000X0.337500X-0.475000X0*%
%ADD18C,15.000000*%
%ADD19C,4.000000*%
G04 APERTURE END LIST*
D10*
%TO.C,*%
X65094000Y-152760000D03*
%TD*%
D11*
%TO.C,J3*%
X52540000Y-148730000D03*
D12*
X52540000Y-151270000D03*
X50000000Y-148730000D03*
X50000000Y-151270000D03*
X47460001Y-148730000D03*
X47460000Y-151270000D03*
%TD*%
D10*
%TO.C,*%
X65094000Y-150260000D03*
%TD*%
%TO.C,*%
X65094000Y-148760000D03*
%TD*%
%TO.C,*%
X62902000Y-151234000D03*
%TD*%
%TO.C,*%
X62902000Y-152234000D03*
%TD*%
%TO.C,*%
X62902000Y-150734000D03*
%TD*%
%TO.C,*%
X65094000Y-153260000D03*
%TD*%
%TO.C,*%
X65094000Y-152260000D03*
%TD*%
%TO.C,*%
X65094000Y-149260000D03*
%TD*%
%TO.C,*%
X65094000Y-149760000D03*
%TD*%
%TO.C,*%
X62902000Y-149234000D03*
%TD*%
%TO.C,*%
X62902000Y-153234000D03*
%TD*%
%TO.C,*%
X65094000Y-151760000D03*
%TD*%
%TO.C,*%
X62902000Y-150234000D03*
%TD*%
%TO.C,*%
X65094000Y-150760000D03*
%TD*%
%TO.C,*%
X65094000Y-151260000D03*
%TD*%
%TO.C,*%
X62902000Y-151734000D03*
%TD*%
%TO.C,*%
X62902000Y-149734000D03*
%TD*%
%TO.C,*%
X62902000Y-152734000D03*
%TD*%
%TO.C,*%
X62902000Y-148734000D03*
%TD*%
D13*
%TO.C,BC7*%
X45270000Y-148962500D03*
X45270000Y-151037500D03*
%TD*%
D14*
%TO.C,BC6*%
X39692500Y-154000000D03*
X41767500Y-154000000D03*
%TD*%
D15*
%TO.C,P5*%
X48720000Y-158000000D03*
D16*
X51260000Y-158000000D03*
%TD*%
D14*
%TO.C,BC5*%
X48962500Y-154000000D03*
X51037500Y-154000000D03*
%TD*%
D17*
%TO.C,BC1*%
X41767500Y-146000000D03*
X39692500Y-146000000D03*
%TD*%
D15*
%TO.C,P4*%
X58085000Y-158000000D03*
D16*
X60625000Y-158000000D03*
%TD*%
D18*
%TO.C,SAO-P2*%
X72845106Y-140336892D03*
%TD*%
D11*
%TO.C,J2*%
X70455107Y-155436892D03*
D12*
X70455107Y-157976892D03*
X72995107Y-155436892D03*
X72995107Y-157976892D03*
X75535106Y-155436892D03*
X75535107Y-157976892D03*
%TD*%
D15*
%TO.C,P1*%
X41905000Y-142000000D03*
D16*
X39365000Y-142000000D03*
%TD*%
D15*
%TO.C,P3*%
X60635000Y-142000000D03*
D16*
X58095000Y-142000000D03*
%TD*%
D17*
%TO.C,BC2*%
X51037500Y-146000000D03*
X48962500Y-146000000D03*
%TD*%
D15*
%TO.C,P2*%
X51270000Y-142000000D03*
D16*
X48730000Y-142000000D03*
%TD*%
D19*
%TO.C,B3*%
X72985106Y-140336892D03*
%TD*%
D17*
%TO.C,BC3*%
X60307500Y-146000000D03*
X58232500Y-146000000D03*
%TD*%
D15*
%TO.C,P6*%
X39355000Y-158000000D03*
D16*
X41895000Y-158000000D03*
%TD*%
D14*
%TO.C,BC4*%
X58232500Y-154000000D03*
X60307500Y-154000000D03*
%TD*%
M02*
