%TF.GenerationSoftware,KiCad,Pcbnew,9.0.0*%
%TF.CreationDate,2025-02-26T16:04:43-06:00*%
%TF.ProjectId,SAO-CR1616,53414f2d-4352-4313-9631-362e6b696361,rev?*%
%TF.SameCoordinates,Original*%
%TF.FileFunction,Copper,L2,Bot*%
%TF.FilePolarity,Positive*%
%FSLAX46Y46*%
G04 Gerber Fmt 4.6, Leading zero omitted, Abs format (unit mm)*
G04 Created by KiCad (PCBNEW 9.0.0) date 2025-02-26 16:04:43*
%MOMM*%
%LPD*%
G01*
G04 APERTURE LIST*
G04 Aperture macros list*
%AMRoundRect*
0 Rectangle with rounded corners*
0 $1 Rounding radius*
0 $2 $3 $4 $5 $6 $7 $8 $9 X,Y pos of 4 corners*
0 Add a 4 corners polygon primitive as box body*
4,1,4,$2,$3,$4,$5,$6,$7,$8,$9,$2,$3,0*
0 Add four circle primitives for the rounded corners*
1,1,$1+$1,$2,$3*
1,1,$1+$1,$4,$5*
1,1,$1+$1,$6,$7*
1,1,$1+$1,$8,$9*
0 Add four rect primitives between the rounded corners*
20,1,$1+$1,$2,$3,$4,$5,0*
20,1,$1+$1,$4,$5,$6,$7,0*
20,1,$1+$1,$6,$7,$8,$9,0*
20,1,$1+$1,$8,$9,$2,$3,0*%
G04 Aperture macros list end*
%TA.AperFunction,ComponentPad*%
%ADD10RoundRect,0.250000X-0.600000X0.600000X-0.600000X-0.600000X0.600000X-0.600000X0.600000X0.600000X0*%
%TD*%
%TA.AperFunction,ComponentPad*%
%ADD11C,1.700000*%
%TD*%
%TA.AperFunction,SMDPad,CuDef*%
%ADD12RoundRect,0.250000X-0.475000X0.337500X-0.475000X-0.337500X0.475000X-0.337500X0.475000X0.337500X0*%
%TD*%
%TA.AperFunction,SMDPad,CuDef*%
%ADD13RoundRect,0.250000X-0.337500X-0.475000X0.337500X-0.475000X0.337500X0.475000X-0.337500X0.475000X0*%
%TD*%
%TA.AperFunction,ComponentPad*%
%ADD14R,2.000000X5.000000*%
%TD*%
%TA.AperFunction,ComponentPad*%
%ADD15O,2.000000X5.000000*%
%TD*%
%TA.AperFunction,SMDPad,CuDef*%
%ADD16RoundRect,0.250000X0.337500X0.475000X-0.337500X0.475000X-0.337500X-0.475000X0.337500X-0.475000X0*%
%TD*%
%TA.AperFunction,SMDPad,CuDef*%
%ADD17C,15.000000*%
%TD*%
%TA.AperFunction,SMDPad,CuDef*%
%ADD18C,4.000000*%
%TD*%
%TA.AperFunction,ViaPad*%
%ADD19C,0.500000*%
%TD*%
%TA.AperFunction,Conductor*%
%ADD20C,1.000000*%
%TD*%
%TA.AperFunction,Conductor*%
%ADD21C,2.000000*%
%TD*%
G04 APERTURE END LIST*
D10*
%TO.P,J3,1,GPIO1*%
%TO.N,unconnected-(J3-GPIO1-Pad1)*%
X52540000Y-148730000D03*
D11*
%TO.P,J3,2,GPIO2*%
%TO.N,unconnected-(J3-GPIO2-Pad2)*%
X52540000Y-151270000D03*
%TO.P,J3,3,SDA*%
%TO.N,unconnected-(J3-SDA-Pad3)*%
X50000000Y-148730000D03*
%TO.P,J3,4,SCL*%
%TO.N,unconnected-(J3-SCL-Pad4)*%
X50000000Y-151270000D03*
%TO.P,J3,5,3V3*%
%TO.N,+3V0*%
X47460001Y-148730000D03*
%TO.P,J3,6,GND*%
%TO.N,GND*%
X47460000Y-151270000D03*
%TD*%
D12*
%TO.P,BC7,1*%
%TO.N,+3V0*%
X45270000Y-148962500D03*
%TO.P,BC7,2*%
%TO.N,GND*%
X45270000Y-151037500D03*
%TD*%
D13*
%TO.P,BC6,1*%
%TO.N,+3V0*%
X39692500Y-154000000D03*
%TO.P,BC6,2*%
%TO.N,GND*%
X41767500Y-154000000D03*
%TD*%
D14*
%TO.P,P5,1,Pin_1*%
%TO.N,+3V0*%
X48720000Y-158000000D03*
D15*
%TO.P,P5,2,Pin_2*%
%TO.N,GND*%
X51260000Y-158000000D03*
%TD*%
D13*
%TO.P,BC5,1*%
%TO.N,+3V0*%
X48962500Y-154000000D03*
%TO.P,BC5,2*%
%TO.N,GND*%
X51037500Y-154000000D03*
%TD*%
D16*
%TO.P,BC1,1*%
%TO.N,+3V0*%
X41767500Y-146000000D03*
%TO.P,BC1,2*%
%TO.N,GND*%
X39692500Y-146000000D03*
%TD*%
D14*
%TO.P,P4,1,Pin_1*%
%TO.N,+3V0*%
X58085000Y-158000000D03*
D15*
%TO.P,P4,2,Pin_2*%
%TO.N,GND*%
X60625000Y-158000000D03*
%TD*%
D17*
%TO.P,SAO-P2,1,1*%
%TO.N,GND*%
X72845106Y-140336892D03*
%TD*%
D10*
%TO.P,J2,1,3V3*%
%TO.N,+3V0*%
X70455107Y-155436892D03*
D11*
%TO.P,J2,2,GND*%
%TO.N,GND*%
X70455107Y-157976892D03*
%TO.P,J2,3,SDA*%
%TO.N,unconnected-(J2-SDA-Pad3)*%
X72995107Y-155436892D03*
%TO.P,J2,4,SCL*%
%TO.N,unconnected-(J2-SCL-Pad4)*%
X72995107Y-157976892D03*
%TO.P,J2,5,GPIO1*%
%TO.N,unconnected-(J2-GPIO1-Pad5)*%
X75535106Y-155436892D03*
%TO.P,J2,6,GPIO2*%
%TO.N,unconnected-(J2-GPIO2-Pad6)*%
X75535107Y-157976892D03*
%TD*%
D14*
%TO.P,P1,1,Pin_1*%
%TO.N,+3V0*%
X41905000Y-142000000D03*
D15*
%TO.P,P1,2,Pin_2*%
%TO.N,GND*%
X39365000Y-142000000D03*
%TD*%
D14*
%TO.P,P3,1,Pin_1*%
%TO.N,+3V0*%
X60635000Y-142000000D03*
D15*
%TO.P,P3,2,Pin_2*%
%TO.N,GND*%
X58095000Y-142000000D03*
%TD*%
D16*
%TO.P,BC2,1*%
%TO.N,+3V0*%
X51037500Y-146000000D03*
%TO.P,BC2,2*%
%TO.N,GND*%
X48962500Y-146000000D03*
%TD*%
D14*
%TO.P,P2,1,Pin_1*%
%TO.N,+3V0*%
X51270000Y-142000000D03*
D15*
%TO.P,P2,2,Pin_2*%
%TO.N,GND*%
X48730000Y-142000000D03*
%TD*%
D18*
%TO.P,B3,1,1*%
%TO.N,GND*%
X72985106Y-140336892D03*
%TD*%
D16*
%TO.P,BC3,1*%
%TO.N,+3V0*%
X60307500Y-146000000D03*
%TO.P,BC3,2*%
%TO.N,GND*%
X58232500Y-146000000D03*
%TD*%
D14*
%TO.P,P6,1,Pin_1*%
%TO.N,+3V0*%
X39355000Y-158000000D03*
D15*
%TO.P,P6,2,Pin_2*%
%TO.N,GND*%
X41895000Y-158000000D03*
%TD*%
D13*
%TO.P,BC4,1*%
%TO.N,+3V0*%
X58232500Y-154000000D03*
%TO.P,BC4,2*%
%TO.N,GND*%
X60307500Y-154000000D03*
%TD*%
D19*
%TO.N,GND*%
X69068969Y-152829303D03*
X71649108Y-148199549D03*
X79957106Y-161024892D03*
X74445400Y-151149409D03*
X80235107Y-143752893D03*
X65987108Y-161024892D03*
X74549106Y-148162580D03*
X65987107Y-145022891D03*
X71602803Y-150056586D03*
X71905107Y-153912893D03*
%TD*%
D20*
%TO.N,GND*%
X45502500Y-151270000D02*
X45270000Y-151037500D01*
D21*
X66485106Y-146696891D02*
X72845106Y-140336892D01*
D20*
X39365000Y-142000000D02*
X39365000Y-145672500D01*
X51260000Y-158000000D02*
X51260000Y-154222500D01*
X58095000Y-142000000D02*
X58095000Y-145862500D01*
D21*
X66485106Y-154918892D02*
X66485106Y-146696891D01*
D20*
X58095000Y-145862500D02*
X58232500Y-146000000D01*
X41895000Y-154127500D02*
X41767500Y-154000000D01*
D21*
X70455108Y-157976892D02*
X69543106Y-157976891D01*
D20*
X47460000Y-151270000D02*
X45502500Y-151270000D01*
X41895000Y-158000000D02*
X41895000Y-154127500D01*
X60625000Y-154317500D02*
X60307500Y-154000000D01*
X60625000Y-158000000D02*
X60625000Y-154317500D01*
X51260000Y-154222500D02*
X51037500Y-154000000D01*
X48730000Y-145767500D02*
X48962500Y-146000000D01*
D21*
X69543106Y-157976891D02*
X66485106Y-154918892D01*
D20*
X48730000Y-142000000D02*
X48730000Y-145767500D01*
X39365000Y-145672500D02*
X39692500Y-146000000D01*
%TO.N,+3V0*%
X45502500Y-148730000D02*
X45270000Y-148962500D01*
X60635000Y-145672500D02*
X60307500Y-146000000D01*
X58085000Y-158000000D02*
X58085000Y-154147500D01*
X51270000Y-142000000D02*
X51270000Y-145767500D01*
X39355000Y-158000000D02*
X39355000Y-154337500D01*
X60635000Y-142000000D02*
X60635000Y-145672500D01*
X51270000Y-145767500D02*
X51037500Y-146000000D01*
X41905000Y-145862500D02*
X41767500Y-146000000D01*
X58085000Y-154147500D02*
X58232500Y-154000000D01*
X47460001Y-148730000D02*
X45502500Y-148730000D01*
X48720000Y-158000000D02*
X48720000Y-154242500D01*
X39355000Y-154337500D02*
X39692500Y-154000000D01*
X41905000Y-142000000D02*
X41905000Y-145862500D01*
X48720000Y-154242500D02*
X48962500Y-154000000D01*
%TD*%
%TA.AperFunction,Conductor*%
%TO.N,GND*%
G36*
X46566840Y-149750185D02*
G01*
X46579366Y-149759493D01*
X46752180Y-149885048D01*
X46752182Y-149885049D01*
X46752185Y-149885051D01*
X46761494Y-149889794D01*
X46812291Y-149937766D01*
X46829088Y-150005587D01*
X46806553Y-150071722D01*
X46761503Y-150110762D01*
X46752440Y-150115380D01*
X46698282Y-150154727D01*
X46698282Y-150154728D01*
X47330591Y-150787037D01*
X47267007Y-150804075D01*
X47152993Y-150869901D01*
X47059901Y-150962993D01*
X46994075Y-151077007D01*
X46977037Y-151140591D01*
X46324385Y-150487939D01*
X46290900Y-150426616D01*
X46295884Y-150356924D01*
X46324385Y-150312576D01*
X46363254Y-150273706D01*
X46337319Y-150231659D01*
X46337316Y-150231655D01*
X46213344Y-150107683D01*
X46213341Y-150107681D01*
X46210339Y-150105829D01*
X46208713Y-150104021D01*
X46207677Y-150103202D01*
X46207817Y-150103024D01*
X46163617Y-150053880D01*
X46152397Y-149984917D01*
X46180243Y-149920836D01*
X46189543Y-149910863D01*
X46199080Y-149901701D01*
X46213656Y-149892712D01*
X46337712Y-149768656D01*
X46337875Y-149768390D01*
X46341333Y-149765070D01*
X46371276Y-149749494D01*
X46400872Y-149733334D01*
X46402727Y-149733134D01*
X46403319Y-149732827D01*
X46404542Y-149732939D01*
X46427230Y-149730500D01*
X46499801Y-149730500D01*
X46566840Y-149750185D01*
G37*
%TD.AperFunction*%
%TA.AperFunction,Conductor*%
G36*
X48801441Y-149383998D02*
G01*
X48840484Y-149429054D01*
X48844949Y-149437817D01*
X48969890Y-149609786D01*
X49120213Y-149760109D01*
X49292182Y-149885050D01*
X49300946Y-149889516D01*
X49351742Y-149937491D01*
X49368536Y-150005312D01*
X49345998Y-150071447D01*
X49300946Y-150110484D01*
X49292182Y-150114949D01*
X49120213Y-150239890D01*
X48969890Y-150390213D01*
X48844949Y-150562182D01*
X48840202Y-150571499D01*
X48792227Y-150622293D01*
X48724405Y-150639087D01*
X48658271Y-150616548D01*
X48619234Y-150571495D01*
X48614626Y-150562452D01*
X48575270Y-150508282D01*
X48575269Y-150508282D01*
X47942962Y-151140590D01*
X47925925Y-151077007D01*
X47860099Y-150962993D01*
X47767007Y-150869901D01*
X47652993Y-150804075D01*
X47589409Y-150787037D01*
X48221716Y-150154728D01*
X48167548Y-150115374D01*
X48158498Y-150110762D01*
X48107705Y-150062784D01*
X48090913Y-149994963D01*
X48113454Y-149928829D01*
X48158509Y-149889793D01*
X48167817Y-149885051D01*
X48271894Y-149809435D01*
X48339787Y-149760109D01*
X48339789Y-149760106D01*
X48339793Y-149760104D01*
X48490105Y-149609792D01*
X48490107Y-149609788D01*
X48490110Y-149609786D01*
X48615049Y-149437820D01*
X48615051Y-149437817D01*
X48615052Y-149437816D01*
X48619513Y-149429058D01*
X48667484Y-149378262D01*
X48735304Y-149361464D01*
X48801441Y-149383998D01*
G37*
%TD.AperFunction*%
%TA.AperFunction,Conductor*%
G36*
X61102967Y-138501839D02*
G01*
X61281356Y-138528269D01*
X61295273Y-138531154D01*
X61387463Y-138555856D01*
X61473802Y-138578992D01*
X61489160Y-138584206D01*
X61655226Y-138652992D01*
X61669774Y-138660166D01*
X61825445Y-138750043D01*
X61838931Y-138759054D01*
X61899671Y-138805661D01*
X61940874Y-138862089D01*
X61945029Y-138931835D01*
X61910817Y-138992755D01*
X61849100Y-139025508D01*
X61780853Y-139020219D01*
X61742485Y-139005909D01*
X61742483Y-139005908D01*
X61682883Y-138999501D01*
X61682881Y-138999500D01*
X61682873Y-138999500D01*
X61682864Y-138999500D01*
X59587129Y-138999500D01*
X59587123Y-138999501D01*
X59527516Y-139005908D01*
X59392671Y-139056202D01*
X59392664Y-139056206D01*
X59277455Y-139142452D01*
X59277452Y-139142455D01*
X59191206Y-139257664D01*
X59186953Y-139265454D01*
X59183807Y-139263736D01*
X59152139Y-139306010D01*
X59086667Y-139330404D01*
X59018399Y-139315529D01*
X59004978Y-139307035D01*
X58881174Y-139217087D01*
X58670802Y-139109897D01*
X58446247Y-139036934D01*
X58345000Y-139020897D01*
X58345000Y-141833011D01*
X58335060Y-141815795D01*
X58279205Y-141759940D01*
X58210796Y-141720444D01*
X58134496Y-141700000D01*
X58055504Y-141700000D01*
X57979204Y-141720444D01*
X57910795Y-141759940D01*
X57854940Y-141815795D01*
X57815444Y-141884204D01*
X57795000Y-141960504D01*
X57795000Y-142039496D01*
X57815444Y-142115796D01*
X57854940Y-142184205D01*
X57910795Y-142240060D01*
X57979204Y-142279556D01*
X58055504Y-142300000D01*
X58134496Y-142300000D01*
X58210796Y-142279556D01*
X58279205Y-142240060D01*
X58335060Y-142184205D01*
X58345000Y-142166988D01*
X58345000Y-144645000D01*
X58358500Y-144645000D01*
X58425539Y-144664685D01*
X58471294Y-144717489D01*
X58482500Y-144769000D01*
X58482500Y-147224999D01*
X58619972Y-147224999D01*
X58619986Y-147224998D01*
X58722697Y-147214505D01*
X58889119Y-147159358D01*
X58889124Y-147159356D01*
X59038345Y-147067315D01*
X59162318Y-146943342D01*
X59164165Y-146940348D01*
X59165969Y-146938724D01*
X59166798Y-146937677D01*
X59166976Y-146937818D01*
X59216110Y-146893621D01*
X59285073Y-146882396D01*
X59349156Y-146910236D01*
X59375243Y-146940341D01*
X59377288Y-146943656D01*
X59501344Y-147067712D01*
X59650666Y-147159814D01*
X59817203Y-147214999D01*
X59919991Y-147225500D01*
X60695008Y-147225499D01*
X60695016Y-147225498D01*
X60695019Y-147225498D01*
X60751302Y-147219748D01*
X60797797Y-147214999D01*
X60964334Y-147159814D01*
X61113656Y-147067712D01*
X61237712Y-146943656D01*
X61329814Y-146794334D01*
X61384999Y-146627797D01*
X61395500Y-146525009D01*
X61395499Y-146372800D01*
X61415183Y-146305761D01*
X61416397Y-146303909D01*
X61481225Y-146206888D01*
X61521632Y-146146414D01*
X61597051Y-145964335D01*
X61625266Y-145822489D01*
X61635500Y-145771043D01*
X61635500Y-145116976D01*
X61655185Y-145049937D01*
X61707989Y-145004182D01*
X61735135Y-144996736D01*
X61734932Y-144995876D01*
X61742479Y-144994092D01*
X61742481Y-144994091D01*
X61742483Y-144994091D01*
X61877331Y-144943796D01*
X61992546Y-144857546D01*
X62078796Y-144742331D01*
X62129091Y-144607483D01*
X62135500Y-144547873D01*
X62135499Y-139457535D01*
X62138673Y-139446724D01*
X62137469Y-139435518D01*
X62148342Y-139413796D01*
X62155184Y-139390497D01*
X62163699Y-139383118D01*
X62168745Y-139373039D01*
X62189636Y-139360643D01*
X62207988Y-139344742D01*
X62219140Y-139343138D01*
X62228834Y-139337387D01*
X62253107Y-139338254D01*
X62277146Y-139334798D01*
X62287397Y-139339479D01*
X62298659Y-139339882D01*
X62318607Y-139353732D01*
X62340702Y-139363823D01*
X62348285Y-139374338D01*
X62356051Y-139379731D01*
X62374058Y-139410079D01*
X62399411Y-139471286D01*
X62415793Y-139510837D01*
X62421006Y-139526195D01*
X62468843Y-139704722D01*
X62471729Y-139718641D01*
X62498161Y-139897029D01*
X62499500Y-139915204D01*
X62499500Y-148086895D01*
X62497198Y-148142369D01*
X62499500Y-148152647D01*
X62499500Y-148163182D01*
X62513202Y-148214318D01*
X62514419Y-148219267D01*
X62549443Y-148375651D01*
X62555122Y-148418781D01*
X62563786Y-148439701D01*
X62566127Y-148450151D01*
X62568736Y-148461801D01*
X62570849Y-148467566D01*
X62575432Y-148537286D01*
X62561810Y-148572225D01*
X62552092Y-148589058D01*
X62552090Y-148589062D01*
X62526500Y-148684565D01*
X62526500Y-148783435D01*
X62552090Y-148878938D01*
X62552091Y-148878939D01*
X62552091Y-148878940D01*
X62576952Y-148922000D01*
X62593425Y-148989900D01*
X62576952Y-149046000D01*
X62552091Y-149089059D01*
X62552091Y-149089060D01*
X62552090Y-149089062D01*
X62526500Y-149184565D01*
X62526500Y-149283435D01*
X62552090Y-149378938D01*
X62552091Y-149378939D01*
X62552091Y-149378940D01*
X62576952Y-149422000D01*
X62593425Y-149489900D01*
X62576952Y-149546000D01*
X62552091Y-149589059D01*
X62552091Y-149589060D01*
X62552090Y-149589062D01*
X62526500Y-149684565D01*
X62526500Y-149783435D01*
X62552090Y-149878938D01*
X62552091Y-149878939D01*
X62552091Y-149878940D01*
X62576952Y-149922000D01*
X62593425Y-149989900D01*
X62576952Y-150045999D01*
X62574876Y-150049595D01*
X62552091Y-150089059D01*
X62552091Y-150089060D01*
X62552090Y-150089062D01*
X62526500Y-150184565D01*
X62526500Y-150283435D01*
X62552090Y-150378938D01*
X62552091Y-150378939D01*
X62552091Y-150378940D01*
X62576952Y-150422000D01*
X62593425Y-150489900D01*
X62576952Y-150546000D01*
X62552091Y-150589059D01*
X62552091Y-150589060D01*
X62552090Y-150589062D01*
X62526500Y-150684565D01*
X62526500Y-150783435D01*
X62552090Y-150878938D01*
X62552091Y-150878939D01*
X62552091Y-150878940D01*
X62576952Y-150922000D01*
X62593425Y-150989900D01*
X62576952Y-151046000D01*
X62552091Y-151089059D01*
X62552091Y-151089060D01*
X62552090Y-151089062D01*
X62526500Y-151184565D01*
X62526500Y-151283435D01*
X62552090Y-151378938D01*
X62552091Y-151378939D01*
X62552091Y-151378940D01*
X62576952Y-151422000D01*
X62593425Y-151489900D01*
X62576952Y-151546000D01*
X62552091Y-151589059D01*
X62552091Y-151589060D01*
X62552090Y-151589062D01*
X62526500Y-151684565D01*
X62526500Y-151783435D01*
X62552090Y-151878938D01*
X62574474Y-151917709D01*
X62576952Y-151922000D01*
X62593425Y-151989900D01*
X62576952Y-152046000D01*
X62552091Y-152089059D01*
X62552091Y-152089060D01*
X62552090Y-152089062D01*
X62526500Y-152184565D01*
X62526500Y-152283435D01*
X62552090Y-152378938D01*
X62552091Y-152378939D01*
X62552091Y-152378940D01*
X62576952Y-152422000D01*
X62593425Y-152489900D01*
X62576952Y-152546000D01*
X62552091Y-152589059D01*
X62552091Y-152589060D01*
X62552090Y-152589062D01*
X62526500Y-152684565D01*
X62526500Y-152783435D01*
X62552090Y-152878938D01*
X62552091Y-152878939D01*
X62552091Y-152878940D01*
X62576952Y-152922000D01*
X62593425Y-152989900D01*
X62576952Y-153046000D01*
X62552091Y-153089059D01*
X62552091Y-153089060D01*
X62552090Y-153089062D01*
X62526500Y-153184565D01*
X62526500Y-153283435D01*
X62552090Y-153378938D01*
X62570438Y-153410718D01*
X62570603Y-153411397D01*
X62571105Y-153411886D01*
X62578819Y-153445263D01*
X62586911Y-153478616D01*
X62586734Y-153479507D01*
X62586839Y-153479961D01*
X62586152Y-153482437D01*
X62579784Y-153514543D01*
X62576892Y-153522614D01*
X62568738Y-153538197D01*
X62564450Y-153557338D01*
X62561861Y-153564565D01*
X62561169Y-153565513D01*
X62559691Y-153570186D01*
X62555123Y-153581213D01*
X62555122Y-153581219D01*
X62550166Y-153618856D01*
X62548229Y-153629767D01*
X62514427Y-153780691D01*
X62514428Y-153780692D01*
X62513866Y-153783202D01*
X62499500Y-153836821D01*
X62499500Y-153847348D01*
X62497198Y-153857627D01*
X62497198Y-153857632D01*
X62499393Y-153910525D01*
X62499500Y-153915666D01*
X62499500Y-160084794D01*
X62498161Y-160102967D01*
X62498161Y-160102969D01*
X62471729Y-160281357D01*
X62468843Y-160295276D01*
X62421006Y-160473803D01*
X62415792Y-160489161D01*
X62347007Y-160655224D01*
X62339833Y-160669772D01*
X62249957Y-160825442D01*
X62240946Y-160838928D01*
X62131521Y-160981535D01*
X62120826Y-160993730D01*
X61993730Y-161120826D01*
X61981535Y-161131521D01*
X61838931Y-161240944D01*
X61825445Y-161249955D01*
X61669774Y-161339832D01*
X61655226Y-161347006D01*
X61489160Y-161415792D01*
X61473802Y-161421006D01*
X61295276Y-161468843D01*
X61281357Y-161471729D01*
X61126284Y-161494706D01*
X61102967Y-161498161D01*
X61084794Y-161499500D01*
X38915205Y-161499500D01*
X38897031Y-161498161D01*
X38869430Y-161494071D01*
X38718641Y-161471729D01*
X38704722Y-161468843D01*
X38526195Y-161421006D01*
X38510837Y-161415792D01*
X38344774Y-161347007D01*
X38330226Y-161339833D01*
X38174556Y-161249957D01*
X38161073Y-161240949D01*
X38109786Y-161201595D01*
X38068584Y-161145167D01*
X38064429Y-161075421D01*
X38098642Y-161014500D01*
X38160359Y-160981748D01*
X38228606Y-160987037D01*
X38247517Y-160994091D01*
X38307127Y-161000500D01*
X40402872Y-161000499D01*
X40462483Y-160994091D01*
X40597331Y-160943796D01*
X40712546Y-160857546D01*
X40798796Y-160742331D01*
X40798797Y-160742326D01*
X40803047Y-160734546D01*
X40806200Y-160736267D01*
X40837814Y-160694025D01*
X40903275Y-160669599D01*
X40971550Y-160684442D01*
X40985023Y-160692964D01*
X41108828Y-160782914D01*
X41319195Y-160890102D01*
X41543744Y-160963063D01*
X41543750Y-160963065D01*
X41645000Y-160979101D01*
X41645000Y-160979100D01*
X42145000Y-160979100D01*
X42246249Y-160963065D01*
X42246255Y-160963063D01*
X42470804Y-160890102D01*
X42681171Y-160782914D01*
X42872186Y-160644133D01*
X43039133Y-160477186D01*
X43177914Y-160286171D01*
X43285102Y-160075802D01*
X43358065Y-159851247D01*
X43395000Y-159618052D01*
X43395000Y-158250000D01*
X42145000Y-158250000D01*
X42145000Y-160979100D01*
X41645000Y-160979100D01*
X41645000Y-158166988D01*
X41654940Y-158184205D01*
X41710795Y-158240060D01*
X41779204Y-158279556D01*
X41855504Y-158300000D01*
X41934496Y-158300000D01*
X42010796Y-158279556D01*
X42079205Y-158240060D01*
X42135060Y-158184205D01*
X42174556Y-158115796D01*
X42195000Y-158039496D01*
X42195000Y-157960504D01*
X42174556Y-157884204D01*
X42135060Y-157815795D01*
X42079205Y-157759940D01*
X42010796Y-157720444D01*
X41934496Y-157700000D01*
X41855504Y-157700000D01*
X41779204Y-157720444D01*
X41710795Y-157759940D01*
X41654940Y-157815795D01*
X41645000Y-157833011D01*
X41645000Y-155355000D01*
X41641500Y-155355000D01*
X41574461Y-155335315D01*
X41528706Y-155282511D01*
X41517500Y-155231000D01*
X41517500Y-154870000D01*
X42017500Y-154870000D01*
X42021000Y-154870000D01*
X42088039Y-154889685D01*
X42133794Y-154942489D01*
X42145000Y-154994000D01*
X42145000Y-157750000D01*
X43395000Y-157750000D01*
X43395000Y-156381947D01*
X43358065Y-156148752D01*
X43285102Y-155924197D01*
X43177912Y-155713825D01*
X43039140Y-155522822D01*
X43039133Y-155522813D01*
X42968455Y-155452135D01*
X47219500Y-155452135D01*
X47219500Y-160547870D01*
X47219501Y-160547876D01*
X47225908Y-160607483D01*
X47276202Y-160742328D01*
X47276206Y-160742335D01*
X47362452Y-160857544D01*
X47362455Y-160857547D01*
X47477664Y-160943793D01*
X47477671Y-160943797D01*
X47612517Y-160994091D01*
X47612516Y-160994091D01*
X47619444Y-160994835D01*
X47672127Y-161000500D01*
X49767872Y-161000499D01*
X49827483Y-160994091D01*
X49962331Y-160943796D01*
X50077546Y-160857546D01*
X50163796Y-160742331D01*
X50163797Y-160742326D01*
X50168047Y-160734546D01*
X50171200Y-160736267D01*
X50202814Y-160694025D01*
X50268275Y-160669599D01*
X50336550Y-160684442D01*
X50350023Y-160692964D01*
X50473828Y-160782914D01*
X50684195Y-160890102D01*
X50908744Y-160963063D01*
X50908750Y-160963065D01*
X51010000Y-160979101D01*
X51510000Y-160979101D01*
X51611249Y-160963065D01*
X51611255Y-160963063D01*
X51835804Y-160890102D01*
X52046171Y-160782914D01*
X52237186Y-160644133D01*
X52404133Y-160477186D01*
X52542914Y-160286171D01*
X52650102Y-160075802D01*
X52723065Y-159851247D01*
X52760000Y-159618052D01*
X52760000Y-158250000D01*
X51510000Y-158250000D01*
X51510000Y-160979101D01*
X51010000Y-160979101D01*
X51010000Y-158166988D01*
X51019940Y-158184205D01*
X51075795Y-158240060D01*
X51144204Y-158279556D01*
X51220504Y-158300000D01*
X51299496Y-158300000D01*
X51375796Y-158279556D01*
X51444205Y-158240060D01*
X51500060Y-158184205D01*
X51539556Y-158115796D01*
X51560000Y-158039496D01*
X51560000Y-157960504D01*
X51539556Y-157884204D01*
X51500060Y-157815795D01*
X51444205Y-157759940D01*
X51375796Y-157720444D01*
X51299496Y-157700000D01*
X51220504Y-157700000D01*
X51144204Y-157720444D01*
X51075795Y-157759940D01*
X51019940Y-157815795D01*
X51010000Y-157833011D01*
X51010000Y-155355000D01*
X50911500Y-155355000D01*
X50844461Y-155335315D01*
X50798706Y-155282511D01*
X50787500Y-155231000D01*
X50787500Y-154870000D01*
X51287500Y-154870000D01*
X51386000Y-154870000D01*
X51453039Y-154889685D01*
X51498794Y-154942489D01*
X51510000Y-154994000D01*
X51510000Y-157750000D01*
X52760000Y-157750000D01*
X52760000Y-156381947D01*
X52723065Y-156148752D01*
X52650102Y-155924197D01*
X52542912Y-155713825D01*
X52404140Y-155522822D01*
X52404133Y-155522813D01*
X52333455Y-155452135D01*
X56584500Y-155452135D01*
X56584500Y-160547870D01*
X56584501Y-160547876D01*
X56590908Y-160607483D01*
X56641202Y-160742328D01*
X56641206Y-160742335D01*
X56727452Y-160857544D01*
X56727455Y-160857547D01*
X56842664Y-160943793D01*
X56842671Y-160943797D01*
X56977517Y-160994091D01*
X56977516Y-160994091D01*
X56984444Y-160994835D01*
X57037127Y-161000500D01*
X59132872Y-161000499D01*
X59192483Y-160994091D01*
X59327331Y-160943796D01*
X59442546Y-160857546D01*
X59528796Y-160742331D01*
X59528797Y-160742326D01*
X59533047Y-160734546D01*
X59536200Y-160736267D01*
X59567814Y-160694025D01*
X59633275Y-160669599D01*
X59701550Y-160684442D01*
X59715023Y-160692964D01*
X59838828Y-160782914D01*
X60049195Y-160890102D01*
X60273744Y-160963063D01*
X60273750Y-160963065D01*
X60375000Y-160979101D01*
X60375000Y-160979100D01*
X60875000Y-160979100D01*
X60976249Y-160963065D01*
X60976255Y-160963063D01*
X61200804Y-160890102D01*
X61411171Y-160782914D01*
X61602186Y-160644133D01*
X61769133Y-160477186D01*
X61907914Y-160286171D01*
X62015102Y-160075802D01*
X62088065Y-159851247D01*
X62125000Y-159618052D01*
X62125000Y-158250000D01*
X60875000Y-158250000D01*
X60875000Y-160979100D01*
X60375000Y-160979100D01*
X60375000Y-158166988D01*
X60384940Y-158184205D01*
X60440795Y-158240060D01*
X60509204Y-158279556D01*
X60585504Y-158300000D01*
X60664496Y-158300000D01*
X60740796Y-158279556D01*
X60809205Y-158240060D01*
X60865060Y-158184205D01*
X60904556Y-158115796D01*
X60925000Y-158039496D01*
X60925000Y-157960504D01*
X60904556Y-157884204D01*
X60865060Y-157815795D01*
X60809205Y-157759940D01*
X60791988Y-157750000D01*
X62125000Y-157750000D01*
X62125000Y-156381947D01*
X62088065Y-156148752D01*
X62015102Y-155924197D01*
X61907914Y-155713828D01*
X61769133Y-155522813D01*
X61602186Y-155355866D01*
X61411171Y-155217085D01*
X61266726Y-155143486D01*
X61215930Y-155095511D01*
X61199135Y-155027690D01*
X61221673Y-154961555D01*
X61235346Y-154945314D01*
X61237316Y-154943343D01*
X61329356Y-154794124D01*
X61329358Y-154794119D01*
X61384505Y-154627697D01*
X61384506Y-154627690D01*
X61394999Y-154524986D01*
X61395000Y-154524973D01*
X61395000Y-154250000D01*
X60431500Y-154250000D01*
X60364461Y-154230315D01*
X60318706Y-154177511D01*
X60307500Y-154126000D01*
X60307500Y-154000000D01*
X60181500Y-154000000D01*
X60114461Y-153980315D01*
X60068706Y-153927511D01*
X60057500Y-153876000D01*
X60057500Y-153750000D01*
X60557500Y-153750000D01*
X61394999Y-153750000D01*
X61394999Y-153475028D01*
X61394998Y-153475013D01*
X61384505Y-153372302D01*
X61329358Y-153205880D01*
X61329356Y-153205875D01*
X61237315Y-153056654D01*
X61113345Y-152932684D01*
X60964124Y-152840643D01*
X60964119Y-152840641D01*
X60797697Y-152785494D01*
X60797690Y-152785493D01*
X60694986Y-152775000D01*
X60557500Y-152775000D01*
X60557500Y-153750000D01*
X60057500Y-153750000D01*
X60057500Y-152775000D01*
X59920027Y-152775000D01*
X59920012Y-152775001D01*
X59817302Y-152785494D01*
X59650880Y-152840641D01*
X59650875Y-152840643D01*
X59501654Y-152932684D01*
X59377683Y-153056655D01*
X59377679Y-153056660D01*
X59375826Y-153059665D01*
X59374018Y-153061290D01*
X59373202Y-153062323D01*
X59373025Y-153062183D01*
X59323874Y-153106385D01*
X59254911Y-153117601D01*
X59190831Y-153089752D01*
X59164753Y-153059653D01*
X59164737Y-153059628D01*
X59162712Y-153056344D01*
X59038656Y-152932288D01*
X58889334Y-152840186D01*
X58722797Y-152785001D01*
X58722795Y-152785000D01*
X58620010Y-152774500D01*
X57844998Y-152774500D01*
X57844980Y-152774501D01*
X57742203Y-152785000D01*
X57742200Y-152785001D01*
X57575668Y-152840185D01*
X57575663Y-152840187D01*
X57426342Y-152932289D01*
X57302289Y-153056342D01*
X57210187Y-153205663D01*
X57210185Y-153205668D01*
X57208562Y-153210567D01*
X57155001Y-153372203D01*
X57155001Y-153372204D01*
X57155000Y-153372204D01*
X57144500Y-153474983D01*
X57144500Y-153778970D01*
X57135061Y-153826423D01*
X57122949Y-153855663D01*
X57122948Y-153855666D01*
X57084500Y-154048956D01*
X57084500Y-154883023D01*
X57064815Y-154950062D01*
X57012011Y-154995817D01*
X56984865Y-155003266D01*
X56985068Y-155004124D01*
X56977520Y-155005907D01*
X56842671Y-155056202D01*
X56842664Y-155056206D01*
X56727455Y-155142452D01*
X56727452Y-155142455D01*
X56641206Y-155257664D01*
X56641202Y-155257671D01*
X56590908Y-155392517D01*
X56584501Y-155452116D01*
X56584500Y-155452135D01*
X52333455Y-155452135D01*
X52237186Y-155355866D01*
X52046171Y-155217085D01*
X51964659Y-155175553D01*
X51913863Y-155127579D01*
X51897068Y-155059758D01*
X51919605Y-154993623D01*
X51933274Y-154977386D01*
X51967315Y-154943344D01*
X52059356Y-154794124D01*
X52059358Y-154794119D01*
X52114505Y-154627697D01*
X52114506Y-154627690D01*
X52124999Y-154524986D01*
X52125000Y-154524973D01*
X52125000Y-154250000D01*
X51287500Y-154250000D01*
X51287500Y-154870000D01*
X50787500Y-154870000D01*
X50787500Y-153750000D01*
X51287500Y-153750000D01*
X52124999Y-153750000D01*
X52124999Y-153475028D01*
X52124998Y-153475013D01*
X52114505Y-153372302D01*
X52059358Y-153205880D01*
X52059356Y-153205875D01*
X51967315Y-153056654D01*
X51843345Y-152932684D01*
X51694124Y-152840643D01*
X51694119Y-152840641D01*
X51527697Y-152785494D01*
X51527690Y-152785493D01*
X51424986Y-152775000D01*
X51287500Y-152775000D01*
X51287500Y-153750000D01*
X50787500Y-153750000D01*
X50787500Y-152775000D01*
X50650027Y-152775000D01*
X50650012Y-152775001D01*
X50547302Y-152785494D01*
X50380880Y-152840641D01*
X50380875Y-152840643D01*
X50231654Y-152932684D01*
X50107683Y-153056655D01*
X50107679Y-153056660D01*
X50105826Y-153059665D01*
X50104018Y-153061290D01*
X50103202Y-153062323D01*
X50103025Y-153062183D01*
X50053874Y-153106385D01*
X49984911Y-153117601D01*
X49920831Y-153089752D01*
X49894753Y-153059653D01*
X49894737Y-153059628D01*
X49892712Y-153056344D01*
X49768656Y-152932288D01*
X49619334Y-152840186D01*
X49452797Y-152785001D01*
X49452795Y-152785000D01*
X49350010Y-152774500D01*
X48574998Y-152774500D01*
X48574980Y-152774501D01*
X48472203Y-152785000D01*
X48472200Y-152785001D01*
X48305668Y-152840185D01*
X48305663Y-152840187D01*
X48156342Y-152932289D01*
X48032289Y-153056342D01*
X47940187Y-153205663D01*
X47940185Y-153205668D01*
X47938562Y-153210567D01*
X47885001Y-153372203D01*
X47885001Y-153372204D01*
X47885000Y-153372204D01*
X47874500Y-153474983D01*
X47874500Y-153669412D01*
X47854815Y-153736451D01*
X47853603Y-153738302D01*
X47833367Y-153768587D01*
X47826289Y-153785676D01*
X47796486Y-153857627D01*
X47780038Y-153897335D01*
X47757949Y-153950661D01*
X47757947Y-153950667D01*
X47741004Y-154035851D01*
X47741004Y-154035852D01*
X47719500Y-154143956D01*
X47719500Y-154883023D01*
X47699815Y-154950062D01*
X47647011Y-154995817D01*
X47619865Y-155003266D01*
X47620068Y-155004124D01*
X47612520Y-155005907D01*
X47477671Y-155056202D01*
X47477664Y-155056206D01*
X47362455Y-155142452D01*
X47362452Y-155142455D01*
X47276206Y-155257664D01*
X47276202Y-155257671D01*
X47225908Y-155392517D01*
X47219501Y-155452116D01*
X47219500Y-155452135D01*
X42968455Y-155452135D01*
X42872186Y-155355866D01*
X42681169Y-155217083D01*
X42662592Y-155207618D01*
X42611797Y-155159644D01*
X42595002Y-155091823D01*
X42617540Y-155025688D01*
X42631207Y-155009452D01*
X42697317Y-154943342D01*
X42789356Y-154794124D01*
X42789358Y-154794119D01*
X42844505Y-154627697D01*
X42844506Y-154627690D01*
X42854999Y-154524986D01*
X42855000Y-154524973D01*
X42855000Y-154250000D01*
X42017500Y-154250000D01*
X42017500Y-154870000D01*
X41517500Y-154870000D01*
X41517500Y-153750000D01*
X42017500Y-153750000D01*
X42854999Y-153750000D01*
X42854999Y-153475028D01*
X42854998Y-153475013D01*
X42844505Y-153372302D01*
X42789358Y-153205880D01*
X42789356Y-153205875D01*
X42697315Y-153056654D01*
X42573345Y-152932684D01*
X42424124Y-152840643D01*
X42424119Y-152840641D01*
X42257697Y-152785494D01*
X42257690Y-152785493D01*
X42154986Y-152775000D01*
X42017500Y-152775000D01*
X42017500Y-153750000D01*
X41517500Y-153750000D01*
X41517500Y-152775000D01*
X41380027Y-152775000D01*
X41380012Y-152775001D01*
X41277302Y-152785494D01*
X41110880Y-152840641D01*
X41110875Y-152840643D01*
X40961654Y-152932684D01*
X40837683Y-153056655D01*
X40837679Y-153056660D01*
X40835826Y-153059665D01*
X40834018Y-153061290D01*
X40833202Y-153062323D01*
X40833025Y-153062183D01*
X40783874Y-153106385D01*
X40714911Y-153117601D01*
X40650831Y-153089752D01*
X40624753Y-153059653D01*
X40624737Y-153059628D01*
X40622712Y-153056344D01*
X40498656Y-152932288D01*
X40349334Y-152840186D01*
X40182797Y-152785001D01*
X40182795Y-152785000D01*
X40080010Y-152774500D01*
X39304998Y-152774500D01*
X39304980Y-152774501D01*
X39202203Y-152785000D01*
X39202200Y-152785001D01*
X39035668Y-152840185D01*
X39035663Y-152840187D01*
X38886342Y-152932289D01*
X38762289Y-153056342D01*
X38670187Y-153205663D01*
X38670185Y-153205668D01*
X38668562Y-153210567D01*
X38615001Y-153372203D01*
X38615001Y-153372204D01*
X38615000Y-153372204D01*
X38604500Y-153474983D01*
X38604500Y-153622890D01*
X38584815Y-153689929D01*
X38579763Y-153696871D01*
X38468371Y-153863579D01*
X38468364Y-153863592D01*
X38428479Y-153959886D01*
X38428477Y-153959892D01*
X38426657Y-153964286D01*
X38392949Y-154045664D01*
X38382759Y-154096893D01*
X38381311Y-154104168D01*
X38381310Y-154104174D01*
X38354500Y-154238956D01*
X38354500Y-154883023D01*
X38334815Y-154950062D01*
X38282011Y-154995817D01*
X38254865Y-155003266D01*
X38255068Y-155004124D01*
X38247520Y-155005907D01*
X38112671Y-155056202D01*
X38112664Y-155056206D01*
X37997455Y-155142452D01*
X37997452Y-155142455D01*
X37911206Y-155257664D01*
X37911202Y-155257671D01*
X37860908Y-155392517D01*
X37854501Y-155452116D01*
X37854500Y-155452135D01*
X37854500Y-160518321D01*
X37851325Y-160529132D01*
X37852530Y-160540339D01*
X37841656Y-160562060D01*
X37834815Y-160585360D01*
X37826299Y-160592738D01*
X37821254Y-160602818D01*
X37800363Y-160615212D01*
X37782011Y-160631115D01*
X37770857Y-160632718D01*
X37761164Y-160638470D01*
X37736890Y-160637602D01*
X37712853Y-160641059D01*
X37702601Y-160636377D01*
X37691339Y-160635975D01*
X37671388Y-160622122D01*
X37649297Y-160612034D01*
X37641715Y-160601519D01*
X37633947Y-160596126D01*
X37615940Y-160565776D01*
X37584205Y-160489159D01*
X37578992Y-160473802D01*
X37531155Y-160295277D01*
X37528269Y-160281356D01*
X37501839Y-160102967D01*
X37500500Y-160084794D01*
X37500500Y-151424986D01*
X44045001Y-151424986D01*
X44055494Y-151527697D01*
X44110641Y-151694119D01*
X44110643Y-151694124D01*
X44202684Y-151843345D01*
X44326654Y-151967315D01*
X44475875Y-152059356D01*
X44475880Y-152059358D01*
X44642302Y-152114505D01*
X44642309Y-152114506D01*
X44745019Y-152124999D01*
X45019999Y-152124999D01*
X45020000Y-152124998D01*
X45020000Y-151287500D01*
X44045001Y-151287500D01*
X44045001Y-151424986D01*
X37500500Y-151424986D01*
X37500500Y-148574983D01*
X44044500Y-148574983D01*
X44044500Y-149350001D01*
X44044501Y-149350019D01*
X44055000Y-149452796D01*
X44055001Y-149452799D01*
X44094501Y-149572000D01*
X44110186Y-149619334D01*
X44202288Y-149768656D01*
X44326344Y-149892712D01*
X44329628Y-149894737D01*
X44329653Y-149894753D01*
X44331445Y-149896746D01*
X44332011Y-149897193D01*
X44331934Y-149897289D01*
X44376379Y-149946699D01*
X44387603Y-150015661D01*
X44359761Y-150079744D01*
X44329665Y-150105826D01*
X44326660Y-150107679D01*
X44326655Y-150107683D01*
X44202684Y-150231654D01*
X44110643Y-150380875D01*
X44110641Y-150380880D01*
X44055494Y-150547302D01*
X44055493Y-150547309D01*
X44045000Y-150650013D01*
X44045000Y-150787500D01*
X45146000Y-150787500D01*
X45213039Y-150807185D01*
X45258794Y-150859989D01*
X45270000Y-150911500D01*
X45270000Y-151037500D01*
X45396000Y-151037500D01*
X45463039Y-151057185D01*
X45508794Y-151109989D01*
X45520000Y-151161500D01*
X45520000Y-152124999D01*
X45794972Y-152124999D01*
X45794986Y-152124998D01*
X45897697Y-152114505D01*
X46064119Y-152059358D01*
X46064130Y-152059353D01*
X46173916Y-151991636D01*
X46241308Y-151973195D01*
X46307972Y-151994117D01*
X46339331Y-152024289D01*
X46344727Y-152031716D01*
X46344728Y-152031716D01*
X46977037Y-151399408D01*
X46994075Y-151462993D01*
X47059901Y-151577007D01*
X47152993Y-151670099D01*
X47267007Y-151735925D01*
X47330590Y-151752962D01*
X46698282Y-152385269D01*
X46698282Y-152385270D01*
X46752449Y-152424624D01*
X46941782Y-152521095D01*
X47143870Y-152586757D01*
X47353754Y-152620000D01*
X47566246Y-152620000D01*
X47776127Y-152586757D01*
X47776130Y-152586757D01*
X47978217Y-152521095D01*
X48167554Y-152424622D01*
X48221716Y-152385270D01*
X48221717Y-152385270D01*
X47589408Y-151752962D01*
X47652993Y-151735925D01*
X47767007Y-151670099D01*
X47860099Y-151577007D01*
X47925925Y-151462993D01*
X47942962Y-151399408D01*
X48575270Y-152031717D01*
X48575270Y-152031716D01*
X48614622Y-151977555D01*
X48619232Y-151968507D01*
X48667205Y-151917709D01*
X48735025Y-151900912D01*
X48801161Y-151923447D01*
X48840204Y-151968504D01*
X48844949Y-151977817D01*
X48969890Y-152149786D01*
X49120213Y-152300109D01*
X49292179Y-152425048D01*
X49292181Y-152425049D01*
X49292184Y-152425051D01*
X49481588Y-152521557D01*
X49683757Y-152587246D01*
X49893713Y-152620500D01*
X49893714Y-152620500D01*
X50106286Y-152620500D01*
X50106287Y-152620500D01*
X50316243Y-152587246D01*
X50518412Y-152521557D01*
X50707816Y-152425051D01*
X50771286Y-152378938D01*
X50879786Y-152300109D01*
X50879788Y-152300106D01*
X50879792Y-152300104D01*
X51030104Y-152149792D01*
X51030106Y-152149788D01*
X51030109Y-152149786D01*
X51145791Y-151990562D01*
X51155051Y-151977816D01*
X51159514Y-151969054D01*
X51207488Y-151918259D01*
X51275308Y-151901463D01*
X51341444Y-151923999D01*
X51380484Y-151969054D01*
X51384591Y-151977115D01*
X51384951Y-151977820D01*
X51509890Y-152149786D01*
X51660213Y-152300109D01*
X51832179Y-152425048D01*
X51832181Y-152425049D01*
X51832184Y-152425051D01*
X52021588Y-152521557D01*
X52223757Y-152587246D01*
X52433713Y-152620500D01*
X52433714Y-152620500D01*
X52646286Y-152620500D01*
X52646287Y-152620500D01*
X52856243Y-152587246D01*
X53058412Y-152521557D01*
X53247816Y-152425051D01*
X53311286Y-152378938D01*
X53419786Y-152300109D01*
X53419788Y-152300106D01*
X53419792Y-152300104D01*
X53570104Y-152149792D01*
X53570106Y-152149788D01*
X53570109Y-152149786D01*
X53685791Y-151990562D01*
X53695051Y-151977816D01*
X53791557Y-151788412D01*
X53857246Y-151586243D01*
X53890500Y-151376287D01*
X53890500Y-151163713D01*
X53857246Y-150953757D01*
X53791557Y-150751588D01*
X53695051Y-150562184D01*
X53695049Y-150562181D01*
X53695048Y-150562179D01*
X53570109Y-150390213D01*
X53419790Y-150239894D01*
X53419785Y-150239890D01*
X53414891Y-150236334D01*
X53372227Y-150181003D01*
X53366249Y-150111390D01*
X53398857Y-150049595D01*
X53448774Y-150018312D01*
X53459334Y-150014814D01*
X53608656Y-149922712D01*
X53732712Y-149798656D01*
X53824814Y-149649334D01*
X53879999Y-149482797D01*
X53890500Y-149380009D01*
X53890499Y-148079992D01*
X53885488Y-148030942D01*
X53879999Y-147977203D01*
X53879998Y-147977200D01*
X53867732Y-147940185D01*
X53824814Y-147810666D01*
X53732712Y-147661344D01*
X53608656Y-147537288D01*
X53459334Y-147445186D01*
X53292797Y-147390001D01*
X53292795Y-147390000D01*
X53190010Y-147379500D01*
X51889998Y-147379500D01*
X51889981Y-147379501D01*
X51787203Y-147390000D01*
X51787200Y-147390001D01*
X51781610Y-147391854D01*
X51781416Y-147391918D01*
X51620666Y-147445186D01*
X51619667Y-147445801D01*
X51619667Y-147445802D01*
X51471342Y-147537289D01*
X51347289Y-147661342D01*
X51255187Y-147810663D01*
X51255183Y-147810673D01*
X51251685Y-147821229D01*
X51211910Y-147878672D01*
X51147393Y-147905493D01*
X51078618Y-147893174D01*
X51033663Y-147855106D01*
X51030105Y-147850209D01*
X50879786Y-147699890D01*
X50707820Y-147574951D01*
X50518414Y-147478444D01*
X50518413Y-147478443D01*
X50518412Y-147478443D01*
X50316243Y-147412754D01*
X50316241Y-147412753D01*
X50316240Y-147412753D01*
X50154957Y-147387208D01*
X50106287Y-147379500D01*
X49893713Y-147379500D01*
X49845042Y-147387208D01*
X49683760Y-147412753D01*
X49481585Y-147478444D01*
X49292179Y-147574951D01*
X49120213Y-147699890D01*
X48969890Y-147850213D01*
X48844948Y-148022183D01*
X48840482Y-148030949D01*
X48792506Y-148081742D01*
X48724684Y-148098535D01*
X48658550Y-148075995D01*
X48619514Y-148030942D01*
X48615049Y-148022179D01*
X48490110Y-147850213D01*
X48339787Y-147699890D01*
X48167821Y-147574951D01*
X47978415Y-147478444D01*
X47978414Y-147478443D01*
X47978413Y-147478443D01*
X47776244Y-147412754D01*
X47776242Y-147412753D01*
X47776241Y-147412753D01*
X47614958Y-147387208D01*
X47566288Y-147379500D01*
X47353714Y-147379500D01*
X47305043Y-147387208D01*
X47143761Y-147412753D01*
X46941586Y-147478444D01*
X46752180Y-147574951D01*
X46576267Y-147702759D01*
X46575636Y-147701891D01*
X46516582Y-147728359D01*
X46499801Y-147729500D01*
X45403954Y-147729500D01*
X45371891Y-147735876D01*
X45371892Y-147735877D01*
X45210670Y-147767946D01*
X45210664Y-147767948D01*
X45028587Y-147843367D01*
X45013265Y-147853605D01*
X44946586Y-147874480D01*
X44944379Y-147874500D01*
X44744999Y-147874500D01*
X44744980Y-147874501D01*
X44642203Y-147885000D01*
X44642200Y-147885001D01*
X44475668Y-147940185D01*
X44475663Y-147940187D01*
X44326342Y-148032289D01*
X44202289Y-148156342D01*
X44110187Y-148305663D01*
X44110185Y-148305668D01*
X44088790Y-148370234D01*
X44055001Y-148472203D01*
X44055001Y-148472204D01*
X44055000Y-148472204D01*
X44044500Y-148574983D01*
X37500500Y-148574983D01*
X37500500Y-146524986D01*
X38605001Y-146524986D01*
X38615494Y-146627697D01*
X38670641Y-146794119D01*
X38670643Y-146794124D01*
X38762684Y-146943345D01*
X38886654Y-147067315D01*
X39035875Y-147159356D01*
X39035880Y-147159358D01*
X39202302Y-147214505D01*
X39202309Y-147214506D01*
X39305019Y-147224999D01*
X39442499Y-147224999D01*
X39442500Y-147224998D01*
X39442500Y-146250000D01*
X38605001Y-146250000D01*
X38605001Y-146524986D01*
X37500500Y-146524986D01*
X37500500Y-142250000D01*
X37865000Y-142250000D01*
X37865000Y-143618052D01*
X37901934Y-143851247D01*
X37974897Y-144075802D01*
X38082085Y-144286171D01*
X38220866Y-144477186D01*
X38387813Y-144644133D01*
X38578828Y-144782914D01*
X38729898Y-144859888D01*
X38780694Y-144907862D01*
X38797489Y-144975683D01*
X38774952Y-145041818D01*
X38766102Y-145052331D01*
X38762684Y-145056653D01*
X38670643Y-145205875D01*
X38670641Y-145205880D01*
X38615494Y-145372302D01*
X38615493Y-145372309D01*
X38605000Y-145475013D01*
X38605000Y-145750000D01*
X39568500Y-145750000D01*
X39635539Y-145769685D01*
X39681294Y-145822489D01*
X39692500Y-145874000D01*
X39692500Y-146000000D01*
X39818500Y-146000000D01*
X39885539Y-146019685D01*
X39931294Y-146072489D01*
X39942500Y-146124000D01*
X39942500Y-147224999D01*
X40079972Y-147224999D01*
X40079986Y-147224998D01*
X40182697Y-147214505D01*
X40349119Y-147159358D01*
X40349124Y-147159356D01*
X40498345Y-147067315D01*
X40622318Y-146943342D01*
X40624165Y-146940348D01*
X40625969Y-146938724D01*
X40626798Y-146937677D01*
X40626976Y-146937818D01*
X40676110Y-146893621D01*
X40745073Y-146882396D01*
X40809156Y-146910236D01*
X40835243Y-146940341D01*
X40837288Y-146943656D01*
X40961344Y-147067712D01*
X41110666Y-147159814D01*
X41277203Y-147214999D01*
X41379991Y-147225500D01*
X42155008Y-147225499D01*
X42155016Y-147225498D01*
X42155019Y-147225498D01*
X42211302Y-147219748D01*
X42257797Y-147214999D01*
X42424334Y-147159814D01*
X42573656Y-147067712D01*
X42697712Y-146943656D01*
X42789814Y-146794334D01*
X42844999Y-146627797D01*
X42855500Y-146525009D01*
X42855500Y-146524986D01*
X47875001Y-146524986D01*
X47885494Y-146627697D01*
X47940641Y-146794119D01*
X47940643Y-146794124D01*
X48032684Y-146943345D01*
X48156654Y-147067315D01*
X48305875Y-147159356D01*
X48305880Y-147159358D01*
X48472302Y-147214505D01*
X48472309Y-147214506D01*
X48575019Y-147224999D01*
X48712499Y-147224999D01*
X48712500Y-147224998D01*
X48712500Y-146250000D01*
X47875001Y-146250000D01*
X47875001Y-146524986D01*
X42855500Y-146524986D01*
X42855499Y-146206887D01*
X42857125Y-146198712D01*
X42856209Y-146193636D01*
X42864937Y-146159438D01*
X42867051Y-146154335D01*
X42878150Y-146098540D01*
X42905500Y-145961041D01*
X42905500Y-145763960D01*
X42905500Y-145116976D01*
X42925185Y-145049937D01*
X42977989Y-145004182D01*
X43005135Y-144996736D01*
X43004932Y-144995876D01*
X43012479Y-144994092D01*
X43012481Y-144994091D01*
X43012483Y-144994091D01*
X43147331Y-144943796D01*
X43262546Y-144857546D01*
X43348796Y-144742331D01*
X43399091Y-144607483D01*
X43405500Y-144547873D01*
X43405500Y-143618052D01*
X47230000Y-143618052D01*
X47266934Y-143851247D01*
X47339897Y-144075802D01*
X47447085Y-144286171D01*
X47585866Y-144477186D01*
X47752813Y-144644133D01*
X47943828Y-144782914D01*
X48031964Y-144827822D01*
X48082760Y-144875797D01*
X48099555Y-144943618D01*
X48077018Y-145009753D01*
X48063351Y-145025987D01*
X48032684Y-145056654D01*
X47940643Y-145205875D01*
X47940641Y-145205880D01*
X47885494Y-145372302D01*
X47885493Y-145372309D01*
X47875000Y-145475013D01*
X47875000Y-145750000D01*
X48712500Y-145750000D01*
X48712500Y-145130000D01*
X48604000Y-145130000D01*
X48536961Y-145110315D01*
X48491206Y-145057511D01*
X48480000Y-145006000D01*
X48480000Y-142250000D01*
X47230000Y-142250000D01*
X47230000Y-143618052D01*
X43405500Y-143618052D01*
X43405499Y-141960504D01*
X48430000Y-141960504D01*
X48430000Y-142039496D01*
X48450444Y-142115796D01*
X48489940Y-142184205D01*
X48545795Y-142240060D01*
X48614204Y-142279556D01*
X48690504Y-142300000D01*
X48769496Y-142300000D01*
X48845796Y-142279556D01*
X48914205Y-142240060D01*
X48970060Y-142184205D01*
X48980000Y-142166988D01*
X48980000Y-144645000D01*
X49088500Y-144645000D01*
X49155539Y-144664685D01*
X49201294Y-144717489D01*
X49212500Y-144769000D01*
X49212500Y-147224999D01*
X49349972Y-147224999D01*
X49349986Y-147224998D01*
X49452697Y-147214505D01*
X49619119Y-147159358D01*
X49619124Y-147159356D01*
X49768345Y-147067315D01*
X49892318Y-146943342D01*
X49894165Y-146940348D01*
X49895969Y-146938724D01*
X49896798Y-146937677D01*
X49896976Y-146937818D01*
X49946110Y-146893621D01*
X50015073Y-146882396D01*
X50079156Y-146910236D01*
X50105243Y-146940341D01*
X50107288Y-146943656D01*
X50231344Y-147067712D01*
X50380666Y-147159814D01*
X50547203Y-147214999D01*
X50649991Y-147225500D01*
X51425008Y-147225499D01*
X51425016Y-147225498D01*
X51425019Y-147225498D01*
X51481302Y-147219748D01*
X51527797Y-147214999D01*
X51694334Y-147159814D01*
X51843656Y-147067712D01*
X51967712Y-146943656D01*
X52059814Y-146794334D01*
X52114999Y-146627797D01*
X52125500Y-146525009D01*
X52125500Y-146524986D01*
X57145001Y-146524986D01*
X57155494Y-146627697D01*
X57210641Y-146794119D01*
X57210643Y-146794124D01*
X57302684Y-146943345D01*
X57426654Y-147067315D01*
X57575875Y-147159356D01*
X57575880Y-147159358D01*
X57742302Y-147214505D01*
X57742309Y-147214506D01*
X57845019Y-147224999D01*
X57982499Y-147224999D01*
X57982500Y-147224998D01*
X57982500Y-146250000D01*
X57145001Y-146250000D01*
X57145001Y-146524986D01*
X52125500Y-146524986D01*
X52125499Y-146325622D01*
X52137068Y-146273323D01*
X52141094Y-146264666D01*
X52156632Y-146241414D01*
X52232052Y-146059335D01*
X52270500Y-145866040D01*
X52270500Y-145668959D01*
X52270500Y-145116976D01*
X52290185Y-145049937D01*
X52342989Y-145004182D01*
X52370135Y-144996736D01*
X52369932Y-144995876D01*
X52377479Y-144994092D01*
X52377481Y-144994091D01*
X52377483Y-144994091D01*
X52512331Y-144943796D01*
X52627546Y-144857546D01*
X52713796Y-144742331D01*
X52764091Y-144607483D01*
X52770500Y-144547873D01*
X52770500Y-143618052D01*
X56595000Y-143618052D01*
X56631934Y-143851247D01*
X56704897Y-144075802D01*
X56812085Y-144286171D01*
X56950866Y-144477186D01*
X57117813Y-144644133D01*
X57308830Y-144782916D01*
X57334029Y-144795755D01*
X57384825Y-144843728D01*
X57401621Y-144911549D01*
X57379084Y-144977684D01*
X57365418Y-144993920D01*
X57302682Y-145056656D01*
X57210643Y-145205875D01*
X57210641Y-145205880D01*
X57155494Y-145372302D01*
X57155493Y-145372309D01*
X57145000Y-145475013D01*
X57145000Y-145750000D01*
X57982500Y-145750000D01*
X57982500Y-145130000D01*
X57969000Y-145130000D01*
X57901961Y-145110315D01*
X57856206Y-145057511D01*
X57845000Y-145006000D01*
X57845000Y-142250000D01*
X56595000Y-142250000D01*
X56595000Y-143618052D01*
X52770500Y-143618052D01*
X52770499Y-140381947D01*
X56595000Y-140381947D01*
X56595000Y-141750000D01*
X57845000Y-141750000D01*
X57845000Y-139020897D01*
X57743752Y-139036934D01*
X57519197Y-139109897D01*
X57308828Y-139217085D01*
X57117813Y-139355866D01*
X56950866Y-139522813D01*
X56812085Y-139713828D01*
X56704897Y-139924197D01*
X56631934Y-140148752D01*
X56595000Y-140381947D01*
X52770499Y-140381947D01*
X52770499Y-139452128D01*
X52764091Y-139392517D01*
X52760585Y-139383118D01*
X52713797Y-139257671D01*
X52713793Y-139257664D01*
X52627547Y-139142455D01*
X52627544Y-139142452D01*
X52512335Y-139056206D01*
X52512328Y-139056202D01*
X52377482Y-139005908D01*
X52377483Y-139005908D01*
X52317883Y-138999501D01*
X52317881Y-138999500D01*
X52317873Y-138999500D01*
X52317864Y-138999500D01*
X50222129Y-138999500D01*
X50222123Y-138999501D01*
X50162516Y-139005908D01*
X50027671Y-139056202D01*
X50027664Y-139056206D01*
X49912455Y-139142452D01*
X49912452Y-139142455D01*
X49826206Y-139257664D01*
X49821953Y-139265454D01*
X49818807Y-139263736D01*
X49787139Y-139306010D01*
X49721667Y-139330404D01*
X49653399Y-139315529D01*
X49639978Y-139307035D01*
X49516174Y-139217087D01*
X49305802Y-139109897D01*
X49081247Y-139036934D01*
X48980000Y-139020897D01*
X48980000Y-141833011D01*
X48970060Y-141815795D01*
X48914205Y-141759940D01*
X48845796Y-141720444D01*
X48769496Y-141700000D01*
X48690504Y-141700000D01*
X48614204Y-141720444D01*
X48545795Y-141759940D01*
X48489940Y-141815795D01*
X48450444Y-141884204D01*
X48430000Y-141960504D01*
X43405499Y-141960504D01*
X43405499Y-140381947D01*
X47230000Y-140381947D01*
X47230000Y-141750000D01*
X48480000Y-141750000D01*
X48480000Y-139020897D01*
X48378752Y-139036934D01*
X48154197Y-139109897D01*
X47943828Y-139217085D01*
X47752813Y-139355866D01*
X47585866Y-139522813D01*
X47447085Y-139713828D01*
X47339897Y-139924197D01*
X47266934Y-140148752D01*
X47230000Y-140381947D01*
X43405499Y-140381947D01*
X43405499Y-139452128D01*
X43399091Y-139392517D01*
X43395585Y-139383118D01*
X43348797Y-139257671D01*
X43348793Y-139257664D01*
X43262547Y-139142455D01*
X43262544Y-139142452D01*
X43147335Y-139056206D01*
X43147328Y-139056202D01*
X43012482Y-139005908D01*
X43012483Y-139005908D01*
X42952883Y-138999501D01*
X42952881Y-138999500D01*
X42952873Y-138999500D01*
X42952864Y-138999500D01*
X40857129Y-138999500D01*
X40857123Y-138999501D01*
X40797516Y-139005908D01*
X40662671Y-139056202D01*
X40662664Y-139056206D01*
X40547455Y-139142452D01*
X40547452Y-139142455D01*
X40461206Y-139257664D01*
X40456953Y-139265454D01*
X40453807Y-139263736D01*
X40422139Y-139306010D01*
X40356667Y-139330404D01*
X40288399Y-139315529D01*
X40274978Y-139307035D01*
X40151174Y-139217087D01*
X39940802Y-139109897D01*
X39716247Y-139036934D01*
X39615000Y-139020897D01*
X39615000Y-141833011D01*
X39605060Y-141815795D01*
X39549205Y-141759940D01*
X39480796Y-141720444D01*
X39404496Y-141700000D01*
X39325504Y-141700000D01*
X39249204Y-141720444D01*
X39180795Y-141759940D01*
X39124940Y-141815795D01*
X39085444Y-141884204D01*
X39065000Y-141960504D01*
X39065000Y-142039496D01*
X39085444Y-142115796D01*
X39124940Y-142184205D01*
X39180795Y-142240060D01*
X39198012Y-142250000D01*
X37865000Y-142250000D01*
X37500500Y-142250000D01*
X37500500Y-140381947D01*
X37865000Y-140381947D01*
X37865000Y-141750000D01*
X39115000Y-141750000D01*
X39115000Y-139020897D01*
X39013752Y-139036934D01*
X38789197Y-139109897D01*
X38578828Y-139217085D01*
X38387813Y-139355866D01*
X38220866Y-139522813D01*
X38082085Y-139713828D01*
X37974897Y-139924197D01*
X37901934Y-140148752D01*
X37865000Y-140381947D01*
X37500500Y-140381947D01*
X37500500Y-139915204D01*
X37501839Y-139897031D01*
X37514174Y-139813774D01*
X37528269Y-139718638D01*
X37531155Y-139704721D01*
X37533621Y-139695520D01*
X37578992Y-139526194D01*
X37584206Y-139510838D01*
X37652992Y-139344772D01*
X37660162Y-139330230D01*
X37750047Y-139174546D01*
X37759049Y-139161073D01*
X37868483Y-139018455D01*
X37879164Y-139006276D01*
X38006276Y-138879164D01*
X38018455Y-138868483D01*
X38161076Y-138759047D01*
X38174549Y-138750045D01*
X38330232Y-138660161D01*
X38344774Y-138652991D01*
X38510837Y-138584206D01*
X38526195Y-138578992D01*
X38561716Y-138569474D01*
X38704728Y-138531153D01*
X38718638Y-138528269D01*
X38805392Y-138515416D01*
X38897032Y-138501839D01*
X38915205Y-138500500D01*
X61084794Y-138500500D01*
X61102967Y-138501839D01*
G37*
%TD.AperFunction*%
%TA.AperFunction,Conductor*%
G36*
X71916481Y-156273713D02*
G01*
X71961441Y-156311783D01*
X71964997Y-156316677D01*
X71965001Y-156316682D01*
X72115320Y-156467001D01*
X72287289Y-156591942D01*
X72296053Y-156596408D01*
X72346849Y-156644383D01*
X72363643Y-156712204D01*
X72341105Y-156778339D01*
X72296053Y-156817376D01*
X72287289Y-156821841D01*
X72115320Y-156946782D01*
X71964997Y-157097105D01*
X71840056Y-157269074D01*
X71835309Y-157278391D01*
X71787334Y-157329185D01*
X71719512Y-157345979D01*
X71653378Y-157323440D01*
X71614341Y-157278387D01*
X71609733Y-157269344D01*
X71570377Y-157215174D01*
X71570376Y-157215174D01*
X70938069Y-157847482D01*
X70921032Y-157783899D01*
X70855206Y-157669885D01*
X70762114Y-157576793D01*
X70648100Y-157510967D01*
X70584516Y-157493929D01*
X71220996Y-156857447D01*
X71232084Y-156804660D01*
X71281134Y-156754902D01*
X71302329Y-156745601D01*
X71374441Y-156721706D01*
X71523763Y-156629604D01*
X71647819Y-156505548D01*
X71739921Y-156356226D01*
X71743419Y-156345667D01*
X71783189Y-156288224D01*
X71847705Y-156261399D01*
X71916481Y-156273713D01*
G37*
%TD.AperFunction*%
%TA.AperFunction,Conductor*%
G36*
X72711662Y-140219294D02*
G01*
X72756009Y-140247795D01*
X72845106Y-140336892D01*
X72934202Y-140247796D01*
X72995525Y-140214311D01*
X73065217Y-140219295D01*
X73109564Y-140247796D01*
X78678736Y-145816968D01*
X78678737Y-145816968D01*
X78687149Y-145808557D01*
X79032508Y-145414750D01*
X79351362Y-144999211D01*
X79642352Y-144563714D01*
X79642368Y-144563689D01*
X79904256Y-144110086D01*
X80135919Y-143640320D01*
X80246047Y-143374449D01*
X80289888Y-143320046D01*
X80356182Y-143297981D01*
X80423881Y-143315260D01*
X80471492Y-143366397D01*
X80484608Y-143421902D01*
X80484608Y-160806208D01*
X80484011Y-160818363D01*
X80473831Y-160921712D01*
X80469089Y-160945552D01*
X80447892Y-161015429D01*
X80438589Y-161037887D01*
X80404169Y-161102282D01*
X80390664Y-161122494D01*
X80344342Y-161178937D01*
X80327155Y-161196125D01*
X80270710Y-161242449D01*
X80250497Y-161255954D01*
X80186105Y-161290372D01*
X80163648Y-161299674D01*
X80093765Y-161320873D01*
X80069923Y-161325616D01*
X79966587Y-161335794D01*
X79954433Y-161336391D01*
X66015780Y-161336391D01*
X66003627Y-161335794D01*
X65900290Y-161325617D01*
X65876446Y-161320874D01*
X65806563Y-161299674D01*
X65784109Y-161290373D01*
X65719715Y-161255955D01*
X65699501Y-161242449D01*
X65643061Y-161196130D01*
X65625871Y-161178940D01*
X65612983Y-161163236D01*
X65585787Y-161130096D01*
X65579546Y-161122491D01*
X65566043Y-161102282D01*
X65552937Y-161077763D01*
X65531622Y-161037884D01*
X65522322Y-161015433D01*
X65522039Y-161014500D01*
X65501123Y-160945547D01*
X65496384Y-160921721D01*
X65486205Y-160818363D01*
X65485608Y-160806210D01*
X65485608Y-154786875D01*
X69104607Y-154786875D01*
X69104607Y-156086893D01*
X69104608Y-156086910D01*
X69115107Y-156189688D01*
X69115108Y-156189691D01*
X69138870Y-156261399D01*
X69170293Y-156356226D01*
X69262395Y-156505548D01*
X69386451Y-156629604D01*
X69535773Y-156721706D01*
X69607877Y-156745599D01*
X69665321Y-156785370D01*
X69692145Y-156849886D01*
X69692304Y-156860535D01*
X70325698Y-157493929D01*
X70262114Y-157510967D01*
X70148100Y-157576793D01*
X70055008Y-157669885D01*
X69989182Y-157783899D01*
X69972144Y-157847483D01*
X69339835Y-157215174D01*
X69339834Y-157215174D01*
X69300487Y-157269331D01*
X69204011Y-157458674D01*
X69138349Y-157660761D01*
X69138349Y-157660764D01*
X69105107Y-157870645D01*
X69105107Y-158083138D01*
X69138349Y-158293019D01*
X69138349Y-158293022D01*
X69204011Y-158495109D01*
X69300482Y-158684442D01*
X69339835Y-158738608D01*
X69972144Y-158106300D01*
X69989182Y-158169885D01*
X70055008Y-158283899D01*
X70148100Y-158376991D01*
X70262114Y-158442817D01*
X70325697Y-158459854D01*
X69693389Y-159092161D01*
X69693389Y-159092162D01*
X69747556Y-159131516D01*
X69936889Y-159227987D01*
X70138977Y-159293649D01*
X70348861Y-159326892D01*
X70561353Y-159326892D01*
X70771234Y-159293649D01*
X70771237Y-159293649D01*
X70973324Y-159227987D01*
X71162661Y-159131514D01*
X71216823Y-159092162D01*
X71216824Y-159092162D01*
X70584515Y-158459854D01*
X70648100Y-158442817D01*
X70762114Y-158376991D01*
X70855206Y-158283899D01*
X70921032Y-158169885D01*
X70938069Y-158106300D01*
X71570377Y-158738609D01*
X71570377Y-158738608D01*
X71609729Y-158684447D01*
X71614339Y-158675399D01*
X71662312Y-158624601D01*
X71730132Y-158607804D01*
X71796268Y-158630339D01*
X71835311Y-158675396D01*
X71840056Y-158684709D01*
X71964997Y-158856678D01*
X72115320Y-159007001D01*
X72287286Y-159131940D01*
X72287288Y-159131941D01*
X72287291Y-159131943D01*
X72476695Y-159228449D01*
X72678864Y-159294138D01*
X72888820Y-159327392D01*
X72888821Y-159327392D01*
X73101393Y-159327392D01*
X73101394Y-159327392D01*
X73311350Y-159294138D01*
X73513519Y-159228449D01*
X73702923Y-159131943D01*
X73757679Y-159092161D01*
X73874893Y-159007001D01*
X73874895Y-159006998D01*
X73874899Y-159006996D01*
X74025211Y-158856684D01*
X74025213Y-158856680D01*
X74025216Y-158856678D01*
X74150155Y-158684712D01*
X74150157Y-158684709D01*
X74150158Y-158684708D01*
X74154621Y-158675946D01*
X74202595Y-158625151D01*
X74270415Y-158608355D01*
X74336551Y-158630891D01*
X74375593Y-158675948D01*
X74380058Y-158684712D01*
X74504997Y-158856678D01*
X74655320Y-159007001D01*
X74827286Y-159131940D01*
X74827288Y-159131941D01*
X74827291Y-159131943D01*
X75016695Y-159228449D01*
X75218864Y-159294138D01*
X75428820Y-159327392D01*
X75428821Y-159327392D01*
X75641393Y-159327392D01*
X75641394Y-159327392D01*
X75851350Y-159294138D01*
X76053519Y-159228449D01*
X76242923Y-159131943D01*
X76297679Y-159092161D01*
X76414893Y-159007001D01*
X76414895Y-159006998D01*
X76414899Y-159006996D01*
X76565211Y-158856684D01*
X76565213Y-158856680D01*
X76565216Y-158856678D01*
X76690155Y-158684712D01*
X76690157Y-158684709D01*
X76690158Y-158684708D01*
X76786664Y-158495304D01*
X76852353Y-158293135D01*
X76885607Y-158083179D01*
X76885607Y-157870605D01*
X76852353Y-157660649D01*
X76786664Y-157458480D01*
X76690158Y-157269076D01*
X76690156Y-157269073D01*
X76690155Y-157269071D01*
X76565216Y-157097105D01*
X76414893Y-156946782D01*
X76242922Y-156821840D01*
X76242919Y-156821838D01*
X76234157Y-156817373D01*
X76183363Y-156769397D01*
X76166570Y-156701575D01*
X76189110Y-156635441D01*
X76234164Y-156596405D01*
X76242922Y-156591943D01*
X76264895Y-156575978D01*
X76414892Y-156467001D01*
X76414894Y-156466998D01*
X76414898Y-156466996D01*
X76565210Y-156316684D01*
X76565212Y-156316680D01*
X76565215Y-156316678D01*
X76690154Y-156144712D01*
X76690156Y-156144709D01*
X76690157Y-156144708D01*
X76786663Y-155955304D01*
X76852352Y-155753135D01*
X76885606Y-155543179D01*
X76885606Y-155330605D01*
X76852352Y-155120649D01*
X76786663Y-154918480D01*
X76690157Y-154729076D01*
X76690155Y-154729073D01*
X76690154Y-154729071D01*
X76565215Y-154557105D01*
X76414892Y-154406782D01*
X76242926Y-154281843D01*
X76053520Y-154185336D01*
X76053519Y-154185335D01*
X76053518Y-154185335D01*
X75851349Y-154119646D01*
X75851347Y-154119645D01*
X75851346Y-154119645D01*
X75690063Y-154094100D01*
X75641393Y-154086392D01*
X75428819Y-154086392D01*
X75380148Y-154094100D01*
X75218866Y-154119645D01*
X75016691Y-154185336D01*
X74827285Y-154281843D01*
X74655319Y-154406782D01*
X74504996Y-154557105D01*
X74380054Y-154729075D01*
X74375588Y-154737841D01*
X74327612Y-154788634D01*
X74259790Y-154805427D01*
X74193656Y-154782887D01*
X74154620Y-154737834D01*
X74150155Y-154729071D01*
X74025216Y-154557105D01*
X73874893Y-154406782D01*
X73702927Y-154281843D01*
X73513521Y-154185336D01*
X73513520Y-154185335D01*
X73513519Y-154185335D01*
X73311350Y-154119646D01*
X73311348Y-154119645D01*
X73311347Y-154119645D01*
X73150064Y-154094100D01*
X73101394Y-154086392D01*
X72888820Y-154086392D01*
X72840149Y-154094100D01*
X72678867Y-154119645D01*
X72476692Y-154185336D01*
X72287286Y-154281843D01*
X72115320Y-154406782D01*
X71965001Y-154557101D01*
X71964992Y-154557111D01*
X71961437Y-154562005D01*
X71906104Y-154604667D01*
X71836490Y-154610640D01*
X71774698Y-154578029D01*
X71743419Y-154528115D01*
X71739922Y-154517562D01*
X71739921Y-154517558D01*
X71647819Y-154368236D01*
X71523763Y-154244180D01*
X71374441Y-154152078D01*
X71207904Y-154096893D01*
X71207902Y-154096892D01*
X71105117Y-154086392D01*
X69805105Y-154086392D01*
X69805088Y-154086393D01*
X69702310Y-154096892D01*
X69702307Y-154096893D01*
X69535775Y-154152077D01*
X69535770Y-154152079D01*
X69386449Y-154244181D01*
X69262396Y-154368234D01*
X69170294Y-154517555D01*
X69170292Y-154517560D01*
X69157190Y-154557100D01*
X69115108Y-154684095D01*
X69115108Y-154684096D01*
X69115107Y-154684096D01*
X69104607Y-154786875D01*
X65485608Y-154786875D01*
X65485608Y-153913094D01*
X65487910Y-153857631D01*
X65485608Y-153847352D01*
X65485608Y-153836821D01*
X65471893Y-153785635D01*
X65470690Y-153780744D01*
X65435664Y-153624348D01*
X65429986Y-153581219D01*
X65421319Y-153560295D01*
X65416370Y-153538197D01*
X65416369Y-153538196D01*
X65414594Y-153530268D01*
X65416453Y-153529851D01*
X65412560Y-153470579D01*
X65426184Y-153435640D01*
X65443910Y-153404938D01*
X65469500Y-153309435D01*
X65469500Y-153210565D01*
X65443910Y-153115062D01*
X65419047Y-153071998D01*
X65402574Y-153004102D01*
X65419046Y-152948002D01*
X65443910Y-152904938D01*
X65469500Y-152809435D01*
X65469500Y-152710565D01*
X65443910Y-152615062D01*
X65419047Y-152571998D01*
X65402574Y-152504102D01*
X65419046Y-152448002D01*
X65443910Y-152404938D01*
X65469500Y-152309435D01*
X65469500Y-152210565D01*
X65443910Y-152115062D01*
X65443588Y-152114505D01*
X65441296Y-152110534D01*
X65419047Y-152071998D01*
X65402574Y-152004102D01*
X65419046Y-151948002D01*
X65443910Y-151904938D01*
X65469500Y-151809435D01*
X65469500Y-151710565D01*
X65443910Y-151615062D01*
X65419047Y-151571998D01*
X65402574Y-151504102D01*
X65419046Y-151448002D01*
X65443910Y-151404938D01*
X65469500Y-151309435D01*
X65469500Y-151210565D01*
X65443910Y-151115062D01*
X65419047Y-151071998D01*
X65402574Y-151004102D01*
X65419046Y-150948002D01*
X65443910Y-150904938D01*
X65469500Y-150809435D01*
X65469500Y-150710565D01*
X65443910Y-150615062D01*
X65419047Y-150571998D01*
X65402574Y-150504102D01*
X65419046Y-150448002D01*
X65443910Y-150404938D01*
X65469500Y-150309435D01*
X65469500Y-150210565D01*
X65443910Y-150115062D01*
X65419047Y-150071998D01*
X65402574Y-150004102D01*
X65419046Y-149948002D01*
X65443910Y-149904938D01*
X65469500Y-149809435D01*
X65469500Y-149710565D01*
X65443910Y-149615062D01*
X65419047Y-149571998D01*
X65402574Y-149504102D01*
X65419046Y-149448002D01*
X65443910Y-149404938D01*
X65469500Y-149309435D01*
X65469500Y-149210565D01*
X65443910Y-149115062D01*
X65419047Y-149071998D01*
X65402574Y-149004102D01*
X65419046Y-148948002D01*
X65443910Y-148904938D01*
X65469500Y-148809435D01*
X65469500Y-148710565D01*
X65443910Y-148615062D01*
X65421494Y-148576236D01*
X65405022Y-148508340D01*
X65410115Y-148478598D01*
X65413521Y-148467245D01*
X65416370Y-148461803D01*
X65419943Y-148445847D01*
X65421213Y-148441616D01*
X65422125Y-148440215D01*
X65425422Y-148429798D01*
X65429986Y-148418781D01*
X65434940Y-148381144D01*
X65436871Y-148370259D01*
X65471241Y-148216797D01*
X65485608Y-148163179D01*
X65485608Y-148152647D01*
X65487910Y-148142369D01*
X65485715Y-148089483D01*
X65485608Y-148084341D01*
X65485608Y-146170523D01*
X67365028Y-146170523D01*
X67373433Y-146178928D01*
X67767247Y-146524294D01*
X68182786Y-146843148D01*
X68618283Y-147134138D01*
X68618308Y-147134154D01*
X69071911Y-147396042D01*
X69541677Y-147627705D01*
X70025587Y-147828147D01*
X70025598Y-147828151D01*
X70521574Y-147996513D01*
X70521589Y-147996518D01*
X71027520Y-148132081D01*
X71027546Y-148132087D01*
X71541233Y-148234265D01*
X71541245Y-148234267D01*
X72060541Y-148302634D01*
X72583224Y-148336892D01*
X73106988Y-148336892D01*
X73629670Y-148302634D01*
X74148966Y-148234267D01*
X74148978Y-148234265D01*
X74662665Y-148132087D01*
X74662691Y-148132081D01*
X75168622Y-147996518D01*
X75168637Y-147996513D01*
X75664613Y-147828151D01*
X75664624Y-147828147D01*
X76148534Y-147627705D01*
X76618300Y-147396042D01*
X77071903Y-147134154D01*
X77071928Y-147134138D01*
X77507425Y-146843148D01*
X77922964Y-146524294D01*
X78316771Y-146178935D01*
X78325182Y-146170523D01*
X78325182Y-146170522D01*
X72845106Y-140690446D01*
X67365028Y-146170523D01*
X65485608Y-146170523D01*
X65485608Y-144032848D01*
X65505293Y-143965809D01*
X65558097Y-143920054D01*
X65627255Y-143910110D01*
X65690811Y-143939135D01*
X65720820Y-143978004D01*
X65785955Y-144110086D01*
X66047843Y-144563689D01*
X66047859Y-144563714D01*
X66338849Y-144999211D01*
X66657703Y-145414750D01*
X67003069Y-145808564D01*
X67011473Y-145816968D01*
X72580647Y-140247795D01*
X72641970Y-140214310D01*
X72711662Y-140219294D01*
G37*
%TD.AperFunction*%
%TD*%
M02*
