%TF.GenerationSoftware,KiCad,Pcbnew,9.0.0*%
%TF.CreationDate,2025-02-26T16:04:45-06:00*%
%TF.ProjectId,SAO-CR1616,53414f2d-4352-4313-9631-362e6b696361,rev?*%
%TF.SameCoordinates,Original*%
%TF.FileFunction,Profile,NP*%
%FSLAX46Y46*%
G04 Gerber Fmt 4.6, Leading zero omitted, Abs format (unit mm)*
G04 Created by KiCad (PCBNEW 9.0.0) date 2025-02-26 16:04:45*
%MOMM*%
%LPD*%
G01*
G04 APERTURE LIST*
%TA.AperFunction,Profile*%
%ADD10C,0.100000*%
%TD*%
G04 APERTURE END LIST*
D10*
X65985108Y-161836891D02*
X79985108Y-161836891D01*
X78739825Y-134779624D02*
X78338153Y-134391734D01*
X62318692Y-161503680D02*
X62503680Y-161318692D01*
X37206255Y-160884577D02*
X37337061Y-161111140D01*
X37888860Y-138337061D02*
X37681308Y-138496320D01*
X38609819Y-138038429D02*
X38357121Y-138106140D01*
X66200723Y-136097538D02*
X65921527Y-136581118D01*
X37038429Y-139609819D02*
X37000000Y-139869194D01*
X64759809Y-148629670D02*
X64622224Y-148767255D01*
X37000000Y-139869194D02*
X37000000Y-160130806D01*
X80816577Y-161392461D02*
X80908988Y-161219574D01*
X75457242Y-132728440D02*
X74920482Y-132574525D01*
X64089841Y-148987775D02*
X63895267Y-148987775D01*
X67632063Y-134391734D02*
X67230390Y-134779625D01*
X37496320Y-161318692D02*
X37681308Y-161503680D01*
X80985108Y-140336892D02*
X80965620Y-139778839D01*
X61642879Y-161893860D02*
X61884577Y-161793745D01*
X38357121Y-138106140D02*
X38115423Y-138206255D01*
X65429537Y-161668363D02*
X65602424Y-161760771D01*
X62893860Y-160642879D02*
X62961571Y-160390181D01*
X64089841Y-153012225D02*
X64280677Y-153050185D01*
X37206255Y-139115423D02*
X37106140Y-139357121D01*
X61130806Y-138000000D02*
X38869194Y-138000000D01*
X61884577Y-138206255D02*
X61642879Y-138106140D01*
X64280677Y-148949815D02*
X64089841Y-148987775D01*
X80908988Y-161219574D02*
X80965893Y-161031982D01*
X64985108Y-160836892D02*
X65004323Y-161031982D01*
X77458650Y-133704590D02*
X76985107Y-133408689D01*
X68511563Y-133704591D02*
X68059816Y-134032806D01*
X63362884Y-148767255D02*
X63225299Y-148629670D01*
X63225299Y-153370330D02*
X63362884Y-153232745D01*
X62793745Y-139115423D02*
X62662939Y-138888860D01*
X80675201Y-138131794D02*
X80502649Y-137600731D01*
X65153636Y-161392462D02*
X65278000Y-161544000D01*
X64759809Y-153370330D02*
X64867908Y-153532113D01*
X80540678Y-161668362D02*
X80692214Y-161543999D01*
X68985107Y-133408690D02*
X68511563Y-133704591D01*
X71049732Y-132574525D02*
X70512972Y-132728440D01*
X37000000Y-160130806D02*
X37038429Y-160390181D01*
X37337061Y-138888860D02*
X37206255Y-139115423D01*
X80048689Y-136581118D02*
X79769493Y-136097538D01*
X63042739Y-153711877D02*
X63117200Y-153532113D01*
X61642879Y-138106140D02*
X61390181Y-138038429D01*
X65278000Y-161544000D02*
X65429537Y-161668363D01*
X63524667Y-148875354D02*
X63362884Y-148767255D01*
X67230390Y-134779625D02*
X66856750Y-135194591D01*
X62111140Y-138337061D02*
X61884577Y-138206255D01*
X62662939Y-138888860D02*
X62503680Y-138681308D01*
X63895267Y-153012225D02*
X64089841Y-153012225D01*
X65061227Y-161219576D02*
X65153636Y-161392462D01*
X62111140Y-161662939D02*
X62318692Y-161503680D01*
X72148880Y-132380718D02*
X71595923Y-132458430D01*
X61130806Y-162000000D02*
X61390181Y-161961571D01*
X79113464Y-135194592D02*
X78739825Y-134779624D01*
X63895267Y-148987775D02*
X63704431Y-148949815D01*
X64280677Y-153050185D02*
X64460441Y-153124646D01*
X62793745Y-160884577D02*
X62893860Y-160642879D01*
X62662939Y-161111140D02*
X62793745Y-160884577D01*
X63225299Y-148629670D02*
X63117200Y-148467887D01*
X66856750Y-135194591D02*
X66512972Y-135634610D01*
X38869194Y-138000000D02*
X38609819Y-138038429D01*
X38357121Y-161893860D02*
X38609819Y-161961571D01*
X73821336Y-132380718D02*
X73264304Y-132341765D01*
X37106140Y-139357121D02*
X37038429Y-139609819D01*
X79457244Y-135634610D02*
X79113464Y-135194592D01*
X38115423Y-138206255D02*
X37888860Y-138337061D01*
X63000000Y-148097287D02*
X63000000Y-139869194D01*
X80907253Y-139223506D02*
X80810287Y-138673598D01*
X65467567Y-137600731D02*
X65295014Y-138131793D01*
X37681308Y-161503680D02*
X37888860Y-161662939D01*
X80985108Y-160836892D02*
X80985108Y-140336892D01*
X80810287Y-138673598D02*
X80675201Y-138131794D01*
X64985108Y-153902713D02*
X64985108Y-160836892D01*
X64867908Y-148467887D02*
X64759809Y-148629670D01*
X65062963Y-139223506D02*
X65004595Y-139778841D01*
X65004595Y-139778841D02*
X64985108Y-140336892D01*
X80965893Y-161031982D02*
X80985108Y-160836892D01*
X80965620Y-139778839D02*
X80907253Y-139223506D01*
X80293472Y-137082998D02*
X80048689Y-136581118D01*
X65921527Y-136581118D02*
X65676743Y-137083000D01*
X68059816Y-134032806D02*
X67632063Y-134391734D01*
X38609819Y-161961571D02*
X38869194Y-162000000D01*
X64985108Y-148097287D02*
X64942369Y-148288123D01*
X69988253Y-132919421D02*
X69478137Y-133146540D01*
X62318692Y-138496320D02*
X62111140Y-138337061D01*
X65676743Y-137083000D02*
X65467567Y-137600731D01*
X80502649Y-137600731D02*
X80293472Y-137082998D01*
X61884577Y-161793745D02*
X62111140Y-161662939D01*
X64942369Y-148288123D02*
X64867908Y-148467887D01*
X80180197Y-161817678D02*
X80367790Y-161760771D01*
X65159925Y-138673598D02*
X65062963Y-139223506D01*
X63000000Y-160130806D02*
X63000000Y-153902713D01*
X80367790Y-161760771D02*
X80540678Y-161668362D01*
X64622224Y-148767255D02*
X64460441Y-148875354D01*
X38115423Y-161793745D02*
X38357121Y-161893860D01*
X72705910Y-132341765D02*
X72148880Y-132380718D01*
X63524667Y-153124646D02*
X63704431Y-153050185D01*
X37337061Y-161111140D02*
X37496320Y-161318692D01*
X63117200Y-153532113D02*
X63225299Y-153370330D01*
X63704431Y-153050185D02*
X63895267Y-153012225D01*
X65004323Y-161031982D02*
X65061227Y-161219576D01*
X64622224Y-153232745D02*
X64759809Y-153370330D01*
X75981959Y-132919421D02*
X75457242Y-132728440D01*
X62893860Y-139357121D02*
X62793745Y-139115423D01*
X63000000Y-139869194D02*
X62961571Y-139609819D01*
X64985108Y-140336892D02*
X64985108Y-148097287D01*
X61390181Y-138038429D02*
X61130806Y-138000000D01*
X37888860Y-161662939D02*
X38115423Y-161793745D01*
X74374292Y-132458431D02*
X73821336Y-132380718D01*
X77910400Y-134032806D02*
X77458650Y-133704590D01*
X62961571Y-160390181D02*
X63000000Y-160130806D01*
X73264304Y-132341765D02*
X72705910Y-132341765D01*
X63042739Y-148288123D02*
X63000000Y-148097287D01*
X78338153Y-134391734D02*
X77910400Y-134032806D01*
X37496320Y-138681308D02*
X37337061Y-138888860D01*
X63704431Y-148949815D02*
X63524667Y-148875354D01*
X71595923Y-132458430D02*
X71049732Y-132574525D01*
X62503680Y-138681308D02*
X62318692Y-138496320D01*
X38869194Y-162000000D02*
X61130806Y-162000000D01*
X62503680Y-161318692D02*
X62662939Y-161111140D01*
X63362884Y-153232745D02*
X63524667Y-153124646D01*
X37038429Y-160390181D02*
X37106140Y-160642879D01*
X74920482Y-132574525D02*
X74374292Y-132458431D01*
X76985107Y-133408689D02*
X76492076Y-133146539D01*
X66512972Y-135634610D02*
X66200723Y-136097538D01*
X64460441Y-148875354D02*
X64280677Y-148949815D01*
X69478137Y-133146540D02*
X68985107Y-133408690D01*
X65602424Y-161760771D02*
X65790017Y-161817678D01*
X65790017Y-161817678D02*
X65985108Y-161836891D01*
X80692214Y-161543999D02*
X80816577Y-161392461D01*
X76492076Y-133146539D02*
X75981959Y-132919421D01*
X64942369Y-153711877D02*
X64985108Y-153902713D01*
X70512972Y-132728440D02*
X69988253Y-132919421D01*
X37106140Y-160642879D02*
X37206255Y-160884577D01*
X62961571Y-139609819D02*
X62893860Y-139357121D01*
X61390181Y-161961571D02*
X61642879Y-161893860D01*
X65295014Y-138131793D02*
X65159925Y-138673598D01*
X64867908Y-153532113D02*
X64942369Y-153711877D01*
X79769493Y-136097538D02*
X79457244Y-135634610D01*
X64460441Y-153124646D02*
X64622224Y-153232745D01*
X63000000Y-153902713D02*
X63042739Y-153711877D01*
X79985108Y-161836891D02*
X80180197Y-161817678D01*
X37681308Y-138496320D02*
X37496320Y-138681308D01*
X63117200Y-148467887D02*
X63042739Y-148288123D01*
M02*
