%TF.GenerationSoftware,KiCad,Pcbnew,8.0.8*%
%TF.CreationDate,2025-02-15T12:19:35-06:00*%
%TF.ProjectId,SAO-CR1616,53414f2d-4352-4313-9631-362e6b696361,rev?*%
%TF.SameCoordinates,Original*%
%TF.FileFunction,Copper,L2,Bot*%
%TF.FilePolarity,Positive*%
%FSLAX46Y46*%
G04 Gerber Fmt 4.6, Leading zero omitted, Abs format (unit mm)*
G04 Created by KiCad (PCBNEW 8.0.8) date 2025-02-15 12:19:35*
%MOMM*%
%LPD*%
G01*
G04 APERTURE LIST*
G04 Aperture macros list*
%AMRoundRect*
0 Rectangle with rounded corners*
0 $1 Rounding radius*
0 $2 $3 $4 $5 $6 $7 $8 $9 X,Y pos of 4 corners*
0 Add a 4 corners polygon primitive as box body*
4,1,4,$2,$3,$4,$5,$6,$7,$8,$9,$2,$3,0*
0 Add four circle primitives for the rounded corners*
1,1,$1+$1,$2,$3*
1,1,$1+$1,$4,$5*
1,1,$1+$1,$6,$7*
1,1,$1+$1,$8,$9*
0 Add four rect primitives between the rounded corners*
20,1,$1+$1,$2,$3,$4,$5,0*
20,1,$1+$1,$4,$5,$6,$7,0*
20,1,$1+$1,$6,$7,$8,$9,0*
20,1,$1+$1,$8,$9,$2,$3,0*%
G04 Aperture macros list end*
%TA.AperFunction,SMDPad,CuDef*%
%ADD10C,15.000000*%
%TD*%
%TA.AperFunction,ComponentPad*%
%ADD11RoundRect,0.250000X-0.600000X0.600000X-0.600000X-0.600000X0.600000X-0.600000X0.600000X0.600000X0*%
%TD*%
%TA.AperFunction,ComponentPad*%
%ADD12C,1.700000*%
%TD*%
%TA.AperFunction,SMDPad,CuDef*%
%ADD13C,4.000000*%
%TD*%
%TA.AperFunction,ViaPad*%
%ADD14C,0.500000*%
%TD*%
%TA.AperFunction,Conductor*%
%ADD15C,2.000000*%
%TD*%
G04 APERTURE END LIST*
D10*
%TO.P,SAO-P2,1,1*%
%TO.N,GND*%
X149860000Y-150000000D03*
%TD*%
D11*
%TO.P,J2,1,3V3*%
%TO.N,+3V0*%
X147470000Y-165100000D03*
D12*
%TO.P,J2,2,GND*%
%TO.N,GND*%
X147470000Y-167640000D03*
%TO.P,J2,3,SDA*%
%TO.N,unconnected-(J2-SDA-Pad3)*%
X150010000Y-165100000D03*
%TO.P,J2,4,SCL*%
%TO.N,unconnected-(J2-SCL-Pad4)*%
X150010000Y-167640000D03*
%TO.P,J2,5,GPIO1*%
%TO.N,unconnected-(J2-GPIO1-Pad5)*%
X152549999Y-165100000D03*
%TO.P,J2,6,GPIO2*%
%TO.N,unconnected-(J2-GPIO2-Pad6)*%
X152550000Y-167640000D03*
%TD*%
D13*
%TO.P,B3,1,1*%
%TO.N,GND*%
X150000000Y-150000000D03*
%TD*%
D14*
%TO.N,GND*%
X143002000Y-154686000D03*
X146083863Y-162492411D03*
X148664000Y-157862657D03*
X156972000Y-170688000D03*
X151460292Y-160812517D03*
X157250000Y-153416000D03*
X143002000Y-170688000D03*
X151564000Y-157825688D03*
X148617695Y-159719695D03*
X148920000Y-163576000D03*
%TD*%
D15*
%TO.N,GND*%
X143500000Y-156360000D02*
X149860000Y-150000000D01*
X143500000Y-164582000D02*
X143500000Y-156360000D01*
X147470000Y-167640000D02*
X146558000Y-167640000D01*
X146558000Y-167640000D02*
X143500000Y-164582000D01*
%TD*%
%TA.AperFunction,Conductor*%
%TO.N,GND*%
G36*
X148930720Y-165938779D02*
G01*
X148967483Y-165967766D01*
X148967677Y-165967573D01*
X148969313Y-165969209D01*
X148970354Y-165970030D01*
X148971501Y-165971397D01*
X149138597Y-166138493D01*
X149138603Y-166138498D01*
X149324158Y-166268425D01*
X149367783Y-166323002D01*
X149374977Y-166392500D01*
X149343454Y-166454855D01*
X149324158Y-166471575D01*
X149138597Y-166601505D01*
X148971508Y-166768594D01*
X148841269Y-166954595D01*
X148786692Y-166998219D01*
X148717193Y-167005412D01*
X148654839Y-166973890D01*
X148638119Y-166954595D01*
X148584925Y-166878626D01*
X147952962Y-167510590D01*
X147935925Y-167447007D01*
X147870099Y-167332993D01*
X147777007Y-167239901D01*
X147662993Y-167174075D01*
X147599409Y-167157037D01*
X148235788Y-166520657D01*
X148246208Y-166468809D01*
X148294822Y-166418625D01*
X148316962Y-166408795D01*
X148389334Y-166384814D01*
X148538656Y-166292712D01*
X148662712Y-166168656D01*
X148754814Y-166019334D01*
X148757662Y-166010738D01*
X148797429Y-165953294D01*
X148861944Y-165926468D01*
X148930720Y-165938779D01*
G37*
%TD.AperFunction*%
%TA.AperFunction,Conductor*%
G36*
X149726556Y-149882402D02*
G01*
X149770903Y-149910903D01*
X149860000Y-150000000D01*
X149949096Y-149910904D01*
X150010419Y-149877419D01*
X150080111Y-149882403D01*
X150124458Y-149910904D01*
X155692128Y-155478574D01*
X155692129Y-155478574D01*
X155992088Y-155145438D01*
X155992104Y-155145419D01*
X156336070Y-154705162D01*
X156336076Y-154705153D01*
X156648519Y-154241939D01*
X156648520Y-154241936D01*
X156927883Y-153758066D01*
X157172820Y-153255869D01*
X157260529Y-153038784D01*
X157303894Y-152984000D01*
X157369993Y-152961357D01*
X157437841Y-152978045D01*
X157485895Y-153028765D01*
X157499500Y-153085235D01*
X157499500Y-170469316D01*
X157498903Y-170481472D01*
X157488722Y-170584824D01*
X157483980Y-170608662D01*
X157462786Y-170678532D01*
X157453484Y-170700991D01*
X157423143Y-170757755D01*
X157419064Y-170765388D01*
X157419063Y-170765389D01*
X157405557Y-170785601D01*
X157359234Y-170842046D01*
X157342046Y-170859234D01*
X157285602Y-170905557D01*
X157265390Y-170919062D01*
X157248129Y-170928288D01*
X157200991Y-170953483D01*
X157178537Y-170962783D01*
X157108663Y-170983980D01*
X157084821Y-170988723D01*
X156981473Y-170998903D01*
X156969318Y-170999500D01*
X143030682Y-170999500D01*
X143018528Y-170998903D01*
X143007799Y-170997846D01*
X142915174Y-170988722D01*
X142891336Y-170983980D01*
X142821466Y-170962786D01*
X142799007Y-170953484D01*
X142781287Y-170944012D01*
X142734604Y-170919059D01*
X142714397Y-170905557D01*
X142657952Y-170859234D01*
X142640764Y-170842046D01*
X142594437Y-170785596D01*
X142580940Y-170765398D01*
X142546514Y-170700990D01*
X142537215Y-170678537D01*
X142516018Y-170608663D01*
X142511276Y-170584824D01*
X142501097Y-170481471D01*
X142500500Y-170469318D01*
X142500500Y-167639998D01*
X146114843Y-167639998D01*
X146114843Y-167640001D01*
X146135430Y-167875315D01*
X146135432Y-167875326D01*
X146196566Y-168103483D01*
X146196570Y-168103492D01*
X146296398Y-168317576D01*
X146355073Y-168401372D01*
X146987037Y-167769408D01*
X147004075Y-167832993D01*
X147069901Y-167947007D01*
X147162993Y-168040099D01*
X147277007Y-168105925D01*
X147340591Y-168122962D01*
X146708626Y-168754926D01*
X146792417Y-168813598D01*
X146792421Y-168813600D01*
X147006507Y-168913429D01*
X147006516Y-168913433D01*
X147234673Y-168974567D01*
X147234684Y-168974569D01*
X147469998Y-168995157D01*
X147470002Y-168995157D01*
X147705315Y-168974569D01*
X147705326Y-168974567D01*
X147933483Y-168913433D01*
X147933492Y-168913429D01*
X148147580Y-168813599D01*
X148231371Y-168754925D01*
X147599408Y-168122962D01*
X147662993Y-168105925D01*
X147777007Y-168040099D01*
X147870099Y-167947007D01*
X147935925Y-167832993D01*
X147952962Y-167769408D01*
X148584925Y-168401371D01*
X148638120Y-168325404D01*
X148692697Y-168281780D01*
X148762196Y-168274588D01*
X148824550Y-168306111D01*
X148841268Y-168325404D01*
X148971505Y-168511401D01*
X149138599Y-168678495D01*
X149235384Y-168746265D01*
X149332165Y-168814032D01*
X149332167Y-168814033D01*
X149332170Y-168814035D01*
X149546337Y-168913903D01*
X149774592Y-168975063D01*
X149962918Y-168991539D01*
X150009999Y-168995659D01*
X150010000Y-168995659D01*
X150010001Y-168995659D01*
X150049234Y-168992226D01*
X150245408Y-168975063D01*
X150473663Y-168913903D01*
X150687830Y-168814035D01*
X150881401Y-168678495D01*
X151048495Y-168511401D01*
X151178425Y-168325842D01*
X151233002Y-168282217D01*
X151302500Y-168275023D01*
X151364855Y-168306546D01*
X151381575Y-168325842D01*
X151511500Y-168511395D01*
X151511505Y-168511401D01*
X151678599Y-168678495D01*
X151775384Y-168746265D01*
X151872165Y-168814032D01*
X151872167Y-168814033D01*
X151872170Y-168814035D01*
X152086337Y-168913903D01*
X152314592Y-168975063D01*
X152502918Y-168991539D01*
X152549999Y-168995659D01*
X152550000Y-168995659D01*
X152550001Y-168995659D01*
X152589234Y-168992226D01*
X152785408Y-168975063D01*
X153013663Y-168913903D01*
X153227830Y-168814035D01*
X153421401Y-168678495D01*
X153588495Y-168511401D01*
X153724035Y-168317830D01*
X153823903Y-168103663D01*
X153885063Y-167875408D01*
X153905659Y-167640000D01*
X153885063Y-167404592D01*
X153823903Y-167176337D01*
X153724035Y-166962171D01*
X153718731Y-166954595D01*
X153588494Y-166768597D01*
X153421402Y-166601506D01*
X153421401Y-166601505D01*
X153421395Y-166601501D01*
X153235839Y-166471573D01*
X153192216Y-166416997D01*
X153185023Y-166347498D01*
X153216545Y-166285144D01*
X153235835Y-166268428D01*
X153421400Y-166138495D01*
X153588494Y-165971401D01*
X153724034Y-165777830D01*
X153823902Y-165563663D01*
X153885062Y-165335408D01*
X153905658Y-165100000D01*
X153885062Y-164864592D01*
X153823902Y-164636337D01*
X153724034Y-164422171D01*
X153718424Y-164414158D01*
X153588493Y-164228597D01*
X153421401Y-164061506D01*
X153421394Y-164061501D01*
X153227833Y-163925967D01*
X153227829Y-163925965D01*
X153187776Y-163907288D01*
X153013662Y-163826097D01*
X153013658Y-163826096D01*
X153013654Y-163826094D01*
X152785412Y-163764938D01*
X152785402Y-163764936D01*
X152550000Y-163744341D01*
X152549998Y-163744341D01*
X152314595Y-163764936D01*
X152314585Y-163764938D01*
X152086343Y-163826094D01*
X152086334Y-163826098D01*
X151872170Y-163925964D01*
X151872168Y-163925965D01*
X151678596Y-164061505D01*
X151511507Y-164228594D01*
X151381574Y-164414158D01*
X151326997Y-164457782D01*
X151257498Y-164464975D01*
X151195144Y-164433453D01*
X151178424Y-164414157D01*
X151048494Y-164228597D01*
X150881402Y-164061506D01*
X150881395Y-164061501D01*
X150687834Y-163925967D01*
X150687830Y-163925965D01*
X150647777Y-163907288D01*
X150473663Y-163826097D01*
X150473659Y-163826096D01*
X150473655Y-163826094D01*
X150245413Y-163764938D01*
X150245403Y-163764936D01*
X150010001Y-163744341D01*
X150009999Y-163744341D01*
X149774596Y-163764936D01*
X149774586Y-163764938D01*
X149546344Y-163826094D01*
X149546335Y-163826098D01*
X149332171Y-163925964D01*
X149332169Y-163925965D01*
X149138597Y-164061505D01*
X148971503Y-164228599D01*
X148970349Y-164229975D01*
X148969688Y-164230414D01*
X148967676Y-164232427D01*
X148967271Y-164232022D01*
X148912173Y-164268671D01*
X148842312Y-164269772D01*
X148782946Y-164232928D01*
X148757663Y-164189265D01*
X148754814Y-164180666D01*
X148662712Y-164031344D01*
X148538656Y-163907288D01*
X148445888Y-163850069D01*
X148389336Y-163815187D01*
X148389331Y-163815185D01*
X148387862Y-163814698D01*
X148222797Y-163760001D01*
X148222795Y-163760000D01*
X148120010Y-163749500D01*
X146819998Y-163749500D01*
X146819981Y-163749501D01*
X146717203Y-163760000D01*
X146717200Y-163760001D01*
X146550668Y-163815185D01*
X146550663Y-163815187D01*
X146401342Y-163907289D01*
X146277289Y-164031342D01*
X146185187Y-164180663D01*
X146185185Y-164180668D01*
X146168701Y-164230414D01*
X146130001Y-164347203D01*
X146130001Y-164347204D01*
X146130000Y-164347204D01*
X146119500Y-164449983D01*
X146119500Y-165750001D01*
X146119501Y-165750018D01*
X146130000Y-165852796D01*
X146130001Y-165852799D01*
X146169303Y-165971402D01*
X146185186Y-166019334D01*
X146277288Y-166168656D01*
X146401344Y-166292712D01*
X146550666Y-166384814D01*
X146623034Y-166408794D01*
X146680477Y-166448565D01*
X146707300Y-166513081D01*
X146707413Y-166523860D01*
X147340591Y-167157037D01*
X147277007Y-167174075D01*
X147162993Y-167239901D01*
X147069901Y-167332993D01*
X147004075Y-167447007D01*
X146987037Y-167510590D01*
X146355073Y-166878626D01*
X146355073Y-166878627D01*
X146296400Y-166962421D01*
X146296399Y-166962423D01*
X146196570Y-167176507D01*
X146196566Y-167176516D01*
X146135432Y-167404673D01*
X146135430Y-167404684D01*
X146114843Y-167639998D01*
X142500500Y-167639998D01*
X142500500Y-155831407D01*
X144382146Y-155831407D01*
X144503677Y-155948768D01*
X144503703Y-155948792D01*
X144931686Y-156307912D01*
X144931715Y-156307935D01*
X145383733Y-156636345D01*
X145383734Y-156636346D01*
X145857564Y-156932427D01*
X145857567Y-156932429D01*
X146350871Y-157194723D01*
X146350898Y-157194737D01*
X146861327Y-157421994D01*
X147386365Y-157613092D01*
X147923412Y-157767088D01*
X147923461Y-157767100D01*
X148469953Y-157883260D01*
X148469990Y-157883267D01*
X149023265Y-157961024D01*
X149580621Y-157999999D01*
X149580646Y-158000000D01*
X150139354Y-158000000D01*
X150139378Y-157999999D01*
X150696734Y-157961024D01*
X151250009Y-157883267D01*
X151250046Y-157883260D01*
X151796538Y-157767100D01*
X151796587Y-157767088D01*
X152333634Y-157613092D01*
X152858672Y-157421994D01*
X153369101Y-157194737D01*
X153369128Y-157194723D01*
X153862432Y-156932429D01*
X153862435Y-156932427D01*
X154336265Y-156636346D01*
X154336266Y-156636345D01*
X154788284Y-156307935D01*
X154788313Y-156307912D01*
X155216296Y-155948791D01*
X155216321Y-155948769D01*
X155337852Y-155831406D01*
X149860000Y-150353554D01*
X144382146Y-155831407D01*
X142500500Y-155831407D01*
X142500500Y-153697267D01*
X142520185Y-153630228D01*
X142572989Y-153584473D01*
X142642147Y-153574529D01*
X142705703Y-153603554D01*
X142735951Y-153642909D01*
X142792116Y-153758066D01*
X143071479Y-154241936D01*
X143071480Y-154241939D01*
X143383923Y-154705153D01*
X143383929Y-154705162D01*
X143727895Y-155145419D01*
X143727911Y-155145438D01*
X144027870Y-155478574D01*
X149595541Y-149910903D01*
X149656864Y-149877418D01*
X149726556Y-149882402D01*
G37*
%TD.AperFunction*%
%TD*%
M02*
