%TF.GenerationSoftware,KiCad,Pcbnew,8.0.8*%
%TF.CreationDate,2025-02-15T12:19:35-06:00*%
%TF.ProjectId,SAO-CR1616,53414f2d-4352-4313-9631-362e6b696361,rev?*%
%TF.SameCoordinates,Original*%
%TF.FileFunction,Legend,Bot*%
%TF.FilePolarity,Positive*%
%FSLAX46Y46*%
G04 Gerber Fmt 4.6, Leading zero omitted, Abs format (unit mm)*
G04 Created by KiCad (PCBNEW 8.0.8) date 2025-02-15 12:19:35*
%MOMM*%
%LPD*%
G01*
G04 APERTURE LIST*
G04 Aperture macros list*
%AMRoundRect*
0 Rectangle with rounded corners*
0 $1 Rounding radius*
0 $2 $3 $4 $5 $6 $7 $8 $9 X,Y pos of 4 corners*
0 Add a 4 corners polygon primitive as box body*
4,1,4,$2,$3,$4,$5,$6,$7,$8,$9,$2,$3,0*
0 Add four circle primitives for the rounded corners*
1,1,$1+$1,$2,$3*
1,1,$1+$1,$4,$5*
1,1,$1+$1,$6,$7*
1,1,$1+$1,$8,$9*
0 Add four rect primitives between the rounded corners*
20,1,$1+$1,$2,$3,$4,$5,0*
20,1,$1+$1,$4,$5,$6,$7,0*
20,1,$1+$1,$6,$7,$8,$9,0*
20,1,$1+$1,$8,$9,$2,$3,0*%
G04 Aperture macros list end*
%ADD10C,0.150000*%
%ADD11C,0.120000*%
%ADD12C,15.000000*%
%ADD13RoundRect,0.250000X-0.600000X0.600000X-0.600000X-0.600000X0.600000X-0.600000X0.600000X0.600000X0*%
%ADD14C,1.700000*%
%ADD15C,4.000000*%
G04 APERTURE END LIST*
D10*
X140824819Y-166036666D02*
X141539104Y-166036666D01*
X141539104Y-166036666D02*
X141681961Y-165989047D01*
X141681961Y-165989047D02*
X141777200Y-165893809D01*
X141777200Y-165893809D02*
X141824819Y-165750952D01*
X141824819Y-165750952D02*
X141824819Y-165655714D01*
X140920057Y-166465238D02*
X140872438Y-166512857D01*
X140872438Y-166512857D02*
X140824819Y-166608095D01*
X140824819Y-166608095D02*
X140824819Y-166846190D01*
X140824819Y-166846190D02*
X140872438Y-166941428D01*
X140872438Y-166941428D02*
X140920057Y-166989047D01*
X140920057Y-166989047D02*
X141015295Y-167036666D01*
X141015295Y-167036666D02*
X141110533Y-167036666D01*
X141110533Y-167036666D02*
X141253390Y-166989047D01*
X141253390Y-166989047D02*
X141824819Y-166417619D01*
X141824819Y-166417619D02*
X141824819Y-167036666D01*
X150404761Y-147033009D02*
X150261904Y-147080628D01*
X150261904Y-147080628D02*
X150214285Y-147128247D01*
X150214285Y-147128247D02*
X150166666Y-147223485D01*
X150166666Y-147223485D02*
X150166666Y-147366342D01*
X150166666Y-147366342D02*
X150214285Y-147461580D01*
X150214285Y-147461580D02*
X150261904Y-147509200D01*
X150261904Y-147509200D02*
X150357142Y-147556819D01*
X150357142Y-147556819D02*
X150738094Y-147556819D01*
X150738094Y-147556819D02*
X150738094Y-146556819D01*
X150738094Y-146556819D02*
X150404761Y-146556819D01*
X150404761Y-146556819D02*
X150309523Y-146604438D01*
X150309523Y-146604438D02*
X150261904Y-146652057D01*
X150261904Y-146652057D02*
X150214285Y-146747295D01*
X150214285Y-146747295D02*
X150214285Y-146842533D01*
X150214285Y-146842533D02*
X150261904Y-146937771D01*
X150261904Y-146937771D02*
X150309523Y-146985390D01*
X150309523Y-146985390D02*
X150404761Y-147033009D01*
X150404761Y-147033009D02*
X150738094Y-147033009D01*
X149833332Y-146556819D02*
X149214285Y-146556819D01*
X149214285Y-146556819D02*
X149547618Y-146937771D01*
X149547618Y-146937771D02*
X149404761Y-146937771D01*
X149404761Y-146937771D02*
X149309523Y-146985390D01*
X149309523Y-146985390D02*
X149261904Y-147033009D01*
X149261904Y-147033009D02*
X149214285Y-147128247D01*
X149214285Y-147128247D02*
X149214285Y-147366342D01*
X149214285Y-147366342D02*
X149261904Y-147461580D01*
X149261904Y-147461580D02*
X149309523Y-147509200D01*
X149309523Y-147509200D02*
X149404761Y-147556819D01*
X149404761Y-147556819D02*
X149690475Y-147556819D01*
X149690475Y-147556819D02*
X149785713Y-147509200D01*
X149785713Y-147509200D02*
X149833332Y-147461580D01*
D11*
%TO.C,J2*%
X142260000Y-161810000D02*
X157760000Y-161810000D01*
X142260000Y-170930000D02*
X142260000Y-161810000D01*
X143560000Y-163120000D02*
X147960000Y-163120000D01*
X143560000Y-169620000D02*
X143560000Y-163120000D01*
X146970000Y-160420000D02*
X147470000Y-161420000D01*
X147470000Y-161420000D02*
X147970000Y-160420000D01*
X147960000Y-163120000D02*
X147960000Y-161810000D01*
X147970000Y-160420000D02*
X146970000Y-160420000D01*
X152060000Y-161810000D02*
X152060001Y-163120000D01*
X152060001Y-163120000D02*
X152060001Y-163120000D01*
X152060001Y-163120000D02*
X156460000Y-163120001D01*
X156460000Y-163120001D02*
X156460000Y-169620000D01*
X156460000Y-169620000D02*
X143560000Y-169620000D01*
X157760000Y-161810000D02*
X157760000Y-170930000D01*
X157760000Y-170930000D02*
X142260000Y-170930000D01*
%TO.C,B3*%
X152250000Y-150000000D02*
G75*
G02*
X147750000Y-150000000I-2250000J0D01*
G01*
X147750000Y-150000000D02*
G75*
G02*
X152250000Y-150000000I2250000J0D01*
G01*
%TD*%
%LPC*%
D12*
%TO.C,SAO-P2*%
X149860000Y-150000000D03*
%TD*%
D13*
%TO.C,J2*%
X147470000Y-165100000D03*
D14*
X147470000Y-167640000D03*
X150010000Y-165100000D03*
X150010000Y-167640000D03*
X152549999Y-165100000D03*
X152550000Y-167640000D03*
%TD*%
D15*
%TO.C,B3*%
X150000000Y-150000000D03*
%TD*%
%LPD*%
M02*
