M48
; DRILL file {KiCad 9.0.0} date 2025-02-26T14:30:51-0600
; FORMAT={-:-/ absolute / metric / decimal}
; #@! TF.CreationDate,2025-02-26T14:30:51-06:00
; #@! TF.GenerationSoftware,Kicad,Pcbnew,9.0.0
; #@! TF.FileFunction,Plated,1,2,PTH
FMAT,2
METRIC
; #@! TA.AperFunction,Plated,PTH,ViaDrill
T1C0.300
; #@! TA.AperFunction,Plated,PTH,ComponentDrill
T2C0.600
; #@! TA.AperFunction,Plated,PTH,ComponentDrill
T3C1.000
%
G90
G05
T1
X65.987Y-145.023
X65.987Y-161.025
X69.069Y-152.829
X71.603Y-150.057
X71.649Y-148.2
X71.905Y-153.913
X74.445Y-151.149
X74.549Y-148.163
X79.957Y-161.025
X80.235Y-143.753
T2
X39.355Y-158.0
X39.365Y-142.0
X41.895Y-158.0
X41.905Y-142.0
X48.72Y-158.0
X48.73Y-142.0
X51.26Y-158.0
X51.27Y-142.0
X58.085Y-158.0
X58.095Y-142.0
X60.625Y-158.0
X60.635Y-142.0
T3
X47.46Y-151.27
X47.46Y-148.73
X50.0Y-148.73
X50.0Y-151.27
X52.54Y-148.73
X52.54Y-151.27
X70.455Y-155.437
X70.455Y-157.977
X72.995Y-155.437
X72.995Y-157.977
X75.535Y-155.437
X75.535Y-157.977
M30
