%TF.GenerationSoftware,KiCad,Pcbnew,8.0.8*%
%TF.CreationDate,2025-02-15T12:19:56-06:00*%
%TF.ProjectId,SAO-CR1616,53414f2d-4352-4313-9631-362e6b696361,rev?*%
%TF.SameCoordinates,Original*%
%TF.FileFunction,Drillmap*%
%TF.FilePolarity,Positive*%
%FSLAX45Y45*%
G04 Gerber Fmt 4.5, Leading zero omitted, Abs format (unit mm)*
G04 Created by KiCad (PCBNEW 8.0.8) date 2025-02-15 12:19:56*
%MOMM*%
%LPD*%
G01*
G04 APERTURE LIST*
%ADD10C,0.100000*%
%ADD11C,0.200000*%
G04 APERTURE END LIST*
D10*
X15083623Y-14204382D02*
X15138918Y-14212154D01*
X15193537Y-14223763D01*
X15247214Y-14239155D01*
X15299685Y-14258253D01*
X15350697Y-14280965D01*
X15400000Y-14307180D01*
X15447354Y-14336770D01*
X15492529Y-14369591D01*
X15535304Y-14405484D01*
X15575472Y-14444273D01*
X15612836Y-14485770D01*
X15647214Y-14529772D01*
X15678438Y-14576065D01*
X15706358Y-14624423D01*
X15730836Y-14674611D01*
X15751754Y-14726384D01*
X15769009Y-14779490D01*
X15782518Y-14833671D01*
X15792214Y-14888661D01*
X15798051Y-14944195D01*
X15800000Y-15000000D01*
X15800000Y-17050000D01*
X15798078Y-17069509D01*
X15792388Y-17088268D01*
X15783147Y-17105557D01*
X15770711Y-17120711D01*
X15755557Y-17133147D01*
X15738268Y-17142388D01*
X15719509Y-17148079D01*
X15700000Y-17150000D01*
X14300000Y-17150000D01*
X14280491Y-17148079D01*
X14261732Y-17142388D01*
X14244443Y-17133147D01*
X14229289Y-17120711D01*
X14216853Y-17105557D01*
X14207612Y-17088268D01*
X14201921Y-17069509D01*
X14200000Y-17050000D01*
X14200000Y-15000000D01*
X14201949Y-14944195D01*
X14207785Y-14888661D01*
X14217482Y-14833671D01*
X14230991Y-14779490D01*
X14248246Y-14726384D01*
X14269164Y-14674611D01*
X14293642Y-14624423D01*
X14321561Y-14576065D01*
X14352786Y-14529772D01*
X14387164Y-14485770D01*
X14424528Y-14444273D01*
X14464695Y-14405484D01*
X14507471Y-14369591D01*
X14552646Y-14336770D01*
X14600000Y-14307180D01*
X14649303Y-14280965D01*
X14700315Y-14258253D01*
X14752786Y-14239155D01*
X14806462Y-14223763D01*
X14861081Y-14212154D01*
X14916377Y-14204382D01*
X14972080Y-14200487D01*
X15027920Y-14200487D01*
X15083623Y-14204382D01*
D11*
X14455777Y-17466484D02*
X14455777Y-17266484D01*
X14455777Y-17266484D02*
X14503396Y-17266484D01*
X14503396Y-17266484D02*
X14531967Y-17276008D01*
X14531967Y-17276008D02*
X14551015Y-17295055D01*
X14551015Y-17295055D02*
X14560539Y-17314103D01*
X14560539Y-17314103D02*
X14570062Y-17352198D01*
X14570062Y-17352198D02*
X14570062Y-17380770D01*
X14570062Y-17380770D02*
X14560539Y-17418865D01*
X14560539Y-17418865D02*
X14551015Y-17437912D01*
X14551015Y-17437912D02*
X14531967Y-17456960D01*
X14531967Y-17456960D02*
X14503396Y-17466484D01*
X14503396Y-17466484D02*
X14455777Y-17466484D01*
X14655777Y-17466484D02*
X14655777Y-17333150D01*
X14655777Y-17371246D02*
X14665301Y-17352198D01*
X14665301Y-17352198D02*
X14674824Y-17342674D01*
X14674824Y-17342674D02*
X14693872Y-17333150D01*
X14693872Y-17333150D02*
X14712920Y-17333150D01*
X14779586Y-17466484D02*
X14779586Y-17333150D01*
X14779586Y-17266484D02*
X14770062Y-17276008D01*
X14770062Y-17276008D02*
X14779586Y-17285531D01*
X14779586Y-17285531D02*
X14789110Y-17276008D01*
X14789110Y-17276008D02*
X14779586Y-17266484D01*
X14779586Y-17266484D02*
X14779586Y-17285531D01*
X14903396Y-17466484D02*
X14884348Y-17456960D01*
X14884348Y-17456960D02*
X14874824Y-17437912D01*
X14874824Y-17437912D02*
X14874824Y-17266484D01*
X15008158Y-17466484D02*
X14989110Y-17456960D01*
X14989110Y-17456960D02*
X14979586Y-17437912D01*
X14979586Y-17437912D02*
X14979586Y-17266484D01*
X15236729Y-17466484D02*
X15236729Y-17266484D01*
X15236729Y-17266484D02*
X15303396Y-17409341D01*
X15303396Y-17409341D02*
X15370062Y-17266484D01*
X15370062Y-17266484D02*
X15370062Y-17466484D01*
X15551015Y-17466484D02*
X15551015Y-17361722D01*
X15551015Y-17361722D02*
X15541491Y-17342674D01*
X15541491Y-17342674D02*
X15522443Y-17333150D01*
X15522443Y-17333150D02*
X15484348Y-17333150D01*
X15484348Y-17333150D02*
X15465301Y-17342674D01*
X15551015Y-17456960D02*
X15531967Y-17466484D01*
X15531967Y-17466484D02*
X15484348Y-17466484D01*
X15484348Y-17466484D02*
X15465301Y-17456960D01*
X15465301Y-17456960D02*
X15455777Y-17437912D01*
X15455777Y-17437912D02*
X15455777Y-17418865D01*
X15455777Y-17418865D02*
X15465301Y-17399817D01*
X15465301Y-17399817D02*
X15484348Y-17390293D01*
X15484348Y-17390293D02*
X15531967Y-17390293D01*
X15531967Y-17390293D02*
X15551015Y-17380770D01*
X15646253Y-17333150D02*
X15646253Y-17533150D01*
X15646253Y-17342674D02*
X15665301Y-17333150D01*
X15665301Y-17333150D02*
X15703396Y-17333150D01*
X15703396Y-17333150D02*
X15722443Y-17342674D01*
X15722443Y-17342674D02*
X15731967Y-17352198D01*
X15731967Y-17352198D02*
X15741491Y-17371246D01*
X15741491Y-17371246D02*
X15741491Y-17428389D01*
X15741491Y-17428389D02*
X15731967Y-17447436D01*
X15731967Y-17447436D02*
X15722443Y-17456960D01*
X15722443Y-17456960D02*
X15703396Y-17466484D01*
X15703396Y-17466484D02*
X15665301Y-17466484D01*
X15665301Y-17466484D02*
X15646253Y-17456960D01*
X15827205Y-17447436D02*
X15836729Y-17456960D01*
X15836729Y-17456960D02*
X15827205Y-17466484D01*
X15827205Y-17466484D02*
X15817682Y-17456960D01*
X15817682Y-17456960D02*
X15827205Y-17447436D01*
X15827205Y-17447436D02*
X15827205Y-17466484D01*
X15827205Y-17342674D02*
X15836729Y-17352198D01*
X15836729Y-17352198D02*
X15827205Y-17361722D01*
X15827205Y-17361722D02*
X15817682Y-17352198D01*
X15817682Y-17352198D02*
X15827205Y-17342674D01*
X15827205Y-17342674D02*
X15827205Y-17361722D01*
M02*
