%TF.GenerationSoftware,KiCad,Pcbnew,8.0.7*%
%TF.CreationDate,2024-12-04T21:33:05-06:00*%
%TF.ProjectId,b1,62312e6b-6963-4616-945f-706362585858,rev?*%
%TF.SameCoordinates,Original*%
%TF.FileFunction,Legend,Bot*%
%TF.FilePolarity,Positive*%
%FSLAX46Y46*%
G04 Gerber Fmt 4.6, Leading zero omitted, Abs format (unit mm)*
G04 Created by KiCad (PCBNEW 8.0.7) date 2024-12-04 21:33:05*
%MOMM*%
%LPD*%
G01*
G04 APERTURE LIST*
G04 Aperture macros list*
%AMRoundRect*
0 Rectangle with rounded corners*
0 $1 Rounding radius*
0 $2 $3 $4 $5 $6 $7 $8 $9 X,Y pos of 4 corners*
0 Add a 4 corners polygon primitive as box body*
4,1,4,$2,$3,$4,$5,$6,$7,$8,$9,$2,$3,0*
0 Add four circle primitives for the rounded corners*
1,1,$1+$1,$2,$3*
1,1,$1+$1,$4,$5*
1,1,$1+$1,$6,$7*
1,1,$1+$1,$8,$9*
0 Add four rect primitives between the rounded corners*
20,1,$1+$1,$2,$3,$4,$5,0*
20,1,$1+$1,$4,$5,$6,$7,0*
20,1,$1+$1,$6,$7,$8,$9,0*
20,1,$1+$1,$8,$9,$2,$3,0*%
G04 Aperture macros list end*
%ADD10C,0.150000*%
%ADD11C,0.120000*%
%ADD12O,1.000000X1.000000*%
%ADD13R,1.000000X1.000000*%
%ADD14C,2.000000*%
%ADD15O,1.200000X3.200000*%
%ADD16RoundRect,6.000000X0.500000X4.000000X-0.500000X4.000000X-0.500000X-4.000000X0.500000X-4.000000X0*%
G04 APERTURE END LIST*
D10*
X62761904Y-47509200D02*
X62619047Y-47556819D01*
X62619047Y-47556819D02*
X62380952Y-47556819D01*
X62380952Y-47556819D02*
X62285714Y-47509200D01*
X62285714Y-47509200D02*
X62238095Y-47461580D01*
X62238095Y-47461580D02*
X62190476Y-47366342D01*
X62190476Y-47366342D02*
X62190476Y-47271104D01*
X62190476Y-47271104D02*
X62238095Y-47175866D01*
X62238095Y-47175866D02*
X62285714Y-47128247D01*
X62285714Y-47128247D02*
X62380952Y-47080628D01*
X62380952Y-47080628D02*
X62571428Y-47033009D01*
X62571428Y-47033009D02*
X62666666Y-46985390D01*
X62666666Y-46985390D02*
X62714285Y-46937771D01*
X62714285Y-46937771D02*
X62761904Y-46842533D01*
X62761904Y-46842533D02*
X62761904Y-46747295D01*
X62761904Y-46747295D02*
X62714285Y-46652057D01*
X62714285Y-46652057D02*
X62666666Y-46604438D01*
X62666666Y-46604438D02*
X62571428Y-46556819D01*
X62571428Y-46556819D02*
X62333333Y-46556819D01*
X62333333Y-46556819D02*
X62190476Y-46604438D01*
X61809523Y-46652057D02*
X61761904Y-46604438D01*
X61761904Y-46604438D02*
X61666666Y-46556819D01*
X61666666Y-46556819D02*
X61428571Y-46556819D01*
X61428571Y-46556819D02*
X61333333Y-46604438D01*
X61333333Y-46604438D02*
X61285714Y-46652057D01*
X61285714Y-46652057D02*
X61238095Y-46747295D01*
X61238095Y-46747295D02*
X61238095Y-46842533D01*
X61238095Y-46842533D02*
X61285714Y-46985390D01*
X61285714Y-46985390D02*
X61857142Y-47556819D01*
X61857142Y-47556819D02*
X61238095Y-47556819D01*
X38761904Y-47509200D02*
X38619047Y-47556819D01*
X38619047Y-47556819D02*
X38380952Y-47556819D01*
X38380952Y-47556819D02*
X38285714Y-47509200D01*
X38285714Y-47509200D02*
X38238095Y-47461580D01*
X38238095Y-47461580D02*
X38190476Y-47366342D01*
X38190476Y-47366342D02*
X38190476Y-47271104D01*
X38190476Y-47271104D02*
X38238095Y-47175866D01*
X38238095Y-47175866D02*
X38285714Y-47128247D01*
X38285714Y-47128247D02*
X38380952Y-47080628D01*
X38380952Y-47080628D02*
X38571428Y-47033009D01*
X38571428Y-47033009D02*
X38666666Y-46985390D01*
X38666666Y-46985390D02*
X38714285Y-46937771D01*
X38714285Y-46937771D02*
X38761904Y-46842533D01*
X38761904Y-46842533D02*
X38761904Y-46747295D01*
X38761904Y-46747295D02*
X38714285Y-46652057D01*
X38714285Y-46652057D02*
X38666666Y-46604438D01*
X38666666Y-46604438D02*
X38571428Y-46556819D01*
X38571428Y-46556819D02*
X38333333Y-46556819D01*
X38333333Y-46556819D02*
X38190476Y-46604438D01*
X37238095Y-47556819D02*
X37809523Y-47556819D01*
X37523809Y-47556819D02*
X37523809Y-46556819D01*
X37523809Y-46556819D02*
X37619047Y-46699676D01*
X37619047Y-46699676D02*
X37714285Y-46794914D01*
X37714285Y-46794914D02*
X37809523Y-46842533D01*
D11*
%TO.C,S2*%
X64250000Y-50000000D02*
G75*
G02*
X59750000Y-50000000I-2250000J0D01*
G01*
X59750000Y-50000000D02*
G75*
G02*
X64250000Y-50000000I2250000J0D01*
G01*
%TO.C,S1*%
X40250000Y-50000000D02*
G75*
G02*
X35750000Y-50000000I-2250000J0D01*
G01*
X35750000Y-50000000D02*
G75*
G02*
X40250000Y-50000000I2250000J0D01*
G01*
%TD*%
%LPC*%
D12*
%TO.C,J1*%
X48095000Y-32000000D03*
D13*
X49365000Y-32000000D03*
D12*
X50635000Y-32000000D03*
X51905000Y-32000000D03*
%TD*%
D14*
%TO.C,T51*%
X47500000Y-37000000D03*
%TD*%
%TO.C,T55*%
X46200961Y-37750000D03*
%TD*%
%TO.C,T53*%
X48799038Y-37750000D03*
%TD*%
%TO.C,T51*%
X47500000Y-35500000D03*
%TD*%
%TO.C,T56*%
X46200961Y-36250000D03*
%TD*%
%TO.C,T52*%
X48799038Y-36250000D03*
%TD*%
%TO.C,T54*%
X47500000Y-38500000D03*
%TD*%
D15*
%TO.C,T1*%
X50000000Y-51000000D03*
%TD*%
D13*
%TO.C,J2*%
X48730000Y-68000000D03*
D12*
X50000000Y-68000000D03*
X51270000Y-68000000D03*
%TD*%
D16*
%TO.C,S2*%
X61300000Y-50000000D03*
%TD*%
%TO.C,S1*%
X38700000Y-50000000D03*
%TD*%
%LPD*%
M02*
