%TF.GenerationSoftware,KiCad,Pcbnew,8.0.7*%
%TF.CreationDate,2024-12-04T21:33:05-06:00*%
%TF.ProjectId,b1,62312e6b-6963-4616-945f-706362585858,rev?*%
%TF.SameCoordinates,Original*%
%TF.FileFunction,Legend,Top*%
%TF.FilePolarity,Positive*%
%FSLAX46Y46*%
G04 Gerber Fmt 4.6, Leading zero omitted, Abs format (unit mm)*
G04 Created by KiCad (PCBNEW 8.0.7) date 2024-12-04 21:33:05*
%MOMM*%
%LPD*%
G01*
G04 APERTURE LIST*
G04 Aperture macros list*
%AMRoundRect*
0 Rectangle with rounded corners*
0 $1 Rounding radius*
0 $2 $3 $4 $5 $6 $7 $8 $9 X,Y pos of 4 corners*
0 Add a 4 corners polygon primitive as box body*
4,1,4,$2,$3,$4,$5,$6,$7,$8,$9,$2,$3,0*
0 Add four circle primitives for the rounded corners*
1,1,$1+$1,$2,$3*
1,1,$1+$1,$4,$5*
1,1,$1+$1,$6,$7*
1,1,$1+$1,$8,$9*
0 Add four rect primitives between the rounded corners*
20,1,$1+$1,$2,$3,$4,$5,0*
20,1,$1+$1,$4,$5,$6,$7,0*
20,1,$1+$1,$6,$7,$8,$9,0*
20,1,$1+$1,$8,$9,$2,$3,0*%
G04 Aperture macros list end*
%ADD10C,0.100000*%
%ADD11C,0.150000*%
%ADD12C,1.000000*%
%ADD13C,0.120000*%
%ADD14RoundRect,0.135000X0.209413X0.092715X-0.024413X0.227715X-0.209413X-0.092715X0.024413X-0.227715X0*%
%ADD15RoundRect,0.147500X0.223139X-0.041489X0.075639X0.213989X-0.223139X0.041489X-0.075639X-0.213989X0*%
%ADD16RoundRect,0.140000X-0.140000X-0.170000X0.140000X-0.170000X0.140000X0.170000X-0.140000X0.170000X0*%
%ADD17O,1.000000X1.000000*%
%ADD18R,1.000000X1.000000*%
%ADD19RoundRect,0.135000X0.227715X-0.024413X0.092715X0.209413X-0.227715X0.024413X-0.092715X-0.209413X0*%
%ADD20RoundRect,0.147500X0.213989X0.075639X-0.041489X0.223139X-0.213989X-0.075639X0.041489X-0.223139X0*%
%ADD21RoundRect,0.050000X-0.375000X-0.050000X0.375000X-0.050000X0.375000X0.050000X-0.375000X0.050000X0*%
%ADD22RoundRect,0.050000X-0.050000X-0.375000X0.050000X-0.375000X0.050000X0.375000X-0.050000X0.375000X0*%
%ADD23R,1.650000X1.650000*%
%ADD24C,2.000000*%
%ADD25RoundRect,0.140000X-0.170000X0.140000X-0.170000X-0.140000X0.170000X-0.140000X0.170000X0.140000X0*%
%ADD26RoundRect,0.140000X0.140000X0.170000X-0.140000X0.170000X-0.140000X-0.170000X0.140000X-0.170000X0*%
%ADD27RoundRect,0.135000X0.024413X0.227715X-0.209413X0.092715X-0.024413X-0.227715X0.209413X-0.092715X0*%
%ADD28RoundRect,0.147500X-0.213989X-0.075639X0.041489X-0.223139X0.213989X0.075639X-0.041489X0.223139X0*%
%ADD29RoundRect,0.135000X-0.185000X0.135000X-0.185000X-0.135000X0.185000X-0.135000X0.185000X0.135000X0*%
%ADD30RoundRect,0.135000X0.092715X-0.209413X0.227715X0.024413X-0.092715X0.209413X-0.227715X-0.024413X0*%
%ADD31RoundRect,0.135000X0.185000X-0.135000X0.185000X0.135000X-0.185000X0.135000X-0.185000X-0.135000X0*%
%ADD32RoundRect,0.147500X0.041489X0.223139X-0.213989X0.075639X-0.041489X-0.223139X0.213989X-0.075639X0*%
%ADD33RoundRect,0.135000X-0.209413X-0.092715X0.024413X-0.227715X0.209413X0.092715X-0.024413X0.227715X0*%
%ADD34RoundRect,0.135000X-0.024413X-0.227715X0.209413X-0.092715X0.024413X0.227715X-0.209413X0.092715X0*%
%ADD35C,10.000000*%
%ADD36RoundRect,0.135000X-0.092715X0.209413X-0.227715X-0.024413X0.092715X-0.209413X0.227715X0.024413X0*%
%ADD37O,1.200000X3.200000*%
%ADD38RoundRect,0.147500X-0.041489X-0.223139X0.213989X-0.075639X0.041489X0.223139X-0.213989X0.075639X0*%
%ADD39RoundRect,0.147500X-0.075639X0.213989X-0.223139X-0.041489X0.075639X-0.213989X0.223139X0.041489X0*%
%ADD40C,4.000000*%
%ADD41RoundRect,0.135000X-0.227715X0.024413X-0.092715X-0.209413X0.227715X-0.024413X0.092715X0.209413X0*%
%ADD42RoundRect,0.147500X0.172500X-0.147500X0.172500X0.147500X-0.172500X0.147500X-0.172500X-0.147500X0*%
%ADD43RoundRect,0.147500X0.075639X-0.213989X0.223139X0.041489X-0.075639X0.213989X-0.223139X-0.041489X0*%
%ADD44RoundRect,0.147500X-0.223139X0.041489X-0.075639X-0.213989X0.223139X-0.041489X0.075639X0.213989X0*%
%ADD45RoundRect,0.147500X-0.172500X0.147500X-0.172500X-0.147500X0.172500X-0.147500X0.172500X0.147500X0*%
G04 APERTURE END LIST*
D10*
X57589598Y-45872419D02*
X57589598Y-46586704D01*
X57589598Y-46586704D02*
X57541979Y-46729561D01*
X57541979Y-46729561D02*
X57446741Y-46824800D01*
X57446741Y-46824800D02*
X57303884Y-46872419D01*
X57303884Y-46872419D02*
X57208646Y-46872419D01*
X58541979Y-46872419D02*
X58065789Y-46872419D01*
X58065789Y-46872419D02*
X58065789Y-45872419D01*
X59446741Y-46777180D02*
X59399122Y-46824800D01*
X59399122Y-46824800D02*
X59256265Y-46872419D01*
X59256265Y-46872419D02*
X59161027Y-46872419D01*
X59161027Y-46872419D02*
X59018170Y-46824800D01*
X59018170Y-46824800D02*
X58922932Y-46729561D01*
X58922932Y-46729561D02*
X58875313Y-46634323D01*
X58875313Y-46634323D02*
X58827694Y-46443847D01*
X58827694Y-46443847D02*
X58827694Y-46300990D01*
X58827694Y-46300990D02*
X58875313Y-46110514D01*
X58875313Y-46110514D02*
X58922932Y-46015276D01*
X58922932Y-46015276D02*
X59018170Y-45920038D01*
X59018170Y-45920038D02*
X59161027Y-45872419D01*
X59161027Y-45872419D02*
X59256265Y-45872419D01*
X59256265Y-45872419D02*
X59399122Y-45920038D01*
X59399122Y-45920038D02*
X59446741Y-45967657D01*
X60161027Y-45872419D02*
X60161027Y-46586704D01*
X60161027Y-46586704D02*
X60113408Y-46729561D01*
X60113408Y-46729561D02*
X60018170Y-46824800D01*
X60018170Y-46824800D02*
X59875313Y-46872419D01*
X59875313Y-46872419D02*
X59780075Y-46872419D01*
X61113408Y-46872419D02*
X60637218Y-46872419D01*
X60637218Y-46872419D02*
X60637218Y-45872419D01*
X62018170Y-46777180D02*
X61970551Y-46824800D01*
X61970551Y-46824800D02*
X61827694Y-46872419D01*
X61827694Y-46872419D02*
X61732456Y-46872419D01*
X61732456Y-46872419D02*
X61589599Y-46824800D01*
X61589599Y-46824800D02*
X61494361Y-46729561D01*
X61494361Y-46729561D02*
X61446742Y-46634323D01*
X61446742Y-46634323D02*
X61399123Y-46443847D01*
X61399123Y-46443847D02*
X61399123Y-46300990D01*
X61399123Y-46300990D02*
X61446742Y-46110514D01*
X61446742Y-46110514D02*
X61494361Y-46015276D01*
X61494361Y-46015276D02*
X61589599Y-45920038D01*
X61589599Y-45920038D02*
X61732456Y-45872419D01*
X61732456Y-45872419D02*
X61827694Y-45872419D01*
X61827694Y-45872419D02*
X61970551Y-45920038D01*
X61970551Y-45920038D02*
X62018170Y-45967657D01*
X62732456Y-45872419D02*
X62732456Y-46586704D01*
X62732456Y-46586704D02*
X62684837Y-46729561D01*
X62684837Y-46729561D02*
X62589599Y-46824800D01*
X62589599Y-46824800D02*
X62446742Y-46872419D01*
X62446742Y-46872419D02*
X62351504Y-46872419D01*
X63684837Y-46872419D02*
X63208647Y-46872419D01*
X63208647Y-46872419D02*
X63208647Y-45872419D01*
X64589599Y-46777180D02*
X64541980Y-46824800D01*
X64541980Y-46824800D02*
X64399123Y-46872419D01*
X64399123Y-46872419D02*
X64303885Y-46872419D01*
X64303885Y-46872419D02*
X64161028Y-46824800D01*
X64161028Y-46824800D02*
X64065790Y-46729561D01*
X64065790Y-46729561D02*
X64018171Y-46634323D01*
X64018171Y-46634323D02*
X63970552Y-46443847D01*
X63970552Y-46443847D02*
X63970552Y-46300990D01*
X63970552Y-46300990D02*
X64018171Y-46110514D01*
X64018171Y-46110514D02*
X64065790Y-46015276D01*
X64065790Y-46015276D02*
X64161028Y-45920038D01*
X64161028Y-45920038D02*
X64303885Y-45872419D01*
X64303885Y-45872419D02*
X64399123Y-45872419D01*
X64399123Y-45872419D02*
X64541980Y-45920038D01*
X64541980Y-45920038D02*
X64589599Y-45967657D01*
X65303885Y-45872419D02*
X65303885Y-46586704D01*
X65303885Y-46586704D02*
X65256266Y-46729561D01*
X65256266Y-46729561D02*
X65161028Y-46824800D01*
X65161028Y-46824800D02*
X65018171Y-46872419D01*
X65018171Y-46872419D02*
X64922933Y-46872419D01*
X66256266Y-46872419D02*
X65780076Y-46872419D01*
X65780076Y-46872419D02*
X65780076Y-45872419D01*
X67161028Y-46777180D02*
X67113409Y-46824800D01*
X67113409Y-46824800D02*
X66970552Y-46872419D01*
X66970552Y-46872419D02*
X66875314Y-46872419D01*
X66875314Y-46872419D02*
X66732457Y-46824800D01*
X66732457Y-46824800D02*
X66637219Y-46729561D01*
X66637219Y-46729561D02*
X66589600Y-46634323D01*
X66589600Y-46634323D02*
X66541981Y-46443847D01*
X66541981Y-46443847D02*
X66541981Y-46300990D01*
X66541981Y-46300990D02*
X66589600Y-46110514D01*
X66589600Y-46110514D02*
X66637219Y-46015276D01*
X66637219Y-46015276D02*
X66732457Y-45920038D01*
X66732457Y-45920038D02*
X66875314Y-45872419D01*
X66875314Y-45872419D02*
X66970552Y-45872419D01*
X66970552Y-45872419D02*
X67113409Y-45920038D01*
X67113409Y-45920038D02*
X67161028Y-45967657D01*
D11*
X42250146Y-66373528D02*
X42199566Y-65794469D01*
X41755274Y-66087814D02*
X42255274Y-65221789D01*
X42255274Y-65221789D02*
X42585189Y-65412265D01*
X42585189Y-65412265D02*
X42643858Y-65501123D01*
X42643858Y-65501123D02*
X42661288Y-65566172D01*
X42661288Y-65566172D02*
X42654908Y-65672460D01*
X42654908Y-65672460D02*
X42583479Y-65796178D01*
X42583479Y-65796178D02*
X42494621Y-65854847D01*
X42494621Y-65854847D02*
X42429572Y-65872277D01*
X42429572Y-65872277D02*
X42323284Y-65865897D01*
X42323284Y-65865897D02*
X41993370Y-65675421D01*
X43074932Y-66849719D02*
X42580060Y-66564004D01*
X42827496Y-66706862D02*
X43327496Y-65840836D01*
X43327496Y-65840836D02*
X43173589Y-65916935D01*
X43173589Y-65916935D02*
X43043491Y-65951795D01*
X43043491Y-65951795D02*
X42937203Y-65945415D01*
X34166431Y-60685093D02*
X35032457Y-60185093D01*
X35032457Y-60185093D02*
X35151504Y-60391290D01*
X35151504Y-60391290D02*
X35181694Y-60538817D01*
X35181694Y-60538817D02*
X35146834Y-60668915D01*
X35146834Y-60668915D02*
X35088165Y-60757773D01*
X35088165Y-60757773D02*
X34947017Y-60894251D01*
X34947017Y-60894251D02*
X34823299Y-60965679D01*
X34823299Y-60965679D02*
X34634533Y-61019678D01*
X34634533Y-61019678D02*
X34528244Y-61026058D01*
X34528244Y-61026058D02*
X34398147Y-60991198D01*
X34398147Y-60991198D02*
X34285479Y-60891290D01*
X34285479Y-60891290D02*
X34166431Y-60685093D01*
X35426169Y-61057499D02*
X35491217Y-61074928D01*
X35491217Y-61074928D02*
X35580076Y-61133597D01*
X35580076Y-61133597D02*
X35699123Y-61339794D01*
X35699123Y-61339794D02*
X35705503Y-61446082D01*
X35705503Y-61446082D02*
X35688073Y-61511131D01*
X35688073Y-61511131D02*
X35629404Y-61599989D01*
X35629404Y-61599989D02*
X35546926Y-61647608D01*
X35546926Y-61647608D02*
X35399398Y-61677798D01*
X35399398Y-61677798D02*
X34618812Y-61468640D01*
X34618812Y-61468640D02*
X34928336Y-62004751D01*
X50633333Y-35809580D02*
X50585714Y-35857200D01*
X50585714Y-35857200D02*
X50442857Y-35904819D01*
X50442857Y-35904819D02*
X50347619Y-35904819D01*
X50347619Y-35904819D02*
X50204762Y-35857200D01*
X50204762Y-35857200D02*
X50109524Y-35761961D01*
X50109524Y-35761961D02*
X50061905Y-35666723D01*
X50061905Y-35666723D02*
X50014286Y-35476247D01*
X50014286Y-35476247D02*
X50014286Y-35333390D01*
X50014286Y-35333390D02*
X50061905Y-35142914D01*
X50061905Y-35142914D02*
X50109524Y-35047676D01*
X50109524Y-35047676D02*
X50204762Y-34952438D01*
X50204762Y-34952438D02*
X50347619Y-34904819D01*
X50347619Y-34904819D02*
X50442857Y-34904819D01*
X50442857Y-34904819D02*
X50585714Y-34952438D01*
X50585714Y-34952438D02*
X50633333Y-35000057D01*
X51490476Y-34904819D02*
X51300000Y-34904819D01*
X51300000Y-34904819D02*
X51204762Y-34952438D01*
X51204762Y-34952438D02*
X51157143Y-35000057D01*
X51157143Y-35000057D02*
X51061905Y-35142914D01*
X51061905Y-35142914D02*
X51014286Y-35333390D01*
X51014286Y-35333390D02*
X51014286Y-35714342D01*
X51014286Y-35714342D02*
X51061905Y-35809580D01*
X51061905Y-35809580D02*
X51109524Y-35857200D01*
X51109524Y-35857200D02*
X51204762Y-35904819D01*
X51204762Y-35904819D02*
X51395238Y-35904819D01*
X51395238Y-35904819D02*
X51490476Y-35857200D01*
X51490476Y-35857200D02*
X51538095Y-35809580D01*
X51538095Y-35809580D02*
X51585714Y-35714342D01*
X51585714Y-35714342D02*
X51585714Y-35476247D01*
X51585714Y-35476247D02*
X51538095Y-35381009D01*
X51538095Y-35381009D02*
X51490476Y-35333390D01*
X51490476Y-35333390D02*
X51395238Y-35285771D01*
X51395238Y-35285771D02*
X51204762Y-35285771D01*
X51204762Y-35285771D02*
X51109524Y-35333390D01*
X51109524Y-35333390D02*
X51061905Y-35381009D01*
X51061905Y-35381009D02*
X51014286Y-35476247D01*
X45854819Y-32333333D02*
X46569104Y-32333333D01*
X46569104Y-32333333D02*
X46711961Y-32380952D01*
X46711961Y-32380952D02*
X46807200Y-32476190D01*
X46807200Y-32476190D02*
X46854819Y-32619047D01*
X46854819Y-32619047D02*
X46854819Y-32714285D01*
X46854819Y-31333333D02*
X46854819Y-31904761D01*
X46854819Y-31619047D02*
X45854819Y-31619047D01*
X45854819Y-31619047D02*
X45997676Y-31714285D01*
X45997676Y-31714285D02*
X46092914Y-31809523D01*
X46092914Y-31809523D02*
X46140533Y-31904761D01*
X35534678Y-60554965D02*
X35780404Y-60028195D01*
X35248963Y-60060093D02*
X36114989Y-59560093D01*
X36114989Y-59560093D02*
X36305465Y-59890008D01*
X36305465Y-59890008D02*
X36311845Y-59996296D01*
X36311845Y-59996296D02*
X36294415Y-60061345D01*
X36294415Y-60061345D02*
X36235746Y-60150203D01*
X36235746Y-60150203D02*
X36112028Y-60221632D01*
X36112028Y-60221632D02*
X36005740Y-60228011D01*
X36005740Y-60228011D02*
X35940691Y-60210582D01*
X35940691Y-60210582D02*
X35851833Y-60151913D01*
X35851833Y-60151913D02*
X35661356Y-59821998D01*
X36508701Y-60432499D02*
X36573749Y-60449928D01*
X36573749Y-60449928D02*
X36662608Y-60508597D01*
X36662608Y-60508597D02*
X36781655Y-60714794D01*
X36781655Y-60714794D02*
X36788035Y-60821082D01*
X36788035Y-60821082D02*
X36770605Y-60886131D01*
X36770605Y-60886131D02*
X36711936Y-60974989D01*
X36711936Y-60974989D02*
X36629458Y-61022608D01*
X36629458Y-61022608D02*
X36481930Y-61052798D01*
X36481930Y-61052798D02*
X35701344Y-60843640D01*
X35701344Y-60843640D02*
X36010868Y-61379751D01*
X41130274Y-67170346D02*
X41630274Y-66304321D01*
X41630274Y-66304321D02*
X41836471Y-66423368D01*
X41836471Y-66423368D02*
X41936379Y-66536036D01*
X41936379Y-66536036D02*
X41971239Y-66666134D01*
X41971239Y-66666134D02*
X41964859Y-66772422D01*
X41964859Y-66772422D02*
X41910860Y-66961189D01*
X41910860Y-66961189D02*
X41839432Y-67084907D01*
X41839432Y-67084907D02*
X41702954Y-67226054D01*
X41702954Y-67226054D02*
X41614096Y-67284723D01*
X41614096Y-67284723D02*
X41483998Y-67319583D01*
X41483998Y-67319583D02*
X41336471Y-67289394D01*
X41336471Y-67289394D02*
X41130274Y-67170346D01*
X42449932Y-67932251D02*
X41955060Y-67646536D01*
X42202496Y-67789394D02*
X42702496Y-66923368D01*
X42702496Y-66923368D02*
X42548589Y-66999467D01*
X42548589Y-66999467D02*
X42418491Y-67034327D01*
X42418491Y-67034327D02*
X42312203Y-67027947D01*
X49238095Y-40624819D02*
X49238095Y-41434342D01*
X49238095Y-41434342D02*
X49285714Y-41529580D01*
X49285714Y-41529580D02*
X49333333Y-41577200D01*
X49333333Y-41577200D02*
X49428571Y-41624819D01*
X49428571Y-41624819D02*
X49619047Y-41624819D01*
X49619047Y-41624819D02*
X49714285Y-41577200D01*
X49714285Y-41577200D02*
X49761904Y-41529580D01*
X49761904Y-41529580D02*
X49809523Y-41434342D01*
X49809523Y-41434342D02*
X49809523Y-40624819D01*
X50809523Y-41624819D02*
X50238095Y-41624819D01*
X50523809Y-41624819D02*
X50523809Y-40624819D01*
X50523809Y-40624819D02*
X50428571Y-40767676D01*
X50428571Y-40767676D02*
X50333333Y-40862914D01*
X50333333Y-40862914D02*
X50238095Y-40910533D01*
X48108333Y-49159580D02*
X48060714Y-49207200D01*
X48060714Y-49207200D02*
X47917857Y-49254819D01*
X47917857Y-49254819D02*
X47822619Y-49254819D01*
X47822619Y-49254819D02*
X47679762Y-49207200D01*
X47679762Y-49207200D02*
X47584524Y-49111961D01*
X47584524Y-49111961D02*
X47536905Y-49016723D01*
X47536905Y-49016723D02*
X47489286Y-48826247D01*
X47489286Y-48826247D02*
X47489286Y-48683390D01*
X47489286Y-48683390D02*
X47536905Y-48492914D01*
X47536905Y-48492914D02*
X47584524Y-48397676D01*
X47584524Y-48397676D02*
X47679762Y-48302438D01*
X47679762Y-48302438D02*
X47822619Y-48254819D01*
X47822619Y-48254819D02*
X47917857Y-48254819D01*
X47917857Y-48254819D02*
X48060714Y-48302438D01*
X48060714Y-48302438D02*
X48108333Y-48350057D01*
X49060714Y-49254819D02*
X48489286Y-49254819D01*
X48775000Y-49254819D02*
X48775000Y-48254819D01*
X48775000Y-48254819D02*
X48679762Y-48397676D01*
X48679762Y-48397676D02*
X48584524Y-48492914D01*
X48584524Y-48492914D02*
X48489286Y-48540533D01*
X43933333Y-35809580D02*
X43885714Y-35857200D01*
X43885714Y-35857200D02*
X43742857Y-35904819D01*
X43742857Y-35904819D02*
X43647619Y-35904819D01*
X43647619Y-35904819D02*
X43504762Y-35857200D01*
X43504762Y-35857200D02*
X43409524Y-35761961D01*
X43409524Y-35761961D02*
X43361905Y-35666723D01*
X43361905Y-35666723D02*
X43314286Y-35476247D01*
X43314286Y-35476247D02*
X43314286Y-35333390D01*
X43314286Y-35333390D02*
X43361905Y-35142914D01*
X43361905Y-35142914D02*
X43409524Y-35047676D01*
X43409524Y-35047676D02*
X43504762Y-34952438D01*
X43504762Y-34952438D02*
X43647619Y-34904819D01*
X43647619Y-34904819D02*
X43742857Y-34904819D01*
X43742857Y-34904819D02*
X43885714Y-34952438D01*
X43885714Y-34952438D02*
X43933333Y-35000057D01*
X44838095Y-34904819D02*
X44361905Y-34904819D01*
X44361905Y-34904819D02*
X44314286Y-35381009D01*
X44314286Y-35381009D02*
X44361905Y-35333390D01*
X44361905Y-35333390D02*
X44457143Y-35285771D01*
X44457143Y-35285771D02*
X44695238Y-35285771D01*
X44695238Y-35285771D02*
X44790476Y-35333390D01*
X44790476Y-35333390D02*
X44838095Y-35381009D01*
X44838095Y-35381009D02*
X44885714Y-35476247D01*
X44885714Y-35476247D02*
X44885714Y-35714342D01*
X44885714Y-35714342D02*
X44838095Y-35809580D01*
X44838095Y-35809580D02*
X44790476Y-35857200D01*
X44790476Y-35857200D02*
X44695238Y-35904819D01*
X44695238Y-35904819D02*
X44457143Y-35904819D01*
X44457143Y-35904819D02*
X44361905Y-35857200D01*
X44361905Y-35857200D02*
X44314286Y-35809580D01*
X61054965Y-64465320D02*
X60528195Y-64219594D01*
X60560093Y-64751035D02*
X60060093Y-63885009D01*
X60060093Y-63885009D02*
X60390008Y-63694533D01*
X60390008Y-63694533D02*
X60496296Y-63688153D01*
X60496296Y-63688153D02*
X60561345Y-63705583D01*
X60561345Y-63705583D02*
X60650203Y-63764252D01*
X60650203Y-63764252D02*
X60721632Y-63887970D01*
X60721632Y-63887970D02*
X60728011Y-63994258D01*
X60728011Y-63994258D02*
X60710582Y-64059307D01*
X60710582Y-64059307D02*
X60651913Y-64148165D01*
X60651913Y-64148165D02*
X60321998Y-64338642D01*
X61879751Y-63989130D02*
X61384879Y-64274844D01*
X61632315Y-64131987D02*
X61132315Y-63265962D01*
X61132315Y-63265962D02*
X61121265Y-63437299D01*
X61121265Y-63437299D02*
X61086406Y-63567396D01*
X61086406Y-63567396D02*
X61027737Y-63656255D01*
X61915862Y-62813581D02*
X61998341Y-62765962D01*
X61998341Y-62765962D02*
X62104629Y-62759582D01*
X62104629Y-62759582D02*
X62169678Y-62777012D01*
X62169678Y-62777012D02*
X62258536Y-62835681D01*
X62258536Y-62835681D02*
X62395013Y-62976829D01*
X62395013Y-62976829D02*
X62514061Y-63183025D01*
X62514061Y-63183025D02*
X62568060Y-63371792D01*
X62568060Y-63371792D02*
X62574440Y-63478080D01*
X62574440Y-63478080D02*
X62557010Y-63543129D01*
X62557010Y-63543129D02*
X62498341Y-63631987D01*
X62498341Y-63631987D02*
X62415862Y-63679606D01*
X62415862Y-63679606D02*
X62309574Y-63685986D01*
X62309574Y-63685986D02*
X62244525Y-63668556D01*
X62244525Y-63668556D02*
X62155667Y-63609887D01*
X62155667Y-63609887D02*
X62019189Y-63468739D01*
X62019189Y-63468739D02*
X61900142Y-63262543D01*
X61900142Y-63262543D02*
X61846143Y-63073776D01*
X61846143Y-63073776D02*
X61839763Y-62967488D01*
X61839763Y-62967488D02*
X61857193Y-62902439D01*
X61857193Y-62902439D02*
X61915862Y-62813581D01*
X60230274Y-34954201D02*
X60730274Y-34088176D01*
X60730274Y-34088176D02*
X60936471Y-34207223D01*
X60936471Y-34207223D02*
X61036379Y-34319891D01*
X61036379Y-34319891D02*
X61071239Y-34449989D01*
X61071239Y-34449989D02*
X61064859Y-34556277D01*
X61064859Y-34556277D02*
X61010860Y-34745044D01*
X61010860Y-34745044D02*
X60939432Y-34868762D01*
X60939432Y-34868762D02*
X60802954Y-35009909D01*
X60802954Y-35009909D02*
X60714096Y-35068578D01*
X60714096Y-35068578D02*
X60583998Y-35103438D01*
X60583998Y-35103438D02*
X60436471Y-35073249D01*
X60436471Y-35073249D02*
X60230274Y-34954201D01*
X61967454Y-34802461D02*
X61802496Y-34707223D01*
X61802496Y-34707223D02*
X61696208Y-34700843D01*
X61696208Y-34700843D02*
X61631159Y-34718273D01*
X61631159Y-34718273D02*
X61477252Y-34794372D01*
X61477252Y-34794372D02*
X61340775Y-34935520D01*
X61340775Y-34935520D02*
X61150299Y-35265434D01*
X61150299Y-35265434D02*
X61143919Y-35371722D01*
X61143919Y-35371722D02*
X61161349Y-35436771D01*
X61161349Y-35436771D02*
X61220018Y-35525630D01*
X61220018Y-35525630D02*
X61384975Y-35620868D01*
X61384975Y-35620868D02*
X61491263Y-35627247D01*
X61491263Y-35627247D02*
X61556312Y-35609818D01*
X61556312Y-35609818D02*
X61645170Y-35551149D01*
X61645170Y-35551149D02*
X61764218Y-35344952D01*
X61764218Y-35344952D02*
X61770598Y-35238664D01*
X61770598Y-35238664D02*
X61753168Y-35173615D01*
X61753168Y-35173615D02*
X61694499Y-35084757D01*
X61694499Y-35084757D02*
X61529541Y-34989519D01*
X61529541Y-34989519D02*
X61423253Y-34983139D01*
X61423253Y-34983139D02*
X61358205Y-35000569D01*
X61358205Y-35000569D02*
X61269346Y-35059238D01*
X67804819Y-48091792D02*
X67328628Y-48425125D01*
X67804819Y-48663220D02*
X66804819Y-48663220D01*
X66804819Y-48663220D02*
X66804819Y-48282268D01*
X66804819Y-48282268D02*
X66852438Y-48187030D01*
X66852438Y-48187030D02*
X66900057Y-48139411D01*
X66900057Y-48139411D02*
X66995295Y-48091792D01*
X66995295Y-48091792D02*
X67138152Y-48091792D01*
X67138152Y-48091792D02*
X67233390Y-48139411D01*
X67233390Y-48139411D02*
X67281009Y-48187030D01*
X67281009Y-48187030D02*
X67328628Y-48282268D01*
X67328628Y-48282268D02*
X67328628Y-48663220D01*
X67233390Y-47520363D02*
X67185771Y-47615601D01*
X67185771Y-47615601D02*
X67138152Y-47663220D01*
X67138152Y-47663220D02*
X67042914Y-47710839D01*
X67042914Y-47710839D02*
X66995295Y-47710839D01*
X66995295Y-47710839D02*
X66900057Y-47663220D01*
X66900057Y-47663220D02*
X66852438Y-47615601D01*
X66852438Y-47615601D02*
X66804819Y-47520363D01*
X66804819Y-47520363D02*
X66804819Y-47329887D01*
X66804819Y-47329887D02*
X66852438Y-47234649D01*
X66852438Y-47234649D02*
X66900057Y-47187030D01*
X66900057Y-47187030D02*
X66995295Y-47139411D01*
X66995295Y-47139411D02*
X67042914Y-47139411D01*
X67042914Y-47139411D02*
X67138152Y-47187030D01*
X67138152Y-47187030D02*
X67185771Y-47234649D01*
X67185771Y-47234649D02*
X67233390Y-47329887D01*
X67233390Y-47329887D02*
X67233390Y-47520363D01*
X67233390Y-47520363D02*
X67281009Y-47615601D01*
X67281009Y-47615601D02*
X67328628Y-47663220D01*
X67328628Y-47663220D02*
X67423866Y-47710839D01*
X67423866Y-47710839D02*
X67614342Y-47710839D01*
X67614342Y-47710839D02*
X67709580Y-47663220D01*
X67709580Y-47663220D02*
X67757200Y-47615601D01*
X67757200Y-47615601D02*
X67804819Y-47520363D01*
X67804819Y-47520363D02*
X67804819Y-47329887D01*
X67804819Y-47329887D02*
X67757200Y-47234649D01*
X67757200Y-47234649D02*
X67709580Y-47187030D01*
X67709580Y-47187030D02*
X67614342Y-47139411D01*
X67614342Y-47139411D02*
X67423866Y-47139411D01*
X67423866Y-47139411D02*
X67328628Y-47187030D01*
X67328628Y-47187030D02*
X67281009Y-47234649D01*
X67281009Y-47234649D02*
X67233390Y-47329887D01*
X36322447Y-39899853D02*
X35743388Y-39950433D01*
X36036733Y-40394725D02*
X35170708Y-39894725D01*
X35170708Y-39894725D02*
X35361184Y-39564810D01*
X35361184Y-39564810D02*
X35450042Y-39506141D01*
X35450042Y-39506141D02*
X35515091Y-39488711D01*
X35515091Y-39488711D02*
X35621379Y-39495091D01*
X35621379Y-39495091D02*
X35745097Y-39566520D01*
X35745097Y-39566520D02*
X35803766Y-39655378D01*
X35803766Y-39655378D02*
X35821196Y-39720427D01*
X35821196Y-39720427D02*
X35814816Y-39826715D01*
X35814816Y-39826715D02*
X35624340Y-40156629D01*
X36173668Y-38824212D02*
X36751019Y-39157545D01*
X35724706Y-38839933D02*
X36224248Y-39403272D01*
X36224248Y-39403272D02*
X36533772Y-38867161D01*
X33104819Y-48091792D02*
X32628628Y-48425125D01*
X33104819Y-48663220D02*
X32104819Y-48663220D01*
X32104819Y-48663220D02*
X32104819Y-48282268D01*
X32104819Y-48282268D02*
X32152438Y-48187030D01*
X32152438Y-48187030D02*
X32200057Y-48139411D01*
X32200057Y-48139411D02*
X32295295Y-48091792D01*
X32295295Y-48091792D02*
X32438152Y-48091792D01*
X32438152Y-48091792D02*
X32533390Y-48139411D01*
X32533390Y-48139411D02*
X32581009Y-48187030D01*
X32581009Y-48187030D02*
X32628628Y-48282268D01*
X32628628Y-48282268D02*
X32628628Y-48663220D01*
X32104819Y-47758458D02*
X32104819Y-47139411D01*
X32104819Y-47139411D02*
X32485771Y-47472744D01*
X32485771Y-47472744D02*
X32485771Y-47329887D01*
X32485771Y-47329887D02*
X32533390Y-47234649D01*
X32533390Y-47234649D02*
X32581009Y-47187030D01*
X32581009Y-47187030D02*
X32676247Y-47139411D01*
X32676247Y-47139411D02*
X32914342Y-47139411D01*
X32914342Y-47139411D02*
X33009580Y-47187030D01*
X33009580Y-47187030D02*
X33057200Y-47234649D01*
X33057200Y-47234649D02*
X33104819Y-47329887D01*
X33104819Y-47329887D02*
X33104819Y-47615601D01*
X33104819Y-47615601D02*
X33057200Y-47710839D01*
X33057200Y-47710839D02*
X33009580Y-47758458D01*
X61185093Y-65833567D02*
X60685093Y-64967541D01*
X60685093Y-64967541D02*
X60891290Y-64848494D01*
X60891290Y-64848494D02*
X61038817Y-64818304D01*
X61038817Y-64818304D02*
X61168915Y-64853164D01*
X61168915Y-64853164D02*
X61257773Y-64911833D01*
X61257773Y-64911833D02*
X61394251Y-65052981D01*
X61394251Y-65052981D02*
X61465679Y-65176699D01*
X61465679Y-65176699D02*
X61519678Y-65365465D01*
X61519678Y-65365465D02*
X61526058Y-65471754D01*
X61526058Y-65471754D02*
X61491198Y-65601851D01*
X61491198Y-65601851D02*
X61391290Y-65714519D01*
X61391290Y-65714519D02*
X61185093Y-65833567D01*
X62504751Y-65071662D02*
X62009879Y-65357376D01*
X62257315Y-65214519D02*
X61757315Y-64348494D01*
X61757315Y-64348494D02*
X61746265Y-64519831D01*
X61746265Y-64519831D02*
X61711406Y-64649928D01*
X61711406Y-64649928D02*
X61652737Y-64738787D01*
X62540862Y-63896113D02*
X62623341Y-63848494D01*
X62623341Y-63848494D02*
X62729629Y-63842114D01*
X62729629Y-63842114D02*
X62794678Y-63859544D01*
X62794678Y-63859544D02*
X62883536Y-63918213D01*
X62883536Y-63918213D02*
X63020013Y-64059361D01*
X63020013Y-64059361D02*
X63139061Y-64265557D01*
X63139061Y-64265557D02*
X63193060Y-64454324D01*
X63193060Y-64454324D02*
X63199440Y-64560612D01*
X63199440Y-64560612D02*
X63182010Y-64625661D01*
X63182010Y-64625661D02*
X63123341Y-64714519D01*
X63123341Y-64714519D02*
X63040862Y-64762138D01*
X63040862Y-64762138D02*
X62934574Y-64768518D01*
X62934574Y-64768518D02*
X62869525Y-64751088D01*
X62869525Y-64751088D02*
X62780667Y-64692419D01*
X62780667Y-64692419D02*
X62644189Y-64551271D01*
X62644189Y-64551271D02*
X62525142Y-64345075D01*
X62525142Y-64345075D02*
X62471143Y-64156308D01*
X62471143Y-64156308D02*
X62464763Y-64050020D01*
X62464763Y-64050020D02*
X62482193Y-63984971D01*
X62482193Y-63984971D02*
X62540862Y-63896113D01*
X50633333Y-39009580D02*
X50585714Y-39057200D01*
X50585714Y-39057200D02*
X50442857Y-39104819D01*
X50442857Y-39104819D02*
X50347619Y-39104819D01*
X50347619Y-39104819D02*
X50204762Y-39057200D01*
X50204762Y-39057200D02*
X50109524Y-38961961D01*
X50109524Y-38961961D02*
X50061905Y-38866723D01*
X50061905Y-38866723D02*
X50014286Y-38676247D01*
X50014286Y-38676247D02*
X50014286Y-38533390D01*
X50014286Y-38533390D02*
X50061905Y-38342914D01*
X50061905Y-38342914D02*
X50109524Y-38247676D01*
X50109524Y-38247676D02*
X50204762Y-38152438D01*
X50204762Y-38152438D02*
X50347619Y-38104819D01*
X50347619Y-38104819D02*
X50442857Y-38104819D01*
X50442857Y-38104819D02*
X50585714Y-38152438D01*
X50585714Y-38152438D02*
X50633333Y-38200057D01*
X51490476Y-38438152D02*
X51490476Y-39104819D01*
X51252381Y-38057200D02*
X51014286Y-38771485D01*
X51014286Y-38771485D02*
X51633333Y-38771485D01*
X43933333Y-39009580D02*
X43885714Y-39057200D01*
X43885714Y-39057200D02*
X43742857Y-39104819D01*
X43742857Y-39104819D02*
X43647619Y-39104819D01*
X43647619Y-39104819D02*
X43504762Y-39057200D01*
X43504762Y-39057200D02*
X43409524Y-38961961D01*
X43409524Y-38961961D02*
X43361905Y-38866723D01*
X43361905Y-38866723D02*
X43314286Y-38676247D01*
X43314286Y-38676247D02*
X43314286Y-38533390D01*
X43314286Y-38533390D02*
X43361905Y-38342914D01*
X43361905Y-38342914D02*
X43409524Y-38247676D01*
X43409524Y-38247676D02*
X43504762Y-38152438D01*
X43504762Y-38152438D02*
X43647619Y-38104819D01*
X43647619Y-38104819D02*
X43742857Y-38104819D01*
X43742857Y-38104819D02*
X43885714Y-38152438D01*
X43885714Y-38152438D02*
X43933333Y-38200057D01*
X44266667Y-38104819D02*
X44885714Y-38104819D01*
X44885714Y-38104819D02*
X44552381Y-38485771D01*
X44552381Y-38485771D02*
X44695238Y-38485771D01*
X44695238Y-38485771D02*
X44790476Y-38533390D01*
X44790476Y-38533390D02*
X44838095Y-38581009D01*
X44838095Y-38581009D02*
X44885714Y-38676247D01*
X44885714Y-38676247D02*
X44885714Y-38914342D01*
X44885714Y-38914342D02*
X44838095Y-39009580D01*
X44838095Y-39009580D02*
X44790476Y-39057200D01*
X44790476Y-39057200D02*
X44695238Y-39104819D01*
X44695238Y-39104819D02*
X44409524Y-39104819D01*
X44409524Y-39104819D02*
X44314286Y-39057200D01*
X44314286Y-39057200D02*
X44266667Y-39009580D01*
X60100146Y-36322447D02*
X60049566Y-35743388D01*
X59605274Y-36036733D02*
X60105274Y-35170708D01*
X60105274Y-35170708D02*
X60435189Y-35361184D01*
X60435189Y-35361184D02*
X60493858Y-35450042D01*
X60493858Y-35450042D02*
X60511288Y-35515091D01*
X60511288Y-35515091D02*
X60504908Y-35621379D01*
X60504908Y-35621379D02*
X60433479Y-35745097D01*
X60433479Y-35745097D02*
X60344621Y-35803766D01*
X60344621Y-35803766D02*
X60279572Y-35821196D01*
X60279572Y-35821196D02*
X60173284Y-35814816D01*
X60173284Y-35814816D02*
X59843370Y-35624340D01*
X61342454Y-35884993D02*
X61177496Y-35789755D01*
X61177496Y-35789755D02*
X61071208Y-35783375D01*
X61071208Y-35783375D02*
X61006159Y-35800805D01*
X61006159Y-35800805D02*
X60852252Y-35876904D01*
X60852252Y-35876904D02*
X60715775Y-36018052D01*
X60715775Y-36018052D02*
X60525299Y-36347966D01*
X60525299Y-36347966D02*
X60518919Y-36454254D01*
X60518919Y-36454254D02*
X60536349Y-36519303D01*
X60536349Y-36519303D02*
X60595018Y-36608162D01*
X60595018Y-36608162D02*
X60759975Y-36703400D01*
X60759975Y-36703400D02*
X60866263Y-36709779D01*
X60866263Y-36709779D02*
X60931312Y-36692350D01*
X60931312Y-36692350D02*
X61020170Y-36633681D01*
X61020170Y-36633681D02*
X61139218Y-36427484D01*
X61139218Y-36427484D02*
X61145598Y-36321196D01*
X61145598Y-36321196D02*
X61128168Y-36256147D01*
X61128168Y-36256147D02*
X61069499Y-36167289D01*
X61069499Y-36167289D02*
X60904541Y-36072051D01*
X60904541Y-36072051D02*
X60798253Y-36065671D01*
X60798253Y-36065671D02*
X60733205Y-36083101D01*
X60733205Y-36083101D02*
X60644346Y-36141770D01*
X43204965Y-34414239D02*
X42678195Y-34168513D01*
X42710093Y-34699954D02*
X42210093Y-33833928D01*
X42210093Y-33833928D02*
X42540008Y-33643452D01*
X42540008Y-33643452D02*
X42646296Y-33637072D01*
X42646296Y-33637072D02*
X42711345Y-33654502D01*
X42711345Y-33654502D02*
X42800203Y-33713171D01*
X42800203Y-33713171D02*
X42871632Y-33836889D01*
X42871632Y-33836889D02*
X42878011Y-33943177D01*
X42878011Y-33943177D02*
X42860582Y-34008226D01*
X42860582Y-34008226D02*
X42801913Y-34097084D01*
X42801913Y-34097084D02*
X42471998Y-34287561D01*
X43488512Y-33095833D02*
X43076119Y-33333928D01*
X43076119Y-33333928D02*
X43272975Y-33770131D01*
X43272975Y-33770131D02*
X43290405Y-33705082D01*
X43290405Y-33705082D02*
X43349074Y-33616224D01*
X43349074Y-33616224D02*
X43555270Y-33497176D01*
X43555270Y-33497176D02*
X43661558Y-33490796D01*
X43661558Y-33490796D02*
X43726607Y-33508226D01*
X43726607Y-33508226D02*
X43815465Y-33566895D01*
X43815465Y-33566895D02*
X43934513Y-33773092D01*
X43934513Y-33773092D02*
X43940893Y-33879380D01*
X43940893Y-33879380D02*
X43923463Y-33944429D01*
X43923463Y-33944429D02*
X43864794Y-34033287D01*
X43864794Y-34033287D02*
X43658597Y-34152335D01*
X43658597Y-34152335D02*
X43552309Y-34158714D01*
X43552309Y-34158714D02*
X43487260Y-34141285D01*
D12*
X46190476Y-68582666D02*
X53809524Y-68582666D01*
D11*
X66373528Y-57249853D02*
X65794469Y-57300433D01*
X66087814Y-57744725D02*
X65221789Y-57244725D01*
X65221789Y-57244725D02*
X65412265Y-56914810D01*
X65412265Y-56914810D02*
X65501123Y-56856141D01*
X65501123Y-56856141D02*
X65566172Y-56838711D01*
X65566172Y-56838711D02*
X65672460Y-56845091D01*
X65672460Y-56845091D02*
X65796178Y-56916520D01*
X65796178Y-56916520D02*
X65854847Y-57005378D01*
X65854847Y-57005378D02*
X65872277Y-57070427D01*
X65872277Y-57070427D02*
X65865897Y-57176715D01*
X65865897Y-57176715D02*
X65675421Y-57506629D01*
X66611623Y-56837460D02*
X66706862Y-56672503D01*
X66706862Y-56672503D02*
X66713241Y-56566215D01*
X66713241Y-56566215D02*
X66695812Y-56501166D01*
X66695812Y-56501166D02*
X66619713Y-56347259D01*
X66619713Y-56347259D02*
X66478565Y-56210781D01*
X66478565Y-56210781D02*
X66148651Y-56020305D01*
X66148651Y-56020305D02*
X66042362Y-56013925D01*
X66042362Y-56013925D02*
X65977314Y-56031355D01*
X65977314Y-56031355D02*
X65888455Y-56090024D01*
X65888455Y-56090024D02*
X65793217Y-56254981D01*
X65793217Y-56254981D02*
X65786837Y-56361269D01*
X65786837Y-56361269D02*
X65804267Y-56426318D01*
X65804267Y-56426318D02*
X65862936Y-56515177D01*
X65862936Y-56515177D02*
X66069133Y-56634224D01*
X66069133Y-56634224D02*
X66175421Y-56640604D01*
X66175421Y-56640604D02*
X66240470Y-56623174D01*
X66240470Y-56623174D02*
X66329328Y-56564505D01*
X66329328Y-56564505D02*
X66424566Y-56399548D01*
X66424566Y-56399548D02*
X66430946Y-56293260D01*
X66430946Y-56293260D02*
X66413516Y-56228211D01*
X66413516Y-56228211D02*
X66354847Y-56139353D01*
X42085093Y-33617422D02*
X41585093Y-32751396D01*
X41585093Y-32751396D02*
X41791290Y-32632349D01*
X41791290Y-32632349D02*
X41938817Y-32602159D01*
X41938817Y-32602159D02*
X42068915Y-32637019D01*
X42068915Y-32637019D02*
X42157773Y-32695688D01*
X42157773Y-32695688D02*
X42294251Y-32836836D01*
X42294251Y-32836836D02*
X42365679Y-32960554D01*
X42365679Y-32960554D02*
X42419678Y-33149320D01*
X42419678Y-33149320D02*
X42426058Y-33255609D01*
X42426058Y-33255609D02*
X42391198Y-33385706D01*
X42391198Y-33385706D02*
X42291290Y-33498374D01*
X42291290Y-33498374D02*
X42085093Y-33617422D01*
X42863512Y-32013301D02*
X42451119Y-32251396D01*
X42451119Y-32251396D02*
X42647975Y-32687599D01*
X42647975Y-32687599D02*
X42665405Y-32622550D01*
X42665405Y-32622550D02*
X42724074Y-32533692D01*
X42724074Y-32533692D02*
X42930270Y-32414644D01*
X42930270Y-32414644D02*
X43036558Y-32408264D01*
X43036558Y-32408264D02*
X43101607Y-32425694D01*
X43101607Y-32425694D02*
X43190465Y-32484363D01*
X43190465Y-32484363D02*
X43309513Y-32690560D01*
X43309513Y-32690560D02*
X43315893Y-32796848D01*
X43315893Y-32796848D02*
X43298463Y-32861897D01*
X43298463Y-32861897D02*
X43239794Y-32950755D01*
X43239794Y-32950755D02*
X43033597Y-33069803D01*
X43033597Y-33069803D02*
X42927309Y-33076182D01*
X42927309Y-33076182D02*
X42862260Y-33058753D01*
X46489819Y-67583333D02*
X47204104Y-67583333D01*
X47204104Y-67583333D02*
X47346961Y-67630952D01*
X47346961Y-67630952D02*
X47442200Y-67726190D01*
X47442200Y-67726190D02*
X47489819Y-67869047D01*
X47489819Y-67869047D02*
X47489819Y-67964285D01*
X46585057Y-67154761D02*
X46537438Y-67107142D01*
X46537438Y-67107142D02*
X46489819Y-67011904D01*
X46489819Y-67011904D02*
X46489819Y-66773809D01*
X46489819Y-66773809D02*
X46537438Y-66678571D01*
X46537438Y-66678571D02*
X46585057Y-66630952D01*
X46585057Y-66630952D02*
X46680295Y-66583333D01*
X46680295Y-66583333D02*
X46775533Y-66583333D01*
X46775533Y-66583333D02*
X46918390Y-66630952D01*
X46918390Y-66630952D02*
X47489819Y-67202380D01*
X47489819Y-67202380D02*
X47489819Y-66583333D01*
X67170346Y-58369725D02*
X66304321Y-57869725D01*
X66304321Y-57869725D02*
X66423368Y-57663528D01*
X66423368Y-57663528D02*
X66536036Y-57563620D01*
X66536036Y-57563620D02*
X66666134Y-57528760D01*
X66666134Y-57528760D02*
X66772422Y-57535140D01*
X66772422Y-57535140D02*
X66961189Y-57589139D01*
X66961189Y-57589139D02*
X67084907Y-57660567D01*
X67084907Y-57660567D02*
X67226054Y-57797045D01*
X67226054Y-57797045D02*
X67284723Y-57885903D01*
X67284723Y-57885903D02*
X67319583Y-58016001D01*
X67319583Y-58016001D02*
X67289394Y-58163528D01*
X67289394Y-58163528D02*
X67170346Y-58369725D01*
X67694155Y-57462460D02*
X67789394Y-57297503D01*
X67789394Y-57297503D02*
X67795773Y-57191215D01*
X67795773Y-57191215D02*
X67778344Y-57126166D01*
X67778344Y-57126166D02*
X67702245Y-56972259D01*
X67702245Y-56972259D02*
X67561097Y-56835781D01*
X67561097Y-56835781D02*
X67231183Y-56645305D01*
X67231183Y-56645305D02*
X67124894Y-56638925D01*
X67124894Y-56638925D02*
X67059846Y-56656355D01*
X67059846Y-56656355D02*
X66970987Y-56715024D01*
X66970987Y-56715024D02*
X66875749Y-56879981D01*
X66875749Y-56879981D02*
X66869369Y-56986269D01*
X66869369Y-56986269D02*
X66886799Y-57051318D01*
X66886799Y-57051318D02*
X66945468Y-57140177D01*
X66945468Y-57140177D02*
X67151665Y-57259224D01*
X67151665Y-57259224D02*
X67257953Y-57265604D01*
X67257953Y-57265604D02*
X67323002Y-57248174D01*
X67323002Y-57248174D02*
X67411860Y-57189505D01*
X67411860Y-57189505D02*
X67507098Y-57024548D01*
X67507098Y-57024548D02*
X67513478Y-56918260D01*
X67513478Y-56918260D02*
X67496048Y-56853211D01*
X67496048Y-56853211D02*
X67437379Y-56764353D01*
X49595238Y-57033009D02*
X49738095Y-57080628D01*
X49738095Y-57080628D02*
X49785714Y-57128247D01*
X49785714Y-57128247D02*
X49833333Y-57223485D01*
X49833333Y-57223485D02*
X49833333Y-57366342D01*
X49833333Y-57366342D02*
X49785714Y-57461580D01*
X49785714Y-57461580D02*
X49738095Y-57509200D01*
X49738095Y-57509200D02*
X49642857Y-57556819D01*
X49642857Y-57556819D02*
X49261905Y-57556819D01*
X49261905Y-57556819D02*
X49261905Y-56556819D01*
X49261905Y-56556819D02*
X49595238Y-56556819D01*
X49595238Y-56556819D02*
X49690476Y-56604438D01*
X49690476Y-56604438D02*
X49738095Y-56652057D01*
X49738095Y-56652057D02*
X49785714Y-56747295D01*
X49785714Y-56747295D02*
X49785714Y-56842533D01*
X49785714Y-56842533D02*
X49738095Y-56937771D01*
X49738095Y-56937771D02*
X49690476Y-56985390D01*
X49690476Y-56985390D02*
X49595238Y-57033009D01*
X49595238Y-57033009D02*
X49261905Y-57033009D01*
X50785714Y-57556819D02*
X50214286Y-57556819D01*
X50500000Y-57556819D02*
X50500000Y-56556819D01*
X50500000Y-56556819D02*
X50404762Y-56699676D01*
X50404762Y-56699676D02*
X50309524Y-56794914D01*
X50309524Y-56794914D02*
X50214286Y-56842533D01*
X65585758Y-43204965D02*
X65831484Y-42678195D01*
X65300043Y-42710093D02*
X66166069Y-42210093D01*
X66166069Y-42210093D02*
X66356545Y-42540008D01*
X66356545Y-42540008D02*
X66362925Y-42646296D01*
X66362925Y-42646296D02*
X66345495Y-42711345D01*
X66345495Y-42711345D02*
X66286826Y-42800203D01*
X66286826Y-42800203D02*
X66163108Y-42871632D01*
X66163108Y-42871632D02*
X66056820Y-42878011D01*
X66056820Y-42878011D02*
X65991771Y-42860582D01*
X65991771Y-42860582D02*
X65902913Y-42801913D01*
X65902913Y-42801913D02*
X65712436Y-42471998D01*
X66618450Y-42993640D02*
X66951783Y-43570990D01*
X66951783Y-43570990D02*
X65871472Y-43699837D01*
X31854819Y-48663220D02*
X30854819Y-48663220D01*
X30854819Y-48663220D02*
X30854819Y-48425125D01*
X30854819Y-48425125D02*
X30902438Y-48282268D01*
X30902438Y-48282268D02*
X30997676Y-48187030D01*
X30997676Y-48187030D02*
X31092914Y-48139411D01*
X31092914Y-48139411D02*
X31283390Y-48091792D01*
X31283390Y-48091792D02*
X31426247Y-48091792D01*
X31426247Y-48091792D02*
X31616723Y-48139411D01*
X31616723Y-48139411D02*
X31711961Y-48187030D01*
X31711961Y-48187030D02*
X31807200Y-48282268D01*
X31807200Y-48282268D02*
X31854819Y-48425125D01*
X31854819Y-48425125D02*
X31854819Y-48663220D01*
X30854819Y-47758458D02*
X30854819Y-47139411D01*
X30854819Y-47139411D02*
X31235771Y-47472744D01*
X31235771Y-47472744D02*
X31235771Y-47329887D01*
X31235771Y-47329887D02*
X31283390Y-47234649D01*
X31283390Y-47234649D02*
X31331009Y-47187030D01*
X31331009Y-47187030D02*
X31426247Y-47139411D01*
X31426247Y-47139411D02*
X31664342Y-47139411D01*
X31664342Y-47139411D02*
X31759580Y-47187030D01*
X31759580Y-47187030D02*
X31807200Y-47234649D01*
X31807200Y-47234649D02*
X31854819Y-47329887D01*
X31854819Y-47329887D02*
X31854819Y-47615601D01*
X31854819Y-47615601D02*
X31807200Y-47710839D01*
X31807200Y-47710839D02*
X31759580Y-47758458D01*
X34954201Y-39769725D02*
X34088176Y-39269725D01*
X34088176Y-39269725D02*
X34207223Y-39063528D01*
X34207223Y-39063528D02*
X34319891Y-38963620D01*
X34319891Y-38963620D02*
X34449989Y-38928760D01*
X34449989Y-38928760D02*
X34556277Y-38935140D01*
X34556277Y-38935140D02*
X34745044Y-38989139D01*
X34745044Y-38989139D02*
X34868762Y-39060567D01*
X34868762Y-39060567D02*
X35009909Y-39197045D01*
X35009909Y-39197045D02*
X35068578Y-39285903D01*
X35068578Y-39285903D02*
X35103438Y-39416001D01*
X35103438Y-39416001D02*
X35073249Y-39563528D01*
X35073249Y-39563528D02*
X34954201Y-39769725D01*
X35091136Y-38199212D02*
X35668487Y-38532545D01*
X34642174Y-38214933D02*
X35141716Y-38778272D01*
X35141716Y-38778272D02*
X35451240Y-38242161D01*
X66382576Y-42085093D02*
X67248602Y-41585093D01*
X67248602Y-41585093D02*
X67367649Y-41791290D01*
X67367649Y-41791290D02*
X67397839Y-41938817D01*
X67397839Y-41938817D02*
X67362979Y-42068915D01*
X67362979Y-42068915D02*
X67304310Y-42157773D01*
X67304310Y-42157773D02*
X67163162Y-42294251D01*
X67163162Y-42294251D02*
X67039444Y-42365679D01*
X67039444Y-42365679D02*
X66850678Y-42419678D01*
X66850678Y-42419678D02*
X66744389Y-42426058D01*
X66744389Y-42426058D02*
X66614292Y-42391198D01*
X66614292Y-42391198D02*
X66501624Y-42291290D01*
X66501624Y-42291290D02*
X66382576Y-42085093D01*
X67700983Y-42368640D02*
X68034316Y-42945990D01*
X68034316Y-42945990D02*
X66954005Y-43074837D01*
X44783333Y-45809580D02*
X44735714Y-45857200D01*
X44735714Y-45857200D02*
X44592857Y-45904819D01*
X44592857Y-45904819D02*
X44497619Y-45904819D01*
X44497619Y-45904819D02*
X44354762Y-45857200D01*
X44354762Y-45857200D02*
X44259524Y-45761961D01*
X44259524Y-45761961D02*
X44211905Y-45666723D01*
X44211905Y-45666723D02*
X44164286Y-45476247D01*
X44164286Y-45476247D02*
X44164286Y-45333390D01*
X44164286Y-45333390D02*
X44211905Y-45142914D01*
X44211905Y-45142914D02*
X44259524Y-45047676D01*
X44259524Y-45047676D02*
X44354762Y-44952438D01*
X44354762Y-44952438D02*
X44497619Y-44904819D01*
X44497619Y-44904819D02*
X44592857Y-44904819D01*
X44592857Y-44904819D02*
X44735714Y-44952438D01*
X44735714Y-44952438D02*
X44783333Y-45000057D01*
X45164286Y-45000057D02*
X45211905Y-44952438D01*
X45211905Y-44952438D02*
X45307143Y-44904819D01*
X45307143Y-44904819D02*
X45545238Y-44904819D01*
X45545238Y-44904819D02*
X45640476Y-44952438D01*
X45640476Y-44952438D02*
X45688095Y-45000057D01*
X45688095Y-45000057D02*
X45735714Y-45095295D01*
X45735714Y-45095295D02*
X45735714Y-45190533D01*
X45735714Y-45190533D02*
X45688095Y-45333390D01*
X45688095Y-45333390D02*
X45116667Y-45904819D01*
X45116667Y-45904819D02*
X45735714Y-45904819D01*
X69054819Y-48663220D02*
X68054819Y-48663220D01*
X68054819Y-48663220D02*
X68054819Y-48425125D01*
X68054819Y-48425125D02*
X68102438Y-48282268D01*
X68102438Y-48282268D02*
X68197676Y-48187030D01*
X68197676Y-48187030D02*
X68292914Y-48139411D01*
X68292914Y-48139411D02*
X68483390Y-48091792D01*
X68483390Y-48091792D02*
X68626247Y-48091792D01*
X68626247Y-48091792D02*
X68816723Y-48139411D01*
X68816723Y-48139411D02*
X68911961Y-48187030D01*
X68911961Y-48187030D02*
X69007200Y-48282268D01*
X69007200Y-48282268D02*
X69054819Y-48425125D01*
X69054819Y-48425125D02*
X69054819Y-48663220D01*
X68483390Y-47520363D02*
X68435771Y-47615601D01*
X68435771Y-47615601D02*
X68388152Y-47663220D01*
X68388152Y-47663220D02*
X68292914Y-47710839D01*
X68292914Y-47710839D02*
X68245295Y-47710839D01*
X68245295Y-47710839D02*
X68150057Y-47663220D01*
X68150057Y-47663220D02*
X68102438Y-47615601D01*
X68102438Y-47615601D02*
X68054819Y-47520363D01*
X68054819Y-47520363D02*
X68054819Y-47329887D01*
X68054819Y-47329887D02*
X68102438Y-47234649D01*
X68102438Y-47234649D02*
X68150057Y-47187030D01*
X68150057Y-47187030D02*
X68245295Y-47139411D01*
X68245295Y-47139411D02*
X68292914Y-47139411D01*
X68292914Y-47139411D02*
X68388152Y-47187030D01*
X68388152Y-47187030D02*
X68435771Y-47234649D01*
X68435771Y-47234649D02*
X68483390Y-47329887D01*
X68483390Y-47329887D02*
X68483390Y-47520363D01*
X68483390Y-47520363D02*
X68531009Y-47615601D01*
X68531009Y-47615601D02*
X68578628Y-47663220D01*
X68578628Y-47663220D02*
X68673866Y-47710839D01*
X68673866Y-47710839D02*
X68864342Y-47710839D01*
X68864342Y-47710839D02*
X68959580Y-47663220D01*
X68959580Y-47663220D02*
X69007200Y-47615601D01*
X69007200Y-47615601D02*
X69054819Y-47520363D01*
X69054819Y-47520363D02*
X69054819Y-47329887D01*
X69054819Y-47329887D02*
X69007200Y-47234649D01*
X69007200Y-47234649D02*
X68959580Y-47187030D01*
X68959580Y-47187030D02*
X68864342Y-47139411D01*
X68864342Y-47139411D02*
X68673866Y-47139411D01*
X68673866Y-47139411D02*
X68578628Y-47187030D01*
X68578628Y-47187030D02*
X68531009Y-47234649D01*
X68531009Y-47234649D02*
X68483390Y-47329887D01*
D13*
%TO.C,R1*%
X40668057Y-65604655D02*
X40401943Y-65451014D01*
X41048057Y-64946476D02*
X40781943Y-64792835D01*
D10*
%TO.C,D2*%
X34573531Y-60193968D02*
G75*
G02*
X34473529Y-60193968I-50001J0D01*
G01*
X34473529Y-60193968D02*
G75*
G02*
X34573531Y-60193968I50001J0D01*
G01*
D13*
%TO.C,C6*%
X49592164Y-33890000D02*
X49807836Y-33890000D01*
X49592164Y-34610000D02*
X49807836Y-34610000D01*
%TO.C,J1*%
X47335000Y-33110000D02*
X47335000Y-32000000D01*
X48095000Y-33110000D02*
X47335000Y-33110000D01*
X48855000Y-30890000D02*
X52600000Y-30890000D01*
X48855000Y-31436529D02*
X48855000Y-30890000D01*
X48855000Y-33110000D02*
X48855000Y-32563471D01*
X48855000Y-33110000D02*
X52600000Y-33110000D01*
X52600000Y-31692470D02*
X52600000Y-30890000D01*
X52600000Y-33110000D02*
X52600000Y-32307530D01*
%TO.C,R2*%
X34548985Y-59098057D02*
X34395344Y-58831943D01*
X35207164Y-58718057D02*
X35053523Y-58451943D01*
D10*
%TO.C,D1*%
X41243969Y-66566469D02*
G75*
G02*
X41143967Y-66566469I-50001J0D01*
G01*
X41143967Y-66566469D02*
G75*
G02*
X41243969Y-66566469I50001J0D01*
G01*
D13*
%TO.C,U1*%
X48390000Y-42840000D02*
X48390000Y-42630000D01*
X48390000Y-45610000D02*
X48390000Y-45160000D01*
X48840000Y-42390000D02*
X48690000Y-42390000D01*
X48840000Y-45610000D02*
X48390000Y-45610000D01*
X51160000Y-42390000D02*
X51610000Y-42390000D01*
X51160000Y-45610000D02*
X51610000Y-45610000D01*
X51610000Y-42390000D02*
X51610000Y-42840000D01*
X51610000Y-45610000D02*
X51610000Y-45160000D01*
X48390000Y-42390000D02*
X48150000Y-42060000D01*
X48630000Y-42060000D01*
X48390000Y-42390000D01*
G36*
X48390000Y-42390000D02*
G01*
X48150000Y-42060000D01*
X48630000Y-42060000D01*
X48390000Y-42390000D01*
G37*
%TO.C,T51*%
X48700000Y-37000000D02*
G75*
G02*
X46300000Y-37000000I-1200000J0D01*
G01*
X46300000Y-37000000D02*
G75*
G02*
X48700000Y-37000000I1200000J0D01*
G01*
%TO.C,C1*%
X47915000Y-46942164D02*
X47915000Y-47157836D01*
X48635000Y-46942164D02*
X48635000Y-47157836D01*
%TO.C,C5*%
X45407836Y-33890000D02*
X45192164Y-33890000D01*
X45407836Y-34610000D02*
X45192164Y-34610000D01*
%TO.C,R10*%
X59218057Y-64792835D02*
X58951943Y-64946476D01*
X59598057Y-65451014D02*
X59331943Y-65604655D01*
%TO.C,T55*%
X47400961Y-37750000D02*
G75*
G02*
X45000961Y-37750000I-1200000J0D01*
G01*
X45000961Y-37750000D02*
G75*
G02*
X47400961Y-37750000I1200000J0D01*
G01*
%TO.C,T53*%
X49999038Y-37750000D02*
G75*
G02*
X47599038Y-37750000I-1200000J0D01*
G01*
X47599038Y-37750000D02*
G75*
G02*
X49999038Y-37750000I1200000J0D01*
G01*
D10*
%TO.C,D6*%
X58356033Y-33433530D02*
G75*
G02*
X58256031Y-33433530I-50001J0D01*
G01*
X58256031Y-33433530D02*
G75*
G02*
X58356033Y-33433530I50001J0D01*
G01*
D13*
%TO.C,R8*%
X67170000Y-49846359D02*
X67170000Y-50153641D01*
X67930000Y-49846359D02*
X67930000Y-50153641D01*
%TO.C,R4*%
X34395344Y-41168057D02*
X34548985Y-40901943D01*
X35053523Y-41548057D02*
X35207164Y-41281943D01*
%TO.C,R3*%
X32070000Y-50153641D02*
X32070000Y-49846359D01*
X32830000Y-50153641D02*
X32830000Y-49846359D01*
%TO.C,T51*%
X48700000Y-35500000D02*
G75*
G02*
X46300000Y-35500000I-1200000J0D01*
G01*
X46300000Y-35500000D02*
G75*
G02*
X48700000Y-35500000I1200000J0D01*
G01*
D10*
%TO.C,D10*%
X60743969Y-65476469D02*
G75*
G02*
X60643967Y-65476469I-50001J0D01*
G01*
X60643967Y-65476469D02*
G75*
G02*
X60743969Y-65476469I50001J0D01*
G01*
D13*
%TO.C,C4*%
X49592164Y-39390000D02*
X49807836Y-39390000D01*
X49592164Y-40110000D02*
X49807836Y-40110000D01*
%TO.C,T56*%
X47400961Y-36250000D02*
G75*
G02*
X45000961Y-36250000I-1200000J0D01*
G01*
X45000961Y-36250000D02*
G75*
G02*
X47400961Y-36250000I1200000J0D01*
G01*
%TO.C,C3*%
X45407836Y-39390000D02*
X45192164Y-39390000D01*
X45407836Y-40110000D02*
X45192164Y-40110000D01*
%TO.C,T52*%
X49999038Y-36250000D02*
G75*
G02*
X47599038Y-36250000I-1200000J0D01*
G01*
X47599038Y-36250000D02*
G75*
G02*
X49999038Y-36250000I1200000J0D01*
G01*
%TO.C,R6*%
X58451943Y-35053523D02*
X58718057Y-35207164D01*
X58831943Y-34395344D02*
X59098057Y-34548985D01*
%TO.C,R5*%
X40901943Y-34548985D02*
X41168057Y-34395344D01*
X41281943Y-35207164D02*
X41548057Y-35053523D01*
%TO.C,-*%
X52250000Y-60000000D02*
G75*
G02*
X47750000Y-60000000I-2250000J0D01*
G01*
X47750000Y-60000000D02*
G75*
G02*
X52250000Y-60000000I2250000J0D01*
G01*
%TO.C,T54*%
X48700000Y-38500000D02*
G75*
G02*
X46300000Y-38500000I-1200000J0D01*
G01*
X46300000Y-38500000D02*
G75*
G02*
X48700000Y-38500000I1200000J0D01*
G01*
%TO.C,R9*%
X64946476Y-58451943D02*
X64792835Y-58718057D01*
X65604655Y-58831943D02*
X65451014Y-59098057D01*
%TO.C,T1*%
X51100000Y-51000000D02*
G75*
G02*
X48900000Y-51000000I-1100000J0D01*
G01*
X48900000Y-51000000D02*
G75*
G02*
X51100000Y-51000000I1100000J0D01*
G01*
D10*
%TO.C,D5*%
X39856033Y-34523530D02*
G75*
G02*
X39756031Y-34523530I-50001J0D01*
G01*
X39756031Y-34523530D02*
G75*
G02*
X39856033Y-34523530I50001J0D01*
G01*
D13*
%TO.C,J2*%
X47970000Y-69110000D02*
X47970000Y-68000000D01*
X48730000Y-69110000D02*
X47970000Y-69110000D01*
X49490000Y-66890000D02*
X51965000Y-66890000D01*
X49490000Y-67436529D02*
X49490000Y-66890000D01*
X49490000Y-69110000D02*
X49490000Y-68563471D01*
X49490000Y-69110000D02*
X51965000Y-69110000D01*
X51965000Y-67692470D02*
X51965000Y-66890000D01*
X51965000Y-69110000D02*
X51965000Y-68307530D01*
D10*
%TO.C,D9*%
X66616470Y-58306032D02*
G75*
G02*
X66516468Y-58306032I-50001J0D01*
G01*
X66516468Y-58306032D02*
G75*
G02*
X66616470Y-58306032I50001J0D01*
G01*
D13*
%TO.C,B1*%
X52250000Y-60000000D02*
G75*
G02*
X47750000Y-60000000I-2250000J0D01*
G01*
X47750000Y-60000000D02*
G75*
G02*
X52250000Y-60000000I2250000J0D01*
G01*
%TO.C,R7*%
X64792835Y-41281943D02*
X64946476Y-41548057D01*
X65451014Y-40901943D02*
X65604655Y-41168057D01*
D10*
%TO.C,D3*%
X31550000Y-51090000D02*
G75*
G02*
X31450000Y-51090000I-50000J0D01*
G01*
X31450000Y-51090000D02*
G75*
G02*
X31550000Y-51090000I50000J0D01*
G01*
%TO.C,D4*%
X33483531Y-41693968D02*
G75*
G02*
X33383529Y-41693968I-50001J0D01*
G01*
X33383529Y-41693968D02*
G75*
G02*
X33483531Y-41693968I50001J0D01*
G01*
%TO.C,D7*%
X65526470Y-39806032D02*
G75*
G02*
X65426468Y-39806032I-50001J0D01*
G01*
X65426468Y-39806032D02*
G75*
G02*
X65526470Y-39806032I50001J0D01*
G01*
D13*
%TO.C,C2*%
X47057836Y-45090000D02*
X46842164Y-45090000D01*
X47057836Y-45810000D02*
X46842164Y-45810000D01*
D10*
%TO.C,D8*%
X68550000Y-48910000D02*
G75*
G02*
X68450000Y-48910000I-50000J0D01*
G01*
X68450000Y-48910000D02*
G75*
G02*
X68550000Y-48910000I50000J0D01*
G01*
%TD*%
%LPC*%
D14*
%TO.C,R1*%
X41166673Y-65453745D03*
X40283327Y-64943745D03*
%TD*%
D15*
%TO.C,D2*%
X34221030Y-59670022D03*
X33736030Y-58829978D03*
%TD*%
D16*
%TO.C,C6*%
X49220000Y-34250000D03*
X50180000Y-34250000D03*
%TD*%
D17*
%TO.C,J1*%
X48095000Y-32000000D03*
D18*
X49365000Y-32000000D03*
D17*
X50635000Y-32000000D03*
X51905000Y-32000000D03*
%TD*%
D19*
%TO.C,R2*%
X35056254Y-59216673D03*
X34546254Y-58333327D03*
%TD*%
D20*
%TO.C,D1*%
X40670022Y-66263969D03*
X39829978Y-65778969D03*
%TD*%
D21*
%TO.C,U1*%
X48550000Y-43200000D03*
X48550000Y-43600000D03*
X48550000Y-44000000D03*
X48550000Y-44400000D03*
X48550000Y-44800000D03*
D22*
X49200000Y-45450000D03*
X49600000Y-45450000D03*
X50000000Y-45450000D03*
X50400000Y-45450000D03*
X50800000Y-45450000D03*
D21*
X51450000Y-44800000D03*
X51450000Y-44400000D03*
X51450000Y-44000000D03*
X51450000Y-43600000D03*
X51450000Y-43200000D03*
D22*
X50800000Y-42550000D03*
X50400000Y-42550000D03*
X50000000Y-42550000D03*
X49600000Y-42550000D03*
X49200000Y-42550000D03*
D23*
X50000000Y-44000000D03*
%TD*%
D24*
%TO.C,T51*%
X47500000Y-37000000D03*
%TD*%
D25*
%TO.C,C1*%
X48275000Y-46570000D03*
X48275000Y-47530000D03*
%TD*%
D26*
%TO.C,C5*%
X45780000Y-34250000D03*
X44820000Y-34250000D03*
%TD*%
D27*
%TO.C,R10*%
X59716673Y-64943745D03*
X58833327Y-65453745D03*
%TD*%
D24*
%TO.C,T55*%
X46200961Y-37750000D03*
%TD*%
%TO.C,T53*%
X48799038Y-37750000D03*
%TD*%
D28*
%TO.C,D6*%
X58829978Y-33736030D03*
X59670022Y-34221030D03*
%TD*%
D29*
%TO.C,R8*%
X67550000Y-49490000D03*
X67550000Y-50510000D03*
%TD*%
D30*
%TO.C,R4*%
X34546254Y-41666673D03*
X35056254Y-40783327D03*
%TD*%
D31*
%TO.C,R3*%
X32450000Y-50510000D03*
X32450000Y-49490000D03*
%TD*%
D24*
%TO.C,T51*%
X47500000Y-35500000D03*
%TD*%
D32*
%TO.C,D10*%
X60170022Y-65778969D03*
X59329978Y-66263969D03*
%TD*%
D16*
%TO.C,C4*%
X49220000Y-39750000D03*
X50180000Y-39750000D03*
%TD*%
D24*
%TO.C,T56*%
X46200961Y-36250000D03*
%TD*%
D26*
%TO.C,C3*%
X45780000Y-39750000D03*
X44820000Y-39750000D03*
%TD*%
D24*
%TO.C,T52*%
X48799038Y-36250000D03*
%TD*%
D33*
%TO.C,R6*%
X58333327Y-34546254D03*
X59216673Y-35056254D03*
%TD*%
D34*
%TO.C,R5*%
X40783327Y-35056254D03*
X41666673Y-34546254D03*
%TD*%
D35*
%TO.C,-*%
X50000000Y-60000000D03*
%TD*%
D24*
%TO.C,T54*%
X47500000Y-38500000D03*
%TD*%
D36*
%TO.C,R9*%
X65453745Y-58333327D03*
X64943745Y-59216673D03*
%TD*%
D37*
%TO.C,T1*%
X50000000Y-51000000D03*
%TD*%
D38*
%TO.C,D5*%
X40329978Y-34221030D03*
X41170022Y-33736030D03*
%TD*%
D18*
%TO.C,J2*%
X48730000Y-68000000D03*
D17*
X50000000Y-68000000D03*
X51270000Y-68000000D03*
%TD*%
D39*
%TO.C,D9*%
X66263969Y-58829978D03*
X65778969Y-59670022D03*
%TD*%
D40*
%TO.C,B1*%
X50000000Y-60000000D03*
%TD*%
D41*
%TO.C,R7*%
X64943745Y-40783327D03*
X65453745Y-41666673D03*
%TD*%
D42*
%TO.C,D3*%
X31500000Y-50485000D03*
X31500000Y-49515000D03*
%TD*%
D43*
%TO.C,D4*%
X33736030Y-41170022D03*
X34221030Y-40329978D03*
%TD*%
D44*
%TO.C,D7*%
X65778969Y-40329978D03*
X66263969Y-41170022D03*
%TD*%
D26*
%TO.C,C2*%
X47430000Y-45450000D03*
X46470000Y-45450000D03*
%TD*%
D45*
%TO.C,D8*%
X68500000Y-49515000D03*
X68500000Y-50485000D03*
%TD*%
%LPD*%
M02*
