M48
; DRILL file {KiCad 8.0.7} date 2024-12-04T21:33:13-0600
; FORMAT={-:-/ absolute / metric / decimal}
; #@! TF.CreationDate,2024-12-04T21:33:13-06:00
; #@! TF.GenerationSoftware,Kicad,Pcbnew,8.0.7
; #@! TF.FileFunction,Plated,1,2,PTH
FMAT,2
METRIC
; #@! TA.AperFunction,Plated,PTH,ViaDrill
T1C0.300
; #@! TA.AperFunction,Plated,PTH,ComponentDrill
T2C0.300
; #@! TA.AperFunction,Plated,PTH,ComponentDrill
T3C1.000
%
G90
G05
T1
X34.221Y-59.67
X40.675Y-66.264
X41.99Y-45.0
X47.46Y-60.0
X48.3Y-45.5
X48.3Y-46.1
X48.397Y-48.647
X48.605Y-43.0
X48.9Y-45.5
X48.9Y-46.1
X49.5Y-43.8
X49.5Y-44.5
X49.8Y-47.244
X50.5Y-43.8
X50.5Y-44.5
X51.395Y-45.0
X51.4Y-41.874
X52.086Y-41.383
X52.5Y-59.7
X52.5Y-60.3
X53.0Y-59.4
X53.0Y-60.0
X53.0Y-60.6
X53.5Y-59.7
X53.5Y-60.3
T2
X48.095Y-32.0
X48.73Y-68.0
X49.365Y-32.0
X50.0Y-68.0
X50.635Y-32.0
X51.27Y-68.0
X51.905Y-32.0
T3
X46.201Y-36.25
X46.201Y-37.75
X47.5Y-35.5
X47.5Y-37.0
X47.5Y-38.5
X48.799Y-36.25
X48.799Y-37.75
T3
X50.0Y-50.0G85X50.0Y-52.0
G05
M30
